<svg width="1920" height="906" viewBox="0 0 1920 906" fill="none" xmlns="http://www.w3.org/2000/svg">
<g clip-path="url(#clip0_1756_34320)">
<rect width="1920" height="906" fill="white"/>
<rect x="-464" y="-281" width="1920" height="1670" fill="white"/>
<g opacity="0.5">
<path d="M979.936 428.117L980.188 428.549L980.436 428.404L980.436 428.117L979.936 428.117ZM1784.28 -98.2415C1783 -97.5051 1782.57 -95.8742 1783.3 -94.5988C1784.04 -93.3233 1785.67 -92.8863 1786.95 -93.6227C1788.22 -94.3591 1788.66 -95.99 1787.92 -97.2655C1787.19 -98.5409 1785.56 -98.9779 1784.28 -98.2415ZM554.017 676.409L553.765 675.977L553.517 676.122L553.517 676.409L554.017 676.409ZM247.167 988.691C245.891 989.427 245.454 991.058 246.191 992.333C246.927 993.609 248.558 994.046 249.833 993.309C251.109 992.573 251.546 990.942 250.809 989.667C250.073 988.391 248.442 987.954 247.167 988.691ZM1178.21 160.511L1177.95 160.079L1177.95 160.079L1178.21 160.511ZM979.936 276.31L979.683 275.879L979.436 276.023L979.436 276.31L979.936 276.31ZM1508.74 -32.5112L1508.74 -33.0112L1508.61 -33.0112L1508.49 -32.943L1508.74 -32.5112ZM1672.41 -32.5113L1672.41 -32.0113L1672.54 -32.0113L1672.65 -32.075L1672.41 -32.5113ZM554.017 809.694L554.272 810.124L554.517 809.978L554.517 809.694L554.017 809.694ZM979.684 427.685L553.765 675.977L554.269 676.841L980.188 428.549L979.684 427.685ZM1177.95 160.079L979.683 275.879L980.188 276.742L1178.46 160.943L1177.95 160.079ZM979.436 276.31L979.436 428.117L980.436 428.117L980.436 276.31L979.436 276.31ZM1508.49 -32.943L1177.95 160.079L1178.46 160.943L1508.99 -32.0795L1508.49 -32.943ZM1785.37 -96.3683L1672.16 -32.9475L1672.65 -32.075L1785.86 -95.4959L1785.37 -96.3683ZM1672.41 -33.0113L1508.74 -33.0112L1508.74 -32.0112L1672.41 -32.0113L1672.41 -33.0113ZM553.517 676.409L553.517 809.694L554.517 809.694L554.517 676.409L553.517 676.409ZM553.762 809.264L248.245 990.57L248.755 991.43L554.272 810.124L553.762 809.264Z" fill="#DCE4F1"/>
<path d="M933.517 148.205L933.769 148.637L934.017 148.493L934.017 148.205L933.517 148.205ZM1790.42 -446.034C1789.14 -445.298 1788.7 -443.667 1789.44 -442.392C1790.18 -441.116 1791.81 -440.679 1793.08 -441.416C1794.36 -442.152 1794.79 -443.783 1794.06 -445.058C1793.32 -446.334 1791.69 -446.771 1790.42 -446.034ZM828.113 209.58L827.861 209.148L827.613 209.293L827.613 209.58L828.113 209.58ZM826.78 375.691C825.504 376.427 825.067 378.058 825.804 379.333C826.54 380.609 828.171 381.046 829.446 380.309C830.722 379.573 831.159 377.942 830.422 376.667C829.686 375.391 828.055 374.954 826.78 375.691ZM933.517 51.268L933.267 50.8349L933.017 50.9792L933.017 51.268L933.517 51.268ZM933.266 147.773L827.861 209.148L828.365 210.013L933.769 148.637L933.266 147.773ZM827.613 209.58L827.613 378L828.613 378L828.613 209.58L827.613 209.58ZM933.017 51.268L933.017 148.205L934.017 148.205L934.017 51.268L933.017 51.268ZM1791.5 -444.158L933.267 50.8349L933.767 51.7011L1792 -443.292L1791.5 -444.158Z" fill="#DCE4F1"/>
<path d="M1319.16 275.047L1319.41 275.481L1319.66 275.338L1319.66 275.047L1319.16 275.047ZM1776.1 10.1877C1774.82 10.9241 1774.38 12.555 1775.12 13.8304C1775.86 15.1059 1777.49 15.5429 1778.76 14.8065C1780.04 14.0701 1780.47 12.4392 1779.74 11.1638C1779 9.88833 1777.37 9.45133 1776.1 10.1877ZM1156.18 367.792L1156.18 368.292L1156.31 368.292L1156.42 368.226L1156.18 367.792ZM200.798 919.223C199.522 919.96 199.085 921.59 199.822 922.866C200.558 924.141 202.189 924.578 203.465 923.842C204.74 923.106 205.177 921.475 204.441 920.199C203.704 918.924 202.073 918.487 200.798 919.223ZM746.325 608.519L746.574 608.952L746.825 608.808L746.825 608.519L746.325 608.519ZM1455.55 135.248L1455.55 134.748L1455.42 134.748L1455.3 134.813L1455.55 135.248ZM1567.39 135.248L1567.39 135.748L1567.52 135.748L1567.64 135.679L1567.39 135.248ZM1319.16 212.99L1318.91 212.555L1318.66 212.699L1318.66 212.99L1319.16 212.99ZM935.224 367.792L935.224 367.292L935.088 367.292L934.971 367.361L935.224 367.792ZM746.325 478.949L746.071 478.518L745.825 478.663L745.825 478.949L746.325 478.949ZM1318.91 274.612L1155.93 367.357L1156.42 368.226L1319.41 275.481L1318.91 274.612ZM746.076 608.085L201.882 921.099L202.38 921.966L746.574 608.952L746.076 608.085ZM1777.18 12.0654L1567.14 134.816L1567.64 135.679L1777.68 12.9288L1777.18 12.0654ZM1567.39 134.748L1455.55 134.748L1455.55 135.748L1567.39 135.748L1567.39 134.748ZM1455.3 134.813L1318.91 212.555L1319.41 213.424L1455.8 135.682L1455.3 134.813ZM1318.66 212.99L1318.66 275.047L1319.66 275.047L1319.66 212.99L1318.66 212.99ZM1156.18 367.292L935.224 367.292L935.224 368.292L1156.18 368.292L1156.18 367.292ZM745.825 478.949L745.825 608.519L746.825 608.519L746.825 478.949L745.825 478.949ZM934.971 367.361L746.071 478.518L746.579 479.38L935.478 368.223L934.971 367.361Z" fill="#DCE4F1"/>
<path d="M468.833 644.693C467.557 645.429 467.12 647.06 467.857 648.336C468.593 649.611 470.224 650.048 471.5 649.312C472.775 648.575 473.212 646.944 472.476 645.669C471.739 644.393 470.108 643.956 468.833 644.693ZM607.919 598.584L607.919 599.084L608.052 599.084L608.167 599.018L607.919 598.584ZM553.363 598.584L553.363 598.084L553.228 598.084L553.112 598.152L553.363 598.584ZM746.251 519.066L607.671 598.149L608.167 599.018L746.747 519.934L746.251 519.066ZM607.919 598.084L553.363 598.084L553.363 599.084L607.919 599.084L607.919 598.084ZM553.112 598.152L469.915 646.57L470.418 647.434L553.615 599.016L553.112 598.152Z" fill="#DCE4F1"/>
<path d="M1594.26 468.666L1594.26 469.166L1594.39 469.166L1594.51 469.099L1594.26 468.666ZM2026.87 214.446C2025.59 215.182 2025.16 216.813 2025.89 218.088C2026.63 219.364 2028.26 219.801 2029.53 219.064C2030.81 218.328 2031.25 216.697 2030.51 215.422C2029.77 214.146 2028.14 213.709 2026.87 214.446ZM1501.25 468.666L1501.25 468.166L1501.11 468.166L1501 468.232L1501.25 468.666ZM1282.34 594.168L1282.09 593.734L1281.84 593.878L1281.84 594.168L1282.34 594.168ZM1282.34 688.307L1282.59 688.742L1282.84 688.598L1282.84 688.307L1282.34 688.307ZM632.167 995.69C630.891 996.427 630.454 998.058 631.191 999.333C631.927 1000.61 633.558 1001.05 634.833 1000.31C636.109 999.573 636.546 997.942 635.809 996.666C635.073 995.391 633.442 994.954 632.167 995.69ZM962.504 806.966L962.504 806.466L962.37 806.466L962.253 806.533L962.504 806.966ZM1073.66 806.966L1073.66 807.466L1073.79 807.466L1073.91 807.4L1073.66 806.966ZM2027.95 216.323L1594 468.234L1594.51 469.099L2028.45 217.187L2027.95 216.323ZM1594.26 468.166L1501.25 468.166L1501.25 469.166L1594.26 469.166L1594.26 468.166ZM1501 468.232L1282.09 593.734L1282.59 594.602L1501.5 469.1L1501 468.232ZM1281.84 594.168L1281.84 688.307L1282.84 688.307L1282.84 594.168L1281.84 594.168ZM1282.09 687.872L1073.41 806.531L1073.91 807.4L1282.59 688.742L1282.09 687.872ZM1073.66 806.466L962.504 806.466L962.504 807.466L1073.66 807.466L1073.66 806.466ZM962.253 806.533L633.249 997.567L633.751 998.432L962.755 807.398L962.253 806.533Z" fill="#DCE4F1"/>
<path d="M1362.76 703.992L1363.01 704.423L1363.26 704.278V703.992H1362.76ZM1248.94 769.459C1248.94 770.931 1250.13 772.125 1251.6 772.125C1253.08 772.125 1254.27 770.931 1254.27 769.459C1254.27 767.986 1253.08 766.792 1251.6 766.792C1250.13 766.792 1248.94 767.986 1248.94 769.459ZM1362.26 455.081V703.992H1363.26V455.081H1362.26ZM1362.51 703.561L1251.35 769.028L1251.86 769.889L1363.01 704.423L1362.51 703.561Z" fill="#DCE4F1"/>
<path d="M841.046 570.749C839.77 571.485 839.333 573.116 840.07 574.391C840.806 575.667 842.437 576.104 843.712 575.367C844.988 574.631 845.425 573 844.689 571.725C843.952 570.449 842.321 570.012 841.046 570.749ZM1107.49 275.722L1107.24 275.29L1106.99 275.435L1106.99 275.722L1107.49 275.722ZM1107.49 419.051L1107.74 419.484L1107.99 419.339L1107.99 419.051L1107.49 419.051ZM1536.7 25.4542L1536.7 24.9542L1536.57 24.9542L1536.45 25.0223L1536.7 25.4542ZM1106.99 275.722L1106.99 419.051L1107.99 419.051L1107.99 275.722L1106.99 275.722ZM1107.24 418.619L842.128 572.626L842.63 573.49L1107.74 419.484L1107.24 418.619ZM1754.92 24.9544L1536.7 24.9542L1536.7 25.9542L1754.92 25.9544L1754.92 24.9544ZM1536.45 25.0223L1107.24 275.29L1107.74 276.154L1536.95 25.8862L1536.45 25.0223Z" fill="#DCE4F1"/>
<path d="M495.666 902.691C494.39 903.427 493.953 905.058 494.69 906.334C495.426 907.609 497.057 908.046 498.332 907.31C499.608 906.573 500.045 904.942 499.308 903.667C498.572 902.391 496.941 901.954 495.666 902.691ZM1852.05 170.337C1850.77 171.073 1850.33 172.704 1851.07 173.98C1851.81 175.255 1853.44 175.692 1854.71 174.956C1855.99 174.219 1856.42 172.589 1855.69 171.313C1854.95 170.038 1853.32 169.601 1852.05 170.337ZM798.377 783.194L798.377 783.694L798.511 783.694L798.627 783.627L798.377 783.194ZM709.274 783.194L709.274 782.694L709.14 782.694L709.025 782.761L709.274 783.194ZM798.377 782.694L709.274 782.694L709.274 783.694L798.377 783.694L798.377 782.694ZM709.025 782.761L496.75 904.567L497.248 905.434L709.522 783.628L709.025 782.761ZM1853.13 172.214L798.126 782.762L798.627 783.627L1853.63 173.079L1853.13 172.214Z" fill="#DCE4F1"/>
<path d="M754.141 703.881C752.866 704.618 752.429 706.249 753.165 707.524C753.902 708.799 755.533 709.236 756.808 708.5C758.083 707.764 758.52 706.133 757.784 704.857C757.048 703.582 755.417 703.145 754.141 703.881ZM1768.44 117.535C1767.16 118.272 1766.73 119.903 1767.46 121.178C1768.2 122.454 1769.83 122.891 1771.11 122.154C1772.38 121.418 1772.82 119.787 1772.08 118.511C1771.35 117.236 1769.72 116.799 1768.44 117.535ZM1769.52 119.412L755.224 705.758L755.725 706.624L1770.02 120.278L1769.52 119.412Z" fill="#DCE4F1"/>
<path d="M101.235 477.322C99.9591 478.058 99.5221 479.689 100.258 480.965C100.995 482.24 102.626 482.677 103.901 481.941C105.177 481.204 105.614 479.573 104.877 478.298C104.141 477.023 102.51 476.586 101.235 477.322ZM1103.02 -196.441C1101.74 -195.705 1101.3 -194.074 1102.04 -192.799C1102.78 -191.523 1104.41 -191.086 1105.68 -191.823C1106.96 -192.559 1107.39 -194.19 1106.66 -195.465C1105.92 -196.741 1104.29 -197.178 1103.02 -196.441ZM759.283 162.526L759.53 162.961L759.783 162.817L759.783 162.526L759.283 162.526ZM532.877 290.732L532.877 291.232L533.008 291.232L533.123 291.167L532.877 290.732ZM427.937 290.732L427.937 290.232L427.803 290.232L427.686 290.3L427.937 290.732ZM759.283 3.63222L759.035 3.19841L758.783 3.34248L758.783 3.63222L759.283 3.63222ZM759.037 162.091L532.63 290.297L533.123 291.167L759.53 162.961L759.037 162.091ZM532.877 290.232L427.937 290.232L427.937 291.232L532.877 291.232L532.877 290.232ZM427.686 290.3L102.317 479.199L102.819 480.064L428.188 291.164L427.686 290.3ZM1104.1 -194.566L759.035 3.19841L759.532 4.06602L1104.6 -193.698L1104.1 -194.566ZM758.783 3.63222L758.783 162.526L759.783 162.526L759.783 3.63222L758.783 3.63222Z" fill="#DCE4F1"/>
<path d="M239.638 464.628L239.887 465.062L240.138 464.918V464.628H239.638ZM-34.5044 621.476V621.976H-34.3714L-34.2561 621.91L-34.5044 621.476ZM-142.934 621.476V620.976H-143.067L-143.182 621.042L-142.934 621.476ZM-309.95 715.585C-309.95 717.058 -308.756 718.252 -307.283 718.252C-305.81 718.252 -304.617 717.058 -304.617 715.585C-304.617 714.112 -305.81 712.918 -307.283 712.918C-308.756 712.918 -309.95 714.112 -309.95 715.585ZM239.138 400.525V464.628H240.138V400.525H239.138ZM239.39 464.194L-34.7527 621.042L-34.2561 621.91L239.887 465.062L239.39 464.194ZM-34.5044 620.976H-142.934V621.976H-34.5044V620.976ZM-143.182 621.042L-307.532 715.151L-307.035 716.019L-142.685 621.91L-143.182 621.042Z" fill="#DCE4F1"/>
<path d="M-43.4132 373.929L-43.6661 373.498L-43.9132 373.643L-43.9132 373.929L-43.4132 373.929ZM697.257 -90.0579C695.981 -89.3216 695.544 -87.6906 696.28 -86.4152C697.017 -85.1398 698.648 -84.7028 699.923 -85.4391C701.199 -86.1755 701.636 -87.8064 700.899 -89.0819C700.163 -90.3573 698.532 -90.7943 697.257 -90.0579ZM455.134 148.887L455.387 149.319L455.634 149.174L455.634 148.887L455.134 148.887ZM254.678 266.182L254.662 266.682L254.806 266.686L254.931 266.613L254.678 266.182ZM146.168 262.772L146.184 262.272L146.04 262.268L145.915 262.341L146.168 262.772ZM-43.4133 436.669L-43.1623 437.101L-42.9133 436.957L-42.9133 436.669L-43.4133 436.669ZM-210.46 530.514C-211.735 531.25 -212.172 532.881 -211.436 534.157C-210.7 535.432 -209.069 535.869 -207.793 535.133C-206.518 534.396 -206.081 532.765 -206.817 531.49C-207.554 530.214 -209.184 529.777 -210.46 530.514ZM455.134 53.4145L454.883 52.982L454.634 53.1265L454.634 53.4145L455.134 53.4145ZM454.882 148.456L254.426 265.75L254.931 266.613L455.387 149.319L454.882 148.456ZM254.694 265.682L146.184 262.272L146.152 263.272L254.662 266.682L254.694 265.682ZM145.915 262.341L-43.6661 373.498L-43.1603 374.361L146.421 263.203L145.915 262.341ZM-43.9132 373.929L-43.9133 436.669L-42.9133 436.669L-42.9132 373.929L-43.9132 373.929ZM-43.6642 436.236L-209.378 532.391L-208.876 533.256L-43.1623 437.101L-43.6642 436.236ZM698.339 -88.1811L454.883 52.982L455.385 53.8471L698.841 -87.316L698.339 -88.1811ZM454.634 53.4145L454.634 148.887L455.634 148.887L455.634 53.4145L454.634 53.4145Z" fill="#DCE4F1"/>
<path d="M564.927 148.205L565.174 148.64L565.427 148.496V148.205H564.927ZM451.785 210.944C451.785 212.417 452.978 213.611 454.451 213.611C455.924 213.611 457.118 212.417 457.118 210.944C457.118 209.472 455.924 208.278 454.451 208.278C452.978 208.278 451.785 209.472 451.785 210.944ZM564.427 -10.6885V148.205H565.427V-10.6885H564.427ZM564.68 147.77L454.204 210.51L454.698 211.379L565.174 148.64L564.68 147.77Z" fill="#DCE4F1"/>
<path d="M-142.973 381.431L-142.724 381.865L-142.473 381.721L-142.473 381.431L-142.973 381.431ZM208.34 -458.309C207.065 -457.573 206.628 -455.942 207.364 -454.667C208.101 -453.391 209.732 -452.954 211.007 -453.691C212.283 -454.427 212.72 -456.058 211.983 -457.333C211.247 -458.609 209.616 -459.046 208.34 -458.309ZM209.674 82.7382L209.929 83.1681L210.174 83.0228L210.174 82.7382L209.674 82.7382ZM100.562 147.523L100.809 147.958L100.818 147.953L100.562 147.523ZM-142.973 285.958L-143.22 285.524L-143.473 285.668L-143.473 285.958L-142.973 285.958ZM-389.156 522.594L-389.156 523.094L-389.023 523.094L-388.908 523.028L-389.156 522.594ZM-748.511 664.175C-749.787 664.912 -750.224 666.543 -749.487 667.818C-748.751 669.094 -747.12 669.531 -745.844 668.794C-744.569 668.058 -744.132 666.427 -744.868 665.152C-745.605 663.876 -747.236 663.439 -748.511 664.175ZM-498.267 522.594L-498.267 522.094L-498.401 522.094L-498.517 522.161L-498.267 522.594ZM209.174 -456L209.174 82.7382L210.174 82.7382L210.174 -456L209.174 -456ZM209.419 82.3083L100.307 147.093L100.818 147.953L209.929 83.1681L209.419 82.3083ZM100.315 147.089L-143.22 285.524L-142.726 286.393L100.809 147.958L100.315 147.089ZM-143.473 285.958L-143.473 381.431L-142.473 381.431L-142.473 285.958L-143.473 285.958ZM-143.221 380.997L-389.405 522.16L-388.908 523.028L-142.724 381.865L-143.221 380.997ZM-389.156 522.094L-498.267 522.094L-498.267 523.094L-389.156 523.094L-389.156 522.094ZM-498.517 522.161L-747.428 666.052L-746.928 666.918L-498.017 523.027L-498.517 522.161Z" fill="#DCE4F1"/>
<path d="M-367.334 274.365L-367.334 274.865L-367.2 274.865L-367.083 274.798L-367.334 274.365ZM-176.297 67.7355L-176.549 67.3034L-176.797 67.448L-176.797 67.7355L-176.297 67.7355ZM-176.297 163.208L-176.046 163.64L-175.797 163.495L-175.797 163.208L-176.297 163.208ZM-588.285 274.365L-588.285 273.865L-588.422 273.865L-588.539 273.935L-588.285 274.365ZM-1025.37 590.525C-1026.65 591.261 -1027.08 592.892 -1026.35 594.168C-1025.61 595.443 -1023.98 595.88 -1022.7 595.144C-1021.43 594.408 -1020.99 592.777 -1021.73 591.501C-1022.46 590.226 -1024.1 589.789 -1025.37 590.525ZM-724.675 354.835L-724.929 354.404L-725.175 354.55L-725.175 354.835L-724.675 354.835ZM-724.675 417.574L-724.422 418.006L-724.175 417.861L-724.175 417.574L-724.675 417.574ZM-176.797 67.7355L-176.797 163.208L-175.797 163.208L-175.797 67.7355L-176.797 67.7355ZM-176.549 162.776L-367.586 273.933L-367.083 274.798L-176.046 163.64L-176.549 162.776ZM-367.334 273.865L-588.285 273.865L-588.285 274.865L-367.334 274.865L-367.334 273.865ZM-588.539 273.935L-724.929 354.404L-724.42 355.266L-588.031 274.796L-588.539 273.935ZM-725.175 354.835L-725.175 417.574L-724.175 417.574L-724.175 354.835L-725.175 354.835ZM-724.927 417.143L-1024.29 592.403L-1023.78 593.266L-724.422 418.006L-724.927 417.143ZM210.063 -157.739L-176.549 67.3034L-176.046 68.1676L210.566 -156.875L210.063 -157.739Z" fill="#DCE4F1"/>
<path d="M1040.05 990.691C1038.77 991.427 1038.33 993.058 1039.07 994.333C1039.81 995.609 1041.44 996.046 1042.71 995.309C1043.99 994.573 1044.42 992.942 1043.69 991.667C1042.95 990.391 1041.32 989.954 1040.05 990.691ZM1934.67 444.691C1933.39 445.427 1932.95 447.058 1933.69 448.333C1934.43 449.609 1936.06 450.046 1937.33 449.309C1938.61 448.573 1939.05 446.942 1938.31 445.667C1937.57 444.391 1935.94 443.954 1934.67 444.691ZM1450.55 720.713L1450.3 720.278L1450.05 720.421L1450.05 720.713L1450.55 720.713ZM1450.55 752.955L1450.8 753.386L1451.05 753.241L1451.05 752.955L1450.55 752.955ZM1450.05 720.713L1450.05 752.955L1451.05 752.955L1451.05 720.713L1450.05 720.713ZM1450.29 752.523L1041.13 992.569L1041.63 993.431L1450.8 753.386L1450.29 752.523ZM1935.75 446.564L1450.3 720.278L1450.79 721.149L1936.25 447.436L1935.75 446.564Z" fill="#DCE4F1"/>
<path d="M-8.62677 147.523V147.023H-8.7577L-8.87182 147.087L-8.62677 147.523ZM-202.921 255.271C-202.921 256.743 -201.727 257.937 -200.254 257.937C-198.781 257.937 -197.587 256.743 -197.587 255.271C-197.587 253.798 -198.781 252.604 -200.254 252.604C-201.727 252.604 -202.921 253.798 -202.921 255.271ZM103.213 147.023H-8.62677V148.023H103.213V147.023ZM-8.87182 147.087L-200.499 254.835L-200.009 255.706L-8.38171 147.959L-8.87182 147.087Z" fill="#DCE4F1"/>
<path d="M283.034 732.029L283.281 732.464L283.534 732.32V732.029H283.034ZM226.433 764.08V764.58H226.564L226.679 764.515L226.433 764.08ZM172.559 764.08V763.58H172.427L172.313 763.645L172.559 764.08ZM86.6947 811.135C86.6947 812.607 87.8886 813.801 89.3613 813.801C90.8341 813.801 92.028 812.607 92.028 811.135C92.028 809.662 90.8341 808.468 89.3613 808.468C87.8886 808.468 86.6947 809.662 86.6947 811.135ZM282.534 639.966V732.029H283.534V639.966H282.534ZM282.788 731.594L226.186 763.645L226.679 764.515L283.281 732.464L282.788 731.594ZM226.433 763.58H172.559V764.58H226.433V763.58ZM172.313 763.645L89.1152 810.699L89.6075 811.57L172.805 764.515L172.313 763.645Z" fill="#DCE4F1"/>
</g>
<path d="M931.288 -48L2865.95 1068.5L2806.45 1103L795.499 -48H931.288Z" fill="#D3E0F0"/>
<path d="M831.288 -113L2865.95 1063.5L2806.45 1098L763 -73.5L831.288 -113Z" fill="#E2EBF7"/>
<path d="M-1650.71 -397L283.949 719.502L224.449 754.002L-1786.5 -397H-1650.71Z" fill="#D3E0F0"/>
<path d="M-1750.71 -462L283.949 714.502L224.449 749.002L-1819 -422.5L-1750.71 -462Z" fill="#E2EBF7"/>
<path d="M1863.66 -237L-71 879.5L-11.5 914L1999.45 -237H1863.66Z" fill="#D3E0F0"/>
<path d="M1963.66 -302L-71 874.5L-11.5 909L2099.45 -302H1963.66Z" fill="#E2EBF7"/>
<path d="M717.288 568L2651.95 1684.5L2592.45 1719L581.499 568H717.288Z" fill="#D3E0F0"/>
<path d="M617.288 503L2651.95 1679.5L2592.45 1714L549 542.5L617.288 503Z" fill="#E2EBF7"/>
<g opacity="0.2" filter="url(#filter0_f_1756_34320)">
<path d="M1586 245L1664 188L1997 367L1902 428L1586 245Z" fill="url(#paint0_linear_1756_34320)"/>
</g>
<g opacity="0.2" filter="url(#filter1_f_1756_34320)">
<path d="M1592 253.5V153L1925 332L1828 388.5L1592 253.5Z" fill="url(#paint1_linear_1756_34320)"/>
</g>
<path d="M1828.41 281.38L1572 133.26L2157.65 -205L2413.8 -57L1828.41 281.38Z" fill="#E6EEF9"/>
<path d="M2413.8 -57V46.6L1828.41 385V281.38L2413.8 -57Z" fill="#C1D1E8"/>
<path d="M1828.41 281.38L1572 133.26V236.86L1828.41 385V281.38Z" fill="white"/>
<path d="M1597.07 214.06V251.66L1795.48 366.19V328.58L1597.07 214.06Z" fill="#E6EEF9"/>
<path d="M1601.64 254.23L1594.68 258.25V210.06L1601.64 206.05V254.23Z" fill="#B4C5E1"/>
<path d="M1587.72 254.23V206.05L1594.68 210.06V258.25L1587.72 254.23Z" fill="white"/>
<path d="M1641.11 276.99L1634.15 281.01V232.82L1641.11 228.8V276.99Z" fill="#B7C7E2"/>
<path d="M1627.19 276.99V228.8L1634.15 232.82V281.01L1627.19 276.99Z" fill="white"/>
<path d="M1680.57 299.75L1673.61 303.76V255.58L1680.57 251.56V299.75Z" fill="#B9CAE4"/>
<path d="M1666.65 299.75V251.56L1673.61 255.58V303.76L1666.65 299.75Z" fill="white"/>
<path d="M1720.03 322.5L1713.07 326.52V278.33L1720.03 274.31V322.5Z" fill="#BCCCE5"/>
<path d="M1706.12 322.5V274.31L1713.07 278.33V326.52L1706.12 322.5Z" fill="white"/>
<path d="M1759.5 345.26L1752.54 349.27V301.09L1759.5 297.07V345.26Z" fill="#BECFE7"/>
<path d="M1745.58 345.26V297.07L1752.54 301.09V349.27L1745.58 345.26Z" fill="white"/>
<path d="M1798.96 368.01L1792 372.03V323.84L1798.96 319.83V368.01Z" fill="#C1D1E8"/>
<path d="M1785.04 368.01V319.83L1792 323.84V372.03L1785.04 368.01Z" fill="white"/>
<path d="M1587.72 205.92L1594.68 201.9L1798.96 319.75L1792 323.77L1587.72 205.92Z" fill="#E6EEF9"/>
<path d="M1587.72 214.21V206.03L1791.95 323.77L1792.05 331.87L1587.72 214.21Z" fill="white"/>
<path d="M1600.94 171.65V190.19L1619.43 200.89V182.34L1600.94 171.65Z" fill="#E6EEF9"/>
<path d="M1619.43 199.89L1601.83 189.65V172.16L1600.94 171.65V190.19L1619.43 200.94V199.89Z" fill="#B4C5E1"/>
<path d="M1626.66 186.48V205.02L1645.15 215.72V197.17L1626.66 186.48Z" fill="#E6EEF9"/>
<path d="M1645.15 214.72L1627.55 204.48V186.99L1626.66 186.48V205.02L1645.15 215.78V214.72Z" fill="#B4C5E1"/>
<path d="M1652.38 201.31V219.86L1670.87 230.55V212L1652.38 201.31Z" fill="#E6EEF9"/>
<path d="M1670.87 229.55L1653.27 219.31V201.82L1652.38 201.31V219.86L1670.87 230.61V229.55Z" fill="#B4C5E1"/>
<path d="M1678.1 216.14V234.69L1696.59 245.38V226.83L1678.1 216.14Z" fill="#E6EEF9"/>
<path d="M1696.59 244.38L1678.99 234.14V216.65L1678.1 216.14V234.69L1696.59 245.44V244.38Z" fill="#B4C5E1"/>
<path d="M1703.82 230.97V249.52L1722.31 260.21V241.67L1703.82 230.97Z" fill="#E6EEF9"/>
<path d="M1722.31 259.21L1704.71 248.97V231.48L1703.82 230.97V249.52L1722.31 260.27V259.21Z" fill="#B4C5E1"/>
<path d="M1729.54 245.8V264.35L1748.03 275.04V256.5L1729.54 245.8Z" fill="#E6EEF9"/>
<path d="M1748.03 274.04L1730.43 263.8V246.31L1729.54 245.8V264.35L1748.03 275.1V274.04Z" fill="#B4C5E1"/>
<path d="M1755.26 260.63V279.18L1773.75 289.87V271.33L1755.26 260.63Z" fill="#E6EEF9"/>
<path d="M1773.75 288.87L1756.14 278.63V261.14L1755.26 260.63V279.18L1773.75 289.93V288.87Z" fill="#B4C5E1"/>
<path d="M1780.98 275.46V294.01L1799.47 304.7V286.16L1780.98 275.46Z" fill="#E6EEF9"/>
<path d="M1799.47 303.7L1781.86 293.46V275.97L1780.98 275.46V294.01L1799.47 304.76V303.7Z" fill="#B4C5E1"/>
<g clip-path="url(#clip1_1756_34320)">
<path d="M1182 683.087L1179 681.35V712.227C1179 713.207 1180.34 713.997 1182 713.997C1183.66 713.997 1185 713.204 1185 712.227V681.353L1182 683.087Z" fill="url(#paint2_linear_1756_34320)"/>
<path d="M1182 686.878V701.37L1207 686.878V672.389L1182 686.878Z" fill="#BECFE7"/>
<path d="M1157 672.389L1182 686.878V701.37L1157 686.878V672.389Z" fill="white"/>
<path d="M1182 657.603L1207 672.389L1182 686.879L1157 672.389L1182 657.603Z" fill="#E6EEF9"/>
<path d="M1181.99 667.322V681.809L1198.67 672.15V657.661L1181.99 667.322Z" fill="#BECFE7"/>
<path d="M1165.32 657.661L1181.99 667.322V681.812L1165.32 672.15V657.661Z" fill="white"/>
<path d="M1182 648L1198.67 657.664L1181.99 667.323L1165.32 657.655L1182 648Z" fill="#E6EEF9"/>
</g>
<g clip-path="url(#clip2_1756_34320)">
<path d="M1282 748.087L1279 746.35V777.227C1279 778.207 1280.34 778.997 1282 778.997C1283.66 778.997 1285 778.204 1285 777.227V746.353L1282 748.087Z" fill="url(#paint3_linear_1756_34320)"/>
<path d="M1282 751.878V766.37L1307 751.878V737.389L1282 751.878Z" fill="#BECFE7"/>
<path d="M1257 737.389L1282 751.878V766.37L1257 751.878V737.389Z" fill="white"/>
<path d="M1282 722.603L1307 737.389L1282 751.879L1257 737.389L1282 722.603Z" fill="#E6EEF9"/>
<path d="M1281.99 732.322V746.809L1298.67 737.15V722.661L1281.99 732.322Z" fill="#BECFE7"/>
<path d="M1265.32 722.661L1281.99 732.322V746.812L1265.32 737.15V722.661Z" fill="white"/>
<path d="M1282 713L1298.67 722.664L1281.99 732.323L1265.32 722.655L1282 713Z" fill="#E6EEF9"/>
</g>
<g clip-path="url(#clip3_1756_34320)">
<path d="M796 527.316L806.383 533.186L816.77 527.316L806.383 521.516L796 527.316Z" fill="#E6EEF9"/>
<path d="M806.383 520.131L836 503.392V594.608L831.77 597V510.567L810.615 522.523V527.307L806.383 529.699V520.131Z" fill="#B4C5E1"/>
<path d="M831.771 501L836.001 503.392L806.384 520.132L802.154 517.74L831.771 501Z" fill="#E6EEF9"/>
<path d="M802.154 517.828L806.384 520.219V529.787L802.154 527.395V517.828Z" fill="white"/>
<path d="M827.537 594.608L831.77 597V510.567L827.543 512.971L827.537 594.608Z" fill="#E6EEF9"/>
<path d="M806.383 537.876V533.095L816.769 527.313V532.097L806.383 537.876Z" fill="#B4C5E1"/>
<path d="M796 532.079V527.295L806.383 533.095V537.876L796 532.079Z" fill="white"/>
</g>
<g clip-path="url(#clip4_1756_34320)">
<path d="M304 581.316L293.617 587.186L283.23 581.316L293.617 575.516L304 581.316Z" fill="#E6EEF9"/>
<path d="M293.617 574.131L264 557.392V648.608L268.23 651V564.567L289.385 576.523V581.307L293.617 583.699V574.131Z" fill="#B4C5E1"/>
<path d="M268.229 555L263.999 557.392L293.616 574.132L297.846 571.74L268.229 555Z" fill="#E6EEF9"/>
<path d="M297.846 571.828L293.616 574.219V583.787L297.846 581.395V571.828Z" fill="white"/>
<path d="M272.463 648.608L268.23 651V564.567L272.457 566.971L272.463 648.608Z" fill="#E6EEF9"/>
<path d="M293.617 591.876V587.095L283.231 581.313V586.097L293.617 591.876Z" fill="#B4C5E1"/>
<path d="M304 586.079V581.295L293.617 587.095V591.876L304 586.079Z" fill="white"/>
</g>
<g clip-path="url(#clip5_1756_34320)">
<path d="M501 470.316L490.617 476.186L480.23 470.316L490.617 464.516L501 470.316Z" fill="#E6EEF9"/>
<path d="M490.617 463.131L461 446.392V537.608L465.23 540V453.567L486.385 465.523V470.307L490.617 472.699V463.131Z" fill="#B4C5E1"/>
<path d="M465.229 444L460.999 446.392L490.616 463.132L494.846 460.74L465.229 444Z" fill="#E6EEF9"/>
<path d="M494.846 460.828L490.616 463.219V472.787L494.846 470.395V460.828Z" fill="white"/>
<path d="M469.463 537.608L465.23 540V453.567L469.457 455.971L469.463 537.608Z" fill="#E6EEF9"/>
<path d="M490.617 480.876V476.095L480.231 470.313V475.097L490.617 480.876Z" fill="#B4C5E1"/>
<path d="M501 475.079V470.295L490.617 476.095V480.876L501 475.079Z" fill="white"/>
</g>
<g clip-path="url(#clip6_1756_34320)">
<path d="M931 621.316L941.383 627.186L951.77 621.316L941.383 615.516L931 621.316Z" fill="#E6EEF9"/>
<path d="M941.383 614.131L971 597.392V688.608L966.77 691V604.567L945.615 616.523V621.307L941.383 623.699V614.131Z" fill="#B4C5E1"/>
<path d="M966.771 595L971.001 597.392L941.384 614.132L937.154 611.74L966.771 595Z" fill="#E6EEF9"/>
<path d="M937.154 611.828L941.384 614.219V623.787L937.154 621.395V611.828Z" fill="white"/>
<path d="M962.537 688.608L966.77 691V604.567L962.543 606.971L962.537 688.608Z" fill="#E6EEF9"/>
<path d="M941.383 631.876V627.095L951.769 621.313V626.097L941.383 631.876Z" fill="#B4C5E1"/>
<path d="M931 626.079V621.295L941.383 627.095V631.876L931 626.079Z" fill="white"/>
</g>
<g clip-path="url(#clip7_1756_34320)">
<path d="M1292 822.316L1302.38 828.186L1312.77 822.316L1302.38 816.516L1292 822.316Z" fill="#E6EEF9"/>
<path d="M1302.38 815.131L1332 798.392V889.608L1327.77 892V805.567L1306.62 817.523V822.307L1302.38 824.699V815.131Z" fill="#B4C5E1"/>
<path d="M1327.77 796L1332 798.392L1302.38 815.132L1298.15 812.74L1327.77 796Z" fill="#E6EEF9"/>
<path d="M1298.15 812.828L1302.38 815.219V824.787L1298.15 822.395V812.828Z" fill="white"/>
<path d="M1323.54 889.608L1327.77 892V805.567L1323.54 807.971L1323.54 889.608Z" fill="#E6EEF9"/>
<path d="M1302.38 832.876V828.095L1312.77 822.313V827.097L1302.38 832.876Z" fill="#B4C5E1"/>
<path d="M1292 827.079V822.295L1302.38 828.095V832.876L1292 827.079Z" fill="white"/>
</g>
<g clip-path="url(#clip8_1756_34320)">
<path d="M358 743.12V988.78L584.78 1119.69V874.06L358 743.12Z" fill="white"/>
<path d="M584.85 874.08L584.94 1119.81L811.88 988.79V742.15L584.85 874.08Z" fill="#C1D1E8"/>
<path d="M796.24 783.14V801.69L608.58 909.9V891.35L796.24 783.14Z" fill="#B0C3E0"/>
<path d="M608.58 908.84L795.35 801.14V783.65L796.24 783.14V801.69L608.58 909.9V908.84Z" fill="#E6EEF9"/>
<path d="M796.24 816.74V835.29L608.58 943.5V924.95L796.24 816.74Z" fill="#B0C3E0"/>
<path d="M608.58 942.44L795.35 834.74V817.25L796.24 816.74V835.29L608.58 943.5V942.44Z" fill="#E6EEF9"/>
<path d="M796.24 850.34V868.89L608.58 977.1V958.55L796.24 850.34Z" fill="#B0C3E0"/>
<path d="M608.58 976.04L795.35 868.34V850.85L796.24 850.34V868.89L608.58 977.1V976.04Z" fill="#E6EEF9"/>
<path d="M796.24 883.94V902.49L608.58 1010.7V992.15L796.24 883.94Z" fill="#B0C3E0"/>
<path d="M608.58 1009.64L795.35 901.94V884.45L796.24 883.94V902.49L608.58 1010.7V1009.64Z" fill="#E6EEF9"/>
<path d="M377.91 783.6V802.15L565.57 910.35V891.81L377.91 783.6Z" fill="#E6EEF9"/>
<path d="M565.57 909.3L378.8 801.6V784.11L377.91 783.6V802.15L565.57 910.35V909.3Z" fill="#B4C5E1"/>
<path d="M377.91 817.2V835.75L565.57 943.95V925.41L377.91 817.2Z" fill="#E6EEF9"/>
<path d="M565.57 942.9L378.8 835.2V817.71L377.91 817.2V835.75L565.57 943.95V942.9Z" fill="#B4C5E1"/>
<path d="M377.91 850.8V869.35L565.57 977.55V959.01L377.91 850.8Z" fill="#E6EEF9"/>
<path d="M565.57 976.5L378.8 868.8V851.31L377.91 850.8V869.35L565.57 977.55V976.5Z" fill="#B4C5E1"/>
<path d="M377.91 884.4V902.94L565.57 1011.15V992.61L377.91 884.4Z" fill="#E6EEF9"/>
<path d="M565.57 1010.1L378.8 902.4V884.91L377.91 884.4V902.94L565.57 1011.15V1010.1Z" fill="#B4C5E1"/>
<path d="M811.88 742.15L584.78 612L358 743.12L584.85 874.08L811.88 742.15Z" fill="#E6EEF9"/>
</g>
</g>
<defs>
<filter id="filter0_f_1756_34320" x="1583" y="185" width="417" height="246" filterUnits="userSpaceOnUse" color-interpolation-filters="sRGB">
<feFlood flood-opacity="0" result="BackgroundImageFix"/>
<feBlend mode="normal" in="SourceGraphic" in2="BackgroundImageFix" result="shape"/>
<feGaussianBlur stdDeviation="1.5" result="effect1_foregroundBlur_1756_34320"/>
</filter>
<filter id="filter1_f_1756_34320" x="1589" y="150" width="339" height="241.5" filterUnits="userSpaceOnUse" color-interpolation-filters="sRGB">
<feFlood flood-opacity="0" result="BackgroundImageFix"/>
<feBlend mode="normal" in="SourceGraphic" in2="BackgroundImageFix" result="shape"/>
<feGaussianBlur stdDeviation="1.5" result="effect1_foregroundBlur_1756_34320"/>
</filter>
<linearGradient id="paint0_linear_1756_34320" x1="1900.32" y1="433.256" x2="1720.39" y2="136.472" gradientUnits="userSpaceOnUse">
<stop offset="0.0827419" stop-color="#B4C5E0" stop-opacity="0"/>
<stop offset="0.239407" stop-color="#0E3391"/>
<stop offset="0.414418" stop-color="#0E3391" stop-opacity="0.3"/>
</linearGradient>
<linearGradient id="paint1_linear_1756_34320" x1="1680.5" y1="404" x2="1758.07" y2="211.847" gradientUnits="userSpaceOnUse">
<stop offset="0.0827419" stop-color="#B4C5E0" stop-opacity="0"/>
<stop offset="1" stop-color="#0E3391"/>
</linearGradient>
<linearGradient id="paint2_linear_1756_34320" x1="1179.01" y1="697.676" x2="1185" y2="697.676" gradientUnits="userSpaceOnUse">
<stop offset="0.31" stop-color="white"/>
<stop offset="0.85" stop-color="#BECEE6"/>
</linearGradient>
<linearGradient id="paint3_linear_1756_34320" x1="1279.01" y1="762.676" x2="1285" y2="762.676" gradientUnits="userSpaceOnUse">
<stop offset="0.31" stop-color="white"/>
<stop offset="0.85" stop-color="#BECEE6"/>
</linearGradient>
<clipPath id="clip0_1756_34320">
<rect width="1920" height="906" fill="white"/>
</clipPath>
<clipPath id="clip1_1756_34320">
<rect width="50" height="66" fill="white" transform="translate(1157 648)"/>
</clipPath>
<clipPath id="clip2_1756_34320">
<rect width="50" height="66" fill="white" transform="translate(1257 713)"/>
</clipPath>
<clipPath id="clip3_1756_34320">
<rect width="40" height="96" fill="white" transform="translate(796 501)"/>
</clipPath>
<clipPath id="clip4_1756_34320">
<rect width="40" height="96" fill="white" transform="matrix(-1 0 0 1 304 555)"/>
</clipPath>
<clipPath id="clip5_1756_34320">
<rect width="40" height="96" fill="white" transform="matrix(-1 0 0 1 501 444)"/>
</clipPath>
<clipPath id="clip6_1756_34320">
<rect width="40" height="96" fill="white" transform="translate(931 595)"/>
</clipPath>
<clipPath id="clip7_1756_34320">
<rect width="40" height="96" fill="white" transform="translate(1292 796)"/>
</clipPath>
<clipPath id="clip8_1756_34320">
<rect width="453.88" height="507.81" fill="white" transform="translate(358 612)"/>
</clipPath>
</defs>
</svg>
