<svg width="1920" height="906" viewBox="0 0 1920 906" fill="none" xmlns="http://www.w3.org/2000/svg">
<g clip-path="url(#clip0_1756_36779)">
<g clip-path="url(#clip1_1756_36779)">
<g filter="url(#filter0_f_1756_36779)">
<path d="M1548.18 841.216L1666.15 774.23L1818.87 861.785L1700.89 929.483L1548.18 841.216Z" fill="url(#paint0_linear_1756_36779)"/>
</g>
<g filter="url(#filter1_f_1756_36779)">
<path d="M1032.02 546.627L1153.63 481.812L1665.59 775.365L1547.62 843.064L1032.02 546.627Z" fill="url(#paint1_linear_1756_36779)"/>
</g>
<path d="M1243.31 402.458V657.444L1038.01 538.97V283.983L1243.31 402.458Z" fill="white"/>
<path d="M1045.74 315.948V334.579L1234.37 443.316V424.675L1045.74 315.948Z" fill="#E6EEF9"/>
<path d="M1234.37 442.251L1046.64 334.036V316.461L1045.74 315.948V334.579L1234.37 443.316V442.251Z" fill="#B4C5E1"/>
<path d="M1045.74 345.692V364.323L1234.37 473.06V454.43L1045.74 345.692Z" fill="#E6EEF9"/>
<path d="M1234.37 471.995L1046.64 363.78V346.205L1045.74 345.692V364.323L1234.37 473.06V471.995Z" fill="#B4C5E1"/>
<path d="M1045.74 375.437V394.067L1234.37 502.804V484.174L1045.74 375.437Z" fill="#E6EEF9"/>
<path d="M1234.37 501.739L1046.64 393.524V375.949L1045.74 375.437V394.067L1234.37 502.804V501.739Z" fill="#B4C5E1"/>
<path d="M1045.74 405.181V423.811L1234.37 532.548V513.908L1045.74 405.181Z" fill="#E6EEF9"/>
<path d="M1234.37 531.483L1046.64 423.268V405.693L1045.74 405.181V423.811L1234.37 532.548V531.483Z" fill="#B4C5E1"/>
<path d="M1045.74 434.925V453.556L1234.37 562.293V543.662L1045.74 434.925Z" fill="#E6EEF9"/>
<path d="M1234.37 561.228L1046.64 453.013V435.438L1045.74 434.925V453.556L1234.37 562.293V561.228Z" fill="#B4C5E1"/>
<path d="M1045.74 464.669V483.3L1234.37 592.037V573.397L1045.74 464.669Z" fill="#E6EEF9"/>
<path d="M1234.37 590.972L1046.64 482.757V465.182L1045.74 464.669V483.3L1234.37 592.037V590.972Z" fill="#B4C5E1"/>
<path d="M1343.92 369.407V388.048L1251.04 442.411V423.781L1343.92 369.407Z" fill="#B0C3E0"/>
<path d="M1251.04 441.356L1343.92 387.063V369.488L1344.81 368.975V387.605L1251.04 442.411V441.356Z" fill="#E6EEF9"/>
<path d="M1343.92 399.212V417.842L1251.04 472.216V453.575L1343.92 399.212Z" fill="#B0C3E0"/>
<path d="M1251.04 471.15L1343.92 416.857V399.282L1344.81 398.77V417.4L1251.04 472.216V471.15Z" fill="#E6EEF9"/>
<path d="M1343.92 429.006V447.637L1251.04 502.01V483.37L1343.92 429.006Z" fill="#B0C3E0"/>
<path d="M1251.04 500.945L1343.92 446.652V429.077L1344.81 428.564V447.205L1251.04 502.011V500.945Z" fill="#E6EEF9"/>
<path d="M1343.92 458.801V477.441L1251.04 531.805V513.164L1343.92 458.801Z" fill="#B0C3E0"/>
<path d="M1251.04 530.74L1343.92 476.447V458.881L1344.81 458.359V476.999L1251.04 531.805V530.74Z" fill="#E6EEF9"/>
<path d="M1343.92 488.595V507.236L1251.04 561.599V542.969L1343.92 488.595Z" fill="#B0C3E0"/>
<path d="M1251.04 560.544L1343.92 506.241V488.676L1344.81 488.153V506.794L1251.04 561.599V560.544Z" fill="#E6EEF9"/>
<path d="M1343.92 518.39V537.03L1251.04 591.394V572.763L1343.92 518.39Z" fill="#B0C3E0"/>
<path d="M1251.04 590.338L1343.92 536.045V518.47L1344.81 517.958V536.588L1251.04 591.394V590.338Z" fill="#E6EEF9"/>
<path d="M1038.01 283.611L1147.23 220.887L1352.53 339.08L1243.32 402.538L1038.01 283.611Z" fill="#E6EEF9"/>
<path d="M1040.41 502.724V540.517L1239.81 655.595V617.802L1040.41 502.724Z" fill="#E6EEF9"/>
<path d="M1045 543.1L1038.01 547.139V498.714L1045 494.675V543.1Z" fill="#B4C5E1"/>
<path d="M1031.01 543.1V494.675L1038.01 498.714V547.139L1031.01 543.1Z" fill="white"/>
<path d="M1084.66 565.961L1077.67 570V521.575L1084.66 517.546V565.961Z" fill="#B7C7E2"/>
<path d="M1070.67 565.961V517.546L1077.67 521.575V570L1070.67 565.961Z" fill="white"/>
<path d="M1124.32 588.832L1117.34 592.871V544.446L1124.32 540.407V588.832Z" fill="#B9CAE4"/>
<path d="M1110.34 588.832V540.407L1117.34 544.446V592.871L1110.34 588.832Z" fill="white"/>
<path d="M1163.99 611.702L1157 615.732V567.317L1163.99 563.277V611.702Z" fill="#BCCCE5"/>
<path d="M1150 611.702V563.277L1157 567.317V615.732L1150 611.702Z" fill="white"/>
<path d="M1203.65 634.563L1196.66 638.603V590.178L1203.65 586.138V634.563Z" fill="#BECFE7"/>
<path d="M1189.66 634.563V586.138L1196.66 590.178V638.603L1189.66 634.563Z" fill="white"/>
<path d="M1243.31 657.434L1236.33 661.464V613.049L1243.31 609.009V657.434Z" fill="#C1D1E8"/>
<path d="M1229.33 657.434V609.009L1236.33 613.049V661.464L1229.33 657.434Z" fill="white"/>
<path d="M1031.01 494.544L1038.01 490.515L1243.31 608.939L1236.33 612.978L1031.01 494.544Z" fill="#E6EEF9"/>
<path d="M1031.01 502.875V494.655L1236.27 612.978L1236.38 621.108L1031.01 502.875Z" fill="white"/>
<path d="M1348.33 725.685L1346.15 241.166L1463.38 172.573L1465.56 657.082L1348.33 725.685Z" fill="#B4C5E1"/>
<path d="M1348.33 239.92V726.117L1236.31 661.464L1236.32 175.266L1348.33 239.92Z" fill="white"/>
<path d="M1355.65 467.162L1464.87 404.438L1670.17 522.631L1560.96 586.088L1355.65 467.162Z" fill="#E6EEF9"/>
<mask id="mask0_1756_36779" style="mask-type:alpha" maskUnits="userSpaceOnUse" x="1355" y="404" width="316" height="183">
<path d="M1355.65 467.162L1464.87 404.438L1670.17 522.631L1560.96 586.088L1355.65 467.162Z" fill="#E6EEF9"/>
</mask>
<g mask="url(#mask0_1756_36779)">
<g filter="url(#filter2_f_1756_36779)">
<path d="M1347 462.5L1457 399L1615 489.5L1510.5 556L1347 462.5Z" fill="url(#paint2_linear_1756_36779)"/>
</g>
</g>
<path d="M1276.35 625.107L1266.3 619.289V487.219L1276.35 493.037V625.107ZM1259.68 483.42L1249.63 477.602V609.672L1259.68 615.491V483.42ZM1309.67 512.27L1299.61 506.452V638.573L1309.67 644.391V512.27ZM1326.32 521.887L1316.27 516.069V648.139L1326.32 653.957V521.887ZM1293 502.654L1282.95 496.835V628.906L1293 634.724V502.654Z" fill="#E6EEF9"/>
<path d="M1267.04 618.827V487.671L1266.27 487.219V619.289L1276.35 625.107V624.203L1267.04 618.827Z" fill="#B4C5E1"/>
<path d="M1317.01 647.677V516.521L1316.25 516.079V648.139L1326.33 653.957V653.053L1317.01 647.677Z" fill="#B4C5E1"/>
<path d="M1250.38 609.21V478.054L1249.6 477.602V609.672L1259.68 615.491V614.586L1250.38 609.21Z" fill="#B4C5E1"/>
<path d="M1300.36 638.06V506.904L1299.58 506.452V638.522L1309.66 644.34V643.436L1300.36 638.06Z" fill="#B4C5E1"/>
<path d="M1283.69 628.444V497.288L1282.93 496.835V628.906L1293.01 634.724V633.82L1283.69 628.444Z" fill="#B4C5E1"/>
<path d="M1276.35 483.923L1266.3 478.104V346.034L1276.35 351.852V483.923ZM1259.68 342.236L1249.63 336.417V468.488L1259.68 474.306V342.236ZM1309.67 371.086L1299.61 365.267V497.338L1309.67 503.156V371.086ZM1326.32 380.702L1316.27 374.884V506.934L1326.32 512.752V380.702ZM1293 361.469L1282.95 355.651V487.721L1293 493.539V361.469Z" fill="#E6EEF9"/>
<path d="M1267.04 477.642V346.486L1266.27 346.034V478.105L1276.35 483.923V483.018L1267.04 477.642Z" fill="#B4C5E1"/>
<path d="M1317.01 506.492V375.336L1316.25 374.894V506.954L1326.33 512.773V511.868L1317.01 506.492Z" fill="#B4C5E1"/>
<path d="M1250.38 468.026V336.87L1249.6 336.417V468.488L1259.68 474.306V473.402L1250.38 468.026Z" fill="#B4C5E1"/>
<path d="M1300.36 496.876V365.72L1299.58 365.268V497.338L1309.66 503.156V502.252L1300.36 496.876Z" fill="#B4C5E1"/>
<path d="M1283.69 487.259V356.103L1282.93 355.661V487.721L1293.01 493.539V492.635L1283.69 487.259Z" fill="#B4C5E1"/>
<path d="M1276.35 343.301L1266.3 337.483V205.423L1276.35 211.241V343.301ZM1259.68 201.614L1249.63 195.796V327.866L1259.68 333.684V201.614ZM1309.67 230.464L1299.61 224.646V356.716L1309.67 362.534V230.464ZM1326.32 240.081L1316.27 234.262V366.333L1326.32 372.151V240.081ZM1293 220.847L1282.95 215.029V347.099L1293 352.918V220.847Z" fill="#E6EEF9"/>
<path d="M1267.04 337.02V205.864L1266.27 205.412V337.482L1276.35 343.301V342.396L1267.04 337.02Z" fill="#B4C5E1"/>
<path d="M1317.01 365.871V234.715L1316.25 234.272V366.333L1326.33 372.151V371.247L1317.01 365.871Z" fill="#B4C5E1"/>
<path d="M1250.38 327.404V196.248L1249.6 195.806V327.866L1259.68 333.684V332.78L1250.38 327.404Z" fill="#B4C5E1"/>
<path d="M1300.36 356.254V225.098L1299.58 224.656V356.716L1309.66 362.534V361.63L1300.36 356.254Z" fill="#B4C5E1"/>
<path d="M1283.69 346.637V215.481L1282.93 215.039V347.099L1293.01 352.918V352.013L1283.69 346.637Z" fill="#B4C5E1"/>
<path d="M1669.85 521.827V776.823L1560.63 840.251V585.254L1669.85 521.827Z" fill="#C1D1E8"/>
<path d="M1560.63 585.254V840.25L1355.33 721.766V466.779L1560.63 585.254Z" fill="white"/>
<path d="M1363.06 498.745V517.375L1551.68 626.112V607.482L1363.06 498.745Z" fill="#E6EEF9"/>
<path d="M1551.68 625.057L1363.96 516.832V499.257L1363.06 498.745V517.375L1551.68 626.112V625.057Z" fill="#B4C5E1"/>
<path d="M1363.06 528.489V547.129L1551.68 655.856V637.226L1363.06 528.489Z" fill="#E6EEF9"/>
<path d="M1551.68 654.801L1363.96 546.576V529.001L1363.06 528.489V547.129L1551.68 655.856V654.801Z" fill="#B4C5E1"/>
<path d="M1363.06 558.233V576.873L1551.68 685.6V666.97L1363.06 558.233Z" fill="#E6EEF9"/>
<path d="M1551.68 684.545L1363.96 576.321V558.745L1363.06 558.233V576.873L1551.68 685.6V684.545Z" fill="#B4C5E1"/>
<path d="M1363.06 587.977V606.607L1551.68 715.345V696.714L1363.06 587.977Z" fill="#E6EEF9"/>
<path d="M1551.68 714.289L1363.96 606.065V588.49L1363.06 587.977V606.607L1551.68 715.345V714.289Z" fill="#B4C5E1"/>
<path d="M1363.06 617.721V636.351L1551.68 745.089V726.458L1363.06 617.721Z" fill="#E6EEF9"/>
<path d="M1551.68 744.034L1363.96 635.809V618.234L1363.06 617.721V636.351L1551.68 745.089V744.034Z" fill="#B4C5E1"/>
<path d="M1363.06 647.466V666.096L1551.68 774.833V756.203L1363.06 647.466Z" fill="#E6EEF9"/>
<path d="M1551.68 773.778L1363.96 665.554V647.978L1363.06 647.466V666.096L1551.68 774.833V773.778Z" fill="#B4C5E1"/>
<path d="M1661.24 552.214V570.844L1568.36 625.218V606.577L1661.24 552.214Z" fill="#B0C3E0"/>
<path d="M1568.36 624.152L1661.24 569.859V552.284L1662.13 551.771V570.412L1568.36 625.218V624.152Z" fill="#E6EEF9"/>
<path d="M1661.24 582.008V600.639L1568.36 655.012V636.372L1661.24 582.008Z" fill="#B0C3E0"/>
<path d="M1568.36 653.947L1661.24 599.654V582.078L1662.13 581.566V600.206L1568.36 655.012V653.947Z" fill="#E6EEF9"/>
<path d="M1661.24 611.803V630.443L1568.36 684.807V666.176L1661.24 611.803Z" fill="#B0C3E0"/>
<path d="M1568.36 683.741L1661.24 629.448V611.883L1662.13 611.36V630.001L1568.36 684.806V683.741Z" fill="#E6EEF9"/>
<path d="M1661.24 641.597V660.238L1568.36 714.601V695.971L1661.24 641.597Z" fill="#B0C3E0"/>
<path d="M1568.36 713.546L1661.24 659.253V641.678L1662.13 641.165V659.795L1568.36 714.601V713.546Z" fill="#E6EEF9"/>
<path d="M1661.24 671.401V690.032L1568.36 744.405V725.765L1661.24 671.401Z" fill="#B0C3E0"/>
<path d="M1568.36 743.34L1661.24 689.047V671.472L1662.13 670.959V689.59L1568.36 744.406V743.34Z" fill="#E6EEF9"/>
<path d="M1661.24 701.196V719.827L1568.36 774.2V755.56L1661.24 701.196Z" fill="#B0C3E0"/>
<path d="M1568.36 773.135L1661.24 718.842V701.266L1662.13 700.754V719.384L1568.36 774.2V773.135Z" fill="#E6EEF9"/>
<path d="M1357.72 685.52V723.313L1557.13 838.391V800.598L1357.72 685.52Z" fill="#E6EEF9"/>
<path d="M1560.63 840.23L1553.64 844.27V795.845L1560.63 791.805V840.23Z" fill="#C1D1E8"/>
<path d="M1362.31 725.896L1355.32 729.935V681.511L1362.31 677.481V725.896Z" fill="#B4C5E1"/>
<path d="M1348.33 725.896V677.481L1355.32 681.511V729.935L1348.33 725.896Z" fill="white"/>
<path d="M1401.98 748.767L1394.98 752.796V704.381L1401.98 700.342V748.767Z" fill="#B7C7E2"/>
<path d="M1387.99 748.767V700.342L1394.98 704.381V752.796L1387.99 748.767Z" fill="white"/>
<path d="M1441.64 771.628L1434.65 775.667V727.242L1441.64 723.213V771.628Z" fill="#B9CAE4"/>
<path d="M1427.65 771.628V723.213L1434.65 727.242V775.667L1427.65 771.628Z" fill="white"/>
<path d="M1481.3 794.499L1474.31 798.538V750.113L1481.3 746.074V794.499Z" fill="#BCCCE5"/>
<path d="M1467.32 794.499V746.074L1474.31 750.113V798.538L1467.32 794.499Z" fill="white"/>
<path d="M1520.97 817.36L1513.98 821.399V772.974L1520.97 768.945V817.36Z" fill="#BECFE7"/>
<path d="M1506.98 817.36V768.945L1513.98 772.974V821.399L1506.98 817.36Z" fill="white"/>
<path d="M1546.64 840.23V791.806L1553.64 795.845V844.27L1546.64 840.23Z" fill="white"/>
<path d="M1348.33 677.351L1355.32 673.311L1560.63 791.735L1553.63 795.775L1348.33 677.351Z" fill="#E6EEF9"/>
<path d="M1348.33 685.681V677.461L1553.58 795.775L1553.69 803.904L1348.33 685.681Z" fill="white"/>
<path d="M1253.76 633.749V671.542L1316.56 707.507V669.713L1253.76 633.749Z" fill="#E6EEF9"/>
<path d="M1255.61 672.939L1248.63 676.979V628.554L1255.61 624.524V672.939Z" fill="#B4C5E1"/>
<path d="M1241.63 672.939V624.524L1248.63 628.554V676.979L1241.63 672.939Z" fill="white"/>
<path d="M1326.33 713.184L1319.33 717.214V668.799L1326.33 664.759V713.184Z" fill="#C1D1E8"/>
<path d="M1312.34 713.184V664.759L1319.33 668.799V717.214L1312.34 713.184Z" fill="white"/>
<path d="M1241.63 624.394L1248.63 620.354L1326.33 664.759L1319.33 668.799L1241.63 624.394Z" fill="#E6EEF9"/>
<path d="M1241.63 632.724V624.504L1319.33 669.292V677.331L1241.63 632.724Z" fill="white"/>
<path d="M1236.31 175.336L1351.35 108L1463.36 172.573L1348.33 239.91L1236.31 175.336Z" fill="#E6EEF9"/>
</g>
</g>
<defs>
<filter id="filter0_f_1756_36779" x="1545.18" y="771.23" width="276.684" height="161.253" filterUnits="userSpaceOnUse" color-interpolation-filters="sRGB">
<feFlood flood-opacity="0" result="BackgroundImageFix"/>
<feBlend mode="normal" in="SourceGraphic" in2="BackgroundImageFix" result="shape"/>
<feGaussianBlur stdDeviation="1.5" result="effect1_foregroundBlur_1756_36779"/>
</filter>
<filter id="filter1_f_1756_36779" x="1029.02" y="478.812" width="639.574" height="367.251" filterUnits="userSpaceOnUse" color-interpolation-filters="sRGB">
<feFlood flood-opacity="0" result="BackgroundImageFix"/>
<feBlend mode="normal" in="SourceGraphic" in2="BackgroundImageFix" result="shape"/>
<feGaussianBlur stdDeviation="1.5" result="effect1_foregroundBlur_1756_36779"/>
</filter>
<filter id="filter2_f_1756_36779" x="1344" y="396" width="274" height="163" filterUnits="userSpaceOnUse" color-interpolation-filters="sRGB">
<feFlood flood-opacity="0" result="BackgroundImageFix"/>
<feBlend mode="normal" in="SourceGraphic" in2="BackgroundImageFix" result="shape"/>
<feGaussianBlur stdDeviation="1.5" result="effect1_foregroundBlur_1756_36779"/>
</filter>
<linearGradient id="paint0_linear_1756_36779" x1="1671.93" y1="918.888" x2="1503.46" y2="672.881" gradientUnits="userSpaceOnUse">
<stop stop-color="#B4C5E0" stop-opacity="0"/>
<stop offset="1" stop-color="#0E3391"/>
</linearGradient>
<linearGradient id="paint1_linear_1756_36779" x1="1388.82" y1="756.143" x2="1406.6" y2="725.395" gradientUnits="userSpaceOnUse">
<stop stop-color="#B4C5E0" stop-opacity="0"/>
<stop offset="1" stop-color="#0E3391"/>
</linearGradient>
<linearGradient id="paint2_linear_1756_36779" x1="1466.24" y1="548.158" x2="1297.78" y2="302.15" gradientUnits="userSpaceOnUse">
<stop stop-color="#B4C5E0" stop-opacity="0"/>
<stop offset="1" stop-color="#0E3391"/>
</linearGradient>
<clipPath id="clip0_1756_36779">
<rect width="1920" height="906" fill="white"/>
</clipPath>
<clipPath id="clip1_1756_36779">
<rect width="793" height="825" fill="white" transform="translate(1029 108)"/>
</clipPath>
</defs>
</svg>
