<svg width="1920" height="508" viewBox="0 0 1920 508" fill="none" xmlns="http://www.w3.org/2000/svg">
<g filter="url(#filter0_f_792_17771)">
<path d="M1378.11 293.381L1123.33 146.236L1595.22 -130.691L1852.59 17.7344L1378.11 293.381Z" fill="url(#paint0_linear_792_17771)"/>
</g>
<g style="mix-blend-mode:multiply" filter="url(#filter1_f_792_17771)">
<path d="M1491.96 225.752L1235.56 77.7919L1594.4 -129.06L1850.56 18.783L1491.96 225.752Z" fill="#D8DDE3" fill-opacity="0.5"/>
</g>
<path d="M1494.41 123.812L1238 -24.1483L1596.85 -231L1853 -83.1572L1494.41 123.812Z" fill="#E4ECF8"/>
<path d="M1494.41 109.044L1276.66 -16.6288L1596.88 -201.482L1814.61 -75.8092L1494.41 109.044Z" fill="#E6EEF9"/>
<path d="M1853 -83.1572V20.3363L1494.41 227.324V123.812L1853 -83.1572Z" fill="white"/>
<path d="M1494.41 123.812L1238 -24.1482V5.55939V79.3364L1494.41 227.324V123.812Z" fill="#B4C5E1"/>
<path d="M1622.24 153.682L1622.39 94.3481L1571.18 123.929L1571.01 183.245L1622.24 153.682Z" fill="#E4ECF8"/>
<path d="M1622.24 153.682L1622.39 94.3481L1571.18 123.929L1586.63 132.848L1622.24 153.682Z" fill="#B4C5E1"/>
<path d="M1724.75 94.4474L1724.91 35.1226L1673.69 64.6947L1673.53 124.011L1724.75 94.4474Z" fill="#E4ECF8"/>
<path d="M1724.75 94.4474L1724.91 35.1226L1673.69 64.6947L1689.14 73.6133L1724.75 94.4474Z" fill="#B4C5E1"/>
<path d="M1827.35 35.2128L1827.5 -24.1121L1776.27 5.46012L1776.12 64.785L1827.35 35.2128Z" fill="#E4ECF8"/>
<path d="M1827.35 35.2128L1827.5 -24.1121L1776.27 5.46012L1791.73 14.3787L1827.35 35.2128Z" fill="#B4C5E1"/>
<path d="M-568.211 -882L1366.45 234.502L1306.95 269.002L-704 -882H-568.211Z" fill="#D3E0F0"/>
<path d="M-568.211 -887L1366.45 229.502L1306.95 264.002L-704 -887H-568.211Z" fill="#E2EBF7"/>
<path d="M1358.66 231L-576 1347.5L-516.5 1382L1425.5 269V264L1358.66 231Z" fill="#D3E0F0"/>
<path d="M1358.66 225L-576 1341.5L-516.5 1376L1425.5 264L1358.66 225Z" fill="#E2EBF7"/>
<g style="mix-blend-mode:multiply" opacity="0.4" filter="url(#filter2_f_792_17771)">
<path d="M1204 345L1231.5 361L1092 439.5L1068 422L1204 345Z" fill="url(#paint1_linear_792_17771)"/>
</g>
<path d="M1205.11 359.757C1204.18 359.216 1202.93 359.236 1201.53 359.907C1201.39 359.981 1201.23 360.061 1201.08 360.148C1198.91 361.531 1197.23 363.557 1196.29 365.94C1195.75 367.176 1195.46 368.503 1195.43 369.849C1195.43 371.628 1196.08 372.879 1197.08 373.465L1200.92 375.687C1199.9 375.1 1199.27 373.849 1199.27 372.071C1199.3 370.725 1199.59 369.397 1200.13 368.162C1201.07 365.779 1202.75 363.753 1204.91 362.37C1205.07 362.283 1205.22 362.202 1205.37 362.129C1206.77 361.477 1207.99 361.438 1208.95 361.979L1205.11 359.757Z" fill="#CBD7EB"/>
<path d="M1204.91 362.369C1208.04 360.571 1210.59 362.018 1210.6 365.594C1210.61 369.171 1208.08 373.53 1204.95 375.322C1201.82 377.113 1199.28 375.674 1199.27 372.097C1199.25 368.52 1201.78 364.168 1204.91 362.369Z" fill="#CBD7EB"/>
<path d="M1204.91 362.37C1208.05 360.572 1210.59 362.018 1210.6 365.595C1210.61 369.172 1208.08 373.53 1204.95 375.322C1201.82 377.114 1199.28 375.674 1199.27 372.097C1199.26 368.52 1201.78 364.168 1204.91 362.37Z" fill="#CBD7EB"/>
<path d="M1204.93 366.044C1206.38 365.21 1207.55 365.881 1207.55 367.543C1207.5 368.448 1207.24 369.33 1206.78 370.116C1206.33 370.902 1205.69 371.569 1204.93 372.064C1203.47 372.898 1202.31 372.227 1202.31 370.566C1202.36 369.66 1202.62 368.778 1203.07 367.992C1203.53 367.207 1204.16 366.539 1204.93 366.044Z" fill="#D9E2F1"/>
<path d="M1218.27 352.297C1217.34 351.763 1216.09 351.776 1214.69 352.447C1214.54 352.521 1214.39 352.601 1214.23 352.688C1212.07 354.071 1210.39 356.097 1209.45 358.48C1208.91 359.716 1208.62 361.043 1208.59 362.389C1208.59 364.168 1209.24 365.419 1210.24 366.005L1214.08 368.22C1213.06 367.634 1212.43 366.383 1212.43 364.604C1212.46 363.258 1212.75 361.931 1213.29 360.695C1214.23 358.316 1215.9 356.292 1218.07 354.91C1218.22 354.823 1218.37 354.742 1218.52 354.669C1219.92 354.017 1221.14 353.978 1222.1 354.519L1218.27 352.297Z" fill="#CBD7EB"/>
<path d="M1218.07 354.91C1221.2 353.112 1223.74 354.558 1223.75 358.135C1223.77 361.712 1221.24 366.07 1218.11 367.862C1214.98 369.654 1212.43 368.214 1212.42 364.637C1212.41 361.06 1214.94 356.708 1218.07 354.91Z" fill="#CBD7EB"/>
<path d="M1218.07 354.91C1221.2 353.112 1223.74 354.558 1223.75 358.135C1223.76 361.712 1221.24 366.07 1218.11 367.862C1214.97 369.654 1212.43 368.214 1212.42 364.637C1212.41 361.06 1214.94 356.708 1218.07 354.91Z" fill="#CBD7EB"/>
<path d="M1218.07 358.584C1219.52 357.75 1220.69 358.421 1220.69 360.083C1220.64 360.988 1220.38 361.87 1219.92 362.656C1219.47 363.442 1218.83 364.109 1218.07 364.604C1216.61 365.438 1215.45 364.767 1215.45 363.106C1215.49 362.2 1215.76 361.318 1216.21 360.532C1216.67 359.747 1217.3 359.079 1218.07 358.584Z" fill="#D9E2F1"/>
<path d="M1128.54 402.171C1127.61 401.637 1126.36 401.65 1124.97 402.321C1124.82 402.395 1124.67 402.475 1124.51 402.562C1122.34 403.945 1120.67 405.971 1119.72 408.354C1119.18 409.59 1118.89 410.917 1118.86 412.263C1118.86 414.042 1119.52 415.293 1120.51 415.879L1124.35 418.094C1123.34 417.508 1122.7 416.257 1122.7 414.478C1122.73 413.132 1123.02 411.805 1123.56 410.569C1124.5 408.188 1126.17 406.162 1128.33 404.777C1128.49 404.69 1128.64 404.61 1128.79 404.536C1130.19 403.885 1131.41 403.846 1132.37 404.386L1128.54 402.171Z" fill="#CBD7EB"/>
<path d="M1128.33 404.777C1131.47 402.979 1134.01 404.425 1134.02 408.002C1134.03 411.579 1131.5 415.938 1128.37 417.729C1125.24 419.521 1122.7 418.081 1122.69 414.504C1122.68 410.928 1125.22 406.575 1128.33 404.777Z" fill="#CBD7EB"/>
<g clip-path="url(#clip0_792_17771)">
<path d="M1113.44 387.845V356.033L1141.3 371.937V403.749L1113.44 387.845Z" fill="#1E1C7B"/>
<path d="M1199.36 307L1113.46 356.042L1141.32 371.951L1227.2 322.894L1199.36 307Z" fill="#4A48AD"/>
<path d="M1227.2 354.702L1141.3 403.749V371.937L1227.2 322.894V354.702Z" fill="#2B298F"/>
<path opacity="0.5" d="M1143.62 373.262L1145.96 371.951V398.437L1143.62 399.772V373.262Z" fill="#5755B7"/>
<path opacity="0.5" d="M1148.88 370.26L1151.22 368.944V395.43L1148.88 396.77V370.26Z" fill="#5755B7"/>
<path opacity="0.5" d="M1154.14 367.253L1156.49 365.942V392.428L1154.14 393.763V367.253Z" fill="#5755B7"/>
<path opacity="0.5" d="M1159.41 364.251L1161.75 362.935V389.421L1159.41 390.761V364.251Z" fill="#5755B7"/>
<path opacity="0.5" d="M1164.67 361.244L1167.01 359.928V386.418L1164.67 387.754V361.244Z" fill="#5755B7"/>
<path opacity="0.5" d="M1169.93 358.237L1172.28 356.926V383.412L1169.93 384.752V358.237Z" fill="#5755B7"/>
<path opacity="0.5" d="M1175.19 355.235L1177.54 353.919V380.405L1175.19 381.745V355.235Z" fill="#5755B7"/>
<path opacity="0.5" d="M1180.46 352.228L1182.8 350.917V377.402L1180.46 378.738V352.228Z" fill="#5755B7"/>
<path opacity="0.5" d="M1185.72 349.226L1188.06 347.91V374.396L1185.72 375.736V349.226Z" fill="#5755B7"/>
<path opacity="0.5" d="M1190.99 346.219L1193.33 344.908V371.394L1190.99 372.729V346.219Z" fill="#5755B7"/>
<path opacity="0.5" d="M1196.24 343.212L1198.59 341.901V368.387L1196.24 369.727V343.212Z" fill="#5755B7"/>
<path opacity="0.5" d="M1201.51 340.21L1203.85 338.894V365.385L1201.51 366.72V340.21Z" fill="#5755B7"/>
<path opacity="0.5" d="M1206.77 337.203L1209.11 335.892V362.378L1206.77 363.713V337.203Z" fill="#5755B7"/>
<path opacity="0.5" d="M1212.03 334.201L1214.38 332.885V359.371L1212.03 360.711V334.201Z" fill="#5755B7"/>
<path opacity="0.5" d="M1217.3 331.195L1219.64 329.878V356.369L1217.3 357.704V331.195Z" fill="#5755B7"/>
<path opacity="0.5" d="M1222.56 328.192L1224.9 326.876V353.362L1222.56 354.702V328.192Z" fill="#5755B7"/>
<path d="M1118.08 356.033L1120.41 354.707L1143.62 367.964L1141.3 369.285L1118.08 356.033Z" fill="#3A389D"/>
<path d="M1123.34 353.03L1125.67 351.7L1148.88 364.957L1146.56 366.283L1123.34 353.03Z" fill="#3A389D"/>
<path d="M1128.61 350.024L1130.93 348.698L1154.14 361.955L1151.82 363.281L1128.61 350.024Z" fill="#3A389D"/>
<path d="M1133.87 347.022L1136.19 345.696L1159.41 358.948L1157.09 360.274L1133.87 347.022Z" fill="#3A389D"/>
<path d="M1139.13 344.015L1141.46 342.689L1164.67 355.946L1162.35 357.272L1139.13 344.015Z" fill="#3A389D"/>
<path d="M1144.39 341.013L1146.72 339.687L1169.93 352.939L1167.61 354.265L1144.39 341.013Z" fill="#3A389D"/>
<path d="M1149.66 338.006L1151.98 336.685L1175.19 349.937L1172.87 351.263L1149.66 338.006Z" fill="#3A389D"/>
<path d="M1154.92 335.003L1157.24 333.678L1180.46 346.935L1178.14 348.261L1154.92 335.003Z" fill="#3A389D"/>
<path d="M1160.19 332.002L1162.51 330.676L1185.72 343.928L1183.4 345.254L1160.19 332.002Z" fill="#3A389D"/>
<path d="M1165.45 328.994L1167.77 327.669L1190.99 340.926L1188.66 342.252L1165.45 328.994Z" fill="#3A389D"/>
<path d="M1170.71 325.992L1173.03 324.667L1196.25 337.919L1193.92 339.245L1170.71 325.992Z" fill="#3A389D"/>
<path d="M1175.97 322.986L1178.29 321.66L1201.51 334.917L1199.19 336.243L1175.97 322.986Z" fill="#3A389D"/>
<path d="M1181.23 319.983L1183.55 318.658L1206.77 331.915L1204.45 333.241L1181.23 319.983Z" fill="#3A389D"/>
<path d="M1186.5 316.981L1188.82 315.656L1212.03 328.908L1209.71 330.234L1186.5 316.981Z" fill="#3A389D"/>
<path d="M1191.76 313.974L1194.08 312.649L1217.3 325.906L1214.97 327.232L1191.76 313.974Z" fill="#3A389D"/>
<path d="M1197.02 310.972L1199.34 309.647L1222.56 322.899L1220.23 324.225L1197.02 310.972Z" fill="#3A389D"/>
<path d="M1138.7 373.2L1136.02 371.716L1135.74 398.686L1138.43 400.195L1138.7 373.2Z" fill="#32308D"/>
<path d="M1133.49 370.169L1130.8 368.699L1130.58 395.881L1133.26 397.375L1133.49 370.169Z" fill="#32308D"/>
<path d="M1128.27 367.143L1125.59 365.683L1125.41 393.081L1128.08 394.556L1128.27 367.143Z" fill="#32308D"/>
<path d="M1123.06 364.117L1120.38 362.666L1120.24 390.281L1122.92 391.736L1123.06 364.117Z" fill="#32308D"/>
<path d="M1117.84 361.09L1115.16 359.654L1115.07 387.475L1117.75 388.916L1117.84 361.09Z" fill="#32308D"/>
<g clip-path="url(#clip1_792_17771)">
<path d="M1198.22 350.299C1198.29 350.279 1198.36 350.254 1198.43 350.241C1198.79 350.17 1199.15 350.138 1199.43 350.278C1199.83 350.469 1200.08 350.838 1200.12 351.434C1200.15 351.732 1200.17 352.037 1200.15 352.359C1200.1 353.135 1199.93 353.939 1199.56 354.788C1199.24 355.52 1198.82 356.17 1198.32 356.751C1198.07 357.045 1197.79 357.298 1197.52 357.556C1197.18 357.878 1196.82 358.145 1196.46 358.347C1196.12 358.543 1195.78 358.754 1195.44 358.93C1195.16 359.076 1194.88 359.183 1194.6 359.3C1194.53 359.33 1194.46 359.33 1194.36 359.35C1194.37 359.266 1194.38 359.169 1194.4 359.07C1194.6 358.008 1194.8 356.945 1194.99 355.883C1195.09 355.349 1195.19 354.817 1195.28 354.284C1195.42 353.51 1195.57 352.737 1195.71 351.963C1195.72 351.93 1195.73 351.897 1195.74 351.864L1196.42 351.341L1198.22 350.299ZM1195.98 357.208C1196.2 357.077 1196.41 356.962 1196.61 356.842C1196.96 356.636 1197.3 356.334 1197.61 355.963C1198.09 355.381 1198.42 354.718 1198.6 354.009C1198.74 353.451 1198.8 352.924 1198.73 352.463C1198.67 352.106 1198.51 351.885 1198.19 351.881C1197.77 351.875 1197.31 352.158 1196.84 352.488L1195.98 357.208Z" fill="white"/>
<path d="M1205.66 352.972L1204.32 353.749L1204.23 352.298C1204.19 352.32 1204.15 352.34 1204.11 352.363C1203.47 352.73 1202.84 353.099 1202.2 353.46C1202.1 353.518 1202.05 353.589 1202.01 353.711C1201.79 354.291 1201.57 354.871 1201.35 355.459L1199.93 356.279C1199.96 356.16 1199.97 356.058 1200 355.96C1200.27 355.279 1200.54 354.598 1200.81 353.918C1201.12 353.136 1201.43 352.353 1201.75 351.571C1202.08 350.758 1202.42 349.946 1202.76 349.135C1203.02 348.53 1203.29 347.929 1203.56 347.328C1203.57 347.298 1203.59 347.269 1203.61 347.244C1203.63 347.218 1203.65 347.196 1203.68 347.18C1204.06 346.952 1204.45 346.732 1204.84 346.501C1204.91 346.895 1204.99 347.283 1205.05 347.674C1205.11 348.033 1205.17 348.391 1205.23 348.755C1205.27 349.051 1205.29 349.359 1205.33 349.658C1205.37 349.975 1205.42 350.288 1205.46 350.606C1205.49 350.871 1205.51 351.145 1205.54 351.412C1205.57 351.692 1205.6 351.969 1205.63 352.247C1205.64 352.321 1205.65 352.394 1205.66 352.467L1205.66 352.972ZM1203.94 348.721L1203.91 348.736L1202.64 351.902L1204.14 351.038L1203.94 348.721Z" fill="white"/>
<path d="M1181.08 360.202C1181.17 360.178 1181.27 360.151 1181.36 360.129C1181.68 360.054 1181.99 360.039 1182.23 360.188C1182.5 360.357 1182.65 360.665 1182.66 361.129C1182.66 361.513 1182.65 361.9 1182.52 362.336C1182.44 362.643 1182.32 362.947 1182.16 363.25C1181.75 363.995 1181.24 364.552 1180.67 364.982C1180.16 365.362 1179.65 365.685 1179.11 366.055L1178.65 368.566L1177.28 369.353C1177.31 369.152 1177.34 368.955 1177.37 368.755C1177.55 367.804 1177.73 366.852 1177.91 365.899C1178.06 365.093 1178.21 364.287 1178.35 363.482C1178.46 362.897 1178.56 362.313 1178.67 361.714C1178.83 361.59 1178.99 361.468 1179.15 361.347C1179.18 361.32 1179.22 361.288 1179.25 361.259L1181.08 360.202ZM1179.42 364.435C1179.78 364.247 1180.12 364.026 1180.45 363.73C1180.87 363.364 1181.17 362.949 1181.25 362.38C1181.29 362.108 1181.21 361.775 1180.95 361.792C1180.57 361.817 1180.18 362.058 1179.8 362.333L1179.42 364.435Z" fill="white"/>
<path d="M1173.56 364.545C1174.02 364.502 1174.47 364.449 1174.92 364.421C1175.12 364.408 1175.29 364.472 1175.37 364.674C1175.58 365.181 1175.77 365.698 1175.98 366.197C1176.06 366.394 1176.01 366.61 1175.87 366.868C1175.62 367.306 1175.38 367.746 1175.13 368.181C1175.02 368.363 1174.91 368.54 1174.79 368.713C1174.66 368.91 1174.56 368.956 1174.44 368.885C1173.62 368.404 1172.8 367.923 1171.98 367.442C1171.9 367.396 1171.81 367.36 1171.75 367.332C1171.7 367.151 1171.77 366.998 1171.87 366.824C1172.25 366.175 1172.66 365.544 1173.09 364.937C1173.15 364.862 1173.2 364.793 1173.26 364.721L1173.56 364.545ZM1173.97 365.003C1173.82 364.997 1173.7 365.014 1173.59 364.982C1173.47 364.944 1173.37 365.034 1173.28 365.179C1173.01 365.582 1172.75 365.99 1172.47 366.423L1173.97 365.003Z" fill="white"/>
<path d="M1165.74 369.064C1166.11 369.186 1166.48 369.303 1166.84 369.432C1166.96 369.478 1167.08 369.535 1167.19 369.601C1167.3 369.667 1167.3 369.82 1167.19 370.023C1166.31 371.554 1165.43 373.085 1164.55 374.616C1164.45 374.789 1164.32 374.878 1164.22 374.832C1164.03 374.747 1163.84 374.667 1163.66 374.563C1163.43 374.431 1163.22 374.278 1163 374.135C1163 373.987 1163 373.839 1163 373.691C1163.2 372.973 1163.41 372.254 1163.61 371.537C1163.7 371.179 1163.89 370.886 1164.13 370.629C1164.56 370.158 1165 369.702 1165.44 369.24L1165.74 369.064ZM1164.2 374.213L1163.72 372.485L1163.3 373.749L1164.2 374.213Z" fill="white"/>
<path d="M1169.2 378.678C1169.03 378.632 1168.83 378.628 1168.7 378.528C1168.51 378.387 1168.52 378.047 1168.55 377.715C1168.56 377.523 1168.59 377.306 1168.67 377.11C1168.84 376.71 1169.1 376.383 1169.41 376.163C1169.82 375.878 1170.13 375.928 1170.36 376.139C1170.53 376.29 1170.54 376.602 1170.5 376.935C1170.47 377.106 1170.45 377.289 1170.39 377.464C1170.28 377.756 1170.09 377.997 1169.89 378.222C1169.86 378.256 1169.83 378.292 1169.81 378.328L1169.2 378.678ZM1169.6 376.89C1169.68 376.904 1169.73 376.943 1169.78 376.914C1169.84 376.882 1169.89 376.788 1169.98 376.685L1169.8 376.632L1169.6 376.89Z" fill="white"/>
<path d="M1200.46 360.617C1200.53 360.172 1200.61 359.727 1200.69 359.28C1200.81 358.646 1200.92 358.011 1201.04 357.369L1201.39 357.165L1202.15 358.724L1202.56 356.493L1202.93 356.277C1202.9 356.476 1202.87 356.66 1202.83 356.846C1202.68 357.702 1202.52 358.559 1202.36 359.415C1202.36 359.451 1202.36 359.485 1202.36 359.517L1202 359.722C1201.98 359.621 1201.96 359.511 1201.93 359.421C1201.78 359.045 1201.63 358.673 1201.47 358.305C1201.42 358.184 1201.36 358.08 1201.3 357.968L1201.26 357.998L1200.84 360.397L1200.46 360.617Z" fill="white"/>
<path d="M1184.51 369.831C1184.58 369.399 1184.64 368.968 1184.72 368.533C1184.82 367.951 1184.94 367.366 1185.05 366.783C1185.06 366.735 1185.07 366.687 1185.08 366.62C1185.41 366.368 1185.75 366.108 1186.09 366.031C1186.48 365.943 1186.64 366.199 1186.55 366.714C1186.49 367.049 1186.35 367.347 1186.11 367.614C1186.05 367.681 1185.99 367.753 1185.94 367.814C1186.05 368.065 1186.16 368.304 1186.26 368.55C1186.29 368.618 1186.3 368.709 1186.31 368.789L1185.93 369.01L1185.55 368.136L1185.1 368.398C1185.09 368.443 1185.08 368.479 1185.08 368.516L1184.89 369.611L1184.51 369.831ZM1185.39 366.822L1185.19 367.92C1185.34 367.818 1185.47 367.744 1185.6 367.639C1185.74 367.523 1185.88 367.397 1186 367.244C1186.06 367.165 1186.11 367.074 1186.14 366.981C1186.18 366.888 1186.19 366.797 1186.18 366.719C1186.17 366.567 1186.09 366.492 1185.96 366.543C1185.77 366.614 1185.58 366.724 1185.39 366.822Z" fill="white"/>
<path d="M1203.58 358.813C1203.66 358.343 1203.73 357.874 1203.82 357.403C1203.93 356.796 1204.04 356.186 1204.15 355.572L1205.61 354.73C1205.6 354.812 1205.59 354.881 1205.58 354.953C1205.57 355.024 1205.56 355.099 1205.54 355.192L1204.46 355.821L1204.3 356.656L1205.26 356.106L1205.19 356.549L1204.22 357.107L1204.03 358.114L1205.18 357.452L1205.13 357.918L1203.58 358.813Z" fill="white"/>
<path d="M1176.31 374.57C1176.39 374.124 1176.46 373.679 1176.54 373.232C1176.65 372.638 1176.76 372.045 1176.87 371.45C1176.88 371.404 1176.89 371.357 1176.9 371.313L1178.37 370.467L1178.28 370.941L1177.2 371.565L1177.04 372.404L1177.99 371.859L1177.93 372.295L1176.96 372.854L1176.78 373.861L1177.94 373.192L1177.86 373.675L1176.31 374.57Z" fill="white"/>
<path d="M1187.3 368.217C1187.38 367.761 1187.46 367.305 1187.55 366.848C1187.65 366.255 1187.76 365.662 1187.87 365.069C1187.88 365.034 1187.89 364.998 1187.9 364.962L1189.36 364.12L1189.28 364.591L1188.19 365.218L1188.04 366.053L1188.98 365.508L1188.92 365.94L1187.96 366.494L1187.77 367.51L1188.93 366.841L1188.85 367.322L1187.3 368.217Z" fill="white"/>
<path d="M1178.74 373.162L1178.76 373.03L1179.82 370.964L1179.33 369.916L1179.76 369.666L1180.12 370.464L1180.82 369.052L1181.21 368.824C1181.19 368.911 1181.19 368.989 1181.15 369.057C1180.94 369.476 1180.73 369.893 1180.52 370.31C1180.44 370.466 1180.36 370.622 1180.29 370.752C1180.44 371.1 1180.58 371.423 1180.71 371.752C1180.74 371.821 1180.74 371.919 1180.75 372.002L1180.37 372.222L1180.03 371.292L1179.98 371.319L1179.18 372.912L1178.74 373.162Z" fill="white"/>
<path d="M1181.77 371.416C1181.84 370.96 1181.92 370.505 1182 370.049C1182.06 369.74 1182.12 369.428 1182.18 369.118C1182.23 368.814 1182.28 368.51 1182.34 368.205C1182.69 367.935 1183.04 367.675 1183.38 367.602C1183.76 367.521 1183.84 367.701 1183.84 368.095C1183.83 368.383 1183.77 368.694 1183.56 369.009C1183.37 369.285 1183.15 369.517 1182.92 369.677C1182.74 369.803 1182.55 369.919 1182.35 370.051C1182.3 370.326 1182.24 370.614 1182.19 370.901C1182.17 371 1182.16 371.098 1182.15 371.196L1181.77 371.416ZM1182.65 368.417L1182.44 369.557C1182.59 369.458 1182.73 369.382 1182.86 369.279C1183.04 369.143 1183.22 368.987 1183.33 368.741C1183.42 368.551 1183.49 368.365 1183.42 368.216C1183.36 368.062 1183.22 368.101 1183.07 368.175C1182.94 368.239 1182.81 368.324 1182.65 368.417Z" fill="white"/>
<path d="M1190.02 366.647L1189.78 366.629L1189.94 366.099C1190 366.098 1190.05 366.103 1190.11 366.097C1190.39 366.065 1190.67 365.935 1190.94 365.591C1191.14 365.328 1191.15 365.045 1190.96 364.989C1190.83 364.953 1190.69 364.932 1190.54 364.928C1190.33 364.919 1190.24 364.776 1190.22 364.504C1190.2 364.157 1190.31 363.827 1190.57 363.505C1190.68 363.365 1190.82 363.247 1190.95 363.149C1191.18 362.968 1191.53 362.793 1191.78 362.858L1191.63 363.294C1191.44 363.365 1191.29 363.415 1191.13 363.484C1190.98 363.55 1190.83 363.659 1190.71 363.852C1190.53 364.161 1190.56 364.388 1190.81 364.416C1190.94 364.431 1191.07 364.426 1191.2 364.434C1191.44 364.451 1191.51 364.771 1191.47 365.075C1191.42 365.473 1191.24 365.792 1190.95 366.076C1190.94 366.085 1190.94 366.105 1190.93 366.12L1190.02 366.647Z" fill="white"/>
<path d="M1192.51 365.21L1192.29 365.194C1192.25 365.035 1192.38 364.848 1192.43 364.656C1192.64 364.688 1192.87 364.625 1193.11 364.456C1193.27 364.34 1193.43 364.209 1193.53 363.973C1193.63 363.712 1193.59 363.559 1193.38 363.52C1193.27 363.5 1193.15 363.49 1193.03 363.488C1192.82 363.484 1192.73 363.343 1192.71 363.078C1192.69 362.73 1192.8 362.397 1193.06 362.07C1193.17 361.926 1193.31 361.813 1193.44 361.699C1193.67 361.502 1194.05 361.376 1194.24 361.416C1194.25 361.536 1194.2 361.699 1194.1 361.863C1193.93 361.926 1193.77 361.961 1193.62 362.047C1193.49 362.116 1193.34 362.221 1193.24 362.356C1193 362.691 1193.04 362.944 1193.31 362.977C1193.45 362.994 1193.61 362.97 1193.74 363.01C1194.07 363.109 1194.03 363.769 1193.76 364.235C1193.66 364.395 1193.53 364.533 1193.42 364.681L1192.51 365.21Z" fill="white"/>
<path d="M1196.39 362.965C1196.47 362.509 1196.55 362.053 1196.64 361.597C1196.74 361.004 1196.85 360.41 1196.96 359.818C1196.97 359.781 1196.98 359.744 1196.99 359.707L1197.37 359.489L1196.87 362.252L1197.92 361.643L1197.84 362.128L1196.39 362.965Z" fill="white"/>
<path d="M1198.86 361.542C1198.92 361.171 1198.98 360.801 1199.04 360.429C1199.17 359.727 1199.3 359.024 1199.43 358.306L1199.79 358.1C1199.79 358.18 1199.79 358.256 1199.78 358.338C1199.6 359.314 1199.41 360.291 1199.23 361.267C1199.23 361.287 1199.23 361.307 1199.24 361.324L1198.86 361.542Z" fill="white"/>
<path d="M1193.13 353.274L1194.51 352.478L1193.08 360.234L1192.05 360.83C1191.57 359.58 1191.04 358.389 1190.34 357.355L1189.42 362.348L1188.06 363.134L1189.49 355.378L1190.55 354.764C1191.23 355.64 1191.78 356.685 1192.32 357.751L1193.13 353.274Z" fill="white"/>
<path d="M1185.27 357.811L1186.51 357.097C1186.92 359.144 1187.14 361.332 1187.36 363.536L1185.98 364.333L1185.89 362.901C1185.85 362.916 1185.82 362.934 1185.78 362.955C1185.13 363.326 1184.49 363.695 1183.85 364.073C1183.79 364.103 1183.72 364.188 1183.7 364.251C1183.47 364.847 1183.24 365.444 1183.01 366.05L1181.59 366.874C1181.63 366.736 1181.65 366.622 1181.69 366.51C1181.93 365.898 1182.17 365.287 1182.41 364.676C1182.65 364.07 1182.89 363.464 1183.14 362.859C1183.52 361.923 1183.9 360.987 1184.28 360.053C1184.45 359.657 1184.63 359.264 1184.81 358.87L1185.27 357.811ZM1184.31 362.493L1185.81 361.628L1185.61 359.312L1185.57 359.331L1184.31 362.493Z" fill="white"/>
<path d="M1165.32 377.711C1165.37 377.349 1165.41 376.989 1165.47 376.626C1165.51 376.332 1165.58 376.028 1165.61 375.74C1165.63 375.532 1165.72 375.352 1165.84 375.174C1166.22 374.593 1166.61 374.017 1166.99 373.438C1167.16 373.178 1167.25 373.119 1167.44 373.135C1167.73 373.16 1168.03 373.187 1168.32 373.213C1168.45 373.224 1168.49 373.401 1168.45 373.658C1168.39 374.109 1168.34 374.552 1168.28 374.999C1168.25 375.205 1168.24 375.408 1168.19 375.62C1168.16 375.753 1168.1 375.888 1168.02 376.011C1167.66 376.568 1167.28 377.118 1166.92 377.671C1166.85 377.764 1166.8 377.87 1166.73 377.954C1166.6 378.115 1166.47 378.132 1166.35 378.12C1166.12 378.099 1165.9 378.081 1165.67 378.057C1165.6 378.049 1165.53 378.035 1165.47 378.016C1165.35 377.984 1165.31 377.878 1165.32 377.711Z" fill="white"/>
<path d="M1170.54 372.262C1170.52 372.087 1170.6 371.943 1170.73 371.782C1171 371.459 1171.27 371.124 1171.53 370.788C1171.73 370.526 1171.85 370.474 1172.03 370.544C1172.4 370.683 1172.77 370.815 1173.14 370.932C1173.32 370.987 1173.38 371.17 1173.41 371.388C1173.48 371.772 1173.56 372.14 1173.63 372.522C1173.65 372.674 1173.68 372.837 1173.66 373.013C1173.64 373.142 1173.58 373.28 1173.5 373.399C1173.27 373.71 1173.02 374.003 1172.78 374.3C1172.68 374.426 1172.57 374.569 1172.46 374.659C1172.37 374.729 1172.27 374.758 1172.19 374.739C1171.88 374.645 1171.57 374.529 1171.26 374.414C1171.13 374.366 1170.99 374.323 1170.88 374.236C1170.82 374.185 1170.79 374.066 1170.77 373.957C1170.71 373.573 1170.65 373.182 1170.59 372.79C1170.57 372.617 1170.56 372.438 1170.54 372.262Z" fill="white"/>
</g>
</g>
<path d="M1141.34 405.865L1114.48 390.333L1114.47 387.786L1141.34 403.311L1141.34 405.865Z" fill="#DEE4EE"/>
<path d="M1227.01 353.985V356.545L1141.34 405.865L1141.33 403.311L1227.01 353.985Z" fill="#E2EBF7"/>
<path d="M1128.33 404.777C1131.46 402.979 1134.01 404.425 1134.02 408.002C1134.03 411.579 1131.5 415.938 1128.37 417.729C1125.24 419.521 1122.7 418.081 1122.69 414.504C1122.67 410.928 1125.22 406.575 1128.33 404.777Z" fill="#CBD7EB"/>
<path d="M1128.33 408.243C1129.79 407.409 1130.95 408.08 1130.95 409.742C1130.91 410.647 1130.64 411.529 1130.19 412.315C1129.73 413.101 1129.1 413.768 1128.33 414.263C1126.88 415.097 1125.71 414.426 1125.71 412.765C1125.76 411.859 1126.02 410.977 1126.48 410.191C1126.93 409.406 1127.57 408.738 1128.33 408.243Z" fill="#D9E2F1"/>
<path d="M1111.23 420.172L1091.02 408.491L1091 396.796L1111.21 408.478L1111.23 420.172Z" fill="#CBD7EB"/>
<path d="M1111.21 408.478L1091 396.796L1097.33 389.258L1117.54 400.94L1111.21 408.478Z" fill="#D9E2F1"/>
<path d="M1136.3 389.004L1116.09 377.322L1116.06 367.549L1136.27 379.237L1136.3 389.004Z" fill="#2A2529"/>
<path d="M1118.46 399.285L1098.24 387.603L1116.09 377.322L1136.3 389.004L1118.46 399.285Z" fill="#302B30"/>
<path d="M1136.27 379.238L1136.3 389.004L1118.97 399.344L1122.94 386.886L1136.27 379.238Z" fill="white"/>
<path d="M1118.46 399.285L1098.24 387.603L1102.73 375.205L1122.94 386.886L1118.46 399.285Z" fill="#3D8193"/>
<path d="M1122.94 386.886L1102.73 375.204L1116.06 367.549L1136.27 379.237L1122.94 386.886Z" fill="#428CA0"/>
<path d="M1117.54 400.94L1097.33 389.258L1101.81 374.605L1122.02 386.294L1117.54 400.94Z" fill="#D9E2F1"/>
<path d="M1098.06 388.893L1102.34 375.706L1121.28 386.652L1117 399.839L1098.06 388.893Z" fill="white"/>
<path d="M1122.02 386.293L1101.81 374.605L1116.98 365.894L1137.19 377.576L1122.02 386.293Z" fill="#D9E2F1"/>
<path d="M1122.02 386.293L1137.19 377.583L1137.22 389.603L1117.54 400.94L1122.02 386.293ZM1136.3 389.01V379.237L1122.94 386.886L1118.97 399.343L1136.3 389.004V389.01Z" fill="#E2EBF7"/>
<path d="M1127.99 404.152C1128.86 403.613 1129.87 403.314 1130.89 403.285C1132.86 403.285 1134.23 404.588 1134.63 406.666L1137.25 405.155V395.454V389.59L1117.57 400.927L1111.25 408.465V420.192L1122.01 413.964C1122.22 410.211 1124.77 406.002 1127.99 404.152Z" fill="#E2EBF7"/>
<path d="M1111.23 420.173L1122 413.944C1122.14 412.218 1122.65 410.542 1123.49 409.025L1111.23 416.107L1111.23 420.173Z" fill="#E2EBF7"/>
<path d="M1132.7 403.728C1133.22 404.041 1133.67 404.466 1134.01 404.973C1134.35 405.48 1134.57 406.057 1134.66 406.66L1137.28 405.148V401.122L1132.7 403.728Z" fill="#E2EBF7"/>
<g style="mix-blend-mode:multiply" opacity="0.7" filter="url(#filter3_f_792_17771)">
<path d="M684 351.5L768.272 398.365L622.758 483.964L539 436.125L684 351.5Z" fill="url(#paint2_linear_792_17771)"/>
</g>
<path d="M664.415 367.756L744.251 413.769V383.924L664.415 337.911V367.756Z" fill="#CBD7EB"/>
<path d="M742.095 385.168L739.919 383.933V408.781L742.095 410.038V385.168Z" fill="#B4C5E1"/>
<path d="M737.205 382.347L735.029 381.112V405.964L737.205 407.217V382.347Z" fill="#B4C5E1"/>
<path d="M732.314 379.526L730.138 378.296V403.144L732.314 404.401V379.526Z" fill="#B4C5E1"/>
<path d="M727.424 376.71L725.248 375.475V400.323L727.424 401.58V376.71Z" fill="#B4C5E1"/>
<path d="M722.529 373.889L720.354 372.658V397.506L722.529 398.759V373.889Z" fill="#B4C5E1"/>
<path d="M717.641 371.072L715.465 369.838V394.685L717.641 395.942V371.072Z" fill="#B4C5E1"/>
<path d="M712.752 368.252L710.571 367.021V391.869L712.752 393.122V368.252Z" fill="#B4C5E1"/>
<path d="M707.859 365.431L705.683 364.201V389.048L707.859 390.305V365.431Z" fill="#B4C5E1"/>
<path d="M702.966 362.614L700.79 361.38V386.232L702.966 387.484V362.614Z" fill="#B4C5E1"/>
<path d="M698.076 359.793L695.9 358.563V383.411L698.076 384.663V359.793Z" fill="#B4C5E1"/>
<path d="M693.186 356.977L691.006 355.742V380.59L693.186 381.847V356.977Z" fill="#B4C5E1"/>
<path d="M688.292 354.156L686.116 352.926V377.773L688.292 379.026V354.156Z" fill="#B4C5E1"/>
<path d="M683.405 351.34L681.225 350.105V374.953L683.405 376.21V351.34Z" fill="#B4C5E1"/>
<path d="M678.511 348.519L676.335 347.284V372.136L678.511 373.389V348.519Z" fill="#B4C5E1"/>
<path d="M673.621 345.698L671.44 344.468V369.315L673.621 370.572V345.698Z" fill="#B4C5E1"/>
<path d="M668.728 342.881L666.552 341.647V366.494L668.728 367.751V342.881Z" fill="#B4C5E1"/>
<path d="M690.287 323L770.123 369.013L744.229 383.933L664.415 337.911L690.287 323Z" fill="#E2EBF7"/>
<path d="M765.831 369L763.673 367.756L742.095 380.193L744.253 381.437L765.831 369Z" fill="#CBD7EB"/>
<path d="M760.937 366.183L758.784 364.94L737.205 377.372L739.363 378.616L760.937 366.183Z" fill="#CBD7EB"/>
<path d="M756.049 363.362L753.891 362.119L732.312 374.556L734.47 375.8L756.049 363.362Z" fill="#CBD7EB"/>
<path d="M751.159 360.546L748.997 359.302L727.423 371.739L729.581 372.979L751.159 360.546Z" fill="#CBD7EB"/>
<path d="M746.266 357.73L744.108 356.486L722.529 368.919L724.687 370.162L746.266 357.73Z" fill="#CBD7EB"/>
<path d="M741.377 354.909L739.219 353.665L717.641 366.102L719.798 367.346L741.377 354.909Z" fill="#CBD7EB"/>
<path d="M736.483 352.092L734.325 350.848L712.751 363.281L714.904 364.525L736.483 352.092Z" fill="#CBD7EB"/>
<path d="M731.594 349.271L729.436 348.027L707.857 360.465L710.015 361.708L731.594 349.271Z" fill="#CBD7EB"/>
<path d="M726.7 346.455L724.542 345.211L702.964 357.648L705.122 358.888L726.7 346.455Z" fill="#CBD7EB"/>
<path d="M721.812 343.634L719.654 342.395L698.075 354.827L700.233 356.071L721.812 343.634Z" fill="#CBD7EB"/>
<path d="M716.918 340.818L714.761 339.574L693.187 352.011L695.344 353.255L716.918 340.818Z" fill="#CBD7EB"/>
<path d="M712.028 338.001L709.871 336.758L688.292 349.19L690.45 350.434L712.028 338.001Z" fill="#CBD7EB"/>
<path d="M707.135 335.18L704.977 333.937L683.403 346.374L685.561 347.617L707.135 335.18Z" fill="#CBD7EB"/>
<path d="M702.246 332.364L700.088 331.12L678.51 343.558L680.668 344.801L702.246 332.364Z" fill="#CBD7EB"/>
<path d="M697.353 329.543L695.195 328.304L673.621 340.736L675.779 341.98L697.353 329.543Z" fill="#CBD7EB"/>
<path d="M692.464 326.727L690.306 325.483L668.728 337.92L670.885 339.164L692.464 326.727Z" fill="#CBD7EB"/>
<path d="M770.147 398.844V369L744.253 383.924V413.769L770.147 398.844Z" fill="white"/>
<path d="M746.668 385.105L749.16 383.713L749.417 409.015L746.925 410.43L746.668 385.105Z" fill="#E2EBF7"/>
<path d="M751.517 382.266L754.009 380.887L754.221 406.388L751.729 407.785L751.517 382.266Z" fill="#E2EBF7"/>
<path d="M756.36 379.423L758.852 378.057L759.024 403.756L756.532 405.14L756.36 379.423Z" fill="#E2EBF7"/>
<path d="M761.209 376.584L763.701 375.227L763.827 401.129L761.335 402.495L761.209 376.584Z" fill="#E2EBF7"/>
<path d="M766.058 373.745L768.55 372.397L768.635 398.502L766.143 399.849L766.058 373.745Z" fill="#E2EBF7"/>
<path d="M637.415 383.501L717.251 429.514V399.669L637.415 353.656V383.501Z" fill="#CBD7EB"/>
<path d="M715.095 400.913L712.919 399.678V424.526L715.095 425.783V400.913Z" fill="#B4C5E1"/>
<path d="M710.205 398.092L708.029 396.857V421.709L710.205 422.962V398.092Z" fill="#B4C5E1"/>
<path d="M705.314 395.271L703.138 394.041V418.889L705.314 420.146V395.271Z" fill="#B4C5E1"/>
<path d="M700.424 392.455L698.248 391.22V416.068L700.424 417.325V392.455Z" fill="#B4C5E1"/>
<path d="M695.529 389.634L693.354 388.404V413.251L695.529 414.504V389.634Z" fill="#B4C5E1"/>
<path d="M690.641 386.817L688.465 385.583V410.43L690.641 411.687V386.817Z" fill="#B4C5E1"/>
<path d="M685.752 383.997L683.571 382.767V407.614L685.752 408.867V383.997Z" fill="#B4C5E1"/>
<path d="M680.859 381.176L678.683 379.946V404.793L680.859 406.05V381.176Z" fill="#B4C5E1"/>
<path d="M675.966 378.359L673.79 377.125V401.977L675.966 403.229V378.359Z" fill="#B4C5E1"/>
<path d="M671.076 375.539L668.9 374.308V399.156L671.076 400.408V375.539Z" fill="#B4C5E1"/>
<path d="M666.186 372.722L664.006 371.487V396.335L666.186 397.592V372.722Z" fill="#B4C5E1"/>
<path d="M661.292 369.901L659.116 368.671V393.519L661.292 394.771V369.901Z" fill="#B4C5E1"/>
<path d="M656.405 367.085L654.225 365.85V390.698L656.405 391.955V367.085Z" fill="#B4C5E1"/>
<path d="M651.511 364.264L649.335 363.029V387.881L651.511 389.134V364.264Z" fill="#B4C5E1"/>
<path d="M646.621 361.443L644.44 360.213V385.06L646.621 386.317V361.443Z" fill="#B4C5E1"/>
<path d="M641.728 358.627L639.552 357.392V382.239L641.728 383.497V358.627Z" fill="#B4C5E1"/>
<path d="M663.287 338.745L743.123 384.758L717.229 399.678L637.415 353.656L663.287 338.745Z" fill="#E2EBF7"/>
<path d="M738.831 384.745L736.673 383.501L715.095 395.938L717.253 397.182L738.831 384.745Z" fill="#CBD7EB"/>
<path d="M733.937 381.929L731.784 380.685L710.205 393.118L712.363 394.361L733.937 381.929Z" fill="#CBD7EB"/>
<path d="M729.049 379.107L726.891 377.864L705.312 390.301L707.47 391.545L729.049 379.107Z" fill="#CBD7EB"/>
<path d="M724.159 376.291L721.997 375.047L700.423 387.485L702.581 388.724L724.159 376.291Z" fill="#CBD7EB"/>
<path d="M719.266 373.475L717.108 372.231L695.529 384.664L697.687 385.907L719.266 373.475Z" fill="#CBD7EB"/>
<path d="M714.377 370.654L712.219 369.41L690.641 381.847L692.798 383.091L714.377 370.654Z" fill="#CBD7EB"/>
<path d="M709.483 367.837L707.325 366.594L685.751 379.026L687.904 380.27L709.483 367.837Z" fill="#CBD7EB"/>
<path d="M704.594 365.016L702.436 363.772L680.857 376.21L683.015 377.453L704.594 365.016Z" fill="#CBD7EB"/>
<path d="M699.7 362.2L697.542 360.956L675.964 373.394L678.122 374.633L699.7 362.2Z" fill="#CBD7EB"/>
<path d="M694.812 359.379L692.654 358.14L671.075 370.573L673.233 371.816L694.812 359.379Z" fill="#CBD7EB"/>
<path d="M689.918 356.563L687.761 355.319L666.187 367.756L668.344 369L689.918 356.563Z" fill="#CBD7EB"/>
<path d="M685.028 353.746L682.871 352.503L661.292 364.935L663.45 366.179L685.028 353.746Z" fill="#CBD7EB"/>
<path d="M680.135 350.925L677.977 349.682L656.403 362.119L658.561 363.363L680.135 350.925Z" fill="#CBD7EB"/>
<path d="M675.246 348.109L673.088 346.865L651.51 359.303L653.668 360.546L675.246 348.109Z" fill="#CBD7EB"/>
<path d="M670.353 345.288L668.195 344.049L646.621 356.482L648.779 357.725L670.353 345.288Z" fill="#CBD7EB"/>
<path d="M665.464 342.472L663.306 341.228L641.728 353.665L643.885 354.909L665.464 342.472Z" fill="#CBD7EB"/>
<path d="M743.147 414.589V384.745L717.253 399.669V429.514L743.147 414.589Z" fill="white"/>
<path d="M719.668 400.85L722.16 399.458L722.417 424.76L719.925 426.175L719.668 400.85Z" fill="#E2EBF7"/>
<path d="M724.517 398.011L727.009 396.632L727.221 422.133L724.729 423.53L724.517 398.011Z" fill="#E2EBF7"/>
<path d="M729.36 395.168L731.852 393.802L732.024 419.501L729.532 420.885L729.36 395.168Z" fill="#E2EBF7"/>
<path d="M734.209 392.329L736.701 390.972L736.827 416.874L734.335 418.24L734.209 392.329Z" fill="#E2EBF7"/>
<path d="M739.058 389.49L741.55 388.142L741.635 414.247L739.143 415.594L739.058 389.49Z" fill="#E2EBF7"/>
<path d="M637.415 352.756L717.251 398.769V368.924L637.415 322.911V352.756Z" fill="#CBD7EB"/>
<path d="M715.095 370.168L712.919 368.933V393.781L715.095 395.038V370.168Z" fill="#B4C5E1"/>
<path d="M710.205 367.347L708.029 366.112V390.964L710.205 392.217V367.347Z" fill="#B4C5E1"/>
<path d="M705.314 364.526L703.138 363.296V388.144L705.314 389.401V364.526Z" fill="#B4C5E1"/>
<path d="M700.424 361.71L698.248 360.475V385.323L700.424 386.58V361.71Z" fill="#B4C5E1"/>
<path d="M695.529 358.889L693.354 357.658V382.506L695.529 383.759V358.889Z" fill="#B4C5E1"/>
<path d="M690.641 356.072L688.465 354.838V379.685L690.641 380.942V356.072Z" fill="#B4C5E1"/>
<path d="M685.752 353.252L683.571 352.021V376.869L685.752 378.122V353.252Z" fill="#B4C5E1"/>
<path d="M680.859 350.431L678.683 349.201V374.048L680.859 375.305V350.431Z" fill="#B4C5E1"/>
<path d="M675.966 347.614L673.79 346.38V371.232L675.966 372.484V347.614Z" fill="#B4C5E1"/>
<path d="M671.076 344.793L668.9 343.563V368.411L671.076 369.663V344.793Z" fill="#B4C5E1"/>
<path d="M666.186 341.977L664.006 340.742V365.59L666.186 366.847V341.977Z" fill="#B4C5E1"/>
<path d="M661.292 339.156L659.116 337.926V362.773L661.292 364.026V339.156Z" fill="#B4C5E1"/>
<path d="M656.405 336.34L654.225 335.105V359.953L656.405 361.21V336.34Z" fill="#B4C5E1"/>
<path d="M651.511 333.519L649.335 332.284V357.136L651.511 358.389V333.519Z" fill="#B4C5E1"/>
<path d="M646.621 330.698L644.44 329.468V354.315L646.621 355.572V330.698Z" fill="#B4C5E1"/>
<path d="M641.728 327.881L639.552 326.647V351.494L641.728 352.751V327.881Z" fill="#B4C5E1"/>
<path d="M663.287 308L743.123 354.013L717.229 368.933L637.415 322.911L663.287 308Z" fill="#E2EBF7"/>
<path d="M738.831 354L736.673 352.756L715.095 365.193L717.253 366.437L738.831 354Z" fill="#CBD7EB"/>
<path d="M733.937 351.183L731.784 349.94L710.205 362.372L712.363 363.616L733.937 351.183Z" fill="#CBD7EB"/>
<path d="M729.049 348.362L726.891 347.119L705.312 359.556L707.47 360.8L729.049 348.362Z" fill="#CBD7EB"/>
<path d="M724.159 345.546L721.997 344.302L700.423 356.739L702.581 357.979L724.159 345.546Z" fill="#CBD7EB"/>
<path d="M719.266 342.73L717.108 341.486L695.529 353.919L697.687 355.162L719.266 342.73Z" fill="#CBD7EB"/>
<path d="M714.377 339.909L712.219 338.665L690.641 351.102L692.798 352.346L714.377 339.909Z" fill="#CBD7EB"/>
<path d="M709.483 337.092L707.325 335.848L685.751 348.281L687.904 349.525L709.483 337.092Z" fill="#CBD7EB"/>
<path d="M704.594 334.271L702.436 333.027L680.857 345.465L683.015 346.708L704.594 334.271Z" fill="#CBD7EB"/>
<path d="M699.7 331.455L697.542 330.211L675.964 342.648L678.122 343.888L699.7 331.455Z" fill="#CBD7EB"/>
<path d="M694.812 328.634L692.654 327.395L671.075 339.827L673.233 341.071L694.812 328.634Z" fill="#CBD7EB"/>
<path d="M689.918 325.818L687.761 324.574L666.187 337.011L668.344 338.255L689.918 325.818Z" fill="#CBD7EB"/>
<path d="M685.028 323.001L682.871 321.758L661.292 334.19L663.45 335.434L685.028 323.001Z" fill="#CBD7EB"/>
<path d="M680.135 320.18L677.977 318.937L656.403 331.374L658.561 332.617L680.135 320.18Z" fill="#CBD7EB"/>
<path d="M675.246 317.364L673.088 316.12L651.51 328.558L653.668 329.801L675.246 317.364Z" fill="#CBD7EB"/>
<path d="M670.353 314.543L668.195 313.304L646.621 325.736L648.779 326.98L670.353 314.543Z" fill="#CBD7EB"/>
<path d="M665.464 311.727L663.306 310.483L641.728 322.92L643.885 324.164L665.464 311.727Z" fill="#CBD7EB"/>
<path d="M743.147 383.844V354L717.253 368.924V398.769L743.147 383.844Z" fill="white"/>
<path d="M719.668 370.105L722.16 368.713L722.417 394.015L719.925 395.43L719.668 370.105Z" fill="#E2EBF7"/>
<path d="M724.517 367.266L727.009 365.887L727.221 391.388L724.729 392.785L724.517 367.266Z" fill="#E2EBF7"/>
<path d="M729.36 364.423L731.852 363.057L732.024 388.756L729.532 390.14L729.36 364.423Z" fill="#E2EBF7"/>
<path d="M734.209 361.584L736.701 360.227L736.827 386.129L734.335 387.495L734.209 361.584Z" fill="#E2EBF7"/>
<path d="M739.058 358.745L741.55 357.397L741.635 383.502L739.143 384.849L739.058 358.745Z" fill="#E2EBF7"/>
<path d="M610 399.501L689.836 445.514V415.669L610 369.656V399.501Z" fill="#CBD7EB"/>
<path d="M687.68 416.913L685.504 415.678V440.526L687.68 441.783V416.913Z" fill="#B4C5E1"/>
<path d="M682.79 414.092L680.614 412.857V437.709L682.79 438.962V414.092Z" fill="#B4C5E1"/>
<path d="M677.899 411.271L675.723 410.041V434.889L677.899 436.146V411.271Z" fill="#B4C5E1"/>
<path d="M673.009 408.455L670.833 407.22V432.068L673.009 433.325V408.455Z" fill="#B4C5E1"/>
<path d="M668.114 405.634L665.938 404.404V429.251L668.114 430.504V405.634Z" fill="#B4C5E1"/>
<path d="M663.226 402.817L661.05 401.583V426.43L663.226 427.687V402.817Z" fill="#B4C5E1"/>
<path d="M658.337 399.997L656.156 398.767V423.614L658.337 424.867V399.997Z" fill="#B4C5E1"/>
<path d="M653.443 397.176L651.268 395.946V420.793L653.443 422.05V397.176Z" fill="#B4C5E1"/>
<path d="M648.551 394.359L646.375 393.125V417.977L648.551 419.229V394.359Z" fill="#B4C5E1"/>
<path d="M643.661 391.539L641.485 390.308V415.156L643.661 416.408V391.539Z" fill="#B4C5E1"/>
<path d="M638.771 388.722L636.591 387.487V412.335L638.771 413.592V388.722Z" fill="#B4C5E1"/>
<path d="M633.877 385.901L631.701 384.671V409.519L633.877 410.771V385.901Z" fill="#B4C5E1"/>
<path d="M628.99 383.085L626.81 381.85V406.698L628.99 407.955V383.085Z" fill="#B4C5E1"/>
<path d="M624.096 380.264L621.92 379.029V403.881L624.096 405.134V380.264Z" fill="#B4C5E1"/>
<path d="M619.206 377.443L617.025 376.213V401.06L619.206 402.317V377.443Z" fill="#B4C5E1"/>
<path d="M614.313 374.627L612.137 373.392V398.239L614.313 399.497V374.627Z" fill="#B4C5E1"/>
<path d="M635.872 354.745L715.708 400.758L689.814 415.678L610 369.656L635.872 354.745Z" fill="#E2EBF7"/>
<path d="M711.416 400.745L709.258 399.501L687.68 411.938L689.838 413.182L711.416 400.745Z" fill="#CBD7EB"/>
<path d="M706.522 397.929L704.369 396.685L682.79 409.118L684.948 410.361L706.522 397.929Z" fill="#CBD7EB"/>
<path d="M701.634 395.107L699.476 393.864L677.897 406.301L680.055 407.545L701.634 395.107Z" fill="#CBD7EB"/>
<path d="M696.744 392.291L694.582 391.047L673.008 403.485L675.166 404.724L696.744 392.291Z" fill="#CBD7EB"/>
<path d="M691.851 389.475L689.693 388.231L668.114 400.664L670.272 401.907L691.851 389.475Z" fill="#CBD7EB"/>
<path d="M686.962 386.654L684.804 385.41L663.226 397.847L665.383 399.091L686.962 386.654Z" fill="#CBD7EB"/>
<path d="M682.068 383.837L679.91 382.594L658.336 395.026L660.489 396.27L682.068 383.837Z" fill="#CBD7EB"/>
<path d="M677.179 381.016L675.021 379.772L653.442 392.21L655.6 393.453L677.179 381.016Z" fill="#CBD7EB"/>
<path d="M672.285 378.2L670.127 376.956L648.549 389.394L650.707 390.633L672.285 378.2Z" fill="#CBD7EB"/>
<path d="M667.397 375.379L665.239 374.14L643.66 386.573L645.818 387.816L667.397 375.379Z" fill="#CBD7EB"/>
<path d="M662.503 372.563L660.346 371.319L638.771 383.756L640.929 385L662.503 372.563Z" fill="#CBD7EB"/>
<path d="M657.613 369.746L655.456 368.503L633.877 380.935L636.035 382.179L657.613 369.746Z" fill="#CBD7EB"/>
<path d="M652.72 366.925L650.562 365.682L628.988 378.119L631.146 379.363L652.72 366.925Z" fill="#CBD7EB"/>
<path d="M647.831 364.109L645.673 362.865L624.095 375.303L626.253 376.546L647.831 364.109Z" fill="#CBD7EB"/>
<path d="M642.938 361.288L640.78 360.049L619.206 372.482L621.364 373.725L642.938 361.288Z" fill="#CBD7EB"/>
<path d="M638.049 358.472L635.891 357.228L614.312 369.665L616.47 370.909L638.049 358.472Z" fill="#CBD7EB"/>
<path d="M715.732 430.589V400.745L689.838 415.669V445.514L715.732 430.589Z" fill="white"/>
<path d="M692.253 416.85L694.745 415.458L695.002 440.76L692.51 442.175L692.253 416.85Z" fill="#E2EBF7"/>
<path d="M697.102 414.011L699.593 412.632L699.806 438.133L697.314 439.53L697.102 414.011Z" fill="#E2EBF7"/>
<path d="M701.945 411.168L704.437 409.802L704.609 435.501L702.117 436.885L701.945 411.168Z" fill="#E2EBF7"/>
<path d="M706.794 408.329L709.286 406.972L709.412 432.874L706.92 434.24L706.794 408.329Z" fill="#E2EBF7"/>
<path d="M711.643 405.49L714.134 404.142L714.22 430.247L711.728 431.594L711.643 405.49Z" fill="#E2EBF7"/>
<path d="M583 414.756L662.836 460.769V430.924L583 384.911V414.756Z" fill="#CBD7EB"/>
<path d="M660.68 432.168L658.504 430.933V455.781L660.68 457.038V432.168Z" fill="#B4C5E1"/>
<path d="M655.79 429.347L653.614 428.112V452.964L655.79 454.217V429.347Z" fill="#B4C5E1"/>
<path d="M650.899 426.526L648.723 425.296V450.144L650.899 451.401V426.526Z" fill="#B4C5E1"/>
<path d="M646.009 423.71L643.833 422.475V447.323L646.009 448.58V423.71Z" fill="#B4C5E1"/>
<path d="M641.114 420.889L638.938 419.658V444.506L641.114 445.759V420.889Z" fill="#B4C5E1"/>
<path d="M636.226 418.072L634.05 416.838V441.685L636.226 442.942V418.072Z" fill="#B4C5E1"/>
<path d="M631.337 415.252L629.156 414.021V438.869L631.337 440.122V415.252Z" fill="#B4C5E1"/>
<path d="M626.443 412.431L624.268 411.201V436.048L626.443 437.305V412.431Z" fill="#B4C5E1"/>
<path d="M621.551 409.614L619.375 408.38V433.232L621.551 434.484V409.614Z" fill="#B4C5E1"/>
<path d="M616.661 406.793L614.485 405.563V430.411L616.661 431.663V406.793Z" fill="#B4C5E1"/>
<path d="M611.771 403.977L609.591 402.742V427.59L611.771 428.847V403.977Z" fill="#B4C5E1"/>
<path d="M606.877 401.156L604.701 399.926V424.773L606.877 426.026V401.156Z" fill="#B4C5E1"/>
<path d="M601.99 398.34L599.81 397.105V421.953L601.99 423.21V398.34Z" fill="#B4C5E1"/>
<path d="M597.096 395.519L594.92 394.284V419.136L597.096 420.389V395.519Z" fill="#B4C5E1"/>
<path d="M592.206 392.698L590.025 391.468V416.315L592.206 417.572V392.698Z" fill="#B4C5E1"/>
<path d="M587.313 389.881L585.137 388.647V413.494L587.313 414.751V389.881Z" fill="#B4C5E1"/>
<path d="M608.872 370L688.708 416.013L662.814 430.933L583 384.911L608.872 370Z" fill="#E2EBF7"/>
<path d="M684.416 416L682.258 414.756L660.68 427.193L662.838 428.437L684.416 416Z" fill="#CBD7EB"/>
<path d="M679.522 413.183L677.369 411.94L655.79 424.372L657.948 425.616L679.522 413.183Z" fill="#CBD7EB"/>
<path d="M674.634 410.362L672.476 409.119L650.897 421.556L653.055 422.8L674.634 410.362Z" fill="#CBD7EB"/>
<path d="M669.744 407.546L667.582 406.302L646.008 418.739L648.166 419.979L669.744 407.546Z" fill="#CBD7EB"/>
<path d="M664.851 404.73L662.693 403.486L641.114 415.919L643.272 417.162L664.851 404.73Z" fill="#CBD7EB"/>
<path d="M659.962 401.909L657.804 400.665L636.226 413.102L638.383 414.346L659.962 401.909Z" fill="#CBD7EB"/>
<path d="M655.068 399.092L652.91 397.848L631.336 410.281L633.489 411.525L655.068 399.092Z" fill="#CBD7EB"/>
<path d="M650.179 396.271L648.021 395.027L626.442 407.465L628.6 408.708L650.179 396.271Z" fill="#CBD7EB"/>
<path d="M645.285 393.455L643.127 392.211L621.549 404.648L623.707 405.888L645.285 393.455Z" fill="#CBD7EB"/>
<path d="M640.397 390.634L638.239 389.395L616.66 401.827L618.818 403.071L640.397 390.634Z" fill="#CBD7EB"/>
<path d="M635.503 387.818L633.346 386.574L611.771 399.011L613.929 400.255L635.503 387.818Z" fill="#CBD7EB"/>
<path d="M630.613 385.001L628.456 383.758L606.877 396.19L609.035 397.434L630.613 385.001Z" fill="#CBD7EB"/>
<path d="M625.72 382.18L623.562 380.937L601.988 393.374L604.146 394.617L625.72 382.18Z" fill="#CBD7EB"/>
<path d="M620.831 379.364L618.673 378.12L597.095 390.558L599.253 391.801L620.831 379.364Z" fill="#CBD7EB"/>
<path d="M615.938 376.543L613.78 375.304L592.206 387.736L594.364 388.98L615.938 376.543Z" fill="#CBD7EB"/>
<path d="M611.049 373.727L608.891 372.483L587.312 384.92L589.47 386.164L611.049 373.727Z" fill="#CBD7EB"/>
<path d="M688.732 445.844V416L662.838 430.924V460.769L688.732 445.844Z" fill="white"/>
<path d="M665.253 432.105L667.745 430.713L668.002 456.015L665.51 457.43L665.253 432.105Z" fill="#E2EBF7"/>
<path d="M670.102 429.266L672.593 427.887L672.806 453.388L670.314 454.785L670.102 429.266Z" fill="#E2EBF7"/>
<path d="M674.945 426.423L677.437 425.057L677.609 450.756L675.117 452.14L674.945 426.423Z" fill="#E2EBF7"/>
<path d="M679.794 423.584L682.286 422.227L682.412 448.129L679.92 449.495L679.794 423.584Z" fill="#E2EBF7"/>
<path d="M684.643 420.745L687.134 419.397L687.22 445.502L684.728 446.849L684.643 420.745Z" fill="#E2EBF7"/>
<g clip-path="url(#clip2_792_17771)">
<path d="M714.246 400.778V371.334L688.352 386.054V415.498L714.246 400.778Z" fill="#1E1C7B"/>
<path d="M634.387 325.952L714.223 371.343L688.333 386.067L608.516 340.663L634.387 325.952Z" fill="#4A48AD"/>
<path d="M608.516 370.103L688.351 415.498V386.054L608.516 340.663V370.103Z" fill="#2B298F"/>
<path opacity="0.5" d="M686.193 387.281L684.018 386.068V410.582L686.193 411.818V387.281Z" fill="#5755B7"/>
<path opacity="0.5" d="M681.305 384.503L679.129 383.284V407.798L681.305 409.039V384.503Z" fill="#5755B7"/>
<path opacity="0.5" d="M676.416 381.72L674.235 380.506V405.02L676.416 406.256V381.72Z" fill="#5755B7"/>
<path opacity="0.5" d="M671.523 378.941L669.347 377.723V402.237L671.523 403.477V378.941Z" fill="#5755B7"/>
<path opacity="0.5" d="M666.633 376.158L664.457 374.94V399.458L666.633 400.694V376.158Z" fill="#5755B7"/>
<path opacity="0.5" d="M661.739 373.375L659.563 372.161V396.675L661.739 397.916V373.375Z" fill="#5755B7"/>
<path opacity="0.5" d="M656.851 370.596L654.675 369.378V393.892L656.851 395.132V370.596Z" fill="#5755B7"/>
<path opacity="0.5" d="M651.957 367.813L649.781 366.599V391.113L651.957 392.349V367.813Z" fill="#5755B7"/>
<path opacity="0.5" d="M647.068 365.035L644.893 363.816V388.33L647.068 389.571V365.035Z" fill="#5755B7"/>
<path opacity="0.5" d="M642.175 362.252L639.999 361.038V385.552L642.175 386.788V362.252Z" fill="#5755B7"/>
<path opacity="0.5" d="M637.286 359.468L635.11 358.255V382.769L637.286 384.009V359.468Z" fill="#5755B7"/>
<path opacity="0.5" d="M632.392 356.69L630.216 355.472V379.99L632.392 381.226V356.69Z" fill="#5755B7"/>
<path opacity="0.5" d="M627.503 353.907L625.327 352.693V377.207L627.503 378.443V353.907Z" fill="#5755B7"/>
<path opacity="0.5" d="M622.614 351.128L620.434 349.91V374.424L622.614 375.664V351.128Z" fill="#5755B7"/>
<path opacity="0.5" d="M617.72 348.345L615.544 347.127V371.645L617.72 372.881V348.345Z" fill="#5755B7"/>
<path opacity="0.5" d="M612.832 345.567L610.651 344.348V368.862L612.832 370.103V345.567Z" fill="#5755B7"/>
<path d="M709.929 371.334L707.771 370.107L686.192 382.378L688.35 383.6L709.929 371.334Z" fill="#3A389D"/>
<path d="M705.041 368.555L702.883 367.324L681.305 379.594L683.463 380.821L705.041 368.555Z" fill="#3A389D"/>
<path d="M700.147 365.772L697.989 364.545L676.415 376.816L678.573 378.043L700.147 365.772Z" fill="#3A389D"/>
<path d="M695.258 362.994L693.1 361.767L671.521 374.033L673.679 375.26L695.258 362.994Z" fill="#3A389D"/>
<path d="M690.365 360.211L688.207 358.984L666.633 371.254L668.791 372.481L690.365 360.211Z" fill="#3A389D"/>
<path d="M685.476 357.432L683.318 356.205L661.739 368.471L663.897 369.698L685.476 357.432Z" fill="#3A389D"/>
<path d="M680.582 354.649L678.425 353.427L656.851 365.692L659.008 366.919L680.582 354.649Z" fill="#3A389D"/>
<path d="M675.692 351.871L673.535 350.644L651.956 362.914L654.114 364.141L675.692 351.871Z" fill="#3A389D"/>
<path d="M670.799 349.092L668.641 347.865L647.067 360.131L649.225 361.358L670.799 349.092Z" fill="#3A389D"/>
<path d="M665.91 346.309L663.752 345.082L642.174 357.352L644.332 358.579L665.91 346.309Z" fill="#3A389D"/>
<path d="M661.021 343.53L658.864 342.303L637.285 354.569L639.443 355.796L661.021 343.53Z" fill="#3A389D"/>
<path d="M656.128 340.747L653.97 339.52L632.392 351.79L634.549 353.017L656.128 340.747Z" fill="#3A389D"/>
<path d="M651.239 337.969L649.081 336.742L627.503 349.012L629.661 350.239L651.239 337.969Z" fill="#3A389D"/>
<path d="M646.345 335.19L644.187 333.963L622.613 346.229L624.771 347.456L646.345 335.19Z" fill="#3A389D"/>
<path d="M641.457 332.407L639.299 331.18L617.721 343.45L619.879 344.677L641.457 332.407Z" fill="#3A389D"/>
<path d="M636.563 329.628L634.405 328.401L612.831 340.667L614.989 341.894L636.563 329.628Z" fill="#3A389D"/>
<path d="M690.767 387.223L693.259 385.85L693.516 410.813L691.024 412.209L690.767 387.223Z" fill="#32308D"/>
<path d="M695.615 384.418L698.107 383.058L698.319 408.216L695.827 409.599L695.615 384.418Z" fill="#32308D"/>
<path d="M700.464 381.617L702.951 380.266L703.123 405.624L700.635 406.989L700.464 381.617Z" fill="#32308D"/>
<path d="M705.307 378.816L707.799 377.474L707.929 403.032L705.438 404.379L705.307 378.816Z" fill="#32308D"/>
<path d="M710.155 376.015L712.647 374.686L712.733 400.436L710.241 401.77L710.155 376.015Z" fill="#32308D"/>
<g clip-path="url(#clip3_792_17771)">
<path d="M659.836 379.253C659.901 379.31 659.968 379.363 660.031 379.424C660.369 379.749 660.696 380.096 660.963 380.535C661.328 381.135 661.559 381.745 661.604 382.351C661.626 382.653 661.643 382.956 661.626 383.235C661.584 383.909 661.425 384.472 661.079 384.86C660.78 385.196 660.39 385.35 659.927 385.354C659.693 385.356 659.434 385.293 659.182 385.242C658.865 385.174 658.533 385.039 658.2 384.842C657.885 384.66 657.569 384.491 657.254 384.291C656.992 384.124 656.732 383.922 656.472 383.73C656.405 383.681 656.341 383.607 656.248 383.519C656.258 383.452 656.266 383.371 656.283 383.299C656.467 382.524 656.654 381.752 656.837 380.977C656.929 380.587 657.015 380.192 657.105 379.801C657.236 379.233 657.368 378.667 657.502 378.101C657.509 378.08 657.519 378.061 657.531 378.044L658.161 378.285L659.836 379.253ZM657.751 383.264C657.961 383.386 658.15 383.497 658.339 383.604C658.664 383.788 658.984 383.877 659.27 383.862C659.718 383.84 660.025 383.579 660.19 383.11C660.32 382.741 660.374 382.314 660.306 381.808C660.254 381.416 660.102 381.034 659.811 380.694C659.413 380.228 658.991 380.003 658.555 379.806L657.751 383.264Z" fill="white"/>
<path d="M666.752 389.728L665.502 389.005L665.423 387.566C665.384 387.541 665.346 387.515 665.308 387.493C664.718 387.152 664.128 386.814 663.538 386.467C663.446 386.414 663.396 386.423 663.355 386.488C663.154 386.796 662.949 387.098 662.743 387.406L661.425 386.645C661.451 386.565 661.461 386.482 661.496 386.43C661.742 386.082 661.991 385.737 662.243 385.397C662.533 385.004 662.821 384.61 663.118 384.226C663.426 383.827 663.74 383.435 664.06 383.05C664.298 382.763 664.549 382.495 664.797 382.223C664.81 382.21 664.827 382.203 664.846 382.201C664.865 382.2 664.886 382.204 664.908 382.214C665.266 382.415 665.623 382.624 665.994 382.838C666.059 383.278 666.124 383.714 666.186 384.149C666.242 384.548 666.299 384.947 666.347 385.341C666.387 385.661 666.412 385.976 666.446 386.295C666.483 386.631 666.526 386.972 666.561 387.307C666.59 387.588 666.608 387.864 666.635 388.143C666.664 388.436 666.696 388.731 666.727 389.025C666.736 389.103 666.744 389.182 666.753 389.259L666.752 389.728ZM665.157 383.933L665.122 383.907L663.946 385.491L665.336 386.294L665.157 383.933Z" fill="white"/>
<path d="M643.906 370.049C643.992 370.126 644.08 370.202 644.165 370.281C644.468 370.561 644.753 370.877 644.975 371.27C645.228 371.72 645.366 372.166 645.37 372.602C645.373 372.963 645.365 373.313 645.248 373.583C645.165 373.773 645.059 373.932 644.906 374.038C644.53 374.295 644.052 374.261 643.522 374.048C643.054 373.86 642.578 373.61 642.077 373.375L641.645 375.209L640.378 374.477C640.406 374.323 640.428 374.165 640.462 374.018C640.625 373.323 640.79 372.629 640.955 371.934C641.095 371.346 641.235 370.759 641.372 370.169C641.471 369.74 641.565 369.306 641.663 368.863C641.816 368.924 641.964 368.982 642.112 369.04C642.144 369.052 642.175 369.058 642.206 369.067L643.906 370.049ZM642.359 372.195C642.698 372.412 643.011 372.569 643.324 372.655C643.708 372.76 643.987 372.696 644.061 372.252C644.097 372.041 644.03 371.654 643.787 371.388C643.433 371.003 643.073 370.811 642.717 370.655L642.359 372.195Z" fill="white"/>
<path d="M636.92 366.012C637.341 366.458 637.764 366.898 638.18 367.353C638.366 367.556 638.526 367.8 638.602 368.076C638.791 368.765 638.971 369.454 639.167 370.144C639.244 370.415 639.197 370.562 639.062 370.647C638.834 370.79 638.608 370.937 638.376 371.074C638.276 371.127 638.172 371.172 638.063 371.207C637.942 371.25 637.85 371.187 637.738 370.992C636.974 369.661 636.209 368.33 635.444 366.999C635.37 366.871 635.291 366.746 635.238 366.659C635.191 366.436 635.253 366.365 635.347 366.312C635.701 366.119 636.081 365.971 636.483 365.87C636.532 365.859 636.585 365.856 636.637 365.849L636.92 366.012ZM637.299 366.876C637.161 366.711 637.043 366.59 636.948 366.45C636.837 366.287 636.744 366.263 636.655 366.295C636.407 366.383 636.163 366.481 635.902 366.581L637.299 366.876Z" fill="white"/>
<path d="M629.651 361.813C629.993 362.32 630.336 362.826 630.675 363.337C630.786 363.508 630.892 363.683 630.993 363.862C631.101 364.048 631.1 364.19 630.993 364.254C630.176 364.733 629.359 365.212 628.542 365.691C628.45 365.745 628.33 365.689 628.234 365.536C628.059 365.255 627.882 364.975 627.717 364.688C627.506 364.321 627.307 363.949 627.103 363.58C627.103 363.442 627.103 363.305 627.103 363.168C627.291 362.718 627.485 362.274 627.665 361.816C627.755 361.587 627.932 361.518 628.151 361.533C628.553 361.559 628.962 361.609 629.368 361.649L629.651 361.813ZM628.221 364.944L627.768 362.816L627.383 363.546L628.221 364.944Z" fill="white"/>
<path d="M632.861 374.457C632.704 374.233 632.523 374.02 632.397 373.782C632.221 373.447 632.229 373.14 632.256 372.863C632.271 372.702 632.297 372.529 632.374 372.437C632.531 372.246 632.775 372.225 633.064 372.354C633.438 372.522 633.727 372.902 633.944 373.349C634.099 373.667 634.109 373.97 634.07 374.233C634.049 374.369 634.029 374.516 633.969 374.61C633.87 374.766 633.689 374.78 633.503 374.776C633.477 374.777 633.452 374.781 633.428 374.787L632.861 374.457ZM633.241 373.234C633.315 373.333 633.36 373.421 633.404 373.446C633.457 373.476 633.508 373.448 633.587 373.444L633.418 373.2L633.241 373.234Z" fill="white"/>
<path d="M661.914 391.243C661.987 390.913 662.057 390.581 662.133 390.253C662.239 389.787 662.349 389.323 662.459 388.854L662.787 389.043L663.488 391.303L663.866 389.665L664.213 389.865C664.182 390.015 664.157 390.156 664.125 390.293C663.979 390.919 663.83 391.544 663.684 392.171C663.681 392.2 663.681 392.232 663.684 392.265L663.354 392.075C663.33 391.953 663.313 391.832 663.28 391.71C663.144 391.203 663.004 390.695 662.86 390.187C662.813 390.021 662.753 389.853 662.698 389.686L662.666 389.677L662.268 391.447L661.914 391.243Z" fill="white"/>
<path d="M647.092 382.679C647.157 382.353 647.217 382.022 647.289 381.701C647.386 381.271 647.491 380.85 647.593 380.425C647.601 380.391 647.611 380.358 647.624 380.31C647.933 380.434 648.248 380.556 648.562 380.847C648.925 381.184 649.077 381.597 648.991 381.978C648.936 382.225 648.803 382.348 648.577 382.336C648.522 382.333 648.468 382.338 648.42 382.34C648.524 382.693 648.626 383.033 648.721 383.371C648.747 383.465 648.753 383.556 648.768 383.648L648.413 383.443L648.061 382.224L647.639 381.98C647.632 382.013 647.626 382.04 647.62 382.067L647.446 382.884L647.092 382.679ZM647.91 380.827L647.727 381.636C647.866 381.702 647.988 381.775 648.104 381.812C648.233 381.854 648.368 381.891 648.48 381.879C648.537 381.872 648.582 381.84 648.612 381.788C648.642 381.735 648.654 381.665 648.647 381.584C648.639 381.433 648.559 381.272 648.437 381.178C648.266 381.046 648.09 380.946 647.91 380.827Z" fill="white"/>
<path d="M664.816 392.92C664.89 392.569 664.96 392.214 665.038 391.866C665.138 391.418 665.245 390.974 665.35 390.524L666.704 391.307C666.695 391.372 666.688 391.429 666.679 391.485C666.669 391.54 666.657 391.595 666.642 391.665L665.631 391.081L665.49 391.694L666.375 392.206L666.312 392.544L665.415 392.026L665.238 392.758L666.303 393.374L666.256 393.752L664.816 392.92Z" fill="white"/>
<path d="M639.469 378.275C639.542 377.945 639.614 377.614 639.689 377.286C639.789 376.85 639.892 376.416 639.994 375.982C640.002 375.948 640.015 375.919 640.024 375.89L641.385 376.676L641.303 377.021L640.299 376.441L640.153 377.053L641.029 377.559L640.979 377.906L640.08 377.386L639.905 378.121L640.983 378.743L640.908 379.107L639.469 378.275Z" fill="white"/>
<path d="M649.688 384.179C649.763 383.842 649.838 383.505 649.914 383.169C650.013 382.732 650.113 382.296 650.214 381.862C650.222 381.839 650.232 381.817 650.244 381.797L651.599 382.58L651.522 382.929L650.514 382.346L650.372 382.959L651.249 383.465L651.194 383.804L650.303 383.289L650.123 384.025L651.2 384.647L651.127 385.011L649.688 384.179Z" fill="white"/>
<path d="M641.735 379.584L641.745 379.473L642.737 378.698L642.275 377.191L642.677 377.423L643.012 378.552L643.66 377.989L644.028 378.201C644.008 378.259 644.004 378.328 643.972 378.354C643.78 378.521 643.582 378.68 643.385 378.84C643.312 378.9 643.238 378.96 643.177 379.01C643.312 379.49 643.441 379.939 643.563 380.386C643.588 380.479 643.587 380.568 643.599 380.66L643.246 380.456L642.927 379.223L642.88 379.193L642.137 379.816L641.735 379.584Z" fill="white"/>
<path d="M644.544 381.207C644.617 380.868 644.687 380.527 644.762 380.189C644.813 379.96 644.872 379.738 644.925 379.511C644.976 379.288 645.025 379.062 645.075 378.837C645.401 378.963 645.725 379.095 646.04 379.392C646.394 379.725 646.471 379.981 646.469 380.345C646.467 380.61 646.406 380.829 646.209 380.894C646.039 380.954 645.833 380.931 645.616 380.83C645.445 380.75 645.274 380.659 645.087 380.565C645.04 380.766 644.988 380.975 644.939 381.185C644.923 381.258 644.911 381.336 644.897 381.411L644.544 381.207ZM645.365 379.368L645.167 380.199C645.31 380.272 645.438 380.351 645.563 380.399C645.728 380.463 645.893 380.509 646.001 380.405C646.084 380.324 646.142 380.218 646.086 380.014C646.027 379.803 645.897 379.69 645.758 379.597C645.636 379.517 645.514 379.455 645.365 379.368Z" fill="white"/>
<path d="M652.214 385.639L651.988 385.36L652.137 385.039C652.195 385.106 652.245 385.168 652.297 385.222C652.557 385.493 652.817 385.674 653.067 385.642C653.257 385.617 653.266 385.366 653.087 385.106C652.966 384.932 652.837 384.765 652.703 384.606C652.505 384.368 652.42 384.137 652.404 383.865C652.384 383.52 652.489 383.335 652.727 383.311C652.831 383.301 652.957 383.337 653.077 383.383C653.296 383.469 653.615 383.675 653.856 384.014L653.714 384.255C653.537 384.116 653.391 383.995 653.244 383.889C653.105 383.789 652.966 383.73 652.858 383.784C652.685 383.871 652.716 384.119 652.954 384.42C653.071 384.568 653.194 384.706 653.313 384.851C653.535 385.123 653.601 385.497 653.564 385.738C653.517 386.052 653.352 386.158 653.081 386.109C653.073 386.108 653.069 386.122 653.063 386.129L652.214 385.639Z" fill="white"/>
<path d="M654.527 386.975L654.326 386.728C654.29 386.539 654.407 386.501 654.452 386.375C654.654 386.638 654.861 386.818 655.084 386.919C655.237 386.988 655.386 387.038 655.475 386.922C655.574 386.793 655.528 386.598 655.337 386.341C655.233 386.202 655.125 386.068 655.015 385.939C654.819 385.709 654.734 385.48 654.717 385.213C654.694 384.865 654.794 384.67 655.038 384.648C655.146 384.639 655.274 384.682 655.398 384.719C655.61 384.782 655.958 385.066 656.138 385.311C656.15 385.437 656.101 385.532 656.01 385.579C655.85 385.452 655.703 385.315 655.557 385.227C655.439 385.155 655.298 385.088 655.209 385.111C654.988 385.167 655.018 385.437 655.269 385.758C655.402 385.927 655.552 386.078 655.674 386.256C655.979 386.701 655.946 387.276 655.688 387.411C655.599 387.457 655.481 387.449 655.376 387.465L654.527 386.975Z" fill="white"/>
<path d="M658.137 389.061C658.212 388.724 658.286 388.387 658.363 388.051C658.462 387.614 658.562 387.179 658.663 386.745C658.672 386.72 658.682 386.698 658.694 386.677L659.044 386.879L658.578 388.908L659.558 389.475L659.482 389.838L658.137 389.061Z" fill="white"/>
<path d="M660.427 390.384C660.485 390.106 660.539 389.824 660.601 389.551C660.719 389.035 660.841 388.522 660.964 387.997L661.295 388.188C661.292 388.259 661.298 388.337 661.284 388.397C661.117 389.11 660.946 389.822 660.777 390.533C660.776 390.551 660.777 390.57 660.781 390.59L660.427 390.384Z" fill="white"/>
<path d="M655.109 376.556L656.391 377.296L655.059 382.966L654.101 382.413C653.658 380.739 653.164 379.061 652.515 377.35L651.659 381.002L650.395 380.271L651.72 374.594L652.707 375.164C653.344 376.714 653.849 378.269 654.35 379.839L655.109 376.556Z" fill="white"/>
<path d="M647.804 372.33L648.953 372.994C649.335 375.337 649.54 377.608 649.741 379.889L648.459 379.149L648.381 377.726C648.344 377.699 648.308 377.673 648.271 377.65C647.673 377.305 647.076 376.957 646.477 376.617C646.43 376.589 646.362 376.59 646.339 376.622C646.124 376.927 645.916 377.242 645.703 377.559L644.377 376.793C644.414 376.707 644.435 376.626 644.475 376.568C644.694 376.253 644.916 375.94 645.14 375.632C645.363 375.326 645.589 375.024 645.818 374.726C646.172 374.265 646.525 373.804 646.885 373.352C647.037 373.16 647.208 372.991 647.37 372.812L647.804 372.33ZM646.908 375.645L648.299 376.449L648.119 374.089L648.082 374.063L646.908 375.645Z" fill="white"/>
<path d="M629.257 369.393C629.304 369.111 629.346 368.825 629.396 368.546C629.437 368.32 629.5 368.11 629.528 367.875C629.548 367.704 629.634 367.637 629.742 367.597C630.096 367.465 630.453 367.342 630.809 367.216C630.969 367.159 631.048 367.195 631.228 367.418C631.502 367.758 631.776 368.1 632.05 368.441C632.166 368.586 632.205 368.795 632.171 368.995C632.112 369.345 632.064 369.702 632.01 370.055C631.985 370.217 631.971 370.389 631.925 370.534C631.894 370.622 631.839 370.683 631.765 370.712C631.428 370.841 631.084 370.954 630.742 371.073C630.685 371.093 630.636 371.135 630.572 371.139C630.448 371.145 630.328 371.023 630.215 370.882C630.005 370.619 629.794 370.358 629.585 370.095C629.519 370.011 629.455 369.924 629.394 369.835C629.289 369.685 629.249 369.541 629.257 369.393Z" fill="white"/>
<path d="M634.106 369.932C634.089 369.75 634.166 369.705 634.29 369.7C634.541 369.69 634.786 369.661 635.03 369.63C635.22 369.607 635.326 369.681 635.498 369.944C635.838 370.466 636.181 370.986 636.531 371.498C636.698 371.743 636.746 371.969 636.78 372.211C636.841 372.637 636.919 373.07 636.981 373.497C637.005 373.665 637.025 373.84 637.007 373.983C636.991 374.083 636.938 374.152 636.861 374.173C636.647 374.214 636.418 374.222 636.193 374.238C636.097 374.244 636 374.265 635.895 374.228C635.807 374.192 635.718 374.115 635.646 374.014C635.351 373.586 635.065 373.147 634.778 372.71C634.657 372.524 634.529 372.337 634.429 372.141C634.369 372.024 634.343 371.883 634.326 371.762C634.264 371.334 634.212 370.91 634.16 370.486C634.138 370.3 634.124 370.117 634.106 369.932Z" fill="white"/>
</g>
</g>
<defs>
<filter id="filter0_f_792_17771" x="1119.33" y="-134.691" width="737.264" height="432.072" filterUnits="userSpaceOnUse" color-interpolation-filters="sRGB">
<feFlood flood-opacity="0" result="BackgroundImageFix"/>
<feBlend mode="normal" in="SourceGraphic" in2="BackgroundImageFix" result="shape"/>
<feGaussianBlur stdDeviation="2" result="effect1_foregroundBlur_792_17771"/>
</filter>
<filter id="filter1_f_792_17771" x="1145.56" y="-219.06" width="795" height="534.812" filterUnits="userSpaceOnUse" color-interpolation-filters="sRGB">
<feFlood flood-opacity="0" result="BackgroundImageFix"/>
<feBlend mode="normal" in="SourceGraphic" in2="BackgroundImageFix" result="shape"/>
<feGaussianBlur stdDeviation="45" result="effect1_foregroundBlur_792_17771"/>
</filter>
<filter id="filter2_f_792_17771" x="1066" y="343" width="167.5" height="98.5" filterUnits="userSpaceOnUse" color-interpolation-filters="sRGB">
<feFlood flood-opacity="0" result="BackgroundImageFix"/>
<feBlend mode="normal" in="SourceGraphic" in2="BackgroundImageFix" result="shape"/>
<feGaussianBlur stdDeviation="1" result="effect1_foregroundBlur_792_17771"/>
</filter>
<filter id="filter3_f_792_17771" x="535" y="347.5" width="237.272" height="140.464" filterUnits="userSpaceOnUse" color-interpolation-filters="sRGB">
<feFlood flood-opacity="0" result="BackgroundImageFix"/>
<feBlend mode="normal" in="SourceGraphic" in2="BackgroundImageFix" result="shape"/>
<feGaussianBlur stdDeviation="2" result="effect1_foregroundBlur_792_17771"/>
</filter>
<linearGradient id="paint0_linear_792_17771" x1="1482.78" y1="154.742" x2="1400.38" y2="268.008" gradientUnits="userSpaceOnUse">
<stop stop-color="#0E3390" stop-opacity="0.54"/>
<stop offset="0.84" stop-color="#0E3390" stop-opacity="0"/>
</linearGradient>
<linearGradient id="paint1_linear_792_17771" x1="1083" y1="435" x2="1177.85" y2="321.873" gradientUnits="userSpaceOnUse">
<stop stop-color="#B4C5E0" stop-opacity="0"/>
<stop offset="0.316881" stop-color="#0E3391"/>
<stop offset="0.81" stop-color="#0E3390"/>
<stop offset="1" stop-color="#0E3390" stop-opacity="0"/>
</linearGradient>
<linearGradient id="paint2_linear_792_17771" x1="606.871" y1="465.122" x2="655.306" y2="384.132" gradientUnits="userSpaceOnUse">
<stop stop-color="#0E3390" stop-opacity="0"/>
<stop offset="0.915239" stop-color="#0E3390"/>
</linearGradient>
<clipPath id="clip0_792_17771">
<rect width="113.76" height="96.7492" fill="white" transform="matrix(-1 0 0 1 1227.2 307)"/>
</clipPath>
<clipPath id="clip1_792_17771">
<rect width="49.27" height="11.6096" fill="white" transform="matrix(0.865865 -0.500278 0 1 1163 370.649)"/>
</clipPath>
<clipPath id="clip2_792_17771">
<rect width="105.73" height="89.5468" fill="white" transform="translate(608.515 325.952)"/>
</clipPath>
<clipPath id="clip3_792_17771">
<rect width="45.7915" height="10.7899" fill="white" transform="matrix(0.865865 0.500278 0 1 627.104 360.34)"/>
</clipPath>
</defs>
</svg>
