<svg width="60" height="60" viewBox="0 0 60 60" fill="none" xmlns="http://www.w3.org/2000/svg">
<g id="6" clip-path="url(#clip0_1258_20028)">
<g id="&#208;&#161;&#208;&#187;&#208;&#190;&#208;&#185; 2">
<g id="&#208;&#161;&#208;&#187;&#208;&#190;&#208;&#185; 1">
<path id="Vector" d="M0 60V0H44.6484C44.6609 0.232812 44.6844 0.46875 44.6844 0.698437C44.6844 5.95156 44.6844 11.2047 44.6844 16.4578C44.6844 16.6828 44.7031 16.9062 44.7156 17.1828H59.9594V60H0ZM3.55781 3.53594V56.4563H28.2063V27.7641H15.175V24.2422H28.2125V20.675H15.1813V17.1656H41.1266V3.53594H3.55781ZM31.8 31.25V56.4375H56.4531V31.25H31.8ZM56.4641 20.7328H31.7953V27.6562H56.4625L56.4641 20.7328Z" fill="#2B298F"/>
<path id="Vector_2" d="M12.3027 11.8V8.36255H32.3887V11.8H12.3027Z" fill="#2B298F"/>
<path id="Vector_3" d="M12.0719 17.228V20.6655H8.125V17.228H12.0719Z" fill="#2B298F"/>
<path id="Vector_4" d="M8.11133 27.7344V24.2969H12.0535V27.7344H8.11133Z" fill="#2B298F"/>
<path id="Vector_5" d="M49.375 51.3844V41.25H52.8125V51.3859L49.375 51.3844Z" fill="#2B298F"/>
<path id="Vector_6" d="M45.8398 37.9172H42.4023V34.4954H45.8398V37.9172Z" fill="#2B298F"/>
<path id="Vector_7" d="M42.4102 47.9546H45.8367V51.3749H42.4102V47.9546Z" fill="#2B298F"/>
<path id="Vector_8" d="M35.4004 37.9078V34.5H38.8613V37.9063L35.4004 37.9078Z" fill="#2B298F"/>
<path id="Vector_9" d="M49.375 37.9V34.5125H52.8125V37.9H49.375Z" fill="#2B298F"/>
<path id="Vector_10" d="M38.8461 51.3891H35.418V47.9688H38.8461V51.3891Z" fill="#2B298F"/>
<path id="Vector_11" d="M42.4102 41.25H45.8477V44.6297H42.4102V41.25Z" fill="#2B298F"/>
<path id="Vector_12" d="M35.4102 44.6313V41.25H38.8477V44.6328L35.4102 44.6313Z" fill="#2B298F"/>
<path id="Vector_13" d="M8.7832 42.7249H11.052V33.2811C11.8561 33.128 12.6895 33.0082 13.552 32.9218C14.4145 32.8353 15.3238 32.7921 16.2801 32.7921C17.2433 32.789 18.2047 32.8753 19.152 33.0499C20.0111 33.1974 20.8314 33.5179 21.5629 33.9921C22.2683 34.4701 22.8374 35.1232 23.2145 35.8874C23.6311 36.6916 23.8395 37.7254 23.8395 38.9889C23.8395 40.1577 23.6384 41.1442 23.2363 41.9483C22.8603 42.7204 22.3092 43.394 21.627 43.9155C20.9422 44.431 20.1604 44.803 19.3285 45.0093C18.4459 45.2319 17.5388 45.3427 16.6285 45.339H14.6707V47.0046H19.266V49.6186H14.6707V53.1811H11.052V49.6186H8.7832V47.0046H11.052V45.339H8.7832V42.7249ZM14.6723 42.639H16.166C16.6653 42.6411 17.1627 42.5781 17.6457 42.4514C18.0882 42.3399 18.5034 42.1395 18.866 41.8624C19.2259 41.5762 19.5084 41.2045 19.6879 40.7811C19.9014 40.2672 20.0041 39.714 19.9895 39.1577C19.9895 37.99 19.6733 37.1619 19.041 36.6733C18.4087 36.1848 17.5947 35.9405 16.5988 35.9405C16.2155 35.9405 15.8509 35.9551 15.5051 35.9843C15.1592 36.0134 14.8816 36.0468 14.6723 36.0843V42.639Z" fill="#2B298F"/>
</g>
</g>
</g>
<defs>
<clipPath id="clip0_1258_20028">
<rect width="60" height="60" fill="white"/>
</clipPath>
</defs>
</svg>
