<svg width="60" height="60" viewBox="0 0 60 60" fill="none" xmlns="http://www.w3.org/2000/svg">
<g id="delivery-man 1" clip-path="url(#clip0_1624_21558)">
<g id="Group">
<path id="Vector" d="M19.9805 0.164066C18.9961 0.41016 18.2578 0.832035 17.5078 1.58204C16.7227 2.36719 16.2656 3.21094 16.0547 4.27735C15.9609 4.78125 15.9375 7.69922 15.9609 14.8242L16.0078 24.668L16.3359 25.8867C16.9336 28.1133 17.7656 29.7656 19.1602 31.4883C19.582 32.0156 20.1211 32.6133 20.3555 32.8008L20.7891 33.1523L20.4375 33.2813C20.25 33.3633 17.7305 34.2891 14.8242 35.3555C11.9297 36.4219 9.28125 37.418 8.94141 37.5586C7.18359 38.3438 5.39062 40.1484 4.62891 41.9063C3.89062 43.5938 3.9375 42.9961 3.89062 51.8789L3.85547 60H30H56.1445L56.1094 51.8789C56.0625 42.9961 56.1094 43.5938 55.3711 41.9063C54.6094 40.1484 52.8398 38.3555 51.0586 37.5586C50.7188 37.4063 48.0469 36.3984 45.1172 35.332C42.1875 34.2539 39.6797 33.3281 39.5391 33.2813C39.3164 33.1875 39.375 33.1055 40.1602 32.2852C41.543 30.8203 42.6445 29.0156 43.2891 27.1641C44.0156 25.0547 43.9805 25.5586 44.0273 14.8242C44.0625 7.75782 44.0391 4.78125 43.9453 4.28907C43.5469 2.22657 41.918 0.562504 39.8672 0.12891C38.9414 -0.0703087 20.7773 -0.0351524 19.9805 0.164066ZM39.6094 3.75C39.9141 3.90235 40.1602 4.14844 40.3125 4.45313C40.5234 4.875 40.5469 5.13282 40.5469 7.73438V10.5469H30H19.4531V7.69922C19.4648 4.48829 19.5 4.30079 20.3438 3.79688L20.8008 3.51563H29.9766C38.9414 3.51563 39.1641 3.51563 39.6094 3.75ZM38.3672 14.2031C38.3086 14.2852 37.4062 15.375 36.3516 16.6055L34.4414 18.8672H30H25.5586L23.6484 16.6055C22.582 15.375 21.6797 14.2852 21.6328 14.2031C21.5625 14.0977 23.2734 14.0625 30 14.0625C36.7266 14.0625 38.4375 14.0977 38.3672 14.2031ZM21.7383 19.8047L23.918 22.3828H30H36.082L38.2852 19.7813L40.4883 17.168L40.5234 20.2734C40.5586 23.7422 40.4414 24.8203 39.8555 26.3203C38.5781 29.6133 35.6484 32.1211 32.2148 32.8828C30.9258 33.1641 28.9102 33.1406 27.6094 32.8242C23.8008 31.8984 20.8594 29.0508 19.793 25.2422C19.5586 24.3984 19.5234 23.9883 19.4766 20.7656C19.4531 18.8203 19.4648 17.2266 19.5 17.2266C19.5234 17.2266 20.543 18.3867 21.7383 19.8047ZM27.2109 36.3398C29.543 36.832 32.5195 36.6211 34.7344 35.8125L35.4961 35.543L42.5977 38.1563C46.8164 39.7031 49.9336 40.9102 50.2734 41.1328C51.2461 41.7539 51.9727 42.7148 52.3828 43.9336C52.6055 44.6133 52.6172 44.918 52.6172 50.5664V56.4844H46.6406H40.6641V49.4531V42.4219H30H19.3359V49.4531V56.4844H13.3594H7.38281V50.5664C7.38281 44.8828 7.39453 44.6133 7.62891 43.9219C8.03906 42.6797 8.8125 41.707 9.97266 40.9688C10.1367 40.8633 13.4883 39.5977 17.4141 38.1563L24.5391 35.543L25.2773 35.8125C25.6758 35.9648 26.543 36.1992 27.2109 36.3398ZM28.2422 48.5742V51.2109H30H31.7578V48.5742V45.9375H34.3945H37.0312V51.2109V56.4844H30H22.9688V51.2109V45.9375H25.6055H28.2422V48.5742Z" fill="#2B298F"/>
</g>
</g>
<defs>
<clipPath id="clip0_1624_21558">
<rect width="60" height="60" fill="white"/>
</clipPath>
</defs>
</svg>
