<svg width="60" height="60" viewBox="0 0 60 60" fill="none" xmlns="http://www.w3.org/2000/svg">
<g id="crane-_6_ 1" clip-path="url(#clip0_1624_21561)">
<g id="Group">
<path id="Vector" d="M28.2422 2.44922V4.88672L27.5508 5.14453C25.4766 5.89453 23.7539 7.82812 23.1914 10.0078C22.793 11.5312 22.9922 13.5586 23.6719 14.8945L23.9297 15.3867L18.082 21.2344L12.2461 27.0703H6.11719H0V43.5352V60H30H60V43.5352V27.0703H53.8828H47.7539L41.918 21.2344L36.0703 15.3867L36.3281 14.8945C36.6445 14.2734 37.0312 12.7617 37.0312 12.1641V11.7188H35.2734H33.5156V12.0469C33.5156 13.0078 32.5898 14.3789 31.5938 14.918C31.1953 15.1289 30.9258 15.1758 30 15.1758C28.6641 15.1758 28.207 14.9766 27.3867 14.0625C25.8281 12.3281 26.3555 9.62109 28.4531 8.58984C29.0391 8.30859 29.2852 8.26172 30.4453 8.21484L31.7578 8.17969V4.08984V0H30H28.2422V2.44922ZM28.3008 18.5742C29.707 18.9375 31.6055 18.75 33 18.1172L33.5977 17.8359L38.1328 22.3711C40.6172 24.8555 42.6562 26.9297 42.6562 26.9883C42.6562 27.0352 36.9609 27.0703 30 27.0703C23.0391 27.0703 17.3438 27.0352 17.3438 26.9883C17.3438 26.9297 19.3828 24.8555 21.8672 22.3711L26.4023 17.8359L27 18.1172C27.3281 18.2695 27.9141 18.4688 28.3008 18.5742ZM8.08594 43.5352V56.4844H5.80078H3.51562V43.5352V30.5859H5.80078H8.08594V43.5352ZM16.1719 43.5352V56.4844H13.8867H11.6016V43.5352V30.5859H13.8867H16.1719V43.5352ZM24.2578 43.5352V56.4844H21.9727H19.6875V43.5352V30.5859H21.9727H24.2578V43.5352ZM32.2266 43.5352V56.4844H30H27.7734V43.5352V30.5859H30H32.2266V43.5352ZM40.3125 43.5352V56.4844H38.0273H35.7422V43.5352V30.5859H38.0273H40.3125V43.5352ZM48.3984 43.5352V56.4844H46.1133H43.8281V43.5352V30.5859H46.1133H48.3984V43.5352ZM56.4844 43.5352V56.4844H54.1992H51.9141V43.5352V30.5859H54.1992H56.4844V43.5352Z" fill="#2B298F"/>
</g>
</g>
<defs>
<clipPath id="clip0_1624_21561">
<rect width="60" height="60" fill="white"/>
</clipPath>
</defs>
</svg>
