<svg width="60" height="60" viewBox="0 0 60 60" fill="none" xmlns="http://www.w3.org/2000/svg">
<g id="6">
<g id="&#208;&#161;&#208;&#187;&#208;&#190;&#208;&#185; 2">
<g id="&#208;&#161;&#208;&#187;&#208;&#190;&#208;&#185; 1">
<path id="Vector" d="M0 56.6735V14.4585H19.4674V6.29535C26.522 3.24336 33.539 3.22772 40.5905 6.29535V14.4647H60V56.6797L0 56.6735ZM35.2917 42.6018C38.888 42.5573 42.4628 42.0389 45.9236 41.0602V18.0217H14.2046V41.0867C17.6435 42.0488 21.1938 42.556 24.7646 42.5955V39.1152H35.2917V42.6018ZM3.55231 53.1149H56.4868V40.5098C56.2663 40.6208 56.0943 40.7037 55.927 40.7928C49.6531 44.1992 42.6429 46.0239 35.5044 46.1088C35.1025 46.1088 34.9524 46.2651 34.7836 46.5997C33.8048 48.5541 32.2038 49.6251 30.0149 49.6251C27.8525 49.6251 26.2468 48.576 25.2868 46.6388C25.071 46.2026 24.8365 46.1166 24.4081 46.1088C18.2976 46.0156 12.2739 44.647 6.72313 42.0905C5.66463 41.6058 4.63427 41.0617 3.54919 40.527L3.55231 53.1149ZM10.6319 39.9079V18.0186H3.51792C3.51792 24.0585 3.51792 30.0577 3.52886 36.0522C3.5357 36.1419 3.56155 36.2292 3.60468 36.3082C3.64781 36.3872 3.70724 36.4561 3.77902 36.5103C5.94365 37.8697 8.2395 39.0079 10.6319 39.9079ZM49.5072 39.8578C49.7197 39.7915 49.9285 39.7137 50.1326 39.6249C52.1011 38.6414 54.0649 37.6439 56.0365 36.6667C56.4258 36.4744 56.5243 36.2101 56.5227 35.7895C56.5081 30.0671 56.505 24.3441 56.5134 18.6206V18.0249H49.5088L49.5072 39.8578ZM23.0009 14.4194H37.0366V8.79072C32.3554 7.03333 27.6769 7.03333 23.0009 8.79072V14.4194ZM28.2637 42.619C28.2637 43.2663 28.2418 43.851 28.2637 44.4327C28.2842 44.865 28.463 45.2747 28.766 45.5838C29.069 45.8929 29.4751 46.0797 29.907 46.1088C30.7622 46.1635 31.5971 45.574 31.7175 44.7016C31.8113 44.023 31.7363 43.321 31.7363 42.6221L28.2637 42.619Z" fill="#2B298F"/>
</g>
</g>
</g>
</svg>
