<svg width="60" height="60" viewBox="0 0 60 60" fill="none" xmlns="http://www.w3.org/2000/svg">
<g id="platform">
<g id="&#208;&#161;&#208;&#187;&#208;&#190;&#208;&#185; 2">
<g id="&#208;&#161;&#208;&#187;&#208;&#190;&#208;&#185; 1">
<path id="Vector" d="M59.8005 41.7673V45.2487H55.3823C55.4852 45.4795 55.5507 45.6359 55.6239 45.7892C56.3682 47.3663 56.4886 49.1637 55.9612 50.8249C55.4338 52.486 54.2972 53.8894 52.7769 54.7565C51.2567 55.6235 49.4639 55.8909 47.7545 55.5056C46.0451 55.1202 44.544 54.1102 43.5491 52.6761C43.4605 52.522 43.3292 52.3964 43.171 52.314C43.0127 52.2317 42.8341 52.1961 42.6561 52.2115C34.1532 52.2239 25.6504 52.2239 17.1475 52.2115C16.9696 52.1961 16.7909 52.2317 16.6326 52.314C16.4744 52.3964 16.3432 52.522 16.2545 52.6761C15.3459 53.9957 14.0055 54.9619 12.4612 55.4108C10.9169 55.8596 9.26388 55.7634 7.78286 55.1385C4.67532 53.8206 2.93766 50.508 3.68416 47.2682C3.84 46.5992 4.11273 45.9596 4.34961 45.2549H0V41.7673H59.8005ZM43.052 45.2782H16.7501L17.6727 48.7038H42.1278L43.052 45.2782ZM10.5148 45.2534C9.82179 45.2528 9.14419 45.4566 8.56787 45.8391C7.99154 46.2215 7.54243 46.7654 7.27744 47.4017C7.01246 48.038 6.94352 48.7382 7.07936 49.4135C7.21521 50.0888 7.54973 50.7089 8.04053 51.1951C8.53133 51.6813 9.15632 52.0117 9.83631 52.1446C10.5163 52.2775 11.2207 52.2068 11.8602 51.9415C12.4997 51.6762 13.0456 51.2282 13.4287 50.6543C13.8117 50.0804 14.0147 49.4064 14.0119 48.7177C14.0002 47.8004 13.6274 46.9242 12.9734 46.2767C12.3195 45.6291 11.4364 45.2618 10.5132 45.2534H10.5148ZM49.2951 52.2084C49.9878 52.2072 50.6646 52.0016 51.2397 51.6177C51.8148 51.2338 52.2622 50.689 52.5253 50.0521C52.7884 49.4153 52.8553 48.7151 52.7176 48.0405C52.5799 47.3658 52.2437 46.7469 51.7516 46.2623C51.2596 45.7777 50.6338 45.4491 49.9537 45.3183C49.2735 45.1875 48.5696 45.2602 47.9311 45.5274C47.2926 45.7945 46.7483 46.244 46.3672 46.8188C45.986 47.3937 45.7852 48.0681 45.7901 48.7565C45.8052 49.6727 46.1802 50.5467 46.8352 51.1918C47.4901 51.8368 48.373 52.2017 49.2951 52.2084Z" fill="#2B298F"/>
<path id="Vector_2" d="M0.199219 4V39.0773H59.9997V4H0.199219ZM56.459 35.5618H3.70571V7.53096H56.4636L56.459 35.5618Z" fill="#2B298F"/>
<path id="Vector_3" d="M10.6414 32.082H7.20508V11.0046H10.6414V32.082Z" fill="#2B298F"/>
<path id="Vector_4" d="M17.8428 10.9938H21.2713V32.0804H17.8428V10.9938Z" fill="#2B298F"/>
<path id="Vector_5" d="M31.7928 32.0819H28.3643V10.9968H31.7928V32.0819Z" fill="#2B298F"/>
<path id="Vector_6" d="M38.8818 10.9938H42.3104V32.0804H38.8818V10.9938Z" fill="#2B298F"/>
<path id="Vector_7" d="M49.5156 10.9968H52.952V32.0587H49.5156V10.9968Z" fill="#2B298F"/>
</g>
</g>
</g>
</svg>
