<svg width="206" height="188" viewBox="0 0 206 188" fill="none" xmlns="http://www.w3.org/2000/svg">
<g clip-path="url(#clip0_1212_35917)">
<g filter="url(#filter0_f_1212_35917)">
<path d="M46 123.831L103.5 91L186.167 141.524L130.765 174L46 123.831Z" fill="url(#paint0_linear_1212_35917)"/>
</g>
<path d="M108.098 109.309L108.052 160.143L44 123.102V72.0005L108.098 109.309Z" fill="#5F5DCA"/>
<path d="M44 72.0005L108.098 109.309L164 76.9827L99.9021 39.6738L44 72.0005ZM62.569 77.6265V68.6203L86.0892 55.0189V64.0214L62.569 77.6265Z" fill="#E6EEF9"/>
<path d="M46.5938 72.0043L108.101 107.807L161.409 76.9789L99.8977 41.1761L46.5938 72.0043ZM62.5723 77.6265V68.6203L86.0887 55.0189V64.0214L62.5723 77.6265Z" fill="#CBD7EB"/>
<path d="M164.001 76.9827V127.789L108.053 160.143L108.099 109.309L164.001 76.9827Z" fill="#201F78"/>
<path d="M125.045 113.755L148.565 100.154V91.1473L125.045 104.749V113.755Z" fill="#CBD7EB"/>
<path d="M46.5938 72.0043L99.9781 103.082L99.8978 41.1799L46.5938 72.0043ZM62.5723 77.6265V68.6202L86.0887 55.0189V64.0213L62.5723 77.6265Z" fill="#CBD7EB"/>
<path d="M70.7029 107.305L81.4662 113.529C82.197 113.95 82.7863 113.701 82.7863 112.969V109.953C82.7442 109.526 82.6028 109.116 82.3736 108.754C82.1443 108.392 81.8336 108.088 81.4662 107.868L70.7029 101.641C69.9721 101.219 69.3828 101.468 69.3828 102.2V105.216C69.4244 105.644 69.5655 106.055 69.7947 106.418C70.024 106.781 70.3351 107.084 70.7029 107.305Z" fill="#CBD7EB"/>
<mask id="mask0_1212_35917" style="mask-type:luminance" maskUnits="userSpaceOnUse" x="46" y="-11" width="116" height="125">
<path d="M46.5938 72.0043L108.101 107.807L161.409 76.9788V8.94905L46.5938 -10.8302V72.0043ZM125.033 104.749L148.553 91.1474V100.15L125.033 113.751V104.749Z" fill="white"/>
</mask>
<g mask="url(#mask0_1212_35917)">
<path d="M91.7852 102.886L146.057 134.27V45.7137L91.7852 14.3298V102.886Z" fill="#E2EBF7"/>
<path d="M96.791 26.3253L140.208 51.4317V54.26L96.791 29.1537V26.3253Z" fill="#CBD7EB"/>
<path d="M96.791 34.9713L140.208 60.0815V62.906L96.791 37.7997V34.9713Z" fill="#CBD7EB"/>
<path d="M96.791 43.6212L140.208 68.7276V71.5559L96.791 46.4496V43.6212Z" fill="#CBD7EB"/>
<path d="M96.791 52.2672L140.208 77.3736V80.2019L96.791 55.0956V52.2672Z" fill="#CBD7EB"/>
<path d="M96.791 60.9132L140.208 86.0196V88.8479L96.791 63.7415V60.9132Z" fill="#CBD7EB"/>
<path d="M96.791 69.5592L140.208 94.6694V97.4939L96.791 72.3876V69.5592Z" fill="#CBD7EB"/>
<path d="M96.791 78.209L140.208 103.315V106.144L96.791 81.0335V78.209Z" fill="#CBD7EB"/>
<path d="M96.791 86.855L140.208 111.961V114.79L96.791 89.6833V86.855Z" fill="#CBD7EB"/>
<path d="M96.791 95.501L140.208 120.607V123.436L96.791 98.3293V95.501Z" fill="#CBD7EB"/>
<path d="M80.3066 87.5563L134.579 118.94V30.3839L80.3066 -1V87.5563Z" fill="#EEF3FA"/>
<path d="M85.3125 10.9956L128.729 36.102V38.9303L85.3125 13.824V10.9956Z" fill="#CBD7EB"/>
<path d="M85.3125 19.6416L128.729 44.7518V47.5763L85.3125 22.4699V19.6416Z" fill="#CBD7EB"/>
<path d="M85.3125 28.2914L128.729 53.3977V56.2261L85.3125 31.1197V28.2914Z" fill="#CBD7EB"/>
<path d="M85.3125 36.9374L128.729 62.0437V64.8721L85.3125 39.7657V36.9374Z" fill="#CBD7EB"/>
<path d="M85.3125 45.5834L128.729 70.6897V73.5181L85.3125 48.4117V45.5834Z" fill="#CBD7EB"/>
<path d="M85.3125 54.2294L128.729 79.3396V82.1641L85.3125 57.0577V54.2294Z" fill="#CBD7EB"/>
<path d="M85.3125 62.8792L128.729 87.9855V90.8139L85.3125 65.7037V62.8792Z" fill="#CBD7EB"/>
<path d="M85.3125 71.5251L128.729 96.6315V99.4598L85.3125 74.3535V71.5251Z" fill="#CBD7EB"/>
<path d="M85.3125 80.1713L128.729 105.278V108.106L85.3125 82.9996V80.1713Z" fill="#CBD7EB"/>
<path d="M68.8281 114.383L123.1 145.767V57.211L68.8281 25.8271V114.383Z" fill="white"/>
<path d="M73.832 37.8226L117.249 62.929V65.7573L73.832 40.651V37.8226Z" fill="#CBD7EB"/>
<path d="M73.832 46.4686L117.249 71.5788V74.4033L73.832 49.297V46.4686Z" fill="#CBD7EB"/>
<path d="M73.832 55.1185L117.249 80.2249V83.0532L73.832 57.9469V55.1185Z" fill="#CBD7EB"/>
<path d="M73.832 63.7645L117.249 88.8709V91.6992L73.832 66.5929V63.7645Z" fill="#CBD7EB"/>
<path d="M73.832 72.4105L117.249 97.5169V100.345L73.832 75.2389V72.4105Z" fill="#CBD7EB"/>
<path d="M73.832 81.0565L117.249 106.167V108.991L73.832 83.8849V81.0565Z" fill="#CBD7EB"/>
<path d="M73.832 89.7063L117.249 114.813V117.641L73.832 92.5308V89.7063Z" fill="#CBD7EB"/>
<path d="M73.832 98.3523L117.249 123.459V126.287L73.832 101.181V98.3523Z" fill="#CBD7EB"/>
<path d="M73.832 106.998L117.249 132.105V134.933L73.832 109.827V106.998Z" fill="#CBD7EB"/>
</g>
</g>
<defs>
<filter id="filter0_f_1212_35917" x="44" y="89" width="144.166" height="87" filterUnits="userSpaceOnUse" color-interpolation-filters="sRGB">
<feFlood flood-opacity="0" result="BackgroundImageFix"/>
<feBlend mode="normal" in="SourceGraphic" in2="BackgroundImageFix" result="shape"/>
<feGaussianBlur stdDeviation="1" result="effect1_foregroundBlur_1212_35917"/>
</filter>
<linearGradient id="paint0_linear_1212_35917" x1="38.7691" y1="20.5971" x2="132.766" y2="173.871" gradientUnits="userSpaceOnUse">
<stop offset="0.03" stop-color="#0E3390"/>
<stop offset="1" stop-color="#0E3390" stop-opacity="0"/>
</linearGradient>
<clipPath id="clip0_1212_35917">
<rect width="206" height="188" fill="white"/>
</clipPath>
</defs>
</svg>
