<svg width="60" height="60" viewBox="0 0 60 60" fill="none" xmlns="http://www.w3.org/2000/svg">
<g id="truck&#208;&#160;&#208;&#181;&#209;&#129;&#209;&#131;&#209;&#128;&#209;&#129; 3 1" clip-path="url(#clip0_792_16450)">
<g id="&#208;&#161;&#208;&#187;&#208;&#190;&#208;&#185; 2">
<g id="&#208;&#161;&#208;&#187;&#208;&#190;&#208;&#185; 1">
<path id="Vector" d="M0 42.4187H35.3763V21.2094H36.0062C41.2392 21.2094 46.4722 21.2059 51.7052 21.1991C52.127 21.1991 52.3555 21.3031 52.5533 21.7015C54.9511 26.5351 57.3737 31.3688 59.7803 36.2024C59.9055 36.4412 59.9761 36.7049 59.9868 36.9743C59.9985 42.1683 60.0015 47.3622 59.9956 52.5562C59.9956 52.6704 59.9854 52.7832 59.9766 52.9575H53.0235C52.7217 57.8776 48.7757 60.1713 45.5841 59.9882C42.2708 59.7993 39.0704 57.217 38.8888 53.0088H21.1156C21.0043 55.3802 20.0332 57.3415 18.0543 58.7374C16.7371 59.6786 15.126 60.1162 13.5137 59.9707C10.2912 59.7173 7.19771 57.176 7.00437 52.9634H0V42.4187ZM38.9415 24.7247V49.3865C39.5742 49.5945 39.9229 49.3513 40.2817 48.8519C40.7003 48.2644 41.2102 47.7477 41.7919 47.3212C45.1036 44.9278 49.4363 45.71 51.7799 49.0789C51.8824 49.2254 52.0509 49.429 52.1915 49.4319C53.6079 49.4583 55.0258 49.448 56.4392 49.448V45.9151H53.0044V42.3909H56.448V38.7715H42.4642V28.2079H51.8517C51.2848 27.0712 50.7692 26.0108 50.2141 24.9591C50.1438 24.8258 49.8728 24.7379 49.6926 24.735C48.2675 24.7174 46.8423 24.7247 45.4171 24.7247H38.9415ZM15.2948 45.937C17.7028 46.6987 18.3927 47.1791 19.9951 49.1946C20.1196 49.3513 20.4199 49.4392 20.6396 49.4392C25.3795 49.4529 30.1194 49.4558 34.8593 49.448C35.0262 49.448 35.1947 49.426 35.3441 49.4158V45.937H15.2948ZM17.5724 52.9678C17.5748 52.2715 17.3703 51.5902 16.9849 51.0103C16.5995 50.4304 16.0506 49.9781 15.4078 49.7105C14.7649 49.443 14.0572 49.3724 13.3741 49.5077C12.6911 49.6429 12.0637 49.978 11.5714 50.4703C11.079 50.9627 10.744 51.5901 10.6087 52.2731C10.4734 52.9561 10.544 53.6639 10.8116 54.3067C11.0791 54.9496 11.5315 55.4985 12.1114 55.8839C12.6913 56.2692 13.3725 56.4737 14.0688 56.4714C14.995 56.4627 15.8808 56.0915 16.5366 55.4374C17.1923 54.7833 17.5658 53.8983 17.5768 52.9722L17.5724 52.9678ZM45.9561 56.4714C46.6524 56.4682 47.3321 56.2582 47.9089 55.8682C48.4857 55.4781 48.9337 54.9255 49.1961 54.2805C49.4584 53.6355 49.5233 52.9271 49.3825 52.2452C49.2417 51.5633 48.9015 50.9385 48.4051 50.4502C47.9088 49.9618 47.2786 49.6319 46.5944 49.5022C45.9103 49.3725 45.203 49.449 44.5624 49.7218C43.9217 49.9946 43.3765 50.4516 42.996 51.0347C42.6154 51.6178 42.4165 52.3008 42.4246 52.9971C42.4411 53.9237 42.8201 54.8069 43.4803 55.4572C44.1405 56.1076 45.0294 56.4733 45.9561 56.4758V56.4714ZM55.3744 35.2327C54.8368 34.1532 54.3271 33.1689 53.8569 32.1656C53.7002 31.8302 53.501 31.7349 53.1421 31.7379C50.9157 31.7555 48.6908 31.7452 46.4644 31.7481C46.2974 31.7481 46.1289 31.7701 45.9634 31.7804V35.2327H55.3744ZM12.8238 45.9707H3.5432V49.448C4.97132 49.448 6.3716 49.448 7.77043 49.4377C7.84341 49.4257 7.91309 49.3986 7.97511 49.3583C8.03712 49.3179 8.09011 49.2652 8.13075 49.2034C9.2586 47.4897 10.8288 46.4321 12.8238 45.9707Z" fill="#2B298F"/>
<path id="Vector_2" d="M17.5768 0C17.5768 1.17179 17.5607 2.34358 17.5929 3.51537C17.6024 3.62768 17.6374 3.73635 17.6953 3.83307C17.7532 3.92979 17.8324 4.012 17.9269 4.07343C18.6629 4.39572 19.3152 4.88222 19.8341 5.49565C20.3529 6.10908 20.7244 6.83315 20.9201 7.61238C21.1158 8.3916 21.1305 9.20528 20.963 9.99105C20.7956 10.7768 20.4505 11.5138 19.9541 12.1456C19.8933 12.2339 19.837 12.3254 19.7857 12.4195C20.0142 12.5425 20.2134 12.6553 20.4184 12.7579C23.2615 14.1786 26.1089 15.5907 28.9447 17.0246C29.7693 17.4421 30.5676 17.8903 31.59 17.6515V38.7862H0V17.694C0.925713 17.8083 1.73864 17.5226 2.55889 17.1081C5.45468 15.617 8.3739 14.1801 11.2785 12.7242C11.466 12.6304 11.6461 12.525 11.8732 12.4019C11.0383 11.3722 10.5695 10.2532 10.571 8.93489H14.0263C14.0454 8.99934 14.0585 9.03596 14.0673 9.08137C14.3266 10.1638 15.1132 10.7643 16.0667 10.6062C17.0202 10.448 17.6471 9.66726 17.5651 8.7518C17.4787 7.79093 16.7097 7.16549 15.598 7.15817C15.0985 7.15817 14.5976 7.15817 14.0615 7.15817V0H17.5768ZM3.55638 21.2387V35.2284H28.0907V21.2387H3.55638ZM9.45194 17.5768L9.49589 17.6618H22.2201C22.169 17.6074 22.1126 17.5583 22.0516 17.5153C20.0654 16.5208 18.0807 15.5203 16.0828 14.5478C15.873 14.479 15.6446 14.4959 15.4471 14.5946C14.1479 15.2215 12.8633 15.8763 11.5729 16.5222L9.45194 17.5768Z" fill="#2B298F"/>
<path id="Vector_3" d="M7.05859 31.7218V24.7687H10.508V31.7218H7.05859Z" fill="#2B298F"/>
<path id="Vector_4" d="M14.1035 24.754H17.5427V31.732H14.1035V24.754Z" fill="#2B298F"/>
<path id="Vector_5" d="M24.5637 31.732H21.126V24.754H24.5637V31.732Z" fill="#2B298F"/>
</g>
</g>
</g>
<defs>
<clipPath id="clip0_792_16450">
<rect width="59.9956" height="60" fill="white"/>
</clipPath>
</defs>
</svg>
