<svg width="26" height="26" viewBox="0 0 26 26" fill="none" xmlns="http://www.w3.org/2000/svg">
<g id="Clip path group">
<mask id="mask0_1467_12756" style="mask-type:luminance" maskUnits="userSpaceOnUse" x="0" y="0" width="26" height="26">
<g id="clip0_3150_7660">
<path id="Vector" d="M26 0H0V25.6803H26V0Z" fill="white"/>
</g>
</mask>
<g mask="url(#mask0_1467_12756)">
<g id="Group">
<path id="Vector_2" d="M16.3681 0.289133C16.1806 0.105435 15.9278 0.00165046 15.6639 0H10.3497C10.0855 0.000230061 9.83226 0.104229 9.64557 0.289133C9.54394 0.376577 9.46101 0.483251 9.40169 0.602875C9.34237 0.722501 9.30785 0.852658 9.30014 0.985684V5.25698H6.36402C6.09985 5.25722 5.84657 5.36121 5.65989 5.54612C5.55825 5.63356 5.47533 5.74023 5.41601 5.85985C5.35669 5.97948 5.32216 6.10964 5.31446 6.24267V12.1699L0.823922 13.1424C0.68382 13.1762 0.552522 13.2389 0.43864 13.3264C0.321756 13.4137 0.226372 13.526 0.159642 13.655C0.0907532 13.7808 0.0499767 13.9197 0.040071 14.0624C0.0389748 14.1979 0.0661104 14.3321 0.119785 14.4567L2.17906 19.6217C2.30683 19.8087 2.49563 19.9466 2.71387 20.0125C2.93212 20.0783 3.1666 20.0681 3.37813 19.9835C3.58965 19.8987 3.76542 19.745 3.87604 19.5476C3.98666 19.3501 4.02544 19.1211 3.9859 18.8988L2.40492 14.8378L11.9573 12.735V19.3851C11.9589 19.6461 12.0639 19.8962 12.2495 20.0817C12.4396 20.26 12.6917 20.3595 12.9537 20.3595C13.2157 20.3595 13.4677 20.26 13.6578 20.0817C13.8435 19.8962 13.9484 19.6461 13.9501 19.3851V12.735L23.5556 14.8378L21.9214 18.8988C21.8703 19.0195 21.8439 19.149 21.8439 19.28C21.8439 19.4108 21.8703 19.5403 21.9214 19.661C21.9747 19.7801 22.0514 19.8873 22.1473 19.9766C22.2427 20.0677 22.3556 20.1393 22.4794 20.1868C22.5966 20.2369 22.7239 20.2594 22.8515 20.2525C23.0512 20.2536 23.2467 20.1953 23.4125 20.0852C23.5784 19.975 23.7069 19.8182 23.7815 19.6349L25.8938 14.4567C25.9436 14.3285 25.9662 14.1915 25.96 14.0542C25.9537 13.917 25.919 13.7825 25.858 13.6592C25.7968 13.5359 25.7106 13.4263 25.6049 13.3374C25.4991 13.2485 25.3758 13.1821 25.2429 13.1424L20.7125 12.1568V6.24267C20.7128 6.10751 20.6849 5.97371 20.6307 5.84965C20.5766 5.72556 20.4972 5.61382 20.3976 5.52137C20.2978 5.42894 20.18 5.35776 20.0513 5.31227C19.9227 5.26678 19.7859 5.24797 19.6496 5.25698H16.6603V0.985684C16.6587 0.724638 16.5537 0.474613 16.3681 0.289133ZM11.3461 1.97137H14.6144V5.25698H11.3461V1.97137ZM18.6532 7.22834V11.7231L13.2858 10.514H12.7145L7.4003 11.7231V7.22834H18.6532Z" fill="#2B298F"/>
<path id="Vector_3" d="M0.703898 24.6414C0.999866 24.7222 1.28198 24.8462 1.54089 25.0095C2.28363 25.4378 3.12577 25.6686 3.98544 25.6797C4.91971 25.685 5.83799 25.4398 6.64257 24.97C7.21538 24.6618 7.8571 24.5002 8.5092 24.5002C9.1613 24.5002 9.80302 24.6618 10.3758 24.97C11.1645 25.4027 12.0514 25.6296 12.9532 25.6296C13.855 25.6296 14.742 25.4027 15.5306 24.97C16.0999 24.6583 16.7399 24.4946 17.3907 24.4946C18.0413 24.4946 18.6814 24.6583 19.2506 24.97C20.026 25.4207 20.9089 25.6582 21.8081 25.6582C22.7073 25.6582 23.5903 25.4207 24.3655 24.97C24.6248 24.8074 24.9068 24.6833 25.2026 24.6021C25.3401 24.5748 25.4711 24.5212 25.5879 24.4443C25.7003 24.3684 25.7954 24.2699 25.8668 24.1553C25.9419 24.0396 25.9916 23.9099 26.013 23.7741C26.0456 23.5707 26.0148 23.3624 25.9246 23.1769C25.8344 22.9915 25.689 22.8375 25.5081 22.7358C25.3893 22.6705 25.2582 22.6302 25.1229 22.6175C24.9869 22.5902 24.8469 22.5902 24.7109 22.6175C24.273 22.7493 23.8536 22.9347 23.4621 23.1695C22.9851 23.4404 22.4446 23.5831 21.8944 23.5831C21.3444 23.5831 20.8038 23.4404 20.3268 23.1695C19.4537 22.6944 18.4734 22.4453 17.477 22.4453C16.4806 22.4453 15.5003 22.6944 14.6272 23.1695C14.1464 23.4365 13.6043 23.577 13.0529 23.577C12.5015 23.577 11.9593 23.4365 11.4785 23.1695C10.6043 22.6979 9.62451 22.4507 8.62876 22.4507C7.63303 22.4507 6.6532 22.6979 5.77901 23.1695C5.31119 23.451 4.77752 23.6073 4.23023 23.6235C3.68294 23.6396 3.1408 23.5149 2.65689 23.2614C2.24125 23.0159 1.79449 22.8258 1.32832 22.6963C1.18798 22.6687 1.04352 22.6687 0.903182 22.6963C0.763316 22.7072 0.627416 22.7475 0.504614 22.8146C0.380857 22.8809 0.27293 22.9727 0.188124 23.0839C0.10332 23.195 0.0436147 23.3227 0.0130456 23.4587C-0.0250485 23.5847 -0.0376164 23.7168 -0.0239371 23.8476C-0.0102577 23.9784 0.0293997 24.1054 0.0927594 24.2209C0.232867 24.4349 0.452332 24.5859 0.703898 24.6414Z" fill="#2B298F"/>
</g>
</g>
</g>
</svg>
