<svg width="206" height="188" viewBox="0 0 206 188" fill="none" xmlns="http://www.w3.org/2000/svg">
<g clip-path="url(#clip0_1218_39012)">
<g filter="url(#filter0_f_1218_39012)">
<path d="M18.1973 113.383L112.036 57.8607L236.959 134.534L144.88 188L18.1973 113.383Z" fill="url(#paint0_linear_1218_39012)"/>
</g>
<path d="M93.4488 145.706L17.3633 101.565L108.738 48.7832L184.931 92.7913L93.4488 145.706Z" fill="#E6EEF9"/>
<path d="M184.933 104.764L184.69 92.9493L93.4473 145.702V157.463L184.933 104.764Z" fill="#CBD7EB"/>
<path d="M17.3651 113.551L17 101.565L93.447 145.702V157.463L17.3651 113.551Z" fill="white"/>
<path d="M108.742 43L88.3594 54.7999L164.384 98.826L184.691 87.0692L108.742 43Z" fill="#E6EEF9"/>
<path d="M184.689 92.9494V87.0692L164.382 98.826L154.332 110.443L184.689 92.9494Z" fill="#CBD7EB"/>
<path d="M70.1875 73.7795L80.1943 67.9855L93.5403 75.7145L83.5514 81.5336L70.1875 73.7795Z" fill="#E6EEF9"/>
<path d="M93.5378 79.5772V75.7145L83.5488 81.5337L83.5273 85.3712L93.5378 79.5772Z" fill="#CBD7EB"/>
<path d="M70.1875 77.6422V73.7795L83.5514 81.5337L83.5299 85.3712L70.1875 77.6422Z" fill="white"/>
<path d="M86.8574 83.4649L96.8643 77.6709L110.207 85.3999L100.221 91.2226L86.8574 83.4649Z" fill="#E6EEF9"/>
<path d="M110.206 89.2626V85.3999L100.221 91.2227L100.199 95.0602L110.206 89.2626Z" fill="#CBD7EB"/>
<path d="M86.8574 87.3314V83.4651L100.221 91.2228L100.2 95.0604L86.8574 87.3314Z" fill="white"/>
<path d="M103.631 93.1145L113.638 87.3204L126.98 95.0458L116.995 100.869L103.631 93.1145Z" fill="#E6EEF9"/>
<path d="M126.985 98.9122V95.0459L117 100.869L116.979 104.706L126.985 98.9122Z" fill="#CBD7EB"/>
<path d="M103.631 96.9771V93.1144L116.995 100.868L116.973 104.706L103.631 96.9771Z" fill="white"/>
<path d="M120.336 102.807L130.339 97.0095L143.685 104.738L133.696 110.561L120.336 102.807Z" fill="#E6EEF9"/>
<path d="M143.687 108.601V104.739L133.698 110.561L133.68 114.399L143.687 108.601Z" fill="#CBD7EB"/>
<path d="M120.336 106.67V102.807L133.696 110.561L133.678 114.399L120.336 106.67Z" fill="white"/>
<path d="M43.3965 89.2949L53.3997 83.5009L66.7458 91.2298L56.7568 97.0526L43.3965 89.2949Z" fill="#E6EEF9"/>
<path d="M66.7451 95.0926V91.2299L56.7562 97.0526L56.7383 100.89L66.7451 95.0926Z" fill="#CBD7EB"/>
<path d="M43.3965 93.1612V89.2949L56.7568 97.0526L56.7389 100.89L43.3965 93.1612Z" fill="white"/>
<path d="M60.0645 98.984L70.0713 93.1899L83.4173 100.915L73.4284 106.738L60.0645 98.984Z" fill="#E6EEF9"/>
<path d="M83.4147 104.782V100.915L73.4258 106.738L73.4043 110.576L83.4147 104.782Z" fill="#CBD7EB"/>
<path d="M60.0645 102.847V98.984L73.4284 106.738L73.4069 110.576L60.0645 102.847Z" fill="white"/>
<path d="M30.166 96.8983L40.1693 91.1042L53.5153 98.8296L43.5264 104.652L30.166 96.8983Z" fill="#E6EEF9"/>
<path d="M53.5127 102.696V98.8295L43.5237 104.652L43.5059 108.49L53.5127 102.696Z" fill="#CBD7EB"/>
<path d="M30.166 100.761V96.8982L43.5264 104.652L43.5085 108.49L30.166 100.761Z" fill="white"/>
<path d="M46.8301 106.584L56.8333 100.79L70.1793 108.519L60.1904 114.338L46.8301 106.584Z" fill="#E6EEF9"/>
<path d="M70.1842 112.381V108.519L60.1953 114.338L60.1738 118.175L70.1842 112.381Z" fill="#CBD7EB"/>
<path d="M46.8301 110.45V106.584L60.1904 114.338L60.1689 118.175L46.8301 110.45Z" fill="white"/>
<path d="M63.6094 116.233L86.8477 102.836L116.89 120.257L93.6728 133.676L63.6094 116.233Z" fill="#5F5DCA"/>
<path d="M63.6016 120.11L63.6087 116.233L93.6722 133.676L93.6507 137.517L63.6016 120.11Z" fill="#2B298F"/>
<path d="M116.889 124.12V120.257L93.6719 133.676L93.6504 137.518L116.889 124.12Z" fill="#201F78"/>
<path d="M56.793 81.4977L66.7998 75.7036L80.1422 83.4326L70.1569 89.2518L56.793 81.4977Z" fill="#E6EEF9"/>
<path d="M80.1396 87.2953V83.4326L70.1543 89.2518L70.1328 93.0894L80.1396 87.2953Z" fill="#CBD7EB"/>
<path d="M56.793 85.364V81.4977L70.1569 89.2518L70.1354 93.0893L56.793 85.364Z" fill="white"/>
<path d="M73.4629 91.1831L83.4697 85.389L96.8122 93.118L86.8268 98.9408L73.4629 91.1831Z" fill="#E6EEF9"/>
<path d="M96.8096 96.9809V93.1182L86.8242 98.9409L86.8027 102.778L96.8096 96.9809Z" fill="#CBD7EB"/>
<path d="M73.4629 95.0494V91.1831L86.8268 98.9408L86.8053 102.778L73.4629 95.0494Z" fill="white"/>
<path d="M90.2402 100.833L100.247 95.0387L113.589 102.768L103.604 108.587L90.2402 100.833Z" fill="#E6EEF9"/>
<path d="M113.587 106.63V102.768L103.602 108.587L103.58 112.424L113.587 106.63Z" fill="#CBD7EB"/>
<path d="M90.2402 104.695V100.833L103.604 108.587L103.583 112.424L90.2402 104.695Z" fill="white"/>
<path d="M106.939 110.525L116.943 104.731L130.289 112.457L120.3 118.279L106.939 110.525Z" fill="#E6EEF9"/>
<path d="M130.29 116.323V112.457L120.301 118.279L120.279 122.117L130.29 116.323Z" fill="#CBD7EB"/>
<path d="M106.939 114.388V110.525L120.3 118.28L120.278 122.117L106.939 114.388Z" fill="white"/>
<path d="M109.32 48.8657L99.166 54.5808L165.159 92.96L175.312 87.0834L109.32 48.8657Z" fill="#CBD7EB"/>
<path d="M154.227 110.561L164.38 98.8009L88.6133 54.6851L78.084 66.4634L154.227 110.561Z" fill="white"/>
</g>
<defs>
<filter id="filter0_f_1218_39012" x="16.1973" y="55.8607" width="222.762" height="134.139" filterUnits="userSpaceOnUse" color-interpolation-filters="sRGB">
<feFlood flood-opacity="0" result="BackgroundImageFix"/>
<feBlend mode="normal" in="SourceGraphic" in2="BackgroundImageFix" result="shape"/>
<feGaussianBlur stdDeviation="1" result="effect1_foregroundBlur_1218_39012"/>
</filter>
<linearGradient id="paint0_linear_1218_39012" x1="58.1906" y1="24.5859" x2="143.36" y2="158.234" gradientUnits="userSpaceOnUse">
<stop offset="0.03" stop-color="#0E3390"/>
<stop offset="1" stop-color="#0E3390" stop-opacity="0"/>
</linearGradient>
<clipPath id="clip0_1218_39012">
<rect width="206" height="188" fill="white"/>
</clipPath>
</defs>
</svg>
