<svg width="60" height="60" viewBox="0 0 60 60" fill="none" xmlns="http://www.w3.org/2000/svg">
<g id="6" clip-path="url(#clip0_1258_20147)">
<g id="&#208;&#161;&#208;&#187;&#208;&#190;&#208;&#185; 2">
<g id="&#208;&#161;&#208;&#187;&#208;&#190;&#208;&#185; 1">
<path id="Vector" d="M59.6622 47.8525C59.1486 45.0708 56.6557 43.0745 53.8284 42.908C53.7345 42.908 49.6537 42.8938 49.473 42.8938C44.3971 42.8938 39.3222 42.8966 34.2482 42.9023C33.864 42.9023 33.6363 42.797 33.44 42.4541C32.8708 41.4581 32.2604 40.4692 31.6429 39.4945C31.5404 39.3323 31.3156 39.1445 31.1449 39.1431C29.1386 39.1189 27.1309 39.1274 25.0535 39.1274C25.0421 39.3764 25.0279 39.5614 25.0279 39.7464C25.0279 42.3218 25.0165 44.8972 25.0421 47.4741C25.0548 47.7809 25.1741 48.0737 25.3794 48.3022C26.7643 49.725 28.1701 51.1313 29.5968 52.521C29.8415 52.7364 30.1532 52.8606 30.479 52.8725C32.3899 52.9038 34.3022 52.8881 36.3754 52.8881L30.6568 59.55C30.9627 59.5657 31.1449 59.5828 31.327 59.5828C34.9824 59.5828 38.6378 59.5913 42.2931 59.5714C42.6464 59.5635 42.9909 59.4592 43.2892 59.2697C45.368 57.918 47.4269 56.5378 49.4929 55.1661C49.648 55.0637 52.6332 53.3577 53.477 52.9009H60.0222C59.897 51.155 59.961 49.4704 59.6622 47.8525ZM46.2872 53.1855C44.9041 54.1094 43.5187 55.0295 42.1309 55.9459C41.9641 56.068 41.7675 56.1432 41.5618 56.1636C40.4477 56.1835 39.3335 56.1735 38.0359 56.1735C39.0077 55.0452 39.8757 54.0321 40.7564 53.029C40.8517 52.9422 40.9762 52.8945 41.105 52.8952C42.9007 52.8867 44.695 52.8952 46.6002 52.8952C46.5018 52.9987 46.3968 53.0957 46.2857 53.1855H46.2872ZM55.8304 49.4789C47.8623 49.4789 39.8899 49.4817 31.9132 49.4874C31.727 49.4989 31.5407 49.4679 31.3681 49.397C31.1956 49.326 31.0414 49.2168 30.9172 49.0776C30.2058 48.3221 29.446 47.6035 28.7174 46.8594C28.5936 46.7327 28.4414 46.5549 28.4329 46.3984C28.4101 45.1348 28.4201 43.8699 28.4201 42.6064C29.1927 42.3901 29.6267 42.6064 29.9582 43.2666C30.3851 44.1203 30.967 44.9114 31.4351 45.7538C31.6642 46.1693 31.9275 46.3229 32.4112 46.3229C39.3421 46.3044 46.2729 46.3229 53.2038 46.3059C54.4701 46.3059 55.4676 46.7598 56.068 47.8853C56.3071 48.3335 56.3882 48.8671 56.5788 49.486L55.8304 49.4789Z" fill="#2B298F"/>
<path id="Vector_2" d="M20.1101 27.9792H3.13086V11H20.1101V27.9792ZM6.2612 24.8489H16.9798V14.1303H6.2612V24.8489Z" fill="#2B298F"/>
<path id="Vector_3" d="M18.3188 17.0032H3.86523V20.1335H18.3188V17.0032Z" fill="#2B298F"/>
<path id="Vector_4" d="M20.1346 30.731H3.27344V33.8613H20.1346V30.731Z" fill="#2B298F"/>
<path id="Vector_5" d="M6.89814 26.4247L4.46875 31.6345L7.3058 32.9575L9.73519 27.7476L6.89814 26.4247Z" fill="#2B298F"/>
<path id="Vector_6" d="M16.3273 26.0882L13.4902 27.4111L15.9196 32.621L18.7567 31.298L16.3273 26.0882Z" fill="#2B298F"/>
<path id="Vector_7" d="M58.2911 30.8022H24.2715V11H47.6394L58.2897 19.395L58.2911 30.8022ZM27.4032 27.6719H55.1608V20.9132L46.5552 14.1303H27.4018L27.4032 27.6719Z" fill="#2B298F"/>
<path id="Vector_8" d="M30.7902 32.2962C32.3053 32.2962 33.5335 31.068 33.5335 29.5529C33.5335 28.0378 32.3053 26.8096 30.7902 26.8096C29.2751 26.8096 28.0469 28.0378 28.0469 29.5529C28.0469 31.068 29.2751 32.2962 30.7902 32.2962Z" fill="white"/>
<path id="Vector_9" d="M30.7904 33.8613C29.9381 33.8616 29.1049 33.6091 28.3962 33.1358C27.6874 32.6625 27.135 31.9896 26.8087 31.2023C26.4824 30.415 26.397 29.5486 26.5632 28.7127C26.7294 27.8768 27.1398 27.1089 27.7424 26.5063C28.345 25.9037 29.1129 25.4933 29.9488 25.3271C30.7847 25.1609 31.6511 25.2463 32.4384 25.5726C33.2257 25.8989 33.8986 26.4513 34.3719 27.1601C34.8452 27.8688 35.0977 28.702 35.0974 29.5543C35.0959 30.6961 34.6417 31.7908 33.8343 32.5982C33.0269 33.4056 31.9322 33.8598 30.7904 33.8613ZM30.7904 28.3761C30.5573 28.3759 30.3294 28.4447 30.1354 28.574C29.9415 28.7033 29.7903 28.8872 29.7009 29.1024C29.6115 29.3177 29.588 29.5546 29.6333 29.7833C29.6786 30.0119 29.7907 30.2219 29.9554 30.3869C30.1201 30.5518 30.33 30.6641 30.5586 30.7097C30.7872 30.7553 31.0241 30.732 31.2395 30.6429C31.4548 30.5538 31.6389 30.4028 31.7684 30.209C31.898 30.0152 31.9671 29.7874 31.9671 29.5543C31.9671 29.2421 31.8432 28.9426 31.6225 28.7217C31.4019 28.5008 31.1026 28.3765 30.7904 28.3761Z" fill="#2B298F"/>
<path id="Vector_10" d="M51.4679 32.4344C52.983 32.4344 54.2112 31.2062 54.2112 29.6911C54.2112 28.176 52.983 26.9478 51.4679 26.9478C49.9528 26.9478 48.7246 28.176 48.7246 29.6911C48.7246 31.2062 49.9528 32.4344 51.4679 32.4344Z" fill="white"/>
<path id="Vector_11" d="M51.4701 33.9981C50.6178 33.9983 49.7846 33.7459 49.0759 33.2725C48.3671 32.7992 47.8147 32.1264 47.4884 31.339C47.1621 30.5517 47.0767 29.6853 47.2429 28.8494C47.4091 28.0135 47.8194 27.2457 48.4221 26.643C49.0247 26.0404 49.7925 25.63 50.6284 25.4638C51.4643 25.2976 52.3308 25.3831 53.1181 25.7093C53.9054 26.0356 54.5783 26.5881 55.0516 27.2968C55.5249 28.0056 55.7774 28.8388 55.7771 29.691C55.7756 30.8328 55.3214 31.9275 54.5139 32.7349C53.7065 33.5423 52.6119 33.9966 51.4701 33.9981ZM51.4701 28.5129C51.2369 28.5126 51.0089 28.5815 50.815 28.7108C50.621 28.8402 50.4698 29.0242 50.3804 29.2395C50.2911 29.4548 50.2676 29.6918 50.3131 29.9205C50.3585 30.1492 50.4707 30.3592 50.6356 30.5241C50.8004 30.6889 51.0105 30.8012 51.2391 30.8466C51.4678 30.892 51.7048 30.8685 51.9202 30.7792C52.1355 30.6899 52.3195 30.5386 52.4488 30.3447C52.5782 30.1507 52.6471 29.9227 52.6468 29.6896C52.6464 29.3776 52.5223 29.0785 52.3017 28.8579C52.0811 28.6373 51.782 28.5132 51.4701 28.5129Z" fill="#2B298F"/>
<path id="Vector_12" d="M47.7085 13.6736H44.5781V28.1272H47.7085V13.6736Z" fill="#2B298F"/>
<path id="Vector_13" d="M56.7245 19.3352H46.1426V22.4655H56.7245V19.3352Z" fill="#2B298F"/>
<path id="Vector_14" d="M23.2171 55.7538C22.6622 55.8961 22.1841 56.3913 21.6818 56.5649C21.0558 56.7812 20.6019 56.7171 19.9843 56.8978L21.9764 50.0111C21.1824 49.7749 20.4454 49.5287 19.6927 49.3438C19.2999 49.247 19.1534 49.0592 19.0979 48.6665C18.7436 46.1679 18.358 43.6722 18.0065 41.1736C17.9582 40.8264 17.8401 40.7268 17.5014 40.7311C16.2464 40.7481 14.9915 40.7382 13.7365 40.7311C13.5572 40.7311 13.3765 40.7154 13.1403 40.7026V36.8608H10.0911V40.7382H9.47923C8.22425 40.7382 6.96927 40.7382 5.71429 40.7382C5.42971 40.7382 5.29881 40.8122 5.2547 41.1238C4.89328 43.6736 4.50484 46.2191 4.14485 48.7689C4.14262 48.9022 4.09368 49.0305 4.00657 49.1314C3.91947 49.2322 3.79971 49.2994 3.66818 49.321C2.87706 49.5401 2.09163 49.7834 1.28344 50.0239L3.14314 56.4425C2.4502 56.8694 1.50398 56.8993 0.660216 56.5748L0 56.3159C0 56.3159 0 59.5373 0 59.6383C0.507968 59.7009 1.01594 59.7806 1.52817 59.8204C2.67082 59.9116 3.81374 59.6477 4.8008 59.0649C5.89357 58.4217 6.95931 58.4488 8.07342 59.0649C10.0356 60.1434 12.0248 60.1278 13.9869 59.045C15.037 58.4658 16.0657 58.426 17.1172 59.0179C19.0509 60.0993 21.0145 60.1292 22.9966 59.1431C23.0575 59.1147 23.1202 59.0905 23.1844 59.0706C23.1951 59.0672 23.2065 59.0672 23.2171 59.0706V55.7538ZM7.92544 44.0435C7.95078 43.9815 7.99129 43.9269 8.04325 43.8846C8.09521 43.8424 8.15696 43.8138 8.22282 43.8016C10.545 43.7931 12.8671 43.8016 15.1949 43.8016C15.2262 43.8016 15.2561 43.8273 15.3201 43.8543L15.9661 48.2112C14.6286 47.817 13.3594 47.43 12.0788 47.0728C11.7914 46.9981 11.4897 46.9981 11.2023 47.0728C9.92174 47.4229 8.64115 47.8127 7.30933 48.2112C7.51423 46.7812 7.70774 45.4109 7.92544 44.0435ZM17.1528 55.6784C16.726 55.6315 16.3332 55.5717 15.9348 55.5447C14.744 55.4628 13.5564 55.7452 12.5299 56.3543C11.5239 56.9363 10.5037 56.9405 9.49061 56.3543C8.53016 55.8036 7.50569 55.4878 6.39158 55.5347C6.107 55.5475 6.02447 55.4095 5.9576 55.1676C5.67302 54.1574 5.37564 53.1528 5.05976 52.0686C6.2934 51.6986 7.48719 51.3386 8.68241 50.9829C9.44366 50.7567 10.2177 50.5646 10.9676 50.3042C11.4132 50.1517 11.8976 50.1557 12.3406 50.3156C14.0851 50.8563 15.8409 51.3586 17.5925 51.8808C17.7832 51.9377 17.971 52.0031 18.1972 52.0771L17.1528 55.6784Z" fill="#2B298F"/>
</g>
</g>
</g>
<defs>
<clipPath id="clip0_1258_20147">
<rect width="60" height="60" fill="white"/>
</clipPath>
</defs>
</svg>
