<svg width="60" height="60" viewBox="0 0 60 60" fill="none" xmlns="http://www.w3.org/2000/svg">
<g id="6" clip-path="url(#clip0_1258_20159)">
<g id="&#208;&#161;&#208;&#187;&#208;&#190;&#208;&#185; 2">
<g id="&#208;&#161;&#208;&#187;&#208;&#190;&#208;&#185; 1">
<path id="Vector" d="M60.0016 39.2094V41.7875C59.9281 42.225 59.8453 42.6625 59.7812 43.1C58.7922 49.3172 53.9766 54.5062 47.8766 55.9484C41.5359 57.4406 34.9813 55.0219 31.2734 49.8016C31.1666 49.6232 31.0122 49.478 30.8276 49.3823C30.6431 49.2866 30.4355 49.244 30.2281 49.2594C22.1437 49.2771 14.0594 49.2812 5.975 49.2719C3.98281 49.2719 1.99219 49.2812 0 49.2859V6.98281H8.8375V4H12.3453V6.9375H19.4469V4.01406H22.9703V6.94375H30.0375V4H33.5297V6.95625H40.6031V4H44.1094V7.00938H52.9531C52.9531 7.32188 52.9531 7.55313 52.9531 7.79063C52.9531 14.0792 52.9495 20.3682 52.9422 26.6578C52.9251 26.865 52.965 27.0729 53.0576 27.2591C53.1501 27.4452 53.2917 27.6026 53.4672 27.7141C56.3656 29.8375 58.3531 32.6234 59.35 36.0797C59.6422 37.0969 59.7875 38.1625 60.0016 39.2094ZM3.56719 19.9516V45.7094H29.0641C27.2719 39.4766 28.3484 33.8922 32.9484 29.3031C37.5484 24.7141 43.1797 23.6672 49.4047 25.4812V19.9516H3.56719ZM44.1359 28.1656C40.8668 28.1619 37.7293 29.4533 35.41 31.7573C33.0908 34.0613 31.7787 37.1903 31.7609 40.4594C31.7391 47.3031 37.3188 52.9047 44.1391 52.8891C47.4176 52.8891 50.5618 51.5867 52.8801 49.2684C55.1984 46.9501 56.5008 43.8059 56.5008 40.5273C56.5008 37.2488 55.1984 34.1046 52.8801 31.7863C50.5618 29.468 47.4176 28.1656 44.1391 28.1656H44.1359ZM40.6 10.55H33.4844V13.4844H29.9937V10.5375H22.9281V13.4891H19.4266V10.5484H12.3031V13.4797H8.80156V10.5422H3.55469V16.3578H49.3984V10.5328H44.1063V13.4906H40.6V10.55Z" fill="#2B298F"/>
<path id="Vector_2" d="M42.4129 31.6125H45.8832V38.7516H53.0332V42.2235H42.4082L42.4129 31.6125Z" fill="#2B298F"/>
</g>
</g>
</g>
<defs>
<clipPath id="clip0_1258_20159">
<rect width="60" height="60" fill="white"/>
</clipPath>
</defs>
</svg>
