<svg width="206" height="188" viewBox="0 0 206 188" fill="none" xmlns="http://www.w3.org/2000/svg">
<g clip-path="url(#clip0_1218_38688)">
<g filter="url(#filter0_f_1218_38688)">
<path d="M1 104.408L103.249 45L196 101.452L95.5125 160L1 104.408Z" fill="url(#paint0_linear_1218_38688)"/>
</g>
<path d="M0 104.542L75.3313 148.496L176.613 89.8459L100.476 45.7535L0 104.542Z" fill="white"/>
<path d="M98.4043 57.752L102.409 55.4347L158.511 87.9207L154.44 90.1865L98.4043 57.752Z" fill="white"/>
<path d="M90.4004 62.3747L94.4088 60.0535L130.469 80.937L126.457 83.2544L90.4004 62.3747Z" fill="white"/>
<path d="M74.4863 71.7075L78.4948 69.3901L134.593 101.876L130.522 104.142L74.4863 71.7075Z" fill="white"/>
<path d="M66.4805 76.3302L70.4889 74.0089L106.549 94.8925L102.537 97.2098L66.4805 76.3302Z" fill="white"/>
<path d="M50.3281 85.6313L54.3366 83.314L110.439 115.8L106.367 118.066L50.3281 85.6313Z" fill="white"/>
<path d="M42.3164 90.2539L46.3249 87.9326L82.3851 108.816L78.3727 111.134L42.3164 90.2539Z" fill="white"/>
<path d="M26.4062 99.5548L30.4147 97.2335L86.5173 129.723L82.4456 131.989L26.4062 99.5548Z" fill="white"/>
<path d="M18.3984 104.178L22.4069 101.856L58.4672 122.74L54.4548 125.057L18.3984 104.178Z" fill="white"/>
<path d="M176.613 90.967V89.8459L76.4375 147.858L76.4336 148.983L176.613 90.967Z" fill="#D1DCEE"/>
<path d="M0.296875 104.891V103.77L76.4377 147.858L76.4338 148.983L0.296875 104.891Z" fill="#E2EBF7"/>
<path d="M0.394531 99.7886L75.7258 143.742L177.007 85.0924L100.87 41L0.394531 99.7886Z" fill="white"/>
<path d="M98.7988 52.9986L102.803 50.6813L158.906 83.1673L154.834 85.4331L98.7988 52.9986Z" fill="#D1DCEE"/>
<path d="M90.7949 57.6212L94.8034 55.2999L130.864 76.1835L126.851 78.5008L90.7949 57.6212Z" fill="#D1DCEE"/>
<path d="M74.8809 66.954L78.8893 64.6367L134.988 97.1227L130.916 99.3885L74.8809 66.954Z" fill="#D1DCEE"/>
<path d="M66.875 71.5768L70.8835 69.2555L106.944 90.1391L102.931 92.4564L66.875 71.5768Z" fill="#D1DCEE"/>
<path d="M50.7227 80.8777L54.7311 78.5604L110.834 111.046L106.762 113.312L50.7227 80.8777Z" fill="#D1DCEE"/>
<path d="M42.7109 85.5004L46.7194 83.1791L82.7797 104.063L78.7673 106.38L42.7109 85.5004Z" fill="#D1DCEE"/>
<path d="M26.8008 94.8014L30.8092 92.4801L86.9118 124.97L82.8401 127.236L26.8008 94.8014Z" fill="#D1DCEE"/>
<path d="M18.793 99.4242L22.8014 97.1029L58.8617 117.986L54.8493 120.304L18.793 99.4242Z" fill="#D1DCEE"/>
<path d="M177.004 86.2134V85.0924L76.8282 143.105L76.8242 144.23L177.004 86.2134Z" fill="#D1DCEE"/>
<path d="M0.691406 100.137V99.0161L76.8323 143.105L76.8283 144.23L0.691406 100.137Z" fill="#E2EBF7"/>
<g filter="url(#filter1_f_1218_38688)">
<path d="M91.9 96C92.1 92.2 89.6 88.4 84.6 85.5C74.9 79.9 59.3 79.9 49.6 85.5C44.8 88.3 42.4 91.9 42.4 95.6V102.2C42.4 104 43 105.8 44.2 107.5L41.2 109.2C40.7 109.5 40.4 110 40.3 110.8L14.7 125.7C14.3 126 14 126.5 14 127.3C14 128.8 15 130.6 16.4 131.4C17.1 131.8 17.8 131.8 18.2 131.4C18.1 131.4 18.1 131.5 18 131.5L43.5 116.7C44.5 117.2 45.3 117.2 45.9 116.7C45.8 116.8 45.8 116.8 45.7 116.9L51.7 113.5C51.7 113.5 51.8 113.5 51.8 113.4C61.5 117.9 75.8 117.6 84.8 112.4C89.6 109.6 92 106 92 102.3V95.7C92 95.8 91.9 95.9 91.9 96ZM50.8 96.1C50.8 96.5 50.8 96.8 50.8 97.2C50.8 97.1 50.8 97 50.8 96.8C50.8 96.6 50.8 96.4 50.8 96.1ZM52.5 100C52.4 99.9 52.3 99.7001 52.2 99.6C52.1 99.4 51.9 99.3001 51.8 99.1C51.7 99 51.6 98.8001 51.6 98.7001C51.6 98.7001 51.6 98.7001 51.6 98.6C51.8 99.1 52.1 99.6 52.5 100C52.5 100.1 52.5 100.1 52.5 100ZM55.5 88.5C57.2 87.5 59.1 86.8 61.1 86.3C59 86.8 57.1 87.5 55.5 88.5ZM83.6 98.8C83.5 98.9 83.5 99.1 83.4 99.2001C83.3 99.3001 83.3 99.3 83.2 99.4C83.3 99.2 83.4 99 83.6 98.8Z" fill="url(#paint1_linear_1218_38688)"/>
</g>
<path fill-rule="evenodd" clip-rule="evenodd" d="M78.6008 86.1C81.1008 87.6 82.7008 89.3 83.3008 91.2C83.5008 91.9 83.6008 92.5 83.6008 93.1V99.7001C83.6008 99.1 83.5008 98.4 83.3008 97.8C82.7008 95.9 81.1008 94.1 78.6008 92.7C71.9008 88.8 61.1008 88.8 54.5008 92.7C53.6396 93.0828 52.9616 93.6486 52.379 94.1348C52.3528 94.1567 52.3267 94.1785 52.3008 94.2V94.1024C52.3003 94.1685 52.3 94.2344 52.3 94.3L52.2 94.4L52.2 94.4C51.6 95 51.1 95.5 50.7 96.1C50.4 96.6 50.1 97.1 49.9 97.6C49.9 97.65 49.875 97.7 49.85 97.75C49.825 97.8 49.8 97.85 49.8 97.9C49.6 98.5 49.5 99.1 49.5 99.7V93.1C49.5 92.5 49.6 91.9 49.8 91.3C49.8 91.25 49.825 91.2 49.85 91.15C49.875 91.1 49.9 91.05 49.9 91C50.1 90.5 50.4 90 50.7 89.5C51.0571 88.9643 51.733 88.1896 52.3008 87.6738V87.6C52.9008 87.1 53.7008 86.6 54.5008 86.1C61.1008 82.2 71.9008 82.2 78.6008 86.1Z" fill="url(#paint2_linear_1218_38688)"/>
<path d="M83.6 93.2V99.8C83.6 102.3 81.9 104.8 78.6 106.7C72 110.6 61.2 110.6 54.5 106.7C51.1 104.8 49.5 102.2 49.5 99.7V93.1C49.5 95.6 51.2 98.2 54.5 100.1C61.2 104 72 104 78.6 100.1C81.9 98.2 83.6 95.7 83.6 93.2Z" fill="#B4C5E1"/>
<path d="M91 93.4V100C91 103.6 88.6 107.3 83.8 110.1C74.2 115.7 58.5 115.7 48.8 110.1C43.9 107.3 41.5 103.6 41.5 99.9V93.3C41.5 97 43.9 100.7 48.8 103.5C58.5 109.1 74.1 109.1 83.8 103.5C88.6 100.7 90.9 97 91 93.4Z" fill="url(#paint3_linear_1218_38688)"/>
<path d="M83.6993 83.2C93.3993 88.8 93.3993 97.9 83.7993 103.5C74.1993 109.1 58.4993 109.1 48.7993 103.5C39.0993 97.9 39.0993 88.8 48.6993 83.2C58.2993 77.6 73.9993 77.6 83.6993 83.2ZM54.4993 100.1C61.1993 104 71.9993 104 78.5993 100.1C85.1993 96.2 85.1993 90 78.4993 86.1C71.7993 82.2 60.9993 82.2 54.3993 86.1C47.7993 90 47.8993 96.3 54.4993 100.1Z" fill="#5F5DCA"/>
<path opacity="0.68" d="M54.7 86.7C48.1 90.5 48.1 96.6 54.7 100.3C61.3 104.1 71.9 104.1 78.5 100.3C85.1 96.5 85.1 90.4 78.5 86.7C71.9 82.9 61.3 82.9 54.7 86.7Z" fill="white"/>
<path d="M42.5008 107.1C44.2008 108.1 45.6008 110.5 45.6008 112.5C45.6008 114.5 44.2008 115.3 42.4008 114.3C40.7008 113.3 39.3008 110.9 39.3008 108.9C39.3008 106.9 40.7008 106.1 42.5008 107.1Z" fill="#7C7AF3"/>
<path d="M50.7 111.1L44.7 114.5C45.3 114.2 45.6 113.5 45.6 112.5C45.6 110.5 44.2 108.1 42.5 107.1L48.5 103.7C50.2 104.7 51.6 107.1 51.6 109.1C51.6 110.1 51.2 110.8 50.7 111.1Z" fill="#5F5DCA"/>
<path d="M40.3008 106.9L46.3008 103.5C46.9008 103.2 47.7008 103.2 48.5008 103.7L42.5008 107.1C41.7008 106.6 40.9008 106.6 40.3008 106.9Z" fill="#5F5DCA"/>
<path d="M13.6992 123.4L39.8992 108.2C40.2992 108 40.8992 108 41.5992 108.4L15.3992 123.6C14.6992 123.2 14.0992 123.2 13.6992 123.4Z" fill="#5F5DCA"/>
<path d="M15.4 123.6C16.7 124.4 17.8 126.2 17.8 127.7C17.8 129.2 16.7 129.8 15.4 129C14 128.2 13 126.4 13 124.9C13 123.4 14.1 122.8 15.4 123.6Z" fill="#7C7AF3"/>
<path d="M43.3008 113.9L17.0008 129.2C17.4008 129 17.7008 128.4 17.7008 127.7C17.7008 126.2 16.7008 124.4 15.3008 123.6L41.5008 108.4C42.8008 109.2 43.9008 111 43.9008 112.5C44.0008 113.1 43.7008 113.7 43.3008 113.9Z" fill="#5F5DCA"/>
</g>
<defs>
<filter id="filter0_f_1218_38688" x="-1" y="43" width="199" height="119" filterUnits="userSpaceOnUse" color-interpolation-filters="sRGB">
<feFlood flood-opacity="0" result="BackgroundImageFix"/>
<feBlend mode="normal" in="SourceGraphic" in2="BackgroundImageFix" result="shape"/>
<feGaussianBlur stdDeviation="1" result="effect1_foregroundBlur_1218_38688"/>
</filter>
<filter id="filter1_f_1218_38688" x="12" y="79.3" width="82" height="54.4" filterUnits="userSpaceOnUse" color-interpolation-filters="sRGB">
<feFlood flood-opacity="0" result="BackgroundImageFix"/>
<feBlend mode="normal" in="SourceGraphic" in2="BackgroundImageFix" result="shape"/>
<feGaussianBlur stdDeviation="1" result="effect1_foregroundBlur_1218_38688"/>
</filter>
<linearGradient id="paint0_linear_1218_38688" x1="18.9248" y1="-4.59715" x2="106.491" y2="149.579" gradientUnits="userSpaceOnUse">
<stop offset="0.03" stop-color="#0E3390"/>
<stop offset="1" stop-color="#0E3390" stop-opacity="0"/>
</linearGradient>
<linearGradient id="paint1_linear_1218_38688" x1="-26.5" y1="-25.5" x2="63" y2="137.5" gradientUnits="userSpaceOnUse">
<stop stop-color="#0E3390"/>
<stop offset="1" stop-color="#0E3390" stop-opacity="0"/>
</linearGradient>
<linearGradient id="paint2_linear_1218_38688" x1="67.9508" y1="83.175" x2="67.9508" y2="99.7001" gradientUnits="userSpaceOnUse">
<stop stop-color="#5F5DCA"/>
<stop offset="1" stop-color="#201F78"/>
</linearGradient>
<linearGradient id="paint3_linear_1218_38688" x1="94.5" y1="102" x2="37.5" y2="104" gradientUnits="userSpaceOnUse">
<stop stop-color="#5F5DCA"/>
<stop offset="1" stop-color="#201F78"/>
</linearGradient>
<clipPath id="clip0_1218_38688">
<rect width="206" height="188" fill="white"/>
</clipPath>
</defs>
</svg>
