<svg width="206" height="188" viewBox="0 0 206 188" fill="none" xmlns="http://www.w3.org/2000/svg">
<g clip-path="url(#clip0_1212_37583)">
<g filter="url(#filter0_f_1212_37583)">
<path d="M6.66016 108.404L114.122 45.8466L243.5 125.558L138.361 187.535L6.66016 108.404Z" fill="url(#paint0_linear_1212_37583)"/>
</g>
<path d="M88.8903 153.37L5 104.773L113.359 42L197.25 90.5967L88.8903 153.37Z" fill="#E2EBF7"/>
<path d="M11.9902 104.773L88.8891 149.322L190.257 90.5968L113.358 46.0504L11.9902 104.773Z" fill="white"/>
<path d="M116.854 68.3395L120.348 66.3143L169.286 94.6643L165.735 96.64L116.854 68.3395Z" fill="#D1DCEE"/>
<path d="M109.871 72.3727L113.366 70.3475L144.821 88.5716L141.322 90.5943L109.871 72.3727Z" fill="#D1DCEE"/>
<path d="M106.394 56.4606L116.813 62.5534L106.394 68.6438L95.8809 62.5534L106.394 56.4606Z" fill="#5F5DCA"/>
<path d="M95.8809 64.2843V62.5533L106.394 68.6437V70.3746L95.8809 64.2843Z" fill="#2B298F"/>
<path d="M116.814 64.2843V62.5533L106.395 68.6437V70.3746L116.814 64.2843Z" fill="#201F78"/>
<path d="M103.992 59.7073L105.338 60.4862V63.6191L103.992 63.8194V59.7073Z" fill="white"/>
<path d="M110.715 62.0441L112.058 62.8205L105.338 63.6192L103.992 62.8403L110.715 62.0441Z" fill="white"/>
<path d="M95.9902 80.5178L99.4872 78.4927L148.423 106.84L144.871 108.818L95.9902 80.5178Z" fill="#D1DCEE"/>
<path d="M89.0078 84.5508L92.5023 82.5256L123.958 100.747L120.458 102.77L89.0078 84.5508Z" fill="#D1DCEE"/>
<path d="M85.455 68.6436L95.872 74.7339L85.455 80.8267L74.9395 74.7339L85.455 68.6436Z" fill="#5F5DCA"/>
<path d="M74.9395 76.4675V74.7341L85.455 80.827V82.5579L74.9395 76.4675Z" fill="#2B298F"/>
<path d="M95.876 76.4675V74.7341L85.459 80.827V82.5579L95.876 76.4675Z" fill="#201F78"/>
<path d="M83.0508 71.8878L84.3963 72.6667V75.7997L83.0508 76.0025V71.8878Z" fill="white"/>
<path d="M89.7736 74.2247L91.1167 75.0036L84.3963 75.7999L83.0508 75.021L89.7736 74.2247Z" fill="white"/>
<path d="M74.9141 92.6664L78.4086 90.6412L127.346 118.991L123.795 120.967L74.9141 92.6664Z" fill="#D1DCEE"/>
<path d="M67.9316 96.6994L71.4261 94.6742L102.882 112.896L99.3822 114.918L67.9316 96.6994Z" fill="#D1DCEE"/>
<path d="M64.4804 80.8269L74.8974 86.9173L64.4804 93.0076L53.9648 86.9173L64.4804 80.8269Z" fill="#5F5DCA"/>
<path d="M53.9648 88.6483V86.9174L64.4804 93.0077V94.7411L53.9648 88.6483Z" fill="#2B298F"/>
<path d="M74.8955 88.6483V86.9174L64.4785 93.0077V94.7411L74.8955 88.6483Z" fill="#201F78"/>
<path d="M62.0742 84.0712L63.4173 84.8501V87.983L62.0742 88.1858V84.0712Z" fill="white"/>
<path d="M68.7946 86.4078L70.1402 87.1867L63.4173 87.983L62.0742 87.2041L68.7946 86.4078Z" fill="white"/>
<path d="M54.0469 104.817L57.5438 102.792L106.479 131.14L102.928 133.115L54.0469 104.817Z" fill="#D1DCEE"/>
<path d="M47.0684 108.85L50.5629 106.825L82.0184 125.047L78.5189 127.07L47.0684 108.85Z" fill="#D1DCEE"/>
<path d="M43.6127 93.0076L54.0297 99.1004L43.6127 105.191L33.0996 99.1004L43.6127 93.0076Z" fill="#5F5DCA"/>
<path d="M33.0996 100.831V99.1003L43.6127 105.191V106.924L33.0996 100.831Z" fill="#2B298F"/>
<path d="M54.0322 100.831V99.1003L43.6152 105.191V106.924L54.0322 100.831Z" fill="#201F78"/>
<path d="M41.207 96.2544L42.5501 97.0333V100.166L41.207 100.367V96.2544Z" fill="white"/>
<path d="M47.9274 98.5911L49.273 99.37L42.5501 100.166L41.207 99.3873L47.9274 98.5911Z" fill="white"/>
<path d="M197.25 94.6469V90.5966L88.8906 153.369V157.42L197.25 94.6469Z" fill="#D1DCEE"/>
<path d="M5 108.823V104.773L88.8903 153.37V158.048L5 108.823Z" fill="white"/>
<path d="M162.301 82.5158V78.4654L127.346 58.2162V62.2665L162.301 82.5158Z" fill="#E2EBF7"/>
<path d="M141.326 50.1155L127.346 58.2162L162.301 78.4654L176.281 70.3647L141.326 50.1155Z" fill="white"/>
<path d="M176.283 74.4151V70.3647L162.303 78.4654V82.5158L176.283 74.4151Z" fill="#D1DCEE"/>
</g>
<defs>
<filter id="filter0_f_1212_37583" x="4.66016" y="43.8466" width="240.84" height="145.688" filterUnits="userSpaceOnUse" color-interpolation-filters="sRGB">
<feFlood flood-opacity="0" result="BackgroundImageFix"/>
<feBlend mode="normal" in="SourceGraphic" in2="BackgroundImageFix" result="shape"/>
<feGaussianBlur stdDeviation="1" result="effect1_foregroundBlur_1212_37583"/>
</filter>
<linearGradient id="paint0_linear_1212_37583" x1="35.9885" y1="35.913" x2="108.197" y2="166.11" gradientUnits="userSpaceOnUse">
<stop offset="0.03" stop-color="#0E3390"/>
<stop offset="1" stop-color="#0E3390" stop-opacity="0"/>
</linearGradient>
<clipPath id="clip0_1212_37583">
<rect width="206" height="188" fill="white"/>
</clipPath>
</defs>
</svg>
