<svg width="26" height="27" viewBox="0 0 26 27" fill="none" xmlns="http://www.w3.org/2000/svg">
<path d="M7.71523 20.5342L6.52956 18.4H18.4704L17.2848 20.5342C17.0908 20.8834 16.7227 21.1 16.3232 21.1H8.67681C8.27732 21.1 7.90924 20.8834 7.71523 20.5342Z" stroke="#2B298F" stroke-width="1.8"/>
<path d="M4 5L6.23552 1.84397C6.61048 1.31462 7.21888 1 7.86757 1H17.1324C17.7811 1 18.3895 1.31462 18.7645 1.84397L21 5" stroke="#2B298F" stroke-width="1.8"/>
<path d="M3.9 5C3.9 4.94477 3.94477 4.9 4 4.9H21C21.0552 4.9 21.1 4.94477 21.1 5V18C21.1 18.0552 21.0552 18.1 21 18.1H4C3.94477 18.1 3.9 18.0552 3.9 18V5Z" stroke="#2B298F" stroke-width="1.8"/>
<path d="M4 11L21 11" stroke="#2B298F" stroke-width="1.8"/>
<path d="M7 15L8 15" stroke="#2B298F" stroke-width="1.8" stroke-linecap="round"/>
<path d="M17 15L18 15" stroke="#2B298F" stroke-width="1.8" stroke-linecap="round"/>
<path d="M7.5 21L5 25" stroke="#2B298F" stroke-width="1.8" stroke-linecap="round"/>
<path d="M17.5 21L20 25.5" stroke="#2B298F" stroke-width="1.8" stroke-linecap="round"/>
</svg>
