<svg width="60" height="60" viewBox="0 0 60 60" fill="none" xmlns="http://www.w3.org/2000/svg">
<g id="container 1" clip-path="url(#clip0_792_16423)">
<g id="&#208;&#161;&#208;&#187;&#208;&#190;&#208;&#185; 2">
<g id="&#208;&#161;&#208;&#187;&#208;&#190;&#208;&#185; 1">
<path id="Vector" d="M60 24.6094V60H0V24.6094C2.64582 24.6094 5.24472 24.6094 7.84363 24.6094C8.13289 24.6139 8.41959 24.5547 8.68335 24.4359C14.3127 21.6516 19.9421 18.8583 25.5715 16.0562C25.717 15.9844 25.853 15.8906 26.0156 15.7938C25.1759 14.7578 24.7177 13.6469 24.7068 12.3359H28.1736C28.43 13.5562 29.2275 14.2109 30.2205 14.0344C31.2134 13.8578 31.7967 13.1422 31.7295 12.1906C31.6622 11.2391 30.9148 10.5688 29.9202 10.5484C29.362 10.5375 28.8038 10.5484 28.2002 10.5484V3.51719H24.699V0H35.2541V3.52969H31.7357C31.7357 4.68125 31.7482 5.78906 31.7357 6.89687C31.7357 7.20937 31.8327 7.36562 32.1282 7.50156C33.8249 8.28281 34.8554 9.60625 35.1806 11.4531C35.4652 13.075 34.9836 14.4969 33.9609 15.7922C34.1173 15.8813 34.2361 15.9688 34.3722 16.0359C40.0162 18.8411 45.6617 21.6432 51.3088 24.4422C51.5548 24.5509 51.8218 24.6042 52.0907 24.5984C54.7303 24.6141 57.3604 24.6094 60 24.6094ZM56.4503 28.1672H3.51837V56.4484H56.4503V28.1672ZM43.6044 24.5859C43.3651 24.4516 43.2697 24.3938 43.1712 24.3438C38.8971 22.2156 34.6177 20.0927 30.3331 17.975C30.2048 17.9297 30.0689 17.9102 29.9331 17.9177C29.7973 17.9252 29.6643 17.9596 29.5418 18.0187C25.3239 20.0917 21.1118 22.175 16.9054 24.2688C16.7584 24.3422 16.6192 24.425 16.3487 24.5813L43.6044 24.5859Z" fill="#2B298F"/>
<path id="Vector_2" d="M10.4773 52.9421H7.03711V31.6765H10.4773V52.9421Z" fill="#2B298F"/>
<path id="Vector_3" d="M17.7031 31.6656H21.1433V52.9407H17.7031V31.6656Z" fill="#2B298F"/>
<path id="Vector_4" d="M31.6931 52.9421H28.2529V31.6687H31.6931V52.9421Z" fill="#2B298F"/>
<path id="Vector_5" d="M38.8135 31.6656H42.2537V52.9407H38.8135V31.6656Z" fill="#2B298F"/>
<path id="Vector_6" d="M49.4844 31.6687H52.9324V52.9187H49.4844V31.6687Z" fill="#2B298F"/>
</g>
</g>
</g>
<defs>
<clipPath id="clip0_792_16423">
<rect width="60" height="60" fill="white"/>
</clipPath>
</defs>
</svg>
