<svg width="60" height="60" viewBox="0 0 60 60" fill="none" xmlns="http://www.w3.org/2000/svg">
<g id="train&#208;&#160;&#208;&#181;&#209;&#129;&#209;&#131;&#209;&#128;&#209;&#129; 4 3" clip-path="url(#clip0_792_16462)">
<path id="Subtract" fill-rule="evenodd" clip-rule="evenodd" d="M59.5313 59.5201C59.6915 59.4995 59.8489 59.4602 60 59.4029C59.8646 59.302 59.7369 59.1912 59.618 59.0713C55.8102 54.6478 51.9984 50.2232 48.1828 45.7974L48.1662 45.7761C48.1284 45.7275 48.0875 45.6748 48.0283 45.6001H43.3403C43.3611 45.6149 43.3797 45.631 43.3957 45.6486C44.1271 46.468 44.8424 47.3013 45.5959 48.1791C45.8166 48.4362 46.0405 48.6972 46.2691 48.9627L13.7402 48.9568C13.894 48.777 14.033 48.6118 14.1652 48.4544C14.3011 48.2929 14.4299 48.1397 14.5605 47.9877C14.6964 47.8292 14.8319 47.6703 14.9674 47.5113C15.4652 46.9272 15.9634 46.3427 16.4848 45.7799C16.5547 45.7085 16.6338 45.6482 16.7195 45.6001H11.971C11.8195 45.7781 11.676 45.9471 11.5376 46.1102C11.2741 46.4208 11.0289 46.7098 10.7812 46.9974C7.34375 50.9951 3.90313 54.9904 0.459375 58.9834C0.315018 59.1325 0.161602 59.2726 0 59.4029C0.171129 59.4606 0.347905 59.4998 0.527344 59.5201H52.1484C54.6094 59.5271 57.0703 59.5271 59.5313 59.5201ZM51.5441 55.0938C51.7954 55.3836 52.0514 55.6788 52.3125 55.9822L7.69102 55.9834C7.8908 55.7505 8.09185 55.5293 8.28866 55.3127C8.71871 54.8395 9.12851 54.3886 9.46055 53.8869C10.2164 52.7443 11.1844 52.449 12.5402 52.456C23.4486 52.508 34.357 52.4956 45.2653 52.4833C46.405 52.482 47.5447 52.4807 48.6844 52.4795C48.8834 52.4665 49.0826 52.5033 49.2639 52.5866C49.4451 52.6699 49.6028 52.797 49.7227 52.9564C50.3073 53.6677 50.9111 54.364 51.5441 55.0938Z" fill="#2B298F"/>
<g id="Group 330">
<g id="Mask group">
<mask id="mask0_792_16462" style="mask-type:alpha" maskUnits="userSpaceOnUse" x="9" y="3" width="43" height="47">
<path id="Rectangle 317" d="M10.801 15.4447L16.0877 5.39998H43.9143L49.201 15.4447V26.4V47.4H10.801V26.4V15.4447Z" fill="#D9D9D9" stroke="white" stroke-width="3.6"/>
</mask>
<g mask="url(#mask0_792_16462)">
<path id="Rectangle 314" d="M63.001 34.8L39.001 21.6H21.001L-2.99902 34.8" stroke="#2B298F" stroke-width="3.6"/>
</g>
</g>
<path id="Subtract_2" d="M27.601 3.59998H15.001L9.00098 15V45.6H51.001V15L45.001 3.59998H32.401V7.19998H42.8275L47.401 15.8895V42H12.601V15.8895L17.1744 7.19998H27.601V3.59998Z" fill="#2B298F"/>
<line id="Line 120" x1="50.4014" y1="31.8" x2="36.0014" y2="31.8" stroke="#2B298F" stroke-width="3.6"/>
<path id="Line 124" d="M30.001 37.2001L30.001 22.8001" stroke="#2B298F" stroke-width="3.6"/>
<path id="Line 125" d="M26.4014 18L26.4014 8.4" stroke="#2B298F" stroke-width="3.6"/>
<path id="Line 128" d="M33.6006 18L33.6006 8.4" stroke="#2B298F" stroke-width="3.6"/>
<path id="Line 126" d="M13.2012 10.2001L25.2012 10.2001" stroke="#2B298F" stroke-width="3.6"/>
<path id="Line 129" d="M33.6006 10.2001L45.6006 10.2001" stroke="#2B298F" stroke-width="3.6"/>
<path id="Line 127" d="M12.001 16.2001L26.401 16.2001" stroke="#2B298F" stroke-width="3.6"/>
<path id="Line 130" d="M32.4014 16.2001L49.2014 16.2001" stroke="#2B298F" stroke-width="3.6"/>
<line id="Line 122" x1="24.001" y1="31.8" x2="9.60098" y2="31.8" stroke="#2B298F" stroke-width="3.6"/>
<line id="Line 121" x1="50.4014" y1="37.8" x2="36.0014" y2="37.8" stroke="#2B298F" stroke-width="3.6"/>
<line id="Line 123" x1="24.001" y1="37.8" x2="9.60098" y2="37.8" stroke="#2B298F" stroke-width="3.6"/>
<path id="Ellipse 19" d="M25.8012 6.60002C25.8012 4.28043 27.6816 2.40002 30.0012 2.40002C32.3208 2.40002 34.2012 4.28043 34.2012 6.60002" stroke="#2B298F" stroke-width="3.6"/>
</g>
</g>
<defs>
<clipPath id="clip0_792_16462">
<rect width="60" height="60" fill="white"/>
</clipPath>
</defs>
</svg>
