<svg width="60" height="60" viewBox="0 0 60 60" fill="none" xmlns="http://www.w3.org/2000/svg">
<g id="delivery-truck-_4_ 1" clip-path="url(#clip0_1624_21564)">
<g id="Group">
<path id="Vector" d="M17.2383 2.92969C15.4922 3.39844 14.2148 4.17188 12.9023 5.57812C11.6016 6.97266 10.8516 8.67188 10.6055 10.8047L10.5352 11.4844H5.26172H0V30.8789V50.2734H3.51562C6.97266 50.2734 7.03125 50.2734 7.03125 50.5078C7.03125 51.0117 7.40625 52.5469 7.67578 53.1562L7.95703 53.7891H3.97266H0V55.5469V57.3047H30H60V55.5469V53.7891H56.9062H53.8125L54.1523 52.9688C54.3398 52.5234 54.5508 51.7383 54.6328 51.2109L54.7617 50.2734H57.3867H60V41.1445V32.0273L56.0039 27.0234L52.0078 22.0312H45.3984H38.7891V16.7578V11.4844H33.5273H28.2773L28.1953 10.6875C28.0078 8.89453 27.3867 7.35938 26.2617 5.94141C25.0781 4.45312 23.2266 3.30469 21.3633 2.88281C20.2031 2.625 18.3398 2.64844 17.2383 2.92969ZM20.9648 6.43359C22.8633 7.01953 24.2695 8.64844 24.6328 10.6641C24.8438 11.8945 24.375 13.3594 23.0273 15.6445C21.75 17.8359 19.4766 21.0586 19.3359 20.8945C19.2891 20.8477 18.9023 20.3203 18.4922 19.7461C16.5586 17.0859 14.918 14.2734 14.4141 12.7734C13.9102 11.3086 14.1914 9.66797 15.1641 8.34375C15.8672 7.39453 16.7812 6.76172 17.9883 6.375C18.7031 6.15234 20.1445 6.17578 20.9648 6.43359ZM12.2109 16.4297C13.3828 18.7031 15.4922 21.75 18.1875 25.0781C18.7852 25.8164 19.3477 26.4258 19.418 26.4258C19.6055 26.4258 22.3477 22.9922 23.8125 20.918C25.0312 19.207 26.3086 17.1445 26.9648 15.7852L27.3516 15H31.3125H35.2734V23.8477V32.6953H19.3945H3.51562V23.8477V15H7.48828H11.4727L12.2109 16.4297ZM42.3281 29.9648L42.3633 34.3945L49.4297 34.4297L56.4844 34.4531V36.2109V37.9688H54.7266H52.9688V39.7266V41.4844H54.7266H56.4844V44.1211V46.7578H55.1133H53.7305L53.4023 46.2305C53.2148 45.9375 52.7461 45.4219 52.3711 45.0703C49.7695 42.7148 45.832 42.6445 43.125 44.8945C42.75 45.2109 42.2344 45.7617 41.9883 46.1133L41.543 46.7461L40.1719 46.7578H38.7891V36.2344C38.7891 30.4453 38.8242 25.6641 38.8711 25.6289C38.9062 25.582 39.7031 25.5469 40.6289 25.5469H42.3047L42.3281 29.9648ZM52.4062 28.1836C53.5547 29.6016 54.4922 30.7969 54.4922 30.8438C54.4922 30.9023 52.5703 30.9375 50.2148 30.9375H45.9375V28.2422V25.5469L48.1406 25.5703L50.332 25.6055L52.4062 28.1836ZM35.2734 41.4844V46.7578H27.75L20.2148 46.7461L19.8164 46.1602C18.6211 44.4023 16.3477 43.2539 14.0508 43.2422C13.0781 43.2422 11.6719 43.5938 10.7812 44.0742C9.92578 44.5312 8.80078 45.5273 8.35547 46.2305L8.02734 46.7578H5.77734H3.51562V41.4844V36.2109H19.3945H35.2734V41.4844ZM15.668 47.1562C17.4375 48.0586 18.1172 50.0742 17.2383 51.8438C16.8633 52.6055 16.4062 53.0625 15.5859 53.5078C15.2695 53.6836 14.9297 53.7305 14.1211 53.7305C13.1602 53.7305 13.0078 53.6953 12.4219 53.3672C9.65625 51.8086 10.207 47.6836 13.3008 46.8633C13.9102 46.6992 15.0586 46.8398 15.668 47.1562ZM48.75 46.957C49.5703 47.2266 50.5078 48.082 50.8711 48.8906C51.5977 50.5547 50.918 52.4883 49.3242 53.3789C48.75 53.6953 48.5859 53.7305 47.6367 53.7305C46.7695 53.7305 46.5 53.6836 46.0898 53.4609C44.8711 52.8164 44.1562 51.6445 44.168 50.2734C44.168 47.8711 46.4531 46.2188 48.75 46.957ZM40.6055 50.8242C40.7109 51.6914 40.8867 52.3594 41.1914 53.0977L41.4727 53.7891H30.8672H20.2617L20.4375 53.4609C20.6953 52.957 21.0586 51.6797 21.1406 50.9414L21.2227 50.2734H30.8789H40.5352L40.6055 50.8242Z" fill="#2B298F"/>
<path id="Vector_2" d="M17.6953 11.4844V13.2422H19.4531H21.2109V11.4844V9.72656H19.4531H17.6953V11.4844Z" fill="#2B298F"/>
</g>
</g>
<defs>
<clipPath id="clip0_1624_21564">
<rect width="60" height="60" fill="white"/>
</clipPath>
</defs>
</svg>
