<svg width="122" height="107" viewBox="0 0 122 107" fill="none" xmlns="http://www.w3.org/2000/svg">
<g clip-path="url(#clip0_792_14795)">
<g style="mix-blend-mode:multiply" opacity="0.3" filter="url(#filter0_f_792_14795)">
<path d="M82 38.2805L116.5 59.5509L35.5 106.65L-2 85.881L82 38.2805Z" fill="url(#paint0_linear_792_14795)"/>
</g>
<path d="M107.95 36.8843L86.3623 24.5688L93.2426 20.6692L114.83 32.9847L107.95 36.8843Z" fill="#E2EBF7"/>
<path d="M82.5238 57.1339L60.9365 44.8203L86.3625 24.5687L107.95 36.8843L82.5238 57.1339Z" fill="#E2EBF7"/>
<path d="M82.5572 68.5531L60.9699 56.2376L60.9365 44.8203L82.5238 57.1339L82.5572 68.5531Z" fill="#B4C5E1"/>
<path d="M114.83 32.9847L115.036 50.1444L82.5568 68.5531L82.5234 57.1339L107.949 36.8843L114.83 32.9847Z" fill="white"/>
<path d="M91.5746 60.031L96.2008 62.6699C95.382 62.2034 94.249 62.269 92.9962 62.9764L88.3701 60.3394C89.6209 59.632 90.7558 59.5665 91.5746 60.031Z" fill="#E2EBF7"/>
<path d="M89.8177 73.4511L85.1935 70.8122C84.3845 70.3515 83.8838 69.3704 83.8799 67.9748C83.8799 65.1682 85.8827 61.7505 88.3725 60.3414L92.9986 62.9784C90.5088 64.3894 88.4982 67.809 88.506 70.6137C88.508 72.0074 89.0106 72.9827 89.8177 73.4511Z" fill="#E2EBF7"/>
<path d="M92.9965 62.9784C95.4823 61.5712 97.5127 62.7008 97.5127 65.5074C97.5127 68.314 95.5098 71.7336 93.024 73.1427C90.5381 74.5518 88.5078 73.4203 88.5078 70.6137C88.5078 67.807 90.5067 64.3894 92.9965 62.9784Z" fill="white"/>
<path d="M111.372 48.8123L115.998 51.4512C115.179 50.9828 114.046 51.0483 112.793 51.7596L108.167 49.1188C109.42 48.4094 110.555 48.3439 111.372 48.8123Z" fill="#E2EBF7"/>
<path d="M109.618 62.2304L104.992 59.5915C104.183 59.1289 103.681 58.1477 103.679 56.7541C103.679 53.9475 105.682 50.5298 108.171 49.1188L112.795 51.7596C110.306 53.1706 108.297 56.5786 108.303 59.393C108.307 60.7866 108.809 61.7678 109.618 62.2304Z" fill="#E2EBF7"/>
<path d="M112.793 51.7596C115.281 50.3486 117.31 51.4801 117.31 54.2867C117.31 57.0933 115.309 60.511 112.823 61.924C110.337 63.3369 108.307 62.2015 108.307 59.3949C108.307 56.5883 110.306 53.1687 112.793 51.7596Z" fill="white"/>
<path d="M70.1125 39.7834L65.4863 37.1425L82.8304 23.3312L87.4545 25.9682L70.1125 39.7834Z" fill="#E2EBF7"/>
<path d="M65.5626 47.4708L60.9365 44.8319L66.4168 12.1569L71.0468 14.7958L65.5626 47.4708Z" fill="#B4C5E1"/>
<path d="M71.0467 14.7957L90.9198 3.52881L90.9885 27.2211L65.5586 47.4707L71.0467 14.7957ZM87.4541 25.9759L87.407 9.50635L73.9056 17.159L70.1121 39.7892L87.4541 25.974V25.9759Z" fill="white"/>
<path d="M86.2998 25.3745L90.9259 22.7336L108.121 32.3351L103.497 34.9721L86.2998 25.3745Z" fill="#E2EBF7"/>
<path d="M103.497 34.9721L103.485 38.9469L86.2881 29.3473L86.2999 25.3745L103.497 34.9721Z" fill="#B4C5E1"/>
<path d="M103.488 15.7672L108.114 13.1283L108.103 17.103L103.479 19.7439L103.488 15.7672Z" fill="#484848"/>
<path d="M64.6064 43.0449L69.2306 40.406L86.4274 50.0036L81.8013 52.6464L64.6064 43.0449Z" fill="#E2EBF7"/>
<path d="M81.8013 52.6464L81.7915 56.6192L64.5928 47.0197L64.6065 43.0449L81.8013 52.6464Z" fill="#B4C5E1"/>
<path d="M88.2508 24.3952L87.2651 27.8745L70.0684 18.275L71.0462 14.7957L88.2508 24.3952Z" fill="#B4C5E1"/>
<path d="M87.3087 49.4447L82.6826 46.8058L100.027 32.9944L104.651 35.6314L87.3087 49.4447Z" fill="#E2EBF7"/>
<path d="M104.651 35.6313L100.027 32.9943L99.9795 16.5228L104.604 19.1617L104.651 35.6313Z" fill="#B4C5E1"/>
<path d="M82.758 57.1339L78.1338 54.495L83.6121 21.8199L88.2382 24.4589L82.758 57.1339Z" fill="#B4C5E1"/>
<path d="M108.115 13.1283L86.294 0.889893L66.417 12.1568L71.047 14.7957L83.6236 21.8122L83.6118 21.8199L88.2379 24.4589L108.115 13.1919L108.06 13.1611L108.115 13.1283Z" fill="#E2EBF7"/>
<path d="M88.2381 24.4588L108.115 13.1919L108.182 36.8842L82.7578 57.1338L88.2381 24.4588ZM104.651 35.639L104.604 19.1694L91.1029 26.8221L87.3093 49.4523L104.651 35.639Z" fill="white"/>
<path d="M60.3271 8.62537L63.1115 7.04858L65.8977 8.62537L63.1115 10.2041L60.3271 8.62537Z" fill="#E2EBF7"/>
<path d="M60.3271 59.152V8.62537L63.1115 10.2041V60.7308L60.3271 59.152Z" fill="#B4C5E1"/>
<path d="M65.8986 59.152L63.1123 60.7308V10.2041L65.8986 8.62537V59.152Z" fill="white"/>
<path d="M43.6182 71.7799V68.4682L63.1123 57.5734V60.7308L43.6182 71.7799Z" fill="white"/>
<path d="M40.8311 66.9821L43.6173 68.4682L63.1115 57.5734L60.2525 55.9773L40.8311 66.9821Z" fill="#E2EBF7"/>
<path d="M40.8311 70.2012V66.9821L43.6173 68.4682V71.7799L40.8311 70.2012Z" fill="#B4C5E1"/>
<path d="M63.1123 60.7308V57.5734L76.8807 65.4438V68.4682L63.1123 60.7308Z" fill="#B4C5E1"/>
<path d="M76.8807 65.4438L63.1123 57.5734L65.8986 55.9503L79.7396 63.547L76.8807 65.4438Z" fill="#E2EBF7"/>
<path d="M63.1865 32.3466V29.1892L76.953 37.0597V40.0841L63.1865 32.3466Z" fill="#B4C5E1"/>
<path d="M76.953 37.0597L63.1865 29.1892L65.9708 27.5662L79.8119 35.1629L76.953 37.0597Z" fill="#E2EBF7"/>
<path d="M76.9531 18.0939L79.7394 16.5151L82.5237 18.0939L79.7394 19.6706L76.9531 18.0939Z" fill="#E2EBF7"/>
<path d="M76.9531 68.6186V18.0939L79.7394 19.6707V70.1973L76.9531 68.6186Z" fill="#B4C5E1"/>
<path d="M82.5236 68.6186L79.7393 70.1973V19.6707L82.5236 18.0939V68.6186Z" fill="white"/>
<path d="M60.2432 81.2464V77.9348L79.7393 67.0399V70.1973L60.2432 81.2464Z" fill="white"/>
<path d="M57.459 76.4486L60.2433 77.9348L79.7394 67.0399L76.8805 65.4438L57.459 76.4486Z" fill="#E2EBF7"/>
<path d="M57.459 79.6677V76.4486L60.2433 77.9348V81.2464L57.459 79.6677Z" fill="#B4C5E1"/>
<path d="M67.2061 87.5266V84.2149L86.7021 73.3201V76.4775L67.2061 87.5266Z" fill="white"/>
<path d="M64.4219 82.7288L67.2062 84.2149L86.7023 73.3201L83.8433 71.724L64.4219 82.7288Z" fill="#E2EBF7"/>
<path d="M64.4219 85.9479V82.7288L67.2062 84.215V87.5266L64.4219 85.9479Z" fill="#B4C5E1"/>
<path d="M33.7842 68.4182V65.1085L53.2803 54.2117V57.3691L33.7842 68.4182Z" fill="white"/>
<path d="M31 63.6202L33.7843 65.1084L53.2804 54.2115L50.4215 52.6155L31 63.6202Z" fill="#E2EBF7"/>
<path d="M31 66.8395V63.6204L33.7843 65.1085V68.4182L31 66.8395Z" fill="#B4C5E1"/>
<path d="M67.2017 84.2554V81.1038L31.0586 60.6344V63.7899L67.2017 84.2554Z" fill="white"/>
<path d="M70.0056 79.5309L67.2017 81.1038L31.0586 60.5381L33.9175 58.9401L70.0056 79.5309Z" fill="#E2EBF7"/>
<path d="M69.9865 82.6768L70.0061 79.5309L67.2021 81.1038V84.2555L69.9865 82.6768Z" fill="#B4C5E1"/>
<path d="M72.731 81.0961V77.9425L36.5859 57.4731V60.6306L72.731 81.0961Z" fill="white"/>
<path d="M75.5349 76.3714L72.731 77.9424L36.5859 57.3767L39.4468 55.7806L75.5349 76.3714Z" fill="#E2EBF7"/>
<path d="M75.5158 79.5173L75.5354 76.3715L72.7314 77.9425V81.0961L75.5158 79.5173Z" fill="#B4C5E1"/>
<path d="M78.3901 77.9425V74.7889L42.2471 54.3196V57.477L78.3901 77.9425Z" fill="white"/>
<path d="M81.196 73.2159L78.3901 74.7889L42.2471 54.2231L45.106 52.6271L81.196 73.2159Z" fill="#E2EBF7"/>
<path d="M81.1769 76.3637L81.1965 73.2159L78.3906 74.7889V77.9425L81.1769 76.3637Z" fill="#B4C5E1"/>
<path d="M83.896 74.893V71.7413L47.7529 51.27V54.4275L83.896 74.893Z" fill="white"/>
<path d="M86.7019 70.1684L83.896 71.7414L47.7529 51.1737L50.6119 49.5776L86.7019 70.1684Z" fill="#E2EBF7"/>
<path d="M86.6828 73.3143L86.7024 70.1685L83.8965 71.7414V74.893L86.6828 73.3143Z" fill="#B4C5E1"/>
<path d="M50.2621 53.1476L58.2439 48.6235L50.2621 44.0994L42.2803 48.6235L50.2621 53.1476Z" fill="#E2EBF7"/>
<path d="M50.2621 62.1784V53.1475L42.2803 48.6234V57.6543L50.2621 62.1784Z" fill="#B4C5E1"/>
<path d="M58.2445 57.6543V48.6234L50.2627 53.1475V62.1784L58.2445 57.6543Z" fill="white"/>
<path d="M48.0314 59.1984V60.0542L49.5414 60.9101V60.0542L48.0039 59.1984" fill="white"/>
<path opacity="0.5" d="M53.2785 45.8091L55.2794 46.9367L47.3545 51.4956L45.3301 50.3486L53.2785 45.8091Z" fill="white"/>
<path d="M45.3594 50.3699V54.894L47.3543 56.0255V51.5014L45.3594 50.3699Z" fill="white"/>
<path d="M58.3852 57.7565L66.367 53.2324L58.3852 48.7083L50.4033 53.2324L58.3852 57.7565Z" fill="#E2EBF7"/>
<path d="M58.3852 66.7855V57.7565L50.4033 53.2324V62.2614L58.3852 66.7855Z" fill="#B4C5E1"/>
<path d="M66.3676 62.2614V53.2324L58.3857 57.7565V66.7855L66.3676 62.2614Z" fill="white"/>
<path d="M56.1554 63.8073V64.6631L57.6634 65.519V64.6631L56.1279 63.8073" fill="white"/>
<path opacity="0.5" d="M61.3996 50.4161L63.4024 51.5438L55.4775 56.1045L53.4531 54.9576L61.3996 50.4161Z" fill="white"/>
<path d="M53.4805 54.9788V59.5009L55.4774 60.6325V56.1083L53.4805 54.9788Z" fill="white"/>
<path d="M66.5502 62.3828L74.532 57.8587L66.5502 53.3346L58.5684 57.8587L66.5502 62.3828Z" fill="#E2EBF7"/>
<path d="M66.5502 71.4136V62.3828L58.5684 57.8586V66.8895L66.5502 71.4136Z" fill="#B4C5E1"/>
<path d="M74.5316 66.8895V57.8586L66.5498 62.3828V71.4136L74.5316 66.8895Z" fill="white"/>
<path d="M64.3195 68.4355V69.2895L65.8275 70.1453V69.2895L64.292 68.4355" fill="white"/>
<path opacity="0.5" d="M69.5656 55.0443L71.5665 56.172L63.6416 60.7308L61.6172 59.5838L69.5656 55.0443Z" fill="white"/>
<path d="M61.6455 59.6051V64.1292L63.6424 65.2607V60.7366L61.6455 59.6051Z" fill="white"/>
<path d="M74.6146 66.9281L82.5965 62.404L74.6146 57.8799L66.6328 62.404L74.6146 66.9281Z" fill="#E2EBF7"/>
<path d="M74.6146 75.9589V66.928L66.6328 62.4039V71.4348L74.6146 75.9589Z" fill="#B4C5E1"/>
<path d="M82.5961 71.4348V62.4039L74.6143 66.928V75.9589L82.5961 71.4348Z" fill="white"/>
<path d="M72.3839 72.9789V73.8347L73.8919 74.6906V73.8347L72.3564 72.9789" fill="white"/>
<path opacity="0.5" d="M77.6281 59.5878L79.629 60.7173L71.7041 65.2762L69.6816 64.1292L77.6281 59.5878Z" fill="white"/>
<path d="M69.709 64.1504V68.6745L71.704 69.8041V65.2819L69.709 64.1504Z" fill="white"/>
<path d="M41.9935 57.7951L49.9754 53.2709L41.9935 48.7468L34.0117 53.2709L41.9935 57.7951Z" fill="#E2EBF7"/>
<path d="M41.9935 66.8259V57.795L34.0117 53.2709V62.3018L41.9935 66.8259Z" fill="#B4C5E1"/>
<path d="M49.976 62.3018V53.2709L41.9941 57.795V66.8259L49.976 62.3018Z" fill="white"/>
<path d="M39.7628 63.8478V64.7017L41.2708 65.5576V64.7017L39.7354 63.8478" fill="#9DB1D3"/>
<path opacity="0.5" d="M45.008 50.4567L47.0089 51.5843L39.084 56.1431L37.0615 54.9962L45.008 50.4567Z" fill="white"/>
<path d="M37.0889 55.0173V59.5414L39.0838 60.673V56.1488L37.0889 55.0173Z" fill="#9DB1D3"/>
<path d="M50.1176 62.4039L58.0974 57.8798L50.1176 53.3557L42.1338 57.8798L50.1176 62.4039Z" fill="#E2EBF7"/>
<path d="M50.1176 71.4349V62.404L42.1338 57.8799V66.9108L50.1176 71.4349Z" fill="#B4C5E1"/>
<path d="M58.0971 66.9108V57.8799L50.1172 62.404V71.4349L58.0971 66.9108Z" fill="white"/>
<path d="M47.8849 68.4547V69.3106L49.3949 70.1664V69.3106L47.8574 68.4547" fill="#9DB1D3"/>
<path opacity="0.5" d="M53.1311 55.0656L55.1319 56.1913L47.207 60.752L45.1826 59.6051L53.1311 55.0656Z" fill="white"/>
<path d="M45.2119 59.6263V64.1505L47.2069 65.282V60.7559L45.2119 59.6263Z" fill="#9DB1D3"/>
<path d="M58.2816 67.0303L66.2635 62.5062L58.2816 57.984L50.2979 62.5062L58.2816 67.0303Z" fill="#E2EBF7"/>
<path d="M58.2816 76.0611V67.0302L50.2979 62.5061V71.537L58.2816 76.0611Z" fill="#B4C5E1"/>
<path d="M66.2631 71.537V62.5061L58.2812 67.0302V76.0611L66.2631 71.537Z" fill="white"/>
<path d="M56.049 73.083V73.9389L57.5589 74.7928V73.9389L56.0215 73.083" fill="#9DB1D3"/>
<path opacity="0.5" d="M61.2951 59.6918L63.296 60.8194L55.3711 65.3802L53.3467 64.2313L61.2951 59.6918Z" fill="white"/>
<path d="M53.377 64.2526V68.7767L55.3719 69.9082V65.3841L53.377 64.2526Z" fill="#9DB1D3"/>
<path d="M66.3441 71.5756L74.326 67.0515L66.3441 62.5273L58.3623 67.0515L66.3441 71.5756Z" fill="#E2EBF7"/>
<path d="M66.3441 80.6065V71.5756L58.3623 67.0515V76.0824L66.3441 80.6065Z" fill="#B4C5E1"/>
<path d="M74.3256 76.0824V67.0515L66.3438 71.5756V80.6065L74.3256 76.0824Z" fill="white"/>
<path d="M64.1134 77.6283V78.4822L65.6234 79.3381V78.4822L64.0859 77.6283" fill="#9DB1D3"/>
<path opacity="0.5" d="M69.3596 64.2372L71.3604 65.3648L63.4356 69.9237L61.4111 68.7767L69.3596 64.2372Z" fill="white"/>
<path d="M61.4404 68.7979V73.322L63.4354 74.4535V69.9294L61.4404 68.7979Z" fill="#9DB1D3"/>
<path d="M50.3861 43.9913L58.368 39.4672L50.3861 34.9431L42.4043 39.4672L50.3861 43.9913Z" fill="#E2EBF7"/>
<path d="M50.3861 53.0223V43.9914L42.4043 39.4673V48.4982L50.3861 53.0223Z" fill="#B4C5E1"/>
<path d="M58.3676 48.4982V39.4673L50.3857 43.9914V53.0223L58.3676 48.4982Z" fill="white"/>
<path d="M48.1554 50.0441V50.8999L49.6654 51.7539V50.8999L48.1279 50.0441" fill="white"/>
<path opacity="0.5" d="M53.4026 36.653L55.4034 37.7806L47.4785 42.3394L45.4541 41.1925L53.4026 36.653Z" fill="white"/>
<path d="M45.4814 41.2137V45.7379L47.4784 46.8694V42.3453L45.4814 41.2137Z" fill="white"/>
<path d="M58.5092 48.6004L66.491 44.0762L58.5092 39.5521L50.5273 44.0762L58.5092 48.6004Z" fill="#E2EBF7"/>
<path d="M58.5092 57.6312V48.6003L50.5273 44.0762V53.1071L58.5092 57.6312Z" fill="#B4C5E1"/>
<path d="M66.4916 53.1071V44.0762L58.5098 48.6003V57.6312L66.4916 53.1071Z" fill="white"/>
<path d="M56.2785 54.6511V55.507L57.7865 56.3628V55.507L56.251 54.6511" fill="white"/>
<path opacity="0.5" d="M61.5236 41.2618L63.5265 42.3895L55.5996 46.9483L53.5771 45.8014L61.5236 41.2618Z" fill="white"/>
<path d="M53.6045 45.8226V50.3467L55.5995 51.4783V46.9541L53.6045 45.8226Z" fill="white"/>
<path d="M66.6742 53.2266L74.656 48.7025L66.6742 44.1803L58.6924 48.7025L66.6742 53.2266Z" fill="#E2EBF7"/>
<path d="M66.6742 62.2575V53.2266L58.6924 48.7025V57.7334L66.6742 62.2575Z" fill="#B4C5E1"/>
<path d="M74.6557 57.7334V48.7025L66.6738 53.2266V62.2575L74.6557 57.7334Z" fill="white"/>
<path d="M64.4435 59.2793V60.1352L65.9515 60.991V60.1352L64.416 59.2793" fill="white"/>
<path opacity="0.5" d="M69.6877 45.8882L71.6886 47.0158L63.7656 51.5766L61.7412 50.4277L69.6877 45.8882Z" fill="white"/>
<path d="M61.7686 50.4508V54.973L63.7635 56.1045V51.5804L61.7686 50.4508Z" fill="white"/>
<path d="M74.7377 57.7719L82.7195 53.2477L74.7377 48.7236L66.7539 53.2477L74.7377 57.7719Z" fill="#E2EBF7"/>
<path d="M74.7377 66.8028V57.7719L66.7539 53.2478V62.2787L74.7377 66.8028Z" fill="#B4C5E1"/>
<path d="M82.7201 62.2787V53.2478L74.7383 57.7719V66.8028L82.7201 62.2787Z" fill="white"/>
<path d="M72.506 63.8246V64.6785L74.016 65.5344V64.6785L72.4805 63.8246" fill="white"/>
<path opacity="0.5" d="M77.7522 50.4335L79.753 51.5611L71.8281 56.1199L69.8037 54.973L77.7522 50.4335Z" fill="white"/>
<path d="M69.833 54.9943V59.5184L71.828 60.6499V56.1258L69.833 54.9943Z" fill="white"/>
<path d="M42.1176 48.6408L50.0994 44.1166L42.1176 39.5925L34.1357 44.1166L42.1176 48.6408Z" fill="#E2EBF7"/>
<path d="M42.1176 57.6698V48.6408L34.1357 44.1167V53.1457L42.1176 57.6698Z" fill="#B4C5E1"/>
<path d="M50.099 53.1457V44.1167L42.1172 48.6408V57.6698L50.099 53.1457Z" fill="white"/>
<path d="M39.8869 54.6915V55.5474L41.3949 56.4033V55.5474L39.8594 54.6915" fill="#9DB1D3"/>
<path opacity="0.5" d="M45.132 41.3004L47.1329 42.4281L39.208 46.9888L37.1855 45.84L45.132 41.3004Z" fill="white"/>
<path d="M37.2129 45.8632V50.3853L39.2079 51.5169V46.9927L37.2129 45.8632Z" fill="#9DB1D3"/>
<path d="M50.2387 53.2478L58.2205 48.7237L50.2387 44.1996L42.2568 48.7237L50.2387 53.2478Z" fill="#E2EBF7"/>
<path d="M50.2387 62.2786V53.2477L42.2568 48.7236V57.7545L50.2387 62.2786Z" fill="#B4C5E1"/>
<path d="M58.2211 57.7545V48.7236L50.2393 53.2477V62.2786L58.2211 57.7545Z" fill="white"/>
<path d="M48.008 59.3005V60.1545L49.5179 61.0103V60.1545L47.9805 59.3005" fill="#9DB1D3"/>
<path opacity="0.5" d="M53.2551 45.9094L55.2559 47.0371L47.3311 51.5959L45.3066 50.449L53.2551 45.9094Z" fill="white"/>
<path d="M45.3359 50.4701V54.9942L47.3309 56.1257V51.6016L45.3359 50.4701Z" fill="#9DB1D3"/>
<path d="M58.4037 57.876L66.3855 53.3519L58.4037 48.8278L50.4219 53.3519L58.4037 57.876Z" fill="#E2EBF7"/>
<path d="M58.4037 66.9069V57.876L50.4219 53.3519V62.3809L58.4037 66.9069Z" fill="#B4C5E1"/>
<path d="M66.3852 62.3809V53.3519L58.4033 57.876V66.9069L66.3852 62.3809Z" fill="white"/>
<path d="M56.173 63.9268V64.7826L57.683 65.6385V64.7826L56.1455 63.9268" fill="white"/>
<path opacity="0.5" d="M61.4192 50.5356L63.42 51.6633L55.4951 56.224L53.4707 55.0771L61.4192 50.5356Z" fill="white"/>
<path d="M53.5 55.0983V59.6224L55.495 60.752V56.2278L53.5 55.0983Z" fill="#9DB1D3"/>
<path d="M66.4672 62.4194L74.449 57.8953L66.4672 53.3712L58.4854 57.8953L66.4672 62.4194Z" fill="#E2EBF7"/>
<path d="M66.4672 71.4503V62.4194L58.4854 57.8953V66.9261L66.4672 71.4503Z" fill="#B4C5E1"/>
<path d="M74.4496 66.9261V57.8953L66.4678 62.4194V71.4503L74.4496 66.9261Z" fill="white"/>
<path d="M64.2375 68.4722V69.328L65.7474 70.182V69.328L64.21 68.4722" fill="#9DB1D3"/>
<path opacity="0.5" d="M69.4836 55.0809L71.4845 56.2086L63.5596 60.7674L61.5352 59.6205L69.4836 55.0809Z" fill="white"/>
<path d="M61.5645 59.6417V64.1658L63.5594 65.2973V60.7732L61.5645 59.6417Z" fill="#9DB1D3"/>
<path d="M50.5258 34.9104L58.5076 30.3844L50.5258 25.8622L42.5439 30.3844L50.5258 34.9104Z" fill="#E2EBF7"/>
<path d="M50.5258 43.9394V34.9104L42.5439 30.3844V39.4153L50.5258 43.9394Z" fill="#B4C5E1"/>
<path d="M58.5072 39.4153V30.3844L50.5254 34.9104V43.9394L58.5072 39.4153Z" fill="white"/>
<path d="M48.2951 40.9612V41.817L49.805 42.671V41.817L48.2676 40.9612" fill="white"/>
<path opacity="0.5" d="M53.5412 27.5701L55.5421 28.6977L47.6172 33.2585L45.5928 32.1096L53.5412 27.5701Z" fill="white"/>
<path d="M45.6221 32.1307V36.6548L47.617 37.7864V33.2622L45.6221 32.1307Z" fill="white"/>
<path d="M58.6488 39.5173L66.6307 34.9932L58.6488 30.4691L50.667 34.9932L58.6488 39.5173Z" fill="#E2EBF7"/>
<path d="M58.6488 48.5483V39.5174L50.667 34.9933V44.0242L58.6488 48.5483Z" fill="#B4C5E1"/>
<path d="M66.6303 44.0242V34.9933L58.6484 39.5174V48.5483L66.6303 44.0242Z" fill="white"/>
<path d="M56.4181 45.5701V46.424L57.9261 47.2799V46.424L56.3906 45.5701" fill="white"/>
<path opacity="0.5" d="M61.6652 32.179L63.6661 33.3066L55.7412 37.8654L53.7168 36.7185L61.6652 32.179Z" fill="white"/>
<path d="M53.7441 36.7397V41.2639L55.7411 42.3954V37.8713L53.7441 36.7397Z" fill="white"/>
<path d="M66.8129 44.1456L74.7947 39.6215L66.8129 35.0974L58.8311 39.6215L66.8129 44.1456Z" fill="#E2EBF7"/>
<path d="M66.8129 53.1765V44.1456L58.8311 39.6215V48.6523L66.8129 53.1765Z" fill="#B4C5E1"/>
<path d="M74.7953 48.6523V39.6215L66.8135 44.1456V53.1765L74.7953 48.6523Z" fill="white"/>
<path d="M64.5822 50.1964V51.0523L66.0902 51.9081V51.0523L64.5547 50.1964" fill="white"/>
<path opacity="0.5" d="M69.8293 36.8052L71.8302 37.9328L63.9053 42.4936L61.8809 41.3466L69.8293 36.8052Z" fill="white"/>
<path d="M61.9082 41.3679V45.892L63.9051 47.0216V42.4975L61.9082 41.3679Z" fill="white"/>
<path d="M74.8773 48.689L82.8592 44.1649L74.8773 39.6407L66.8955 44.1649L74.8773 48.689Z" fill="#E2EBF7"/>
<path d="M74.8773 57.7199V48.689L66.8955 44.1649V53.1958L74.8773 57.7199Z" fill="#B4C5E1"/>
<path d="M82.8598 53.1958V44.1649L74.8779 48.689V57.7199L82.8598 53.1958Z" fill="white"/>
<path d="M72.6466 54.7417V55.5976L74.1546 56.4515V55.5976L72.6191 54.7417" fill="white"/>
<path opacity="0.5" d="M77.8918 41.3506L79.8927 42.4782L71.9697 47.039L69.9453 45.8901L77.8918 41.3506Z" fill="white"/>
<path d="M69.9727 45.9113V50.4354L71.9696 51.5669V47.0428L69.9727 45.9113Z" fill="white"/>
<path d="M42.3412 39.5367L50.323 35.0145L42.3412 30.4904L34.3594 35.0145L42.3412 39.5367Z" fill="#E2EBF7"/>
<path d="M42.3412 48.5676V39.5367L34.3594 35.0145V44.0435L42.3412 48.5676Z" fill="#B4C5E1"/>
<path d="M50.3236 44.0435V35.0145L42.3418 39.5367V48.5676L50.3236 44.0435Z" fill="white"/>
<path d="M40.1105 45.5894V46.4452L41.6185 47.2992V46.4452L40.083 45.5894" fill="#9DB1D3"/>
<path opacity="0.5" d="M45.3576 32.1982L47.3585 33.3259L39.4336 37.8866L37.4092 36.7378L45.3576 32.1982Z" fill="white"/>
<path d="M37.4365 36.759V41.2831L39.4335 42.4147V37.8905L37.4365 36.759Z" fill="#9DB1D3"/>
<path d="M50.4643 44.1456L58.4461 39.6215L50.4643 35.0974L42.4824 39.6215L50.4643 44.1456Z" fill="#E2EBF7"/>
<path d="M50.4643 53.1765V44.1456L42.4824 39.6215V48.6523L50.4643 53.1765Z" fill="#B4C5E1"/>
<path d="M58.4467 48.6523V39.6215L50.4648 44.1456V53.1765L58.4467 48.6523Z" fill="white"/>
<path d="M48.2345 50.1984V51.0523L49.7425 51.9082V51.0523L48.207 50.1984" fill="#9DB1D3"/>
<path opacity="0.5" d="M53.4787 36.8071L55.4796 37.9348L47.5547 42.4936L45.5303 41.3467L53.4787 36.8071Z" fill="white"/>
<path d="M45.5596 41.3679V45.892L47.5545 47.0235V42.4994L45.5596 41.3679Z" fill="#9DB1D3"/>
<path d="M58.6293 48.7738L66.6111 44.2497L58.6293 39.7256L50.6475 44.2497L58.6293 48.7738Z" fill="#E2EBF7"/>
<path d="M58.6293 57.8027V48.7737L50.6475 44.2496V53.2805L58.6293 57.8027Z" fill="#B4C5E1"/>
<path d="M66.6107 53.2805V44.2496L58.6289 48.7737V57.8027L66.6107 53.2805Z" fill="white"/>
<path d="M56.3986 54.8246V55.6804L57.9066 56.5363V55.6804L56.3711 54.8246" fill="#9DB1D3"/>
<path opacity="0.5" d="M61.6428 41.4335L63.6436 42.5611L55.7188 47.1219L53.6943 45.9749L61.6428 41.4335Z" fill="white"/>
<path d="M53.7246 45.9961V50.5202L55.7196 51.6498V47.1257L53.7246 45.9961Z" fill="#9DB1D3"/>
<path d="M66.6937 53.3172L74.6756 48.793L66.6937 44.2689L58.7119 48.793L66.6937 53.3172Z" fill="#E2EBF7"/>
<path d="M66.6937 62.3481V53.3172L58.7119 48.7931V57.824L66.6937 62.3481Z" fill="#B4C5E1"/>
<path d="M74.6752 57.824V48.7931L66.6934 53.3172V62.3481L74.6752 57.824Z" fill="white"/>
<path d="M64.4611 59.3699V60.2238L65.971 61.0797V60.2238L64.4355 59.3699" fill="#9DB1D3"/>
<path opacity="0.5" d="M69.7072 45.9788L71.7081 47.1064L63.7832 51.6652L61.7588 50.5183L69.7072 45.9788Z" fill="white"/>
<path d="M61.7881 50.5396V55.0637L63.7831 56.1952V51.6711L61.7881 50.5396Z" fill="#9DB1D3"/>
</g>
<defs>
<filter id="filter0_f_792_14795" x="-4" y="36.2805" width="122.5" height="72.3696" filterUnits="userSpaceOnUse" color-interpolation-filters="sRGB">
<feFlood flood-opacity="0" result="BackgroundImageFix"/>
<feBlend mode="normal" in="SourceGraphic" in2="BackgroundImageFix" result="shape"/>
<feGaussianBlur stdDeviation="1" result="effect1_foregroundBlur_792_14795"/>
</filter>
<linearGradient id="paint0_linear_792_14795" x1="32" y1="101.348" x2="77.9581" y2="12.2309" gradientUnits="userSpaceOnUse">
<stop stop-color="#0E3390" stop-opacity="0"/>
<stop offset="1" stop-color="#0E3390"/>
</linearGradient>
<clipPath id="clip0_792_14795">
<rect width="122" height="106.114" fill="white" transform="translate(0 0.239502)"/>
</clipPath>
</defs>
</svg>
