<svg width="1920" height="1002" viewBox="0 0 1920 1002" fill="none" xmlns="http://www.w3.org/2000/svg">
<g clip-path="url(#clip0_1806_44459)">
<g opacity="0.5">
<path d="M979.934 428.117L980.186 428.549L980.434 428.404L980.434 428.117L979.934 428.117ZM1784.28 -98.2415C1783 -97.5051 1782.57 -95.8742 1783.3 -94.5988C1784.04 -93.3233 1785.67 -92.8863 1786.94 -93.6227C1788.22 -94.3591 1788.66 -95.99 1787.92 -97.2655C1787.18 -98.5409 1785.55 -98.9779 1784.28 -98.2415ZM554.015 676.409L553.763 675.977L553.515 676.122L553.515 676.409L554.015 676.409ZM247.165 988.691C245.889 989.427 245.452 991.058 246.189 992.333C246.925 993.609 248.556 994.046 249.831 993.309C251.107 992.573 251.544 990.942 250.807 989.667C250.071 988.391 248.44 987.954 247.165 988.691ZM1178.21 160.511L1177.95 160.079L1177.95 160.079L1178.21 160.511ZM979.934 276.31L979.681 275.879L979.434 276.023L979.434 276.31L979.934 276.31ZM1508.74 -32.5112L1508.74 -33.0112L1508.6 -33.0112L1508.49 -32.943L1508.74 -32.5112ZM1672.41 -32.5113L1672.41 -32.0113L1672.54 -32.0113L1672.65 -32.075L1672.41 -32.5113ZM554.015 809.694L554.27 810.124L554.515 809.978L554.515 809.694L554.015 809.694ZM979.682 427.685L553.763 675.977L554.267 676.841L980.186 428.549L979.682 427.685ZM1177.95 160.079L979.681 275.879L980.186 276.742L1178.46 160.943L1177.95 160.079ZM979.434 276.31L979.434 428.117L980.434 428.117L980.434 276.31L979.434 276.31ZM1508.49 -32.943L1177.95 160.079L1178.46 160.943L1508.99 -32.0795L1508.49 -32.943ZM1785.37 -96.3683L1672.16 -32.9475L1672.65 -32.075L1785.86 -95.4959L1785.37 -96.3683ZM1672.41 -33.0113L1508.74 -33.0112L1508.74 -32.0112L1672.41 -32.0113L1672.41 -33.0113ZM553.515 676.409L553.515 809.694L554.515 809.694L554.515 676.409L553.515 676.409ZM553.76 809.264L248.243 990.57L248.753 991.43L554.27 810.124L553.76 809.264Z" fill="#DCE4F1"/>
<path d="M933.515 148.205L933.767 148.637L934.015 148.493L934.015 148.205L933.515 148.205ZM1790.41 -446.034C1789.14 -445.298 1788.7 -443.667 1789.44 -442.392C1790.17 -441.116 1791.8 -440.679 1793.08 -441.416C1794.36 -442.152 1794.79 -443.783 1794.06 -445.058C1793.32 -446.334 1791.69 -446.771 1790.41 -446.034ZM828.111 209.58L827.859 209.148L827.611 209.293L827.611 209.58L828.111 209.58ZM826.778 375.691C825.502 376.427 825.065 378.058 825.802 379.333C826.538 380.609 828.169 381.046 829.444 380.309C830.72 379.573 831.157 377.942 830.42 376.667C829.684 375.391 828.053 374.954 826.778 375.691ZM933.515 51.268L933.266 50.8349L933.015 50.9792L933.015 51.268L933.515 51.268ZM933.264 147.773L827.859 209.148L828.363 210.013L933.767 148.637L933.264 147.773ZM827.611 209.58L827.611 378L828.611 378L828.611 209.58L827.611 209.58ZM933.015 51.268L933.015 148.205L934.015 148.205L934.015 51.268L933.015 51.268ZM1791.5 -444.158L933.266 50.8349L933.765 51.7011L1792 -443.292L1791.5 -444.158Z" fill="#DCE4F1"/>
<path d="M1319.16 275.047L1319.41 275.481L1319.66 275.338L1319.66 275.047L1319.16 275.047ZM1776.09 10.1877C1774.82 10.9241 1774.38 12.555 1775.12 13.8304C1775.85 15.1059 1777.48 15.5429 1778.76 14.8065C1780.04 14.0701 1780.47 12.4392 1779.74 11.1638C1779 9.88833 1777.37 9.45133 1776.09 10.1877ZM1156.17 367.792L1156.17 368.292L1156.31 368.292L1156.42 368.226L1156.17 367.792ZM200.796 919.223C199.52 919.96 199.083 921.59 199.82 922.866C200.556 924.141 202.187 924.578 203.463 923.842C204.738 923.106 205.175 921.475 204.439 920.199C203.702 918.924 202.071 918.487 200.796 919.223ZM746.323 608.519L746.572 608.952L746.823 608.808L746.823 608.519L746.323 608.519ZM1455.55 135.248L1455.55 134.748L1455.42 134.748L1455.3 134.813L1455.55 135.248ZM1567.39 135.248L1567.39 135.748L1567.52 135.748L1567.64 135.679L1567.39 135.248ZM1319.16 212.99L1318.91 212.555L1318.66 212.699L1318.66 212.99L1319.16 212.99ZM935.222 367.792L935.222 367.292L935.086 367.292L934.969 367.361L935.222 367.792ZM746.323 478.949L746.069 478.518L745.823 478.663L745.823 478.949L746.323 478.949ZM1318.91 274.612L1155.93 367.357L1156.42 368.226L1319.41 275.481L1318.91 274.612ZM746.074 608.085L201.88 921.099L202.379 921.966L746.572 608.952L746.074 608.085ZM1777.17 12.0654L1567.13 134.816L1567.64 135.679L1777.68 12.9288L1777.17 12.0654ZM1567.39 134.748L1455.55 134.748L1455.55 135.748L1567.39 135.748L1567.39 134.748ZM1455.3 134.813L1318.91 212.555L1319.41 213.424L1455.8 135.682L1455.3 134.813ZM1318.66 212.99L1318.66 275.047L1319.66 275.047L1319.66 212.99L1318.66 212.99ZM1156.17 367.292L935.222 367.292L935.222 368.292L1156.17 368.292L1156.17 367.292ZM745.823 478.949L745.823 608.519L746.823 608.519L746.823 478.949L745.823 478.949ZM934.969 367.361L746.069 478.518L746.577 479.38L935.476 368.223L934.969 367.361Z" fill="#DCE4F1"/>
<path d="M468.833 644.693C467.557 645.429 467.12 647.06 467.857 648.336C468.593 649.611 470.224 650.048 471.5 649.312C472.775 648.575 473.212 646.944 472.476 645.669C471.739 644.393 470.108 643.956 468.833 644.693ZM607.919 598.584L607.919 599.084L608.052 599.084L608.167 599.018L607.919 598.584ZM553.363 598.584L553.363 598.084L553.228 598.084L553.112 598.152L553.363 598.584ZM746.251 519.066L607.671 598.149L608.167 599.018L746.747 519.934L746.251 519.066ZM607.919 598.084L553.363 598.084L553.363 599.084L607.919 599.084L607.919 598.084ZM553.112 598.152L469.915 646.57L470.418 647.434L553.615 599.016L553.112 598.152Z" fill="#DCE4F1"/>
<path d="M1594.26 468.666L1594.26 469.166L1594.39 469.166L1594.51 469.099L1594.26 468.666ZM2026.87 214.446C2025.59 215.182 2025.16 216.813 2025.89 218.088C2026.63 219.364 2028.26 219.801 2029.53 219.064C2030.81 218.328 2031.25 216.697 2030.51 215.422C2029.77 214.146 2028.14 213.709 2026.87 214.446ZM1501.25 468.666L1501.25 468.166L1501.11 468.166L1501 468.232L1501.25 468.666ZM1282.34 594.168L1282.09 593.734L1281.84 593.878L1281.84 594.168L1282.34 594.168ZM1282.34 688.307L1282.59 688.742L1282.84 688.598L1282.84 688.307L1282.34 688.307ZM632.167 995.69C630.891 996.427 630.454 998.058 631.191 999.333C631.927 1000.61 633.558 1001.05 634.833 1000.31C636.109 999.573 636.546 997.942 635.809 996.666C635.073 995.391 633.442 994.954 632.167 995.69ZM962.504 806.966L962.504 806.466L962.37 806.466L962.253 806.533L962.504 806.966ZM1073.66 806.966L1073.66 807.466L1073.79 807.466L1073.91 807.4L1073.66 806.966ZM2027.95 216.323L1594 468.234L1594.51 469.099L2028.45 217.187L2027.95 216.323ZM1594.26 468.166L1501.25 468.166L1501.25 469.166L1594.26 469.166L1594.26 468.166ZM1501 468.232L1282.09 593.734L1282.59 594.602L1501.5 469.1L1501 468.232ZM1281.84 594.168L1281.84 688.307L1282.84 688.307L1282.84 594.168L1281.84 594.168ZM1282.09 687.872L1073.41 806.531L1073.91 807.4L1282.59 688.742L1282.09 687.872ZM1073.66 806.466L962.504 806.466L962.504 807.466L1073.66 807.466L1073.66 806.466ZM962.253 806.533L633.249 997.567L633.751 998.432L962.755 807.398L962.253 806.533Z" fill="#DCE4F1"/>
<path d="M1362.76 703.992L1363.01 704.423L1363.26 704.278V703.992H1362.76ZM1248.93 769.459C1248.93 770.931 1250.13 772.125 1251.6 772.125C1253.07 772.125 1254.27 770.931 1254.27 769.459C1254.27 767.986 1253.07 766.792 1251.6 766.792C1250.13 766.792 1248.93 767.986 1248.93 769.459ZM1362.26 455.081V703.992H1363.26V455.081H1362.26ZM1362.51 703.561L1251.35 769.028L1251.86 769.889L1363.01 704.423L1362.51 703.561Z" fill="#DCE4F1"/>
<path d="M841.044 570.749C839.768 571.485 839.331 573.116 840.068 574.391C840.804 575.667 842.435 576.104 843.711 575.367C844.986 574.631 845.423 573 844.687 571.725C843.95 570.449 842.319 570.012 841.044 570.749ZM1107.49 275.722L1107.24 275.29L1106.99 275.435L1106.99 275.722L1107.49 275.722ZM1107.49 419.051L1107.74 419.484L1107.99 419.339L1107.99 419.051L1107.49 419.051ZM1536.7 25.4542L1536.7 24.9542L1536.56 24.9542L1536.45 25.0223L1536.7 25.4542ZM1106.99 275.722L1106.99 419.051L1107.99 419.051L1107.99 275.722L1106.99 275.722ZM1107.24 418.619L842.126 572.626L842.628 573.49L1107.74 419.484L1107.24 418.619ZM1754.92 24.9544L1536.7 24.9542L1536.7 25.9542L1754.92 25.9544L1754.92 24.9544ZM1536.45 25.0223L1107.24 275.29L1107.74 276.154L1536.95 25.8862L1536.45 25.0223Z" fill="#DCE4F1"/>
<path d="M495.666 902.691C494.39 903.427 493.953 905.058 494.69 906.334C495.426 907.609 497.057 908.046 498.332 907.31C499.608 906.573 500.045 904.942 499.308 903.667C498.572 902.391 496.941 901.954 495.666 902.691ZM1852.05 170.337C1850.77 171.073 1850.33 172.704 1851.07 173.98C1851.81 175.255 1853.44 175.692 1854.71 174.956C1855.99 174.219 1856.42 172.589 1855.69 171.313C1854.95 170.038 1853.32 169.601 1852.05 170.337ZM798.377 783.194L798.377 783.694L798.511 783.694L798.627 783.627L798.377 783.194ZM709.274 783.194L709.274 782.694L709.14 782.694L709.025 782.761L709.274 783.194ZM798.377 782.694L709.274 782.694L709.274 783.694L798.377 783.694L798.377 782.694ZM709.025 782.761L496.75 904.567L497.248 905.434L709.522 783.628L709.025 782.761ZM1853.13 172.214L798.126 782.762L798.627 783.627L1853.63 173.079L1853.13 172.214Z" fill="#DCE4F1"/>
<path d="M754.141 703.881C752.866 704.618 752.429 706.249 753.165 707.524C753.902 708.799 755.533 709.236 756.808 708.5C758.083 707.764 758.52 706.133 757.784 704.857C757.048 703.582 755.417 703.145 754.141 703.881ZM1768.44 117.535C1767.16 118.272 1766.73 119.903 1767.46 121.178C1768.2 122.454 1769.83 122.891 1771.11 122.154C1772.38 121.418 1772.82 119.787 1772.08 118.511C1771.35 117.236 1769.72 116.799 1768.44 117.535ZM1769.52 119.412L755.224 705.758L755.725 706.624L1770.02 120.278L1769.52 119.412Z" fill="#DCE4F1"/>
<path d="M101.233 477.322C99.9571 478.058 99.5201 479.689 100.257 480.965C100.993 482.24 102.624 482.677 103.899 481.941C105.175 481.204 105.612 479.573 104.875 478.298C104.139 477.023 102.508 476.586 101.233 477.322ZM1103.01 -196.441C1101.74 -195.705 1101.3 -194.074 1102.04 -192.799C1102.77 -191.523 1104.4 -191.086 1105.68 -191.823C1106.96 -192.559 1107.39 -194.19 1106.66 -195.465C1105.92 -196.741 1104.29 -197.178 1103.01 -196.441ZM759.281 162.526L759.528 162.961L759.781 162.817L759.781 162.526L759.281 162.526ZM532.875 290.732L532.875 291.232L533.006 291.232L533.121 291.167L532.875 290.732ZM427.935 290.732L427.935 290.232L427.801 290.232L427.684 290.3L427.935 290.732ZM759.281 3.63222L759.033 3.19841L758.781 3.34248L758.781 3.63222L759.281 3.63222ZM759.035 162.091L532.628 290.297L533.121 291.167L759.528 162.961L759.035 162.091ZM532.875 290.232L427.935 290.232L427.935 291.232L532.875 291.232L532.875 290.232ZM427.684 290.3L102.315 479.199L102.817 480.064L428.186 291.164L427.684 290.3ZM1104.1 -194.566L759.033 3.19841L759.53 4.06602L1104.6 -193.698L1104.1 -194.566ZM758.781 3.63222L758.781 162.526L759.781 162.526L759.781 3.63222L758.781 3.63222Z" fill="#DCE4F1"/>
<path d="M239.638 464.628L239.887 465.062L240.138 464.918V464.628H239.638ZM-34.5044 621.476V621.976H-34.3714L-34.2561 621.91L-34.5044 621.476ZM-142.934 621.476V620.976H-143.067L-143.182 621.042L-142.934 621.476ZM-309.95 715.585C-309.95 717.058 -308.756 718.252 -307.283 718.252C-305.81 718.252 -304.617 717.058 -304.617 715.585C-304.617 714.112 -305.81 712.918 -307.283 712.918C-308.756 712.918 -309.95 714.112 -309.95 715.585ZM239.138 400.525V464.628H240.138V400.525H239.138ZM239.39 464.194L-34.7527 621.042L-34.2561 621.91L239.887 465.062L239.39 464.194ZM-34.5044 620.976H-142.934V621.976H-34.5044V620.976ZM-143.182 621.042L-307.532 715.151L-307.035 716.019L-142.685 621.91L-143.182 621.042Z" fill="#DCE4F1"/>
<path d="M-43.4132 373.929L-43.6661 373.498L-43.9132 373.643L-43.9132 373.929L-43.4132 373.929ZM697.257 -90.0579C695.981 -89.3216 695.544 -87.6906 696.28 -86.4152C697.017 -85.1398 698.648 -84.7028 699.923 -85.4391C701.199 -86.1755 701.636 -87.8064 700.899 -89.0819C700.163 -90.3573 698.532 -90.7943 697.257 -90.0579ZM455.134 148.887L455.387 149.319L455.634 149.174L455.634 148.887L455.134 148.887ZM254.678 266.182L254.662 266.682L254.806 266.686L254.931 266.613L254.678 266.182ZM146.168 262.772L146.184 262.272L146.04 262.268L145.915 262.341L146.168 262.772ZM-43.4133 436.669L-43.1623 437.101L-42.9133 436.957L-42.9133 436.669L-43.4133 436.669ZM-210.46 530.514C-211.735 531.25 -212.172 532.881 -211.436 534.157C-210.7 535.432 -209.069 535.869 -207.793 535.133C-206.518 534.396 -206.081 532.765 -206.817 531.49C-207.554 530.214 -209.184 529.777 -210.46 530.514ZM455.134 53.4145L454.883 52.982L454.634 53.1265L454.634 53.4145L455.134 53.4145ZM454.882 148.456L254.426 265.75L254.931 266.613L455.387 149.319L454.882 148.456ZM254.694 265.682L146.184 262.272L146.152 263.272L254.662 266.682L254.694 265.682ZM145.915 262.341L-43.6661 373.498L-43.1603 374.361L146.421 263.203L145.915 262.341ZM-43.9132 373.929L-43.9133 436.669L-42.9133 436.669L-42.9132 373.929L-43.9132 373.929ZM-43.6642 436.236L-209.378 532.391L-208.876 533.256L-43.1623 437.101L-43.6642 436.236ZM698.339 -88.1811L454.883 52.982L455.385 53.8471L698.841 -87.316L698.339 -88.1811ZM454.634 53.4145L454.634 148.887L455.634 148.887L455.634 53.4145L454.634 53.4145Z" fill="#DCE4F1"/>
<path d="M564.927 148.205L565.174 148.64L565.427 148.496V148.205H564.927ZM451.785 210.944C451.785 212.417 452.978 213.611 454.451 213.611C455.924 213.611 457.118 212.417 457.118 210.944C457.118 209.472 455.924 208.278 454.451 208.278C452.978 208.278 451.785 209.472 451.785 210.944ZM564.427 -10.6885V148.205H565.427V-10.6885H564.427ZM564.68 147.77L454.204 210.51L454.698 211.379L565.174 148.64L564.68 147.77Z" fill="#DCE4F1"/>
<path d="M-142.973 381.431L-142.724 381.865L-142.473 381.721L-142.473 381.431L-142.973 381.431ZM208.34 -458.309C207.065 -457.573 206.628 -455.942 207.364 -454.667C208.101 -453.391 209.732 -452.954 211.007 -453.691C212.283 -454.427 212.72 -456.058 211.983 -457.333C211.247 -458.609 209.616 -459.046 208.34 -458.309ZM209.674 82.7382L209.929 83.1681L210.174 83.0228L210.174 82.7382L209.674 82.7382ZM100.562 147.523L100.809 147.958L100.818 147.953L100.562 147.523ZM-142.973 285.958L-143.22 285.524L-143.473 285.668L-143.473 285.958L-142.973 285.958ZM-389.156 522.594L-389.156 523.094L-389.023 523.094L-388.908 523.028L-389.156 522.594ZM-748.511 664.175C-749.787 664.912 -750.224 666.543 -749.487 667.818C-748.751 669.094 -747.12 669.531 -745.844 668.794C-744.569 668.058 -744.132 666.427 -744.868 665.152C-745.605 663.876 -747.236 663.439 -748.511 664.175ZM-498.267 522.594L-498.267 522.094L-498.401 522.094L-498.517 522.161L-498.267 522.594ZM209.174 -456L209.174 82.7382L210.174 82.7382L210.174 -456L209.174 -456ZM209.419 82.3083L100.307 147.093L100.818 147.953L209.929 83.1681L209.419 82.3083ZM100.315 147.089L-143.22 285.524L-142.726 286.393L100.809 147.958L100.315 147.089ZM-143.473 285.958L-143.473 381.431L-142.473 381.431L-142.473 285.958L-143.473 285.958ZM-143.221 380.997L-389.405 522.16L-388.908 523.028L-142.724 381.865L-143.221 380.997ZM-389.156 522.094L-498.267 522.094L-498.267 523.094L-389.156 523.094L-389.156 522.094ZM-498.517 522.161L-747.428 666.052L-746.928 666.918L-498.017 523.027L-498.517 522.161Z" fill="#DCE4F1"/>
<path d="M-367.334 274.365L-367.334 274.865L-367.2 274.865L-367.083 274.798L-367.334 274.365ZM-176.297 67.7355L-176.549 67.3034L-176.797 67.448L-176.797 67.7355L-176.297 67.7355ZM-176.297 163.208L-176.046 163.64L-175.797 163.495L-175.797 163.208L-176.297 163.208ZM-588.285 274.365L-588.285 273.865L-588.422 273.865L-588.539 273.935L-588.285 274.365ZM-1025.37 590.525C-1026.65 591.261 -1027.08 592.892 -1026.35 594.168C-1025.61 595.443 -1023.98 595.88 -1022.7 595.144C-1021.43 594.408 -1020.99 592.777 -1021.73 591.501C-1022.46 590.226 -1024.1 589.789 -1025.37 590.525ZM-724.675 354.835L-724.929 354.404L-725.175 354.55L-725.175 354.835L-724.675 354.835ZM-724.675 417.574L-724.422 418.006L-724.175 417.861L-724.175 417.574L-724.675 417.574ZM-176.797 67.7355L-176.797 163.208L-175.797 163.208L-175.797 67.7355L-176.797 67.7355ZM-176.549 162.776L-367.586 273.933L-367.083 274.798L-176.046 163.64L-176.549 162.776ZM-367.334 273.865L-588.285 273.865L-588.285 274.865L-367.334 274.865L-367.334 273.865ZM-588.539 273.935L-724.929 354.404L-724.42 355.266L-588.031 274.796L-588.539 273.935ZM-725.175 354.835L-725.175 417.574L-724.175 417.574L-724.175 354.835L-725.175 354.835ZM-724.927 417.143L-1024.29 592.403L-1023.78 593.266L-724.422 418.006L-724.927 417.143ZM210.063 -157.739L-176.549 67.3034L-176.046 68.1676L210.566 -156.875L210.063 -157.739Z" fill="#DCE4F1"/>
<path d="M1040.04 990.691C1038.77 991.427 1038.33 993.058 1039.07 994.333C1039.8 995.609 1041.43 996.046 1042.71 995.309C1043.99 994.573 1044.42 992.942 1043.69 991.667C1042.95 990.391 1041.32 989.954 1040.04 990.691ZM1934.66 444.691C1933.39 445.427 1932.95 447.058 1933.69 448.333C1934.43 449.609 1936.06 450.046 1937.33 449.309C1938.61 448.573 1939.04 446.942 1938.31 445.667C1937.57 444.391 1935.94 443.954 1934.66 444.691ZM1450.55 720.713L1450.3 720.278L1450.05 720.421L1450.05 720.713L1450.55 720.713ZM1450.55 752.955L1450.8 753.386L1451.05 753.241L1451.05 752.955L1450.55 752.955ZM1450.05 720.713L1450.05 752.955L1451.05 752.955L1451.05 720.713L1450.05 720.713ZM1450.29 752.523L1041.12 992.569L1041.63 993.431L1450.8 753.386L1450.29 752.523ZM1935.75 446.564L1450.3 720.278L1450.79 721.149L1936.24 447.436L1935.75 446.564Z" fill="#DCE4F1"/>
<path d="M-8.62677 147.523V147.023H-8.7577L-8.87182 147.088L-8.62677 147.523ZM-202.921 255.271C-202.921 256.744 -201.727 257.938 -200.254 257.938C-198.781 257.938 -197.587 256.744 -197.587 255.271C-197.587 253.798 -198.781 252.604 -200.254 252.604C-201.727 252.604 -202.921 253.798 -202.921 255.271ZM103.213 147.023H-8.62677V148.023H103.213V147.023ZM-8.87182 147.088L-200.499 254.835L-200.009 255.707L-8.38171 147.959L-8.87182 147.088Z" fill="#DCE4F1"/>
</g>
<g style="mix-blend-mode:multiply" opacity="0.7" filter="url(#filter0_f_1806_44459)">
<path d="M1356 206.64L1272.5 253L1416 338L1498 287.872L1356 206.64Z" fill="url(#paint0_linear_1806_44459)"/>
</g>
<path d="M1375.59 222.642L1295.75 268.656V238.811L1375.59 192.796V222.642Z" fill="#CBD7EB"/>
<path d="M1297.91 240.055L1300.09 238.82V263.668L1297.91 264.925V240.055Z" fill="#B4C5E1"/>
<path d="M1302.8 237.233L1304.98 235.999V260.851L1302.8 262.104V237.233Z" fill="#B4C5E1"/>
<path d="M1307.69 234.413L1309.87 233.183V258.031L1307.69 259.288V234.413Z" fill="#B4C5E1"/>
<path d="M1312.58 231.596L1314.75 230.361V255.209L1312.58 256.467V231.596Z" fill="#B4C5E1"/>
<path d="M1317.48 228.775L1319.65 227.545V252.393L1317.48 253.646V228.775Z" fill="#B4C5E1"/>
<path d="M1322.36 225.958L1324.54 224.724V249.572L1322.36 250.829V225.958Z" fill="#B4C5E1"/>
<path d="M1327.25 223.137L1329.43 221.907V246.755L1327.25 248.008V223.137Z" fill="#B4C5E1"/>
<path d="M1332.14 220.317L1334.32 219.087V243.935L1332.14 245.192V220.317Z" fill="#B4C5E1"/>
<path d="M1337.04 217.5L1339.21 216.266V241.118L1337.04 242.371V217.5Z" fill="#B4C5E1"/>
<path d="M1341.93 214.679L1344.1 213.449V238.297L1341.93 239.55V214.679Z" fill="#B4C5E1"/>
<path d="M1346.82 211.863L1349 210.628V235.476L1346.82 236.733V211.863Z" fill="#B4C5E1"/>
<path d="M1351.71 209.042L1353.89 207.812V232.66L1351.71 233.912V209.042Z" fill="#B4C5E1"/>
<path d="M1356.6 206.226L1358.78 204.991V229.839L1356.6 231.096V206.226Z" fill="#B4C5E1"/>
<path d="M1361.5 203.405L1363.67 202.17V227.022L1361.5 228.275V203.405Z" fill="#B4C5E1"/>
<path d="M1366.38 200.583L1368.56 199.353V224.201L1366.38 225.458V200.583Z" fill="#B4C5E1"/>
<path d="M1371.28 197.767L1373.45 196.532V221.38L1371.28 222.637V197.767Z" fill="#B4C5E1"/>
<path d="M1349.71 177.885L1269.88 223.899L1295.77 238.82L1375.59 192.796L1349.71 177.885Z" fill="#E2EBF7"/>
<path d="M1274.17 223.886L1276.33 222.642L1297.91 235.08L1295.75 236.323L1274.17 223.886Z" fill="#CBD7EB"/>
<path d="M1279.06 221.07L1281.21 219.826L1302.79 232.259L1300.64 233.503L1279.06 221.07Z" fill="#CBD7EB"/>
<path d="M1283.95 218.249L1286.11 217.005L1307.69 229.442L1305.53 230.686L1283.95 218.249Z" fill="#CBD7EB"/>
<path d="M1288.84 215.432L1291 214.188L1312.58 226.626L1310.42 227.865L1288.84 215.432Z" fill="#CBD7EB"/>
<path d="M1293.74 212.616L1295.89 211.372L1317.47 223.805L1315.31 225.049L1293.74 212.616Z" fill="#CBD7EB"/>
<path d="M1298.62 209.795L1300.78 208.551L1322.36 220.988L1320.2 222.232L1298.62 209.795Z" fill="#CBD7EB"/>
<path d="M1303.52 206.978L1305.68 205.734L1327.25 218.167L1325.1 219.411L1303.52 206.978Z" fill="#CBD7EB"/>
<path d="M1308.4 204.157L1310.56 202.913L1332.14 215.351L1329.98 216.594L1308.4 204.157Z" fill="#CBD7EB"/>
<path d="M1313.3 201.34L1315.46 200.097L1337.04 212.534L1334.88 213.773L1313.3 201.34Z" fill="#CBD7EB"/>
<path d="M1318.19 198.52L1320.35 197.28L1341.93 209.713L1339.77 210.957L1318.19 198.52Z" fill="#CBD7EB"/>
<path d="M1323.08 195.703L1325.24 194.459L1346.81 206.897L1344.65 208.141L1323.08 195.703Z" fill="#CBD7EB"/>
<path d="M1327.97 192.887L1330.13 191.643L1351.71 204.076L1349.55 205.32L1327.97 192.887Z" fill="#CBD7EB"/>
<path d="M1332.87 190.066L1335.03 188.822L1356.6 201.259L1354.44 202.503L1332.87 190.066Z" fill="#CBD7EB"/>
<path d="M1337.76 187.25L1339.91 186.006L1361.49 198.443L1359.33 199.687L1337.76 187.25Z" fill="#CBD7EB"/>
<path d="M1342.65 184.428L1344.8 183.189L1366.38 195.622L1364.22 196.866L1342.65 184.428Z" fill="#CBD7EB"/>
<path d="M1347.54 181.612L1349.69 180.368L1371.27 192.806L1369.12 194.049L1347.54 181.612Z" fill="#CBD7EB"/>
<path d="M1269.85 253.73V223.885L1295.75 238.81V268.655L1269.85 253.73Z" fill="white"/>
<path d="M1293.33 239.991L1290.84 238.598L1290.58 263.901L1293.07 265.316L1293.33 239.991Z" fill="#E2EBF7"/>
<path d="M1288.48 237.151L1285.99 235.772L1285.78 261.274L1288.27 262.671L1288.48 237.151Z" fill="#E2EBF7"/>
<path d="M1283.64 234.308L1281.15 232.942L1280.98 258.642L1283.47 260.026L1283.64 234.308Z" fill="#E2EBF7"/>
<path d="M1278.79 231.469L1276.3 230.113L1276.17 256.015L1278.66 257.381L1278.79 231.469Z" fill="#E2EBF7"/>
<path d="M1273.94 228.63L1271.45 227.283L1271.36 253.388L1273.86 254.735L1273.94 228.63Z" fill="#E2EBF7"/>
<path d="M1403 238.642L1323.17 284.656V254.811L1403 208.796V238.642Z" fill="#CBD7EB"/>
<path d="M1325.32 256.055L1327.5 254.82V279.668L1325.32 280.925V256.055Z" fill="#B4C5E1"/>
<path d="M1330.21 253.233L1332.39 251.999V276.851L1330.21 278.104V253.233Z" fill="#B4C5E1"/>
<path d="M1335.11 250.413L1337.28 249.183V274.031L1335.11 275.288V250.413Z" fill="#B4C5E1"/>
<path d="M1339.99 247.596L1342.17 246.361V271.209L1339.99 272.467V247.596Z" fill="#B4C5E1"/>
<path d="M1344.89 244.775L1347.07 243.545V268.393L1344.89 269.646V244.775Z" fill="#B4C5E1"/>
<path d="M1349.78 241.958L1351.95 240.724V265.572L1349.78 266.829V241.958Z" fill="#B4C5E1"/>
<path d="M1354.67 239.137L1356.85 237.907V262.755L1354.67 264.008V239.137Z" fill="#B4C5E1"/>
<path d="M1359.56 236.317L1361.73 235.087V259.935L1359.56 261.192V236.317Z" fill="#B4C5E1"/>
<path d="M1364.45 233.5L1366.63 232.266V257.118L1364.45 258.371V233.5Z" fill="#B4C5E1"/>
<path d="M1369.34 230.679L1371.52 229.449V254.297L1369.34 255.55V230.679Z" fill="#B4C5E1"/>
<path d="M1374.23 227.863L1376.41 226.628V251.476L1374.23 252.733V227.863Z" fill="#B4C5E1"/>
<path d="M1379.12 225.042L1381.3 223.812V248.66L1379.12 249.912V225.042Z" fill="#B4C5E1"/>
<path d="M1384.01 222.226L1386.2 220.991V245.839L1384.01 247.096V222.226Z" fill="#B4C5E1"/>
<path d="M1388.91 219.405L1391.09 218.17V243.022L1388.91 244.275V219.405Z" fill="#B4C5E1"/>
<path d="M1393.8 216.583L1395.98 215.353V240.201L1393.8 241.458V216.583Z" fill="#B4C5E1"/>
<path d="M1398.69 213.767L1400.87 212.532V237.38L1398.69 238.637V213.767Z" fill="#B4C5E1"/>
<path d="M1377.13 193.885L1297.29 239.899L1323.19 254.82L1403 208.796L1377.13 193.885Z" fill="#E2EBF7"/>
<path d="M1301.59 239.886L1303.75 238.643L1325.32 251.08L1323.17 252.324L1301.59 239.886Z" fill="#CBD7EB"/>
<path d="M1306.48 237.07L1308.63 235.826L1330.21 248.259L1328.05 249.503L1306.48 237.07Z" fill="#CBD7EB"/>
<path d="M1311.37 234.249L1313.53 233.005L1335.11 245.442L1332.95 246.686L1311.37 234.249Z" fill="#CBD7EB"/>
<path d="M1316.26 231.432L1318.42 230.188L1339.99 242.626L1337.83 243.865L1316.26 231.432Z" fill="#CBD7EB"/>
<path d="M1321.15 228.616L1323.31 227.372L1344.89 239.805L1342.73 241.049L1321.15 228.616Z" fill="#CBD7EB"/>
<path d="M1326.04 225.795L1328.2 224.551L1349.78 236.988L1347.62 238.232L1326.04 225.795Z" fill="#CBD7EB"/>
<path d="M1330.94 222.978L1333.09 221.734L1354.67 234.167L1352.51 235.411L1330.94 222.978Z" fill="#CBD7EB"/>
<path d="M1335.83 220.157L1337.98 218.913L1359.56 231.351L1357.4 232.594L1335.83 220.157Z" fill="#CBD7EB"/>
<path d="M1340.72 217.34L1342.88 216.097L1364.46 228.534L1362.3 229.773L1340.72 217.34Z" fill="#CBD7EB"/>
<path d="M1345.61 214.52L1347.76 213.28L1369.34 225.713L1367.19 226.957L1345.61 214.52Z" fill="#CBD7EB"/>
<path d="M1350.5 211.703L1352.66 210.459L1374.23 222.897L1372.08 224.141L1350.5 211.703Z" fill="#CBD7EB"/>
<path d="M1355.39 208.887L1357.55 207.643L1379.13 220.076L1376.97 221.32L1355.39 208.887Z" fill="#CBD7EB"/>
<path d="M1360.28 206.066L1362.44 204.822L1384.02 217.259L1381.86 218.503L1360.28 206.066Z" fill="#CBD7EB"/>
<path d="M1365.17 203.25L1367.33 202.006L1388.91 214.443L1386.75 215.687L1365.17 203.25Z" fill="#CBD7EB"/>
<path d="M1370.06 200.428L1372.22 199.189L1393.8 211.622L1391.64 212.866L1370.06 200.428Z" fill="#CBD7EB"/>
<path d="M1374.95 197.612L1377.11 196.368L1398.69 208.806L1396.53 210.049L1374.95 197.612Z" fill="#CBD7EB"/>
<path d="M1297.27 269.731V239.886L1323.16 254.811V284.656L1297.27 269.731Z" fill="white"/>
<path d="M1320.75 255.992L1318.26 254.599L1318 279.902L1320.49 281.317L1320.75 255.992Z" fill="#E2EBF7"/>
<path d="M1315.9 253.152L1313.41 251.773L1313.19 277.275L1315.69 278.672L1315.9 253.152Z" fill="#E2EBF7"/>
<path d="M1311.05 250.309L1308.56 248.943L1308.39 274.643L1310.88 276.027L1311.05 250.309Z" fill="#E2EBF7"/>
<path d="M1306.21 247.47L1303.72 246.114L1303.59 272.016L1306.08 273.382L1306.21 247.47Z" fill="#E2EBF7"/>
<path d="M1301.36 244.631L1298.87 243.284L1298.78 269.389L1301.27 270.736L1301.36 244.631Z" fill="#E2EBF7"/>
<path d="M1403 208.465L1323.17 254.479V224.634L1403 178.62V208.465Z" fill="#CBD7EB"/>
<path d="M1325.32 225.878L1327.5 224.643V249.491L1325.32 250.748V225.878Z" fill="#B4C5E1"/>
<path d="M1330.21 223.057L1332.39 221.822V246.674L1330.21 247.927V223.057Z" fill="#B4C5E1"/>
<path d="M1335.11 220.236L1337.28 219.006V243.854L1335.11 245.111V220.236Z" fill="#B4C5E1"/>
<path d="M1339.99 217.419L1342.17 216.185V241.033L1339.99 242.29V217.419Z" fill="#B4C5E1"/>
<path d="M1344.89 214.598L1347.07 213.368V238.216L1344.89 239.469V214.598Z" fill="#B4C5E1"/>
<path d="M1349.78 211.782L1351.95 210.547V235.395L1349.78 236.652V211.782Z" fill="#B4C5E1"/>
<path d="M1354.67 208.961L1356.85 207.73V232.578L1354.67 233.831V208.961Z" fill="#B4C5E1"/>
<path d="M1359.56 206.14L1361.73 204.91V229.758L1359.56 231.015V206.14Z" fill="#B4C5E1"/>
<path d="M1364.45 203.324L1366.63 202.089V226.941L1364.45 228.194V203.324Z" fill="#B4C5E1"/>
<path d="M1369.34 200.503L1371.52 199.272V224.12L1369.34 225.373V200.503Z" fill="#B4C5E1"/>
<path d="M1374.23 197.686L1376.41 196.451V221.299L1374.23 222.556V197.686Z" fill="#B4C5E1"/>
<path d="M1379.12 194.865L1381.3 193.635V218.483L1379.12 219.736V194.865Z" fill="#B4C5E1"/>
<path d="M1384.01 192.049L1386.2 190.814V215.662L1384.01 216.92V192.049Z" fill="#B4C5E1"/>
<path d="M1388.91 189.228L1391.09 187.993V212.846L1388.91 214.098V189.228Z" fill="#B4C5E1"/>
<path d="M1393.8 186.407L1395.98 185.176V210.024L1393.8 211.282V186.407Z" fill="#B4C5E1"/>
<path d="M1398.69 183.59L1400.87 182.355V207.203L1398.69 208.461V183.59Z" fill="#B4C5E1"/>
<path d="M1377.13 163.708L1297.29 209.723L1323.19 224.643L1403 178.62L1377.13 163.708Z" fill="#E2EBF7"/>
<path d="M1301.59 209.71L1303.75 208.466L1325.32 220.903L1323.17 222.147L1301.59 209.71Z" fill="#CBD7EB"/>
<path d="M1306.48 206.893L1308.63 205.649L1330.21 218.082L1328.05 219.326L1306.48 206.893Z" fill="#CBD7EB"/>
<path d="M1311.37 204.072L1313.53 202.828L1335.11 215.266L1332.95 216.509L1311.37 204.072Z" fill="#CBD7EB"/>
<path d="M1316.26 201.255L1318.42 200.012L1339.99 212.449L1337.83 213.688L1316.26 201.255Z" fill="#CBD7EB"/>
<path d="M1321.15 198.439L1323.31 197.195L1344.89 209.628L1342.73 210.872L1321.15 198.439Z" fill="#CBD7EB"/>
<path d="M1326.04 195.618L1328.2 194.374L1349.78 206.812L1347.62 208.055L1326.04 195.618Z" fill="#CBD7EB"/>
<path d="M1330.94 192.801L1333.09 191.558L1354.67 203.991L1352.51 205.234L1330.94 192.801Z" fill="#CBD7EB"/>
<path d="M1335.83 189.98L1337.98 188.736L1359.56 201.174L1357.4 202.418L1335.83 189.98Z" fill="#CBD7EB"/>
<path d="M1340.72 187.164L1342.88 185.92L1364.46 198.357L1362.3 199.597L1340.72 187.164Z" fill="#CBD7EB"/>
<path d="M1345.61 184.343L1347.76 183.104L1369.34 195.537L1367.19 196.78L1345.61 184.343Z" fill="#CBD7EB"/>
<path d="M1350.5 181.526L1352.66 180.283L1374.23 192.72L1372.08 193.964L1350.5 181.526Z" fill="#CBD7EB"/>
<path d="M1355.39 178.71L1357.55 177.466L1379.13 189.899L1376.97 191.143L1355.39 178.71Z" fill="#CBD7EB"/>
<path d="M1360.28 175.889L1362.44 174.645L1384.02 187.083L1381.86 188.326L1360.28 175.889Z" fill="#CBD7EB"/>
<path d="M1365.17 173.073L1367.33 171.829L1388.91 184.267L1386.75 185.51L1365.17 173.073Z" fill="#CBD7EB"/>
<path d="M1370.06 170.251L1372.22 169.012L1393.8 181.445L1391.64 182.689L1370.06 170.251Z" fill="#CBD7EB"/>
<path d="M1374.95 167.435L1377.11 166.191L1398.69 178.629L1396.53 179.873L1374.95 167.435Z" fill="#CBD7EB"/>
<path d="M1297.27 239.555V209.709L1323.16 224.634V254.48L1297.27 239.555Z" fill="white"/>
<path d="M1320.75 225.815L1318.26 224.422L1318 249.725L1320.49 251.14L1320.75 225.815Z" fill="#E2EBF7"/>
<path d="M1315.9 222.976L1313.41 221.597L1313.19 247.098L1315.69 248.495L1315.9 222.976Z" fill="#E2EBF7"/>
<path d="M1311.05 220.132L1308.56 218.767L1308.39 244.466L1310.88 245.85L1311.05 220.132Z" fill="#E2EBF7"/>
<path d="M1306.21 217.293L1303.72 215.937L1303.59 241.839L1306.08 243.205L1306.21 217.293Z" fill="#E2EBF7"/>
<path d="M1301.36 214.454L1298.87 213.107L1298.78 239.212L1301.27 240.56L1301.36 214.454Z" fill="#E2EBF7"/>
<path d="M1403 177.465L1323.17 223.479V193.633L1403 147.619V177.465Z" fill="#CBD7EB"/>
<path d="M1325.32 194.877L1327.5 193.642V218.49L1325.32 219.747V194.877Z" fill="#B4C5E1"/>
<path d="M1330.21 192.056L1332.39 190.821V215.673L1330.21 216.926V192.056Z" fill="#B4C5E1"/>
<path d="M1335.11 189.235L1337.28 188.005V212.853L1335.11 214.11V189.235Z" fill="#B4C5E1"/>
<path d="M1339.99 186.418L1342.17 185.184V210.032L1339.99 211.289V186.418Z" fill="#B4C5E1"/>
<path d="M1344.89 183.597L1347.07 182.367V207.215L1344.89 208.468V183.597Z" fill="#B4C5E1"/>
<path d="M1349.78 180.781L1351.95 179.546V204.394L1349.78 205.651V180.781Z" fill="#B4C5E1"/>
<path d="M1354.67 177.96L1356.85 176.729V201.577L1354.67 202.83V177.96Z" fill="#B4C5E1"/>
<path d="M1359.56 175.139L1361.73 173.909V198.757L1359.56 200.014V175.139Z" fill="#B4C5E1"/>
<path d="M1364.45 172.323L1366.63 171.088V195.94L1364.45 197.193V172.323Z" fill="#B4C5E1"/>
<path d="M1369.34 169.502L1371.52 168.271V193.119L1369.34 194.372V169.502Z" fill="#B4C5E1"/>
<path d="M1374.23 166.685L1376.41 165.45V190.298L1374.23 191.555V166.685Z" fill="#B4C5E1"/>
<path d="M1379.12 163.864L1381.3 162.634V187.482L1379.12 188.735V163.864Z" fill="#B4C5E1"/>
<path d="M1384.01 161.048L1386.2 159.813V184.661L1384.01 185.919V161.048Z" fill="#B4C5E1"/>
<path d="M1388.91 158.227L1391.09 156.992V181.845L1388.91 183.097V158.227Z" fill="#B4C5E1"/>
<path d="M1393.8 155.406L1395.98 154.175V179.023L1393.8 180.281V155.406Z" fill="#B4C5E1"/>
<path d="M1398.69 152.589L1400.87 151.354V176.202L1398.69 177.46V152.589Z" fill="#B4C5E1"/>
<path d="M1377.13 132.708L1297.29 178.722L1323.19 193.642L1403 147.619L1377.13 132.708Z" fill="#E2EBF7"/>
<path d="M1301.59 178.709L1303.75 177.465L1325.32 189.902L1323.17 191.146L1301.59 178.709Z" fill="#CBD7EB"/>
<path d="M1306.48 175.892L1308.63 174.648L1330.21 187.081L1328.05 188.325L1306.48 175.892Z" fill="#CBD7EB"/>
<path d="M1311.37 173.071L1313.53 171.827L1335.11 184.265L1332.95 185.508L1311.37 173.071Z" fill="#CBD7EB"/>
<path d="M1316.26 170.254L1318.42 169.011L1339.99 181.448L1337.83 182.687L1316.26 170.254Z" fill="#CBD7EB"/>
<path d="M1321.15 167.438L1323.31 166.194L1344.89 178.627L1342.73 179.871L1321.15 167.438Z" fill="#CBD7EB"/>
<path d="M1326.04 164.617L1328.2 163.373L1349.78 175.811L1347.62 177.054L1326.04 164.617Z" fill="#CBD7EB"/>
<path d="M1330.94 161.8L1333.09 160.557L1354.67 172.99L1352.51 174.233L1330.94 161.8Z" fill="#CBD7EB"/>
<path d="M1335.83 158.979L1337.98 157.735L1359.56 170.173L1357.4 171.417L1335.83 158.979Z" fill="#CBD7EB"/>
<path d="M1340.72 156.163L1342.88 154.919L1364.46 167.356L1362.3 168.596L1340.72 156.163Z" fill="#CBD7EB"/>
<path d="M1345.61 153.342L1347.76 152.103L1369.34 164.536L1367.19 165.779L1345.61 153.342Z" fill="#CBD7EB"/>
<path d="M1350.5 150.525L1352.66 149.282L1374.23 161.719L1372.08 162.963L1350.5 150.525Z" fill="#CBD7EB"/>
<path d="M1355.39 147.709L1357.55 146.465L1379.13 158.898L1376.97 160.142L1355.39 147.709Z" fill="#CBD7EB"/>
<path d="M1360.28 144.888L1362.44 143.644L1384.02 156.082L1381.86 157.325L1360.28 144.888Z" fill="#CBD7EB"/>
<path d="M1365.17 142.072L1367.33 140.828L1388.91 153.266L1386.75 154.509L1365.17 142.072Z" fill="#CBD7EB"/>
<path d="M1370.06 139.25L1372.22 138.011L1393.8 150.444L1391.64 151.688L1370.06 139.25Z" fill="#CBD7EB"/>
<path d="M1374.95 136.434L1377.11 135.19L1398.69 147.628L1396.53 148.872L1374.95 136.434Z" fill="#CBD7EB"/>
<path d="M1297.27 208.554V178.708L1323.16 193.633V223.479L1297.27 208.554Z" fill="white"/>
<path d="M1320.75 194.814L1318.26 193.421L1318 218.725L1320.49 220.14L1320.75 194.814Z" fill="#E2EBF7"/>
<path d="M1315.9 191.975L1313.41 190.596L1313.19 216.097L1315.69 217.494L1315.9 191.975Z" fill="#E2EBF7"/>
<path d="M1311.05 189.131L1308.56 187.766L1308.39 213.465L1310.88 214.849L1311.05 189.131Z" fill="#E2EBF7"/>
<path d="M1306.21 186.292L1303.72 184.936L1303.59 210.839L1306.08 212.204L1306.21 186.292Z" fill="#E2EBF7"/>
<path d="M1301.36 183.453L1298.87 182.106L1298.78 208.211L1301.27 209.559L1301.36 183.453Z" fill="#E2EBF7"/>
<path d="M1430.59 254.642L1350.76 300.656V270.811L1430.59 224.796V254.642Z" fill="#CBD7EB"/>
<path d="M1352.92 272.055L1355.09 270.82V295.668L1352.92 296.925V272.055Z" fill="#B4C5E1"/>
<path d="M1357.81 269.233L1359.98 267.999V292.851L1357.81 294.104V269.233Z" fill="#B4C5E1"/>
<path d="M1362.7 266.413L1364.88 265.183V290.031L1362.7 291.288V266.413Z" fill="#B4C5E1"/>
<path d="M1367.59 263.596L1369.76 262.361V287.209L1367.59 288.467V263.596Z" fill="#B4C5E1"/>
<path d="M1372.48 260.775L1374.66 259.545V284.393L1372.48 285.646V260.775Z" fill="#B4C5E1"/>
<path d="M1377.37 257.958L1379.55 256.724V281.572L1377.37 282.829V257.958Z" fill="#B4C5E1"/>
<path d="M1382.26 255.137L1384.44 253.907V278.755L1382.26 280.008V255.137Z" fill="#B4C5E1"/>
<path d="M1387.15 252.317L1389.33 251.087V275.935L1387.15 277.192V252.317Z" fill="#B4C5E1"/>
<path d="M1392.05 249.5L1394.22 248.266V273.118L1392.05 274.371V249.5Z" fill="#B4C5E1"/>
<path d="M1396.93 246.679L1399.11 245.449V270.297L1396.93 271.55V246.679Z" fill="#B4C5E1"/>
<path d="M1401.83 243.863L1404.01 242.628V267.476L1401.83 268.733V243.863Z" fill="#B4C5E1"/>
<path d="M1406.72 241.042L1408.89 239.812V264.66L1406.72 265.912V241.042Z" fill="#B4C5E1"/>
<path d="M1411.61 238.226L1413.79 236.991V261.839L1411.61 263.096V238.226Z" fill="#B4C5E1"/>
<path d="M1416.5 235.405L1418.68 234.17V259.022L1416.5 260.275V235.405Z" fill="#B4C5E1"/>
<path d="M1421.39 232.583L1423.57 231.353V256.201L1421.39 257.458V232.583Z" fill="#B4C5E1"/>
<path d="M1426.28 229.767L1428.46 228.532V253.38L1426.28 254.637V229.767Z" fill="#B4C5E1"/>
<path d="M1404.72 209.885L1324.88 255.9L1350.78 270.82L1430.59 224.797L1404.72 209.885Z" fill="#E2EBF7"/>
<path d="M1329.18 255.886L1331.34 254.643L1352.92 267.08L1350.76 268.324L1329.18 255.886Z" fill="#CBD7EB"/>
<path d="M1334.07 253.07L1336.23 251.826L1357.8 264.259L1355.65 265.503L1334.07 253.07Z" fill="#CBD7EB"/>
<path d="M1338.96 250.249L1341.12 249.005L1362.7 261.442L1360.54 262.686L1338.96 250.249Z" fill="#CBD7EB"/>
<path d="M1343.85 247.432L1346.01 246.188L1367.59 258.626L1365.43 259.865L1343.85 247.432Z" fill="#CBD7EB"/>
<path d="M1348.75 244.616L1350.91 243.372L1372.48 255.805L1370.33 257.049L1348.75 244.616Z" fill="#CBD7EB"/>
<path d="M1353.63 241.795L1355.79 240.551L1377.37 252.988L1375.21 254.232L1353.63 241.795Z" fill="#CBD7EB"/>
<path d="M1358.53 238.978L1360.69 237.734L1382.26 250.167L1380.11 251.411L1358.53 238.978Z" fill="#CBD7EB"/>
<path d="M1363.42 236.157L1365.58 234.913L1387.16 247.351L1385 248.594L1363.42 236.157Z" fill="#CBD7EB"/>
<path d="M1368.32 233.34L1370.48 232.097L1392.05 244.534L1389.9 245.773L1368.32 233.34Z" fill="#CBD7EB"/>
<path d="M1373.2 230.52L1375.36 229.28L1396.94 241.713L1394.78 242.957L1373.2 230.52Z" fill="#CBD7EB"/>
<path d="M1378.1 227.703L1380.25 226.459L1401.83 238.897L1399.67 240.141L1378.1 227.703Z" fill="#CBD7EB"/>
<path d="M1382.99 224.887L1385.14 223.643L1406.72 236.076L1404.56 237.32L1382.99 224.887Z" fill="#CBD7EB"/>
<path d="M1387.88 222.066L1390.03 220.822L1411.61 233.259L1409.45 234.503L1387.88 222.066Z" fill="#CBD7EB"/>
<path d="M1392.77 219.25L1394.92 218.006L1416.5 230.443L1414.35 231.687L1392.77 219.25Z" fill="#CBD7EB"/>
<path d="M1397.66 216.428L1399.82 215.189L1421.39 227.622L1419.23 228.866L1397.66 216.428Z" fill="#CBD7EB"/>
<path d="M1402.55 213.612L1404.71 212.368L1426.29 224.806L1424.13 226.049L1402.55 213.612Z" fill="#CBD7EB"/>
<path d="M1324.86 285.732V255.886L1350.75 270.811V300.657L1324.86 285.732Z" fill="white"/>
<path d="M1348.33 271.993L1345.84 270.6L1345.58 295.903L1348.07 297.318L1348.33 271.993Z" fill="#E2EBF7"/>
<path d="M1343.48 269.153L1340.99 267.774L1340.78 293.276L1343.27 294.673L1343.48 269.153Z" fill="#E2EBF7"/>
<path d="M1338.64 266.31L1336.15 264.944L1335.98 290.644L1338.47 292.027L1338.64 266.31Z" fill="#E2EBF7"/>
<path d="M1333.79 263.471L1331.3 262.114L1331.17 288.017L1333.67 289.382L1333.79 263.471Z" fill="#E2EBF7"/>
<path d="M1328.95 260.632L1326.45 259.284L1326.37 285.389L1328.86 286.737L1328.95 260.632Z" fill="#E2EBF7"/>
<path d="M1430.59 223.897L1350.76 269.911V240.066L1430.59 194.051V223.897Z" fill="#CBD7EB"/>
<path d="M1352.92 241.309L1355.09 240.075V264.923L1352.92 266.18V241.309Z" fill="#B4C5E1"/>
<path d="M1357.81 238.488L1359.98 237.253V262.106L1357.81 263.359V238.488Z" fill="#B4C5E1"/>
<path d="M1362.7 235.668L1364.88 234.438V259.285L1362.7 260.543V235.668Z" fill="#B4C5E1"/>
<path d="M1367.59 232.851L1369.76 231.616V256.464L1367.59 257.721V232.851Z" fill="#B4C5E1"/>
<path d="M1372.48 230.03L1374.66 228.8V253.648L1372.48 254.901V230.03Z" fill="#B4C5E1"/>
<path d="M1377.37 227.213L1379.55 225.979V250.827L1377.37 252.084V227.213Z" fill="#B4C5E1"/>
<path d="M1382.26 224.392L1384.44 223.162V248.01L1382.26 249.263V224.392Z" fill="#B4C5E1"/>
<path d="M1387.15 221.572L1389.33 220.342V245.19L1387.15 246.447V221.572Z" fill="#B4C5E1"/>
<path d="M1392.05 218.755L1394.22 217.521V242.373L1392.05 243.626V218.755Z" fill="#B4C5E1"/>
<path d="M1396.93 215.934L1399.11 214.704V239.552L1396.93 240.805V215.934Z" fill="#B4C5E1"/>
<path d="M1401.83 213.118L1404.01 211.883V236.731L1401.83 237.988V213.118Z" fill="#B4C5E1"/>
<path d="M1406.72 210.297L1408.89 209.066V233.914L1406.72 235.167V210.297Z" fill="#B4C5E1"/>
<path d="M1411.61 207.481L1413.79 206.246V231.094L1411.61 232.351V207.481Z" fill="#B4C5E1"/>
<path d="M1416.5 204.66L1418.68 203.425V228.277L1416.5 229.53V204.66Z" fill="#B4C5E1"/>
<path d="M1421.39 201.838L1423.57 200.608V225.456L1421.39 226.713V201.838Z" fill="#B4C5E1"/>
<path d="M1426.28 199.022L1428.46 197.787V222.635L1426.28 223.892V199.022Z" fill="#B4C5E1"/>
<path d="M1404.72 179.14L1324.88 225.154L1350.78 240.074L1430.59 194.051L1404.72 179.14Z" fill="#E2EBF7"/>
<path d="M1329.18 225.141L1331.34 223.897L1352.92 236.335L1350.76 237.579L1329.18 225.141Z" fill="#CBD7EB"/>
<path d="M1334.07 222.325L1336.23 221.081L1357.8 233.514L1355.65 234.758L1334.07 222.325Z" fill="#CBD7EB"/>
<path d="M1338.96 219.504L1341.12 218.26L1362.7 230.697L1360.54 231.941L1338.96 219.504Z" fill="#CBD7EB"/>
<path d="M1343.85 216.687L1346.01 215.443L1367.59 227.881L1365.43 229.12L1343.85 216.687Z" fill="#CBD7EB"/>
<path d="M1348.75 213.871L1350.91 212.627L1372.48 225.06L1370.33 226.304L1348.75 213.871Z" fill="#CBD7EB"/>
<path d="M1353.63 211.049L1355.79 209.806L1377.37 222.243L1375.21 223.487L1353.63 211.049Z" fill="#CBD7EB"/>
<path d="M1358.53 208.233L1360.69 206.989L1382.26 219.422L1380.11 220.666L1358.53 208.233Z" fill="#CBD7EB"/>
<path d="M1363.42 205.412L1365.58 204.168L1387.16 216.605L1385 217.849L1363.42 205.412Z" fill="#CBD7EB"/>
<path d="M1368.32 202.595L1370.48 201.352L1392.05 213.789L1389.9 215.028L1368.32 202.595Z" fill="#CBD7EB"/>
<path d="M1373.2 199.774L1375.36 198.535L1396.94 210.968L1394.78 212.212L1373.2 199.774Z" fill="#CBD7EB"/>
<path d="M1378.1 196.958L1380.25 195.714L1401.83 208.152L1399.67 209.396L1378.1 196.958Z" fill="#CBD7EB"/>
<path d="M1382.99 194.142L1385.14 192.898L1406.72 205.331L1404.56 206.575L1382.99 194.142Z" fill="#CBD7EB"/>
<path d="M1387.88 191.32L1390.03 190.077L1411.61 202.514L1409.45 203.758L1387.88 191.32Z" fill="#CBD7EB"/>
<path d="M1392.77 188.504L1394.92 187.261L1416.5 199.698L1414.35 200.942L1392.77 188.504Z" fill="#CBD7EB"/>
<path d="M1397.66 185.683L1399.82 184.444L1421.39 196.877L1419.23 198.121L1397.66 185.683Z" fill="#CBD7EB"/>
<path d="M1402.55 182.867L1404.71 181.623L1426.29 194.061L1424.13 195.304L1402.55 182.867Z" fill="#CBD7EB"/>
<path d="M1324.86 254.986V225.14L1350.75 240.065V269.911L1324.86 254.986Z" fill="white"/>
<path d="M1348.33 241.246L1345.84 239.854L1345.58 265.157L1348.07 266.572L1348.33 241.246Z" fill="#E2EBF7"/>
<path d="M1343.48 238.407L1340.99 237.028L1340.78 262.53L1343.27 263.927L1343.48 238.407Z" fill="#E2EBF7"/>
<path d="M1338.64 235.564L1336.15 234.198L1335.98 259.898L1338.47 261.281L1338.64 235.564Z" fill="#E2EBF7"/>
<path d="M1333.79 232.725L1331.3 231.368L1331.17 257.271L1333.67 258.636L1333.79 232.725Z" fill="#E2EBF7"/>
<path d="M1328.95 229.885L1326.45 228.538L1326.37 254.643L1328.86 255.991L1328.95 229.885Z" fill="#E2EBF7"/>
<path d="M1458 270.643L1378.16 316.657V286.812L1458 240.797V270.643Z" fill="#CBD7EB"/>
<path d="M1380.32 288.055L1382.5 286.82V311.668L1380.32 312.926V288.055Z" fill="#B4C5E1"/>
<path d="M1385.21 285.234L1387.38 283.999V308.852L1385.21 310.104V285.234Z" fill="#B4C5E1"/>
<path d="M1390.1 282.413L1392.28 281.183V306.031L1390.1 307.288V282.413Z" fill="#B4C5E1"/>
<path d="M1394.99 279.597L1397.16 278.362V303.21L1394.99 304.467V279.597Z" fill="#B4C5E1"/>
<path d="M1399.89 276.775L1402.06 275.545V300.393L1399.89 301.646V276.775Z" fill="#B4C5E1"/>
<path d="M1404.77 273.959L1406.95 272.724V297.572L1404.77 298.829V273.959Z" fill="#B4C5E1"/>
<path d="M1409.66 271.138L1411.84 269.908V294.756L1409.66 296.009V271.138Z" fill="#B4C5E1"/>
<path d="M1414.56 268.317L1416.73 267.087V291.935L1414.56 293.192V268.317Z" fill="#B4C5E1"/>
<path d="M1419.45 265.501L1421.62 264.266V289.119L1419.45 290.371V265.501Z" fill="#B4C5E1"/>
<path d="M1424.34 262.679L1426.52 261.449V286.297L1424.34 287.55V262.679Z" fill="#B4C5E1"/>
<path d="M1429.23 259.863L1431.41 258.628V283.476L1429.23 284.734V259.863Z" fill="#B4C5E1"/>
<path d="M1434.12 257.043L1436.3 255.812V280.661L1434.12 281.913V257.043Z" fill="#B4C5E1"/>
<path d="M1439.01 254.226L1441.2 252.991V277.839L1439.01 279.096V254.226Z" fill="#B4C5E1"/>
<path d="M1443.91 251.405L1446.08 250.17V275.023L1443.91 276.276V251.405Z" fill="#B4C5E1"/>
<path d="M1448.79 248.584L1450.97 247.354V272.202L1448.79 273.459V248.584Z" fill="#B4C5E1"/>
<path d="M1453.69 245.767L1455.86 244.533V269.381L1453.69 270.638V245.767Z" fill="#B4C5E1"/>
<path d="M1432.13 225.886L1352.29 271.9L1378.18 286.821L1458 240.797L1432.13 225.886Z" fill="#E2EBF7"/>
<path d="M1356.58 271.886L1358.74 270.643L1380.32 283.08L1378.16 284.324L1356.58 271.886Z" fill="#CBD7EB"/>
<path d="M1361.48 269.07L1363.63 267.826L1385.21 280.259L1383.05 281.503L1361.48 269.07Z" fill="#CBD7EB"/>
<path d="M1366.36 266.249L1368.52 265.005L1390.1 277.443L1387.94 278.687L1366.36 266.249Z" fill="#CBD7EB"/>
<path d="M1371.25 263.433L1373.41 262.189L1394.99 274.626L1392.83 275.866L1371.25 263.433Z" fill="#CBD7EB"/>
<path d="M1376.15 260.616L1378.31 259.372L1399.89 271.805L1397.73 273.049L1376.15 260.616Z" fill="#CBD7EB"/>
<path d="M1381.04 257.795L1383.19 256.551L1404.77 268.989L1402.62 270.233L1381.04 257.795Z" fill="#CBD7EB"/>
<path d="M1385.93 254.979L1388.09 253.735L1409.66 266.168L1407.51 267.412L1385.93 254.979Z" fill="#CBD7EB"/>
<path d="M1390.82 252.158L1392.98 250.914L1414.55 263.352L1412.4 264.595L1390.82 252.158Z" fill="#CBD7EB"/>
<path d="M1395.72 249.341L1397.87 248.098L1419.45 260.535L1417.3 261.774L1395.72 249.341Z" fill="#CBD7EB"/>
<path d="M1400.6 246.52L1402.76 245.281L1424.34 257.714L1422.18 258.958L1400.6 246.52Z" fill="#CBD7EB"/>
<path d="M1405.49 243.704L1407.65 242.46L1429.23 254.897L1427.07 256.141L1405.49 243.704Z" fill="#CBD7EB"/>
<path d="M1410.39 240.887L1412.55 239.644L1434.12 252.077L1431.97 253.32L1410.39 240.887Z" fill="#CBD7EB"/>
<path d="M1415.28 238.066L1417.44 236.822L1439.02 249.26L1436.86 250.504L1415.28 238.066Z" fill="#CBD7EB"/>
<path d="M1420.17 235.25L1422.33 234.006L1443.91 246.444L1441.75 247.688L1420.17 235.25Z" fill="#CBD7EB"/>
<path d="M1425.06 232.429L1427.22 231.189L1448.79 243.622L1446.64 244.866L1425.06 232.429Z" fill="#CBD7EB"/>
<path d="M1429.95 229.612L1432.11 228.369L1453.69 240.806L1451.53 242.05L1429.95 229.612Z" fill="#CBD7EB"/>
<path d="M1352.27 301.732V271.887L1378.16 286.812V316.657L1352.27 301.732Z" fill="white"/>
<path d="M1375.75 287.993L1373.26 286.6L1373 311.903L1375.49 313.318L1375.75 287.993Z" fill="#E2EBF7"/>
<path d="M1370.9 285.153L1368.41 283.774L1368.19 309.276L1370.69 310.673L1370.9 285.153Z" fill="#E2EBF7"/>
<path d="M1366.05 282.31L1363.56 280.944L1363.39 306.644L1365.88 308.027L1366.05 282.31Z" fill="#E2EBF7"/>
<path d="M1361.21 279.471L1358.72 278.115L1358.59 304.017L1361.08 305.383L1361.21 279.471Z" fill="#E2EBF7"/>
<path d="M1356.36 276.632L1353.87 275.285L1353.78 301.39L1356.27 302.737L1356.36 276.632Z" fill="#E2EBF7"/>
<path d="M1458 239.466L1378.16 285.48V255.635L1458 209.621V239.466Z" fill="#CBD7EB"/>
<path d="M1380.32 256.879L1382.5 255.644V280.492L1380.32 281.749V256.879Z" fill="#B4C5E1"/>
<path d="M1385.21 254.057L1387.38 252.823V277.675L1385.21 278.928V254.057Z" fill="#B4C5E1"/>
<path d="M1390.1 251.237L1392.28 250.007V274.855L1390.1 276.112V251.237Z" fill="#B4C5E1"/>
<path d="M1394.99 248.42L1397.16 247.186V272.034L1394.99 273.291V248.42Z" fill="#B4C5E1"/>
<path d="M1399.89 245.599L1402.06 244.369V269.217L1399.89 270.47V245.599Z" fill="#B4C5E1"/>
<path d="M1404.77 242.783L1406.95 241.548V266.396L1404.77 267.653V242.783Z" fill="#B4C5E1"/>
<path d="M1409.66 239.962L1411.84 238.731V263.579L1409.66 264.832V239.962Z" fill="#B4C5E1"/>
<path d="M1414.56 237.141L1416.73 235.911V260.759L1414.56 262.016V237.141Z" fill="#B4C5E1"/>
<path d="M1419.45 234.325L1421.62 233.09V257.942L1419.45 259.195V234.325Z" fill="#B4C5E1"/>
<path d="M1424.34 231.504L1426.52 230.273V255.121L1424.34 256.374V231.504Z" fill="#B4C5E1"/>
<path d="M1429.23 228.687L1431.41 227.452V252.3L1429.23 253.557V228.687Z" fill="#B4C5E1"/>
<path d="M1434.12 225.866L1436.3 224.636V249.484L1434.12 250.737V225.866Z" fill="#B4C5E1"/>
<path d="M1439.01 223.05L1441.2 221.815V246.663L1439.01 247.921V223.05Z" fill="#B4C5E1"/>
<path d="M1443.91 220.229L1446.08 218.994V243.847L1443.91 245.099V220.229Z" fill="#B4C5E1"/>
<path d="M1448.79 217.407L1450.97 216.177V241.025L1448.79 242.283V217.407Z" fill="#B4C5E1"/>
<path d="M1453.69 214.591L1455.86 213.356V238.204L1453.69 239.462V214.591Z" fill="#B4C5E1"/>
<path d="M1432.13 194.709L1352.29 240.724L1378.18 255.644L1458 209.621L1432.13 194.709Z" fill="#E2EBF7"/>
<path d="M1356.58 240.711L1358.74 239.467L1380.32 251.904L1378.16 253.148L1356.58 240.711Z" fill="#CBD7EB"/>
<path d="M1361.48 237.894L1363.63 236.65L1385.21 249.083L1383.05 250.327L1361.48 237.894Z" fill="#CBD7EB"/>
<path d="M1366.36 235.073L1368.52 233.829L1390.1 246.267L1387.94 247.51L1366.36 235.073Z" fill="#CBD7EB"/>
<path d="M1371.25 232.256L1373.41 231.013L1394.99 243.45L1392.83 244.689L1371.25 232.256Z" fill="#CBD7EB"/>
<path d="M1376.15 229.44L1378.31 228.196L1399.89 240.629L1397.73 241.873L1376.15 229.44Z" fill="#CBD7EB"/>
<path d="M1381.04 226.619L1383.19 225.375L1404.77 237.813L1402.62 239.056L1381.04 226.619Z" fill="#CBD7EB"/>
<path d="M1385.93 223.802L1388.09 222.559L1409.66 234.992L1407.51 236.235L1385.93 223.802Z" fill="#CBD7EB"/>
<path d="M1390.82 220.981L1392.98 219.737L1414.55 232.175L1412.4 233.419L1390.82 220.981Z" fill="#CBD7EB"/>
<path d="M1395.72 218.165L1397.87 216.921L1419.45 229.358L1417.3 230.598L1395.72 218.165Z" fill="#CBD7EB"/>
<path d="M1400.6 215.344L1402.76 214.104L1424.34 226.537L1422.18 227.781L1400.6 215.344Z" fill="#CBD7EB"/>
<path d="M1405.49 212.527L1407.65 211.284L1429.23 223.721L1427.07 224.965L1405.49 212.527Z" fill="#CBD7EB"/>
<path d="M1410.39 209.711L1412.55 208.467L1434.12 220.9L1431.97 222.144L1410.39 209.711Z" fill="#CBD7EB"/>
<path d="M1415.28 206.89L1417.44 205.646L1439.02 218.084L1436.86 219.327L1415.28 206.89Z" fill="#CBD7EB"/>
<path d="M1420.17 204.074L1422.33 202.83L1443.91 215.268L1441.75 216.511L1420.17 204.074Z" fill="#CBD7EB"/>
<path d="M1425.06 201.252L1427.22 200.013L1448.79 212.446L1446.64 213.69L1425.06 201.252Z" fill="#CBD7EB"/>
<path d="M1429.95 198.436L1432.11 197.192L1453.69 209.63L1451.53 210.874L1429.95 198.436Z" fill="#CBD7EB"/>
<path d="M1352.27 270.555V240.71L1378.16 255.635V285.481L1352.27 270.555Z" fill="white"/>
<path d="M1375.75 256.816L1373.26 255.423L1373 280.726L1375.49 282.141L1375.75 256.816Z" fill="#E2EBF7"/>
<path d="M1370.9 253.977L1368.41 252.598L1368.19 278.099L1370.69 279.496L1370.9 253.977Z" fill="#E2EBF7"/>
<path d="M1366.05 251.133L1363.56 249.768L1363.39 275.467L1365.88 276.851L1366.05 251.133Z" fill="#E2EBF7"/>
<path d="M1361.21 248.294L1358.72 246.938L1358.59 272.84L1361.08 274.206L1361.21 248.294Z" fill="#E2EBF7"/>
<path d="M1356.36 245.455L1353.87 244.108L1353.78 270.213L1356.27 271.561L1356.36 245.455Z" fill="#E2EBF7"/>
<g style="mix-blend-mode:multiply" opacity="0.7" filter="url(#filter1_f_1806_44459)">
<path d="M1060.14 482.932L975.868 529.798L1118.39 612.004L1202.14 564.164L1060.14 482.932Z" fill="url(#paint1_linear_1806_44459)"/>
</g>
<path d="M1079.73 498.933L999.896 544.948V515.102L1079.73 469.088V498.933Z" fill="#CBD7EB"/>
<path d="M1002.06 516.346L1004.23 515.111V539.959L1002.06 541.216V516.346Z" fill="#B4C5E1"/>
<path d="M1006.95 513.524L1009.12 512.29V537.142L1006.95 538.395V513.524Z" fill="#B4C5E1"/>
<path d="M1011.84 510.704L1014.02 509.474V534.322L1011.84 535.579V510.704Z" fill="#B4C5E1"/>
<path d="M1016.73 507.887L1018.9 506.652V531.5L1016.73 532.758V507.887Z" fill="#B4C5E1"/>
<path d="M1021.62 505.066L1023.8 503.835V528.683L1021.62 529.936V505.066Z" fill="#B4C5E1"/>
<path d="M1026.51 502.249L1028.68 501.015V525.863L1026.51 527.12V502.249Z" fill="#B4C5E1"/>
<path d="M1031.4 499.428L1033.58 498.198V523.046L1031.4 524.299V499.428Z" fill="#B4C5E1"/>
<path d="M1036.3 496.608L1038.47 495.378V520.226L1036.3 521.483V496.608Z" fill="#B4C5E1"/>
<path d="M1041.19 493.791L1043.36 492.557V517.409L1041.19 518.662V493.791Z" fill="#B4C5E1"/>
<path d="M1046.08 490.97L1048.25 489.74V514.588L1046.08 515.841V490.97Z" fill="#B4C5E1"/>
<path d="M1050.97 488.154L1053.15 486.919V511.767L1050.97 513.024V488.154Z" fill="#B4C5E1"/>
<path d="M1055.86 485.333L1058.04 484.103V508.95L1055.86 510.203V485.333Z" fill="#B4C5E1"/>
<path d="M1060.75 482.516L1062.93 481.282V506.13L1060.75 507.387V482.516Z" fill="#B4C5E1"/>
<path d="M1065.64 479.695L1067.82 478.46V503.313L1065.64 504.566V479.695Z" fill="#B4C5E1"/>
<path d="M1070.53 476.874L1072.71 475.644V500.492L1070.53 501.749V476.874Z" fill="#B4C5E1"/>
<path d="M1075.43 474.058L1077.6 472.823V497.671L1075.43 498.928V474.058Z" fill="#B4C5E1"/>
<path d="M1053.86 454.177L974.024 500.191L999.919 515.111L1079.73 469.088L1053.86 454.177Z" fill="#E2EBF7"/>
<path d="M978.322 500.177L980.48 498.934L1002.06 511.371L999.901 512.615L978.322 500.177Z" fill="#CBD7EB"/>
<path d="M983.215 497.36L985.368 496.117L1006.95 508.55L1004.79 509.793L983.215 497.36Z" fill="#CBD7EB"/>
<path d="M988.103 494.539L990.261 493.295L1011.84 505.733L1009.68 506.977L988.103 494.539Z" fill="#CBD7EB"/>
<path d="M992.992 491.723L995.154 490.479L1016.73 502.917L1014.57 504.156L992.992 491.723Z" fill="#CBD7EB"/>
<path d="M997.888 488.906L1000.05 487.663L1021.62 500.096L1019.47 501.339L997.888 488.906Z" fill="#CBD7EB"/>
<path d="M1002.77 486.086L1004.93 484.842L1026.51 497.279L1024.35 498.523L1002.77 486.086Z" fill="#CBD7EB"/>
<path d="M1007.67 483.269L1009.83 482.025L1031.4 494.458L1029.25 495.702L1007.67 483.269Z" fill="#CBD7EB"/>
<path d="M1012.56 480.448L1014.72 479.204L1036.3 491.642L1034.14 492.885L1012.56 480.448Z" fill="#CBD7EB"/>
<path d="M1017.45 477.631L1019.61 476.388L1041.19 488.825L1039.03 490.064L1017.45 477.631Z" fill="#CBD7EB"/>
<path d="M1022.34 474.811L1024.5 473.571L1046.08 486.004L1043.92 487.248L1022.34 474.811Z" fill="#CBD7EB"/>
<path d="M1027.23 471.994L1029.39 470.75L1050.96 483.188L1048.8 484.432L1027.23 471.994Z" fill="#CBD7EB"/>
<path d="M1032.13 469.178L1034.28 467.934L1055.86 480.367L1053.71 481.611L1032.13 469.178Z" fill="#CBD7EB"/>
<path d="M1037.02 466.357L1039.18 465.113L1060.75 477.551L1058.59 478.795L1037.02 466.357Z" fill="#CBD7EB"/>
<path d="M1041.91 463.541L1044.07 462.297L1065.64 474.734L1063.49 475.978L1041.91 463.541Z" fill="#CBD7EB"/>
<path d="M1046.8 460.719L1048.96 459.48L1070.53 471.913L1068.37 473.157L1046.8 460.719Z" fill="#CBD7EB"/>
<path d="M1051.69 457.903L1053.85 456.659L1075.43 469.097L1073.27 470.34L1051.69 457.903Z" fill="#CBD7EB"/>
<path d="M974 530.022V500.177L999.895 515.102V544.947L974 530.022Z" fill="white"/>
<path d="M997.482 516.283L994.99 514.891L994.733 540.194L997.225 541.609L997.482 516.283Z" fill="#E2EBF7"/>
<path d="M992.631 513.444L990.139 512.065L989.927 537.566L992.419 538.963L992.631 513.444Z" fill="#E2EBF7"/>
<path d="M987.783 510.6L985.291 509.234L985.12 534.934L987.612 536.317L987.783 510.6Z" fill="#E2EBF7"/>
<path d="M982.938 507.761L980.446 506.405L980.319 532.307L982.811 533.673L982.938 507.761Z" fill="#E2EBF7"/>
<path d="M978.09 504.922L975.598 503.574L975.512 529.679L978.004 531.027L978.09 504.922Z" fill="#E2EBF7"/>
<path d="M1107.14 514.934L1027.3 560.948V531.103L1107.14 485.088V514.934Z" fill="#CBD7EB"/>
<path d="M1029.46 532.347L1031.63 531.112V555.96L1029.46 557.217V532.347Z" fill="#B4C5E1"/>
<path d="M1034.35 529.525L1036.52 528.291V553.143L1034.35 554.396V529.525Z" fill="#B4C5E1"/>
<path d="M1039.24 526.705L1041.41 525.475V550.323L1039.24 551.58V526.705Z" fill="#B4C5E1"/>
<path d="M1044.13 523.888L1046.3 522.653V547.501L1044.13 548.759V523.888Z" fill="#B4C5E1"/>
<path d="M1049.02 521.067L1051.2 519.836V544.684L1049.02 545.937V521.067Z" fill="#B4C5E1"/>
<path d="M1053.91 518.25L1056.08 517.016V541.864L1053.91 543.121V518.25Z" fill="#B4C5E1"/>
<path d="M1058.8 515.429L1060.98 514.199V539.047L1058.8 540.3V515.429Z" fill="#B4C5E1"/>
<path d="M1063.7 512.609L1065.88 511.379V536.227L1063.7 537.484V512.609Z" fill="#B4C5E1"/>
<path d="M1068.58 509.792L1070.76 508.558V533.41L1068.58 534.663V509.792Z" fill="#B4C5E1"/>
<path d="M1073.48 506.971L1075.65 505.741V530.589L1073.48 531.842V506.971Z" fill="#B4C5E1"/>
<path d="M1078.37 504.155L1080.55 502.92V527.768L1078.37 529.025V504.155Z" fill="#B4C5E1"/>
<path d="M1083.26 501.334L1085.43 500.104V524.951L1083.26 526.204V501.334Z" fill="#B4C5E1"/>
<path d="M1088.15 498.518L1090.33 497.283V522.131L1088.15 523.388V498.518Z" fill="#B4C5E1"/>
<path d="M1093.04 495.697L1095.22 494.462V519.314L1093.04 520.567V495.697Z" fill="#B4C5E1"/>
<path d="M1097.93 492.875L1100.11 491.645V516.493L1097.93 517.75V492.875Z" fill="#B4C5E1"/>
<path d="M1102.82 490.059L1105 488.824V513.672L1102.82 514.929V490.059Z" fill="#B4C5E1"/>
<path d="M1081.27 470.177L1001.43 516.191L1027.33 531.112L1107.14 485.089L1081.27 470.177Z" fill="#E2EBF7"/>
<path d="M1005.72 516.178L1007.88 514.934L1029.46 527.372L1027.3 528.615L1005.72 516.178Z" fill="#CBD7EB"/>
<path d="M1010.62 513.361L1012.77 512.118L1034.35 524.551L1032.19 525.794L1010.62 513.361Z" fill="#CBD7EB"/>
<path d="M1015.51 510.541L1017.66 509.297L1039.24 521.734L1037.08 522.978L1015.51 510.541Z" fill="#CBD7EB"/>
<path d="M1020.39 507.724L1022.56 506.48L1044.13 518.918L1041.97 520.157L1020.39 507.724Z" fill="#CBD7EB"/>
<path d="M1025.29 504.908L1027.45 503.664L1049.03 516.097L1046.87 517.341L1025.29 504.908Z" fill="#CBD7EB"/>
<path d="M1030.18 502.087L1032.34 500.843L1053.91 513.28L1051.76 514.524L1030.18 502.087Z" fill="#CBD7EB"/>
<path d="M1035.07 499.27L1037.23 498.026L1058.8 510.459L1056.65 511.703L1035.07 499.27Z" fill="#CBD7EB"/>
<path d="M1039.97 496.449L1042.12 495.205L1063.7 507.643L1061.55 508.886L1039.97 496.449Z" fill="#CBD7EB"/>
<path d="M1044.86 493.632L1047.01 492.389L1068.59 504.826L1066.44 506.065L1044.86 493.632Z" fill="#CBD7EB"/>
<path d="M1049.74 490.812L1051.9 489.572L1073.48 502.005L1071.32 503.249L1049.74 490.812Z" fill="#CBD7EB"/>
<path d="M1054.63 487.995L1056.79 486.751L1078.37 499.189L1076.21 500.433L1054.63 487.995Z" fill="#CBD7EB"/>
<path d="M1059.53 485.179L1061.69 483.935L1083.27 496.368L1081.11 497.612L1059.53 485.179Z" fill="#CBD7EB"/>
<path d="M1064.42 482.358L1066.58 481.114L1088.15 493.551L1085.99 494.795L1064.42 482.358Z" fill="#CBD7EB"/>
<path d="M1069.31 479.542L1071.47 478.298L1093.05 490.735L1090.89 491.979L1069.31 479.542Z" fill="#CBD7EB"/>
<path d="M1074.2 476.72L1076.36 475.481L1097.93 487.914L1095.77 489.158L1074.2 476.72Z" fill="#CBD7EB"/>
<path d="M1079.09 473.904L1081.25 472.66L1102.83 485.098L1100.67 486.341L1079.09 473.904Z" fill="#CBD7EB"/>
<path d="M1001.41 546.023V516.177L1027.31 531.102V560.948L1001.41 546.023Z" fill="white"/>
<path d="M1024.89 532.283L1022.4 530.891L1022.15 556.194L1024.64 557.609L1024.89 532.283Z" fill="#E2EBF7"/>
<path d="M1020.04 529.444L1017.55 528.065L1017.34 553.567L1019.83 554.964L1020.04 529.444Z" fill="#E2EBF7"/>
<path d="M1015.2 526.601L1012.7 525.235L1012.53 550.935L1015.02 552.318L1015.2 526.601Z" fill="#E2EBF7"/>
<path d="M1010.35 523.762L1007.86 522.405L1007.73 548.308L1010.22 549.673L1010.35 523.762Z" fill="#E2EBF7"/>
<path d="M1005.5 520.923L1003.01 519.575L1002.92 545.68L1005.42 547.028L1005.5 520.923Z" fill="#E2EBF7"/>
<path d="M1107.14 484.757L1027.3 530.771V500.926L1107.14 454.912V484.757Z" fill="#CBD7EB"/>
<path d="M1029.46 502.17L1031.63 500.935V525.783L1029.46 527.04V502.17Z" fill="#B4C5E1"/>
<path d="M1034.35 499.349L1036.52 498.114V522.966L1034.35 524.219V499.349Z" fill="#B4C5E1"/>
<path d="M1039.24 496.528L1041.41 495.298V520.146L1039.24 521.403V496.528Z" fill="#B4C5E1"/>
<path d="M1044.13 493.711L1046.3 492.477V517.324L1044.13 518.582V493.711Z" fill="#B4C5E1"/>
<path d="M1049.02 490.89L1051.2 489.66V514.508L1049.02 515.76V490.89Z" fill="#B4C5E1"/>
<path d="M1053.91 488.074L1056.09 486.839V511.687L1053.91 512.944V488.074Z" fill="#B4C5E1"/>
<path d="M1058.8 485.253L1060.98 484.022V508.87L1058.8 510.123V485.253Z" fill="#B4C5E1"/>
<path d="M1063.7 482.432L1065.88 481.202V506.05L1063.7 507.307V482.432Z" fill="#B4C5E1"/>
<path d="M1068.58 479.616L1070.76 478.381V503.233L1068.58 504.486V479.616Z" fill="#B4C5E1"/>
<path d="M1073.48 476.795L1075.65 475.564V500.412L1073.48 501.665V476.795Z" fill="#B4C5E1"/>
<path d="M1078.37 473.978L1080.55 472.743V497.591L1078.37 498.848V473.978Z" fill="#B4C5E1"/>
<path d="M1083.26 471.157L1085.43 469.927V494.775L1083.26 496.027V471.157Z" fill="#B4C5E1"/>
<path d="M1088.15 468.341L1090.33 467.106V491.954L1088.15 493.212V468.341Z" fill="#B4C5E1"/>
<path d="M1093.04 465.52L1095.22 464.285V489.138L1093.04 490.39V465.52Z" fill="#B4C5E1"/>
<path d="M1097.93 462.698L1100.11 461.468V486.316L1097.93 487.573V462.698Z" fill="#B4C5E1"/>
<path d="M1102.82 459.882L1105 458.647V483.495L1102.82 484.753V459.882Z" fill="#B4C5E1"/>
<path d="M1081.27 440L1001.43 486.014L1027.33 500.935L1107.14 454.911L1081.27 440Z" fill="#E2EBF7"/>
<path d="M1005.72 486.001L1007.88 484.757L1029.46 497.194L1027.3 498.438L1005.72 486.001Z" fill="#CBD7EB"/>
<path d="M1010.62 483.184L1012.77 481.94L1034.35 494.373L1032.19 495.617L1010.62 483.184Z" fill="#CBD7EB"/>
<path d="M1015.51 480.363L1017.66 479.119L1039.24 491.557L1037.08 492.8L1015.51 480.363Z" fill="#CBD7EB"/>
<path d="M1020.39 477.546L1022.56 476.303L1044.13 488.74L1041.97 489.979L1020.39 477.546Z" fill="#CBD7EB"/>
<path d="M1025.29 474.73L1027.45 473.486L1049.03 485.919L1046.87 487.163L1025.29 474.73Z" fill="#CBD7EB"/>
<path d="M1030.18 471.909L1032.34 470.666L1053.91 483.103L1051.76 484.347L1030.18 471.909Z" fill="#CBD7EB"/>
<path d="M1035.07 469.092L1037.23 467.849L1058.8 480.282L1056.65 481.525L1035.07 469.092Z" fill="#CBD7EB"/>
<path d="M1039.97 466.272L1042.12 465.028L1063.7 477.465L1061.55 478.709L1039.97 466.272Z" fill="#CBD7EB"/>
<path d="M1044.86 463.456L1047.01 462.212L1068.59 474.649L1066.44 475.889L1044.86 463.456Z" fill="#CBD7EB"/>
<path d="M1049.74 460.634L1051.9 459.395L1073.48 471.828L1071.32 473.072L1049.74 460.634Z" fill="#CBD7EB"/>
<path d="M1054.63 457.818L1056.79 456.574L1078.37 469.012L1076.21 470.255L1054.63 457.818Z" fill="#CBD7EB"/>
<path d="M1059.53 455.002L1061.69 453.758L1083.27 466.191L1081.11 467.435L1059.53 455.002Z" fill="#CBD7EB"/>
<path d="M1064.42 452.18L1066.58 450.937L1088.15 463.374L1085.99 464.618L1064.42 452.18Z" fill="#CBD7EB"/>
<path d="M1069.31 449.364L1071.47 448.12L1093.05 460.558L1090.89 461.801L1069.31 449.364Z" fill="#CBD7EB"/>
<path d="M1074.2 446.543L1076.36 445.304L1097.93 457.737L1095.77 458.98L1074.2 446.543Z" fill="#CBD7EB"/>
<path d="M1079.09 443.727L1081.25 442.483L1102.83 454.92L1100.67 456.164L1079.09 443.727Z" fill="#CBD7EB"/>
<path d="M1001.41 515.846V486L1027.31 500.925V530.771L1001.41 515.846Z" fill="white"/>
<path d="M1024.89 502.106L1022.4 500.714L1022.15 526.017L1024.64 527.432L1024.89 502.106Z" fill="#E2EBF7"/>
<path d="M1020.04 499.268L1017.55 497.889L1017.34 523.39L1019.83 524.787L1020.04 499.268Z" fill="#E2EBF7"/>
<path d="M1015.2 496.424L1012.7 495.059L1012.53 520.758L1015.02 522.142L1015.2 496.424Z" fill="#E2EBF7"/>
<path d="M1010.35 493.585L1007.86 492.229L1007.73 518.131L1010.22 519.496L1010.35 493.585Z" fill="#E2EBF7"/>
<path d="M1005.5 490.746L1003.01 489.398L1002.92 515.504L1005.42 516.851L1005.5 490.746Z" fill="#E2EBF7"/>
<path d="M1134.73 530.934L1054.89 576.948V547.103L1134.73 501.088V530.934Z" fill="#CBD7EB"/>
<path d="M1057.05 548.347L1059.23 547.112V571.96L1057.05 573.217V548.347Z" fill="#B4C5E1"/>
<path d="M1061.94 545.525L1064.12 544.291V569.143L1061.94 570.396V545.525Z" fill="#B4C5E1"/>
<path d="M1066.84 542.705L1069.01 541.475V566.323L1066.84 567.58V542.705Z" fill="#B4C5E1"/>
<path d="M1071.72 539.888L1073.9 538.653V563.501L1071.72 564.759V539.888Z" fill="#B4C5E1"/>
<path d="M1076.62 537.067L1078.8 535.836V560.684L1076.62 561.937V537.067Z" fill="#B4C5E1"/>
<path d="M1081.5 534.25L1083.68 533.016V557.864L1081.5 559.121V534.25Z" fill="#B4C5E1"/>
<path d="M1086.4 531.429L1088.58 530.199V555.047L1086.4 556.3V531.429Z" fill="#B4C5E1"/>
<path d="M1091.29 528.609L1093.47 527.379V552.227L1091.29 553.484V528.609Z" fill="#B4C5E1"/>
<path d="M1096.18 525.792L1098.36 524.558V549.41L1096.18 550.663V525.792Z" fill="#B4C5E1"/>
<path d="M1101.07 522.971L1103.25 521.741V546.589L1101.07 547.842V522.971Z" fill="#B4C5E1"/>
<path d="M1105.96 520.155L1108.14 518.92V543.768L1105.96 545.025V520.155Z" fill="#B4C5E1"/>
<path d="M1110.86 517.334L1113.03 516.104V540.951L1110.86 542.204V517.334Z" fill="#B4C5E1"/>
<path d="M1115.74 514.518L1117.92 513.283V538.131L1115.74 539.388V514.518Z" fill="#B4C5E1"/>
<path d="M1120.64 511.697L1122.82 510.462V535.314L1120.64 536.567V511.697Z" fill="#B4C5E1"/>
<path d="M1125.53 508.875L1127.71 507.645V532.493L1125.53 533.75V508.875Z" fill="#B4C5E1"/>
<path d="M1130.42 506.059L1132.6 504.824V529.672L1130.42 530.929V506.059Z" fill="#B4C5E1"/>
<path d="M1108.86 486.177L1029.02 532.191L1054.92 547.111L1134.73 501.088L1108.86 486.177Z" fill="#E2EBF7"/>
<path d="M1033.31 532.177L1035.47 530.934L1057.05 543.371L1054.89 544.615L1033.31 532.177Z" fill="#CBD7EB"/>
<path d="M1038.21 529.361L1040.36 528.117L1061.94 540.55L1059.78 541.794L1038.21 529.361Z" fill="#CBD7EB"/>
<path d="M1043.1 526.54L1045.25 525.296L1066.83 537.733L1064.67 538.977L1043.1 526.54Z" fill="#CBD7EB"/>
<path d="M1047.98 523.723L1050.14 522.479L1071.72 534.917L1069.56 536.156L1047.98 523.723Z" fill="#CBD7EB"/>
<path d="M1052.88 520.907L1055.04 519.663L1076.62 532.096L1074.46 533.34L1052.88 520.907Z" fill="#CBD7EB"/>
<path d="M1057.76 518.086L1059.92 516.842L1081.5 529.28L1079.34 530.524L1057.76 518.086Z" fill="#CBD7EB"/>
<path d="M1062.66 515.269L1064.82 514.025L1086.39 526.458L1084.24 527.702L1062.66 515.269Z" fill="#CBD7EB"/>
<path d="M1067.55 512.448L1069.71 511.205L1091.29 523.642L1089.13 524.886L1067.55 512.448Z" fill="#CBD7EB"/>
<path d="M1072.45 509.632L1074.6 508.389L1096.18 520.826L1094.03 522.065L1072.45 509.632Z" fill="#CBD7EB"/>
<path d="M1077.33 506.811L1079.49 505.572L1101.07 518.005L1098.91 519.249L1077.33 506.811Z" fill="#CBD7EB"/>
<path d="M1082.22 503.995L1084.38 502.751L1105.96 515.188L1103.8 516.432L1082.22 503.995Z" fill="#CBD7EB"/>
<path d="M1087.12 501.178L1089.28 499.935L1110.86 512.368L1108.7 513.611L1087.12 501.178Z" fill="#CBD7EB"/>
<path d="M1092.01 498.357L1094.17 497.113L1115.74 509.551L1113.58 510.795L1092.01 498.357Z" fill="#CBD7EB"/>
<path d="M1096.9 495.541L1099.06 494.297L1120.64 506.734L1118.48 507.978L1096.9 495.541Z" fill="#CBD7EB"/>
<path d="M1101.79 492.72L1103.95 491.48L1125.52 503.913L1123.36 505.157L1101.79 492.72Z" fill="#CBD7EB"/>
<path d="M1106.68 489.903L1108.84 488.66L1130.42 501.097L1128.26 502.341L1106.68 489.903Z" fill="#CBD7EB"/>
<path d="M1029 562.023V532.177L1054.89 547.102V576.948L1029 562.023Z" fill="white"/>
<path d="M1052.48 548.283L1049.98 546.891L1049.73 572.194L1052.22 573.609L1052.48 548.283Z" fill="#E2EBF7"/>
<path d="M1047.62 545.444L1045.13 544.065L1044.92 569.567L1047.41 570.964L1047.62 545.444Z" fill="#E2EBF7"/>
<path d="M1042.78 542.601L1040.29 541.235L1040.12 566.935L1042.61 568.318L1042.78 542.601Z" fill="#E2EBF7"/>
<path d="M1037.93 539.762L1035.44 538.405L1035.32 564.308L1037.81 565.673L1037.93 539.762Z" fill="#E2EBF7"/>
<path d="M1033.09 536.923L1030.59 535.575L1030.51 561.68L1033 563.028L1033.09 536.923Z" fill="#E2EBF7"/>
<path d="M1134.73 500.757L1054.89 546.771V516.925L1134.73 470.911V500.757Z" fill="#CBD7EB"/>
<path d="M1057.05 518.169L1059.23 516.934V541.782L1057.05 543.039V518.169Z" fill="#B4C5E1"/>
<path d="M1061.94 515.348L1064.12 514.113V538.965L1061.94 540.218V515.348Z" fill="#B4C5E1"/>
<path d="M1066.84 512.527L1069.01 511.297V536.145L1066.84 537.402V512.527Z" fill="#B4C5E1"/>
<path d="M1071.72 509.71L1073.9 508.476V533.324L1071.72 534.581V509.71Z" fill="#B4C5E1"/>
<path d="M1076.62 506.889L1078.8 505.659V530.507L1076.62 531.759V506.889Z" fill="#B4C5E1"/>
<path d="M1081.5 504.073L1083.68 502.838V527.686L1081.5 528.943V504.073Z" fill="#B4C5E1"/>
<path d="M1086.4 501.252L1088.58 500.021V524.869L1086.4 526.122V501.252Z" fill="#B4C5E1"/>
<path d="M1091.29 498.431L1093.47 497.201V522.049L1091.29 523.306V498.431Z" fill="#B4C5E1"/>
<path d="M1096.18 495.615L1098.36 494.38V519.232L1096.18 520.485V495.615Z" fill="#B4C5E1"/>
<path d="M1101.07 492.794L1103.25 491.563V516.411L1101.07 517.664V492.794Z" fill="#B4C5E1"/>
<path d="M1105.96 489.977L1108.14 488.742V513.59L1105.96 514.847V489.977Z" fill="#B4C5E1"/>
<path d="M1110.86 487.156L1113.03 485.926V510.774L1110.86 512.026V487.156Z" fill="#B4C5E1"/>
<path d="M1115.74 484.34L1117.92 483.105V507.953L1115.74 509.211V484.34Z" fill="#B4C5E1"/>
<path d="M1120.64 481.519L1122.82 480.284V505.137L1120.64 506.389V481.519Z" fill="#B4C5E1"/>
<path d="M1125.53 478.698L1127.71 477.467V502.315L1125.53 503.572V478.698Z" fill="#B4C5E1"/>
<path d="M1130.42 475.881L1132.6 474.646V499.494L1130.42 500.752V475.881Z" fill="#B4C5E1"/>
<path d="M1108.86 456L1029.02 502.014L1054.92 516.935L1134.73 470.911L1108.86 456Z" fill="#E2EBF7"/>
<path d="M1033.31 502.001L1035.47 500.757L1057.05 513.195L1054.89 514.439L1033.31 502.001Z" fill="#CBD7EB"/>
<path d="M1038.21 499.185L1040.36 497.941L1061.94 510.374L1059.78 511.618L1038.21 499.185Z" fill="#CBD7EB"/>
<path d="M1043.1 496.364L1045.25 495.12L1066.83 507.558L1064.67 508.801L1043.1 496.364Z" fill="#CBD7EB"/>
<path d="M1047.98 493.547L1050.14 492.304L1071.72 504.741L1069.56 505.98L1047.98 493.547Z" fill="#CBD7EB"/>
<path d="M1052.88 490.731L1055.04 489.487L1076.62 501.92L1074.46 503.164L1052.88 490.731Z" fill="#CBD7EB"/>
<path d="M1057.76 487.91L1059.92 486.666L1081.5 499.104L1079.34 500.347L1057.76 487.91Z" fill="#CBD7EB"/>
<path d="M1062.66 485.093L1064.82 483.85L1086.39 496.283L1084.24 497.526L1062.66 485.093Z" fill="#CBD7EB"/>
<path d="M1067.55 482.272L1069.71 481.028L1091.29 493.466L1089.13 494.71L1067.55 482.272Z" fill="#CBD7EB"/>
<path d="M1072.45 479.456L1074.6 478.212L1096.18 490.649L1094.03 491.889L1072.45 479.456Z" fill="#CBD7EB"/>
<path d="M1077.33 476.635L1079.49 475.396L1101.07 487.828L1098.91 489.072L1077.33 476.635Z" fill="#CBD7EB"/>
<path d="M1082.22 473.818L1084.38 472.575L1105.96 485.012L1103.8 486.256L1082.22 473.818Z" fill="#CBD7EB"/>
<path d="M1087.12 471.002L1089.28 469.758L1110.86 482.191L1108.7 483.435L1087.12 471.002Z" fill="#CBD7EB"/>
<path d="M1092.01 468.181L1094.17 466.937L1115.74 479.374L1113.58 480.618L1092.01 468.181Z" fill="#CBD7EB"/>
<path d="M1096.9 465.365L1099.06 464.121L1120.64 476.559L1118.48 477.802L1096.9 465.365Z" fill="#CBD7EB"/>
<path d="M1101.79 462.543L1103.95 461.304L1125.52 473.737L1123.36 474.981L1101.79 462.543Z" fill="#CBD7EB"/>
<path d="M1106.68 459.727L1108.84 458.483L1130.42 470.921L1128.26 472.165L1106.68 459.727Z" fill="#CBD7EB"/>
<path d="M1029 531.846V502L1054.89 516.925V546.771L1029 531.846Z" fill="white"/>
<path d="M1052.48 518.106L1049.98 516.714L1049.73 542.017L1052.22 543.432L1052.48 518.106Z" fill="#E2EBF7"/>
<path d="M1047.62 515.268L1045.13 513.889L1044.92 539.39L1047.41 540.787L1047.62 515.268Z" fill="#E2EBF7"/>
<path d="M1042.78 512.424L1040.29 511.059L1040.12 536.758L1042.61 538.142L1042.78 512.424Z" fill="#E2EBF7"/>
<path d="M1037.93 509.585L1035.44 508.229L1035.32 534.131L1037.81 535.496L1037.93 509.585Z" fill="#E2EBF7"/>
<path d="M1033.09 506.746L1030.59 505.398L1030.51 531.504L1033 532.851L1033.09 506.746Z" fill="#E2EBF7"/>
<path d="M1162.16 546.934L1082.32 592.949V563.103L1162.16 517.089V546.934Z" fill="#CBD7EB"/>
<path d="M1084.48 564.347L1086.65 563.112V587.96L1084.48 589.217V564.347Z" fill="#B4C5E1"/>
<path d="M1089.36 561.525L1091.54 560.291V585.143L1089.36 586.396V561.525Z" fill="#B4C5E1"/>
<path d="M1094.26 558.705L1096.43 557.475V582.323L1094.26 583.58V558.705Z" fill="#B4C5E1"/>
<path d="M1099.14 555.888L1101.32 554.653V579.501L1099.14 580.759V555.888Z" fill="#B4C5E1"/>
<path d="M1104.04 553.067L1106.22 551.836V576.684L1104.04 577.937V553.067Z" fill="#B4C5E1"/>
<path d="M1108.93 550.25L1111.1 549.016V573.864L1108.93 575.121V550.25Z" fill="#B4C5E1"/>
<path d="M1113.82 547.429L1116 546.199V571.047L1113.82 572.3V547.429Z" fill="#B4C5E1"/>
<path d="M1118.71 544.609L1120.89 543.379V568.227L1118.71 569.484V544.609Z" fill="#B4C5E1"/>
<path d="M1123.61 541.792L1125.78 540.558V565.41L1123.61 566.663V541.792Z" fill="#B4C5E1"/>
<path d="M1128.5 538.971L1130.67 537.741V562.589L1128.5 563.842V538.971Z" fill="#B4C5E1"/>
<path d="M1133.38 536.155L1135.56 534.92V559.768L1133.38 561.025V536.155Z" fill="#B4C5E1"/>
<path d="M1138.28 533.334L1140.45 532.104V556.951L1138.28 558.204V533.334Z" fill="#B4C5E1"/>
<path d="M1143.16 530.518L1145.34 529.283V554.131L1143.16 555.388V530.518Z" fill="#B4C5E1"/>
<path d="M1148.06 527.697L1150.24 526.462V551.314L1148.06 552.567V527.697Z" fill="#B4C5E1"/>
<path d="M1152.95 524.875L1155.13 523.645V548.493L1152.95 549.75V524.875Z" fill="#B4C5E1"/>
<path d="M1157.84 522.059L1160.02 520.824V545.672L1157.84 546.929V522.059Z" fill="#B4C5E1"/>
<path d="M1136.28 502.177L1056.45 548.191L1082.34 563.111L1162.16 517.088L1136.28 502.177Z" fill="#E2EBF7"/>
<path d="M1060.74 548.177L1062.9 546.934L1084.48 559.371L1082.32 560.615L1060.74 548.177Z" fill="#CBD7EB"/>
<path d="M1065.63 545.361L1067.79 544.117L1089.37 556.55L1087.21 557.794L1065.63 545.361Z" fill="#CBD7EB"/>
<path d="M1070.52 542.54L1072.68 541.296L1094.26 553.733L1092.1 554.977L1070.52 542.54Z" fill="#CBD7EB"/>
<path d="M1075.41 539.723L1077.57 538.479L1099.15 550.917L1096.99 552.156L1075.41 539.723Z" fill="#CBD7EB"/>
<path d="M1080.31 536.907L1082.46 535.663L1104.04 548.096L1101.89 549.34L1080.31 536.907Z" fill="#CBD7EB"/>
<path d="M1085.19 534.086L1087.35 532.842L1108.93 545.28L1106.77 546.524L1085.19 534.086Z" fill="#CBD7EB"/>
<path d="M1090.09 531.269L1092.25 530.025L1113.82 542.458L1111.67 543.702L1090.09 531.269Z" fill="#CBD7EB"/>
<path d="M1094.98 528.448L1097.14 527.205L1118.72 539.642L1116.56 540.886L1094.98 528.448Z" fill="#CBD7EB"/>
<path d="M1099.87 525.632L1102.03 524.389L1123.61 536.826L1121.45 538.065L1099.87 525.632Z" fill="#CBD7EB"/>
<path d="M1104.76 522.811L1106.92 521.572L1128.5 534.005L1126.34 535.249L1104.76 522.811Z" fill="#CBD7EB"/>
<path d="M1109.65 519.995L1111.81 518.751L1133.38 531.188L1131.22 532.432L1109.65 519.995Z" fill="#CBD7EB"/>
<path d="M1114.54 517.178L1116.7 515.935L1138.28 528.368L1136.12 529.611L1114.54 517.178Z" fill="#CBD7EB"/>
<path d="M1119.44 514.357L1121.59 513.113L1143.17 525.551L1141.01 526.795L1119.44 514.357Z" fill="#CBD7EB"/>
<path d="M1124.33 511.541L1126.48 510.297L1148.06 522.734L1145.9 523.978L1124.33 511.541Z" fill="#CBD7EB"/>
<path d="M1129.21 508.72L1131.37 507.48L1152.95 519.913L1150.79 521.157L1129.21 508.72Z" fill="#CBD7EB"/>
<path d="M1134.11 505.903L1136.26 504.66L1157.84 517.097L1155.69 518.341L1134.11 505.903Z" fill="#CBD7EB"/>
<path d="M1056.41 578.023V548.178L1082.31 563.103V592.948L1056.41 578.023Z" fill="white"/>
<path d="M1079.9 564.284L1077.41 562.892L1077.15 588.195L1079.64 589.61L1079.9 564.284Z" fill="#E2EBF7"/>
<path d="M1075.04 561.445L1072.55 560.066L1072.34 585.567L1074.83 586.964L1075.04 561.445Z" fill="#E2EBF7"/>
<path d="M1070.2 558.601L1067.7 557.235L1067.53 582.935L1070.02 584.318L1070.2 558.601Z" fill="#E2EBF7"/>
<path d="M1065.35 555.762L1062.86 554.406L1062.73 580.308L1065.23 581.674L1065.35 555.762Z" fill="#E2EBF7"/>
<path d="M1060.5 552.923L1058.01 551.575L1057.93 577.68L1060.42 579.028L1060.5 552.923Z" fill="#E2EBF7"/>
<g filter="url(#filter2_f_1806_44459)">
<path d="M913 341.5L1101.19 230.697L1350.84 383.92L1169 490.5L913 341.5Z" fill="url(#paint2_linear_1806_44459)"/>
</g>
<path d="M1064.05 406.247L912 318.036L1094.6 212.558L1246.87 300.503L1064.05 406.247Z" fill="#E2EBF7"/>
<path d="M1246.86 324.428L1246.38 300.818L1064.04 406.239V429.741L1246.86 324.428Z" fill="#B4C5E1"/>
<path d="M912.004 341.975V318.034L1064.04 406.239V429.741L912.004 341.975Z" fill="white"/>
<path d="M1094.6 201L1053.87 224.581L1205.79 312.562L1246.38 289.067L1094.6 201Z" fill="#E2EBF7"/>
<path d="M1246.38 300.818V289.067L1205.79 312.562L1185.71 335.777L1246.38 300.818Z" fill="#B4C5E1"/>
<path d="M1017.56 262.509L1037.56 250.931L1064.23 266.376L1044.27 278.005L1017.56 262.509Z" fill="#E2EBF7"/>
<path d="M1064.23 274.095V266.376L1044.26 278.005L1044.22 285.674L1064.23 274.095Z" fill="#B4C5E1"/>
<path d="M1017.56 270.229V262.51L1044.27 278.005L1044.22 285.674L1017.56 270.229Z" fill="white"/>
<path d="M1050.87 281.865L1070.87 270.286L1097.53 285.732L1077.58 297.368L1050.87 281.865Z" fill="#E2EBF7"/>
<path d="M1097.53 293.451V285.731L1077.58 297.368L1077.54 305.037L1097.53 293.451Z" fill="#B4C5E1"/>
<path d="M1050.87 289.591V281.865L1077.58 297.368L1077.53 305.037L1050.87 289.591Z" fill="white"/>
<path d="M1084.4 301.148L1104.4 289.569L1131.06 305.008L1111.1 316.644L1084.4 301.148Z" fill="#E2EBF7"/>
<path d="M1131.06 312.734V305.008L1111.11 316.644L1111.07 324.313L1131.06 312.734Z" fill="#B4C5E1"/>
<path d="M1084.4 308.868V301.148L1111.1 316.644L1111.06 324.313L1084.4 308.868Z" fill="white"/>
<path d="M1117.78 320.518L1137.77 308.932L1164.44 324.377L1144.48 336.013L1117.78 320.518Z" fill="#E2EBF7"/>
<path d="M1164.44 332.097V324.377L1144.47 336.014L1144.44 343.683L1164.44 332.097Z" fill="#B4C5E1"/>
<path d="M1117.78 328.237V320.518L1144.48 336.014L1144.44 343.683L1117.78 328.237Z" fill="white"/>
<path d="M964.016 293.515L984.006 281.937L1010.68 297.382L990.715 309.018L964.016 293.515Z" fill="#E2EBF7"/>
<path d="M1010.68 305.101V297.382L990.715 309.018L990.68 316.687L1010.68 305.101Z" fill="#B4C5E1"/>
<path d="M964.016 301.241V293.515L990.715 309.018L990.679 316.687L964.016 301.241Z" fill="white"/>
<path d="M997.33 312.878L1017.33 301.299L1044 316.737L1024.04 328.373L997.33 312.878Z" fill="#E2EBF7"/>
<path d="M1044 324.464V316.737L1024.04 328.373L1023.99 336.042L1044 324.464Z" fill="#B4C5E1"/>
<path d="M997.33 320.597V312.878L1024.04 328.374L1023.99 336.043L997.33 320.597Z" fill="white"/>
<path d="M937.582 308.71L957.572 297.131L984.243 312.569L964.281 324.205L937.582 308.71Z" fill="#E2EBF7"/>
<path d="M984.238 320.296V312.569L964.276 324.205L964.24 331.874L984.238 320.296Z" fill="#B4C5E1"/>
<path d="M937.582 316.429V308.71L964.281 324.206L964.245 331.875L937.582 316.429Z" fill="white"/>
<path d="M970.893 328.065L990.883 316.486L1017.55 331.931L997.592 343.56L970.893 328.065Z" fill="#E2EBF7"/>
<path d="M1017.55 339.651V331.932L997.592 343.561L997.549 351.23L1017.55 339.651Z" fill="#B4C5E1"/>
<path d="M970.893 335.791V328.065L997.592 343.561L997.549 351.23L970.893 335.791Z" fill="white"/>
<path d="M1004.42 347.348L1050.86 320.575L1110.89 355.39L1064.5 382.207L1004.42 347.348Z" fill="#5F5DCA"/>
<path d="M1004.4 355.096L1004.41 347.348L1064.49 382.206L1064.45 389.882L1004.4 355.096Z" fill="#2B298F"/>
<path d="M1110.88 363.109V355.39L1064.49 382.206L1064.45 389.882L1110.88 363.109Z" fill="#201F78"/>
<path d="M990.789 277.933L1010.79 266.354L1037.45 281.8L1017.5 293.429L990.789 277.933Z" fill="#E2EBF7"/>
<path d="M1037.45 289.519V281.8L1017.5 293.429L1017.45 301.098L1037.45 289.519Z" fill="#B4C5E1"/>
<path d="M990.789 285.66V277.934L1017.5 293.429L1017.45 301.098L990.789 285.66Z" fill="white"/>
<path d="M1024.1 297.289L1044.1 285.71L1070.76 301.155L1050.81 312.792L1024.1 297.289Z" fill="#E2EBF7"/>
<path d="M1070.76 308.875V301.156L1050.81 312.792L1050.77 320.461L1070.76 308.875Z" fill="#B4C5E1"/>
<path d="M1024.1 305.015V297.289L1050.81 312.792L1050.77 320.461L1024.1 305.015Z" fill="white"/>
<path d="M1057.63 316.572L1077.63 304.994L1104.29 320.439L1084.34 332.068L1057.63 316.572Z" fill="#E2EBF7"/>
<path d="M1104.29 328.158V320.439L1084.34 332.068L1084.3 339.737L1104.29 328.158Z" fill="#B4C5E1"/>
<path d="M1057.63 324.291V316.572L1084.34 332.068L1084.3 339.737L1057.63 324.291Z" fill="white"/>
<path d="M1091 335.942L1110.99 324.363L1137.66 339.801L1117.7 351.437L1091 335.942Z" fill="#E2EBF7"/>
<path d="M1137.66 347.527V339.801L1117.7 351.437L1117.66 359.106L1137.66 347.527Z" fill="#B4C5E1"/>
<path d="M1091 343.661V335.942L1117.7 351.438L1117.66 359.107L1091 343.661Z" fill="white"/>
<path d="M1095.76 212.722L1075.47 224.143L1207.35 300.84L1227.64 289.096L1095.76 212.722Z" fill="#B4C5E1"/>
<path d="M1185.51 336.014L1205.8 312.512L1054.39 224.351L1033.35 247.889L1185.51 336.014Z" fill="white"/>
<g filter="url(#filter3_f_1806_44459)">
<path d="M1240.58 484.552L1495.86 333.775L1835.71 541.99L1585.21 687.182L1240.58 484.552Z" fill="url(#paint3_linear_1806_44459)"/>
</g>
<path d="M1432.51 587.203L1235 472.789L1490.12 325L1687.62 439.414L1432.51 587.203Z" fill="#E2EBF7"/>
<path d="M1251.46 472.79L1432.51 577.673L1671.16 439.414L1490.12 334.536L1251.46 472.79Z" fill="white"/>
<path d="M1498.34 387.013L1506.57 382.245L1621.79 448.99L1613.43 453.642L1498.34 387.013Z" fill="#D1DCEE"/>
<path d="M1481.91 396.508L1490.13 391.74L1564.19 434.646L1555.95 439.408L1481.91 396.508Z" fill="#D1DCEE"/>
<path d="M1473.72 359.045L1498.25 373.39L1473.72 387.728L1448.97 373.39L1473.72 359.045Z" fill="#5F5DCA"/>
<path d="M1448.97 377.465V373.39L1473.72 387.728V391.804L1448.97 377.465Z" fill="#2B298F"/>
<path d="M1498.25 377.465V373.39L1473.72 387.728V391.804L1498.25 377.465Z" fill="#201F78"/>
<path d="M1468.06 366.689L1471.23 368.523V375.899L1468.06 376.37V366.689Z" fill="white"/>
<path d="M1483.89 372.19L1487.05 374.018L1471.23 375.899L1468.06 374.065L1483.89 372.19Z" fill="white"/>
<path d="M1449.21 415.684L1457.45 410.917L1572.66 477.656L1564.3 482.314L1449.21 415.684Z" fill="#D1DCEE"/>
<path d="M1432.78 425.18L1441.01 420.412L1515.07 463.312L1506.83 468.074L1432.78 425.18Z" fill="#D1DCEE"/>
<path d="M1424.43 387.729L1448.95 402.067L1424.43 416.412L1399.67 402.067L1424.43 387.729Z" fill="#5F5DCA"/>
<path d="M1399.67 406.148V402.067L1424.43 416.412V420.487L1399.67 406.148Z" fill="#2B298F"/>
<path d="M1448.95 406.148V402.067L1424.42 416.412V420.487L1448.95 406.148Z" fill="#201F78"/>
<path d="M1418.76 395.367L1421.93 397.201V404.577L1418.76 405.054V395.367Z" fill="white"/>
<path d="M1434.59 400.868L1437.75 402.702L1421.93 404.577L1418.76 402.743L1434.59 400.868Z" fill="white"/>
<path d="M1399.61 444.287L1407.83 439.519L1523.05 506.264L1514.69 510.916L1399.61 444.287Z" fill="#D1DCEE"/>
<path d="M1383.16 453.782L1391.39 449.014L1465.45 491.914L1457.21 496.676L1383.16 453.782Z" fill="#D1DCEE"/>
<path d="M1375.03 416.412L1399.56 430.751L1375.03 445.09L1350.27 430.751L1375.03 416.412Z" fill="#5F5DCA"/>
<path d="M1350.27 434.826V430.751L1375.03 445.09V449.171L1350.27 434.826Z" fill="#2B298F"/>
<path d="M1399.56 434.826V430.751L1375.03 445.09V449.171L1399.56 434.826Z" fill="#201F78"/>
<path d="M1369.37 424.05L1372.53 425.884V433.26L1369.37 433.737V424.05Z" fill="white"/>
<path d="M1385.19 429.552L1388.36 431.386L1372.53 433.26L1369.37 431.426L1385.19 429.552Z" fill="white"/>
<path d="M1350.48 472.894L1358.71 468.126L1473.92 534.866L1465.56 539.517L1350.48 472.894Z" fill="#D1DCEE"/>
<path d="M1334.04 482.389L1342.27 477.621L1416.33 520.521L1408.09 525.283L1334.04 482.389Z" fill="#D1DCEE"/>
<path d="M1325.91 445.09L1350.43 459.434L1325.91 473.773L1301.16 459.434L1325.91 445.09Z" fill="#5F5DCA"/>
<path d="M1301.16 463.51V459.435L1325.91 473.773V477.854L1301.16 463.51Z" fill="#2B298F"/>
<path d="M1350.44 463.51V459.435L1325.91 473.773V477.854L1350.44 463.51Z" fill="#201F78"/>
<path d="M1320.24 452.733L1323.4 454.567V461.943L1320.24 462.415V452.733Z" fill="white"/>
<path d="M1336.06 458.235L1339.23 460.069L1323.4 461.944L1320.24 460.11L1336.06 458.235Z" fill="white"/>
<path d="M1687.62 448.949V439.414L1432.51 587.203V596.739L1687.62 448.949Z" fill="#D1DCEE"/>
<path d="M1235 482.325V472.79L1432.51 587.203V598.218L1235 482.325Z" fill="white"/>
<path d="M1605.34 420.388V410.853L1523.05 363.179V372.715L1605.34 420.388Z" fill="#E2EBF7"/>
<path d="M1555.96 344.107L1523.05 363.179L1605.34 410.853L1638.26 391.781L1555.96 344.107Z" fill="white"/>
<path d="M1638.26 401.317V391.781L1605.35 410.853V420.389L1638.26 401.317Z" fill="#D1DCEE"/>
</g>
<defs>
<filter id="filter0_f_1806_44459" x="1268.5" y="202.64" width="233.5" height="139.36" filterUnits="userSpaceOnUse" color-interpolation-filters="sRGB">
<feFlood flood-opacity="0" result="BackgroundImageFix"/>
<feBlend mode="normal" in="SourceGraphic" in2="BackgroundImageFix" result="shape"/>
<feGaussianBlur stdDeviation="2" result="effect1_foregroundBlur_1806_44459"/>
</filter>
<filter id="filter1_f_1806_44459" x="971.867" y="478.932" width="234.277" height="137.072" filterUnits="userSpaceOnUse" color-interpolation-filters="sRGB">
<feFlood flood-opacity="0" result="BackgroundImageFix"/>
<feBlend mode="normal" in="SourceGraphic" in2="BackgroundImageFix" result="shape"/>
<feGaussianBlur stdDeviation="2" result="effect1_foregroundBlur_1806_44459"/>
</filter>
<filter id="filter2_f_1806_44459" x="911" y="228.697" width="441.836" height="263.803" filterUnits="userSpaceOnUse" color-interpolation-filters="sRGB">
<feFlood flood-opacity="0" result="BackgroundImageFix"/>
<feBlend mode="normal" in="SourceGraphic" in2="BackgroundImageFix" result="shape"/>
<feGaussianBlur stdDeviation="1" result="effect1_foregroundBlur_1806_44459"/>
</filter>
<filter id="filter3_f_1806_44459" x="1238.58" y="331.775" width="599.129" height="357.407" filterUnits="userSpaceOnUse" color-interpolation-filters="sRGB">
<feFlood flood-opacity="0" result="BackgroundImageFix"/>
<feBlend mode="normal" in="SourceGraphic" in2="BackgroundImageFix" result="shape"/>
<feGaussianBlur stdDeviation="1" result="effect1_foregroundBlur_1806_44459"/>
</filter>
<linearGradient id="paint0_linear_1806_44459" x1="1430.13" y1="316.869" x2="1381.69" y2="235.877" gradientUnits="userSpaceOnUse">
<stop stop-color="#0E3390" stop-opacity="0"/>
<stop offset="0.915239" stop-color="#0E3390"/>
</linearGradient>
<linearGradient id="paint1_linear_1806_44459" x1="1134.27" y1="593.16" x2="1085.84" y2="512.168" gradientUnits="userSpaceOnUse">
<stop stop-color="#0E3390" stop-opacity="0"/>
<stop offset="0.915239" stop-color="#0E3390"/>
</linearGradient>
<linearGradient id="paint2_linear_1806_44459" x1="1049.28" y1="257.64" x2="1163.64" y2="431.37" gradientUnits="userSpaceOnUse">
<stop offset="0.03" stop-color="#0E3390"/>
<stop offset="1" stop-color="#0E3390" stop-opacity="0"/>
</linearGradient>
<linearGradient id="paint3_linear_1806_44459" x1="1444.01" y1="409.562" x2="1554.1" y2="588.26" gradientUnits="userSpaceOnUse">
<stop offset="0.03" stop-color="#0E3390"/>
<stop offset="1" stop-color="#0E3390" stop-opacity="0"/>
</linearGradient>
<clipPath id="clip0_1806_44459">
<rect width="1920" height="1002" fill="white"/>
</clipPath>
</defs>
</svg>
