<svg width="193" height="152" viewBox="0 0 193 152" fill="none" xmlns="http://www.w3.org/2000/svg">
<g style="mix-blend-mode:multiply" opacity="0.4" filter="url(#filter0_f_792_14643)">
<path d="M90 37.0647L2 83.058L116 149.048L191 102.555L90 37.0647Z" fill="url(#paint0_linear_792_14643)"/>
</g>
<path d="M77.8897 53.7378C78.8198 53.1979 80.0708 53.2174 81.4659 53.8874C81.6144 53.9611 81.7672 54.0413 81.9244 54.1281C84.0919 55.5087 85.767 57.5317 86.7123 59.9105C87.2494 61.1441 87.5407 62.4694 87.5703 63.8131C87.5703 65.5888 86.9153 66.8377 85.9198 67.4231L82.0816 69.6411C83.0968 69.0557 83.7321 67.8068 83.7321 66.0311C83.7026 64.6874 83.4112 63.3621 82.8741 62.1285C81.9288 59.7498 80.2537 57.7267 78.0862 56.3461C77.9334 56.2593 77.7806 56.1791 77.6277 56.1054C76.2326 55.455 75.0078 55.4159 74.0515 55.9558L77.8897 53.7378Z" fill="#A9B8DA"/>
<path d="M78.0864 56.346C74.9556 54.5507 72.4143 55.9947 72.4012 59.5656C72.3881 63.1366 74.9163 67.488 78.0472 69.2767C81.178 71.0654 83.7193 69.628 83.7324 66.057C83.7455 62.4861 81.2173 58.1412 78.0864 56.346Z" fill="#A9B8DA"/>
<path d="M78.0855 56.3462C74.9547 54.551 72.4133 55.995 72.4002 59.5659C72.3871 63.1368 74.9154 67.4883 78.0462 69.277C81.177 71.0657 83.7183 69.6282 83.7314 66.0573C83.7445 62.4864 81.2163 58.1414 78.0855 56.3462Z" fill="#B4C5E1"/>
<path d="M78.0725 60.0148C76.6184 59.1822 75.4525 59.8522 75.4525 61.5108C75.5 62.415 75.7621 63.2953 76.2174 64.0798C76.6727 64.8643 77.3084 65.5308 78.0725 66.0248C79.5265 66.8574 80.6924 66.1875 80.6924 64.5288C80.6449 63.6246 80.3828 62.7443 79.9275 61.9598C79.4722 61.1753 78.8366 60.5088 78.0725 60.0148Z" fill="#A9B8DA"/>
<path d="M64.7305 46.2904C65.6606 45.757 66.9116 45.77 68.3067 46.44C68.4552 46.5137 68.608 46.5939 68.7652 46.6806C70.9327 48.0613 72.6078 50.0843 73.5531 52.4631C74.0902 53.6967 74.3816 55.022 74.4111 56.3657C74.4111 58.1414 73.7562 59.3903 72.7606 59.9757L68.9224 62.1872C69.9376 61.6018 70.573 60.3529 70.573 58.5772C70.5434 57.2335 70.252 55.9082 69.7149 54.6746C68.7706 52.2989 67.0979 50.2783 64.9336 48.8986C64.7807 48.8119 64.6279 48.7317 64.4751 48.658C63.08 48.0075 61.8552 47.9685 60.8989 48.5084L64.7305 46.2904Z" fill="#A9B8DA"/>
<path d="M64.9331 48.8987C61.8023 47.1035 59.261 48.5475 59.2479 52.1184C59.2348 55.6893 61.763 60.0408 64.8938 61.8295C68.0246 63.6182 70.566 62.1807 70.5791 58.6098C70.5922 55.0389 68.0574 50.6939 64.9331 48.8987Z" fill="#A9B8DA"/>
<path d="M64.9341 48.8987C61.8033 47.1035 59.262 48.5475 59.2489 52.1184C59.2358 55.6893 61.764 60.0408 64.8948 61.8295C68.0256 63.6182 70.5669 62.1807 70.58 58.6098C70.5931 55.0389 68.0584 50.6939 64.9341 48.8987Z" fill="#B4C5E1"/>
<path d="M64.9338 52.567C63.4797 51.7345 62.3139 52.4044 62.3139 54.063C62.3613 54.9673 62.6234 55.8476 63.0787 56.6321C63.5341 57.4166 64.1697 58.083 64.9338 58.5771C66.3878 59.4097 67.5537 58.7397 67.5537 57.0811C67.5062 56.1768 67.2442 55.2965 66.7888 54.5121C66.3335 53.7276 65.6979 53.0611 64.9338 52.567Z" fill="#A9B8DA"/>
<path d="M154.456 96.0816C155.386 95.5483 156.637 95.5613 158.032 96.2312C158.181 96.3049 158.334 96.3852 158.491 96.4719C160.659 97.8522 162.334 99.8754 163.279 102.254C163.816 103.488 164.107 104.813 164.137 106.157C164.137 107.933 163.482 109.182 162.486 109.767L158.648 111.978C159.663 111.393 160.299 110.144 160.299 108.368C160.269 107.025 159.978 105.699 159.441 104.466C158.499 102.089 156.828 100.066 154.666 98.6834C154.513 98.5967 154.36 98.5165 154.207 98.4427C152.812 97.7923 151.587 97.7533 150.631 98.2931L154.456 96.0816Z" fill="#A9B8DA"/>
<path d="M154.666 98.6834C151.535 96.8881 148.993 98.3321 148.98 101.903C148.967 105.474 151.495 109.825 154.626 111.614C157.757 113.403 160.298 111.965 160.311 108.394C160.325 104.824 157.777 100.479 154.666 98.6834Z" fill="#A9B8DA"/>
<g clip-path="url(#clip0_792_14643)">
<path d="M169.56 81.7796V50.0198L141.699 65.8973V97.6572L169.56 81.7796Z" fill="#1E1C7B"/>
<path d="M83.6363 1.06836L169.536 50.0293L141.68 65.9116L55.7998 16.9363L83.6363 1.06836Z" fill="#4A48AD"/>
<path d="M55.7998 48.6913L141.699 97.6571V65.8972L55.7998 16.9363V48.6913Z" fill="#2B298F"/>
<path opacity="0.5" d="M139.377 67.2208L137.036 65.9116V92.3534L139.377 93.6865V67.2208Z" fill="#5755B7"/>
<path opacity="0.5" d="M134.118 64.2236L131.776 62.9097V89.3514L134.118 90.6894V64.2236Z" fill="#5755B7"/>
<path opacity="0.5" d="M128.857 61.2217L126.511 59.9126V86.3544L128.857 87.6875V61.2217Z" fill="#5755B7"/>
<path opacity="0.5" d="M123.592 58.2243L121.251 56.9104V83.3522L123.592 84.6901V58.2243Z" fill="#5755B7"/>
<path opacity="0.5" d="M118.331 55.2226L115.99 53.9087V80.3553L118.331 81.6884V55.2226Z" fill="#5755B7"/>
<path opacity="0.5" d="M113.066 52.2208L110.725 50.9116V77.3534L113.066 78.6913V52.2208Z" fill="#5755B7"/>
<path opacity="0.5" d="M107.806 49.2234L105.465 47.9094V74.3512L107.806 75.6891V49.2234Z" fill="#5755B7"/>
<path opacity="0.5" d="M102.54 46.2215L100.199 44.9124V71.3541L102.54 72.6873V46.2215Z" fill="#5755B7"/>
<path opacity="0.5" d="M97.2806 43.2246L94.9395 41.9106V68.3524L97.2806 69.6903V43.2246Z" fill="#5755B7"/>
<path opacity="0.5" d="M92.015 40.2227L89.6738 38.9136V65.3553L92.015 66.6885V40.2227Z" fill="#5755B7"/>
<path opacity="0.5" d="M86.7552 37.2205L84.4141 35.9114V62.3531L86.7552 63.6911V37.2205Z" fill="#5755B7"/>
<path opacity="0.5" d="M81.4896 34.2236L79.1484 32.9097V59.3562L81.4896 60.6894V34.2236Z" fill="#5755B7"/>
<path opacity="0.5" d="M76.2289 31.2217L73.8877 29.9126V56.3544L76.2289 57.6875V31.2217Z" fill="#5755B7"/>
<path opacity="0.5" d="M70.9691 28.2243L68.623 26.9104V53.3522L70.9691 54.6901V28.2243Z" fill="#5755B7"/>
<path opacity="0.5" d="M65.7035 25.2226L63.3623 23.9087V50.3553L65.7035 51.6884V25.2226Z" fill="#5755B7"/>
<path opacity="0.5" d="M60.4437 22.2256L58.0977 20.9116V47.3534L60.4437 48.6913V22.2256Z" fill="#5755B7"/>
<path d="M164.916 50.0198L162.594 48.6963L139.377 61.9316L141.699 63.2503L164.916 50.0198Z" fill="#3A389D"/>
<path d="M159.656 47.0227L157.335 45.6943L134.117 58.9296L136.439 60.2531L159.656 47.0227Z" fill="#3A389D"/>
<path d="M154.391 44.0208L152.069 42.6973L128.856 55.9325L131.178 57.2561L154.391 44.0208Z" fill="#3A389D"/>
<path d="M149.131 41.0237L146.809 39.7002L123.592 52.9307L125.914 54.2542L149.131 41.0237Z" fill="#3A389D"/>
<path d="M143.865 38.0218L141.544 36.6982L118.331 49.9335L120.653 51.257L143.865 38.0218Z" fill="#3A389D"/>
<path d="M138.605 35.0247L136.284 33.7012L113.066 46.9316L115.388 48.2552L138.605 35.0247Z" fill="#3A389D"/>
<path d="M133.34 32.0226L131.018 30.7039L107.806 43.9343L110.127 45.2579L133.34 32.0226Z" fill="#3A389D"/>
<path d="M128.079 29.0254L125.757 27.7019L102.54 40.9372L104.862 42.2607L128.079 29.0254Z" fill="#3A389D"/>
<path d="M122.814 26.0284L120.493 24.7048L97.2803 37.9353L99.602 39.2588L122.814 26.0284Z" fill="#3A389D"/>
<path d="M117.554 23.0264L115.232 21.7029L92.0146 34.9382L94.3364 36.2617L117.554 23.0264Z" fill="#3A389D"/>
<path d="M112.294 20.0293L109.972 18.7058L86.7549 31.9363L89.0766 33.2598L112.294 20.0293Z" fill="#3A389D"/>
<path d="M107.028 17.0274L104.707 15.7039L81.4893 28.9391L83.811 30.2627L107.028 17.0274Z" fill="#3A389D"/>
<path d="M101.769 14.0303L99.4468 12.7068L76.2295 25.9421L78.5512 27.2656L101.769 14.0303Z" fill="#3A389D"/>
<path d="M96.5029 11.0332L94.1812 9.70972L70.9688 22.9402L73.2905 24.2637L96.5029 11.0332Z" fill="#3A389D"/>
<path d="M91.2432 8.03129L88.9214 6.70776L65.7041 19.943L68.0258 21.2666L91.2432 8.03129Z" fill="#3A389D"/>
<path d="M85.9775 5.03422L83.6558 3.71069L60.4434 16.9412L62.7651 18.2647L85.9775 5.03422Z" fill="#3A389D"/>
<path d="M144.298 67.1583L146.979 65.6765L147.256 92.6026L144.575 94.1084L144.298 67.1583Z" fill="#32308D"/>
<path d="M149.515 64.1324L152.196 62.665L152.424 89.8021L149.743 91.2935L149.515 64.1324Z" fill="#32308D"/>
<path d="M154.731 61.1114L157.408 59.6536L157.592 87.0065L154.916 88.4786L154.731 61.1114Z" fill="#32308D"/>
<path d="M159.942 58.0903L162.624 56.6421L162.764 84.2108L160.083 85.6638L159.942 58.0903Z" fill="#32308D"/>
<path d="M165.159 55.0691L167.84 53.6353L167.933 81.4101L165.251 82.8488L165.159 55.0691Z" fill="#32308D"/>
<g clip-path="url(#clip1_792_14643)">
<path d="M111.735 59.9841C111.8 60.041 111.866 60.0942 111.93 60.1552C112.268 60.4802 112.594 60.8273 112.861 61.2657C113.227 61.8664 113.458 62.476 113.502 63.0819C113.525 63.3841 113.541 63.6875 113.524 63.9664C113.482 64.6399 113.324 65.2031 112.977 65.5917C112.678 65.9267 112.289 66.0809 111.825 66.0857C111.591 66.0876 111.332 66.0241 111.081 65.9734C110.763 65.9056 110.431 65.7705 110.099 65.5731C109.783 65.3909 109.467 65.2223 109.153 65.0219C108.891 64.8553 108.63 64.6537 108.37 64.4613C108.303 64.4118 108.239 64.3381 108.146 64.2498C108.157 64.1836 108.164 64.1025 108.182 64.0301C108.365 63.2553 108.552 62.483 108.736 61.7079C108.828 61.3182 108.913 60.9229 109.004 60.5317C109.135 59.9645 109.267 59.3981 109.4 58.8326C109.408 58.811 109.417 58.7919 109.43 58.7756L110.059 59.0159L111.735 59.9841ZM109.649 63.9956C109.86 64.1174 110.049 64.2287 110.238 64.3357C110.563 64.5196 110.882 64.6082 111.168 64.5936C111.617 64.5712 111.924 64.3098 112.089 63.8416C112.218 63.4718 112.272 63.0448 112.205 62.5392C112.153 62.1469 112.001 61.7656 111.709 61.4251C111.311 60.9595 110.889 60.7346 110.453 60.5376L109.649 63.9956Z" fill="white"/>
<path d="M118.65 70.4591L117.399 69.7364L117.32 68.297C117.282 68.2725 117.244 68.2465 117.206 68.2246C116.616 67.8837 116.025 67.5453 115.435 67.1989C115.343 67.1456 115.294 67.1544 115.252 67.2199C115.052 67.5276 114.846 67.8296 114.64 68.1376L113.322 67.3762C113.348 67.2962 113.358 67.213 113.393 67.1615C113.639 66.8131 113.888 66.4688 114.141 66.1285C114.43 65.7357 114.718 65.341 115.015 64.9573C115.324 64.5584 115.638 64.1666 115.957 63.7818C116.195 63.4949 116.446 63.2263 116.694 62.9546C116.708 62.9418 116.724 62.9343 116.743 62.9327C116.763 62.931 116.784 62.9353 116.806 62.9451C117.163 63.1462 117.521 63.355 117.891 63.5691C117.956 64.0095 118.022 64.4458 118.083 64.8808C118.14 65.2795 118.197 65.6782 118.245 66.0724C118.284 66.3927 118.309 66.7077 118.344 67.026C118.38 67.3629 118.424 67.7037 118.458 68.0389C118.487 68.3191 118.506 68.595 118.533 68.8745C118.561 69.1676 118.594 69.4625 118.625 69.7566C118.633 69.8347 118.642 69.913 118.65 69.9908L118.65 70.4591ZM117.054 64.6645L117.019 64.6384L115.844 66.2221L117.234 67.0252L117.054 64.6645Z" fill="white"/>
<path d="M95.803 50.7796C95.8898 50.8573 95.9774 50.9334 96.0626 51.012C96.3654 51.2915 96.6505 51.6075 96.8721 52.0014C97.1251 52.4512 97.2632 52.8972 97.2672 53.3325C97.2705 53.6935 97.2622 54.0435 97.1452 54.3141C97.0628 54.504 96.9564 54.663 96.8037 54.7688C96.4275 55.0259 95.9496 54.9919 95.4192 54.7789C94.9515 54.591 94.4752 54.3413 93.9749 54.1063L93.5425 55.9404L92.2754 55.2083C92.3035 55.0537 92.3254 54.8962 92.3596 54.7493C92.5225 54.0538 92.6877 53.3596 92.8529 52.6652C92.9921 52.0771 93.1326 51.49 93.2692 50.8998C93.3686 50.4713 93.4625 50.0366 93.5609 49.594C93.7136 49.6548 93.8614 49.7127 94.0093 49.7707C94.0414 49.7833 94.0726 49.7894 94.1037 49.7978L95.803 50.7796ZM94.2567 52.9263C94.5951 53.143 94.9085 53.3002 95.221 53.3855C95.6057 53.4905 95.8842 53.4266 95.9588 52.9834C95.9942 52.7721 95.9274 52.3849 95.684 52.1194C95.33 51.7339 94.9704 51.5423 94.614 51.3863L94.2567 52.9263Z" fill="white"/>
<path d="M88.8186 46.7435C89.2391 47.1894 89.6623 47.6294 90.0786 48.0841C90.2646 48.2871 90.4243 48.5309 90.5006 48.807C90.6894 49.4962 90.8699 50.185 91.0656 50.8755C91.1423 51.1466 91.0956 51.2936 90.9608 51.378C90.7326 51.5207 90.5065 51.6685 90.274 51.8049C90.1747 51.8586 90.0703 51.9029 89.9613 51.9378C89.8402 51.9809 89.7489 51.918 89.6368 51.7228C88.872 50.3919 88.1071 49.061 87.3423 47.7301C87.2687 47.6022 87.1896 47.4771 87.1363 47.3898C87.0891 47.1673 87.1512 47.0964 87.2453 47.0437C87.5997 46.8498 87.9794 46.7021 88.381 46.6016C88.4306 46.5899 88.4839 46.5872 88.5353 46.5799L88.8186 46.7435ZM89.1978 47.607C89.0595 47.4417 88.9415 47.3217 88.8462 47.1815C88.7352 47.0177 88.6423 46.9945 88.553 47.0261C88.305 47.114 88.0619 47.2124 87.8009 47.3125L89.1978 47.607Z" fill="white"/>
<path d="M81.5489 42.544C81.8904 43.0515 82.2333 43.5572 82.5722 44.0687C82.6832 44.2399 82.7894 44.4149 82.8903 44.593C82.9987 44.7797 82.9977 44.9211 82.8903 44.985C82.0731 45.4641 81.2562 45.9431 80.4396 46.422C80.3476 46.4761 80.2272 46.4203 80.1317 46.2671C79.9568 45.9862 79.7798 45.7068 79.6146 45.4192C79.4038 45.0528 79.2041 44.6805 79 44.311C79 44.1737 79 44.0365 79 43.8992C79.1888 43.4496 79.3826 43.0053 79.5629 42.5472C79.6528 42.3188 79.8293 42.2497 80.0483 42.2643C80.4503 42.2908 80.8595 42.3403 81.2657 42.3803L81.5489 42.544ZM80.118 45.6755L79.6655 43.5471L79.2808 44.2775L80.118 45.6755Z" fill="white"/>
<path d="M84.7582 55.1884C84.6017 54.9643 84.4202 54.7513 84.2949 54.5133C84.1186 54.1783 84.1264 53.8712 84.1533 53.5941C84.1689 53.4337 84.1941 53.2608 84.2713 53.1681C84.4282 52.9776 84.6725 52.9562 84.9616 53.0856C85.3357 53.2532 85.6245 53.6334 85.8414 54.0802C85.996 54.3988 86.0066 54.7017 85.967 54.9649C85.9465 55.1007 85.9264 55.247 85.8667 55.341C85.7673 55.4972 85.5861 55.5116 85.4008 55.507C85.3747 55.5086 85.3494 55.5123 85.3251 55.5181L84.7582 55.1884ZM85.1384 53.9653C85.2122 54.0643 85.2578 54.1529 85.3019 54.1773C85.3541 54.2074 85.4053 54.1796 85.4844 54.1754L85.3158 53.9311L85.1384 53.9653Z" fill="white"/>
<path d="M113.812 71.974C113.884 71.644 113.955 71.3119 114.03 70.9839C114.137 70.5179 114.247 70.0546 114.356 69.5848L114.685 69.7745L115.386 72.0338L115.763 70.3962L116.11 70.5966C116.08 70.746 116.055 70.8877 116.023 71.0238C115.876 71.6504 115.728 72.2754 115.582 72.902C115.578 72.9315 115.578 72.9633 115.582 72.9967L115.251 72.8058C115.228 72.6845 115.211 72.5628 115.178 72.4408C115.041 71.9339 114.901 71.4263 114.758 70.9182C114.711 70.752 114.65 70.5844 114.596 70.4175L114.563 70.4085L114.166 72.1785L113.812 71.974Z" fill="white"/>
<path d="M98.9893 63.4104C99.0546 63.0838 99.1148 62.7529 99.1868 62.4318C99.2831 62.0023 99.3888 61.581 99.4905 61.1563C99.4988 61.1218 99.5087 61.0886 99.5217 61.0409C99.8309 61.1646 100.146 61.2866 100.459 61.5777C100.823 61.9151 100.974 62.3282 100.889 62.7088C100.833 62.9557 100.7 63.0786 100.475 63.0668C100.419 63.0639 100.366 63.0693 100.318 63.0707C100.421 63.4237 100.523 63.7636 100.618 64.1024C100.645 64.1958 100.65 64.2868 100.666 64.3792L100.311 64.1743L99.9581 62.9546L99.5366 62.7111C99.5292 62.7439 99.5231 62.7708 99.5174 62.7983L99.3433 63.6149L98.9893 63.4104ZM99.807 61.5583L99.6241 62.3674C99.7631 62.4334 99.8851 62.5056 100.002 62.5433C100.131 62.5846 100.265 62.6223 100.377 62.6102C100.434 62.6025 100.48 62.5708 100.51 62.5186C100.539 62.4664 100.551 62.3959 100.545 62.3151C100.536 62.164 100.457 62.0031 100.334 61.9089C100.163 61.7769 99.9876 61.6766 99.807 61.5583Z" fill="white"/>
<path d="M116.714 73.6513C116.788 73.2999 116.858 72.9454 116.935 72.5974C117.036 72.1488 117.142 71.7054 117.247 71.2555L118.602 72.0384C118.592 72.1035 118.586 72.1604 118.576 72.2157C118.567 72.2711 118.554 72.3262 118.54 72.3964L117.529 71.8123L117.387 72.4251L118.273 72.9369L118.209 73.2753L117.312 72.7571L117.136 73.4896L118.201 74.1049L118.154 74.4831L116.714 73.6513Z" fill="white"/>
<path d="M91.3662 59.0061C91.4396 58.6765 91.5114 58.3453 91.5866 58.0174C91.6867 57.581 91.7891 57.1474 91.8913 56.713C91.8991 56.6794 91.9121 56.6503 91.9218 56.6208L93.2824 57.4069L93.2 57.7525L92.1962 57.1725L92.0506 57.7839L92.9269 58.2902L92.8767 58.637L91.9775 58.1174L91.8028 58.8517L92.8802 59.4742L92.8059 59.8379L91.3662 59.0061Z" fill="white"/>
<path d="M101.584 64.9106C101.66 64.5737 101.734 64.236 101.811 63.8999C101.91 63.463 102.01 63.0275 102.111 62.5935C102.119 62.5697 102.129 62.548 102.141 62.5286L103.496 63.3113L103.419 63.66L102.41 63.0772L102.268 63.69L103.145 64.1966L103.091 64.5349L102.199 64.02L102.02 64.7565L103.096 65.3786L103.024 65.7424L101.584 64.9106Z" fill="white"/>
<path d="M93.6328 60.3153L93.643 60.2045L94.6342 59.4297L94.1728 57.9224L94.574 58.1542L94.9098 59.2836L95.5577 58.7201L95.9252 58.9324C95.9051 58.9905 95.9016 59.0588 95.8697 59.0854C95.6773 59.2526 95.4791 59.4107 95.2825 59.5714C95.2091 59.6317 95.1352 59.6911 95.0741 59.7409C95.2096 60.2214 95.3387 60.6705 95.4605 61.1173C95.4857 61.2104 95.4841 61.2992 95.4963 61.3909L95.1433 61.1869L94.8242 59.9543L94.777 59.9243L94.034 60.5471L93.6328 60.3153Z" fill="white"/>
<path d="M96.4404 61.9383C96.5131 61.599 96.5839 61.258 96.659 60.9205C96.71 60.6919 96.7685 60.4698 96.8211 60.2424C96.8728 60.0194 96.9214 59.7938 96.9714 59.5682C97.2978 59.6939 97.6214 59.8265 97.9367 60.1232C98.2907 60.4562 98.3677 60.7129 98.3653 61.0767C98.3634 61.3414 98.3021 61.5602 98.1057 61.6254C97.9355 61.6853 97.7293 61.6629 97.5124 61.561C97.3417 61.4814 97.1702 61.3908 96.9832 61.2968C96.936 61.4979 96.8844 61.7064 96.8357 61.9169C96.819 61.9896 96.8077 62.067 96.794 62.1423L96.4404 61.9383ZM97.2615 60.0999L97.0633 60.9309C97.2063 61.0039 97.3349 61.0821 97.4595 61.1302C97.6247 61.1941 97.7899 61.2404 97.8973 61.136C97.9806 61.0554 98.0389 60.9499 97.9823 60.7458C97.923 60.5348 97.7935 60.4212 97.6545 60.3288C97.5329 60.2482 97.4107 60.1861 97.2615 60.0999Z" fill="white"/>
<path d="M104.112 66.3695L103.886 66.091L104.034 65.7699C104.093 65.8372 104.142 65.8986 104.194 65.9534C104.454 66.2239 104.715 66.4048 104.964 66.3728C105.155 66.348 105.164 66.0965 104.985 65.8373C104.863 65.6629 104.735 65.4956 104.601 65.3368C104.402 65.0991 104.318 64.8684 104.301 64.5962C104.282 64.2509 104.386 64.066 104.625 64.0419C104.728 64.0316 104.854 64.0676 104.974 64.1144C105.193 64.1999 105.513 64.4059 105.753 64.7445L105.611 64.9858C105.434 64.8469 105.289 64.7256 105.142 64.6199C105.002 64.5195 104.863 64.4608 104.755 64.5153C104.582 64.6024 104.614 64.8497 104.851 65.151C104.968 65.2988 105.092 65.4369 105.21 65.5821C105.432 65.8541 105.498 66.2282 105.462 66.4687C105.415 66.7833 105.249 66.8891 104.978 66.8404C104.97 66.8391 104.966 66.8531 104.96 66.86L104.112 66.3695Z" fill="white"/>
<path d="M106.424 67.706L106.224 67.4595C106.187 67.2701 106.305 67.2317 106.35 67.106C106.552 67.3692 106.759 67.5494 106.982 67.6499C107.134 67.7187 107.284 67.7695 107.373 67.6534C107.472 67.5244 107.426 67.3297 107.234 67.072C107.13 66.9334 107.023 66.7992 106.912 66.6701C106.717 66.4403 106.631 66.2111 106.614 65.9443C106.592 65.5958 106.692 65.4012 106.936 65.3793C107.043 65.3697 107.172 65.4128 107.295 65.4499C107.508 65.5128 107.856 65.7974 108.036 66.0424C108.048 66.1684 107.998 66.263 107.908 66.3099C107.747 66.183 107.601 66.0467 107.455 65.9577C107.337 65.886 107.195 65.8193 107.106 65.8421C106.885 65.8983 106.915 66.1678 107.166 66.489C107.299 66.6585 107.45 66.8097 107.571 66.9873C107.877 67.432 107.844 68.0073 107.585 68.1424C107.497 68.1886 107.378 68.18 107.274 68.1963L106.424 67.706Z" fill="white"/>
<path d="M110.034 69.7921C110.109 69.4554 110.184 69.1181 110.26 68.7823C110.36 68.3455 110.46 67.91 110.561 67.4759C110.569 67.4513 110.579 67.4288 110.592 67.4085L110.941 67.6106L110.475 69.6396L111.455 70.2057L111.379 70.5694L110.034 69.7921Z" fill="white"/>
<path d="M112.324 71.1147C112.382 70.8365 112.436 70.5554 112.499 70.282C112.617 69.7656 112.738 69.253 112.861 68.7277L113.193 68.9193C113.189 68.9904 113.196 69.0678 113.181 69.128C113.014 69.8412 112.844 70.5527 112.675 71.2642C112.673 71.2819 112.675 71.3011 112.678 71.3212L112.324 71.1147Z" fill="white"/>
<path d="M107.007 57.2873L108.288 58.0276L106.956 63.6974L105.999 63.1443C105.556 61.4703 105.061 59.7926 104.412 58.0817L103.557 61.7333L102.292 61.0025L103.618 55.3255L104.604 55.8955C105.241 57.4456 105.746 59.0005 106.247 60.5706L107.007 57.2873Z" fill="white"/>
<path d="M99.7019 53.0619L100.85 53.7253C101.232 56.0689 101.437 58.3399 101.639 60.6209L100.357 59.8801L100.278 58.4578C100.242 58.4303 100.205 58.4048 100.168 58.3815C99.5707 58.0362 98.9732 57.6885 98.3746 57.3482C98.3274 57.3209 98.2592 57.321 98.2366 57.3535C98.0211 57.6587 97.8134 57.9739 97.6005 58.2904L96.2744 57.5242C96.3112 57.4387 96.3327 57.3577 96.3728 57.2999C96.5917 56.9842 96.8133 56.6719 97.0377 56.3632C97.2606 56.0577 97.4865 55.7559 97.7155 55.4578C98.0695 54.9968 98.4223 54.5352 98.7825 54.083C98.9349 53.8913 99.1051 53.7227 99.267 53.5436L99.7019 53.0619ZM98.8051 56.3768L100.196 57.1806L100.017 54.8204L99.9795 54.7949L98.8051 56.3768Z" fill="white"/>
<path d="M81.1532 50.1243C81.2004 49.8424 81.2422 49.5566 81.2924 49.2776C81.3333 49.0511 81.3963 48.8412 81.4241 48.6058C81.4442 48.4356 81.5308 48.3684 81.6387 48.3281C81.9927 48.1966 82.3495 48.0736 82.7052 47.9468C82.8652 47.8899 82.9445 47.9267 83.1243 48.1495C83.3988 48.4895 83.6721 48.8311 83.9461 49.172C84.0629 49.3172 84.1019 49.5261 84.0679 49.7261C84.0084 50.0762 83.9607 50.433 83.9067 50.7861C83.8819 50.9486 83.867 51.1201 83.822 51.2649C83.791 51.3528 83.7354 51.4145 83.6615 51.4431C83.3249 51.5721 82.9801 51.6848 82.6386 51.804C82.581 51.824 82.5322 51.8663 82.4687 51.8706C82.3441 51.8763 82.2249 51.7544 82.1118 51.6131C81.9018 51.3506 81.6908 51.0895 81.4817 50.8259C81.4158 50.7419 81.3519 50.6552 81.2903 50.5662C81.1858 50.416 81.1459 50.2719 81.1532 50.1243Z" fill="white"/>
<path d="M86.0033 50.6638C85.9865 50.4814 86.0634 50.4366 86.1878 50.4313C86.4389 50.421 86.6834 50.3924 86.9272 50.3619C87.1177 50.338 87.2239 50.4125 87.3955 50.6758C87.7356 51.1979 88.0782 51.7171 88.4282 52.2296C88.5951 52.4743 88.6437 52.7003 88.6779 52.9425C88.7383 53.3686 88.8169 53.8014 88.8785 54.2283C88.9021 54.3965 88.922 54.5713 88.9047 54.7145C88.8882 54.8149 88.8358 54.883 88.7586 54.9047C88.5443 54.9456 88.3154 54.9539 88.09 54.9692C87.994 54.9757 87.897 54.9966 87.7927 54.9594C87.705 54.923 87.6158 54.8467 87.5432 54.7458C87.2482 54.317 86.9622 53.8788 86.6759 53.4416C86.5541 53.2556 86.4269 53.0685 86.3264 52.872C86.2666 52.7551 86.2402 52.6144 86.223 52.4932C86.1619 52.0656 86.1097 51.6415 86.0578 51.2172C86.0358 51.0316 86.0214 50.8483 86.0033 50.6638Z" fill="white"/>
</g>
</g>
<path d="M141.658 99.7697L168.519 84.2632L168.525 81.72L141.665 97.22L141.658 99.7697Z" fill="#DEE4EE"/>
<path d="M55.9937 47.9751V50.5313L141.658 99.7697L141.665 97.22L55.9937 47.9751Z" fill="#A9B8DA"/>
<path d="M154.667 98.6834C151.536 96.8881 148.994 98.3321 148.981 101.903C148.968 105.474 151.496 109.825 154.627 111.614C157.758 113.403 160.299 111.965 160.312 108.394C160.326 104.824 157.778 100.479 154.667 98.6834Z" fill="#B4C5E1"/>
<path d="M154.666 102.144C153.212 101.311 152.046 101.981 152.046 103.64C152.094 104.544 152.356 105.424 152.811 106.209C153.266 106.993 153.902 107.66 154.666 108.154C156.12 108.986 157.286 108.316 157.286 106.658C157.239 105.753 156.977 104.873 156.521 104.089C156.066 103.304 155.43 102.638 154.666 102.144Z" fill="#A9B8DA"/>
<path d="M171.768 114.053L191.98 102.391L192 90.7156L171.787 102.378L171.768 114.053Z" fill="white"/>
<path d="M171.787 102.378L192 90.7155L185.673 83.1899L165.46 94.8523L171.787 102.378Z" fill="#CBD7EA"/>
<path d="M146.702 82.9361L166.914 71.2737L166.94 61.5171L146.728 73.186L146.702 82.9361Z" fill="#2A2529"/>
<path d="M164.543 93.2L184.756 81.5376L166.914 71.2737L146.702 82.9361L164.543 93.2Z" fill="#302B30"/>
<path d="M146.727 73.186L146.701 82.9361L164.025 93.2586L160.056 80.8222L146.727 73.186Z" fill="#CBD7EA"/>
<path d="M164.543 93.2002L184.756 81.5378L180.269 69.1599L160.057 80.8223L164.543 93.2002Z" fill="#3D8193"/>
<path d="M160.057 80.8222L180.27 69.1598L166.941 61.5171L146.728 73.186L160.057 80.8222Z" fill="#428CA0"/>
<path d="M165.46 94.8521L185.673 83.1897L181.193 68.5613L160.98 80.2302L165.46 94.8521Z" fill="#CBD7EA"/>
<path d="M184.939 82.8256L180.656 69.6606L161.72 80.5881L166.004 93.753L184.939 82.8256Z" fill="white"/>
<path d="M160.98 80.2303L181.192 68.5614L166.023 59.865L145.81 71.5274L160.98 80.2303Z" fill="#CBD7EA"/>
<path d="M160.98 80.2303L145.811 71.5339L145.778 83.5346L165.46 94.8522L160.98 80.2303ZM146.701 82.9427V73.1861L160.056 80.8222L164.026 93.2587L146.701 82.9362V82.9427Z" fill="#B4C5E1"/>
<path d="M155.014 98.0588C154.138 97.5213 153.135 97.2229 152.105 97.1938C150.141 97.1938 148.772 98.4946 148.366 100.57L145.746 99.0605V89.3755V83.5215L165.428 94.8392L171.755 102.365V114.073L160.987 107.854C160.777 104.108 158.23 99.9061 155.014 98.0588Z" fill="#B4C5E1"/>
<path d="M171.768 114.053L161 107.835C160.859 106.112 160.352 104.439 159.513 102.924L171.774 109.995L171.768 114.053Z" fill="#A9B8DA"/>
<path d="M150.304 97.6362C149.778 97.9482 149.328 98.3729 148.988 98.8792C148.648 99.3856 148.426 99.9609 148.339 100.563L145.719 99.0541V95.0344L150.304 97.6362Z" fill="#A9B8DA"/>
<defs>
<filter id="filter0_f_792_14643" x="0" y="35.0647" width="193" height="115.984" filterUnits="userSpaceOnUse" color-interpolation-filters="sRGB">
<feFlood flood-opacity="0" result="BackgroundImageFix"/>
<feBlend mode="normal" in="SourceGraphic" in2="BackgroundImageFix" result="shape"/>
<feGaussianBlur stdDeviation="1" result="effect1_foregroundBlur_792_14643"/>
</filter>
<linearGradient id="paint0_linear_792_14643" x1="95.5" y1="123.052" x2="117.998" y2="80.9349" gradientUnits="userSpaceOnUse">
<stop stop-color="#B4C5E0" stop-opacity="0"/>
<stop offset="1" stop-color="#0E3391"/>
</linearGradient>
<clipPath id="clip0_792_14643">
<rect width="113.76" height="96.5887" fill="white" transform="translate(55.7998 1.06836)"/>
</clipPath>
<clipPath id="clip1_792_14643">
<rect width="45.7915" height="10.7899" fill="white" transform="matrix(0.865865 0.500278 0 1 79 41.071)"/>
</clipPath>
</defs>
</svg>
