<svg width="193" height="152" viewBox="0 0 193 152" fill="none" xmlns="http://www.w3.org/2000/svg">
<g style="mix-blend-mode:multiply" opacity="0.4" filter="url(#filter0_f_792_16028)">
<path d="M90 37.4789L2 83.5303L116 149.604L191 103.052L90 37.4789Z" fill="url(#paint0_linear_792_16028)"/>
</g>
<path d="M77.8897 54.1731C78.8198 53.6325 80.0708 53.6521 81.4659 54.3229C81.6144 54.3967 81.7672 54.477 81.9244 54.5638C84.0919 55.9463 85.767 57.9718 86.7123 60.3536C87.2494 61.5888 87.5407 62.9158 87.5703 64.2612C87.5703 66.0391 86.9153 67.2895 85.9198 67.8757L82.0816 70.0965C83.0968 69.5103 83.7321 68.2599 83.7321 66.482C83.7026 65.1366 83.4112 63.8096 82.8741 62.5744C81.9288 60.1926 80.2537 58.1671 78.0862 56.7847C77.9334 56.6978 77.7806 56.6175 77.6277 56.5437C76.2326 55.8924 75.0078 55.8533 74.0515 56.3939L77.8897 54.1731Z" fill="#A9B8DA"/>
<path d="M78.0864 56.7847C74.9556 54.9872 72.4143 56.433 72.4012 60.0084C72.3881 63.5839 74.9163 67.9408 78.0472 69.7318C81.178 71.5228 83.7193 70.0835 83.7324 66.508C83.7455 62.9326 81.2173 58.5822 78.0864 56.7847Z" fill="#A9B8DA"/>
<path d="M78.0855 56.7847C74.9547 54.9872 72.4133 56.433 72.4002 60.0084C72.3871 63.5839 74.9154 67.9408 78.0462 69.7318C81.177 71.5228 83.7183 70.0835 83.7314 66.508C83.7445 62.9326 81.2163 58.5822 78.0855 56.7847Z" fill="#B4C5E1"/>
<path d="M78.0725 60.4579C76.6184 59.6242 75.4525 60.295 75.4525 61.9558C75.5 62.8611 75.7621 63.7425 76.2174 64.528C76.6727 65.3135 77.3084 65.9808 78.0725 66.4755C79.5265 67.3091 80.6924 66.6383 80.6924 64.9776C80.6449 64.0722 80.3828 63.1908 79.9275 62.4053C79.4722 61.6199 78.8366 60.9525 78.0725 60.4579Z" fill="#A9B8DA"/>
<path d="M64.7305 46.7161C65.6606 46.1821 66.9116 46.1951 68.3067 46.8659C68.4552 46.9397 68.608 47.0201 68.7652 47.1069C70.9327 48.4893 72.6078 50.5149 73.5531 52.8966C74.0902 54.1318 74.3816 55.4588 74.4111 56.8042C74.4111 58.5822 73.7562 59.8326 72.7606 60.4187L68.9224 62.633C69.9376 62.0469 70.573 60.7965 70.573 59.0185C70.5434 57.6731 70.252 56.3461 69.7149 55.1109C68.7706 52.7323 67.0979 50.7091 64.9336 49.3277C64.7807 49.2409 64.6279 49.1606 64.4751 49.0867C63.08 48.4355 61.8552 48.3964 60.8989 48.937L64.7305 46.7161Z" fill="#A9B8DA"/>
<path d="M64.9331 49.3276C61.8023 47.5302 59.261 48.976 59.2479 52.5514C59.2348 56.1268 61.763 60.4838 64.8938 62.2748C68.0246 64.0657 70.566 62.6264 70.5791 59.051C70.5922 55.4756 68.0574 51.1251 64.9331 49.3276Z" fill="#A9B8DA"/>
<path d="M64.9341 49.3278C61.8033 47.5303 59.262 48.9761 59.2489 52.5515C59.2358 56.127 61.764 60.4839 64.8948 62.2749C68.0256 64.0659 70.5669 62.6266 70.58 59.0511C70.5931 55.4757 68.0584 51.1253 64.9341 49.3278Z" fill="#B4C5E1"/>
<path d="M64.9338 53.0008C63.4797 52.1672 62.3139 52.838 62.3139 54.4987C62.3613 55.4041 62.6234 56.2855 63.0787 57.071C63.5341 57.8565 64.1697 58.5238 64.9338 59.0185C66.3878 59.8521 67.5537 59.1813 67.5537 57.5206C67.5062 56.6152 67.2442 55.7338 66.7888 54.9483C66.3335 54.1628 65.6979 53.4955 64.9338 53.0008Z" fill="#A9B8DA"/>
<path d="M154.456 96.5704C155.386 96.0364 156.637 96.0494 158.032 96.7202C158.181 96.794 158.334 96.8743 158.491 96.9612C160.659 98.3432 162.334 100.369 163.279 102.751C163.816 103.986 164.107 105.313 164.137 106.658C164.137 108.436 163.482 109.687 162.486 110.273L158.648 112.487C159.663 111.901 160.299 110.651 160.299 108.873C160.269 107.527 159.978 106.2 159.441 104.965C158.499 102.585 156.828 100.56 154.666 99.1754C154.513 99.0886 154.36 99.0083 154.207 98.9345C152.812 98.2832 151.587 98.2441 150.631 98.7847L154.456 96.5704Z" fill="#A9B8DA"/>
<path d="M154.666 99.1754C151.535 97.3779 148.993 98.8237 148.98 102.399C148.967 105.975 151.495 110.332 154.626 112.123C157.757 113.914 160.298 112.474 160.311 108.899C160.325 105.323 157.777 100.973 154.666 99.1754Z" fill="#A9B8DA"/>
<g clip-path="url(#clip0_792_16028)">
<path d="M169.56 82.8846V50.835L141.699 66.8573V98.9069L169.56 82.8846Z" fill="#719D46"/>
<path d="M83.6363 1.43701L169.536 50.8446L141.68 66.8718L55.7998 17.4497L83.6363 1.43701Z" fill="#8BBF56"/>
<path d="M55.7998 49.4945L141.699 98.9069V66.8573L55.7998 17.4497V49.4945Z" fill="#7EAE4E"/>
<path opacity="0.5" d="M139.377 68.193L137.036 66.8719V93.5549L139.377 94.9002V68.193Z" fill="#66913C"/>
<path opacity="0.5" d="M134.118 65.1684L131.776 63.8425V90.5255L134.118 91.8756V65.1684Z" fill="#66913C"/>
<path opacity="0.5" d="M128.857 62.1392L126.511 60.8181V87.5011L128.857 88.8464V62.1392Z" fill="#66913C"/>
<path opacity="0.5" d="M123.592 59.1146L121.251 57.7887V84.4717L123.592 85.8218V59.1146Z" fill="#66913C"/>
<path opacity="0.5" d="M118.331 56.0854L115.99 54.7595V81.4474L118.331 82.7926V56.0854Z" fill="#66913C"/>
<path opacity="0.5" d="M113.066 53.0562L110.725 51.7351V78.4181L113.066 79.7682V53.0562Z" fill="#66913C"/>
<path opacity="0.5" d="M107.806 50.0315L105.465 48.7056V75.3886L107.806 76.7387V50.0315Z" fill="#66913C"/>
<path opacity="0.5" d="M102.54 47.0022L100.199 45.6812V72.3642L102.54 73.7094V47.0022Z" fill="#66913C"/>
<path opacity="0.5" d="M97.2806 43.9779L94.9395 42.652V69.335L97.2806 70.6851V43.9779Z" fill="#66913C"/>
<path opacity="0.5" d="M92.015 40.9486L89.6738 39.6276V66.3106L92.015 67.6558V40.9486Z" fill="#66913C"/>
<path opacity="0.5" d="M86.7552 37.9192L84.4141 36.5981V63.2811L86.7552 64.6313V37.9192Z" fill="#66913C"/>
<path opacity="0.5" d="M81.4896 34.8949L79.1484 33.569V60.2568L81.4896 61.6021V34.8949Z" fill="#66913C"/>
<path opacity="0.5" d="M76.2289 31.8655L73.8877 30.5444V57.2274L76.2289 58.5727V31.8655Z" fill="#66913C"/>
<path opacity="0.5" d="M70.9691 28.8411L68.623 27.5151V54.1981L70.9691 55.5483V28.8411Z" fill="#66913C"/>
<path opacity="0.5" d="M65.7035 25.8118L63.3623 24.4858V51.1737L65.7035 52.519V25.8118Z" fill="#66913C"/>
<path opacity="0.5" d="M60.4437 22.7873L58.0977 21.4614V48.1444L60.4437 49.4945V22.7873Z" fill="#66913C"/>
<path d="M164.916 50.835L162.594 49.4994L139.377 62.8554L141.699 64.1862L164.916 50.835Z" fill="#80B34D"/>
<path d="M159.656 47.8105L157.335 46.4701L134.117 59.8261L136.439 61.1617L159.656 47.8105Z" fill="#80B34D"/>
<path d="M154.391 44.7813L152.069 43.4457L128.856 56.8017L131.178 58.1373L154.391 44.7813Z" fill="#80B34D"/>
<path d="M149.131 41.7569L146.809 40.4213L123.592 53.7724L125.914 55.108L149.131 41.7569Z" fill="#80B34D"/>
<path d="M143.865 38.7274L141.544 37.3918L118.331 50.7479L120.653 52.0835L143.865 38.7274Z" fill="#80B34D"/>
<path d="M138.605 35.703L136.284 34.3674L113.066 47.7186L115.388 49.0542L138.605 35.703Z" fill="#80B34D"/>
<path d="M133.34 32.6737L131.018 31.3429L107.806 44.6941L110.127 46.0297L133.34 32.6737Z" fill="#80B34D"/>
<path d="M128.079 29.6491L125.757 28.3135L102.54 41.6695L104.862 43.0051L128.079 29.6491Z" fill="#80B34D"/>
<path d="M122.814 26.6247L120.493 25.2891L97.2803 38.6402L99.602 39.9758L122.814 26.6247Z" fill="#80B34D"/>
<path d="M117.554 23.5954L115.232 22.2598L92.0146 35.6158L94.3364 36.9514L117.554 23.5954Z" fill="#80B34D"/>
<path d="M112.294 20.571L109.972 19.2354L86.7549 32.5865L89.0766 33.9221L112.294 20.571Z" fill="#80B34D"/>
<path d="M107.028 17.5417L104.707 16.2061L81.4893 29.5621L83.811 30.8977L107.028 17.5417Z" fill="#80B34D"/>
<path d="M101.769 14.5172L99.4468 13.1816L76.2295 26.5377L78.5512 27.8733L101.769 14.5172Z" fill="#80B34D"/>
<path d="M96.5029 11.4928L94.1812 10.1572L70.9688 23.5084L73.2905 24.844L96.5029 11.4928Z" fill="#80B34D"/>
<path d="M91.2432 8.46353L88.9214 7.12793L65.7041 20.4839L68.0258 21.8195L91.2432 8.46353Z" fill="#80B34D"/>
<path d="M85.9775 5.43912L83.6558 4.10352L60.4434 17.4547L62.7651 18.7903L85.9775 5.43912Z" fill="#80B34D"/>
<path d="M144.298 68.1299L146.979 66.6346L147.256 93.8064L144.575 95.3259L144.298 68.1299Z" fill="#668D3F"/>
<path d="M149.515 65.0765L152.196 63.5957L152.424 90.9804L149.743 92.4853L149.515 65.0765Z" fill="#668D3F"/>
<path d="M154.731 62.0277L157.408 60.5566L157.592 88.1591L154.916 89.6447L154.731 62.0277Z" fill="#668D3F"/>
<path d="M159.942 58.9792L162.624 57.5178L162.764 85.338L160.083 86.8043L159.942 58.9792Z" fill="#668D3F"/>
<path d="M165.159 55.9304L167.84 54.4835L167.933 82.5118L165.251 83.9635L165.159 55.9304Z" fill="#668D3F"/>
</g>
<path d="M141.658 100.263L168.519 84.7369L168.525 82.1904L141.665 97.71L141.658 100.263Z" fill="#DEE4EE"/>
<path d="M55.9937 48.403V50.9624L141.658 100.263L141.665 97.7101L55.9937 48.403Z" fill="#A9B8DA"/>
<path d="M154.667 99.1754C151.536 97.3779 148.994 98.8237 148.981 102.399C148.968 105.975 151.496 110.332 154.627 112.123C157.758 113.914 160.299 112.474 160.312 108.899C160.326 105.323 157.778 100.973 154.667 99.1754Z" fill="#B4C5E1"/>
<path d="M154.666 102.64C153.212 101.806 152.046 102.477 152.046 104.138C152.094 105.043 152.356 105.925 152.811 106.71C153.266 107.496 153.902 108.163 154.666 108.658C156.12 109.491 157.286 108.821 157.286 107.16C157.239 106.254 156.977 105.373 156.521 104.588C156.066 103.802 155.43 103.135 154.666 102.64Z" fill="#A9B8DA"/>
<path d="M171.768 114.565L191.98 102.888L192 91.1974L171.787 102.875L171.768 114.565Z" fill="#F3F8FF"/>
<path d="M171.787 102.875L192 91.1975L185.673 83.6624L165.46 95.3395L171.787 102.875Z" fill="#CBD7EA"/>
<path d="M146.702 83.4082L166.914 71.7311L166.94 61.9622L146.728 73.6458L146.702 83.4082Z" fill="#2A2529"/>
<path d="M164.543 93.6852L184.756 82.008L166.914 71.7311L146.702 83.4082L164.543 93.6852Z" fill="#302B30"/>
<path d="M146.727 73.6459L146.701 83.4083L164.025 93.7439L160.056 81.2917L146.727 73.6459Z" fill="#CBD7EA"/>
<path d="M164.543 93.6852L184.756 82.008L180.269 69.6145L160.057 81.2916L164.543 93.6852Z" fill="#3D8193"/>
<path d="M160.057 81.2916L180.27 69.6145L166.941 61.9622L146.728 73.6458L160.057 81.2916Z" fill="#428CA0"/>
<path d="M165.46 95.3394L185.673 83.6623L181.193 69.0154L160.98 80.699L165.46 95.3394Z" fill="#CBD7EA"/>
<path d="M184.939 83.2975L180.656 70.116L161.72 81.0572L166.004 94.2388L184.939 83.2975Z" fill="#F3F8FF"/>
<path d="M160.98 80.699L181.192 69.0154L166.023 60.308L145.81 71.9851L160.98 80.699Z" fill="#CBD7EA"/>
<path d="M160.98 80.6991L145.811 71.9917L145.778 84.0075L165.46 95.3395L160.98 80.6991ZM146.701 83.4149V73.6459L160.056 81.2917L164.026 93.7439L146.701 83.4083V83.4149Z" fill="#B4C5E1"/>
<path d="M155.014 98.5501C154.138 98.0119 153.135 97.7131 152.105 97.6839C150.141 97.6839 148.772 98.9865 148.366 101.064L145.746 99.5531V89.8558V83.9944L165.428 95.3264L171.755 102.861V114.584L160.987 108.358C160.777 104.607 158.23 100.4 155.014 98.5501Z" fill="#B4C5E1"/>
<path d="M171.768 114.565L161 108.339C160.859 106.614 160.352 104.938 159.513 103.422L171.774 110.501L171.768 114.565Z" fill="#A9B8DA"/>
<path d="M150.304 98.1269C149.778 98.4393 149.328 98.8645 148.988 99.3715C148.648 99.8785 148.426 100.455 148.339 101.058L145.719 99.5467V95.5219L150.304 98.1269Z" fill="#A9B8DA"/>
<defs>
<filter id="filter0_f_792_16028" x="0" y="35.4789" width="193" height="116.125" filterUnits="userSpaceOnUse" color-interpolation-filters="sRGB">
<feFlood flood-opacity="0" result="BackgroundImageFix"/>
<feBlend mode="normal" in="SourceGraphic" in2="BackgroundImageFix" result="shape"/>
<feGaussianBlur stdDeviation="1" result="effect1_foregroundBlur_792_16028"/>
</filter>
<linearGradient id="paint0_linear_792_16028" x1="95.5" y1="123.575" x2="118.042" y2="81.4282" gradientUnits="userSpaceOnUse">
<stop stop-color="#B4C5E0" stop-opacity="0"/>
<stop offset="1" stop-color="#0E3391"/>
</linearGradient>
<clipPath id="clip0_792_16028">
<rect width="113.76" height="97.4699" fill="white" transform="translate(55.7998 1.43701)"/>
</clipPath>
</defs>
</svg>
