<svg width="193" height="152" viewBox="0 0 193 152" fill="none" xmlns="http://www.w3.org/2000/svg">
<g style="mix-blend-mode:multiply" opacity="0.4" filter="url(#filter0_f_792_11183)">
<path d="M103 37.2556L191 83.375L77 149.546L2 102.926L103 37.2556Z" fill="url(#paint0_linear_792_11183)"/>
</g>
<path d="M115.11 53.9747C114.18 53.4333 112.929 53.4529 111.534 54.1247C111.386 54.1986 111.233 54.279 111.076 54.366C108.908 55.7505 107.233 57.779 106.288 60.1643C105.751 61.4013 105.459 62.7302 105.43 64.0776C105.43 65.8582 106.085 67.1105 107.08 67.6975L110.918 69.9216C109.903 69.3346 109.268 68.0823 109.268 66.3017C109.297 64.9543 109.589 63.6254 110.126 62.3884C111.071 60.0031 112.746 57.9746 114.914 56.5901C115.067 56.5031 115.219 56.4227 115.372 56.3488C116.767 55.6965 117.992 55.6574 118.948 56.1988L115.11 53.9747Z" fill="#A9B8DA"/>
<path d="M114.914 56.59C118.044 54.7899 120.586 56.2378 120.599 59.8185C120.612 63.3992 118.084 67.7626 114.953 69.5562C111.822 71.3499 109.281 69.9084 109.268 66.3277C109.255 62.747 111.783 58.3902 114.914 56.59Z" fill="#A9B8DA"/>
<path d="M114.915 56.59C118.045 54.7899 120.587 56.2378 120.6 59.8185C120.613 63.3992 118.085 67.7626 114.954 69.5562C111.823 71.3499 109.282 69.9084 109.269 66.3277C109.256 62.747 111.784 58.3902 114.915 56.59Z" fill="#B4C5E1"/>
<path d="M114.928 60.2684C116.382 59.4336 117.547 60.1054 117.547 61.7686C117.5 62.6753 117.238 63.558 116.783 64.3446C116.327 65.1313 115.692 65.7996 114.928 66.295C113.473 67.1298 112.308 66.458 112.308 64.7949C112.355 63.8881 112.617 63.0054 113.072 62.2188C113.528 61.4322 114.163 60.7639 114.928 60.2684Z" fill="#A9B8DA"/>
<path d="M128.269 46.5065C127.339 45.9717 126.088 45.9847 124.693 46.6565C124.545 46.7304 124.392 46.8109 124.235 46.8978C122.067 48.2823 120.392 50.3109 119.447 52.6961C118.91 53.9331 118.618 55.2621 118.589 56.6095C118.589 58.39 119.244 59.6423 120.239 60.2293L124.078 62.4469C123.062 61.8599 122.427 60.6076 122.427 58.827C122.457 57.4796 122.748 56.1507 123.285 54.9137C124.229 52.5315 125.902 50.5054 128.066 49.1219C128.219 49.035 128.372 48.9545 128.525 48.8806C129.92 48.2284 131.145 48.1892 132.101 48.7306L128.269 46.5065Z" fill="#A9B8DA"/>
<path d="M128.067 49.122C131.198 47.3219 133.739 48.7698 133.752 52.3505C133.765 55.9312 131.237 60.2946 128.106 62.0882C124.975 63.8818 122.434 62.4404 122.421 58.8597C122.408 55.279 124.943 50.9221 128.067 49.122Z" fill="#A9B8DA"/>
<path d="M128.066 49.122C131.197 47.3219 133.738 48.7698 133.751 52.3505C133.764 55.9312 131.236 60.2946 128.105 62.0882C124.974 63.8818 122.433 62.4404 122.42 58.8597C122.407 55.279 124.942 50.9221 128.066 49.122Z" fill="#B4C5E1"/>
<path d="M128.066 52.8007C129.52 51.9658 130.686 52.6376 130.686 54.3008C130.639 55.2075 130.377 56.0902 129.921 56.8769C129.466 57.6635 128.83 58.3318 128.066 58.8272C126.612 59.6621 125.446 58.9903 125.446 57.3271C125.494 56.4204 125.756 55.5377 126.211 54.751C126.666 53.9644 127.302 53.2961 128.066 52.8007Z" fill="#A9B8DA"/>
<path d="M38.5439 96.4345C37.6138 95.8997 36.3628 95.9127 34.9677 96.5845C34.8192 96.6584 34.6664 96.7389 34.5092 96.8258C32.3414 98.2099 30.6662 100.239 29.7213 102.624C29.1842 103.861 28.8928 105.19 28.8633 106.537C28.8633 108.318 29.5183 109.57 30.5138 110.157L34.352 112.375C33.3368 111.788 32.7015 110.536 32.7015 108.755C32.731 107.408 33.0224 106.079 33.5595 104.842C34.5013 102.458 36.1716 100.43 38.3343 99.0434C38.4871 98.9564 38.6399 98.876 38.7928 98.8021C40.1879 98.1498 41.4127 98.1107 42.369 98.652L38.5439 96.4345Z" fill="#A9B8DA"/>
<path d="M38.3345 99.0434C41.4653 97.2433 44.0066 98.6912 44.0197 102.272C44.0328 105.853 41.5046 110.216 38.3738 112.01C35.2429 113.803 32.7016 112.362 32.6885 108.781C32.6754 105.2 35.2233 100.844 38.3345 99.0434Z" fill="#A9B8DA"/>
<g clip-path="url(#clip0_792_11183)">
<path d="M23.44 82.093V50.2461L51.3008 66.1672V98.0141L23.44 82.093Z" fill="#1E1C7B"/>
<path d="M109.364 1.16064L23.4645 50.2558L51.3204 66.1817L137.2 17.0721L109.364 1.16064Z" fill="#4A48AD"/>
<path d="M137.2 48.9141L51.301 98.0141V66.1672L137.2 17.072V48.9141Z" fill="#2B298F"/>
<path opacity="0.5" d="M53.6227 67.4944L55.9639 66.1816V92.6959L53.6227 94.0327V67.4944Z" fill="#5755B7"/>
<path opacity="0.5" d="M58.8825 64.4889L61.2236 63.1714V89.6856L58.8825 91.0272V64.4889Z" fill="#5755B7"/>
<path opacity="0.5" d="M64.1432 61.479L66.4893 60.1663V86.6805L64.1432 88.0173V61.479Z" fill="#5755B7"/>
<path opacity="0.5" d="M69.4079 58.4733L71.749 57.1558V83.67L69.4079 85.0116V58.4733Z" fill="#5755B7"/>
<path opacity="0.5" d="M74.6686 55.4633L77.0098 54.1458V80.6648L74.6686 82.0016V55.4633Z" fill="#5755B7"/>
<path opacity="0.5" d="M79.9342 52.4534L82.2754 51.1406V77.6549L79.9342 78.9965V52.4534Z" fill="#5755B7"/>
<path opacity="0.5" d="M85.194 49.4479L87.5352 48.1304V74.6446L85.194 75.9862V49.4479Z" fill="#5755B7"/>
<path opacity="0.5" d="M90.4596 46.4377L92.8008 45.125V71.6393L90.4596 72.976V46.4377Z" fill="#5755B7"/>
<path opacity="0.5" d="M95.7194 43.4325L98.0605 42.115V68.6293L95.7194 69.9708V43.4325Z" fill="#5755B7"/>
<path opacity="0.5" d="M100.985 40.4224L103.326 39.1096V65.6239L100.985 66.9607V40.4224Z" fill="#5755B7"/>
<path opacity="0.5" d="M106.245 37.4121L108.586 36.0994V62.6136L106.245 63.9552V37.4121Z" fill="#5755B7"/>
<path opacity="0.5" d="M111.51 34.4069L113.852 33.0894V59.6084L111.51 60.9452V34.4069Z" fill="#5755B7"/>
<path opacity="0.5" d="M116.771 31.3967L119.112 30.084V56.5982L116.771 57.935V31.3967Z" fill="#5755B7"/>
<path opacity="0.5" d="M122.031 28.3913L124.377 27.0737V53.588L122.031 54.9296V28.3913Z" fill="#5755B7"/>
<path opacity="0.5" d="M127.297 25.3813L129.638 24.0637V50.5828L127.297 51.9196V25.3813Z" fill="#5755B7"/>
<path opacity="0.5" d="M132.556 22.3759L134.902 21.0583V47.5726L132.556 48.9142V22.3759Z" fill="#5755B7"/>
<path d="M28.084 50.2463L30.4057 48.9192L53.623 62.1907L51.3013 63.5131L28.084 50.2463Z" fill="#3A389D"/>
<path d="M33.3438 47.2409L35.6655 45.9089L58.8828 59.1805L56.5611 60.5076L33.3438 47.2409Z" fill="#3A389D"/>
<path d="M38.6094 44.2307L40.9311 42.9036L64.1436 56.1751L61.8218 57.5023L38.6094 44.2307Z" fill="#3A389D"/>
<path d="M43.8692 41.2256L46.1909 39.8984L69.4082 53.1652L67.0865 54.4923L43.8692 41.2256Z" fill="#3A389D"/>
<path d="M49.1348 38.2153L51.4565 36.8882L74.6689 50.1597L72.3472 51.4869L49.1348 38.2153Z" fill="#3A389D"/>
<path d="M54.3945 35.21L56.7163 33.8828L79.9336 47.1496L77.6119 48.4767L54.3945 35.21Z" fill="#3A389D"/>
<path d="M59.6601 32.1998L61.9819 30.8774L85.1943 44.1442L82.8726 45.4713L59.6601 32.1998Z" fill="#3A389D"/>
<path d="M64.9209 29.1943L67.2426 27.8672L90.46 41.1387L88.1382 42.4659L64.9209 29.1943Z" fill="#3A389D"/>
<path d="M70.1855 26.1892L72.5073 24.8621L95.7197 38.1288L93.398 39.456L70.1855 26.1892Z" fill="#3A389D"/>
<path d="M75.4463 23.179L77.768 21.8518L100.985 35.1234L98.6636 36.4505L75.4463 23.179Z" fill="#3A389D"/>
<path d="M80.7061 20.1736L83.0278 18.8464L106.245 32.1132L103.923 33.4403L80.7061 20.1736Z" fill="#3A389D"/>
<path d="M85.9717 17.1636L88.2934 15.8364L111.511 29.108L109.189 30.4351L85.9717 17.1636Z" fill="#3A389D"/>
<path d="M91.2315 14.1582L93.5532 12.8311L116.771 26.1026L114.449 27.4298L91.2315 14.1582Z" fill="#3A389D"/>
<path d="M96.4971 11.1528L98.8188 9.82568L122.031 23.0924L119.71 24.4196L96.4971 11.1528Z" fill="#3A389D"/>
<path d="M101.757 8.14283L104.079 6.81567L127.296 20.0872L124.974 21.4144L101.757 8.14283Z" fill="#3A389D"/>
<path d="M107.022 5.13746L109.344 3.8103L132.557 17.0771L130.235 18.4042L107.022 5.13746Z" fill="#3A389D"/>
<path d="M48.7021 67.4319L46.021 65.946L45.7441 92.946L48.4253 94.4559L48.7021 67.4319Z" fill="#32308D"/>
<path d="M43.4854 64.3977L40.8042 62.9263L40.5759 90.1378L43.2571 91.6332L43.4854 64.3977Z" fill="#32308D"/>
<path d="M38.2686 61.3683L35.5922 59.9065L35.4077 87.3344L38.084 88.8106L38.2686 61.3683Z" fill="#32308D"/>
<path d="M33.0576 58.3391L30.3765 56.887L30.2356 84.5312L32.9168 85.9882L33.0576 58.3391Z" fill="#32308D"/>
<path d="M27.8408 55.3096L25.1597 53.8718L25.0674 81.7229L27.7485 83.1654L27.8408 55.3096Z" fill="#32308D"/>
<g clip-path="url(#clip1_792_11183)">
<path d="M108.221 44.4595C108.291 44.4397 108.362 44.4148 108.431 44.4012C108.795 44.3304 109.146 44.2984 109.433 44.4382C109.827 44.6297 110.075 44.9983 110.123 45.5947C110.147 45.8923 110.165 46.198 110.147 46.5195C110.102 47.2961 109.931 48.0992 109.558 48.9484C109.236 49.6804 108.817 50.3304 108.319 50.9119C108.067 51.2053 107.788 51.4586 107.518 51.7169C107.176 52.039 106.819 52.3058 106.461 52.5074C106.121 52.7034 105.781 52.915 105.443 53.0905C105.161 53.2366 104.881 53.3437 104.601 53.4603C104.529 53.4904 104.46 53.4906 104.36 53.5106C104.372 53.4265 104.38 53.3299 104.398 53.2306C104.596 52.1683 104.797 51.1052 104.994 50.0432C105.093 49.5095 105.185 48.9776 105.283 48.4444C105.424 47.671 105.566 46.8973 105.709 46.1232C105.717 46.0907 105.728 46.0578 105.741 46.0251L106.418 45.5012L108.221 44.4595ZM105.977 51.3688C106.204 51.2378 106.407 51.1228 106.61 51.0029C106.96 50.7966 107.304 50.4947 107.612 50.1234C108.094 49.5418 108.424 48.879 108.602 48.1698C108.741 47.6112 108.799 47.0845 108.727 46.6241C108.671 46.2669 108.507 46.0456 108.194 46.0416C107.765 46.0356 107.311 46.3184 106.842 46.6484L105.977 51.3688Z" fill="white"/>
<path d="M115.661 47.1322L114.315 47.9098L114.231 46.4589C114.189 46.4806 114.148 46.5002 114.107 46.5239C113.472 46.8906 112.837 47.2601 112.202 47.621C112.103 47.6784 112.05 47.7492 112.005 47.8713C111.79 48.4519 111.569 49.0321 111.347 49.62L109.929 50.4392C109.957 50.3209 109.967 50.219 110.005 50.1202C110.27 49.4394 110.538 48.759 110.809 48.0791C111.121 47.2964 111.431 46.5135 111.75 45.7317C112.082 44.919 112.42 44.1069 112.764 43.2956C113.02 42.6908 113.29 42.0901 113.557 41.4891C113.571 41.4588 113.589 41.43 113.61 41.4044C113.63 41.3789 113.653 41.3571 113.677 41.3404C114.062 41.1122 114.446 40.8923 114.845 40.662C114.914 41.0554 114.985 41.4433 115.051 41.8348C115.112 42.1934 115.173 42.5519 115.225 42.9159C115.267 43.2118 115.295 43.5193 115.332 43.819C115.371 44.1359 115.418 44.4487 115.455 44.7662C115.486 45.0319 115.506 45.3058 115.535 45.5729C115.566 45.853 115.601 46.1295 115.634 46.4075C115.643 46.4812 115.652 46.5547 115.661 46.6281L115.661 47.1322ZM113.944 42.8817L113.907 42.8968L112.642 46.0623L114.137 45.1982L113.944 42.8817Z" fill="white"/>
<path d="M91.0798 54.3629C91.1732 54.3385 91.2674 54.3115 91.3591 54.2901C91.6849 54.2145 91.9916 54.2 92.2301 54.3482C92.5023 54.5176 92.6509 54.8259 92.6552 55.2892C92.6587 55.6736 92.6498 56.0604 92.5239 56.4971C92.4353 56.8038 92.3207 57.1072 92.1564 57.411C91.7517 58.1553 91.2374 58.713 90.6669 59.1431C90.1636 59.5225 89.6511 59.8461 89.1128 60.2153L88.6476 62.7263L87.2842 63.514C87.3144 63.3128 87.338 63.116 87.3748 62.9154C87.55 61.9646 87.7278 61.0123 87.9056 60.0597C88.0554 59.2538 88.2065 58.4475 88.3535 57.6426C88.4604 57.0579 88.5615 56.4734 88.6674 55.8749C88.8317 55.7504 88.9906 55.629 89.1498 55.5075C89.1844 55.4811 89.2179 55.449 89.2514 55.4193L91.0798 54.3629ZM89.416 58.5953C89.7801 58.4076 90.1173 58.1871 90.4535 57.8903C90.8675 57.525 91.1671 57.11 91.2474 56.5404C91.2854 56.2691 91.2136 55.9355 90.9518 55.9523C90.5709 55.9777 90.1839 56.2187 89.8004 56.494L89.416 58.5953Z" fill="white"/>
<path d="M83.5638 58.7059C84.0163 58.6627 84.4716 58.61 84.9195 58.5816C85.1196 58.5688 85.2916 58.6325 85.3736 58.8347C85.5767 59.3416 85.771 59.8583 85.9815 60.3579C86.064 60.5542 86.0138 60.7705 85.8688 61.0289C85.6232 61.4662 85.3799 61.9063 85.1298 62.3421C85.023 62.5233 84.9107 62.7008 84.7933 62.8738C84.6631 63.0708 84.5648 63.1167 84.4442 63.046C83.6213 62.565 82.7983 62.0839 81.9754 61.6028C81.8962 61.5567 81.8111 61.5205 81.7537 61.4928C81.7029 61.3121 81.7697 61.1586 81.8711 60.9849C82.2524 60.3357 82.6608 59.7047 83.093 59.0972C83.1463 59.023 83.2037 58.9538 83.2591 58.8819L83.5638 58.7059ZM83.9719 59.1634C83.8231 59.1575 83.6961 59.175 83.5935 59.1427C83.4741 59.1045 83.3741 59.1951 83.2781 59.34C83.0112 59.743 82.7497 60.1511 82.4688 60.5834L83.9719 59.1634Z" fill="white"/>
<path d="M75.7425 63.2248C76.1099 63.3463 76.4789 63.464 76.8436 63.593C76.963 63.6391 77.0773 63.6954 77.1859 63.7615C77.3024 63.8277 77.3014 63.981 77.1859 64.1834C76.3066 65.7149 75.4276 67.2459 74.549 68.7765C74.45 68.9492 74.3205 69.0388 74.2176 68.9928C74.0295 68.908 73.839 68.8275 73.6612 68.7234C73.4345 68.5912 73.2197 68.4388 73 68.2952C73 68.1475 73 67.9998 73 67.852C73.2031 67.1335 73.4116 66.4146 73.6056 65.6975C73.7024 65.34 73.8923 65.0462 74.128 64.7895C74.5604 64.3184 75.0008 63.8628 75.4378 63.4008L75.7425 63.2248ZM74.2029 68.3732L73.7161 66.6457L73.3022 67.9099L74.2029 68.3732Z" fill="white"/>
<path d="M79.1958 72.8389C79.0275 72.7923 78.8322 72.7888 78.6974 72.6885C78.5077 72.5473 78.5161 72.2072 78.545 71.8756C78.5618 71.6836 78.5889 71.4661 78.672 71.2705C78.8408 70.8704 79.1037 70.5437 79.4147 70.3235C79.8172 70.0386 80.128 70.0886 80.3614 70.2997C80.5277 70.4502 80.5392 70.763 80.4965 71.0954C80.4744 71.2671 80.4528 71.4495 80.3886 71.6248C80.2817 71.9164 80.0867 72.1573 79.8873 72.3827C79.8592 72.4169 79.832 72.4523 79.8058 72.4889L79.1958 72.8389ZM79.6049 71.0502C79.6844 71.0648 79.7334 71.1035 79.7809 71.0749C79.837 71.0425 79.8921 70.9489 79.9772 70.846L79.7959 70.7927L79.6049 71.0502Z" fill="white"/>
<path d="M110.455 54.7779C110.533 54.3324 110.609 53.8874 110.69 53.4409C110.805 52.8068 110.923 52.1716 111.041 51.5296L111.395 51.3256L112.149 52.885L112.555 50.6536L112.928 50.4381C112.896 50.6364 112.868 50.8202 112.834 51.0064C112.677 51.8624 112.517 52.7195 112.36 53.5756C112.356 53.6116 112.356 53.6458 112.36 53.6775L112.004 53.8829C111.979 53.7818 111.961 53.6717 111.925 53.5815C111.778 53.206 111.627 52.8339 111.473 52.4653C111.423 52.3451 111.357 52.2402 111.299 52.1284L111.264 52.1588L110.836 54.5578L110.455 54.7779Z" fill="white"/>
<path d="M94.5088 63.9919C94.5791 63.5592 94.6439 63.1283 94.7213 62.6933C94.8249 62.1115 94.9387 61.5267 95.0481 60.9433C95.057 60.8959 95.0677 60.8478 95.0817 60.7803C95.4143 60.5291 95.7531 60.2689 96.0906 60.1921C96.4816 60.1032 96.6446 60.3594 96.5527 60.8751C96.493 61.2097 96.3496 61.5077 96.1073 61.775C96.0471 61.8414 95.9897 61.9135 95.9382 61.9746C96.0494 62.2258 96.1594 62.4645 96.2617 62.7108C96.2899 62.7788 96.2957 62.8699 96.3125 62.95L95.9308 63.1705L95.5512 62.2969L95.0977 62.5589C95.0898 62.6033 95.0832 62.6399 95.0771 62.6766L94.8897 63.7718L94.5088 63.9919ZM95.3887 60.9823L95.1919 62.0803C95.3414 61.9785 95.4727 61.9044 95.5982 61.8C95.7371 61.684 95.8818 61.5573 96.0024 61.4049C96.0635 61.3261 96.1127 61.235 96.1446 61.1421C96.1764 61.0491 96.1895 60.9581 96.1825 60.8793C96.1731 60.7276 96.0878 60.6531 95.9562 60.7037C95.7719 60.7747 95.5829 60.8851 95.3887 60.9823Z" fill="white"/>
<path d="M113.579 52.9734C113.658 52.5037 113.734 52.0349 113.818 51.5639C113.925 50.9565 114.04 50.3471 114.153 49.7328L115.611 48.8905C115.6 48.9723 115.593 49.0416 115.583 49.1132C115.572 49.1848 115.559 49.2597 115.544 49.3531L114.456 49.9815L114.304 50.8169L115.257 50.2663L115.188 50.7099L114.223 51.2674L114.033 52.2748L115.179 51.6128L115.128 52.0784L113.579 52.9734Z" fill="white"/>
<path d="M86.3066 68.7309C86.3856 68.285 86.4628 67.8396 86.5438 67.3931C86.6515 66.7991 86.7617 66.2052 86.8716 65.6108C86.88 65.5649 86.894 65.5175 86.9044 65.4737L88.3683 64.6279L88.2797 65.1021L87.1997 65.7261L87.0431 66.5649L87.9859 66.0201L87.9318 66.4558L86.9643 67.0148L86.7764 68.022L87.9356 67.3522L87.8556 67.836L86.3066 68.7309Z" fill="white"/>
<path d="M97.3018 62.3779C97.383 61.9216 97.4633 61.4655 97.5455 61.0088C97.6522 60.4154 97.7599 59.8225 97.8685 59.2299C97.8772 59.1943 97.8881 59.1584 97.901 59.1225L99.3586 58.2803L99.2759 58.7512L98.1905 59.3783L98.0382 60.2137L98.9815 59.6686L98.9229 60.1004L97.964 60.6544L97.7705 61.6705L98.929 61.0012L98.8508 61.483L97.3018 62.3779Z" fill="white"/>
<path d="M88.7441 67.3225L88.7551 67.1906L89.8216 65.1245L89.3251 64.0764L89.7568 63.827L90.1182 64.6246L90.8152 63.2128L91.2106 62.9843C91.189 63.0719 91.1852 63.1497 91.1509 63.2179C90.944 63.6371 90.7307 64.0536 90.5192 64.471C90.4402 64.6271 90.3607 64.7829 90.2949 64.9125C90.4407 65.261 90.5796 65.5837 90.7106 65.913C90.7378 65.9818 90.736 66.0794 90.7492 66.1628L90.3693 66.3823L90.026 65.4528L89.9752 65.4792L89.1758 67.073L88.7441 67.3225Z" fill="white"/>
<path d="M91.7656 65.5764C91.8438 65.1209 91.92 64.666 92.0008 64.2096C92.0556 63.9002 92.1186 63.5885 92.1752 63.2784C92.2308 62.9742 92.2831 62.671 92.337 62.366C92.6882 62.0955 93.0363 61.8358 93.3756 61.763C93.7565 61.6812 93.8393 61.8617 93.8367 62.2561C93.8347 62.5432 93.7687 62.8549 93.5574 63.1693C93.3743 63.4452 93.1524 63.6776 92.919 63.8377C92.7354 63.9641 92.5508 64.0799 92.3497 64.2112C92.2989 64.4863 92.2433 64.7749 92.191 65.0618C92.1729 65.1609 92.1607 65.2583 92.146 65.3563L91.7656 65.5764ZM92.6491 62.5774L92.4358 63.7181C92.5896 63.6188 92.728 63.543 92.8621 63.4398C93.0399 63.3031 93.2176 63.1476 93.3332 62.9018C93.4228 62.7115 93.4855 62.5254 93.4246 62.3763C93.3608 62.2229 93.2214 62.2618 93.0719 62.3352C92.9411 62.3995 92.8096 62.4847 92.6491 62.5774Z" fill="white"/>
<path d="M100.018 60.8081L99.7754 60.7893L99.9351 60.2592C99.9981 60.2588 100.051 60.2636 100.108 60.2573C100.387 60.2256 100.667 60.096 100.936 59.7517C101.141 59.4883 101.151 59.2059 100.958 59.1498C100.827 59.1135 100.689 59.0931 100.545 59.0886C100.331 59.0797 100.24 58.9368 100.223 58.6642C100.201 58.3173 100.314 57.9881 100.571 57.6654C100.682 57.5259 100.818 57.4079 100.947 57.3092C101.182 57.1291 101.526 56.9535 101.785 57.0188L101.632 57.4545C101.441 57.5254 101.285 57.5756 101.127 57.645C100.977 57.7105 100.827 57.8198 100.711 58.0128C100.525 58.3214 100.559 58.5487 100.814 58.5771C100.94 58.5912 101.073 58.5863 101.2 58.5949C101.439 58.6118 101.511 58.9318 101.471 59.2361C101.42 59.6332 101.243 59.9525 100.951 60.237C100.942 60.2455 100.938 60.2659 100.931 60.2809L100.018 60.8081Z" fill="white"/>
<path d="M102.507 59.3703L102.292 59.3542C102.253 59.1953 102.379 59.0085 102.427 58.8171C102.645 58.8488 102.867 58.7854 103.107 58.6165C103.271 58.501 103.432 58.3696 103.528 58.1341C103.634 57.8723 103.585 57.7197 103.379 57.6808C103.267 57.6609 103.151 57.6502 103.032 57.6489C102.822 57.6445 102.73 57.5041 102.712 57.2382C102.688 56.8911 102.795 56.5576 103.058 56.2307C103.173 56.0869 103.312 55.9732 103.445 55.8594C103.673 55.663 104.048 55.5364 104.241 55.5764C104.254 55.6967 104.201 55.8601 104.103 56.0236C103.931 56.0863 103.773 56.1218 103.616 56.2075C103.489 56.277 103.337 56.3813 103.241 56.5168C103.004 56.8516 103.036 57.1046 103.306 57.1377C103.449 57.1551 103.611 57.1306 103.741 57.1706C104.07 57.2693 104.035 57.9294 103.756 58.3961C103.661 58.5556 103.534 58.6936 103.421 58.8415L102.507 59.3703Z" fill="white"/>
<path d="M106.393 57.1254C106.474 56.6694 106.554 56.2141 106.636 55.7577C106.743 55.1642 106.851 54.5711 106.959 53.9782C106.968 53.9416 106.979 53.9046 106.992 53.8676L107.369 53.6501L106.867 56.4128L107.922 55.8036L107.84 56.2891L106.393 57.1254Z" fill="white"/>
<path d="M108.855 55.7024C108.918 55.3312 108.976 54.9612 109.043 54.5896C109.17 53.8873 109.301 53.1846 109.433 52.4665L109.79 52.2604C109.786 52.341 109.793 52.4167 109.778 52.499C109.598 53.4745 109.414 54.4519 109.233 55.4275C109.231 55.4481 109.232 55.4673 109.236 55.4844L108.855 55.7024Z" fill="white"/>
<path d="M103.135 47.435L104.513 46.6385L103.08 54.3951L102.05 54.9902C101.573 53.7404 101.041 52.55 100.343 51.516L99.4224 56.5084L98.0615 57.2947L99.4879 49.5382L100.549 48.9249C101.235 49.8005 101.778 50.8459 102.317 51.912L103.135 47.435Z" fill="white"/>
<path d="M95.2738 51.9717L96.5092 51.258C96.9204 53.3045 97.141 55.493 97.3579 57.6968L95.9783 58.4939L95.8937 57.0613C95.8546 57.0768 95.8152 57.095 95.7756 57.1156C95.1327 57.4871 94.4897 57.8559 93.8457 58.2339C93.7949 58.2633 93.7215 58.3482 93.6972 58.4113C93.4653 59.0076 93.2419 59.6049 93.0128 60.2102L91.5859 61.0346C91.6256 60.8968 91.6487 60.783 91.6918 60.6709C91.9273 60.0591 92.1658 59.4476 92.4072 58.8364C92.6471 58.2305 92.8902 57.6249 93.1365 57.0195C93.5174 56.0834 93.897 55.148 94.2845 54.2136C94.4486 53.8178 94.6316 53.4249 94.8058 53.0309L95.2738 51.9717ZM94.3089 56.6535L95.8058 55.7886L95.6123 53.4727L95.5725 53.4913L94.3089 56.6535Z" fill="white"/>
<path d="M75.3183 71.8712C75.3691 71.5092 75.414 71.1497 75.4681 70.787C75.512 70.4925 75.5798 70.1883 75.6098 69.9004C75.6314 69.6924 75.7246 69.5124 75.8406 69.3349C76.2215 68.7532 76.6055 68.1772 76.9882 67.5986C77.1603 67.3385 77.2457 67.2794 77.4392 67.2955C77.7345 67.3202 78.0285 67.3479 78.3234 67.374C78.4491 67.385 78.491 67.5613 78.4544 67.8188C78.3904 68.2693 78.3391 68.7126 78.281 69.1597C78.2543 69.3654 78.2383 69.5684 78.1898 69.7802C78.1564 69.9133 78.0967 70.0487 78.0171 70.1715C77.655 70.7287 77.284 71.2787 76.9166 71.8316C76.8546 71.9247 76.802 72.031 76.7337 72.1145C76.5996 72.2755 76.4714 72.2926 76.3498 72.2811C76.1238 72.2598 75.8968 72.2412 75.6718 72.2176C75.6008 72.2092 75.5321 72.1953 75.4658 72.1762C75.3533 72.1446 75.3104 72.0391 75.3183 71.8712Z" fill="white"/>
<path d="M80.5357 66.4226C80.5176 66.2472 80.6004 66.1034 80.7342 65.9431C81.0044 65.6197 81.2675 65.2849 81.5298 64.949C81.7347 64.6864 81.849 64.6346 82.0336 64.7046C82.3995 64.8435 82.7683 64.9761 83.1448 65.0923C83.3244 65.1481 83.3767 65.3309 83.4135 65.5489C83.4785 65.9323 83.5631 66.3003 83.6294 66.6829C83.6547 66.8346 83.6761 66.998 83.6575 67.1736C83.6397 67.3022 83.5834 67.4405 83.5004 67.5598C83.2698 67.8703 83.0235 68.1638 82.781 68.4605C82.6776 68.587 82.5732 68.73 82.461 68.8197C82.3666 68.8896 82.2707 68.9183 82.1926 68.9C81.8752 68.8054 81.5674 68.6896 81.2594 68.5751C81.1283 68.5265 80.9915 68.4832 80.8833 68.3969C80.8191 68.3454 80.7906 68.2268 80.7721 68.1179C80.7063 67.7337 80.6502 67.3422 80.5943 66.9503C80.5707 66.7778 80.5552 66.5986 80.5357 66.4226Z" fill="white"/>
</g>
</g>
<path d="M51.3419 100.133L24.4812 84.5836L24.4746 82.0334L51.3353 97.576L51.3419 100.133Z" fill="#DEE4EE"/>
<path d="M137.006 48.196V50.7593L51.3415 100.133L51.335 97.5759L137.006 48.196Z" fill="#A9B8DA"/>
<path d="M38.3335 99.0434C41.4643 97.2433 44.0056 98.6912 44.0187 102.272C44.0318 105.853 41.5036 110.216 38.3728 112.01C35.242 113.803 32.7006 112.362 32.6876 108.781C32.6745 105.2 35.2223 100.844 38.3335 99.0434Z" fill="#B4C5E1"/>
<path d="M38.3338 102.513C39.7878 101.678 40.9537 102.35 40.9537 104.013C40.9062 104.92 40.6442 105.803 40.1888 106.589C39.7335 107.376 39.0979 108.044 38.3338 108.54C36.8797 109.374 35.7139 108.703 35.7139 107.04C35.7613 106.133 36.0234 105.25 36.4787 104.463C36.934 103.677 37.5697 103.008 38.3338 102.513Z" fill="#A9B8DA"/>
<path d="M21.2323 114.455L1.01965 102.761L1 91.0535L21.2127 102.748L21.2323 114.455Z" fill="white"/>
<path d="M21.2127 102.748L1 91.0536L7.3271 83.5073L27.5398 95.2017L21.2127 102.748Z" fill="#CBD7EA"/>
<path d="M46.2984 83.2531L26.0858 71.5588L26.0596 61.7754L46.2722 73.4763L46.2984 83.2531Z" fill="#2A2529"/>
<path d="M28.4568 93.5451L8.24414 81.8507L26.0858 71.5586L46.2985 83.253L28.4568 93.5451Z" fill="#302B30"/>
<path d="M46.2726 73.4763L46.2988 83.2532L28.9746 93.604L32.9438 81.1334L46.2726 73.4763Z" fill="#CBD7EA"/>
<path d="M28.4568 93.5452L8.24414 81.8508L12.7308 69.439L32.9434 81.1333L28.4568 93.5452Z" fill="#3D8193"/>
<path d="M32.9431 81.1334L12.7305 69.439L26.0593 61.7754L46.272 73.4763L32.9431 81.1334Z" fill="#428CA0"/>
<path d="M27.5398 95.2018L7.32715 83.5074L11.8072 68.8389L32.0199 80.5398L27.5398 95.2018Z" fill="#CBD7EA"/>
<path d="M8.06055 83.1422L12.3441 69.9412L31.2796 80.8985L26.996 94.0996L8.06055 83.1422Z" fill="white"/>
<path d="M32.0203 80.5398L11.8076 68.8389L26.9769 60.1187L47.1896 71.813L32.0203 80.5398Z" fill="#CBD7EA"/>
<path d="M32.0201 80.5398L47.1894 71.8196L47.2222 83.8531L27.54 95.2018L32.0201 80.5398ZM46.2987 83.2596V73.4762L32.9436 81.1333L28.9744 93.6039L46.2987 83.2531V83.2596Z" fill="#B4C5E1"/>
<path d="M37.9864 98.417C38.8622 97.8781 39.8654 97.5788 40.8945 97.5496C42.8594 97.5496 44.2284 98.854 44.6344 100.935L47.2544 99.4215V89.7099V83.8398L27.5722 95.1885L21.2451 102.735V114.475L32.013 108.24C32.2226 104.483 34.7704 100.269 37.9864 98.417Z" fill="#B4C5E1"/>
<path d="M21.2321 114.455L32 108.22C32.1411 106.493 32.6478 104.814 33.4868 103.296L21.2256 110.386L21.2321 114.455Z" fill="#A9B8DA"/>
<path d="M42.6963 97.9932C43.2224 98.3061 43.6718 98.7319 44.0117 99.2396C44.3516 99.7474 44.5735 100.324 44.6612 100.928L47.2811 99.415V95.3843L42.6963 97.9932Z" fill="#A9B8DA"/>
<defs>
<filter id="filter0_f_792_11183" x="0" y="35.2556" width="193" height="116.291" filterUnits="userSpaceOnUse" color-interpolation-filters="sRGB">
<feFlood flood-opacity="0" result="BackgroundImageFix"/>
<feBlend mode="normal" in="SourceGraphic" in2="BackgroundImageFix" result="shape"/>
<feGaussianBlur stdDeviation="1" result="effect1_foregroundBlur_792_11183"/>
</filter>
<linearGradient id="paint0_linear_792_11183" x1="97.5" y1="123.479" x2="74.9059" y2="81.2975" gradientUnits="userSpaceOnUse">
<stop stop-color="#B4C5E0" stop-opacity="0"/>
<stop offset="1" stop-color="#0E3391"/>
</linearGradient>
<clipPath id="clip0_792_11183">
<rect width="113.76" height="96.8535" fill="white" transform="matrix(-1 0 0 1 137.2 1.16064)"/>
</clipPath>
<clipPath id="clip1_792_11183">
<rect width="49.27" height="11.6096" fill="white" transform="matrix(0.865865 -0.500278 0 1 73 64.8093)"/>
</clipPath>
</defs>
</svg>
