<svg width="1920" height="1842" viewBox="0 0 1920 1842" fill="none" xmlns="http://www.w3.org/2000/svg">
<path d="M1219.95 1118.02L886.001 925.102V963.836V1060.03L1219.95 1252.98V1118.02Z" fill="#B4C5E1"/>
<path d="M1687 983.103V848.163L1219.95 1118.02V1252.98L1296.5 1204.55V1127.26L1363.58 1088.84V1165.79L1430 1127.41V1124.66V1050.42L1497.08 1012V1088.19V1088.65L1563.5 1050.26V972.922L1630.58 934.5V1011.51L1687 983.103Z" fill="white"/>
<path d="M1219.95 1118.02L886 925.101L1353.38 655.399L1687 848.163L1219.95 1118.02Z" fill="#E4ECF8"/>
<path d="M1219.95 1098.76L936.358 934.905L1353.42 693.886L1636.99 857.743L1219.95 1098.76Z" fill="#E6EEF9"/>
<path d="M1636.99 857.743L1653.79 848.163L1353.42 674.619V693.886L1636.99 857.743Z" fill="#CFDAEB"/>
<path d="M1353.42 674.619V693.886L936.358 934.906L919.529 925.184L1353.42 674.619Z" fill="#D3DEF0"/>
</svg>
