<svg width="74" height="74" viewBox="0 0 74 74" fill="none" xmlns="http://www.w3.org/2000/svg">
<g filter="url(#filter0_f_1854_35440)">
<ellipse cx="37" cy="59.5" rx="13" ry="3.5" fill="url(#paint0_radial_1854_35440)"/>
</g>
<g filter="url(#filter1_f_1854_35440)">
<ellipse cx="37" cy="59.5" rx="6" ry="1.5" fill="url(#paint1_radial_1854_35440)"/>
</g>
<g filter="url(#filter2_f_1854_35440)">
<circle cx="37" cy="37" r="17" fill="#2B298F"/>
</g>
<path fill-rule="evenodd" clip-rule="evenodd" d="M52 37C52 48.6667 37 58.6667 37 58.6667C37 58.6667 22 48.6667 22 37C22 28.7157 28.7157 22 37 22C45.2843 22 52 28.7157 52 37Z" fill="#3F3CC1" stroke="#3F3CC1" stroke-width="2" stroke-linecap="round" stroke-linejoin="round"/>
<path fill-rule="evenodd" clip-rule="evenodd" d="M37 42C39.7614 42 42 39.7614 42 37C42 34.2386 39.7614 32 37 32C34.2386 32 32 34.2386 32 37C32 39.7614 34.2386 42 37 42Z" fill="white" stroke="white" stroke-width="2" stroke-linecap="round" stroke-linejoin="round"/>
<defs>
<filter id="filter0_f_1854_35440" x="22" y="54" width="30" height="11" filterUnits="userSpaceOnUse" color-interpolation-filters="sRGB">
<feFlood flood-opacity="0" result="BackgroundImageFix"/>
<feBlend mode="normal" in="SourceGraphic" in2="BackgroundImageFix" result="shape"/>
<feGaussianBlur stdDeviation="1" result="effect1_foregroundBlur_1854_35440"/>
</filter>
<filter id="filter1_f_1854_35440" x="29" y="56" width="16" height="7" filterUnits="userSpaceOnUse" color-interpolation-filters="sRGB">
<feFlood flood-opacity="0" result="BackgroundImageFix"/>
<feBlend mode="normal" in="SourceGraphic" in2="BackgroundImageFix" result="shape"/>
<feGaussianBlur stdDeviation="1" result="effect1_foregroundBlur_1854_35440"/>
</filter>
<filter id="filter2_f_1854_35440" x="0" y="0" width="74" height="74" filterUnits="userSpaceOnUse" color-interpolation-filters="sRGB">
<feFlood flood-opacity="0" result="BackgroundImageFix"/>
<feBlend mode="normal" in="SourceGraphic" in2="BackgroundImageFix" result="shape"/>
<feGaussianBlur stdDeviation="10" result="effect1_foregroundBlur_1854_35440"/>
</filter>
<radialGradient id="paint0_radial_1854_35440" cx="0" cy="0" r="1" gradientUnits="userSpaceOnUse" gradientTransform="translate(37.7222 59.5) scale(12.2778 3.30556)">
<stop stop-color="#252933"/>
<stop offset="1" stop-color="#20242E" stop-opacity="0"/>
</radialGradient>
<radialGradient id="paint1_radial_1854_35440" cx="0" cy="0" r="1" gradientUnits="userSpaceOnUse" gradientTransform="translate(37.3333 59.5) scale(5.66667 1.41667)">
<stop stop-color="#252933"/>
<stop offset="1" stop-color="#20242E" stop-opacity="0"/>
</radialGradient>
</defs>
</svg>
