<svg width="196" height="331" viewBox="0 0 196 331" fill="none" xmlns="http://www.w3.org/2000/svg">
<g style="mix-blend-mode:multiply" opacity="0.4" filter="url(#filter0_f_2149_71829)">
<path d="M114.562 243L185.416 285.669L105.516 326L38.1797 285.669L114.562 243Z" fill="url(#paint0_linear_2149_71829)"/>
</g>
<path fill-rule="evenodd" clip-rule="evenodd" d="M64.3603 293.048C74.9456 291.491 74.9276 280.886 87.1733 273.816C99.4191 266.745 110.835 257.878 121.42 247.213C132.005 236.308 141.242 223.426 149.129 208.567C157.016 193.708 163.139 176.751 167.497 157.698C172.064 138.285 174.347 116.715 174.347 92.9887V85.7988C174.347 63.7496 172.064 46.2541 167.497 33.3122C163.139 20.2505 176.501 16.1162 168.614 10.8436C160.727 5.57098 140.214 -1.37919 121.42 0.238528C110.835 1.55668 99.4191 5.7508 87.1733 12.8209C74.9275 19.891 63.512 28.8784 52.9267 39.7832C42.3413 50.4482 33.1051 62.9707 25.218 77.3506C17.3309 91.7305 11.1042 108.028 6.538 126.242C2.17933 144.337 -4.85753e-07 164.409 0 186.458L1.58398e-07 193.648C6.81111e-07 217.375 2.17933 236.368 6.538 250.628C11.1042 264.529 17.3309 274.355 25.218 280.107C33.1051 285.859 53.7749 294.367 64.3603 293.048ZM99.004 210.185C95.268 214.738 91.3244 218.213 87.1733 220.61C83.0222 223.007 79.0787 224.085 75.3427 223.845C71.8142 223.486 68.4933 221.329 65.38 217.375C62.4742 213.061 60.1911 206.47 58.5307 197.602C56.8702 188.495 56.04 176.392 56.04 161.293V154.103C56.04 136.368 57.4929 121.629 60.3987 109.885C63.3044 97.9018 67.0404 88.4351 71.6067 81.4848C76.3804 74.4147 81.5693 69.2619 87.1733 66.0264C92.7773 62.791 97.9662 61.9521 102.74 63.5099C107.514 65.0678 111.25 70.2206 113.948 78.9683C116.646 87.4764 117.995 100.598 117.995 118.333V125.523C117.995 140.622 117.165 153.684 115.505 164.708C113.844 175.493 111.561 184.72 108.655 192.39C105.957 199.699 102.74 205.631 99.004 210.185Z" fill="#E2EBF7"/>
<path fill-rule="evenodd" clip-rule="evenodd" d="M74.5048 292.947C85.0901 291.389 96.5057 287.075 108.751 280.005C120.997 272.935 132.413 264.067 142.998 253.402C153.583 242.497 162.82 229.615 170.707 214.756C178.594 199.897 184.717 182.941 189.075 163.887C193.642 144.474 195.925 122.905 195.925 99.1779V91.9879C195.925 69.9388 193.642 52.4433 189.075 39.5014C184.717 26.4397 178.594 17.2725 170.707 11.9999C162.82 6.72729 153.583 4.86989 142.998 6.42771C132.413 7.74586 120.997 11.94 108.751 19.0101C96.5057 26.0802 85.0901 35.0676 74.5048 45.9724C63.9194 56.6374 54.6832 69.1599 46.7961 83.5398C38.909 97.9196 32.6823 114.217 28.1161 132.431C23.7575 150.526 21.5781 170.598 21.5781 192.647V199.837C21.5781 223.564 23.7575 242.557 28.1161 256.817C32.6823 270.718 38.909 280.544 46.7961 286.296C54.6832 292.048 63.9194 294.265 74.5048 292.947ZM120.582 216.374C116.846 220.927 112.903 224.403 108.751 226.799C104.6 229.196 100.657 230.274 96.9208 230.035C93.3923 229.675 90.0714 227.518 86.9581 223.564C84.0523 219.25 81.7692 212.659 80.1088 203.791C78.4483 194.684 77.6181 182.581 77.6181 167.482V160.292C77.6181 142.557 79.071 127.818 81.9768 116.074C84.8826 104.091 88.6186 94.6242 93.1848 87.674C97.9585 80.6039 103.147 75.4511 108.751 72.2156C114.355 68.9801 119.544 68.1413 124.318 69.6991C129.092 71.2569 132.828 76.4097 135.526 85.1575C138.224 93.6656 139.573 106.787 139.573 124.522V131.712C139.573 146.811 138.743 159.873 137.083 170.897C135.422 181.682 133.139 190.909 130.233 198.579C127.535 205.888 124.318 211.82 120.582 216.374Z" fill="#D3E0F0"/>
<defs>
<filter id="filter0_f_2149_71829" x="30.1797" y="235" width="163.234" height="99" filterUnits="userSpaceOnUse" color-interpolation-filters="sRGB">
<feFlood flood-opacity="0" result="BackgroundImageFix"/>
<feBlend mode="normal" in="SourceGraphic" in2="BackgroundImageFix" result="shape"/>
<feGaussianBlur stdDeviation="4" result="effect1_foregroundBlur_2149_71829"/>
</filter>
<linearGradient id="paint0_linear_2149_71829" x1="146.22" y1="314" x2="124.728" y2="265.449" gradientUnits="userSpaceOnUse">
<stop stop-color="#B4C5E0" stop-opacity="0"/>
<stop offset="1" stop-color="#0E3391"/>
</linearGradient>
</defs>
</svg>
