<svg width="164" height="245" viewBox="0 0 164 245" fill="none" xmlns="http://www.w3.org/2000/svg">
<path fill-rule="evenodd" clip-rule="evenodd" d="M54.1336 244.873C62.9547 243.575 62.9396 234.738 73.1444 228.846C83.3493 222.954 92.8622 215.564 101.683 206.677C110.504 197.59 118.201 186.855 124.774 174.472C131.346 162.089 136.449 147.959 140.081 132.081C143.886 115.904 145.789 97.9291 145.789 78.1568V72.1652C145.789 53.791 143.886 39.2113 140.081 28.4264C136.449 17.5417 147.585 14.0964 141.012 9.70259C134.439 5.30874 117.345 -0.483063 101.683 0.865033C92.8622 1.96349 83.3493 5.4586 73.1444 11.3503C62.9396 17.2421 53.4267 24.7316 44.6055 33.8189C35.7844 42.7065 28.0876 53.1419 21.515 65.1251C14.9424 77.1083 9.75352 90.6893 5.94833 105.868C2.31611 120.947 0.5 137.674 0.5 156.048L0.5 162.039C0.500001 181.812 2.31611 197.64 5.94833 209.523C9.75352 221.107 14.9424 229.295 21.515 234.089C28.0876 238.882 45.3125 245.972 54.1336 244.873ZM83.0033 175.82C79.89 179.615 76.6037 182.511 73.1444 184.508C69.6852 186.505 66.3989 187.404 63.2855 187.204C60.3452 186.905 57.5778 185.107 54.9833 181.812C52.5618 178.217 50.6593 172.724 49.2756 165.335C47.8918 157.745 47.2 147.66 47.2 135.077V129.086C47.2 114.306 48.4107 102.023 50.8322 92.2371C53.2537 82.2511 56.367 74.3621 60.1722 68.5703C64.1504 62.6785 68.4744 58.3845 73.1444 55.6883C77.8144 52.9921 82.1385 52.293 86.1167 53.5912C90.0948 54.8894 93.2081 59.1834 95.4567 66.4732C97.7052 73.5633 98.8294 84.4979 98.8294 99.2773V105.269C98.8294 117.851 98.1376 128.736 96.7539 137.923C95.3702 146.911 93.4676 154.6 91.0461 160.991C88.7976 167.082 86.1167 172.025 83.0033 175.82Z" fill="#E2EBF7"/>
<path fill-rule="evenodd" clip-rule="evenodd" d="M62.5899 244.455C71.411 243.157 80.924 239.562 91.1288 233.67C101.334 227.778 110.847 220.388 119.668 211.501C128.489 202.414 136.186 191.679 142.758 179.296C149.331 166.913 154.433 152.783 158.065 136.905C161.871 120.728 163.773 102.753 163.773 82.9808V76.9892C163.773 58.6149 161.871 44.0353 158.065 33.2504C154.433 22.3656 149.331 14.7263 142.758 10.3325C136.186 5.93864 128.489 4.39081 119.668 5.68899C110.847 6.78745 101.334 10.2825 91.1288 16.1743C80.924 22.0661 71.411 29.5556 62.5899 38.6429C53.7688 47.5304 46.072 57.9658 39.4994 69.949C32.9268 81.9323 27.7379 95.5132 23.9327 110.692C20.3005 125.771 18.4844 142.497 18.4844 160.872V166.863C18.4844 186.636 20.3005 202.464 23.9327 214.347C27.7379 225.931 32.9268 234.119 39.4994 238.912C46.072 243.706 53.7688 245.553 62.5899 244.455ZM100.988 180.644C97.8744 184.439 94.5881 187.335 91.1288 189.332C87.6695 191.329 84.3832 192.228 81.2699 192.028C78.3295 191.729 75.5621 189.931 72.9677 186.636C70.5462 183.041 68.6436 177.548 67.2599 170.159C65.8762 162.569 65.1844 152.483 65.1844 139.901V133.909C65.1844 119.13 66.3951 106.847 68.8166 97.0611C71.2381 87.075 74.3514 79.1861 78.1566 73.3942C82.1347 67.5024 86.4588 63.2085 91.1288 60.5122C95.7988 57.816 100.123 57.117 104.101 58.4152C108.079 59.7133 111.193 64.0073 113.441 71.2971C115.69 78.3872 116.814 89.3219 116.814 104.101V110.093C116.814 122.675 116.122 133.56 114.738 142.747C113.355 151.735 111.452 159.424 109.03 165.815C106.782 171.906 104.101 176.849 100.988 180.644Z" fill="#D3E0F0"/>
</svg>
