<svg width="695" height="315" viewBox="0 0 695 315" fill="none" xmlns="http://www.w3.org/2000/svg">
<g style="mix-blend-mode:multiply" opacity="0.4" filter="url(#filter0_f_2149_71829)">
<path d="M321.562 227L392.416 269.669L312.516 310L245.18 269.669L321.562 227Z" fill="url(#paint0_linear_2149_71829)"/>
</g>
<rect width="669" height="112.012" transform="matrix(0.866025 -0.5 2.20305e-08 1 0 334.5)" fill="#2B298F"/>
<rect width="528.127" height="155" transform="matrix(0.866025 0.5 -2.20305e-08 1 198 184)" fill="#2B298F"/>
<rect width="528.127" height="155" transform="matrix(0.866025 0.5 -2.20305e-08 1 317 118)" fill="#2B298F"/>
<mask id="mask0_2149_71829" style="mask-type:alpha" maskUnits="userSpaceOnUse" x="197" y="143" width="131" height="99">
<path d="M202 186L229.5 202L285 170L328 143V242H197L202 186Z" fill="#D9D9D9"/>
</mask>
<g mask="url(#mask0_2149_71829)">
<g style="mix-blend-mode:multiply" opacity="0.4" filter="url(#filter1_f_2149_71829)">
<path d="M264.024 155.5L322.734 190.972L264.03 224.5L208.234 190.972L264.024 155.5Z" fill="url(#paint1_linear_2149_71829)"/>
</g>
</g>
<mask id="mask1_2149_71829" style="mask-type:alpha" maskUnits="userSpaceOnUse" x="313" y="77" width="131" height="99">
<path d="M318 120L345.5 136L401 104L444 77V176H313L318 120Z" fill="#D9D9D9"/>
</mask>
<g mask="url(#mask1_2149_71829)">
<g style="mix-blend-mode:multiply" opacity="0.4" filter="url(#filter2_f_2149_71829)">
<path d="M380.024 89.5L438.734 124.972L380.03 158.5L324.234 124.972L380.024 89.5Z" fill="url(#paint2_linear_2149_71829)"/>
</g>
</g>
<defs>
<filter id="filter0_f_2149_71829" x="237.18" y="219" width="163.234" height="99" filterUnits="userSpaceOnUse" color-interpolation-filters="sRGB">
<feFlood flood-opacity="0" result="BackgroundImageFix"/>
<feBlend mode="normal" in="SourceGraphic" in2="BackgroundImageFix" result="shape"/>
<feGaussianBlur stdDeviation="4" result="effect1_foregroundBlur_2149_71829"/>
</filter>
<filter id="filter1_f_2149_71829" x="200.234" y="147.5" width="130.5" height="85" filterUnits="userSpaceOnUse" color-interpolation-filters="sRGB">
<feFlood flood-opacity="0" result="BackgroundImageFix"/>
<feBlend mode="normal" in="SourceGraphic" in2="BackgroundImageFix" result="shape"/>
<feGaussianBlur stdDeviation="4" result="effect1_foregroundBlur_2149_71829"/>
</filter>
<filter id="filter2_f_2149_71829" x="316.234" y="81.5" width="130.5" height="85" filterUnits="userSpaceOnUse" color-interpolation-filters="sRGB">
<feFlood flood-opacity="0" result="BackgroundImageFix"/>
<feBlend mode="normal" in="SourceGraphic" in2="BackgroundImageFix" result="shape"/>
<feGaussianBlur stdDeviation="4" result="effect1_foregroundBlur_2149_71829"/>
</filter>
<linearGradient id="paint0_linear_2149_71829" x1="353.22" y1="298" x2="331.728" y2="249.449" gradientUnits="userSpaceOnUse">
<stop stop-color="#B4C5E0" stop-opacity="0"/>
<stop offset="1" stop-color="#0E3391"/>
</linearGradient>
<linearGradient id="paint1_linear_2149_71829" x1="296.522" y1="213.024" x2="278.616" y2="172.706" gradientUnits="userSpaceOnUse">
<stop stop-color="#B4C5E0" stop-opacity="0"/>
<stop offset="1" stop-color="#0E3391"/>
</linearGradient>
<linearGradient id="paint2_linear_2149_71829" x1="412.522" y1="147.024" x2="394.616" y2="106.706" gradientUnits="userSpaceOnUse">
<stop stop-color="#B4C5E0" stop-opacity="0"/>
<stop offset="1" stop-color="#0E3391"/>
</linearGradient>
</defs>
</svg>
