<svg width="237" height="339" viewBox="0 0 237 339" fill="none" xmlns="http://www.w3.org/2000/svg">
<g style="mix-blend-mode:multiply" opacity="0.4" filter="url(#filter0_f_2149_71818)">
<path d="M150.753 249.43L228.14 296L172.361 330.669L96.9844 284.099L150.753 249.43Z" fill="url(#paint0_linear_2149_71818)"/>
</g>
<path fill-rule="evenodd" clip-rule="evenodd" d="M97.7587 235.111V284.002L115.47 294.428L153.799 251.648L153.799 202.756L177.46 189.095L195.207 146.315L177.46 135.89L153.799 149.551L171.48 10.4254L153.799 0L101.495 30.1977L0 247.334L9.74147e-07 291.552L17.9748 301.618L97.7587 235.111ZM97.7587 181.905L50.1247 209.407L97.7587 103.895V181.905Z" fill="#E2EBF7"/>
<mask id="mask0_2149_71818" style="mask-type:alpha" maskUnits="userSpaceOnUse" x="0" y="0" width="196" height="302">
<path fill-rule="evenodd" clip-rule="evenodd" d="M97.7587 235.111V284.002L115.47 294.428L153.799 251.648L153.799 202.756L177.46 189.095L195.207 146.315L177.46 135.89L153.799 149.551L171.48 10.4254L153.799 0L101.495 30.1977L0 247.334L9.74147e-07 291.552L17.9748 301.618L97.7587 235.111ZM97.7587 181.905L50.1247 209.407L97.7587 103.895V181.905Z" fill="#E2EBF7"/>
</mask>
<g mask="url(#mask0_2149_71818)">
<path d="M95.2638 26.6028L134.808 49.6106L53.2027 259.557L-14.7422 254.164L95.2638 26.6028Z" fill="#F3F7FD"/>
<path d="M97.4219 92.7501L126.901 84.4817L122.946 196.645L97.4219 181.905V92.7501Z" fill="#F3F7FD"/>
<path d="M-8.99012 243.02L30.5545 264.949L38.104 306.291H-15.1016L-8.99012 243.02Z" fill="white"/>
</g>
<path fill-rule="evenodd" clip-rule="evenodd" d="M115.493 245.255V294.146L171.533 261.791V212.9L195.194 199.239V146.034L171.533 159.694L171.533 10.1438L119.229 40.3415L17.7344 257.478V301.696L115.493 245.255ZM115.493 192.049L67.859 219.551L115.493 114.038V192.049Z" fill="#D3E0F0"/>
<defs>
<filter id="filter0_f_2149_71818" x="88.9844" y="241.43" width="147.156" height="97.2393" filterUnits="userSpaceOnUse" color-interpolation-filters="sRGB">
<feFlood flood-opacity="0" result="BackgroundImageFix"/>
<feBlend mode="normal" in="SourceGraphic" in2="BackgroundImageFix" result="shape"/>
<feGaussianBlur stdDeviation="4" result="effect1_foregroundBlur_2149_71818"/>
</filter>
<linearGradient id="paint0_linear_2149_71818" x1="196.482" y1="319" x2="173.985" y2="254.959" gradientUnits="userSpaceOnUse">
<stop stop-color="#B4C5E0" stop-opacity="0"/>
<stop offset="1" stop-color="#0E3391"/>
</linearGradient>
</defs>
</svg>
