<svg width="109" height="162" viewBox="0 0 109 162" fill="none" xmlns="http://www.w3.org/2000/svg">
<path fill-rule="evenodd" clip-rule="evenodd" d="M36.2419 161.176C42.0638 160.32 42.0539 154.487 48.7891 150.598C55.5243 146.71 61.8028 141.833 67.6248 135.967C73.4467 129.969 78.5266 122.884 82.8645 114.712C87.2024 106.539 90.57 97.213 92.9673 86.7337C95.4787 76.0567 96.7344 64.1933 96.7344 51.1435V47.1891C96.7344 35.0621 95.4787 25.4395 92.9673 18.3215C90.57 11.1375 97.9195 8.86368 93.5816 5.96374C89.2437 3.0638 77.9615 -0.758797 67.6247 0.130946C61.8028 0.855928 55.5243 3.1627 48.7891 7.05125C42.0539 10.9398 35.7753 15.8829 29.9534 21.8805C24.1315 27.7463 19.0516 34.6337 14.7136 42.5426C10.3757 50.4515 6.95107 59.415 4.43965 69.4329C2.04238 79.385 0.84375 90.4245 0.84375 102.552L0.84375 106.506C0.84375 119.556 2.04238 130.002 4.43965 137.845C6.95107 145.49 10.3757 150.895 14.7137 154.058C19.0516 157.222 30.42 161.901 36.2419 161.176ZM55.2959 115.601C53.2411 118.106 51.0722 120.017 48.7891 121.335C46.506 122.653 44.337 123.247 42.2822 123.115C40.3416 122.917 38.5151 121.731 36.8028 119.556C35.2046 117.183 33.9489 113.558 33.0356 108.681C32.1224 103.672 31.6658 97.0153 31.6657 88.7109V84.7565C31.6657 75.0021 32.4648 66.8955 34.063 60.4365C35.6612 53.8457 37.716 48.639 40.2274 44.8164C42.853 40.9278 45.7069 38.0938 48.7891 36.3143C51.8713 34.5348 54.7252 34.0734 57.3507 34.9302C59.9763 35.787 62.0311 38.6211 63.5151 43.4323C64.9992 48.1118 65.7412 55.3287 65.7412 65.083V69.0375C65.7412 77.3419 65.2846 84.5258 64.3713 90.5893C63.4581 96.521 62.2024 101.596 60.6042 105.814C59.1202 109.834 57.3507 113.097 55.2959 115.601Z" fill="#E2EBF7"/>
<path fill-rule="evenodd" clip-rule="evenodd" d="M41.8206 161.62C47.6425 160.763 53.9211 158.391 60.6563 154.502C67.3914 150.614 73.67 145.736 79.4919 139.871C85.3139 133.873 90.3938 126.788 94.7317 118.615C99.0696 110.443 102.437 101.117 104.834 90.6376C107.346 79.9605 108.602 68.0971 108.602 55.0474V51.0929C108.602 38.9659 107.346 29.3434 104.834 22.2254C102.437 15.0414 99.0696 9.99947 94.7317 7.09952C90.3938 4.19958 85.3139 3.17801 79.4919 4.03482C73.67 4.7598 67.3914 7.06657 60.6563 10.9551C53.9211 14.8437 47.6425 19.7868 41.8206 25.7844C35.9987 31.6502 30.9187 38.5375 26.5808 46.4464C22.2429 54.3554 18.8183 63.3188 16.3068 73.3368C13.9096 83.2889 12.7109 94.3284 12.7109 106.455L12.7109 110.41C12.7109 123.46 13.9096 133.906 16.3068 141.749C18.8183 149.394 22.2429 154.799 26.5808 157.962C30.9187 161.126 35.9987 162.345 41.8206 161.62ZM67.1631 119.505C65.1083 122.01 62.9394 123.921 60.6563 125.239C58.3731 126.557 56.2042 127.15 54.1494 127.019C52.2088 126.821 50.3823 125.635 48.6699 123.46C47.0718 121.087 45.816 117.462 44.9028 112.585C43.9896 107.576 43.5329 100.919 43.5329 92.6148V88.6603C43.5329 78.906 44.332 70.7993 45.9302 64.3404C47.5284 57.7496 49.5832 52.5429 52.0946 48.7203C54.7202 44.8317 57.5741 41.9977 60.6563 40.2182C63.7385 38.4387 66.5924 37.9773 69.2179 38.8341C71.8435 39.6909 73.8983 42.5249 75.3823 47.3362C76.8663 52.0156 77.6084 59.2325 77.6084 68.9869V72.9413C77.6084 81.2457 77.1517 88.4297 76.2385 94.4932C75.3252 100.425 74.0695 105.5 72.4714 109.718C70.9873 113.738 69.2179 117.001 67.1631 119.505Z" fill="#D3E0F0"/>
</svg>
