<svg width="454" height="453" viewBox="0 0 454 453" fill="none" xmlns="http://www.w3.org/2000/svg">
<g style="mix-blend-mode:multiply" opacity="0.5" filter="url(#filter0_f_1094_32178)">
<path d="M152.5 186L450 357L297 448.5L58 305L152.5 186Z" fill="url(#paint0_linear_1094_32178)"/>
</g>
<g style="mix-blend-mode:multiply" opacity="0.4" filter="url(#filter1_f_1094_32178)">
<path d="M162.5 183L399.5 326.5L245.5 416.5L3 277.5L162.5 183Z" fill="#0E3390"/>
</g>
<g clip-path="url(#clip0_1094_32178)">
<path d="M3 270.042L157.202 181.118L399.514 320.861V326.743L245.3 417L3 277.769V270.042Z" fill="#DFE8F6"/>
<path d="M245.5 402L157.201 181.118L399.513 320.861V326.743L245.3 417V410L245.5 402Z" fill="#CBD7EB"/>
<path d="M3 270.042L157.202 181.118L399.514 320.861L245.312 409.784L3 270.042Z" fill="#E2EBF7"/>
<path d="M162.687 0L157.201 3.65341V181.118L399.513 320.861L404.999 317.207V139.359L162.687 0Z" fill="#CBD7EB"/>
<path d="M157.201 3.65344V181.118L399.513 320.861V143.013L157.201 3.65344Z" fill="#DFE8F6"/>
<path d="M166.475 22.8337V171.747L389.548 300.493V151.251L166.475 22.8337Z" fill="white"/>
<path d="M333.404 316.001L319.615 322.011V323.948L333.404 331.912L347.175 323.948V322.011L333.404 316.001Z" fill="#CBD7EB"/>
<path d="M333.404 314.065L319.615 322.011L333.404 329.958L347.175 322.011L333.404 314.065Z" fill="white"/>
<path d="M315.482 305.681L301.693 311.691V313.627L315.482 321.573L329.271 313.627V311.691L315.482 305.681Z" fill="#CBD7EB"/>
<path d="M315.482 303.726L301.693 311.691L315.482 319.637L329.271 311.691L315.482 303.726Z" fill="white"/>
<path d="M297.56 295.342L283.771 301.351V303.288L297.56 311.234L311.349 303.288V301.351L297.56 295.342Z" fill="#CBD7EB"/>
<path d="M297.56 293.405L283.771 301.351L297.56 309.298L311.349 301.351L297.56 293.405Z" fill="white"/>
<path d="M279.639 285.002L265.85 291.012V292.967L279.639 300.913L293.427 292.967V291.012L279.639 285.002Z" fill="#CBD7EB"/>
<path d="M279.639 283.066L265.85 291.012L279.639 298.958L293.427 291.012L279.639 283.066Z" fill="white"/>
<path d="M261.717 274.681L247.928 280.691V282.628L261.717 290.574L275.506 282.628V280.691L261.717 274.681Z" fill="#CBD7EB"/>
<path d="M261.717 272.727L247.928 280.691L261.717 288.638L275.506 280.691L261.717 272.727Z" fill="white"/>
<path d="M243.794 264.342L230.023 270.352V272.288L243.794 280.235L257.583 272.288V270.352L243.794 264.342Z" fill="#CBD7EB"/>
<path d="M243.794 262.406L230.023 270.352L243.794 278.298L257.583 270.352L243.794 262.406Z" fill="white"/>
<path d="M225.89 254.003L212.102 260.013V261.968L225.89 269.914L239.661 261.968V260.013L225.89 254.003Z" fill="#CBD7EB"/>
<path d="M225.89 252.067L212.102 260.013L225.89 267.959L239.661 260.013L225.89 252.067Z" fill="white"/>
<path d="M207.969 243.682L194.18 249.692V251.629L207.969 259.575L221.739 251.629V249.692L207.969 243.682Z" fill="#CBD7EB"/>
<path d="M207.969 241.746L194.18 249.692L207.969 257.638L221.739 249.692L207.969 241.746Z" fill="white"/>
<path d="M190.047 233.343L176.258 239.353V241.289L190.047 249.235L203.836 241.289V239.353L190.047 233.343Z" fill="#CBD7EB"/>
<path d="M190.047 231.407L176.258 239.353L190.047 247.299L203.836 239.353L190.047 231.407Z" fill="white"/>
<path d="M172.125 223.004L158.336 229.014V230.968L172.125 238.915L185.914 230.968V229.014L172.125 223.004Z" fill="#CBD7EB"/>
<path d="M172.125 221.068L158.336 229.014L172.125 236.978L185.914 229.014L172.125 221.068Z" fill="white"/>
<path d="M154.203 212.683L140.414 218.693V220.629L154.203 228.575L167.992 220.629V218.693L154.203 212.683Z" fill="#CBD7EB"/>
<path d="M154.203 210.729L140.414 218.693L154.203 226.639L167.992 218.693L154.203 210.729Z" fill="white"/>
<path d="M315.336 327.017L301.547 333.026V334.963L315.336 342.909L329.125 334.963V333.026L315.336 327.017Z" fill="#CBD7EB"/>
<path d="M315.336 325.08L301.547 333.026L315.336 340.973L329.125 333.026L315.336 325.08Z" fill="white"/>
<path d="M297.413 316.677L283.643 322.687V324.642L297.413 332.588L311.202 324.642V322.687L297.413 316.677Z" fill="#CBD7EB"/>
<path d="M297.413 314.741L283.643 322.687L297.413 330.634L311.202 322.687L297.413 314.741Z" fill="white"/>
<path d="M243.666 285.678L229.877 291.688V293.643L243.666 301.589L257.455 293.643V291.688L243.666 285.678Z" fill="#CBD7EB"/>
<path d="M243.666 283.742L229.877 291.688L243.666 299.634L257.455 291.688L243.666 283.742Z" fill="white"/>
<path d="M225.744 275.357L211.955 281.367V283.304L225.744 291.25L239.533 283.304V281.367L225.744 275.357Z" fill="#CBD7EB"/>
<path d="M225.744 273.421L211.955 281.367L225.744 289.313L239.533 281.367L225.744 273.421Z" fill="white"/>
<path d="M207.822 265.018L194.033 271.028V272.964L207.822 280.911L221.611 272.964V271.028L207.822 265.018Z" fill="#CBD7EB"/>
<path d="M207.822 263.082L194.033 271.028L207.822 278.974L221.611 271.028L207.822 263.082Z" fill="white"/>
<path d="M189.9 254.679L176.129 260.689V262.644L189.9 270.59L203.688 262.644V260.689L189.9 254.679Z" fill="#CBD7EB"/>
<path d="M189.9 252.743L176.129 260.689L189.9 268.635L203.688 260.689L189.9 252.743Z" fill="white"/>
<path d="M171.978 244.358L158.207 250.368V252.304L171.978 260.25L185.767 252.304V250.368L171.978 244.358Z" fill="#CBD7EB"/>
<path d="M171.978 242.422L158.207 250.368L171.978 258.314L185.767 250.368L171.978 242.422Z" fill="white"/>
<path d="M154.074 234.019L140.285 240.029V241.965L154.074 249.911L167.845 241.965V240.029L154.074 234.019Z" fill="#CBD7EB"/>
<path d="M154.074 232.083L140.285 240.029L154.074 247.975L167.845 240.029L154.074 232.083Z" fill="white"/>
<path d="M136.152 223.68L122.363 229.69V231.644L136.152 239.591L149.923 231.644V229.69L136.152 223.68Z" fill="#CBD7EB"/>
<path d="M136.152 221.744L122.363 229.69L136.152 237.654L149.923 229.69L136.152 221.744Z" fill="white"/>
<path d="M296.445 337.885L282.656 343.877V345.832L296.445 353.778L310.234 345.832V343.877L296.445 337.885Z" fill="#CBD7EB"/>
<path d="M296.445 335.931L282.656 343.877L296.445 351.842L310.234 343.877L296.445 335.931Z" fill="white"/>
<path d="M278.523 327.546L264.752 333.556V335.493L278.523 343.439L292.311 335.493V333.556L278.523 327.546Z" fill="#CBD7EB"/>
<path d="M278.523 325.61L264.752 333.556L278.523 341.502L292.311 333.556L278.523 325.61Z" fill="white"/>
<path d="M261.588 294.081L247.799 302.027V303.964L263.984 313.371L246.83 323.217V325.153L260.619 333.118L293.281 314.303V312.366L261.588 294.081Z" fill="#CBD7EB"/>
<path d="M242.697 306.886L228.908 312.878V314.832L242.697 322.779L256.468 314.832V312.878L242.697 306.886Z" fill="#CBD7EB"/>
<path d="M242.697 304.932L228.908 312.878L242.697 320.842L256.468 312.878L242.697 304.932Z" fill="white"/>
<path d="M224.775 296.547L210.986 302.557V304.493L224.775 312.439L238.564 304.493V302.557L224.775 296.547Z" fill="#CBD7EB"/>
<path d="M224.775 294.611L210.986 302.557L224.775 310.503L238.564 302.557L224.775 294.611Z" fill="white"/>
<path d="M206.853 286.208L193.064 292.218V294.154L206.853 302.119L220.642 294.154V292.218L206.853 286.208Z" fill="#CBD7EB"/>
<path d="M206.853 284.272L193.064 292.218L206.853 300.164L220.642 292.218L206.853 284.272Z" fill="white"/>
<path d="M188.931 275.887L175.143 281.879V283.833L188.931 291.78L202.72 283.833V281.879L188.931 275.887Z" fill="#CBD7EB"/>
<path d="M188.931 273.933L175.143 281.879L188.931 289.843L202.72 281.879L188.931 273.933Z" fill="white"/>
<path d="M171.01 265.548L157.221 271.558V273.494L171.01 281.44L184.799 273.494V271.558L171.01 265.548Z" fill="#CBD7EB"/>
<path d="M171.01 263.612L157.221 271.558L171.01 279.504L184.799 271.558L171.01 263.612Z" fill="white"/>
<path d="M153.105 255.209L139.316 261.219V263.155L153.105 271.119L166.876 263.155V261.219L153.105 255.209Z" fill="#CBD7EB"/>
<path d="M153.105 253.272L139.316 261.219L153.105 269.165L166.876 261.219L153.105 253.272Z" fill="white"/>
<path d="M135.183 244.888L121.395 250.898V252.834L135.183 260.78L148.954 252.834V250.898L135.183 244.888Z" fill="#CBD7EB"/>
<path d="M135.183 242.933L121.395 250.898L135.183 258.844L148.954 250.898L135.183 242.933Z" fill="white"/>
<path d="M117.262 234.549L103.473 240.559V242.495L117.262 250.441L131.05 242.495V240.559L117.262 234.549Z" fill="#CBD7EB"/>
<path d="M117.262 232.613L103.473 240.559L117.262 248.505L131.05 240.559L117.262 232.613Z" fill="white"/>
<path d="M293.281 312.366L275.085 301.863L261.588 294.081L247.799 302.027L265.74 312.366L246.83 323.217L260.619 331.163L293.281 312.366Z" fill="white"/>
<path d="M278.357 348.389L264.568 354.399V356.353L278.357 364.299L292.146 356.353V354.399L278.357 348.389Z" fill="#CBD7EB"/>
<path d="M278.357 346.453L264.568 354.399L278.357 362.363L292.146 354.399L278.357 346.453Z" fill="white"/>
<path d="M260.455 338.068L246.666 344.078V346.014L260.455 353.96L274.226 346.014V344.078L260.455 338.068Z" fill="#CBD7EB"/>
<path d="M260.455 336.114L246.666 344.078L260.455 352.024L274.226 344.078L260.455 336.114Z" fill="white"/>
<path d="M242.533 327.729L228.744 333.739V335.675L242.533 343.64L256.304 335.675V333.739L242.533 327.729Z" fill="#CBD7EB"/>
<path d="M242.533 325.793L228.744 333.739L242.533 341.685L256.304 333.739L242.533 325.793Z" fill="white"/>
<path d="M206.687 307.069L192.898 313.079V315.015L206.687 322.961L220.476 315.015V313.079L206.687 307.069Z" fill="#CBD7EB"/>
<path d="M188.765 296.73L174.977 302.74V304.676L188.765 312.64L202.554 304.676V302.74L188.765 296.73Z" fill="#CBD7EB"/>
<path d="M170.845 286.391L157.074 292.4V294.355L170.845 302.301L184.634 294.355V292.4L170.845 286.391Z" fill="#CBD7EB"/>
<path d="M152.923 276.07L139.152 282.08V284.016L152.923 291.962L166.712 284.016V282.08L152.923 276.07Z" fill="#CBD7EB"/>
<path d="M135.019 265.731L121.23 271.741V273.677L135.019 281.641L148.79 273.677V271.741L135.019 265.731Z" fill="#CBD7EB"/>
<path d="M117.098 255.391L103.309 261.401V263.356L117.098 271.302L130.868 263.356V261.401L117.098 255.391Z" fill="#CBD7EB"/>
<path d="M117.098 253.455L103.309 261.401L117.098 269.366L130.868 261.401L117.098 253.455Z" fill="white"/>
<path d="M99.1756 245.071L85.3867 251.08V253.017L99.1756 260.963L112.965 253.017V251.08L99.1756 245.071Z" fill="#CBD7EB"/>
<path d="M99.1756 243.134L85.3867 251.08L99.1756 259.027L112.965 251.08L99.1756 243.134Z" fill="white"/>
<path d="M134.653 265.731L121.395 273.786L210.821 325.354L224.61 333.301L238.399 325.354V323.4L134.653 265.731Z" fill="#CBD7EB"/>
<path d="M135.019 263.794L121.23 271.74L224.611 331.364L238.4 323.4L135.019 263.794Z" fill="white"/>
<mask id="mask0_1094_32178" style="mask-type:alpha" maskUnits="userSpaceOnUse" x="47" y="22" width="343" height="349">
<path d="M166.475 22.8337L47 300.493L164.5 371L389.548 300.493V151.251L166.475 22.8337Z" fill="white"/>
</mask>
<g mask="url(#mask0_1094_32178)">
<g clip-path="url(#clip1_1094_32178)">
<mask id="mask1_1094_32178" style="mask-type:alpha" maskUnits="userSpaceOnUse" x="166" y="22" width="224" height="279">
<path d="M166.475 22.8337V171.747L389.548 300.493V151.251L166.475 22.8337Z" fill="white"/>
</mask>
<g mask="url(#mask1_1094_32178)">
<path d="M177.565 296.889V300.726L172.039 303.973V300.136L177.565 296.889Z" fill="#BFCEE6"/>
<path d="M172.04 300.136V303.973L125.477 277.115V273.204L172.04 300.136Z" fill="white"/>
<path d="M177.566 296.889L172.04 300.136L125.477 273.204L131.076 269.957L177.566 296.889Z" fill="#DAE2F0"/>
<path d="M191.269 288.994V292.831L185.67 296.078L185.744 292.167L191.269 288.994Z" fill="#BFCEE6"/>
<path d="M185.741 292.167L185.667 296.078L139.178 269.146V265.309L185.741 292.167Z" fill="white"/>
<path d="M191.267 288.994L185.741 292.167L139.178 265.309L144.777 262.062L191.267 288.994Z" fill="#DAE2F0"/>
<path d="M204.974 281.025V284.936L199.375 288.109L199.449 284.272L204.974 281.025Z" fill="#BFCEE6"/>
<path d="M199.446 284.272L199.372 288.109L152.883 261.251V257.34L199.446 284.272Z" fill="white"/>
<path d="M204.972 281.025L199.446 284.272L152.883 257.34L158.482 254.167L204.972 281.025Z" fill="#DAE2F0"/>
<path d="M218.674 273.13V276.967L213.074 280.214V276.377L218.674 273.13Z" fill="#BFCEE6"/>
<path d="M213.076 276.377V280.214L166.586 253.355V249.445L213.076 276.377Z" fill="white"/>
<path d="M218.675 273.13L213.076 276.377L166.586 249.445L172.185 246.198L218.675 273.13Z" fill="#DAE2F0"/>
<path d="M232.377 265.161V269.072L226.777 272.319V268.408L232.377 265.161Z" fill="#BFCEE6"/>
<path d="M226.777 268.408V272.318L180.287 245.387V241.55L226.777 268.408Z" fill="white"/>
<path d="M232.376 265.161L226.777 268.408L180.287 241.55L185.887 238.303L232.376 265.161Z" fill="#DAE2F0"/>
<path d="M246.08 257.266V261.103L240.48 264.35V260.513L246.08 257.266Z" fill="#BFCEE6"/>
<path d="M240.48 260.513V264.35L193.99 237.491V233.581L240.48 260.513Z" fill="white"/>
<path d="M246.079 257.266L240.48 260.513L193.99 233.581L199.59 230.408L246.079 257.266Z" fill="#DAE2F0"/>
<path d="M259.785 249.371V253.208L254.186 256.454V252.618L259.785 249.371Z" fill="#BFCEE6"/>
<path d="M254.185 252.618V256.454L207.695 229.523V225.686L254.185 252.618Z" fill="white"/>
<path d="M259.784 249.371L254.185 252.618L207.695 225.686L213.221 222.439L259.784 249.371Z" fill="#DAE2F0"/>
<path d="M273.488 241.402V245.313L267.889 248.559V244.649L273.488 241.402Z" fill="#BFCEE6"/>
<path d="M267.888 244.649V248.559L221.398 221.627V217.791L267.888 244.649Z" fill="white"/>
<path d="M273.487 241.402L267.888 244.649L221.398 217.791L226.924 214.544L273.487 241.402Z" fill="#DAE2F0"/>
<path d="M287.197 233.507V237.417L281.598 240.59V236.753L287.197 233.507Z" fill="#BFCEE6"/>
<path d="M281.597 236.753V240.59L235.107 213.732V209.822L281.597 236.753Z" fill="white"/>
<path d="M287.196 233.507L281.597 236.754L235.107 209.822L240.633 206.575L287.196 233.507Z" fill="#DAE2F0"/>
<path d="M300.9 225.612V229.449L295.301 232.695V228.859L300.9 225.612Z" fill="#BFCEE6"/>
<path d="M295.3 228.858V232.695L248.811 205.763V201.927L295.3 228.858Z" fill="white"/>
<path d="M300.9 225.612L295.3 228.858L248.811 201.927L254.336 198.68L300.9 225.612Z" fill="#DAE2F0"/>
<path d="M314.601 217.643V221.554L309.002 224.8V220.889L314.601 217.643Z" fill="#BFCEE6"/>
<path d="M309.001 220.889V224.8L262.512 197.868V194.031L309.001 220.889Z" fill="white"/>
<path d="M314.601 217.643L309.001 220.889L262.512 194.031L268.037 190.785L314.601 217.643Z" fill="#DAE2F0"/>
<path d="M328.305 209.748V213.585L322.705 216.831V212.995L328.305 209.748Z" fill="#BFCEE6"/>
<path d="M322.706 212.995V216.831L276.143 189.973L276.216 186.063L322.706 212.995Z" fill="white"/>
<path d="M328.306 209.748L322.706 212.995L276.217 186.063L281.742 182.816L328.306 209.748Z" fill="#DAE2F0"/>
<path d="M342.01 201.853L341.936 205.69L336.41 208.936V205.099L342.01 201.853Z" fill="#BFCEE6"/>
<path d="M336.409 205.099V208.936L289.92 182.004V178.167L336.409 205.099Z" fill="white"/>
<path d="M342.009 201.853L336.409 205.099L289.92 178.167L295.446 174.921L342.009 201.853Z" fill="#DAE2F0"/>
<path d="M355.713 193.884L355.639 197.794L350.113 201.041V197.13L355.713 193.884Z" fill="#BFCEE6"/>
<path d="M350.114 197.13V201.041L303.551 174.109L303.624 170.272L350.114 197.13Z" fill="white"/>
<path d="M355.714 193.884L350.115 197.13L303.625 170.272L309.151 167.026L355.714 193.884Z" fill="#DAE2F0"/>
<path d="M369.342 185.989V189.826L363.816 193.072V189.235L369.342 185.989Z" fill="#BFCEE6"/>
<path d="M363.817 189.235V193.072L317.254 166.214L317.328 162.303L363.817 189.235Z" fill="white"/>
<path d="M369.343 185.989L363.818 189.235L317.328 162.303L322.854 159.057L369.343 185.989Z" fill="#DAE2F0"/>
<path d="M383.117 178.02L383.043 181.93L377.518 185.177V181.266L383.117 178.02Z" fill="#BFCEE6"/>
<path d="M377.518 181.266V185.177L330.955 158.245V154.408L377.518 181.266Z" fill="white"/>
<path d="M383.118 178.02L377.518 181.267L330.955 154.408L336.554 151.162L383.118 178.02Z" fill="#DAE2F0"/>
<path d="M391.223 173.371V177.208L344.66 150.35V146.439L391.223 173.371Z" fill="white"/>
<path d="M396.749 170.125L391.223 173.371L344.66 146.439L350.26 143.266L396.749 170.125Z" fill="#DAE2F0"/>
<path d="M404.927 165.476V169.313L358.363 142.455V138.544L404.927 165.476Z" fill="white"/>
<path d="M410.452 162.229L404.927 165.476L358.363 138.544L363.963 135.297L410.452 162.229Z" fill="#DAE2F0"/>
<path d="M418.63 157.507V161.418L372.066 134.486V130.649L418.63 157.507Z" fill="white"/>
<path d="M424.155 154.261L418.63 157.507L372.066 130.649L377.666 127.402L424.155 154.261Z" fill="#DAE2F0"/>
<path d="M432.335 149.612V153.449L385.771 126.591V122.68L432.335 149.612Z" fill="white"/>
<path d="M437.86 146.366L432.335 149.612L385.771 122.68L391.371 119.434L437.86 146.366Z" fill="#DAE2F0"/>
<path d="M1498.82 -472.476V-469.893L-867.309 900.682V898.1L1498.82 -472.476Z" fill="#BFCEE6"/>
<path d="M1500.98 -473.775L-867.308 898.097L-868.855 897.211L1499.43 -474.734L1500.98 -473.775Z" fill="#DAE2F0"/>
<path d="M1506.99 -518.468V-515.885L-859.145 854.691V852.108L1506.99 -518.468Z" fill="#BFCEE6"/>
<path d="M1509.14 -519.767L-859.144 852.105L-860.691 851.219L1507.59 -520.726L1509.14 -519.767Z" fill="#DAE2F0"/>
</g>
<g style="mix-blend-mode:multiply" opacity="0.3" filter="url(#filter2_f_1094_32178)">
<path d="M654.987 -12.5354L760.89 52.907L213.222 371.718L89.1641 303.852L654.987 -12.5354Z" fill="url(#paint1_linear_1094_32178)"/>
</g>
<path d="M389.234 156.628C389.459 158.411 388.116 160.929 386.234 162.276C384.352 163.624 382.639 163.245 382.413 161.469C382.188 159.694 383.531 157.168 385.413 155.821C387.295 154.473 389.001 154.844 389.234 156.628Z" fill="#9EA2CB"/>
<path d="M388.317 157.273C388.486 158.572 387.512 160.42 386.121 161.397C384.729 162.373 383.491 162.107 383.33 160.808C383.169 159.508 384.134 157.66 385.526 156.684C386.917 155.708 388.148 155.942 388.317 157.273Z" fill="#B4C5E1"/>
<path d="M369.955 167.74C370.124 169.039 369.151 170.887 367.76 171.863C366.368 172.839 365.13 172.573 364.969 171.274C364.808 169.975 365.773 168.127 367.164 167.15C368.556 166.174 369.795 166.432 369.955 167.74Z" fill="#B4C5E1"/>
<path d="M392.107 151.705C392.013 150.767 391.671 149.87 391.118 149.107L391.359 148.728L389.276 147.751H389.235C387.394 147.146 384.868 147.751 382.206 149.591C377.316 153.045 373.825 159.597 374.412 164.213C374.511 165.267 374.932 166.265 375.619 167.07C375.617 167.089 375.617 167.107 375.619 167.126C376.511 167.999 377.623 168.612 378.836 168.901L379.158 168.377C381.033 168.172 382.816 167.455 384.313 166.303C389.244 162.874 392.734 156.321 392.107 151.705Z" fill="#969BC2"/>
<path d="M393.717 152.464C394.304 157.079 390.813 163.632 385.923 167.086C381.033 170.539 376.593 169.603 376.014 164.988C375.435 160.372 378.918 153.819 383.808 150.366C388.698 146.912 393.146 147.872 393.717 152.464Z" fill="#9EA2CB"/>
<path d="M392.76 153.747C393.226 157.419 390.451 162.623 386.559 165.383C382.666 168.143 379.135 167.384 378.668 163.713C378.202 160.041 380.977 154.836 384.87 152.077C388.762 149.317 392.293 150.067 392.76 153.747Z" fill="#B4C5E1"/>
<path d="M373.786 162.171C373.695 161.233 373.356 160.337 372.805 159.573L373.046 159.194L370.963 158.217H370.923C369.081 157.612 366.556 158.217 363.893 160.057C359.003 163.511 355.512 170.063 356.1 174.679C356.198 175.733 356.62 176.731 357.306 177.536C357.305 177.554 357.305 177.573 357.306 177.592C358.199 178.465 359.311 179.078 360.523 179.367L360.845 178.843C362.72 178.638 364.504 177.92 366.001 176.769C370.883 173.34 374.414 166.787 373.786 162.171Z" fill="#969BC2"/>
<path d="M375.379 162.93C375.966 167.546 372.475 174.098 367.585 177.552C362.695 181.006 358.255 180.07 357.676 175.454C357.097 170.838 360.58 164.286 365.47 160.832C370.36 157.378 374.792 158.314 375.379 162.93Z" fill="#9EA2CB"/>
<path d="M374.414 164.213C374.881 167.885 372.106 173.089 368.213 175.849C364.32 178.609 360.789 177.85 360.323 174.179C359.856 170.507 362.631 165.302 366.524 162.543C370.417 159.783 373.94 160.533 374.414 164.213Z" fill="#B4C5E1"/>
<path d="M370.874 167.094C371.1 168.877 369.756 171.395 367.874 172.742C365.992 174.09 364.279 173.711 364.054 171.936C363.829 170.16 365.172 167.635 367.054 166.287C368.936 164.939 370.649 165.311 370.874 167.094Z" fill="#9EA2CB"/>
<path d="M390.033 152.722L365.092 167.861V174.986L371.148 171.306L372.339 168.619L384.13 161.47L384.998 162.93L390.033 159.872V152.722Z" fill="#BDCCE5"/>
<path d="M455.76 118.927L350.693 180.191V169.442L455.76 108.179V118.927Z" fill="#A9B8DA"/>
<path d="M350.694 169.353L316.416 150.375V160.66L350.694 180.199V169.353Z" fill="#BDCCE5"/>
<path d="M308.475 96.4866L308.708 96.616V96.3491L308.475 96.4866Z" fill="#2B2B2D"/>
<g clip-path="url(#clip2_1094_32178)">
<path d="M316.41 154.478V115.485L350.498 134.978V173.971L316.41 154.478Z" fill="#1E1C7B"/>
<path d="M421.539 55.3849L316.441 115.496L350.523 134.996L455.598 74.8667L421.539 55.3849Z" fill="#4A48AD"/>
<path d="M455.598 113.854L350.499 173.971V134.978L455.598 74.8667V113.854Z" fill="#2B298F"/>
<path opacity="0.5" d="M353.341 136.603L356.205 134.996V167.46L353.341 169.096V136.603Z" fill="#5755B7"/>
<path opacity="0.5" d="M359.774 132.923L362.639 131.31V163.774L359.774 165.417V132.923Z" fill="#5755B7"/>
<path opacity="0.5" d="M366.214 129.238L369.084 127.63V160.094L366.214 161.731V129.238Z" fill="#5755B7"/>
<path opacity="0.5" d="M372.653 125.558L375.518 123.945V156.409L372.653 158.051V125.558Z" fill="#5755B7"/>
<path opacity="0.5" d="M379.091 121.873L381.955 120.259V152.729L379.091 154.366V121.873Z" fill="#5755B7"/>
<path opacity="0.5" d="M385.534 118.187L388.398 116.58V149.043L385.534 150.686V118.187Z" fill="#5755B7"/>
<path d="M322.093 115.485L324.933 113.86L353.34 130.109L350.499 131.728L322.093 115.485Z" fill="#3A389D"/>
<path d="M328.53 111.805L331.371 110.174L359.777 126.424L356.937 128.049L328.53 111.805Z" fill="#3A389D"/>
<path d="M334.974 108.119L337.814 106.495L366.215 122.744L363.374 124.369L334.974 108.119Z" fill="#3A389D"/>
<path d="M341.407 104.44L344.248 102.815L372.654 119.058L369.814 120.683L341.407 104.44Z" fill="#3A389D"/>
<path d="M347.849 100.754L350.689 99.1292L379.09 115.379L376.249 117.004L347.849 100.754Z" fill="#3A389D"/>
<path d="M354.288 97.0744L357.129 95.4495L385.535 111.693L382.694 113.318L354.288 97.0744Z" fill="#3A389D"/>
<path d="M360.727 93.3888L363.568 91.7698L391.969 108.013L389.128 109.638L360.727 93.3888Z" fill="#3A389D"/>
<path d="M367.163 89.7091L370.004 88.0841L398.41 104.334L395.569 105.959L367.163 89.7091Z" fill="#3A389D"/>
<path d="M373.606 86.0294L376.447 84.4044L404.848 100.648L402.007 102.273L373.606 86.0294Z" fill="#3A389D"/>
<path d="M380.042 82.3438L382.882 80.7189L411.289 96.9684L408.448 98.5934L380.042 82.3438Z" fill="#3A389D"/>
<path d="M386.477 78.6641L389.318 77.0392L417.725 93.2828L414.884 94.9078L386.477 78.6641Z" fill="#3A389D"/>
<path d="M347.318 136.527L344.038 134.708L343.699 167.766L346.98 169.615L347.318 136.527Z" fill="#32308D"/>
<path d="M340.936 132.812L337.655 131.01L337.376 164.327L340.656 166.158L340.936 132.812Z" fill="#32308D"/>
<path d="M334.555 129.102L331.28 127.313L331.054 160.895L334.329 162.702L334.555 129.102Z" fill="#32308D"/>
<path d="M328.176 125.394L324.895 123.615L324.723 157.463L328.003 159.247L328.176 125.394Z" fill="#32308D"/>
<path d="M321.793 121.684L318.513 119.924L318.4 154.024L321.68 155.791L321.793 121.684Z" fill="#32308D"/>
<g clip-path="url(#clip3_1094_32178)">
<path d="M390.136 125.073C390.683 125.021 391.234 124.957 391.777 124.923C392.019 124.907 392.227 124.984 392.326 125.229C392.572 125.842 392.807 126.468 393.062 127.072C393.162 127.31 393.101 127.572 392.925 127.885C392.628 128.414 392.334 128.947 392.031 129.474C391.902 129.693 391.766 129.908 391.624 130.118C391.466 130.356 391.347 130.412 391.201 130.326C390.205 129.744 389.209 129.162 388.213 128.579C388.117 128.523 388.014 128.48 387.945 128.446C387.883 128.227 387.964 128.042 388.087 127.831C388.548 127.046 389.043 126.282 389.566 125.547C389.63 125.457 389.7 125.373 389.767 125.286L390.136 125.073ZM390.63 125.627C390.449 125.62 390.296 125.641 390.172 125.602C390.027 125.555 389.906 125.665 389.79 125.841C389.467 126.328 389.15 126.822 388.81 127.345L390.63 125.627Z" fill="white"/>
<path d="M380.671 130.542C381.116 130.689 381.562 130.832 382.004 130.988C382.148 131.044 382.286 131.112 382.418 131.192C382.559 131.272 382.558 131.458 382.418 131.703C381.354 133.556 380.29 135.409 379.226 137.262C379.106 137.471 378.95 137.579 378.825 137.524C378.598 137.421 378.367 137.323 378.152 137.197C377.877 137.038 377.617 136.853 377.352 136.679C377.352 136.5 377.352 136.322 377.352 136.143C377.597 135.273 377.85 134.403 378.085 133.535C378.202 133.102 378.432 132.747 378.717 132.436C379.24 131.866 379.773 131.315 380.302 130.755L380.671 130.542ZM378.807 136.774L378.218 134.683L377.717 136.213L378.807 136.774Z" fill="white"/>
<path d="M384.852 142.179C384.648 142.122 384.412 142.118 384.248 141.997C384.019 141.826 384.029 141.414 384.064 141.013C384.084 140.78 384.117 140.517 384.218 140.28C384.422 139.796 384.74 139.401 385.117 139.134C385.604 138.789 385.98 138.85 386.262 139.105C386.464 139.288 386.477 139.666 386.426 140.069C386.399 140.276 386.373 140.497 386.295 140.709C386.166 141.062 385.93 141.354 385.689 141.626C385.655 141.668 385.622 141.711 385.59 141.755L384.852 142.179ZM385.347 140.014C385.443 140.031 385.502 140.078 385.56 140.044C385.628 140.004 385.694 139.891 385.797 139.767L385.578 139.702L385.347 140.014Z" fill="white"/>
<path d="M380.159 141.007C380.221 140.569 380.275 140.134 380.341 139.695C380.394 139.339 380.476 138.97 380.512 138.622C380.538 138.37 380.651 138.152 380.792 137.938C381.253 137.234 381.717 136.536 382.18 135.836C382.389 135.521 382.492 135.45 382.726 135.469C383.084 135.499 383.44 135.533 383.796 135.564C383.949 135.578 383.999 135.791 383.955 136.103C383.878 136.648 383.815 137.184 383.745 137.726C383.713 137.974 383.693 138.22 383.635 138.476C383.594 138.638 383.522 138.802 383.426 138.95C382.987 139.625 382.538 140.29 382.094 140.959C382.019 141.072 381.955 141.201 381.872 141.302C381.71 141.497 381.555 141.517 381.408 141.503C381.134 141.478 380.859 141.455 380.587 141.426C380.501 141.416 380.418 141.4 380.338 141.376C380.202 141.338 380.15 141.21 380.159 141.007Z" fill="white"/>
<path d="M386.474 134.413C386.452 134.201 386.552 134.027 386.714 133.833C387.041 133.441 387.359 133.036 387.677 132.629C387.925 132.312 388.063 132.249 388.287 132.334C388.73 132.502 389.176 132.662 389.632 132.803C389.849 132.87 389.912 133.092 389.957 133.355C390.035 133.82 390.138 134.265 390.218 134.728C390.249 134.912 390.275 135.109 390.252 135.322C390.231 135.477 390.162 135.645 390.062 135.789C389.783 136.165 389.485 136.52 389.191 136.879C389.066 137.033 388.94 137.206 388.804 137.314C388.69 137.399 388.574 137.434 388.479 137.411C388.095 137.297 387.722 137.157 387.35 137.018C387.191 136.959 387.025 136.907 386.894 136.802C386.817 136.74 386.782 136.597 386.76 136.465C386.68 136 386.612 135.526 386.545 135.052C386.516 134.843 386.497 134.626 386.474 134.413Z" fill="white"/>
</g>
</g>
<path d="M327.701 191.063C327.926 192.847 326.583 195.364 324.701 196.712C322.818 198.06 321.105 197.68 320.88 195.905C320.655 194.13 321.998 191.604 323.88 190.256C325.762 188.909 327.516 189.28 327.701 191.063Z" fill="#9EA2CB"/>
<path d="M326.791 191.709C326.96 193.008 325.987 194.856 324.596 195.832C323.204 196.809 321.965 196.543 321.805 195.243C321.644 193.944 322.609 192.096 324 191.12C325.392 190.144 326.622 190.41 326.791 191.709Z" fill="#B4C5E1"/>
<path d="M308.428 202.175C308.597 203.474 307.624 205.322 306.232 206.298C304.841 207.275 303.602 207.009 303.441 205.709C303.28 204.41 304.246 202.562 305.637 201.586C307.029 200.61 308.267 200.868 308.428 202.175Z" fill="#B4C5E1"/>
<path d="M277.992 220.735C278.217 222.518 276.874 225.036 274.992 226.383C273.11 227.731 271.396 227.352 271.171 225.576C270.946 223.801 272.289 221.275 274.171 219.928C276.053 218.58 277.758 218.951 277.992 220.735Z" fill="#9EA2CB"/>
<path d="M277.075 221.38C277.243 222.679 276.27 224.527 274.879 225.504C273.487 226.48 272.249 226.214 272.088 224.915C271.927 223.615 272.892 221.768 274.284 220.791C275.675 219.815 276.906 220.049 277.075 221.38Z" fill="#B4C5E1"/>
<path d="M258.713 231.846C258.882 233.146 257.909 234.994 256.517 235.97C255.126 236.946 253.887 236.68 253.726 235.381C253.566 234.082 254.531 232.234 255.922 231.257C257.314 230.281 258.552 230.539 258.713 231.846Z" fill="#B4C5E1"/>
<path d="M330.621 186.157C330.526 185.218 330.185 184.322 329.631 183.559L329.873 183.18L327.789 182.203H327.749C325.907 181.598 323.382 182.203 320.72 184.043C315.829 187.497 312.339 194.049 312.926 198.665C313.025 199.719 313.446 200.717 314.132 201.521C314.131 201.54 314.131 201.559 314.132 201.578C315.025 202.451 316.137 203.064 317.349 203.353L317.671 202.829C319.546 202.623 321.33 201.906 322.827 200.755C327.717 197.309 331.208 190.757 330.621 186.157Z" fill="#969BC2"/>
<path d="M332.205 186.899C332.792 191.515 329.302 198.068 324.411 201.521C319.521 204.975 315.081 204.039 314.502 199.423C313.923 194.808 317.406 188.255 322.296 184.801C327.186 181.348 331.618 182.284 332.205 186.899Z" fill="#9EA2CB"/>
<path d="M331.231 188.174C331.697 191.846 328.922 197.051 325.029 199.811C321.136 202.57 317.606 201.812 317.139 198.14C316.673 194.469 319.447 189.264 323.34 186.504C327.233 183.744 330.732 184.543 331.231 188.174Z" fill="#B4C5E1"/>
<path d="M312.231 196.607C312.137 195.668 311.796 194.771 311.242 194.009L311.483 193.629L309.416 192.613H309.376C307.534 192.007 305.009 192.613 302.346 194.453C297.456 197.906 293.966 204.459 294.553 209.074C294.652 210.129 295.073 211.126 295.759 211.931C295.758 211.95 295.758 211.969 295.759 211.987C296.652 212.86 297.764 213.474 298.976 213.763L299.298 213.238C301.173 213.033 302.957 212.316 304.454 211.164C309.352 207.767 312.843 201.223 312.231 196.607Z" fill="#969BC2"/>
<path d="M313.844 197.366C314.431 201.981 310.94 208.534 306.05 211.988C301.16 215.441 296.72 214.505 296.141 209.89C295.562 205.274 299.045 198.721 303.935 195.268C308.825 191.814 313.265 192.75 313.844 197.366Z" fill="#9EA2CB"/>
<path d="M312.869 198.641C313.336 202.312 310.561 207.517 306.668 210.277C302.775 213.036 299.244 212.278 298.778 208.606C298.311 204.935 301.086 199.73 304.979 196.97C308.872 194.21 312.411 194.969 312.869 198.641Z" fill="#B4C5E1"/>
<path d="M309.349 201.489C309.574 203.273 308.231 205.79 306.349 207.138C304.467 208.485 302.754 208.106 302.529 206.331C302.303 204.556 303.647 202.03 305.529 200.682C307.411 199.335 309.124 199.746 309.349 201.489Z" fill="#9EA2CB"/>
<path d="M328.502 187.158L303.561 202.296V209.421L309.617 205.742L310.807 203.055L322.599 195.905L323.467 197.358L328.502 194.307V187.158Z" fill="#BDCCE5"/>
<path d="M280.865 215.812C280.771 214.874 280.429 213.977 279.875 213.214L280.117 212.835L278.033 211.858H277.993C276.151 211.253 273.626 211.858 270.964 213.698C266.073 217.152 262.583 223.704 263.17 228.32C263.269 229.374 263.69 230.372 264.376 231.177C264.375 231.195 264.375 231.214 264.376 231.233C265.269 232.106 266.381 232.719 267.594 233.008L267.915 232.484C269.791 232.279 271.574 231.561 273.071 230.41C278.001 226.981 281.492 220.428 280.865 215.812Z" fill="#969BC2"/>
<path d="M282.475 216.571C283.062 221.186 279.571 227.739 274.681 231.193C269.791 234.646 265.351 233.71 264.772 229.094C264.193 224.479 267.675 217.926 272.566 214.473C277.456 211.019 281.904 211.979 282.475 216.571Z" fill="#9EA2CB"/>
<path d="M281.518 217.854C281.984 221.525 279.209 226.73 275.316 229.49C271.424 232.25 267.893 231.491 267.426 227.82C266.96 224.148 269.735 218.943 273.627 216.183C277.52 213.424 281.051 214.174 281.518 217.854Z" fill="#B4C5E1"/>
<path d="M262.544 226.278C262.452 225.34 262.114 224.444 261.563 223.68L261.804 223.301L259.721 222.324H259.681C257.839 221.719 255.313 222.324 252.651 224.164C247.761 227.618 244.27 234.17 244.857 238.786C244.956 239.84 245.378 240.838 246.064 241.643C246.063 241.661 246.063 241.68 246.064 241.699C246.957 242.572 248.068 243.185 249.281 243.474L249.603 242.95C251.478 242.745 253.261 242.027 254.758 240.876C259.641 237.446 263.171 230.894 262.544 226.278Z" fill="#969BC2"/>
<path d="M264.137 227.037C264.724 231.653 261.233 238.205 256.343 241.659C251.453 245.113 247.013 244.177 246.434 239.561C245.855 234.945 249.338 228.393 254.228 224.939C259.118 221.485 263.55 222.421 264.137 227.037Z" fill="#9EA2CB"/>
<path d="M263.172 228.32C263.638 231.992 260.864 237.196 256.971 239.956C253.078 242.716 249.547 241.957 249.08 238.286C248.614 234.614 251.389 229.409 255.282 226.65C259.175 223.89 262.697 224.64 263.172 228.32Z" fill="#B4C5E1"/>
<path d="M259.632 231.201C259.857 232.984 258.514 235.502 256.632 236.849C254.75 238.197 253.037 237.818 252.812 236.042C252.587 234.267 253.93 231.741 255.812 230.394C257.694 229.046 259.407 229.417 259.632 231.201Z" fill="#9EA2CB"/>
<path d="M278.791 216.829L253.85 231.968V239.093L259.906 235.413L261.096 232.726L272.888 225.577L273.756 227.037L278.791 223.979V216.829Z" fill="#BDCCE5"/>
<path d="M344.518 183.034L239.451 244.298V233.549L344.518 172.286V183.034Z" fill="#A9B8DA"/>
<path d="M239.452 233.46L205.174 214.482V224.767L239.452 244.305V233.46Z" fill="#BDCCE5"/>
<path d="M197.232 160.593L197.466 160.723V160.456L197.232 160.593Z" fill="#2B2B2D"/>
<g clip-path="url(#clip4_1094_32178)">
<path d="M205.17 218.584V179.591L239.258 199.085V238.078L205.17 218.584Z" fill="#1E1C7B"/>
<path d="M310.297 119.492L205.199 179.603L239.281 199.103L344.355 138.973L310.297 119.492Z" fill="#4A48AD"/>
<path d="M344.355 177.961L239.257 238.078V199.085L344.355 138.974V177.961Z" fill="#2B298F"/>
<path opacity="0.5" d="M242.098 200.71L244.963 199.103V231.567L242.098 233.203V200.71Z" fill="#5755B7"/>
<path opacity="0.5" d="M248.532 197.03L251.396 195.417V227.881L248.532 229.523V197.03Z" fill="#5755B7"/>
<path opacity="0.5" d="M254.971 193.345L257.842 191.737V224.201L254.971 225.838V193.345Z" fill="#5755B7"/>
<path opacity="0.5" d="M261.411 189.665L264.275 188.052V220.515L261.411 222.158V189.665Z" fill="#5755B7"/>
<path opacity="0.5" d="M267.848 185.979L270.713 184.366V216.836L267.848 218.473V185.979Z" fill="#5755B7"/>
<path opacity="0.5" d="M274.292 182.294L277.156 180.687V213.15L274.292 214.793V182.294Z" fill="#5755B7"/>
<path opacity="0.5" d="M280.727 178.614L283.592 177.001V209.465L280.727 211.107V178.614Z" fill="#5755B7"/>
<path opacity="0.5" d="M287.169 174.928L290.033 173.321V205.785L287.169 207.422V174.928Z" fill="#5755B7"/>
<path opacity="0.5" d="M293.604 171.249L296.469 169.636V202.099L293.604 203.742V171.249Z" fill="#5755B7"/>
<path opacity="0.5" d="M300.048 167.563L302.912 165.956V198.42L300.048 200.056V167.563Z" fill="#5755B7"/>
<path opacity="0.5" d="M306.481 163.878L309.346 162.27V194.734L306.481 196.377V163.878Z" fill="#5755B7"/>
<path opacity="0.5" d="M312.927 160.198L315.791 158.585V191.054L312.927 192.691V160.198Z" fill="#5755B7"/>
<path opacity="0.5" d="M319.362 156.512L322.227 154.905V187.369L319.362 189.006V156.512Z" fill="#5755B7"/>
<path opacity="0.5" d="M325.796 152.833L328.666 151.219V183.683L325.796 185.326V152.833Z" fill="#5755B7"/>
<path opacity="0.5" d="M332.239 149.147L335.104 147.534V180.004L332.239 181.64V149.147Z" fill="#5755B7"/>
<path opacity="0.5" d="M338.675 145.467L341.545 143.854V176.318L338.675 177.961V145.467Z" fill="#5755B7"/>
<path d="M210.85 179.592L213.691 177.967L242.098 194.216L239.257 195.835L210.85 179.592Z" fill="#3A389D"/>
<path d="M217.288 175.912L220.129 174.281L248.535 190.53L245.694 192.155L217.288 175.912Z" fill="#3A389D"/>
<path d="M223.731 172.226L226.572 170.601L254.973 186.851L252.132 188.476L223.731 172.226Z" fill="#3A389D"/>
<path d="M230.167 168.547L233.007 166.922L261.414 183.165L258.573 184.79L230.167 168.547Z" fill="#3A389D"/>
<path d="M236.606 164.861L239.447 163.236L267.848 179.485L265.007 181.11L236.606 164.861Z" fill="#3A389D"/>
<path d="M243.046 161.181L245.886 159.556L274.293 175.8L271.452 177.425L243.046 161.181Z" fill="#3A389D"/>
<path d="M249.485 157.496L252.326 155.877L280.727 172.12L277.886 173.745L249.485 157.496Z" fill="#3A389D"/>
<path d="M255.921 153.816L258.761 152.191L287.168 168.44L284.327 170.065L255.921 153.816Z" fill="#3A389D"/>
<path d="M262.364 150.136L265.205 148.511L293.605 164.755L290.765 166.38L262.364 150.136Z" fill="#3A389D"/>
<path d="M268.8 146.451L271.64 144.826L300.047 161.075L297.206 162.7L268.8 146.451Z" fill="#3A389D"/>
<path d="M275.235 142.771L278.076 141.146L306.482 157.39L303.642 159.015L275.235 142.771Z" fill="#3A389D"/>
<path d="M281.678 139.085L284.519 137.46L312.926 153.71L310.085 155.335L281.678 139.085Z" fill="#3A389D"/>
<path d="M288.116 135.406L290.957 133.781L319.363 150.03L316.523 151.655L288.116 135.406Z" fill="#3A389D"/>
<path d="M294.556 131.726L297.396 130.101L325.797 146.345L322.956 147.97L294.556 131.726Z" fill="#3A389D"/>
<path d="M300.991 128.04L303.832 126.415L332.238 142.665L329.398 144.29L300.991 128.04Z" fill="#3A389D"/>
<path d="M307.434 124.361L310.275 122.736L338.676 138.979L335.835 140.604L307.434 124.361Z" fill="#3A389D"/>
<path d="M236.076 200.634L232.796 198.814L232.457 231.873L235.737 233.721L236.076 200.634Z" fill="#32308D"/>
<path d="M229.693 196.918L226.413 195.117L226.134 228.434L229.414 230.265L229.693 196.918Z" fill="#32308D"/>
<path d="M223.312 193.209L220.038 191.419L219.812 225.002L223.087 226.809L223.312 193.209Z" fill="#32308D"/>
<path d="M216.934 189.5L213.653 187.722L213.481 221.57L216.761 223.354L216.934 189.5Z" fill="#32308D"/>
<path d="M210.551 185.791L207.27 184.031L207.157 218.131L210.438 219.897L210.551 185.791Z" fill="#32308D"/>
<g clip-path="url(#clip5_1094_32178)">
<path d="M308.739 171.937C308.824 171.913 308.91 171.883 308.993 171.867C309.434 171.781 309.858 171.742 310.206 171.912C310.682 172.143 310.983 172.589 311.041 173.311C311.07 173.672 311.092 174.041 311.07 174.431C311.015 175.371 310.809 176.343 310.357 177.37C309.968 178.256 309.461 179.043 308.857 179.747C308.552 180.102 308.215 180.408 307.888 180.721C307.474 181.111 307.042 181.434 306.608 181.678C306.198 181.915 305.786 182.171 305.377 182.384C305.036 182.56 304.696 182.69 304.357 182.831C304.27 182.868 304.187 182.868 304.066 182.892C304.08 182.79 304.09 182.673 304.112 182.553C304.352 181.267 304.595 179.981 304.834 178.695C304.953 178.049 305.065 177.406 305.183 176.76C305.353 175.824 305.525 174.888 305.699 173.951C305.709 173.912 305.722 173.872 305.737 173.832L306.557 173.198L308.739 171.937ZM306.023 180.3C306.298 180.141 306.544 180.002 306.79 179.857C307.213 179.607 307.629 179.242 308.002 178.792C308.586 178.089 308.985 177.286 309.2 176.428C309.369 175.752 309.439 175.114 309.351 174.557C309.284 174.125 309.086 173.857 308.706 173.852C308.188 173.845 307.638 174.187 307.07 174.587L306.023 180.3Z" fill="white"/>
<path d="M317.747 175.172L316.118 176.113L316.015 174.357C315.965 174.384 315.915 174.407 315.866 174.436C315.097 174.88 314.329 175.327 313.561 175.764C313.44 175.833 313.376 175.919 313.322 176.067C313.061 176.769 312.793 177.472 312.525 178.183L310.809 179.175C310.842 179.032 310.855 178.908 310.901 178.789C311.221 177.965 311.546 177.141 311.874 176.318C312.252 175.371 312.627 174.423 313.013 173.477C313.415 172.493 313.824 171.511 314.24 170.529C314.55 169.797 314.877 169.07 315.2 168.342C315.217 168.306 315.239 168.271 315.264 168.24C315.289 168.209 315.316 168.182 315.345 168.162C315.811 167.886 316.276 167.62 316.759 167.341C316.843 167.817 316.928 168.287 317.009 168.761C317.082 169.195 317.156 169.629 317.219 170.069C317.27 170.427 317.303 170.799 317.348 171.162C317.396 171.546 317.452 171.924 317.497 172.309C317.535 172.63 317.559 172.962 317.594 173.285C317.631 173.624 317.674 173.959 317.714 174.295C317.725 174.384 317.736 174.473 317.747 174.562L317.747 175.172ZM315.668 170.028L315.623 170.046L314.092 173.877L315.902 172.831L315.668 170.028Z" fill="white"/>
<path d="M287.994 183.924C288.107 183.894 288.221 183.861 288.332 183.836C288.727 183.744 289.098 183.726 289.387 183.906C289.716 184.111 289.896 184.484 289.901 185.045C289.905 185.51 289.895 185.978 289.742 186.507C289.635 186.878 289.496 187.245 289.297 187.613C288.807 188.514 288.185 189.189 287.495 189.709C286.885 190.168 286.265 190.56 285.614 191.007L285.051 194.046L283.4 194.999C283.437 194.756 283.466 194.518 283.51 194.275C283.722 193.124 283.937 191.971 284.152 190.819C284.334 189.843 284.517 188.867 284.695 187.893C284.824 187.186 284.946 186.478 285.074 185.754C285.273 185.603 285.466 185.456 285.658 185.309C285.7 185.277 285.741 185.238 285.781 185.202L287.994 183.924ZM285.981 189.046C286.421 188.819 286.829 188.552 287.236 188.193C287.737 187.751 288.1 187.248 288.197 186.559C288.243 186.231 288.156 185.827 287.839 185.847C287.378 185.878 286.91 186.17 286.446 186.503L285.981 189.046Z" fill="white"/>
<path d="M278.895 189.18C279.443 189.128 279.994 189.064 280.536 189.03C280.778 189.014 280.987 189.091 281.086 189.336C281.332 189.949 281.567 190.575 281.822 191.179C281.921 191.417 281.861 191.679 281.685 191.992C281.388 192.521 281.094 193.053 280.791 193.581C280.662 193.8 280.526 194.015 280.384 194.225C280.226 194.463 280.107 194.518 279.961 194.433C278.965 193.851 277.969 193.268 276.973 192.686C276.877 192.63 276.774 192.587 276.705 192.553C276.643 192.334 276.724 192.149 276.847 191.938C277.308 191.153 277.803 190.389 278.326 189.654C278.39 189.564 278.46 189.48 278.527 189.393L278.895 189.18ZM279.389 189.734C279.209 189.727 279.056 189.748 278.931 189.709C278.787 189.662 278.666 189.772 278.55 189.948C278.227 190.435 277.91 190.929 277.57 191.452L279.389 189.734Z" fill="white"/>
<path d="M269.431 194.649C269.875 194.796 270.322 194.939 270.763 195.095C270.908 195.151 271.046 195.219 271.178 195.299C271.319 195.379 271.317 195.565 271.178 195.81C270.113 197.663 269.05 199.516 267.986 201.369C267.866 201.578 267.71 201.686 267.585 201.63C267.357 201.528 267.127 201.43 266.912 201.304C266.637 201.144 266.377 200.96 266.111 200.786C266.111 200.607 266.111 200.429 266.111 200.25C266.357 199.38 266.61 198.51 266.844 197.642C266.961 197.209 267.191 196.854 267.477 196.543C268 195.973 268.533 195.422 269.062 194.862L269.431 194.649ZM267.567 200.881L266.978 198.79L266.477 200.32L267.567 200.881Z" fill="white"/>
<path d="M273.611 206.286C273.408 206.229 273.171 206.225 273.008 206.104C272.779 205.933 272.789 205.521 272.824 205.12C272.844 204.887 272.877 204.624 272.977 204.387C273.182 203.903 273.5 203.508 273.876 203.241C274.363 202.896 274.74 202.957 275.022 203.212C275.223 203.395 275.237 203.773 275.186 204.175C275.159 204.383 275.133 204.604 275.055 204.816C274.926 205.169 274.69 205.461 274.448 205.733C274.414 205.775 274.381 205.818 274.35 205.862L273.611 206.286ZM274.107 204.121C274.203 204.138 274.262 204.185 274.32 204.151C274.387 204.111 274.454 203.998 274.557 203.874L274.338 203.809L274.107 204.121Z" fill="white"/>
<path d="M311.445 184.426C311.54 183.887 311.632 183.348 311.73 182.808C311.869 182.04 312.012 181.272 312.155 180.495L312.582 180.248L313.495 182.135L313.987 179.434L314.439 179.173C314.399 179.414 314.366 179.636 314.325 179.861C314.134 180.897 313.941 181.935 313.75 182.971C313.746 183.014 313.746 183.056 313.75 183.094L313.32 183.343C313.289 183.22 313.268 183.087 313.225 182.978C313.046 182.524 312.864 182.073 312.678 181.627C312.616 181.482 312.537 181.355 312.466 181.219L312.424 181.256L311.906 184.16L311.445 184.426Z" fill="white"/>
<path d="M292.145 195.578C292.23 195.054 292.308 194.533 292.402 194.006C292.527 193.302 292.665 192.594 292.797 191.888C292.808 191.831 292.821 191.772 292.838 191.691C293.241 191.387 293.651 191.072 294.059 190.979C294.532 190.871 294.73 191.181 294.618 191.805C294.546 192.21 294.372 192.571 294.079 192.895C294.006 192.975 293.937 193.062 293.875 193.136C294.009 193.44 294.142 193.729 294.266 194.027C294.3 194.109 294.307 194.22 294.328 194.317L293.866 194.584L293.406 193.526L292.857 193.843C292.848 193.897 292.84 193.941 292.832 193.986L292.606 195.311L292.145 195.578ZM293.209 191.935L292.971 193.264C293.152 193.141 293.311 193.051 293.463 192.925C293.631 192.784 293.806 192.631 293.952 192.447C294.026 192.351 294.086 192.241 294.124 192.129C294.163 192.016 294.179 191.906 294.17 191.811C294.159 191.627 294.056 191.537 293.896 191.598C293.673 191.684 293.445 191.818 293.209 191.935Z" fill="white"/>
<path d="M315.225 182.242C315.321 181.673 315.412 181.106 315.513 180.536C315.644 179.801 315.782 179.063 315.919 178.32L317.683 177.3C317.671 177.399 317.662 177.483 317.65 177.57C317.637 177.657 317.621 177.747 317.602 177.86L316.286 178.621L316.101 179.632L317.255 178.965L317.172 179.502L316.004 180.177L315.774 181.396L317.161 180.595L317.099 181.159L315.225 182.242Z" fill="white"/>
<path d="M282.217 201.313C282.312 200.774 282.406 200.235 282.504 199.694C282.634 198.975 282.768 198.256 282.901 197.537C282.911 197.482 282.928 197.424 282.94 197.371L284.712 196.347L284.605 196.921L283.298 197.677L283.108 198.692L284.249 198.033L284.184 198.56L283.013 199.236L282.785 200.455L284.188 199.645L284.092 200.23L282.217 201.313Z" fill="white"/>
<path d="M295.523 193.624C295.622 193.072 295.719 192.52 295.818 191.967C295.948 191.249 296.078 190.531 296.209 189.814C296.22 189.771 296.233 189.728 296.249 189.684L298.013 188.665L297.913 189.235L296.599 189.994L296.415 191.005L297.557 190.345L297.486 190.868L296.325 191.538L296.091 192.768L297.493 191.958L297.398 192.541L295.523 193.624Z" fill="white"/>
<path d="M285.166 199.609L285.179 199.449L286.47 196.948L285.869 195.68L286.392 195.378L286.829 196.343L287.673 194.635L288.151 194.358C288.125 194.464 288.121 194.558 288.079 194.641C287.829 195.148 287.57 195.652 287.314 196.157C287.219 196.346 287.123 196.535 287.043 196.692C287.219 197.114 287.387 197.504 287.546 197.903C287.579 197.986 287.577 198.104 287.593 198.205L287.133 198.471L286.717 197.346L286.656 197.378L285.688 199.307L285.166 199.609Z" fill="white"/>
<path d="M288.824 197.496C288.919 196.944 289.011 196.394 289.109 195.841C289.175 195.467 289.251 195.09 289.32 194.714C289.387 194.346 289.451 193.979 289.516 193.61C289.941 193.283 290.362 192.968 290.773 192.88C291.234 192.781 291.334 193 291.331 193.477C291.328 193.824 291.249 194.202 290.993 194.582C290.771 194.916 290.503 195.197 290.22 195.391C289.998 195.544 289.775 195.684 289.531 195.843C289.47 196.176 289.402 196.526 289.339 196.873C289.317 196.993 289.302 197.111 289.285 197.229L288.824 197.496ZM289.893 193.866L289.635 195.246C289.822 195.126 289.989 195.035 290.151 194.91C290.366 194.744 290.582 194.556 290.721 194.259C290.83 194.028 290.906 193.803 290.832 193.623C290.755 193.437 290.586 193.484 290.405 193.573C290.247 193.651 290.088 193.754 289.893 193.866Z" fill="white"/>
<path d="M298.812 191.724L298.518 191.702L298.711 191.06C298.787 191.06 298.851 191.065 298.92 191.058C299.258 191.019 299.597 190.862 299.922 190.446C300.17 190.127 300.182 189.785 299.949 189.717C299.79 189.673 299.623 189.649 299.449 189.643C299.19 189.632 299.08 189.459 299.059 189.13C299.033 188.71 299.169 188.311 299.48 187.921C299.615 187.752 299.779 187.609 299.935 187.489C300.22 187.272 300.636 187.059 300.949 187.138L300.765 187.665C300.534 187.751 300.345 187.812 300.153 187.896C299.971 187.975 299.791 188.107 299.65 188.341C299.425 188.715 299.465 188.99 299.775 189.024C299.927 189.041 300.088 189.035 300.242 189.046C300.531 189.066 300.618 189.453 300.57 189.822C300.509 190.302 300.293 190.689 299.941 191.033C299.93 191.043 299.925 191.068 299.917 191.086L298.812 191.724Z" fill="white"/>
<path d="M301.826 189.984L301.566 189.965C301.518 189.772 301.671 189.546 301.73 189.315C301.993 189.353 302.263 189.276 302.553 189.072C302.751 188.932 302.946 188.773 303.062 188.488C303.191 188.171 303.131 187.986 302.882 187.939C302.746 187.915 302.606 187.902 302.462 187.901C302.208 187.895 302.096 187.726 302.074 187.404C302.045 186.984 302.175 186.58 302.493 186.184C302.633 186.01 302.8 185.873 302.961 185.735C303.238 185.497 303.691 185.344 303.925 185.392C303.941 185.538 303.877 185.736 303.758 185.934C303.55 186.009 303.359 186.053 303.169 186.156C303.015 186.24 302.831 186.367 302.715 186.531C302.427 186.936 302.466 187.242 302.793 187.282C302.966 187.303 303.162 187.273 303.32 187.322C303.718 187.441 303.675 188.24 303.339 188.805C303.224 188.998 303.069 189.165 302.933 189.344L301.826 189.984Z" fill="white"/>
<path d="M306.527 187.267C306.625 186.715 306.722 186.164 306.822 185.612C306.951 184.894 307.082 184.176 307.213 183.458C307.224 183.414 307.237 183.369 307.253 183.324L307.709 183.061L307.102 186.405L308.378 185.667L308.279 186.255L306.527 187.267Z" fill="white"/>
<path d="M309.508 185.545C309.583 185.095 309.654 184.648 309.735 184.198C309.889 183.348 310.047 182.497 310.207 181.628L310.639 181.379C310.635 181.476 310.643 181.568 310.624 181.668C310.406 182.848 310.184 184.031 309.964 185.212C309.963 185.237 309.964 185.26 309.969 185.281L309.508 185.545Z" fill="white"/>
<path d="M302.585 175.539L304.254 174.575L302.519 183.963L301.273 184.683C300.695 183.17 300.051 181.729 299.206 180.478L298.092 186.52L296.445 187.472L298.172 178.084L299.456 177.342C300.286 178.402 300.944 179.667 301.596 180.957L302.585 175.539Z" fill="white"/>
<path d="M293.069 181.029L294.564 180.166C295.062 182.643 295.329 185.291 295.591 187.959L293.922 188.923L293.819 187.189C293.772 187.208 293.724 187.23 293.676 187.255C292.898 187.705 292.12 188.151 291.341 188.609C291.279 188.644 291.19 188.747 291.161 188.823C290.88 189.545 290.61 190.268 290.332 191.001L288.605 191.998C288.653 191.832 288.681 191.694 288.734 191.558C289.019 190.818 289.307 190.078 289.599 189.338C289.89 188.605 290.184 187.872 290.482 187.139C290.943 186.006 291.403 184.874 291.872 183.743C292.07 183.264 292.292 182.788 292.503 182.311L293.069 181.029ZM291.901 186.696L293.713 185.649L293.479 182.846L293.43 182.869L291.901 186.696Z" fill="white"/>
<path d="M268.919 205.114C268.981 204.676 269.035 204.241 269.1 203.802C269.154 203.446 269.236 203.077 269.272 202.729C269.298 202.477 269.411 202.259 269.551 202.044C270.012 201.34 270.477 200.643 270.94 199.943C271.149 199.628 271.252 199.557 271.486 199.576C271.843 199.606 272.199 199.64 272.556 199.671C272.708 199.684 272.759 199.898 272.715 200.21C272.637 200.755 272.575 201.291 272.505 201.832C272.473 202.081 272.453 202.327 272.394 202.583C272.354 202.745 272.282 202.908 272.186 203.057C271.747 203.731 271.298 204.397 270.853 205.066C270.778 205.179 270.715 205.308 270.632 205.409C270.47 205.604 270.315 205.624 270.167 205.61C269.894 205.585 269.619 205.562 269.347 205.533C269.261 205.523 269.178 205.507 269.098 205.483C268.961 205.445 268.91 205.317 268.919 205.114Z" fill="white"/>
<path d="M275.233 198.52C275.212 198.308 275.312 198.134 275.474 197.939C275.801 197.548 276.119 197.143 276.437 196.736C276.685 196.419 276.823 196.356 277.046 196.441C277.489 196.609 277.936 196.769 278.391 196.91C278.609 196.977 278.672 197.199 278.717 197.462C278.795 197.926 278.898 198.372 278.978 198.835C279.009 199.018 279.034 199.216 279.012 199.429C278.99 199.584 278.922 199.752 278.822 199.896C278.543 200.272 278.244 200.627 277.951 200.986C277.826 201.139 277.7 201.313 277.564 201.421C277.449 201.506 277.333 201.54 277.239 201.518C276.855 201.404 276.482 201.264 276.109 201.125C275.951 201.066 275.785 201.014 275.654 200.909C275.576 200.847 275.542 200.704 275.52 200.572C275.44 200.107 275.372 199.633 275.304 199.159C275.276 198.95 275.257 198.733 275.233 198.52Z" fill="white"/>
</g>
</g>
<path d="M179.803 277.56C179.713 276.659 179.385 275.797 178.853 275.065L179.085 274.701L177.084 273.763H177.046C175.277 273.182 172.852 273.763 170.296 275.53C165.6 278.846 162.248 285.138 162.812 289.57C162.907 290.583 163.311 291.541 163.97 292.313C163.969 292.331 163.969 292.35 163.97 292.368C164.828 293.206 165.895 293.795 167.06 294.072L167.369 293.569C169.169 293.372 170.882 292.683 172.319 291.577C177.015 288.307 180.328 282.023 179.803 277.56Z" fill="#969BC2"/>
<path d="M181.323 278.335C181.887 282.767 178.535 289.059 173.839 292.375C169.143 295.692 164.88 294.793 164.324 290.361C163.768 285.928 167.112 279.637 171.808 276.32C176.504 273.004 180.759 273.879 181.323 278.335Z" fill="#9EA2CB"/>
<path d="M180.389 279.544C180.837 283.069 178.172 288.067 174.434 290.717C170.696 293.367 167.306 292.639 166.858 289.113C166.41 285.587 169.074 280.59 172.812 277.94C176.55 275.29 179.941 276.01 180.389 279.544Z" fill="#B4C5E1"/>
<path d="M176.999 282.31C177.215 284.022 175.925 286.44 174.118 287.734C172.311 289.028 170.666 288.664 170.449 286.959C170.233 285.254 171.523 282.829 173.33 281.535C175.137 280.241 176.783 280.597 176.999 282.31Z" fill="#9EA2CB"/>
<path d="M176.12 282.93C176.282 284.177 175.347 285.952 174.011 286.889C172.675 287.827 171.486 287.571 171.331 286.324C171.177 285.076 172.104 283.302 173.44 282.364C174.776 281.427 175.965 281.682 176.12 282.93Z" fill="#B4C5E1"/>
<path d="M162.171 287.633C162.08 286.732 161.752 285.871 161.221 285.138L161.452 284.774L159.475 283.836H159.437C157.668 283.255 155.243 283.836 152.686 285.603C147.991 288.92 144.639 295.211 145.203 299.644C145.297 300.656 145.702 301.614 146.361 302.387C146.36 302.405 146.36 302.423 146.361 302.441C147.218 303.279 148.286 303.868 149.45 304.146L149.759 303.642C151.56 303.445 153.272 302.756 154.71 301.65C159.382 298.357 162.734 292.073 162.171 287.633Z" fill="#969BC2"/>
<path d="M163.694 288.362C164.258 292.794 160.906 299.086 156.21 302.402C151.515 305.718 147.251 304.82 146.695 300.387C146.139 295.955 149.483 289.663 154.179 286.347C158.875 283.031 163.138 283.929 163.694 288.362Z" fill="#9EA2CB"/>
<path d="M162.76 289.594C163.208 293.119 160.543 298.117 156.805 300.767C153.067 303.417 149.677 302.689 149.229 299.163C148.781 295.637 151.445 290.64 155.183 287.99C158.922 285.34 162.312 286.083 162.76 289.594Z" fill="#B4C5E1"/>
<path d="M159.376 292.36C159.592 294.072 158.302 296.49 156.495 297.784C154.688 299.078 153.043 298.714 152.826 297.009C152.61 295.304 153.9 292.879 155.707 291.585C157.514 290.291 159.159 290.647 159.376 292.36Z" fill="#9EA2CB"/>
<path d="M177.772 278.56L153.822 293.096V299.938L159.638 296.412L160.781 293.832L172.096 286.959L172.937 288.362L177.772 285.425V278.56Z" fill="#BDCCE5"/>
<path d="M230.637 248.52C230.547 247.618 230.219 246.757 229.687 246.025L229.919 245.661L227.918 244.723H227.88C226.111 244.142 223.686 244.723 221.13 246.49C216.434 249.806 213.082 256.098 213.646 260.53C213.741 261.543 214.145 262.501 214.804 263.273C214.803 263.291 214.803 263.309 214.804 263.328C215.662 264.166 216.729 264.755 217.894 265.032L218.203 264.529C220.003 264.332 221.716 263.643 223.153 262.537C227.849 259.267 231.162 252.983 230.637 248.52Z" fill="#969BC2"/>
<path d="M232.161 249.295C232.725 253.727 229.373 260.019 224.677 263.335C219.981 266.652 215.718 265.753 215.162 261.321C214.606 256.888 217.95 250.597 222.646 247.28C227.342 243.964 231.597 244.839 232.161 249.295Z" fill="#9EA2CB"/>
<path d="M231.225 250.504C231.673 254.029 229.008 259.027 225.27 261.677C221.532 264.327 218.142 263.599 217.694 260.073C217.246 256.548 219.91 251.55 223.648 248.9C227.386 246.25 230.777 246.97 231.225 250.504Z" fill="#B4C5E1"/>
<path d="M227.835 253.27C228.051 254.982 226.761 257.4 224.954 258.694C223.147 259.988 221.502 259.624 221.285 257.919C221.069 256.214 222.359 253.789 224.166 252.495C225.973 251.201 227.618 251.557 227.835 253.27Z" fill="#9EA2CB"/>
<path d="M226.954 253.89C227.116 255.137 226.181 256.912 224.845 257.849C223.509 258.787 222.32 258.531 222.165 257.284C222.011 256.036 222.938 254.262 224.274 253.324C225.61 252.387 226.799 252.642 226.954 253.89Z" fill="#B4C5E1"/>
<path d="M213.005 258.593C212.914 257.692 212.586 256.831 212.055 256.098L212.286 255.734L210.309 254.796H210.27C208.502 254.215 206.077 254.796 203.52 256.563C198.825 259.88 195.473 266.171 196.036 270.604C196.131 271.616 196.536 272.574 197.195 273.347C197.194 273.365 197.194 273.383 197.195 273.401C198.052 274.239 199.12 274.828 200.284 275.105L200.593 274.602C202.394 274.405 204.106 273.716 205.544 272.61C210.216 269.317 213.568 263.033 213.005 258.593Z" fill="#969BC2"/>
<path d="M214.528 259.322C215.092 263.754 211.74 270.046 207.044 273.362C202.348 276.678 198.085 275.78 197.529 271.347C196.973 266.915 200.317 260.623 205.013 257.307C209.709 253.991 213.972 254.889 214.528 259.322Z" fill="#9EA2CB"/>
<path d="M213.594 260.554C214.042 264.079 211.377 269.077 207.639 271.727C203.901 274.377 200.511 273.649 200.063 270.123C199.615 266.598 202.279 261.6 206.017 258.95C209.756 256.3 213.146 257.044 213.594 260.554Z" fill="#B4C5E1"/>
<path d="M210.21 263.32C210.426 265.032 209.136 267.45 207.329 268.744C205.522 270.038 203.877 269.674 203.66 267.969C203.444 266.264 204.734 263.839 206.541 262.545C208.348 261.251 209.993 261.608 210.21 263.32Z" fill="#9EA2CB"/>
<path d="M228.608 249.52L204.658 264.056V270.898L210.474 267.372L211.617 264.792L222.931 257.919L223.773 259.322L228.608 256.385V249.52Z" fill="#BDCCE5"/>
<path d="M121.24 309.284L121.474 321.341L125.105 318.921V312.425L237.06 246.926V242.691L121.24 309.284Z" fill="#A9B8DA"/>
<path d="M121.414 306.56L83.3496 284.682V254.616L121.328 276.624L121.414 306.56Z" fill="#E2EBF7"/>
<path d="M121.328 276.624L83.3496 254.616L93.5176 232.998L131.496 255.006L121.328 276.624Z" fill="#E2EBF7"/>
<path d="M104.295 263.801L112.03 247.338L128.672 256.956L120.937 273.418L104.295 263.801Z" fill="white"/>
<path d="M85.6094 253.057L93.344 236.594L110.03 246.212L102.295 262.674L85.6094 253.057Z" fill="white"/>
<path d="M234.035 241.481V195.732L131.497 255.006L121.329 276.668V306.604L130.555 301.291L130.553 301.376L234.035 241.481Z" fill="#B4C5E1"/>
<path d="M93.4727 233.042L196.371 173.932L215.273 175.535L112.375 234.645L93.4727 233.042Z" fill="#DFEAFC"/>
<path d="M112.375 234.645L214.914 175.7L234.033 196.105L131.494 255.05L112.375 234.645Z" fill="#CBD7EA"/>
<path d="M112.375 234.645L131.494 255.05L112.375 238.284L93.4727 233.042L112.375 234.645Z" fill="#B4C5E1"/>
<path d="M131.498 255.05L93.4336 233.128L93.8247 233.172L94.2157 233.258L112.379 238.284L131.498 255.05Z" fill="#E2EBF7"/>
<g style="mix-blend-mode:multiply" opacity="0.5">
<path d="M131.494 255.05L111.288 240.84L93.8203 233.172L94.2114 233.258L112.375 238.284L131.494 255.05Z" fill="#E2EBF7"/>
</g>
<path d="M111.848 236.339C112.57 236.8 113.119 237.485 113.412 238.288C113.89 239.588 113.412 240.671 112.761 240.714C112.437 240.724 112.118 240.633 111.848 240.454C111.126 239.993 110.577 239.308 110.284 238.505C109.806 237.205 110.284 236.122 110.935 236.036C111.264 236.039 111.583 236.145 111.848 236.339Z" fill="white"/>
<path d="M126.803 274.502L136.884 268.696C137.174 268.529 137.415 268.289 137.583 268.001C137.751 267.712 137.84 267.384 137.84 267.05V256.003C137.827 255.883 137.778 255.769 137.699 255.677C137.621 255.585 137.517 255.518 137.4 255.486C137.283 255.453 137.159 255.456 137.044 255.494C136.929 255.532 136.828 255.604 136.754 255.699L125.891 273.808C125.799 273.929 125.758 274.081 125.779 274.232C125.799 274.382 125.878 274.518 125.999 274.61C126.12 274.702 126.273 274.742 126.424 274.722C126.575 274.701 126.711 274.622 126.803 274.502Z" fill="white"/>
<path d="M214.418 247.883L213.462 247.32L213.332 214.611L214.288 215.175L214.418 247.883Z" fill="#A9B8DA"/>
<path d="M214.288 215.175L213.332 214.611L220.285 210.626L221.24 211.189L214.288 215.175Z" fill="#CBD7EA"/>
<path d="M221.24 211.189L221.326 243.898L214.417 247.883L214.287 215.175L221.24 211.189Z" fill="#B4C5E1"/>
<path d="M195.057 258.773L194.101 258.21L193.971 225.501L194.927 226.065L195.057 258.773Z" fill="#A9B8DA"/>
<path d="M194.927 226.065L193.971 225.501L200.923 221.516L201.879 222.079L194.927 226.065Z" fill="#CBD7EA"/>
<path d="M201.878 222.079L201.965 254.787L195.056 258.773L194.926 226.065L201.878 222.079Z" fill="#B4C5E1"/>
<path d="M175.692 269.663L174.736 269.1L174.605 236.391L175.561 236.955L175.692 269.663Z" fill="#A9B8DA"/>
<path d="M175.561 236.955L174.605 236.391L181.558 232.406L182.514 232.969L175.561 236.955Z" fill="#CBD7EA"/>
<path d="M182.511 232.969L182.598 265.678L175.689 269.663L175.559 236.955L182.511 232.969Z" fill="#B4C5E1"/>
<path d="M103.564 287.843V286.471L102.367 287.172V288.573L103.564 287.843Z" fill="#A9B8DA"/>
<path d="M91.8848 282.383V281.098L102.338 287.171V288.515L91.8848 282.383Z" fill="white"/>
<path d="M103.594 286.471L93.0239 280.427L91.8268 281.098L102.367 287.23L103.594 286.471Z" fill="#CBD7EA"/>
<path d="M103.564 283.514V282.142L102.367 282.842V284.244L103.564 283.514Z" fill="#A9B8DA"/>
<path d="M91.8848 278.054V276.769L102.338 282.842V284.185L91.8848 278.054Z" fill="white"/>
<path d="M103.594 282.141L93.0239 276.097L91.8268 276.769L102.367 282.901L103.594 282.141Z" fill="#CBD7EA"/>
<path d="M118.45 310.985L120.871 312.46V309.04L118.45 307.566V310.985Z" fill="#E2EBF7"/>
<path d="M121.475 321.341L80.9297 297.746V285.646L121.475 309.241V321.341Z" fill="#E2EBF7"/>
<path d="M80.9313 285.904L83.3376 284.452L121.479 306.355L234.038 241.604L236.951 243.055L121.479 309.449L80.9313 285.904Z" fill="#CBD7EA"/>
</g>
</g>
</g>
<defs>
<filter id="filter0_f_1094_32178" x="54" y="182" width="400" height="270.5" filterUnits="userSpaceOnUse" color-interpolation-filters="sRGB">
<feFlood flood-opacity="0" result="BackgroundImageFix"/>
<feBlend mode="normal" in="SourceGraphic" in2="BackgroundImageFix" result="shape"/>
<feGaussianBlur stdDeviation="2" result="effect1_foregroundBlur_1094_32178"/>
</filter>
<filter id="filter1_f_1094_32178" x="0" y="180" width="402.5" height="239.5" filterUnits="userSpaceOnUse" color-interpolation-filters="sRGB">
<feFlood flood-opacity="0" result="BackgroundImageFix"/>
<feBlend mode="normal" in="SourceGraphic" in2="BackgroundImageFix" result="shape"/>
<feGaussianBlur stdDeviation="1.5" result="effect1_foregroundBlur_1094_32178"/>
</filter>
<filter id="filter2_f_1094_32178" x="86.7434" y="-14.956" width="676.568" height="389.095" filterUnits="userSpaceOnUse" color-interpolation-filters="sRGB">
<feFlood flood-opacity="0" result="BackgroundImageFix"/>
<feBlend mode="normal" in="SourceGraphic" in2="BackgroundImageFix" result="shape"/>
<feGaussianBlur stdDeviation="1.21032" result="effect1_foregroundBlur_1094_32178"/>
</filter>
<linearGradient id="paint0_linear_1094_32178" x1="295.5" y1="456.5" x2="189.789" y2="252.092" gradientUnits="userSpaceOnUse">
<stop offset="0.0519332" stop-color="#0E3390" stop-opacity="0"/>
<stop offset="0.965203" stop-color="#0E3390"/>
</linearGradient>
<linearGradient id="paint1_linear_1094_32178" x1="292.497" y1="290.673" x2="257.932" y2="229.003" gradientUnits="userSpaceOnUse">
<stop stop-color="#0E3390" stop-opacity="0"/>
<stop offset="1" stop-color="#0E3390" stop-opacity="0.79"/>
</linearGradient>
<clipPath id="clip0_1094_32178">
<rect width="402" height="417" fill="white" transform="translate(3)"/>
</clipPath>
<clipPath id="clip1_1094_32178">
<rect width="610" height="551.905" fill="white" transform="translate(-5 -154)"/>
</clipPath>
<clipPath id="clip2_1094_32178">
<rect width="139.186" height="118.586" fill="white" transform="matrix(-1 0 0 1 455.6 55.3849)"/>
</clipPath>
<clipPath id="clip3_1094_32178">
<rect width="59.6323" height="14.0513" fill="white" transform="matrix(0.865865 -0.500278 0 1 377.352 132.46)"/>
</clipPath>
<clipPath id="clip4_1094_32178">
<rect width="139.186" height="118.586" fill="white" transform="matrix(-1 0 0 1 344.359 119.492)"/>
</clipPath>
<clipPath id="clip5_1094_32178">
<rect width="59.6323" height="14.0513" fill="white" transform="matrix(0.865865 -0.500278 0 1 266.111 196.567)"/>
</clipPath>
</defs>
</svg>
