<svg width="1544" height="340" viewBox="0 0 1544 340" fill="none" xmlns="http://www.w3.org/2000/svg">
<path d="M1498.72 20.9877L1498.72 21.4877L1498.86 21.4877L1498.98 21.4201L1498.72 20.9877ZM1815.56 -166.022C1814.28 -165.285 1813.85 -163.654 1814.58 -162.379C1815.32 -161.104 1816.95 -160.667 1818.22 -161.403C1819.5 -162.139 1819.94 -163.77 1819.2 -165.046C1818.46 -166.321 1816.83 -166.758 1815.56 -166.022ZM1430.53 20.9877L1430.53 20.4877L1430.4 20.4877L1430.28 20.5539L1430.53 20.9877ZM1270.03 113.005L1269.78 112.571L1269.53 112.715L1269.53 113.005L1270.03 113.005ZM1270.03 182.027L1270.28 182.462L1270.53 182.318L1270.53 182.027L1270.03 182.027ZM894.695 348.218C893.42 348.954 892.983 350.585 893.719 351.86C894.455 353.136 896.086 353.573 897.362 352.836C898.637 352.1 899.074 350.469 898.338 349.194C897.601 347.918 895.97 347.481 894.695 348.218ZM1035.53 269.027L1035.53 268.527L1035.39 268.527L1035.28 268.595L1035.53 269.027ZM1117.03 269.027L1117.03 269.527L1117.16 269.527L1117.28 269.462L1117.03 269.027ZM1816.64 -164.145L1498.47 20.5553L1498.98 21.4201L1817.14 -163.28L1816.64 -164.145ZM1498.72 20.4877L1430.53 20.4877L1430.53 21.4877L1498.72 21.4877L1498.72 20.4877ZM1430.28 20.5539L1269.78 112.571L1270.28 113.439L1430.78 21.4214L1430.28 20.5539ZM1269.53 113.005L1269.53 182.027L1270.53 182.027L1270.53 113.005L1269.53 113.005ZM1269.78 181.592L1116.78 268.592L1117.28 269.462L1270.28 182.462L1269.78 181.592ZM1117.03 268.527L1035.53 268.527L1035.53 269.527L1117.03 269.527L1117.03 268.527ZM1035.28 268.595L895.776 350.095L896.281 350.959L1035.78 269.459L1035.28 268.595Z" fill="#3F3CC1"/>
<path d="M1261.5 220.027L1261.75 220.458L1262 220.313V220.027H1261.5ZM1177.33 268.027C1177.33 269.5 1178.53 270.694 1180 270.694C1181.47 270.694 1182.67 269.5 1182.67 268.027C1182.67 266.554 1181.47 265.36 1180 265.36C1178.53 265.36 1177.33 266.554 1177.33 268.027ZM1261 106V220.027H1262V106H1261ZM1261.25 219.596L1179.75 267.596L1180.25 268.458L1261.75 220.458L1261.25 219.596Z" fill="#3F3CC1"/>
<path d="M770.667 238.543C769.391 239.279 768.954 240.91 769.691 242.185C770.427 243.461 772.058 243.898 773.333 243.161C774.609 242.425 775.046 240.794 774.309 239.519C773.573 238.243 771.942 237.806 770.667 238.543ZM1611.08 -237.224C1609.81 -236.487 1609.37 -234.857 1610.11 -233.581C1610.84 -232.306 1612.47 -231.869 1613.75 -232.605C1615.02 -233.341 1615.46 -234.972 1614.72 -236.248C1613.99 -237.523 1612.36 -237.96 1611.08 -237.224ZM1612.17 -235.35L771.754 240.417L772.246 241.287L1612.66 -234.479L1612.17 -235.35Z" fill="#3F3CC1"/>
<path d="M1153.7 337.718C1152.42 338.454 1151.98 340.085 1152.72 341.36C1153.46 342.636 1155.09 343.073 1156.36 342.336C1157.64 341.6 1158.08 339.969 1157.34 338.694C1156.6 337.418 1154.97 336.981 1153.7 337.718ZM1663.7 -4.7823C1662.42 -4.04592 1661.98 -2.41501 1662.72 -1.13957C1663.46 0.13588 1665.09 0.57288 1666.36 -0.163499C1667.64 -0.899879 1668.08 -2.53079 1667.34 -3.80623C1666.6 -5.08168 1664.97 -5.51868 1663.7 -4.7823ZM1455.03 119.027L1454.78 118.594L1454.53 118.739L1454.53 119.027L1455.03 119.027ZM1455.03 164.027L1455.28 164.458L1455.53 164.313L1455.53 164.027L1455.03 164.027ZM1454.53 119.027L1454.53 164.027L1455.53 164.027L1455.53 119.027L1454.53 119.027ZM1454.78 163.596L1154.78 339.596L1155.28 340.458L1455.28 164.458L1454.78 163.596ZM1664.78 -2.90568L1454.78 118.594L1455.28 119.46L1665.28 -2.04012L1664.78 -2.90568Z" fill="#3F3CC1"/>
<path d="M846.473 320.191C845.198 320.927 844.761 322.558 845.497 323.833C846.234 325.109 847.865 325.546 849.14 324.809C850.415 324.073 850.852 322.442 850.116 321.167C849.38 319.891 847.749 319.454 846.473 320.191ZM1356.47 -22.3094C1355.2 -21.573 1354.76 -19.9421 1355.5 -18.6667C1356.23 -17.3912 1357.86 -16.9542 1359.14 -17.6906C1360.42 -18.427 1360.85 -20.0579 1360.12 -21.3333C1359.38 -22.6088 1357.75 -23.0458 1356.47 -22.3094ZM1147.81 101.5L1147.56 101.067L1147.31 101.212L1147.31 101.5L1147.81 101.5ZM1147.81 146.5L1148.06 146.931L1148.31 146.786L1148.31 146.5L1147.81 146.5ZM1147.31 101.5L1147.31 146.5L1148.31 146.5L1148.31 101.5L1147.31 101.5ZM1147.55 146.069L847.554 322.069L848.06 322.931L1148.06 146.931L1147.55 146.069ZM1357.56 -20.4328L1147.56 101.067L1148.06 101.933L1358.06 -19.5672L1357.56 -20.4328Z" fill="#3F3CC1"/>
<path d="M657.354 337.697C656.079 338.433 655.642 340.064 656.378 341.339C657.114 342.615 658.745 343.052 660.021 342.315C661.296 341.579 661.733 339.948 660.997 338.673C660.26 337.397 658.63 336.96 657.354 337.697ZM853.066 110.724L852.827 110.284L852.566 110.426L852.566 110.724L853.066 110.724ZM853.066 227.089L853.317 227.521L853.566 227.377L853.566 227.089L853.066 227.089ZM1170.35 -61.4943L1170.35 -61.9943L1170.22 -61.9943L1170.11 -61.9338L1170.35 -61.4943ZM852.566 110.724L852.566 227.089L853.566 227.089L853.566 110.724L852.566 110.724ZM852.815 226.657L658.436 339.574L658.939 340.438L853.317 227.521L852.815 226.657ZM1330.35 -61.9942L1170.35 -61.9943L1170.35 -60.9943L1330.35 -60.9942L1330.35 -61.9942ZM1170.11 -61.9338L852.827 110.284L853.304 111.163L1170.59 -61.0549L1170.11 -61.9338Z" fill="#3F3CC1"/>
<path d="M1153.47 441.191C1152.2 441.927 1151.76 443.558 1152.5 444.833C1153.23 446.109 1154.86 446.546 1156.14 445.809C1157.42 445.073 1157.85 443.442 1157.12 442.167C1156.38 440.891 1154.75 440.454 1153.47 441.191ZM1663.47 98.6906C1662.2 99.427 1661.76 101.058 1662.5 102.333C1663.23 103.609 1664.86 104.046 1666.14 103.309C1667.42 102.573 1667.85 100.942 1667.12 99.6667C1666.38 98.3912 1664.75 97.9542 1663.47 98.6906ZM1454.81 222.5L1454.56 222.067L1454.31 222.212L1454.31 222.5L1454.81 222.5ZM1454.81 267.5L1455.06 267.931L1455.31 267.786L1455.31 267.5L1454.81 267.5ZM1454.31 222.5L1454.31 267.5L1455.31 267.5L1455.31 222.5L1454.31 222.5ZM1454.55 267.069L1154.55 443.069L1155.06 443.931L1455.06 267.931L1454.55 267.069ZM1664.56 100.567L1454.56 222.067L1455.06 222.933L1665.06 101.433L1664.56 100.567Z" fill="#3F3CC1"/>
</svg>
