<svg width="250" height="212" viewBox="0 0 250 212" fill="none" xmlns="http://www.w3.org/2000/svg">
<g clip-path="url(#clip0_1856_36625)">
<path d="M200.3 0L198.461 0.825564L195.602 1.52972L192.662 3.18085L191.176 3.6341L189.811 6.12698L189.128 6.67736L189.032 7.98045L189.787 7.87523L191.281 8.00473L191.506 8.98408L191.98 9.75299L191.883 11.7602L190.438 13.5004L189.385 17.3368L188.92 19.3603L188.205 21.5051L189.008 22.7759L188.325 24.1842L186.807 24.5484L185.153 26.5071L183.86 27.4541L181.707 27.3407L179.466 26.4504L177.699 32.0837L177.948 32.974L177.418 33.7186L177.185 36.082L176.206 36.948L176.977 38.5992L178.125 39.4409L178.968 38.494L182.093 37.8384L183.771 38.6235L184.815 36.6729L187.466 36.1872L189.032 37.1504L190.164 37.2961L190.887 38.3887L193.233 39.797L194.51 42.2899L193.674 43.2774L192.213 43.6254L190.333 43.156L189.57 43.5606L188.398 43.3502L186.141 45.1551L185.064 44.9366L184.679 46.0616L182.84 46.3044L181.49 47.6723L180.784 49.3882L180.792 50.497L178.711 52.7066L174.8 53.257L174.069 54.6491L171.154 57.5143L167.122 57.3362L166.198 56.5673L163.829 56.4945L162.287 60.7356L164.985 64.0055L164.094 64.7258L163.331 65.5757L161.403 66.6522L158.616 70.4239L154.874 72.4068L149.83 72.8439L148.207 73.2648L146.143 72.9815L145.348 73.6695L143.075 74.2765L139.525 76.1219L135.871 78.4691L134.69 78.0967L133.871 76.9555L132.216 77.4007L127.671 76.1785L124.217 75.3125L122.779 73.5723L115.591 72.3987L111.696 73.0705L107.431 72.2935L103.793 71.994L100.186 71.0956L98.1865 68.4085L96.805 63.7465L95.9778 63.2042L95.9938 62.1035L94.0743 61.6017L90.6849 59.1654L88.669 57.2472L81.6253 56.2193L79.77 55.2157L78.3644 54.9324L77.6898 54.1635L77.8745 52.3181L79.4567 50.1247L79.1114 48.425L79.786 47.5752L79.9065 46.2154L78.4448 43.3988L78.0512 41.0516L76.734 39.0848L76.0112 39.2467L74.6297 37.7817L73.8908 38.0164L72.8226 38.0083L72.2925 37.2799L71.4412 35.3941L69.618 34.1557L69.6421 33.4435L68.7988 31.9866L69.2245 31.331L69.1602 30.2626L67.9715 30.554L66.7427 30.0198L65.2729 30.2707L65.0882 31.4605L64.5019 32.8526L62.5903 33.6944L60.7672 33.3868L59.3054 36.7781L59.5062 39.449L59.1127 40.8412L57.4421 41.1568L55.8599 41.9338L55.2334 41.1973L54.117 40.5983L52.6231 40.5093L49.1856 38.5506L48.6716 39.8456L45.9087 44.5967L44.5514 47.4376L45.6517 48.5302L44.9047 50.0276L43.9891 49.3963L42.5113 49.4205L41.4833 48.0931L38.6802 48.595H34.9295L34.0058 49.372L36.0619 50.6103L35.5399 51.4521L34.8813 54.0825L35.58 57.5224L35.2909 58.5827L35.4435 59.7482L33.9898 60.161L33.9175 61.2131L32.4477 61.7959L32.3513 63.0585L31.7891 65.6566L30.6727 65.2924L29.717 65.8833L27.428 66.2718L23.7896 67.3482L21.7657 69.1127L19.043 68.8213L16.6576 67.9067L14.746 70.0354L13.3807 71.0795L12.2482 70.6586L10.9069 70.78L10.3367 68.8213L8.88296 69.3717L7.15617 68.7323L7.06782 69.3636L4.75471 70.1244L3.31706 69.8816L2.29704 70.7719L1.99987 72.7953L0.754972 73.0301L0.273075 74.1146L0.754972 75.7334L0 76.1219L0.345359 78.4852L1.66254 77.8135L4.27282 79.497L3.63832 81.1481L3.83911 82.3217L3.63029 85.0493L3.65438 86.3848L0.730877 86.4171L0.682687 87.2589L2.20869 88.2787L4.02384 88.7239L4.47361 90.1241L5.79079 90.6583L6.15221 92.9083L5.67032 94.349L6.42529 96.0487L7.58987 96.2834L9.22029 98.1531L12.8827 99.8852L13.1156 99.8771L13.1237 99.8933L13.3244 99.869L13.7501 99.8609L13.9348 100.217L13.6296 100.743L13.4851 101.204L13.7742 102.297L13.8063 102.71L13.7582 103.276L13.9348 103.689L13.9991 104.361L13.9348 104.733L14.1999 105.324L14.7139 105.551L15.5733 105.931L15.9508 106.401L16.1275 106.765L16.6174 107.056L16.8102 107.404L16.6977 108.019L16.3845 108.303L15.3645 108.465L15.252 109.007L15.2842 109.541L15.3484 110.116L15.2681 110.553L15.0111 111.508L15.1878 112.228L15.1717 112.325L15.236 112.398L15.252 112.471L15.3805 112.601V112.584L16.6415 114.106L16.6335 114.171L16.1998 113.976L16.0632 114.357L15.8624 114.608L15.7901 114.842L15.9187 115.061L16.1275 115.15L16.272 115.652L16.1355 115.984L15.9668 116.089L16.0873 116.34L16.0954 116.575L15.9267 116.963L15.9909 117.19L15.7661 117.473L15.7098 117.837L16.015 117.789L16.2801 117.651L16.264 117.789L13.9027 118.258L13.4851 116.906L12.1679 116.655L11.9269 118.234L12.6899 120.257L12.6257 120.451L12.5293 120.209L12.0073 119.553L11.7502 118.865L11.421 118.962L11.445 119.407L11.6539 119.351L11.9671 119.885L12.3205 120.476L12.4169 120.978L12.457 120.929L12.3526 121.22L12.4249 122.256L12.1197 123.252L12.1036 123.908L12.5855 124.385L12.4811 124.417L12.714 124.903L12.7301 125.364L12.8666 125.656L13.6296 125.971H13.967L14.1838 125.988L15.1557 126.951L16.8102 127.388L17.6455 128.691L17.4286 128.44L17.3804 128.812L17.3563 129.063L17.6214 129.168L17.8543 129.468L18.0631 129.33L18.1755 129.508L19.9827 131.216L21.2918 132.681L21.846 133.83L24.5205 132.017L24.8257 132.973L26.0064 133.814L28.3837 135.49L29.4359 137.003L31.3634 138.541L31.8373 140.637L33.0822 141.819L34.1424 140.435L35.0821 140.977L34.801 143.341L38.0056 145.413L39.4111 145.275L39.2746 146.117L39.5396 147.323L40.9853 147.638L42.672 148.763L43.1137 150.083L43.8606 149.306L44.6638 150.204L45.3545 150.52L46.5673 149.767L49.1776 151.944L50.6473 151.71L51.4425 152.284L56.2614 151.192L57.4019 151.831L57.4341 152.762L56.7032 154.381L56.9843 155.311L57.4421 155.255L58.9681 153.62L60.7993 152.074L63.3935 150.876L64.8874 151.386L66.4696 152.98L69.4333 153.369L71.3287 154.712L70.879 155.692L71.128 156.42L71.6259 156.938L72.7905 156.995L73.1841 157.416L73.1278 157.917L72.654 158.525L72.67 159.075L72.9672 159.31L73.1278 159.9L73.0796 160.119L74.0675 160.151L75.0634 159.965L75.8345 159.714L76.5332 160.249L77.4087 160.281L78.3002 160.475L79.1756 160.362L79.6093 160.443L79.8583 160.37L80.9426 160.168L81.545 160.014L81.7457 159.148L82.5328 158.403L83.2316 157.982L83.9705 157.181L84.9986 156.987L86.7575 156.622L87.5285 156.137L88.171 155.975L88.7092 155.651L89.2473 155.449L89.5685 154.542L92.5081 153.628L92.6687 153.992L93.0864 154.267L93.8012 154.259L94.251 154.073L94.5803 154.623L94.9497 154.68L95.0622 154.559L95.9697 155.295L96.9817 156.137L97.7046 156.42L98.058 156.825L98.0901 157.173L99.849 156.024L99.9936 155.538L99.8329 154.89L99.9936 154.381L99.8329 154.372L100.724 153.345L101.664 153.013L102.347 153.846L103.359 154.292L103.897 156.161L104.997 158.606L105.511 157.958L106.676 158.695L106.467 160.694L106.684 161.568L106.563 165.542L105.792 167.169L106.057 168.439L105.23 168.804L104.363 170.018L103.568 170.05L103.15 171.24L101.552 171.879L101.11 173.377L101.271 174L100.427 174.283L100.034 174.939L100.202 176.234L100.628 176.711L100.829 177.82L100.138 178.961L100.291 179.609L101.648 179.139L102.403 178.362L104.78 178.2L105.399 178.589L106.716 178.451L105.792 179.763L106.475 180.79L106.909 183.615L107.824 184.425L109.864 184.449L110.081 185.185L109.126 186.626L109.326 187.743L108.523 188.811L108.266 189.888L109.19 190.293L109.704 190.187L112.378 190.827L112.218 192.146L112.973 192.947L113.72 194.469L114.378 193.797L115.583 194.307L116.86 193.247L118.233 192.761L119.43 195.861L120.659 195.634L121.823 195.918L122.064 193.239L120.86 189.961L121.647 188.455L122.321 188.763L124.121 188.674L125.108 187.921L125.871 186.788L127.558 187.63L128.16 188.399L128.682 188.439L130.457 186.529L131.309 187.743L131.975 186.561L133.606 188.188L134.056 187.104L134.875 186.286L135.566 186.934L136.425 186.513L138.24 185.809L138.296 184.716L140.762 183.041L142.087 184.327L144.015 185.372L145.244 184.967L146.071 185.768L147.091 185.339L148.569 185.89L148.601 186.691L147.661 187.444L147.573 188.318L147.99 188.73L148.456 190.552L150.006 190.948L150.834 191.919L152.745 192.704L154.48 192.219L155.412 192.834L156.271 192.494L156.408 192.615H156.93L157.187 192.033L157.901 191.83V190.592L158.616 190.398L158.809 191.183L159.46 192.033L159.845 191.636L160.56 192.033L161.275 192.227L161.54 193.271L161.99 192.947L163.548 192.615L163.291 191.507L163.612 191.442L164.391 192.421L165.885 192.551L165.564 193.142L164.849 194.25L164.584 196.347L165.299 196.541L165.427 198.046L166.535 198.637L166.206 198.896L166.407 199.552L168.351 199.487L169.258 198.572L169.322 198.176L168.415 197.261L168.222 196.347L167.507 196.088L167.25 195.238L167.829 194.647L168.744 193.991L169.387 193.927L170.302 192.68L171.338 192.615L171.788 192.033L173.218 191.96L173.676 191.571H174.519L175.362 190.98V190.398L176.141 190.131L176.728 189.807H177.571H178.607L178.8 189.216L179.772 189.475L180.88 188.69H181.916L181.812 187.16L182.061 186.61L182.928 187.743L183.836 186.561L183.506 185.736L184.229 186.432L184.615 186.359L184.864 185.881L184.799 185.412L184.438 184.457L184.342 183.55L184.125 183.202L184.317 182.676L184.84 183.202L185.41 183.146L185.659 183.769L186.269 184.336L186.984 184.295L186.719 185.226L187.369 185.161L187.803 185.274L188.526 185.412L188.381 184.943L188.904 184.611L188.084 183.915L188.952 183.567L189.699 183.915L189.771 182.935L190.679 182.482L190.807 183.461L191.65 183.397L192.044 182.741L192.951 181.891L193.731 181.826L194.052 182.021L194.116 182.612H194.831L195.032 181.503L195.289 181.171L196.325 181.762L197.297 181.041L197.883 180.912L198.662 180.321L199.899 180.127L200.027 178.751L201.063 178.298L200.678 177.642L200.156 177.44L201.65 177.31L202.622 176.857L202.099 176.396L202.557 175.74L203.465 175.805L203.658 174.89L204.372 175.02L204.115 173.846L205.087 174.105V172.996H205.802L206.324 172.146L206.838 171.62L206.517 170.965L205.931 170.447L206.967 170.252L207.424 169.597L208.203 169.2H209.304L209.633 168.747L209.89 168.156L209.368 167.832L209.175 167.306L210.541 167.241L210.798 166.78L210.412 166.06L210.926 165.607L211.448 165.145L212.035 164.951L211.448 164.231L211.577 163.51L212.035 162.992L212.749 163.446L213.328 163.575L213.464 163.122L212.878 162.272L213.464 161.349L213.135 160.766L213.263 160.176L212.878 159.52L213.199 158.476L213.657 157.885L213.392 157.432L212.42 156.582L212.621 155.862L213.464 155.991L213.721 156.315L213.914 155.271L214.757 154.68L215.151 154.356L215.215 153.442L215.729 152.916L215.279 152.592H215.93L216.645 151.604L216.572 150.625L216.645 150.034L217.094 148.731L217.488 147.816L217.938 147.485L218.066 145.914L218.845 145.591L219.046 146.902L219.753 145.914L220.604 145.332L220.082 144.215L219.624 143.43L220.339 142.774V141.859L221.054 140.88L220.797 140.095L221.247 139.706L220.99 138.719L220.861 137.149L220.404 138.266L219.689 138.331L220.604 137.084L221.705 136.234L222.612 135.781L222.484 135.125L221.054 134.535L220.468 134.729L220.082 135.652L219.432 135.911L218.588 135.32L217.424 134.405L216.444 134.535L215.215 135.652L214.565 135.911L213.392 135.716L212.356 135.449L212.163 135.125L213.006 134.664L214.372 134.535L215.151 134.276L215.215 133.49L216.837 132.179L218.002 131.329L218.845 130.285L219.046 129.241L218.131 128.456L216.773 127.93L215.729 127.339L215.215 126.756L214.171 126.554L212.942 126.36L212.814 125.64L211.842 125.445L210.798 125.971L210.412 126.101L210.862 125.381L211.705 124.984L212.942 125.113L213.392 125.769L214.107 126.036H215.344L216.251 126.166L217.159 126.684L218.331 126.886L218.91 126.756L219.11 126.36L218.396 125.381L217.03 124.134L215.801 123.81L215.344 122.499L214.171 122.046L212.878 121.714L212.42 121.39L212.621 120.54L212.292 119.691L210.733 117.4L209.762 115.765L208.525 113.41L207.882 112.754L206.188 112.228L204.702 111.775L204.115 111.119L202.686 110.86L202.557 109.679L203.208 109.031L203.336 107.914L203.722 107.323L204.244 106.02L205.087 105.753L205.28 105.106L205.674 104.053L206.324 103.471L205.609 102.686L205.995 102.289L206.645 102.621L207.489 102.75L208.203 102.03L208.139 100.46L208.525 99.7395L209.111 99.61L210.284 98.6306L211.127 98.0398L212.227 97.1899L212.878 96.3401L213.593 96.4696L213.914 96.1458L214.629 96.7933L215.472 96.1458L215.151 95.2879L215.408 94.6404L215.344 93.4587L214.5 93.135L213.785 93.5235L212.942 93.135L211.641 93.653L210.605 94.1791L210.019 93.9201L209.569 93.394L208.983 93.5235L207.882 92.8031L207.039 92.4146L205.995 92.8031L204.894 93.653L204.702 94.7052L203.529 95.7493L203.336 96.8581L202.493 97.7808L200.678 97.5784L199.312 97.0604L199.12 94.5757L198.276 93.653L197.04 93.3292L196.26 92.7384L195.546 93.0055L194.702 93.5235L193.923 92.8679L192.887 92.018L192.172 90.6502L192.044 88.9505L192.494 87.8335L193.538 87.1132L194.116 86.9837L195.032 87.445L195.674 87.1132L196.068 86.66H196.975L197.361 86.3929L197.69 86.5305L197.883 85.2193L198.204 84.0376L198.919 82.864L199.57 82.4755V81.8846L200.935 81.0348L202.493 79.8531L203.272 79.3351L203.336 78.0239L204.308 76.648L204.702 76.2595L204.83 75.4096L205.674 74.8835L206.967 74.8188L207.882 74.2927L208.661 74.495L209.954 75.7981L210.669 76.3242L210.219 77.3683L209.762 78.4124L209.44 79.3998L208.396 80.1849L207.946 80.7029L207.882 82.0141L207.296 82.3379L208.203 82.864L208.726 83.3253L209.633 83.0582L209.24 84.1752L209.111 84.8227L208.396 85.2193L208.139 85.7454L207.553 85.8101L207.296 86.7895L207.681 87.2427L208.726 86.3929L209.633 85.3488L210.669 84.6284L211.255 83.9728L211.705 82.9287L213.657 81.1643L215.014 80.0393L215.665 79.9745L215.954 79.3351L217.143 79.1166L217.673 78.5824L219.07 78.4529L219.962 77.9106L220.307 76.2271L222.693 73.2081L225.479 70.8285L227.311 67.7124L227.447 65.6809L228.893 64.6611L230.636 65.8913L234.379 65.3895L234.483 64.3859L233.118 62.8562L233.35 62.0063L235.31 61.5045L237.157 60.2743L237.439 58.5827L238.828 58.2104L238.957 54.7948L240.161 54.6005L241.013 55.9198L242.225 56.1384L241.711 55.5475L242.177 54.7543L243.422 53.8478L244.033 50.7317L243.374 50.0195L242.956 47.0814L240.515 42.8241L241.84 42.1847L243.157 39.449L244.169 39.8375L248.121 39.5138L247.92 37.0614L248.651 36.171L248.851 32.9254L249.325 31.8247L248.86 30.3031L248.988 29.2671L248.835 26.6042L248.611 25.6734L248.972 24.7912L249.655 24.2246L250 22.703L248.811 21.3756L248.795 19.6759L247.566 19.1418L245.583 20.6148L244.555 22.0393L243.551 22.2255L242.466 23.0591L241.631 25.0988L239.077 26.2643L237.294 26.41L236.097 27.0413L233.937 25.2849L234.258 23.9575L232.804 22.4602L232.467 20.8495L231.118 21.319L227.439 19.1013L226.275 19.6679L224.122 18.6804L222.749 19.5707L220.998 19.6679L219.424 18.0977L219.167 16.3818L218.235 15.9933L217.906 14.1317L215.568 11.7036L215.472 10.5786L213.103 7.60814L212.661 6.02176L211.601 4.52442L210.38 3.56126L209.802 2.53335L206.404 0.825564L204.967 1.47307L200.3 0ZM223.166 162.515L222.845 163.017L222.982 163.575L221.881 163.988L221.102 164.635L220.733 165.469L220.596 166.489L220.002 167.136L219.584 168.666L219.126 170.001L218.444 171.62L218.074 172.964L217.938 174.396L218.026 175.74L218.396 176.339L218.942 177.173L219.448 178.654L220.09 179.528L220.869 179.852L221.608 180.038L222.203 180.823L222.572 181.794V182.353L222.797 182.49L223.399 182.304L223.536 181.058L223.263 179.9L223.584 178.379L224.5 176.897L225.006 175.141L225.279 173.474L225.463 168.706L225.648 167.274L225.873 166.902V165.93L225.552 165.566L225.279 164.821L225.736 164.085L225.921 163.664L225.6 163.3L224.684 163.065H224.267L223.809 162.515H223.166ZM171.395 199.884L170.158 200.434L169.057 200.758L167.363 200.992L167.13 201.405L166.303 201.591L164.969 201.365L164.648 201.405L164.19 201.64V202.101L163.829 202.287L162.817 202.239L162.263 202.611V203.162L162.905 203.21L162.544 203.809L161.853 203.995L159.877 205.387L159.556 206.075L159.741 206.723L159.508 207.33L159.741 208.576L160.062 209.361L160.247 210.47L161.62 211.077L162.72 211.579L164.287 211.49L164.833 212L165.981 211.814V210.891L166.897 210.656L167.724 210.608L167.772 210.106L168.688 208.949H169.242L169.836 208.665L170.021 207.468L170.254 205.849L170.937 204.368L171.628 203.396L172.27 202.838L172.134 201.964L171.764 200.944V200.021L171.395 199.884Z" fill="#2B298F"/>
<path d="M109.905 117.11C109.333 117.11 108.801 116.974 108.31 116.703C107.819 116.432 107.419 116.01 107.111 115.438C106.81 114.859 106.66 114.114 106.66 113.205V112.985C106.66 112.325 106.748 111.757 106.924 111.28C107.1 110.803 107.338 110.411 107.639 110.103C107.94 109.795 108.284 109.568 108.673 109.421C109.069 109.267 109.48 109.19 109.905 109.19C110.323 109.19 110.704 109.245 111.049 109.355C111.401 109.465 111.709 109.623 111.973 109.828C112.237 110.033 112.45 110.286 112.611 110.587C112.78 110.888 112.886 111.229 112.93 111.61H111.83C111.727 111.111 111.511 110.737 111.181 110.488C110.851 110.239 110.426 110.114 109.905 110.114C109.546 110.114 109.201 110.206 108.871 110.389C108.541 110.572 108.273 110.877 108.068 111.302C107.863 111.72 107.76 112.281 107.76 112.985V113.205C107.76 113.762 107.822 114.232 107.947 114.613C108.079 114.994 108.251 115.302 108.464 115.537C108.677 115.764 108.908 115.929 109.157 116.032C109.414 116.135 109.663 116.186 109.905 116.186C110.477 116.186 110.924 116.047 111.247 115.768C111.57 115.489 111.764 115.13 111.83 114.69H112.93C112.871 115.115 112.754 115.482 112.578 115.79C112.402 116.098 112.178 116.351 111.907 116.549C111.643 116.74 111.339 116.883 110.994 116.978C110.657 117.066 110.294 117.11 109.905 117.11ZM114.577 117V109.3H115.611V112.589H119.703V109.3H120.737V117H119.703V113.491H115.611V117H114.577ZM123.044 117V109.3H124.078V117H123.044ZM126.393 117V109.3H127.405L131.541 115.295V109.3H132.553V117H131.541L127.405 111.005V117H126.393ZM133.87 117L136.818 109.3H137.852L140.8 117H139.678L138.941 115.086H135.685L134.948 117H133.87ZM136.026 114.184H138.6L137.313 110.62L136.026 114.184Z" fill="white"/>
</g>
<defs>
<clipPath id="clip0_1856_36625">
<rect width="250" height="212" fill="white"/>
</clipPath>
</defs>
</svg>
