<svg width="493" height="306" viewBox="0 0 493 306" fill="none" xmlns="http://www.w3.org/2000/svg">
<g clip-path="url(#clip0_1737_32039)">
<path d="M531.148 33.7554V36.9865L492.676 14.7346L492.737 11.5645L531.148 33.7554Z" fill="white"/>
<path d="M535.776 31.1337L531.149 33.7552L492.738 11.5643L497.304 8.88184L535.776 31.1337Z" fill="#DAE2F0"/>
<path d="M520.616 39.9121V43.0823L482.145 20.8914L482.205 17.7212L520.616 39.9121Z" fill="white"/>
<path d="M525.242 37.23L520.616 39.9124L482.205 17.7215L486.771 15.0391L525.242 37.23Z" fill="#DAE2F0"/>
<path d="M510.091 46.0698V49.2399L471.619 26.988L471.68 23.8179L510.091 46.0698Z" fill="white"/>
<path d="M514.711 43.3876L510.085 46.07L471.674 23.8181L476.239 21.1357L514.711 43.3876Z" fill="#DAE2F0"/>
<path d="M499.562 52.1665V55.3976L461.09 33.1457V29.9756L499.562 52.1665Z" fill="white"/>
<path d="M504.188 49.4839L499.562 52.1663L461.09 29.9754L465.716 27.293L504.188 49.4839Z" fill="#DAE2F0"/>
<path d="M493.591 55.6416V58.8118L489.025 61.4941V58.324L493.591 55.6416Z" fill="#BFCEE6"/>
<path d="M489.03 58.3237V61.4938L450.559 39.3029L450.619 36.0718L489.03 58.3237Z" fill="white"/>
<path d="M493.596 55.6416L489.03 58.324L450.619 36.0721L455.185 33.3896L493.596 55.6416Z" fill="#DAE2F0"/>
<path d="M483.06 61.7378V64.9689L478.494 67.6513V64.4202L483.06 61.7378Z" fill="#BFCEE6"/>
<path d="M478.491 64.4199V67.651L440.02 45.3991L440.08 42.229L478.491 64.4199Z" fill="white"/>
<path d="M483.057 61.7378L478.491 64.4202L440.08 42.2293L444.646 39.5469L483.057 61.7378Z" fill="#DAE2F0"/>
<path d="M472.589 67.8955L472.528 71.0656L467.963 73.7481V70.5779L472.589 67.8955Z" fill="#BFCEE6"/>
<path d="M467.96 70.5776V73.7477L429.488 51.5568V48.3257L467.96 70.5776Z" fill="white"/>
<path d="M472.586 67.8955L467.96 70.5779L429.488 48.326L434.115 45.6436L472.586 67.8955Z" fill="#DAE2F0"/>
<path d="M462.001 74.0522V77.2224L457.436 79.9048V76.6737L462.001 74.0522Z" fill="#BFCEE6"/>
<path d="M457.431 76.6739V79.905L418.959 57.6531V54.4829L457.431 76.6739Z" fill="white"/>
<path d="M461.996 74.0527L457.431 76.6741L418.959 54.4832L423.585 51.8008L461.996 74.0527Z" fill="#DAE2F0"/>
<path d="M451.466 80.1489V83.38L446.9 86.0015V82.8313L451.466 80.1489Z" fill="#BFCEE6"/>
<path d="M446.898 82.8315V86.0017L408.426 63.8107V60.5796L446.898 82.8315Z" fill="white"/>
<path d="M451.463 80.1489L446.898 82.8313L408.426 60.5794L413.052 57.958L451.463 80.1489Z" fill="#DAE2F0"/>
<path d="M440.935 86.3066V89.4768L436.369 92.1592V88.9891L440.935 86.3066Z" fill="#BFCEE6"/>
<path d="M436.366 88.9887V92.1588L397.895 69.907V66.7368L436.366 88.9887Z" fill="white"/>
<path d="M440.932 86.3061L436.366 88.9885L397.895 66.7366L402.521 64.0542L440.932 86.3061Z" fill="#DAE2F0"/>
<path d="M430.407 92.4023V95.6334L425.842 98.3159V95.0848L430.407 92.4023Z" fill="#BFCEE6"/>
<path d="M425.845 95.085V98.3161L387.373 76.0642V72.894L425.845 95.085Z" fill="white"/>
<path d="M430.41 92.4024L425.845 95.0848L387.373 72.8939L391.999 70.2114L430.41 92.4024Z" fill="#DAE2F0"/>
<path d="M419.876 98.5601V101.73L415.311 104.413V101.242L419.876 98.5601Z" fill="#BFCEE6"/>
<path d="M415.306 101.243V104.413L376.834 82.1608V78.9907L415.306 101.243Z" fill="white"/>
<path d="M419.871 98.56L415.306 101.242L376.834 78.9905L381.46 76.3081L419.871 98.56Z" fill="#DAE2F0"/>
<path d="M409.341 104.656V107.887L404.775 110.57V107.339L409.341 104.656Z" fill="#BFCEE6"/>
<path d="M404.78 107.339V110.57L366.309 88.3181V85.1479L404.78 107.339Z" fill="white"/>
<path d="M409.346 104.656L404.78 107.339L366.309 85.1478L370.935 82.4653L409.346 104.656Z" fill="#DAE2F0"/>
<path d="M398.817 110.814V113.984L394.252 116.666V113.496L398.817 110.814Z" fill="#BFCEE6"/>
<path d="M394.249 113.497V116.667L355.777 94.4757V91.2446L394.249 113.497Z" fill="white"/>
<path d="M398.815 110.814L394.249 113.496L355.777 91.2444L360.404 88.562L398.815 110.814Z" fill="#DAE2F0"/>
<path d="M388.283 116.91V120.141L383.656 122.824L383.717 119.593L388.283 116.91Z" fill="#BFCEE6"/>
<path d="M383.716 119.592L383.655 122.823L345.244 100.572V97.4014L383.716 119.592Z" fill="white"/>
<path d="M388.281 116.91L383.716 119.593L345.244 97.4016L349.87 94.7192L388.281 116.91Z" fill="#DAE2F0"/>
<path d="M377.755 123.068V126.238L373.189 128.92V125.75L377.755 123.068Z" fill="#BFCEE6"/>
<path d="M373.187 125.75V128.92L334.715 106.729V103.498L373.187 125.75Z" fill="white"/>
<path d="M377.752 123.068L373.187 125.75L334.715 103.498L339.341 100.816L377.752 123.068Z" fill="#DAE2F0"/>
<path d="M367.222 129.164V132.395L362.656 135.077V131.846L367.222 129.164Z" fill="#BFCEE6"/>
<path d="M362.661 131.846V135.077L324.189 112.825V109.655L362.661 131.846Z" fill="white"/>
<path d="M367.227 129.164L362.661 131.846L324.189 109.655L328.816 106.973L367.227 129.164Z" fill="#DAE2F0"/>
<path d="M356.691 135.321V138.491L352.064 141.174L352.125 138.004L356.691 135.321Z" fill="#BFCEE6"/>
<path d="M352.13 138.003L352.069 141.173L313.658 118.983V115.751L352.13 138.003Z" fill="white"/>
<path d="M356.695 135.321L352.13 138.004L313.658 115.752L318.285 113.069L356.695 135.321Z" fill="#DAE2F0"/>
<path d="M346.161 141.417V144.649L341.535 147.331L341.596 144.1L346.161 141.417Z" fill="#BFCEE6"/>
<path d="M341.595 144.1L341.534 147.331L303.123 125.079V121.909L341.595 144.1Z" fill="white"/>
<path d="M346.16 141.417L341.595 144.1L303.123 121.909L307.749 119.227L346.16 141.417Z" fill="#DAE2F0"/>
<path d="M335.626 147.575V150.745L331.061 153.427V150.257L335.626 147.575Z" fill="#BFCEE6"/>
<path d="M331.056 150.257V153.427L292.584 131.236V128.005L331.056 150.257Z" fill="white"/>
<path d="M335.621 147.575L331.056 150.257L292.584 128.005L297.21 125.384L335.621 147.575Z" fill="#DAE2F0"/>
<path d="M325.097 153.733V156.903L320.471 159.586L320.532 156.415L325.097 153.733Z" fill="#BFCEE6"/>
<path d="M320.53 156.415L320.47 159.585L282.059 137.333V134.163L320.53 156.415Z" fill="white"/>
<path d="M325.096 153.733L320.53 156.415L282.059 134.163L286.685 131.481L325.096 153.733Z" fill="#DAE2F0"/>
<path d="M314.56 159.829V163.06L309.934 165.742L309.994 162.511L314.56 159.829Z" fill="#BFCEE6"/>
<path d="M309.999 162.511L309.938 165.742L271.527 143.49V140.259L309.999 162.511Z" fill="white"/>
<path d="M314.565 159.829L309.999 162.511L271.527 140.259L276.154 137.638L314.565 159.829Z" fill="#DAE2F0"/>
<path d="M304.031 165.986V169.156L299.404 171.839L299.465 168.669L304.031 165.986Z" fill="#BFCEE6"/>
<path d="M299.47 168.668L299.409 171.839L260.998 149.587V146.417L299.47 168.668Z" fill="white"/>
<path d="M304.035 165.986L299.47 168.669L260.998 146.417L265.624 143.734L304.035 165.986Z" fill="#DAE2F0"/>
<path d="M293.499 172.083V175.314L288.873 177.996L288.934 174.765L293.499 172.083Z" fill="#BFCEE6"/>
<path d="M288.931 174.765L288.87 177.996L250.459 155.744V152.574L288.931 174.765Z" fill="white"/>
<path d="M293.496 172.083L288.931 174.765L250.459 152.574L255.085 149.892L293.496 172.083Z" fill="#DAE2F0"/>
<path d="M282.966 178.24V181.41L278.34 184.093V180.923L282.966 178.24Z" fill="#BFCEE6"/>
<path d="M278.344 180.922V184.093L239.934 161.902V158.67L278.344 180.922Z" fill="white"/>
<path d="M282.971 178.24L278.344 180.923L239.934 158.671L244.56 155.988L282.971 178.24Z" fill="#DAE2F0"/>
<path d="M272.441 184.336V187.568L267.814 190.25V187.019L272.441 184.336Z" fill="#BFCEE6"/>
<path d="M267.819 187.019V190.25L229.408 167.998V164.828L267.819 187.019Z" fill="white"/>
<path d="M272.445 184.336L267.819 187.019L229.408 164.828L234.035 162.146L272.445 184.336Z" fill="#DAE2F0"/>
<path d="M261.908 190.494V193.664L257.281 196.346V193.176L261.908 190.494Z" fill="#BFCEE6"/>
<path d="M257.28 193.176V196.346L218.869 174.155V170.924L257.28 193.176Z" fill="white"/>
<path d="M261.906 190.494L257.28 193.176L218.869 170.924L223.495 168.242L261.906 190.494Z" fill="#DAE2F0"/>
<path d="M251.372 196.651V199.821L246.746 202.504V199.273L251.372 196.651Z" fill="#BFCEE6"/>
<path d="M246.751 199.272V202.504L208.34 180.252V177.082L246.751 199.272Z" fill="white"/>
<path d="M251.377 196.651L246.751 199.273L208.34 177.082L212.966 174.399L251.377 196.651Z" fill="#DAE2F0"/>
<path d="M240.857 202.748V205.979L236.23 208.6V205.43L240.857 202.748Z" fill="#BFCEE6"/>
<path d="M236.227 205.43V208.6L197.816 186.409V183.178L236.227 205.43Z" fill="white"/>
<path d="M240.854 202.748L236.227 205.43L197.816 183.178L202.443 180.496L240.854 202.748Z" fill="#DAE2F0"/>
<path d="M230.316 208.844V212.075L225.689 214.758V211.527L230.316 208.844Z" fill="#BFCEE6"/>
<path d="M225.694 211.526V214.757L187.283 192.506V189.335L225.694 211.526Z" fill="white"/>
<path d="M230.32 208.844L225.694 211.527L187.283 189.336L191.849 186.653L230.32 208.844Z" fill="#DAE2F0"/>
<path d="M219.787 215.001V218.172L215.16 220.854V217.684L219.787 215.001Z" fill="#BFCEE6"/>
<path d="M215.165 217.684V220.854L176.754 198.663V195.493L215.165 217.684Z" fill="white"/>
<path d="M219.791 215.001L215.165 217.684L176.754 195.493L181.38 192.811L219.791 215.001Z" fill="#DAE2F0"/>
<path d="M209.253 221.159V224.329L204.627 227.011V223.841L209.253 221.159Z" fill="#BFCEE6"/>
<path d="M204.626 223.841V227.011L166.215 204.759V201.589L204.626 223.841Z" fill="white"/>
<path d="M209.252 221.159L204.626 223.841L166.215 201.589L170.841 198.907L209.252 221.159Z" fill="#DAE2F0"/>
<path d="M198.732 227.255V230.486L194.105 233.168V229.937L198.732 227.255Z" fill="#BFCEE6"/>
<path d="M194.102 229.938V233.169L155.691 210.917V207.747L194.102 229.938Z" fill="white"/>
<path d="M198.729 227.255L194.102 229.937L155.691 207.746L160.257 205.064L198.729 227.255Z" fill="#DAE2F0"/>
<path d="M188.191 233.412V236.582L183.564 239.265V236.095L188.191 233.412Z" fill="#BFCEE6"/>
<path d="M183.569 236.095V239.265L145.158 217.074V213.843L183.569 236.095Z" fill="white"/>
<path d="M188.195 233.412L183.569 236.095L145.158 213.843L149.724 211.16L188.195 233.412Z" fill="#DAE2F0"/>
<path d="M177.663 239.509V242.74L173.037 245.423V242.192L177.663 239.509Z" fill="#BFCEE6"/>
<path d="M173.034 242.192V245.423L134.623 223.171V220.001L173.034 242.192Z" fill="white"/>
<path d="M177.66 239.509L173.034 242.192L134.623 220.001L139.189 217.318L177.66 239.509Z" fill="#DAE2F0"/>
<path d="M167.136 245.667V248.837L162.51 251.519V248.349L167.136 245.667Z" fill="#BFCEE6"/>
<path d="M162.509 248.349V251.519L124.098 229.328V226.097L162.509 248.349Z" fill="white"/>
<path d="M167.135 245.666L162.509 248.349L124.098 226.097L128.663 223.415L167.135 245.666Z" fill="#DAE2F0"/>
<path d="M156.605 251.763V254.994L151.979 257.676V254.445L156.605 251.763Z" fill="#BFCEE6"/>
<path d="M151.969 254.445V257.676L113.559 235.424V232.254L151.969 254.445Z" fill="white"/>
<path d="M156.596 251.763L151.969 254.445L113.559 232.254L118.124 229.572L156.596 251.763Z" fill="#DAE2F0"/>
<path d="M146.064 257.92V261.09L141.438 263.773V260.603L146.064 257.92Z" fill="#BFCEE6"/>
<path d="M141.444 260.603V263.773L103.033 241.582V238.351L141.444 260.603Z" fill="white"/>
<path d="M146.07 257.92L141.444 260.603L103.033 238.351L107.599 235.668L146.07 257.92Z" fill="#DAE2F0"/>
<path d="M135.537 264.077V267.247L130.91 269.93V266.699L135.537 264.077Z" fill="#BFCEE6"/>
<path d="M130.915 266.699V269.93L92.5039 247.678V244.508L130.915 266.699Z" fill="white"/>
<path d="M135.541 264.078L130.915 266.699L92.5039 244.508L97.0694 241.826L135.541 264.078Z" fill="#DAE2F0"/>
<path d="M125.253 268.833L125.192 272.003L120.627 274.685V271.454L125.253 268.833Z" fill="#BFCEE6"/>
<path d="M120.622 271.454V274.685L82.1504 252.433L82.2113 249.263L120.622 271.454Z" fill="white"/>
<path d="M125.25 268.833L120.624 271.454L82.2129 249.263L86.7784 246.581L125.25 268.833Z" fill="#DAE2F0"/>
<path d="M114.718 274.929L114.657 278.16L110.092 280.781V277.611L114.718 274.929Z" fill="#BFCEE6"/>
<path d="M110.097 277.612V280.782L71.625 258.591L71.6859 255.36L110.097 277.612Z" fill="white"/>
<path d="M114.723 274.929L110.096 277.612L71.6855 255.36L76.251 252.677L114.723 274.929Z" fill="#DAE2F0"/>
<path d="M104.185 281.086L104.124 284.257L99.5586 286.939V283.708L104.185 281.086Z" fill="#BFCEE6"/>
<path d="M99.5636 283.708V286.939L61.0918 264.687L61.1527 261.517L99.5636 283.708Z" fill="white"/>
<path d="M104.19 281.087L99.5632 283.708L61.1523 261.517L65.7178 258.835L104.19 281.087Z" fill="#DAE2F0"/>
<path d="M93.6557 287.183L93.5948 290.414L89.0293 293.035V289.865L93.6557 287.183Z" fill="#BFCEE6"/>
<path d="M89.0265 289.865V293.035L50.5547 270.844V267.674L89.0265 289.865Z" fill="white"/>
<path d="M93.6528 287.183L89.0265 289.865L50.5547 267.674L55.181 264.992L93.6528 287.183Z" fill="#DAE2F0"/>
<path d="M83.0596 293.34V296.51L78.4941 299.193V296.023L83.0596 293.34Z" fill="#BFCEE6"/>
<path d="M78.4972 296.023V299.193L40.0254 277.002V273.771L78.4972 296.023Z" fill="white"/>
<path d="M83.0627 293.34L78.4972 296.023L40.0254 273.771L44.6517 271.088L83.0627 293.34Z" fill="#DAE2F0"/>
<path d="M72.5931 299.437L72.5323 302.668L67.9668 305.35V302.119L72.5931 299.437Z" fill="#BFCEE6"/>
<path d="M67.9718 302.119V305.35L29.5 283.098V279.928L67.9718 302.119Z" fill="white"/>
<path d="M72.5981 299.437L67.9718 302.119L29.5 279.928L34.1264 277.246L72.5981 299.437Z" fill="#DAE2F0"/>
<path d="M62.001 305.594V308.764L57.4355 311.447V308.277L62.001 305.594Z" fill="#BFCEE6"/>
<path d="M57.4327 308.276V311.446L18.9609 289.256V286.024L57.4327 308.276Z" fill="white"/>
<path d="M61.9982 305.594L57.4327 308.277L18.9609 286.025L23.5873 283.342L61.9982 305.594Z" fill="#DAE2F0"/>
<path d="M46.9074 314.373V317.604L8.43555 295.352V292.182L46.9074 314.373Z" fill="white"/>
<path d="M51.4728 311.69L46.9073 314.373L8.43555 292.182L13.0619 289.5L51.4728 311.69Z" fill="#DAE2F0"/>
<path d="M36.378 320.53V323.7L-2.09375 301.509V298.278L36.378 320.53Z" fill="white"/>
<path d="M40.9435 317.848L36.378 320.53L-2.09375 298.279L2.53261 295.596L40.9435 317.848Z" fill="#DAE2F0"/>
<path d="M25.839 326.627V329.858L-12.6328 307.606V304.436L25.839 326.627Z" fill="white"/>
<path d="M30.4045 323.944L25.839 326.627L-12.6328 304.436L-8.00646 301.753L30.4045 323.944Z" fill="#DAE2F0"/>
<path d="M1847.49 -732.134V-730L-107.469 402.406V400.272L1847.49 -732.134Z" fill="#BFCEE6"/>
<path d="M1849.27 -733.207L-107.468 400.27L-108.746 399.538L1847.99 -734L1849.27 -733.207Z" fill="#DAE2F0"/>
<path d="M1854.24 -770.134V-768L-100.721 364.406V362.272L1854.24 -770.134Z" fill="#BFCEE6"/>
<path d="M1856.02 -771.207L-100.72 362.27L-101.998 361.538L1854.74 -772L1856.02 -771.207Z" fill="#DAE2F0"/>
</g>
<defs>
<clipPath id="clip0_1737_32039">
<rect width="493" height="306" fill="white"/>
</clipPath>
</defs>
</svg>
