<svg width="1920" height="1080" viewBox="0 0 1920 1080" fill="none" xmlns="http://www.w3.org/2000/svg">
<g clip-path="url(#clip0_1875_36652)">
<g clip-path="url(#clip1_1875_36652)">
<rect width="1920" height="1752" fill="white"/>
<rect width="1920" height="1670" fill="white"/>
<g opacity="0.5">
<path d="M1148.93 790.117L1149.19 790.549L1149.43 790.404L1149.43 790.117L1148.93 790.117ZM1953.28 263.758C1952 264.495 1951.57 266.126 1952.3 267.401C1953.04 268.677 1954.67 269.114 1955.94 268.377C1957.22 267.641 1957.66 266.01 1956.92 264.735C1956.18 263.459 1954.55 263.022 1953.28 263.758ZM723.015 1038.41L722.763 1037.98L722.515 1038.12L722.515 1038.41L723.015 1038.41ZM416.165 1350.69C414.889 1351.43 414.452 1353.06 415.189 1354.33C415.925 1355.61 417.556 1356.05 418.831 1355.31C420.107 1354.57 420.544 1352.94 419.807 1351.67C419.071 1350.39 417.44 1349.95 416.165 1350.69ZM1347.21 522.511L1346.95 522.079L1346.95 522.079L1347.21 522.511ZM1148.93 638.31L1148.68 637.879L1148.43 638.023L1148.43 638.31L1148.93 638.31ZM1677.74 329.489L1677.74 328.989L1677.6 328.989L1677.49 329.057L1677.74 329.489ZM1841.41 329.489L1841.41 329.989L1841.54 329.989L1841.65 329.925L1841.41 329.489ZM723.015 1171.69L723.27 1172.12L723.515 1171.98L723.515 1171.69L723.015 1171.69ZM1148.68 789.685L722.763 1037.98L723.267 1038.84L1149.19 790.549L1148.68 789.685ZM1346.95 522.079L1148.68 637.879L1149.19 638.742L1347.46 522.943L1346.95 522.079ZM1148.43 638.31L1148.43 790.117L1149.43 790.117L1149.43 638.31L1148.43 638.31ZM1677.49 329.057L1346.95 522.079L1347.46 522.943L1677.99 329.921L1677.49 329.057ZM1954.37 265.632L1841.16 329.053L1841.65 329.925L1954.86 266.504L1954.37 265.632ZM1841.41 328.989L1677.74 328.989L1677.74 329.989L1841.41 329.989L1841.41 328.989ZM722.515 1038.41L722.515 1171.69L723.515 1171.69L723.515 1038.41L722.515 1038.41ZM722.76 1171.26L417.243 1352.57L417.753 1353.43L723.27 1172.12L722.76 1171.26Z" fill="#DCE4F1"/>
<path d="M46.4864 844.359H-63.989L-310.854 986.204V1016.89L-670.922 1223.52" stroke="#DCE4F1"/>
<path d="M1102.52 510.205L1102.77 510.637L1103.02 510.493L1103.02 510.205L1102.52 510.205ZM1959.41 -84.0344C1958.14 -83.298 1957.7 -81.6671 1958.44 -80.3916C1959.17 -79.1162 1960.8 -78.6792 1962.08 -79.4156C1963.36 -80.1519 1963.79 -81.7828 1963.06 -83.0583C1962.32 -84.3337 1960.69 -84.7707 1959.41 -84.0344ZM997.111 571.58L996.859 571.148L996.611 571.293L996.611 571.58L997.111 571.58ZM995.778 737.691C994.502 738.427 994.065 740.058 994.802 741.333C995.538 742.609 997.169 743.046 998.444 742.309C999.72 741.573 1000.16 739.942 999.42 738.667C998.684 737.391 997.053 736.954 995.778 737.691ZM1102.52 413.268L1102.27 412.835L1102.02 412.979L1102.02 413.268L1102.52 413.268ZM1102.26 509.773L996.859 571.148L997.363 572.013L1102.77 510.637L1102.26 509.773ZM996.611 571.58L996.611 740L997.611 740L997.611 571.58L996.611 571.58ZM1102.02 413.268L1102.02 510.205L1103.02 510.205L1103.02 413.268L1102.02 413.268ZM1960.5 -82.1581L1102.27 412.835L1102.77 413.701L1961 -81.2918L1960.5 -82.1581Z" fill="#DCE4F1"/>
<path d="M1488.16 637.047L1488.41 637.481L1488.66 637.338L1488.66 637.047L1488.16 637.047ZM1945.09 372.188C1943.82 372.924 1943.38 374.555 1944.12 375.83C1944.85 377.106 1946.48 377.543 1947.76 376.807C1949.04 376.07 1949.47 374.439 1948.74 373.164C1948 371.888 1946.37 371.451 1945.09 372.188ZM1325.17 729.792L1325.17 730.292L1325.31 730.292L1325.42 730.226L1325.17 729.792ZM369.796 1281.22C368.52 1281.96 368.083 1283.59 368.82 1284.87C369.556 1286.14 371.187 1286.58 372.463 1285.84C373.738 1285.11 374.175 1283.47 373.439 1282.2C372.702 1280.92 371.071 1280.49 369.796 1281.22ZM915.323 970.519L915.572 970.952L915.823 970.808L915.823 970.519L915.323 970.519ZM1624.55 497.248L1624.55 496.748L1624.42 496.748L1624.3 496.813L1624.55 497.248ZM1736.39 497.248L1736.39 497.748L1736.52 497.748L1736.64 497.679L1736.39 497.248ZM1488.16 574.99L1487.91 574.555L1487.66 574.699L1487.66 574.99L1488.16 574.99ZM1104.22 729.792L1104.22 729.292L1104.09 729.292L1103.97 729.361L1104.22 729.792ZM915.323 840.949L915.069 840.518L914.823 840.663L914.823 840.949L915.323 840.949ZM1487.91 636.612L1324.93 729.357L1325.42 730.226L1488.41 637.481L1487.91 636.612ZM915.074 970.085L370.88 1283.1L371.379 1283.97L915.572 970.952L915.074 970.085ZM1946.17 374.065L1736.13 496.816L1736.64 497.679L1946.68 374.929L1946.17 374.065ZM1736.39 496.748L1624.55 496.748L1624.55 497.748L1736.39 497.748L1736.39 496.748ZM1624.3 496.813L1487.91 574.555L1488.41 575.424L1624.8 497.682L1624.3 496.813ZM1487.66 574.99L1487.66 637.047L1488.66 637.047L1488.66 574.99L1487.66 574.99ZM1325.17 729.292L1104.22 729.292L1104.22 730.292L1325.17 730.292L1325.17 729.292ZM914.823 840.949L914.823 970.519L915.823 970.519L915.823 840.949L914.823 840.949ZM1103.97 729.361L915.069 840.518L915.577 841.38L1104.48 730.222L1103.97 729.361Z" fill="#DCE4F1"/>
<path d="M637.835 1006.69C636.559 1007.43 636.122 1009.06 636.859 1010.34C637.595 1011.61 639.226 1012.05 640.501 1011.31C641.777 1010.58 642.214 1008.94 641.478 1007.67C640.741 1006.39 639.11 1005.96 637.835 1006.69ZM776.921 960.584L776.921 961.084L777.053 961.084L777.169 961.018L776.921 960.584ZM722.365 960.584L722.365 960.084L722.23 960.084L722.114 960.152L722.365 960.584ZM915.253 881.066L776.673 960.149L777.169 961.018L915.748 881.934L915.253 881.066ZM776.921 960.084L722.365 960.084L722.365 961.084L776.921 961.084L776.921 960.084ZM722.114 960.152L638.917 1008.57L639.42 1009.43L722.617 961.016L722.114 960.152Z" fill="#DCE4F1"/>
<path d="M1763.26 830.666L1763.26 831.166L1763.39 831.166L1763.51 831.099L1763.26 830.666ZM2195.87 576.446C2194.59 577.182 2194.16 578.813 2194.89 580.088C2195.63 581.364 2197.26 581.801 2198.53 581.064C2199.81 580.328 2200.25 578.697 2199.51 577.422C2198.77 576.146 2197.14 575.709 2195.87 576.446ZM1670.25 830.666L1670.25 830.166L1670.11 830.166L1670 830.232L1670.25 830.666ZM1451.34 956.168L1451.09 955.734L1450.84 955.878L1450.84 956.168L1451.34 956.168ZM1451.34 1050.31L1451.59 1050.74L1451.84 1050.6L1451.84 1050.31L1451.34 1050.31ZM801.167 1357.69C799.891 1358.43 799.454 1360.06 800.191 1361.33C800.927 1362.61 802.558 1363.05 803.833 1362.31C805.109 1361.57 805.546 1359.94 804.809 1358.67C804.073 1357.39 802.442 1356.95 801.167 1357.69ZM1131.5 1168.97L1131.5 1168.47L1131.37 1168.47L1131.25 1168.53L1131.5 1168.97ZM1242.66 1168.97L1242.66 1169.47L1242.79 1169.47L1242.91 1169.4L1242.66 1168.97ZM2196.95 578.323L1763 830.234L1763.51 831.099L2197.45 579.187L2196.95 578.323ZM1763.26 830.166L1670.25 830.166L1670.25 831.166L1763.26 831.166L1763.26 830.166ZM1670 830.232L1451.09 955.734L1451.59 956.602L1670.5 831.1L1670 830.232ZM1450.84 956.168L1450.84 1050.31L1451.84 1050.31L1451.84 956.168L1450.84 956.168ZM1451.09 1049.87L1242.41 1168.53L1242.91 1169.4L1451.59 1050.74L1451.09 1049.87ZM1242.66 1168.47L1131.5 1168.47L1131.5 1169.47L1242.66 1169.47L1242.66 1168.47ZM1131.25 1168.53L802.249 1359.57L802.751 1360.43L1131.76 1169.4L1131.25 1168.53Z" fill="#DCE4F1"/>
<path d="M1531.76 1065.99L1532.01 1066.42L1532.26 1066.28V1065.99H1531.76ZM1417.93 1131.46C1417.93 1132.93 1419.13 1134.13 1420.6 1134.13C1422.07 1134.13 1423.27 1132.93 1423.27 1131.46C1423.27 1129.99 1422.07 1128.79 1420.6 1128.79C1419.13 1128.79 1417.93 1129.99 1417.93 1131.46ZM1531.26 817.081V1065.99H1532.26V817.081H1531.26ZM1531.51 1065.56L1420.35 1131.03L1420.86 1131.89L1532.01 1066.42L1531.51 1065.56Z" fill="#DCE4F1"/>
<path d="M1010.04 932.749C1008.77 933.485 1008.33 935.116 1009.07 936.391C1009.8 937.667 1011.44 938.104 1012.71 937.367C1013.99 936.631 1014.42 935 1013.69 933.725C1012.95 932.449 1011.32 932.012 1010.04 932.749ZM1276.49 637.722L1276.24 637.29L1275.99 637.435L1275.99 637.722L1276.49 637.722ZM1276.49 781.051L1276.74 781.484L1276.99 781.339L1276.99 781.051L1276.49 781.051ZM1705.7 387.454L1705.7 386.954L1705.56 386.954L1705.45 387.022L1705.7 387.454ZM1275.99 637.722L1275.99 781.051L1276.99 781.051L1276.99 637.722L1275.99 637.722ZM1276.24 780.619L1011.13 934.626L1011.63 935.49L1276.74 781.484L1276.24 780.619ZM1923.92 386.954L1705.7 386.954L1705.7 387.954L1923.92 387.954L1923.92 386.954ZM1705.45 387.022L1276.24 637.29L1276.74 638.154L1705.95 387.886L1705.45 387.022Z" fill="#DCE4F1"/>
<path d="M664.666 1264.69C663.39 1265.43 662.953 1267.06 663.69 1268.33C664.426 1269.61 666.057 1270.05 667.332 1269.31C668.608 1268.57 669.045 1266.94 668.308 1265.67C667.572 1264.39 665.941 1263.95 664.666 1264.69ZM2021.05 532.337C2019.77 533.073 2019.33 534.704 2020.07 535.98C2020.81 537.255 2022.44 537.692 2023.71 536.956C2024.99 536.219 2025.42 534.589 2024.69 533.313C2023.95 532.038 2022.32 531.601 2021.05 532.337ZM967.377 1145.19L967.377 1145.69L967.511 1145.69L967.627 1145.63L967.377 1145.19ZM878.274 1145.19L878.274 1144.69L878.14 1144.69L878.025 1144.76L878.274 1145.19ZM967.377 1144.69L878.274 1144.69L878.274 1145.69L967.377 1145.69L967.377 1144.69ZM878.025 1144.76L665.75 1266.57L666.248 1267.43L878.522 1145.63L878.025 1144.76ZM2022.13 534.214L967.126 1144.76L967.627 1145.63L2022.63 535.079L2022.13 534.214Z" fill="#DCE4F1"/>
<path d="M923.141 1065.88C921.866 1066.62 921.429 1068.25 922.165 1069.52C922.902 1070.8 924.533 1071.24 925.808 1070.5C927.083 1069.76 927.52 1068.13 926.784 1066.86C926.048 1065.58 924.417 1065.14 923.141 1065.88ZM1937.44 479.535C1936.16 480.272 1935.73 481.903 1936.46 483.178C1937.2 484.454 1938.83 484.891 1940.11 484.154C1941.38 483.418 1941.82 481.787 1941.08 480.511C1940.35 479.236 1938.72 478.799 1937.44 479.535ZM1938.52 481.412L924.224 1067.76L924.725 1068.62L1939.02 482.278L1938.52 481.412Z" fill="#DCE4F1"/>
<path d="M270.233 839.322C268.957 840.058 268.52 841.689 269.257 842.965C269.993 844.24 271.624 844.677 272.899 843.941C274.175 843.204 274.612 841.573 273.875 840.298C273.139 839.023 271.508 838.586 270.233 839.322ZM1272.01 165.559C1270.74 166.295 1270.3 167.926 1271.04 169.201C1271.77 170.477 1273.4 170.914 1274.68 170.177C1275.96 169.441 1276.39 167.81 1275.66 166.535C1274.92 165.259 1273.29 164.822 1272.01 165.559ZM928.281 524.526L928.528 524.961L928.781 524.817L928.781 524.526L928.281 524.526ZM701.875 652.732L701.875 653.232L702.006 653.232L702.121 653.167L701.875 652.732ZM596.935 652.732L596.935 652.232L596.801 652.232L596.684 652.3L596.935 652.732ZM928.281 365.632L928.033 365.198L927.781 365.342L927.781 365.632L928.281 365.632ZM928.035 524.091L701.628 652.297L702.121 653.167L928.528 524.961L928.035 524.091ZM701.875 652.232L596.935 652.232L596.935 653.232L701.875 653.232L701.875 652.232ZM596.684 652.3L271.315 841.199L271.817 842.064L597.186 653.164L596.684 652.3ZM1273.1 167.434L928.033 365.198L928.53 366.066L1273.6 168.302L1273.1 167.434ZM927.781 365.632L927.781 524.526L928.781 524.526L928.781 365.632L927.781 365.632Z" fill="#DCE4F1"/>
<path d="M408.64 826.628L408.889 827.062L409.14 826.918V826.628H408.64ZM134.498 983.476V983.976H134.631L134.746 983.91L134.498 983.476ZM26.068 983.476V982.976H25.935L25.8195 983.042L26.068 983.476ZM-140.948 1077.58C-140.948 1079.06 -139.754 1080.25 -138.281 1080.25C-136.808 1080.25 -135.615 1079.06 -135.615 1077.58C-135.615 1076.11 -136.808 1074.92 -138.281 1074.92C-139.754 1074.92 -140.948 1076.11 -140.948 1077.58ZM408.14 762.525V826.628H409.14V762.525H408.14ZM408.392 826.194L134.249 983.042L134.746 983.91L408.889 827.062L408.392 826.194ZM134.498 982.976H26.068V983.976H134.498V982.976ZM25.8195 983.042L-138.53 1077.15L-138.033 1078.02L26.3165 983.91L25.8195 983.042Z" fill="#DCE4F1"/>
<path d="M415.587 525.929L415.334 525.498L415.087 525.643L415.087 525.929L415.587 525.929ZM1156.26 61.9421C1154.98 62.6784 1154.54 64.3094 1155.28 65.5848C1156.02 66.8602 1157.65 67.2972 1158.92 66.5609C1160.2 65.8245 1160.64 64.1936 1159.9 62.9181C1159.16 61.6427 1157.53 61.2057 1156.26 61.9421ZM914.134 300.887L914.387 301.319L914.634 301.174L914.634 300.887L914.134 300.887ZM713.678 418.182L713.662 418.682L713.806 418.686L713.931 418.613L713.678 418.182ZM605.168 414.772L605.184 414.272L605.04 414.268L604.915 414.341L605.168 414.772ZM415.587 588.669L415.838 589.101L416.087 588.957L416.087 588.669L415.587 588.669ZM248.54 682.514C247.265 683.25 246.828 684.881 247.564 686.157C248.3 687.432 249.931 687.869 251.207 687.133C252.482 686.396 252.919 684.765 252.183 683.49C251.446 682.214 249.816 681.777 248.54 682.514ZM914.134 205.415L913.883 204.982L913.634 205.126L913.634 205.415L914.134 205.415ZM913.882 300.456L713.426 417.75L713.931 418.613L914.387 301.319L913.882 300.456ZM713.694 417.682L605.184 414.272L605.152 415.272L713.662 418.682L713.694 417.682ZM604.915 414.341L415.334 525.498L415.84 526.361L605.421 415.203L604.915 414.341ZM415.087 525.929L415.087 588.669L416.087 588.669L416.087 525.929L415.087 525.929ZM415.336 588.236L249.622 684.391L250.124 685.256L415.838 589.101L415.336 588.236ZM1157.34 63.8189L913.883 204.982L914.385 205.847L1157.84 64.684L1157.34 63.8189ZM913.634 205.415L913.634 300.887L914.634 300.887L914.634 205.415L913.634 205.415Z" fill="#DCE4F1"/>
<path d="M26.0253 743.431L26.2741 743.865L26.5254 743.721L26.5254 743.431L26.0253 743.431ZM377.339 -96.3094C376.063 -95.573 375.626 -93.9421 376.362 -92.6667C377.099 -91.3912 378.73 -90.9542 380.005 -91.6906C381.281 -92.427 381.718 -94.0579 380.981 -95.3333C380.245 -96.6088 378.614 -97.0458 377.339 -96.3094ZM378.672 444.738L378.928 445.168L379.172 445.023L379.172 444.738L378.672 444.738ZM269.56 509.523L269.808 509.958L269.816 509.953L269.56 509.523ZM26.0254 647.958L25.7782 647.524L25.5253 647.668L25.5253 647.958L26.0254 647.958ZM-220.158 884.594L-220.158 885.094L-220.025 885.094L-219.909 885.028L-220.158 884.594ZM-579.513 1026.18C-580.789 1026.91 -581.225 1028.54 -580.489 1029.82C-579.753 1031.09 -578.122 1031.53 -576.846 1030.79C-575.571 1030.06 -575.134 1028.43 -575.87 1027.15C-576.607 1025.88 -578.238 1025.44 -579.513 1026.18ZM-329.269 884.594L-329.269 884.094L-329.403 884.094L-329.519 884.161L-329.269 884.594ZM378.172 -94L378.172 444.738L379.172 444.738L379.172 -94L378.172 -94ZM378.417 444.308L269.305 509.093L269.816 509.953L378.928 445.168L378.417 444.308ZM269.313 509.088L25.7782 647.524L26.2725 648.393L269.807 509.958L269.313 509.088ZM25.5253 647.958L25.5254 743.431L26.5254 743.431L26.5253 647.958L25.5253 647.958ZM25.7766 742.997L-220.407 884.16L-219.909 885.028L26.2741 743.865L25.7766 742.997ZM-220.158 884.094L-329.269 884.094L-329.269 885.094L-220.158 885.094L-220.158 884.094ZM-329.519 884.161L-578.43 1028.05L-577.93 1028.92L-329.019 885.027L-329.519 884.161Z" fill="#DCE4F1"/>
<path d="M-198.332 636.365L-198.332 636.865L-198.198 636.865L-198.081 636.798L-198.332 636.365ZM-7.29525 429.735L-7.54678 429.303L-7.79526 429.448L-7.79525 429.735L-7.29525 429.735ZM-7.29523 525.208L-7.04377 525.64L-6.79522 525.495L-6.79522 525.208L-7.29523 525.208ZM-419.283 636.365L-419.283 635.865L-419.42 635.865L-419.537 635.935L-419.283 636.365ZM-856.369 952.525C-857.644 953.262 -858.081 954.892 -857.345 956.168C-856.608 957.443 -854.977 957.88 -853.702 957.144C-852.427 956.408 -851.99 954.777 -852.726 953.501C-853.462 952.226 -855.093 951.789 -856.369 952.525ZM-555.673 716.835L-555.927 716.404L-556.173 716.55L-556.173 716.835L-555.673 716.835ZM-555.673 779.574L-555.42 780.006L-555.173 779.861L-555.173 779.574L-555.673 779.574ZM-7.79525 429.735L-7.79523 525.208L-6.79522 525.208L-6.79525 429.735L-7.79525 429.735ZM-7.5467 524.776L-198.584 635.933L-198.081 636.798L-7.04377 525.64L-7.5467 524.776ZM-198.332 635.865L-419.283 635.865L-419.283 636.865L-198.332 636.865L-198.332 635.865ZM-419.537 635.935L-555.927 716.404L-555.419 717.266L-419.029 636.796L-419.537 635.935ZM-556.173 716.835L-556.173 779.574L-555.173 779.574L-555.173 716.835L-556.173 716.835ZM-555.925 779.143L-855.288 954.403L-854.783 955.266L-555.42 780.006L-555.925 779.143ZM379.065 204.261L-7.54678 429.303L-7.04372 430.168L379.568 205.125L379.065 204.261Z" fill="#DCE4F1"/>
<path d="M1209.04 1352.69C1207.77 1353.43 1207.33 1355.06 1208.07 1356.33C1208.8 1357.61 1210.43 1358.05 1211.71 1357.31C1212.99 1356.57 1213.42 1354.94 1212.69 1353.67C1211.95 1352.39 1210.32 1351.95 1209.04 1352.69ZM2103.66 806.691C2102.39 807.427 2101.95 809.058 2102.69 810.333C2103.43 811.609 2105.06 812.046 2106.33 811.309C2107.61 810.573 2108.04 808.942 2107.31 807.667C2106.57 806.391 2104.94 805.954 2103.66 806.691ZM1619.55 1082.71L1619.3 1082.28L1619.05 1082.42L1619.05 1082.71L1619.55 1082.71ZM1619.55 1114.95L1619.8 1115.39L1620.05 1115.24L1620.05 1114.95L1619.55 1114.95ZM1619.05 1082.71L1619.05 1114.95L1620.05 1114.95L1620.05 1082.71L1619.05 1082.71ZM1619.29 1114.52L1210.12 1354.57L1210.63 1355.43L1619.8 1115.39L1619.29 1114.52ZM2104.75 808.564L1619.3 1082.28L1619.79 1083.15L2105.24 809.436L2104.75 808.564Z" fill="#DCE4F1"/>
<path d="M160.373 509.523V509.023H160.242L160.128 509.087L160.373 509.523ZM-33.9206 617.271C-33.9206 618.743 -32.7267 619.937 -31.2539 619.937C-29.7811 619.937 -28.5872 618.743 -28.5872 617.271C-28.5872 615.798 -29.7811 614.604 -31.2539 614.604C-32.7267 614.604 -33.9206 615.798 -33.9206 617.271ZM272.213 509.023H160.373V510.023H272.213V509.023ZM160.128 509.087L-31.499 616.835L-31.0088 617.706L160.618 509.959L160.128 509.087Z" fill="#DCE4F1"/>
<path d="M-330.53 462.469C-330.53 463.942 -329.336 465.136 -327.863 465.136C-326.391 465.136 -325.197 463.942 -325.197 462.469C-325.197 460.996 -326.391 459.802 -327.863 459.802C-329.336 459.802 -330.53 460.996 -330.53 462.469ZM-327.615 462.903L13.3585 267.866L12.862 266.998L-328.112 462.035L-327.615 462.903Z" fill="#DCE4F1"/>
<path d="M452.032 1094.03L452.279 1094.46L452.532 1094.32V1094.03H452.032ZM395.431 1126.08V1126.58H395.562L395.677 1126.52L395.431 1126.08ZM341.557 1126.08V1125.58H341.425L341.311 1125.64L341.557 1126.08ZM255.693 1173.13C255.693 1174.61 256.887 1175.8 258.359 1175.8C259.832 1175.8 261.026 1174.61 261.026 1173.13C261.026 1171.66 259.832 1170.47 258.359 1170.47C256.887 1170.47 255.693 1171.66 255.693 1173.13ZM451.532 1001.97V1094.03H452.532V1001.97H451.532ZM451.786 1093.59L395.184 1125.65L395.677 1126.52L452.279 1094.46L451.786 1093.59ZM395.431 1125.58H341.557V1126.58H395.431V1125.58ZM341.311 1125.64L258.113 1172.7L258.606 1173.57L341.803 1126.52L341.311 1125.64Z" fill="#DCE4F1"/>
</g>
<path d="M991.029 707.06V710.291L986.402 712.974V709.743L991.029 707.06Z" fill="#BFCEE6"/>
<path d="M986.403 709.743V712.974L947.992 690.722V687.552L986.403 709.743Z" fill="white"/>
<path d="M991.03 707.06L986.403 709.743L947.992 687.552L952.558 684.869L991.03 707.06Z" fill="#DAE2F0"/>
<path d="M1002.35 700.537V703.707L997.727 706.39V703.22L1002.35 700.537Z" fill="#BFCEE6"/>
<path d="M997.727 703.219V706.389L959.316 684.198V680.967L997.727 703.219Z" fill="white"/>
<path d="M1002.35 700.537L997.727 703.22L959.316 680.968L963.882 678.285L1002.35 700.537Z" fill="#DAE2F0"/>
<path d="M1013.67 693.953V697.184L1009.05 699.866V696.635L1013.67 693.953Z" fill="#BFCEE6"/>
<path d="M1009.05 696.635V699.866L970.574 677.614L970.635 674.444L1009.05 696.635Z" fill="white"/>
<path d="M1013.67 693.953L1009.05 696.635L970.637 674.444L975.202 671.762L1013.67 693.953Z" fill="#DAE2F0"/>
<path d="M1025 687.429L1024.94 690.66L1020.37 693.282V690.112L1025 687.429Z" fill="#BFCEE6"/>
<path d="M1020.37 690.112V693.282L981.898 671.091L981.959 667.86L1020.37 690.112Z" fill="white"/>
<path d="M1025 687.429L1020.37 690.112L981.961 667.86L986.526 665.238L1025 687.429Z" fill="#DAE2F0"/>
<path d="M1036.32 680.906L1036.26 684.076L1031.7 686.759V683.589L1036.32 680.906Z" fill="#BFCEE6"/>
<path d="M1031.69 683.589V686.759L993.223 664.568L993.283 661.337L1031.69 683.589Z" fill="white"/>
<path d="M1036.32 680.906L1031.7 683.589L993.285 661.337L997.851 658.654L1036.32 680.906Z" fill="#DAE2F0"/>
<path d="M1047.64 674.322L1047.58 677.553L1043.02 680.236V677.005L1047.64 674.322Z" fill="#BFCEE6"/>
<path d="M1043.01 677.004V680.236L1004.54 657.984L1004.6 654.813L1043.01 677.004Z" fill="white"/>
<path d="M1047.64 674.322L1043.02 677.005L1004.61 654.814L1009.17 652.131L1047.64 674.322Z" fill="#DAE2F0"/>
<path d="M1058.91 667.799V671.03L1054.34 673.651V670.481L1058.91 667.799Z" fill="#BFCEE6"/>
<path d="M1054.34 670.481V673.652L1015.87 651.461L1015.93 648.229L1054.34 670.481Z" fill="white"/>
<path d="M1058.91 667.799L1054.34 670.481L1015.93 648.229L1020.5 645.608L1058.91 667.799Z" fill="#DAE2F0"/>
<path d="M1070.23 661.276V664.446L1065.66 667.128V663.958L1070.23 661.276Z" fill="#BFCEE6"/>
<path d="M1065.66 663.959V667.129L1027.19 644.938V641.707L1065.66 663.959Z" fill="white"/>
<path d="M1070.22 661.276L1065.66 663.958L1027.19 641.706L1031.81 639.024L1070.22 661.276Z" fill="#DAE2F0"/>
<path d="M1081.55 654.691V657.923L1076.98 660.605V657.374L1081.55 654.691Z" fill="#BFCEE6"/>
<path d="M1076.98 657.374V660.605L1038.51 638.353V635.183L1076.98 657.374Z" fill="white"/>
<path d="M1081.55 654.691L1076.98 657.374L1038.51 635.183L1043.14 632.5L1081.55 654.691Z" fill="#DAE2F0"/>
<path d="M1092.87 648.168V651.339L1088.3 654.021V650.851L1092.87 648.168Z" fill="#BFCEE6"/>
<path d="M1088.3 650.851V654.021L1049.83 631.83V628.599L1088.3 650.851Z" fill="white"/>
<path d="M1092.87 648.168L1088.3 650.851L1049.83 628.599L1054.46 625.917L1092.87 648.168Z" fill="#DAE2F0"/>
<path d="M1104.19 641.646V644.816L1099.63 647.498V644.328L1104.19 641.646Z" fill="#BFCEE6"/>
<path d="M1099.63 644.328V647.498L1061.16 625.246V622.076L1099.63 644.328Z" fill="white"/>
<path d="M1104.19 641.646L1099.63 644.328L1061.16 622.076L1065.78 619.394L1104.19 641.646Z" fill="#DAE2F0"/>
<path d="M1115.51 635.061V638.292L1110.89 640.975L1110.95 637.743L1115.51 635.061Z" fill="#BFCEE6"/>
<path d="M1110.95 637.743L1110.89 640.974L1072.48 618.722V615.552L1110.95 637.743Z" fill="white"/>
<path d="M1115.51 635.061L1110.95 637.744L1072.48 615.553L1077.1 612.87L1115.51 635.061Z" fill="#DAE2F0"/>
<path d="M1126.84 628.538V631.708L1122.27 634.391V631.22L1126.84 628.538Z" fill="#BFCEE6"/>
<path d="M1122.27 631.221V634.391L1083.8 612.2V608.969L1122.27 631.221Z" fill="white"/>
<path d="M1126.84 628.538L1122.27 631.221L1083.8 608.969L1088.43 606.286L1126.84 628.538Z" fill="#DAE2F0"/>
<path d="M1138.16 622.015V625.185L1133.53 627.867L1133.59 624.636L1138.16 622.015Z" fill="#BFCEE6"/>
<path d="M1133.59 624.636L1133.53 627.867L1095.12 605.615V602.445L1133.59 624.636Z" fill="white"/>
<path d="M1138.16 622.015L1133.59 624.636L1095.12 602.445L1099.75 599.763L1138.16 622.015Z" fill="#DAE2F0"/>
<path d="M1149.48 615.431V618.662L1144.86 621.283L1144.92 618.113L1149.48 615.431Z" fill="#BFCEE6"/>
<path d="M1144.92 618.113L1144.86 621.283L1106.45 599.092V595.861L1144.92 618.113Z" fill="white"/>
<path d="M1149.48 615.431L1144.92 618.113L1106.45 595.861L1111.07 593.24L1149.48 615.431Z" fill="#DAE2F0"/>
<path d="M1160.81 608.908V612.078L1156.18 614.76V611.59L1160.81 608.908Z" fill="#BFCEE6"/>
<path d="M1156.18 611.59V614.76L1117.77 592.569V589.338L1156.18 611.59Z" fill="white"/>
<path d="M1160.81 608.908L1156.18 611.59L1117.77 589.338L1122.4 586.656L1160.81 608.908Z" fill="#DAE2F0"/>
<path d="M1172.13 602.323V605.554L1167.5 608.237V605.006L1172.13 602.323Z" fill="#BFCEE6"/>
<path d="M1167.5 605.005V608.237L1129.09 585.985V582.814L1167.5 605.005Z" fill="white"/>
<path d="M1172.13 602.323L1167.5 605.006L1129.09 582.815L1133.72 580.132L1172.13 602.323Z" fill="#DAE2F0"/>
<path d="M1183.45 595.8V598.97L1178.82 601.653V598.483L1183.45 595.8Z" fill="#BFCEE6"/>
<path d="M1178.83 598.483V601.653L1140.41 579.462V576.231L1178.83 598.483Z" fill="white"/>
<path d="M1183.45 595.8L1178.83 598.483L1140.41 576.231L1145.04 573.609L1183.45 595.8Z" fill="#DAE2F0"/>
<path d="M1194.77 589.277V592.447L1190.14 595.129V591.959L1194.77 589.277Z" fill="#BFCEE6"/>
<path d="M1190.15 591.959V595.13L1151.73 572.878V569.708L1190.15 591.959Z" fill="white"/>
<path d="M1194.77 589.277L1190.15 591.959L1151.73 569.707L1156.3 567.025L1194.77 589.277Z" fill="#DAE2F0"/>
<path d="M1206.1 582.693V585.924L1201.47 588.606V585.375L1206.1 582.693Z" fill="#BFCEE6"/>
<path d="M1201.47 585.376V588.607L1163.06 566.355V563.185L1201.47 585.376Z" fill="white"/>
<path d="M1206.1 582.693L1201.47 585.375L1163.06 563.184L1167.62 560.502L1206.1 582.693Z" fill="#DAE2F0"/>
<path d="M1217.42 576.17V579.401L1212.79 582.022V578.852L1217.42 576.17Z" fill="#BFCEE6"/>
<path d="M1212.79 578.853V582.023L1174.38 559.832V556.601L1212.79 578.853Z" fill="white"/>
<path d="M1217.42 576.17L1212.79 578.852L1174.38 556.6L1178.94 553.918L1217.42 576.17Z" fill="#DAE2F0"/>
<path d="M1228.74 569.646V572.817L1224.11 575.499V572.329L1228.74 569.646Z" fill="#BFCEE6"/>
<path d="M1224.11 572.329V575.499L1185.7 553.247V550.077L1224.11 572.329Z" fill="white"/>
<path d="M1228.74 569.647L1224.11 572.329L1185.7 550.077L1190.27 547.395L1228.74 569.647Z" fill="#DAE2F0"/>
<path d="M1240.06 563.062V566.293L1235.43 568.976V565.744L1240.06 563.062Z" fill="#BFCEE6"/>
<path d="M1235.43 565.745V568.976L1197.02 546.724V543.554L1235.43 565.745Z" fill="white"/>
<path d="M1240.06 563.062L1235.43 565.745L1197.02 543.554L1201.59 540.871L1240.06 563.062Z" fill="#DAE2F0"/>
<path d="M1251.38 556.539V559.709L1246.76 562.392V559.222L1251.38 556.539Z" fill="#BFCEE6"/>
<path d="M1246.76 559.221V562.391L1208.29 540.2L1208.35 536.969L1246.76 559.221Z" fill="white"/>
<path d="M1251.39 556.539L1246.76 559.221L1208.35 536.97L1212.91 534.287L1251.39 556.539Z" fill="#DAE2F0"/>
<path d="M1262.7 550.016L1262.64 553.186L1258.08 555.869V552.699L1262.7 550.016Z" fill="#BFCEE6"/>
<path d="M1258.08 552.699V555.869L1219.67 533.617V530.447L1258.08 552.699Z" fill="white"/>
<path d="M1262.71 550.016L1258.08 552.699L1219.67 530.447L1224.23 527.764L1262.71 550.016Z" fill="#DAE2F0"/>
<path d="M1274.03 543.432L1273.97 546.663L1269.4 549.345V546.114L1274.03 543.432Z" fill="#BFCEE6"/>
<path d="M1269.4 546.114V549.345L1230.93 527.094L1230.99 523.923L1269.4 546.114Z" fill="white"/>
<path d="M1274.03 543.432L1269.4 546.114L1230.99 523.923L1235.56 521.241L1274.03 543.432Z" fill="#DAE2F0"/>
<path d="M1285.29 536.909V540.079L1280.73 542.761V539.591L1285.29 536.909Z" fill="#BFCEE6"/>
<path d="M1280.73 539.591V542.762L1242.25 520.571L1242.31 517.339L1280.73 539.591Z" fill="white"/>
<path d="M1285.29 536.909L1280.73 539.591L1242.32 517.339L1246.88 514.657L1285.29 536.909Z" fill="#DAE2F0"/>
<path d="M1296.67 530.325L1296.61 533.556L1292.05 536.238V533.007L1296.67 530.325Z" fill="#BFCEE6"/>
<path d="M1292.05 533.007V536.239L1253.57 513.987V510.816L1292.05 533.007Z" fill="white"/>
<path d="M1296.67 530.325L1292.05 533.007L1253.57 510.816L1258.2 508.134L1296.67 530.325Z" fill="#DAE2F0"/>
<path d="M1307.94 523.801V527.032L1303.37 529.654V526.484L1307.94 523.801Z" fill="#BFCEE6"/>
<path d="M1303.37 526.484V529.654L1264.9 507.463V504.232L1303.37 526.484Z" fill="white"/>
<path d="M1307.94 523.801L1303.37 526.484L1264.9 504.232L1269.52 501.61L1307.94 523.801Z" fill="#DAE2F0"/>
<path d="M1319.26 517.278V520.448L1314.7 523.131V519.961L1319.26 517.278Z" fill="#BFCEE6"/>
<path d="M1314.69 519.961V523.131L1276.22 500.94V497.709L1314.69 519.961Z" fill="white"/>
<path d="M1319.26 517.278L1314.69 519.961L1276.22 497.709L1280.85 495.026L1319.26 517.278Z" fill="#DAE2F0"/>
<path d="M1330.58 510.694V513.925L1326.02 516.607V513.376L1330.58 510.694Z" fill="#BFCEE6"/>
<path d="M1326.01 513.377V516.608L1287.54 494.356V491.186L1326.01 513.377Z" fill="white"/>
<path d="M1330.58 510.694L1326.01 513.376L1287.54 491.185L1292.17 488.503L1330.58 510.694Z" fill="#DAE2F0"/>
<path d="M1341.91 504.171V507.341L1337.34 510.023V506.853L1341.91 504.171Z" fill="#BFCEE6"/>
<path d="M1337.34 506.854V510.024L1298.87 487.833V484.602L1337.34 506.854Z" fill="white"/>
<path d="M1341.9 504.171L1337.34 506.853L1298.87 484.601L1303.49 481.919L1341.9 504.171Z" fill="#DAE2F0"/>
<path d="M1353.23 497.647V500.818L1348.66 503.5V500.33L1353.23 497.647Z" fill="#BFCEE6"/>
<path d="M1348.66 500.33V503.5L1310.19 481.248V478.078L1348.66 500.33Z" fill="white"/>
<path d="M1353.22 497.647L1348.66 500.33L1310.19 478.078L1314.81 475.396L1353.22 497.647Z" fill="#DAE2F0"/>
<path d="M1364.55 491.063V494.295L1359.92 496.977L1359.98 493.746L1364.55 491.063Z" fill="#BFCEE6"/>
<path d="M1359.98 493.746L1359.92 496.977L1321.51 474.725V471.555L1359.98 493.746Z" fill="white"/>
<path d="M1364.55 491.064L1359.98 493.746L1321.51 471.555L1326.14 468.873L1364.55 491.064Z" fill="#DAE2F0"/>
<path d="M1375.87 484.541V487.711L1371.24 490.393L1371.3 487.223L1375.87 484.541Z" fill="#BFCEE6"/>
<path d="M1371.3 487.223L1371.24 490.393L1332.83 468.202V464.971L1371.3 487.223Z" fill="white"/>
<path d="M1375.87 484.541L1371.3 487.223L1332.83 464.971L1337.46 462.289L1375.87 484.541Z" fill="#DAE2F0"/>
<path d="M1387.19 478.017V481.187L1382.57 483.87V480.7L1387.19 478.017Z" fill="#BFCEE6"/>
<path d="M1382.57 480.7V483.87L1344.16 461.618V458.448L1382.57 480.7Z" fill="white"/>
<path d="M1387.19 478.017L1382.57 480.7L1344.16 458.448L1348.78 455.765L1387.19 478.017Z" fill="#DAE2F0"/>
<path d="M1398.51 471.433V474.664L1393.89 477.347L1393.95 474.116L1398.51 471.433Z" fill="#BFCEE6"/>
<path d="M1393.95 474.116L1393.89 477.347L1355.48 455.095V451.925L1393.95 474.116Z" fill="white"/>
<path d="M1398.51 471.433L1393.95 474.116L1355.48 451.925L1360.1 449.242L1398.51 471.433Z" fill="#DAE2F0"/>
<path d="M1409.84 464.91V468.08L1405.21 470.762V467.592L1409.84 464.91Z" fill="#BFCEE6"/>
<path d="M1405.21 467.592V470.762L1366.8 448.571V445.34L1405.21 467.592Z" fill="white"/>
<path d="M1409.84 464.91L1405.21 467.592L1366.8 445.34L1371.43 442.658L1409.84 464.91Z" fill="#DAE2F0"/>
<path d="M1421.16 458.387V461.557L1416.53 464.239V461.069L1421.16 458.387Z" fill="#BFCEE6"/>
<path d="M1416.53 461.069V464.239L1378.12 441.988V438.817L1416.53 461.069Z" fill="white"/>
<path d="M1421.16 458.387L1416.53 461.069L1378.12 438.817L1382.69 436.135L1421.16 458.387Z" fill="#DAE2F0"/>
<path d="M1432.48 451.802V455.033L1427.86 457.716V454.485L1432.48 451.802Z" fill="#BFCEE6"/>
<path d="M1427.86 454.485V457.716L1389.45 435.464V432.294L1427.86 454.485Z" fill="white"/>
<path d="M1432.48 451.802L1427.86 454.485L1389.45 432.294L1394.07 429.611L1432.48 451.802Z" fill="#DAE2F0"/>
<path d="M1443.81 445.279V448.449L1439.18 451.132V447.962L1443.81 445.279Z" fill="#BFCEE6"/>
<path d="M1439.18 447.962V451.132L1400.77 428.941V425.71L1439.18 447.962Z" fill="white"/>
<path d="M1443.81 445.279L1439.18 447.962L1400.77 425.71L1405.34 423.027L1443.81 445.279Z" fill="#DAE2F0"/>
<path d="M1455.13 438.756V441.926L1450.5 444.609V441.378L1455.13 438.756Z" fill="#BFCEE6"/>
<path d="M1450.5 441.378V444.609L1412.09 422.357V419.187L1450.5 441.378Z" fill="white"/>
<path d="M1455.13 438.756L1450.5 441.378L1412.09 419.187L1416.66 416.504L1455.13 438.756Z" fill="#DAE2F0"/>
<path d="M1466.45 432.172V435.403L1461.82 438.085V434.854L1466.45 432.172Z" fill="#BFCEE6"/>
<path d="M1461.83 434.855V438.086L1423.41 415.834V412.603L1461.83 434.855Z" fill="white"/>
<path d="M1466.45 432.172L1461.83 434.854L1423.41 412.602L1427.98 409.981L1466.45 432.172Z" fill="#DAE2F0"/>
<path d="M1477.77 425.649V428.819L1473.15 431.501V428.331L1477.77 425.649Z" fill="#BFCEE6"/>
<path d="M1473.15 428.332V431.502L1434.68 409.311L1434.74 406.08L1473.15 428.332Z" fill="white"/>
<path d="M1477.78 425.649L1473.15 428.331L1434.74 406.079L1439.3 403.397L1477.78 425.649Z" fill="#DAE2F0"/>
<path d="M1489.1 419.064L1489.03 422.296L1484.47 424.978V421.747L1489.1 419.064Z" fill="#BFCEE6"/>
<path d="M1484.47 421.747V424.978L1446.06 402.726V399.556L1484.47 421.747Z" fill="white"/>
<path d="M1489.1 419.065L1484.47 421.747L1446.06 399.556L1450.62 396.874L1489.1 419.065Z" fill="#DAE2F0"/>
<path d="M1500.42 412.542V415.712L1495.79 418.394V415.224L1500.42 412.542Z" fill="#BFCEE6"/>
<path d="M1495.79 415.224V418.394L1457.32 396.203L1457.38 392.972L1495.79 415.224Z" fill="white"/>
<path d="M1500.42 412.542L1495.79 415.224L1457.38 392.972L1461.95 390.351L1500.42 412.542Z" fill="#DAE2F0"/>
<path d="M1511.74 406.019L1511.68 409.189L1507.11 411.871V408.701L1511.74 406.019Z" fill="#BFCEE6"/>
<path d="M1507.11 408.701V411.871L1468.64 389.68L1468.7 386.449L1507.11 408.701Z" fill="white"/>
<path d="M1511.74 406.019L1507.11 408.701L1468.7 386.449L1473.27 383.767L1511.74 406.019Z" fill="#DAE2F0"/>
<path d="M1523.06 399.434L1523 402.665L1518.44 405.348V402.117L1523.06 399.434Z" fill="#BFCEE6"/>
<path d="M1518.44 402.117V405.348L1479.96 383.096V379.926L1518.44 402.117Z" fill="white"/>
<path d="M1523.06 399.434L1518.44 402.117L1479.96 379.926L1484.59 377.243L1523.06 399.434Z" fill="#DAE2F0"/>
<path d="M1534.32 392.911V396.081L1529.76 398.764V395.594L1534.32 392.911Z" fill="#BFCEE6"/>
<path d="M1529.76 395.594V398.764L1491.29 376.573L1491.35 373.342L1529.76 395.594Z" fill="white"/>
<path d="M1534.32 392.911L1529.76 395.594L1491.35 373.342L1495.91 370.659L1534.32 392.911Z" fill="#DAE2F0"/>
<path d="M1545.65 386.388V389.558L1541.08 392.24V389.07L1545.65 386.388Z" fill="#BFCEE6"/>
<path d="M1541.08 389.07V392.24L1502.61 369.988V366.818L1541.08 389.07Z" fill="white"/>
<path d="M1545.65 386.388L1541.08 389.07L1502.61 366.818L1507.24 364.136L1545.65 386.388Z" fill="#DAE2F0"/>
<path d="M1556.97 379.804V383.035L1552.4 385.717V382.486L1556.97 379.804Z" fill="#BFCEE6"/>
<path d="M1552.4 382.486V385.718L1513.93 363.466V360.295L1552.4 382.486Z" fill="white"/>
<path d="M1556.97 379.804L1552.4 382.486L1513.93 360.295L1518.56 357.613L1556.97 379.804Z" fill="#DAE2F0"/>
<path d="M1568.29 373.28V376.45L1563.73 379.133V375.963L1568.29 373.28Z" fill="#BFCEE6"/>
<path d="M1563.73 375.963V379.133L1525.25 356.942V353.711L1563.73 375.963Z" fill="white"/>
<path d="M1568.29 373.28L1563.73 375.963L1525.25 353.711L1529.88 351.028L1568.29 373.28Z" fill="#DAE2F0"/>
<path d="M1579.61 366.696V369.927L1575.05 372.61V369.379L1579.61 366.696Z" fill="#BFCEE6"/>
<path d="M1575.05 369.379V372.61L1536.57 350.358V347.188L1575.05 369.379Z" fill="white"/>
<path d="M1579.61 366.696L1575.05 369.379L1536.57 347.188L1541.2 344.505L1579.61 366.696Z" fill="#DAE2F0"/>
<path d="M1590.94 360.173V363.404L1586.37 366.026V362.856L1590.94 360.173Z" fill="#BFCEE6"/>
<path d="M1586.37 362.856V366.026L1547.9 343.835V340.604L1586.37 362.856Z" fill="white"/>
<path d="M1590.94 360.173L1586.37 362.856L1547.9 340.604L1552.52 337.982L1590.94 360.173Z" fill="#DAE2F0"/>
<path d="M1602.26 353.65V356.82L1597.63 359.502L1597.69 356.332L1602.26 353.65Z" fill="#BFCEE6"/>
<path d="M1597.69 356.333L1597.63 359.503L1559.22 337.312V334.081L1597.69 356.333Z" fill="white"/>
<path d="M1602.26 353.65L1597.69 356.332L1559.22 334.08L1563.85 331.398L1602.26 353.65Z" fill="#DAE2F0"/>
<path d="M1613.58 347.066V350.297L1608.95 352.979L1609.01 349.748L1613.58 347.066Z" fill="#BFCEE6"/>
<path d="M1609.01 349.749L1608.95 352.98L1570.54 330.728V327.558L1609.01 349.749Z" fill="white"/>
<path d="M1613.58 347.066L1609.01 349.748L1570.54 327.557L1575.17 324.875L1613.58 347.066Z" fill="#DAE2F0"/>
<path d="M1624.9 340.542V343.774L1620.28 346.395V343.225L1624.9 340.542Z" fill="#BFCEE6"/>
<path d="M1620.28 343.225V346.395L1581.87 324.204V320.973L1620.28 343.225Z" fill="white"/>
<path d="M1624.9 340.543L1620.28 343.225L1581.87 320.973L1586.49 318.352L1624.9 340.543Z" fill="#DAE2F0"/>
<path d="M1636.22 334.02V337.19L1631.6 339.872L1631.66 336.702L1636.22 334.02Z" fill="#BFCEE6"/>
<path d="M1631.66 336.702L1631.6 339.872L1593.19 317.681V314.45L1631.66 336.702Z" fill="white"/>
<path d="M1636.22 334.02L1631.66 336.702L1593.19 314.45L1597.81 311.768L1636.22 334.02Z" fill="#DAE2F0"/>
<path d="M1647.55 327.435V330.666L1642.92 333.349V330.118L1647.55 327.435Z" fill="#BFCEE6"/>
<path d="M1642.92 330.118V333.349L1604.51 311.097V307.927L1642.92 330.118Z" fill="white"/>
<path d="M1647.55 327.435L1642.92 330.118L1604.51 307.927L1609.08 305.244L1647.55 327.435Z" fill="#DAE2F0"/>
<path d="M1658.87 320.912V324.082L1654.24 326.765V323.595L1658.87 320.912Z" fill="#BFCEE6"/>
<path d="M1654.24 323.595V326.765L1615.83 304.574V301.343L1654.24 323.595Z" fill="white"/>
<path d="M1658.87 320.912L1654.24 323.595L1615.83 301.343L1620.46 298.721L1658.87 320.912Z" fill="#DAE2F0"/>
<path d="M1670.19 314.389V317.559L1665.57 320.242V317.072L1670.19 314.389Z" fill="#BFCEE6"/>
<path d="M1665.57 317.072V320.242L1627.16 297.99V294.82L1665.57 317.072Z" fill="white"/>
<path d="M1670.19 314.389L1665.57 317.072L1627.16 294.82L1631.72 292.137L1670.19 314.389Z" fill="#DAE2F0"/>
<path d="M1681.51 307.805V311.036L1676.89 313.718V310.487L1681.51 307.805Z" fill="#BFCEE6"/>
<path d="M1676.89 310.487V313.718L1638.48 291.467V288.296L1676.89 310.487Z" fill="white"/>
<path d="M1681.51 307.805L1676.89 310.487L1638.48 288.296L1643.04 285.614L1681.51 307.805Z" fill="#DAE2F0"/>
<path d="M1692.84 301.282V304.452L1688.21 307.134V303.964L1692.84 301.282Z" fill="#BFCEE6"/>
<path d="M1688.21 303.964V307.135L1649.8 284.944V281.712L1688.21 303.964Z" fill="white"/>
<path d="M1692.84 301.282L1688.21 303.964L1649.8 281.712L1654.37 279.03L1692.84 301.282Z" fill="#DAE2F0"/>
<path d="M1704.16 294.758V297.928L1699.53 300.611V297.441L1704.16 294.758Z" fill="#BFCEE6"/>
<path d="M1699.53 297.441V300.611L1661.12 278.359V275.189L1699.53 297.441Z" fill="white"/>
<path d="M1704.16 294.758L1699.53 297.441L1661.12 275.189L1665.69 272.506L1704.16 294.758Z" fill="#DAE2F0"/>
<path d="M1715.48 288.174L1715.42 291.405L1710.86 294.088V290.857L1715.48 288.174Z" fill="#BFCEE6"/>
<path d="M1710.86 290.857V294.088L1672.45 271.836V268.666L1710.86 290.857Z" fill="white"/>
<path d="M1715.48 288.174L1710.86 290.857L1672.45 268.666L1677.01 265.983L1715.48 288.174Z" fill="#DAE2F0"/>
<path d="M1726.8 281.651V284.822L1722.18 287.504V284.334L1726.8 281.651Z" fill="#BFCEE6"/>
<path d="M1722.18 284.334V287.504L1683.77 265.313V262.082L1722.18 284.334Z" fill="white"/>
<path d="M1726.8 281.651L1722.18 284.334L1683.77 262.082L1688.33 259.399L1726.8 281.651Z" fill="#DAE2F0"/>
<path d="M1738.13 275.067L1738.07 278.298L1733.5 280.98V277.749L1738.13 275.067Z" fill="#BFCEE6"/>
<path d="M1733.5 277.75V280.981L1695.03 258.729L1695.09 255.559L1733.5 277.75Z" fill="white"/>
<path d="M1738.13 275.067L1733.5 277.749L1695.09 255.558L1699.66 252.876L1738.13 275.067Z" fill="#DAE2F0"/>
<path d="M1749.45 268.544L1749.39 271.775L1744.82 274.397V271.226L1749.45 268.544Z" fill="#BFCEE6"/>
<path d="M1744.82 271.227V274.397L1706.35 252.206L1706.41 248.975L1744.82 271.227Z" fill="white"/>
<path d="M1749.45 268.544L1744.83 271.226L1706.41 248.974L1710.98 246.353L1749.45 268.544Z" fill="#DAE2F0"/>
<path d="M1760.71 262.021V265.191L1756.15 267.873V264.703L1760.71 262.021Z" fill="#BFCEE6"/>
<path d="M1756.15 264.703V267.873L1717.68 245.682V242.451L1756.15 264.703Z" fill="white"/>
<path d="M1760.71 262.021L1756.15 264.703L1717.68 242.451L1722.3 239.769L1760.71 262.021Z" fill="#DAE2F0"/>
<path d="M1772.1 255.437L1772.03 258.668L1767.47 261.35V258.119L1772.1 255.437Z" fill="#BFCEE6"/>
<path d="M1767.47 258.119V261.35L1729 239.098L1729.06 235.928L1767.47 258.119Z" fill="white"/>
<path d="M1772.1 255.437L1767.47 258.119L1729.06 235.928L1733.62 233.246L1772.1 255.437Z" fill="#DAE2F0"/>
<path d="M1783.36 248.913V252.144L1778.79 254.766V251.596L1783.36 248.913Z" fill="#BFCEE6"/>
<path d="M1778.79 251.596V254.766L1740.32 232.575V229.344L1778.79 251.596Z" fill="white"/>
<path d="M1783.36 248.913L1778.79 251.596L1740.32 229.344L1744.95 226.661L1783.36 248.913Z" fill="#DAE2F0"/>
<path d="M1794.68 242.39V245.56L1790.11 248.243V245.073L1794.68 242.39Z" fill="#BFCEE6"/>
<path d="M1790.11 245.073V248.243L1751.64 225.991V222.821L1790.11 245.073Z" fill="white"/>
<path d="M1794.68 242.39L1790.11 245.073L1751.64 222.821L1756.27 220.138L1794.68 242.39Z" fill="#DAE2F0"/>
<path d="M1806 235.806V239.037L1801.44 241.72V238.489L1806 235.806Z" fill="#BFCEE6"/>
<path d="M1801.44 238.489V241.72L1762.96 219.468V216.298L1801.44 238.489Z" fill="white"/>
<path d="M1806 235.806L1801.44 238.489L1762.96 216.298L1767.59 213.615L1806 235.806Z" fill="#DAE2F0"/>
<path d="M1817.32 229.283V232.453L1812.76 235.135V231.965L1817.32 229.283Z" fill="#BFCEE6"/>
<path d="M1812.76 231.965V235.135L1774.29 212.944V209.713L1812.76 231.965Z" fill="white"/>
<path d="M1817.32 229.283L1812.76 231.965L1774.29 209.713L1778.91 207.031L1817.32 229.283Z" fill="#DAE2F0"/>
<path d="M1827.18 223.613V226.783L1822.56 229.466V226.296L1827.18 223.613Z" fill="#BFCEE6"/>
<path d="M1822.56 226.296V229.466L1784.09 207.275L1784.15 204.044L1822.56 226.296Z" fill="white"/>
<path d="M1827.19 223.613L1822.56 226.296L1784.15 204.044L1788.71 201.361L1827.19 223.613Z" fill="#DAE2F0"/>
<path d="M1838.51 217.029L1838.45 220.26L1833.88 222.942V219.711L1838.51 217.029Z" fill="#BFCEE6"/>
<path d="M1833.88 219.712V222.943L1795.41 200.691L1795.47 197.521L1833.88 219.712Z" fill="white"/>
<path d="M1838.51 217.029L1833.88 219.711L1795.47 197.52L1800.04 194.838L1838.51 217.029Z" fill="#DAE2F0"/>
<path d="M1849.83 210.506L1849.77 213.737L1845.2 216.358V213.188L1849.83 210.506Z" fill="#BFCEE6"/>
<path d="M1845.2 213.189V216.359L1806.73 194.168L1806.79 190.937L1845.2 213.189Z" fill="white"/>
<path d="M1849.83 210.506L1845.2 213.188L1806.79 190.936L1811.36 188.254L1849.83 210.506Z" fill="#DAE2F0"/>
<path d="M1861.15 203.982L1861.09 207.153L1856.53 209.835V206.665L1861.15 203.982Z" fill="#BFCEE6"/>
<path d="M1856.53 206.665V209.835L1818.05 187.583L1818.12 184.413L1856.53 206.665Z" fill="white"/>
<path d="M1861.15 203.982L1856.53 206.665L1818.12 184.413L1822.68 181.73L1861.15 203.982Z" fill="#DAE2F0"/>
<path d="M1872.47 197.398L1872.41 200.63L1867.85 203.312V200.081L1872.47 197.398Z" fill="#BFCEE6"/>
<path d="M1867.85 200.081V203.312L1829.38 181.06L1829.44 177.89L1867.85 200.081Z" fill="white"/>
<path d="M1872.47 197.399L1867.85 200.081L1829.44 177.89L1834 175.208L1872.47 197.399Z" fill="#DAE2F0"/>
<path d="M1883.74 190.875V194.046L1879.17 196.728V193.558L1883.74 190.875Z" fill="#BFCEE6"/>
<path d="M1879.17 193.558V196.728L1840.7 174.537V171.306L1879.17 193.558Z" fill="white"/>
<path d="M1883.74 190.876L1879.17 193.558L1840.7 171.306L1845.33 168.624L1883.74 190.876Z" fill="#DAE2F0"/>
<path d="M1895.06 184.352V187.522L1890.49 190.205V187.034L1895.06 184.352Z" fill="#BFCEE6"/>
<path d="M1890.49 187.035V190.205L1852.02 167.953V164.783L1890.49 187.035Z" fill="white"/>
<path d="M1895.06 184.352L1890.49 187.034L1852.02 164.783L1856.65 162.1L1895.06 184.352Z" fill="#DAE2F0"/>
<path d="M1906.38 177.768V180.999L1901.82 183.682V180.45L1906.38 177.768Z" fill="#BFCEE6"/>
<path d="M1901.82 180.451V183.682L1863.34 161.43V158.26L1901.82 180.451Z" fill="white"/>
<path d="M1906.38 177.768L1901.82 180.451L1863.34 158.26L1867.97 155.577L1906.38 177.768Z" fill="#DAE2F0"/>
<path d="M1917.71 171.245V174.415L1913.14 177.097V173.927L1917.71 171.245Z" fill="#BFCEE6"/>
<path d="M1913.14 173.927V177.097L1874.67 154.906V151.675L1913.14 173.927Z" fill="white"/>
<path d="M1917.71 171.245L1913.14 173.927L1874.67 151.675L1879.29 148.993L1917.71 171.245Z" fill="#DAE2F0"/>
<path d="M1924.46 167.343L1924.4 170.574L1885.99 148.322V145.152L1924.46 167.343Z" fill="white"/>
<path d="M1929.03 164.722L1924.46 167.343L1885.99 145.152L1890.61 142.47L1929.03 164.722Z" fill="#DAE2F0"/>
<path d="M1935.78 160.82L1935.72 164.051L1897.31 141.799V138.568L1935.78 160.82Z" fill="white"/>
<path d="M1940.35 158.137L1935.78 160.82L1897.31 138.568L1901.94 135.946L1940.35 158.137Z" fill="#DAE2F0"/>
<path d="M1947.1 154.297L1947.04 157.467L1908.63 135.276V132.045L1947.1 154.297Z" fill="white"/>
<path d="M1951.67 151.614L1947.1 154.297L1908.63 132.045L1913.26 129.362L1951.67 151.614Z" fill="#DAE2F0"/>
<path d="M1958.43 147.713L1958.37 150.944L1919.96 128.692V125.522L1958.43 147.713Z" fill="white"/>
<path d="M1962.99 145.091L1958.43 147.713L1919.96 125.522L1924.58 122.839L1962.99 145.091Z" fill="#DAE2F0"/>
<path d="M980.497 713.217V716.387L975.871 719.07V715.9L980.497 713.217Z" fill="#BFCEE6"/>
<path d="M975.872 715.9V719.07L937.461 696.879V693.648L975.872 715.9Z" fill="white"/>
<path d="M980.498 713.217L975.872 715.9L937.461 693.648L942.026 690.965L980.498 713.217Z" fill="#DAE2F0"/>
<path d="M969.966 719.314L969.905 722.545L965.34 725.228V721.996L969.966 719.314Z" fill="#BFCEE6"/>
<path d="M965.341 721.997V725.228L926.93 702.976V699.806L965.341 721.997Z" fill="white"/>
<path d="M969.967 719.314L965.341 721.996L926.93 699.805L931.495 697.123L969.967 719.314Z" fill="#DAE2F0"/>
<path d="M959.435 725.471V728.641L954.809 731.324V728.154L959.435 725.471Z" fill="#BFCEE6"/>
<path d="M954.809 728.154V731.324L916.398 709.133V705.902L954.809 728.154Z" fill="white"/>
<path d="M959.436 725.471L954.809 728.154L916.398 705.902L920.964 703.219L959.436 725.471Z" fill="#DAE2F0"/>
<path d="M948.904 731.567V734.798L944.277 737.481V734.25L948.904 731.567Z" fill="#BFCEE6"/>
<path d="M944.277 734.25V737.481L905.805 715.229L905.866 712.059L944.277 734.25Z" fill="white"/>
<path d="M948.905 731.568L944.278 734.25L905.867 712.059L910.433 709.376L948.905 731.568Z" fill="#DAE2F0"/>
<path d="M938.372 737.725L938.312 740.895L933.746 743.578V740.408L938.372 737.725Z" fill="#BFCEE6"/>
<path d="M933.747 740.408V743.578L895.336 721.387V718.156L933.747 740.408Z" fill="white"/>
<path d="M938.373 737.725L933.747 740.408L895.336 718.156L899.901 715.473L938.373 737.725Z" fill="#DAE2F0"/>
<path d="M927.845 743.883V747.053L923.219 749.735V746.504L927.845 743.883Z" fill="#BFCEE6"/>
<path d="M923.218 746.504V749.735L884.746 727.483L884.807 724.313L923.218 746.504Z" fill="white"/>
<path d="M927.846 743.883L923.22 746.504L884.809 724.313L889.374 721.631L927.846 743.883Z" fill="#DAE2F0"/>
<path d="M917.314 749.979V753.21L912.688 755.832V752.661L917.314 749.979Z" fill="#BFCEE6"/>
<path d="M912.687 752.662V755.832L874.215 733.641L874.276 730.41L912.687 752.662Z" fill="white"/>
<path d="M917.315 749.979L912.688 752.662L874.277 730.41L878.843 727.788L917.315 749.979Z" fill="#DAE2F0"/>
<path d="M906.783 756.136L906.722 759.306L902.156 761.989V758.758L906.783 756.136Z" fill="#BFCEE6"/>
<path d="M902.156 758.758V761.989L863.684 739.737L863.744 736.567L902.156 758.758Z" fill="white"/>
<path d="M906.784 756.136L902.157 758.758L863.746 736.567L868.312 733.884L906.784 756.136Z" fill="#DAE2F0"/>
<path d="M896.251 762.233L896.19 765.464L891.625 768.085V764.915L896.251 762.233Z" fill="#BFCEE6"/>
<path d="M891.624 764.916V768.086L853.152 745.895L853.213 742.725L891.624 764.916Z" fill="white"/>
<path d="M896.252 762.233L891.626 764.915L853.215 742.724L857.78 740.042L896.252 762.233Z" fill="#DAE2F0"/>
<path d="M885.72 768.39L885.659 771.56L881.094 774.243V771.073L885.72 768.39Z" fill="#BFCEE6"/>
<path d="M881.093 771.072V774.242L842.621 751.99L842.682 748.82L881.093 771.072Z" fill="white"/>
<path d="M885.721 768.39L881.095 771.073L842.684 748.821L847.249 746.138L885.721 768.39Z" fill="#DAE2F0"/>
<path d="M875.189 774.486L875.128 777.717L870.562 780.4V777.169L875.189 774.486Z" fill="#BFCEE6"/>
<path d="M870.562 777.169V780.4L832.09 758.148V754.978L870.562 777.169Z" fill="white"/>
<path d="M875.188 774.486L870.562 777.169L832.09 754.978L836.716 752.295L875.188 774.486Z" fill="#DAE2F0"/>
<path d="M864.597 780.644V783.814L860.031 786.497V783.326L864.597 780.644Z" fill="#BFCEE6"/>
<path d="M860.031 783.327V786.497L821.559 764.306L821.619 761.075L860.031 783.327Z" fill="white"/>
<path d="M864.598 780.644L860.032 783.327L821.621 761.075L826.187 758.392L864.598 780.644Z" fill="#DAE2F0"/>
<path d="M854.065 786.74V789.971L849.5 792.654V789.423L854.065 786.74Z" fill="#BFCEE6"/>
<path d="M849.499 789.423V792.654L811.027 770.402L811.088 767.232L849.499 789.423Z" fill="white"/>
<path d="M854.066 786.74L849.501 789.423L811.09 767.232L815.655 764.549L854.066 786.74Z" fill="#DAE2F0"/>
<path d="M843.595 792.898L843.534 796.068L838.969 798.751V795.58L843.595 792.898Z" fill="#BFCEE6"/>
<path d="M838.968 795.581V798.751L800.496 776.56V773.329L838.968 795.581Z" fill="white"/>
<path d="M843.594 792.898L838.968 795.58L800.496 773.328L805.122 770.646L843.594 792.898Z" fill="#DAE2F0"/>
<path d="M833.003 799.055V802.225L828.438 804.908V801.677L833.003 799.055Z" fill="#BFCEE6"/>
<path d="M828.437 801.676V804.908L789.965 782.656V779.485L828.437 801.676Z" fill="white"/>
<path d="M833.002 799.055L828.437 801.677L789.965 779.486L794.591 776.803L833.002 799.055Z" fill="#DAE2F0"/>
<path d="M822.472 805.151V808.382L817.906 811.004V807.834L822.472 805.151Z" fill="#BFCEE6"/>
<path d="M817.906 807.834V811.004L779.434 788.813V785.582L817.906 807.834Z" fill="white"/>
<path d="M822.471 805.151L817.906 807.834L779.434 785.582L784.06 782.96L822.471 805.151Z" fill="#DAE2F0"/>
<path d="M811.94 811.309V814.479L807.375 817.162V813.992L811.94 811.309Z" fill="#BFCEE6"/>
<path d="M807.374 813.992V817.162L768.902 794.91V791.74L807.374 813.992Z" fill="white"/>
<path d="M811.94 811.309L807.374 813.992L768.902 791.74L773.529 789.057L811.94 811.309Z" fill="#DAE2F0"/>
<path d="M801.409 817.405V820.636L796.844 823.319V820.088L801.409 817.405Z" fill="#BFCEE6"/>
<path d="M796.843 820.088V823.319L758.371 801.067V797.897L796.843 820.088Z" fill="white"/>
<path d="M801.409 817.405L796.843 820.088L758.371 797.897L762.997 795.214L801.409 817.405Z" fill="#DAE2F0"/>
<path d="M790.878 823.563V826.733L786.312 829.416V826.245L790.878 823.563Z" fill="#BFCEE6"/>
<path d="M786.312 826.246V829.416L747.84 807.164V803.994L786.312 826.246Z" fill="white"/>
<path d="M790.877 823.563L786.312 826.245L747.84 803.993L752.466 801.311L790.877 823.563Z" fill="#DAE2F0"/>
<path d="M780.347 829.659V832.89L775.781 835.573V832.342L780.347 829.659Z" fill="#BFCEE6"/>
<path d="M775.781 832.342V835.573L737.309 813.321V810.151L775.781 832.342Z" fill="white"/>
<path d="M780.346 829.659L775.781 832.342L737.309 810.151L741.935 807.468L780.346 829.659Z" fill="#DAE2F0"/>
<path d="M769.815 835.816V838.987L765.25 841.669V838.499L769.815 835.816Z" fill="#BFCEE6"/>
<path d="M765.249 838.499V841.669L726.777 819.478V816.247L765.249 838.499Z" fill="white"/>
<path d="M769.815 835.816L765.249 838.499L726.777 816.247L731.404 813.564L769.815 835.816Z" fill="#DAE2F0"/>
<path d="M759.283 841.913V845.144L754.656 847.827L754.717 844.596L759.283 841.913Z" fill="#BFCEE6"/>
<path d="M754.718 844.595L754.657 847.826L716.246 825.574V822.404L754.718 844.595Z" fill="white"/>
<path d="M759.284 841.913L754.718 844.596L716.246 822.405L720.872 819.722L759.284 841.913Z" fill="#DAE2F0"/>
<path d="M748.753 848.07V851.24L744.188 853.923V850.753L748.753 848.07Z" fill="#BFCEE6"/>
<path d="M744.187 850.753V853.923L705.715 831.732V828.501L744.187 850.753Z" fill="white"/>
<path d="M748.752 848.07L744.187 850.753L705.715 828.501L710.341 825.818L748.752 848.07Z" fill="#DAE2F0"/>
<path d="M738.222 854.167V857.398L733.656 860.08V856.849L738.222 854.167Z" fill="#BFCEE6"/>
<path d="M733.656 856.849V860.08L695.184 837.828V834.658L733.656 856.849Z" fill="white"/>
<path d="M738.221 854.167L733.656 856.849L695.184 834.658L699.81 831.976L738.221 854.167Z" fill="#DAE2F0"/>
<path d="M727.689 860.324V863.494L723.062 866.177L723.123 863.007L727.689 860.324Z" fill="#BFCEE6"/>
<path d="M723.124 863.006L723.063 866.176L684.652 843.985V840.754L723.124 863.006Z" fill="white"/>
<path d="M727.69 860.324L723.124 863.007L684.652 840.755L689.279 838.072L727.69 860.324Z" fill="#DAE2F0"/>
<path d="M717.158 866.421V869.652L712.531 872.334L712.592 869.103L717.158 866.421Z" fill="#BFCEE6"/>
<path d="M712.593 869.103L712.532 872.334L674.121 850.082V846.912L712.593 869.103Z" fill="white"/>
<path d="M717.159 866.421L712.593 869.103L674.121 846.912L678.747 844.23L717.159 866.421Z" fill="#DAE2F0"/>
<path d="M706.628 872.578V875.748L702.062 878.431V875.261L706.628 872.578Z" fill="#BFCEE6"/>
<path d="M702.062 875.261V878.431L663.59 856.24V853.009L702.062 875.261Z" fill="white"/>
<path d="M706.627 872.578L702.062 875.261L663.59 853.009L668.216 850.387L706.627 872.578Z" fill="#DAE2F0"/>
<path d="M696.095 878.735V881.906L691.469 884.588L691.53 881.418L696.095 878.735Z" fill="#BFCEE6"/>
<path d="M691.531 881.418L691.47 884.588L653.059 862.336V859.166L691.531 881.418Z" fill="white"/>
<path d="M696.096 878.735L691.531 881.418L653.059 859.166L657.685 856.483L696.096 878.735Z" fill="#DAE2F0"/>
<path d="M685.568 884.832V888.063L680.941 890.746L681.002 887.514L685.568 884.832Z" fill="#BFCEE6"/>
<path d="M681.003 887.515L680.942 890.746L642.531 868.494V865.263L681.003 887.515Z" fill="white"/>
<path d="M685.569 884.832L681.003 887.515L642.531 865.263L647.158 862.641L685.569 884.832Z" fill="#DAE2F0"/>
<path d="M675.037 890.989V894.159L670.41 896.842L670.471 893.672L675.037 890.989Z" fill="#BFCEE6"/>
<path d="M670.472 893.672L670.411 896.842L632 874.59V871.42L670.472 893.672Z" fill="white"/>
<path d="M675.037 890.989L670.472 893.672L632 871.42L636.626 868.737L675.037 890.989Z" fill="#DAE2F0"/>
<path d="M664.505 897.085V900.317L659.879 902.999L659.94 899.768L664.505 897.085Z" fill="#BFCEE6"/>
<path d="M659.941 899.768L659.88 902.999L621.469 880.747V877.577L659.941 899.768Z" fill="white"/>
<path d="M664.506 897.086L659.941 899.768L621.469 877.577L626.095 874.895L664.506 897.086Z" fill="#DAE2F0"/>
<path d="M653.974 903.243V906.413L649.348 909.096V905.926L653.974 903.243Z" fill="#BFCEE6"/>
<path d="M649.349 905.926V909.096L610.938 886.905V883.674L649.349 905.926Z" fill="white"/>
<path d="M653.975 903.243L649.349 905.926L610.938 883.674L615.564 880.991L653.975 903.243Z" fill="#DAE2F0"/>
<path d="M643.443 909.339V912.57L638.816 915.253V912.022L643.443 909.339Z" fill="#BFCEE6"/>
<path d="M638.817 912.022V915.253L600.406 893.001V889.831L638.817 912.022Z" fill="white"/>
<path d="M643.444 909.339L638.817 912.022L600.406 889.831L605.033 887.148L643.444 909.339Z" fill="#DAE2F0"/>
<path d="M632.912 915.497V918.667L628.285 921.35V918.18L632.912 915.497Z" fill="#BFCEE6"/>
<path d="M628.286 918.18V921.35L589.875 899.159V895.928L628.286 918.18Z" fill="white"/>
<path d="M632.912 915.497L628.286 918.179L589.875 895.928L594.501 893.245L632.912 915.497Z" fill="#DAE2F0"/>
<path d="M622.38 921.654V924.824L617.754 927.507V924.276L622.38 921.654Z" fill="#BFCEE6"/>
<path d="M617.755 924.275V927.507L579.344 905.255V902.084L617.755 924.275Z" fill="white"/>
<path d="M622.381 921.654L617.755 924.276L579.344 902.085L583.97 899.402L622.381 921.654Z" fill="#DAE2F0"/>
<path d="M611.849 927.751V930.982L607.223 933.603V930.433L611.849 927.751Z" fill="#BFCEE6"/>
<path d="M607.224 930.434V933.604L568.812 911.413V908.182L607.224 930.434Z" fill="white"/>
<path d="M611.85 927.751L607.224 930.433L568.812 908.181L573.439 905.499L611.85 927.751Z" fill="#DAE2F0"/>
<path d="M601.318 933.847V937.078L596.691 939.761V936.53L601.318 933.847Z" fill="#BFCEE6"/>
<path d="M596.692 936.53V939.761L558.281 917.509V914.339L596.692 936.53Z" fill="white"/>
<path d="M601.319 933.847L596.692 936.53L558.281 914.339L562.847 911.656L601.319 933.847Z" fill="#DAE2F0"/>
<path d="M590.787 940.004V943.175L586.16 945.857V942.687L590.787 940.004Z" fill="#BFCEE6"/>
<path d="M586.161 942.687V945.857L547.75 923.666V920.496L586.161 942.687Z" fill="white"/>
<path d="M590.787 940.004L586.161 942.687L547.75 920.496L552.376 917.813L590.787 940.004Z" fill="#DAE2F0"/>
<path d="M580.255 946.162V949.332L575.629 952.015V948.845L580.255 946.162Z" fill="#BFCEE6"/>
<path d="M575.63 948.845V952.015L537.219 929.763V926.593L575.63 948.845Z" fill="white"/>
<path d="M580.256 946.162L575.63 948.845L537.219 926.593L541.845 923.91L580.256 946.162Z" fill="#DAE2F0"/>
<path d="M569.724 952.258V955.489L565.098 958.172V954.941L569.724 952.258Z" fill="#BFCEE6"/>
<path d="M565.099 954.941V958.172L526.688 935.92V932.75L565.099 954.941Z" fill="white"/>
<path d="M569.725 952.258L565.099 954.941L526.688 932.75L531.253 930.067L569.725 952.258Z" fill="#DAE2F0"/>
<path d="M559.193 958.416V961.586L554.566 964.269V961.098L559.193 958.416Z" fill="#BFCEE6"/>
<path d="M554.567 961.099V964.269L516.156 942.078V938.847L554.567 961.099Z" fill="white"/>
<path d="M559.194 958.416L554.567 961.099L516.156 938.847L520.722 936.164L559.194 958.416Z" fill="#DAE2F0"/>
<path d="M548.662 964.512V967.743L544.035 970.426V967.195L548.662 964.512Z" fill="#BFCEE6"/>
<path d="M544.036 967.195V970.426L505.625 948.174V945.004L544.036 967.195Z" fill="white"/>
<path d="M548.662 964.512L544.036 967.195L505.625 945.004L510.19 942.321L548.662 964.512Z" fill="#DAE2F0"/>
<path d="M538.13 970.67V973.84L533.504 976.523V973.352L538.13 970.67Z" fill="#BFCEE6"/>
<path d="M533.505 973.353V976.523L495.094 954.332V951.101L533.505 973.353Z" fill="white"/>
<path d="M538.131 970.67L533.505 973.352L495.094 951.1L499.659 948.418L538.131 970.67Z" fill="#DAE2F0"/>
<path d="M527.599 976.766V979.997L522.973 982.68V979.449L527.599 976.766Z" fill="#BFCEE6"/>
<path d="M522.974 979.449V982.68L484.562 960.428V957.258L522.974 979.449Z" fill="white"/>
<path d="M527.6 976.766L522.974 979.449L484.562 957.258L489.128 954.575L527.6 976.766Z" fill="#DAE2F0"/>
<path d="M517.068 982.923V986.093L512.441 988.776V985.606L517.068 982.923Z" fill="#BFCEE6"/>
<path d="M512.442 985.606V988.776L474.031 966.585V963.354L512.442 985.606Z" fill="white"/>
<path d="M517.069 982.923L512.442 985.606L474.031 963.354L478.597 960.671L517.069 982.923Z" fill="#DAE2F0"/>
<path d="M506.537 989.081V992.251L501.91 994.934V991.702L506.537 989.081Z" fill="#BFCEE6"/>
<path d="M501.911 991.702V994.933L463.5 972.681V969.511L501.911 991.702Z" fill="white"/>
<path d="M506.537 989.081L501.911 991.702L463.5 969.511L468.065 966.829L506.537 989.081Z" fill="#DAE2F0"/>
<path d="M496.251 993.836L496.19 997.006L491.625 999.689V996.457L496.251 993.836Z" fill="#BFCEE6"/>
<path d="M491.624 996.457V999.688L453.152 977.436L453.213 974.266L491.624 996.457Z" fill="white"/>
<path d="M496.252 993.836L491.626 996.457L453.215 974.266L457.78 971.584L496.252 993.836Z" fill="#DAE2F0"/>
<path d="M485.72 999.933L485.659 1003.16L481.094 1005.79V1002.62L485.72 999.933Z" fill="#BFCEE6"/>
<path d="M481.093 1002.61V1005.78L442.621 983.594L442.682 980.363L481.093 1002.61Z" fill="white"/>
<path d="M485.721 999.933L481.095 1002.62L442.684 980.363L447.249 977.681L485.721 999.933Z" fill="#DAE2F0"/>
<path d="M475.189 1006.09L475.128 1009.26L470.562 1011.94V1008.71L475.189 1006.09Z" fill="#BFCEE6"/>
<path d="M470.562 1008.71V1011.94L432.09 989.69L432.151 986.52L470.562 1008.71Z" fill="white"/>
<path d="M475.19 1006.09L470.563 1008.71L432.152 986.52L436.718 983.838L475.19 1006.09Z" fill="#DAE2F0"/>
<path d="M464.658 1012.19L464.597 1015.42L460.031 1018.04V1014.87L464.658 1012.19Z" fill="#BFCEE6"/>
<path d="M460.031 1014.87V1018.04L421.559 995.848V992.678L460.031 1014.87Z" fill="white"/>
<path d="M464.657 1012.19L460.031 1014.87L421.559 992.678L426.185 989.995L464.657 1012.19Z" fill="#DAE2F0"/>
<path d="M454.065 1018.34V1021.51L449.5 1024.2V1021.03L454.065 1018.34Z" fill="#BFCEE6"/>
<path d="M449.499 1021.03V1024.2L411.027 1002.01V998.774L449.499 1021.03Z" fill="white"/>
<path d="M454.065 1018.34L449.499 1021.03L411.027 998.774L415.654 996.092L454.065 1018.34Z" fill="#DAE2F0"/>
<path d="M443.595 1024.44L443.534 1027.67L438.969 1030.35V1027.12L443.595 1024.44Z" fill="#BFCEE6"/>
<path d="M438.968 1027.12V1030.35L400.496 1008.1V1004.93L438.968 1027.12Z" fill="white"/>
<path d="M443.594 1024.44L438.968 1027.12L400.496 1004.93L405.122 1002.25L443.594 1024.44Z" fill="#DAE2F0"/>
<path d="M433.003 1030.6V1033.77L428.438 1036.45V1033.28L433.003 1030.6Z" fill="#BFCEE6"/>
<path d="M428.437 1033.28V1036.45L389.965 1014.26V1011.03L428.437 1033.28Z" fill="white"/>
<path d="M433.002 1030.6L428.437 1033.28L389.965 1011.03L394.591 1008.35L433.002 1030.6Z" fill="#DAE2F0"/>
<path d="M422.472 1036.69V1039.92L417.906 1042.61V1039.38L422.472 1036.69Z" fill="#BFCEE6"/>
<path d="M417.906 1039.38V1042.61L379.434 1020.36V1017.19L417.906 1039.38Z" fill="white"/>
<path d="M422.471 1036.69L417.906 1039.38L379.434 1017.19L384.06 1014.5L422.471 1036.69Z" fill="#DAE2F0"/>
<path d="M411.94 1042.85V1046.02L407.375 1048.7V1045.53L411.94 1042.85Z" fill="#BFCEE6"/>
<path d="M407.374 1045.53V1048.7L368.902 1026.51V1023.28L407.374 1045.53Z" fill="white"/>
<path d="M411.94 1042.85L407.374 1045.53L368.902 1023.28L373.529 1020.6L411.94 1042.85Z" fill="#DAE2F0"/>
<path d="M401.409 1048.95V1052.18L396.844 1054.86V1051.63L401.409 1048.95Z" fill="#BFCEE6"/>
<path d="M396.843 1051.63V1054.86L358.371 1032.61V1029.44L396.843 1051.63Z" fill="white"/>
<path d="M401.409 1048.95L396.843 1051.63L358.371 1029.44L362.997 1026.76L401.409 1048.95Z" fill="#DAE2F0"/>
<path d="M390.882 1055.11V1058.28L386.316 1060.96V1057.79L390.882 1055.11Z" fill="#BFCEE6"/>
<path d="M386.316 1057.79V1060.96L347.844 1038.77V1035.54L386.316 1057.79Z" fill="white"/>
<path d="M390.881 1055.11L386.316 1057.79L347.844 1035.54L352.47 1032.85L390.881 1055.11Z" fill="#DAE2F0"/>
<path d="M380.351 1061.26V1064.43L375.785 1067.12V1063.88L380.351 1061.26Z" fill="#BFCEE6"/>
<path d="M375.784 1063.88V1067.12L337.312 1044.86V1041.69L375.784 1063.88Z" fill="white"/>
<path d="M380.35 1061.26L375.784 1063.88L337.312 1041.69L341.939 1039.01L380.35 1061.26Z" fill="#DAE2F0"/>
<path d="M369.819 1067.36V1070.59L365.254 1073.27V1070.04L369.819 1067.36Z" fill="#BFCEE6"/>
<path d="M365.253 1070.04V1073.27L326.781 1051.02V1047.79L365.253 1070.04Z" fill="white"/>
<path d="M369.819 1067.36L365.253 1070.04L326.781 1047.79L331.408 1045.17L369.819 1067.36Z" fill="#DAE2F0"/>
<path d="M359.288 1073.52V1076.69L354.723 1079.37V1076.2L359.288 1073.52Z" fill="#BFCEE6"/>
<path d="M354.722 1076.2V1079.37L316.25 1057.12V1053.95L354.722 1076.2Z" fill="white"/>
<path d="M359.287 1073.52L354.722 1076.2L316.25 1053.95L320.876 1051.26L359.287 1073.52Z" fill="#DAE2F0"/>
<path d="M348.757 1079.61V1082.84L344.191 1085.47V1082.3L348.757 1079.61Z" fill="#BFCEE6"/>
<path d="M344.191 1082.3V1085.47L305.719 1063.27V1060.1L344.191 1082.3Z" fill="white"/>
<path d="M348.756 1079.61L344.191 1082.3L305.719 1060.1L310.345 1057.42L348.756 1079.61Z" fill="#DAE2F0"/>
<path d="M333.659 1088.45V1091.62L295.188 1069.43V1066.2L333.659 1088.45Z" fill="white"/>
<path d="M338.225 1085.77L333.659 1088.45L295.188 1066.2L299.814 1063.52L338.225 1085.77Z" fill="#DAE2F0"/>
<path d="M323.128 1094.55L323.067 1097.78L284.656 1075.53V1072.36L323.128 1094.55Z" fill="white"/>
<path d="M327.694 1091.87L323.128 1094.55L284.656 1072.36L289.283 1069.68L327.694 1091.87Z" fill="#DAE2F0"/>
<path d="M312.597 1100.71L312.536 1103.88L274.125 1081.69V1078.45L312.597 1100.71Z" fill="white"/>
<path d="M317.162 1098.02L312.597 1100.71L274.125 1078.45L278.751 1075.77L317.162 1098.02Z" fill="#DAE2F0"/>
<path d="M2218.5 -7.13379V-5.00004L263.531 1127.41V1125.28L2218.5 -7.13379Z" fill="#BFCEE6"/>
<path d="M2220.28 -8.20746L263.532 1125.27L262.254 1124.54L2219 -9L2220.28 -8.20746Z" fill="#DAE2F0"/>
<path d="M2225.25 -45.1338V-43L270.277 1089.41V1087.28L2225.25 -45.1338Z" fill="#BFCEE6"/>
<path d="M2227.02 -46.2075L270.278 1087.27L269 1086.54L2225.75 -47L2227.02 -46.2075Z" fill="#DAE2F0"/>
<g style="mix-blend-mode:multiply" opacity="0.4" filter="url(#filter0_f_1875_36652)">
<path d="M1715.97 193L1735.17 203.889L1730.37 207L1711.17 196.5L1715.97 193Z" fill="url(#paint0_linear_1875_36652)"/>
</g>
<g style="mix-blend-mode:multiply" opacity="0.4" filter="url(#filter1_f_1875_36652)">
<path d="M1633.97 240L1653.17 250.889L1648.37 254L1629.17 243.5L1633.97 240Z" fill="url(#paint1_linear_1875_36652)"/>
</g>
<path d="M1711.38 196.155L1715.94 198.814V102.716L1711.39 105.389L1711.38 196.155Z" fill="#E6EEF9"/>
<path d="M1629 243.568L1633.55 246.274V145.178L1629 142.576L1629 243.568Z" fill="#ECF2FA"/>
<path d="M1633.55 246.211L1638.1 243.568V147.885L1633.55 145.283L1633.55 246.211Z" fill="#B4C5E1"/>
<path d="M1633.7 145.174L1720.5 94.7388V196.155L1715.94 198.814V129.387L1633.7 177.113L1633.7 145.174Z" fill="#B4C5E1"/>
<path d="M1716.08 92L1720.64 94.6593L1633.56 145.231L1629 142.572L1716.08 92Z" fill="#E2EBF7"/>
<path d="M1638.61 169.196L1715.94 124.069V102.629L1638.61 147.886V169.196Z" fill="white"/>
<path d="M1644.56 159.463L1644.56 152.463L1645.6 151.863L1645.6 154.743L1648.54 153.043L1648.54 150.163L1649.58 149.563L1649.58 156.563L1648.54 157.163L1648.54 154.083L1645.6 155.783L1645.6 158.863L1644.56 159.463ZM1653.61 154.349C1653.24 154.563 1652.89 154.699 1652.55 154.759C1652.22 154.816 1651.93 154.779 1651.67 154.649C1651.41 154.513 1651.2 154.264 1651.05 153.904C1650.91 153.534 1650.84 153.029 1650.84 152.389L1650.84 152.189C1650.84 151.576 1650.91 151.011 1651.05 150.494C1651.2 149.968 1651.41 149.489 1651.67 149.059C1651.93 148.629 1652.22 148.256 1652.55 147.939C1652.89 147.613 1653.24 147.343 1653.61 147.129C1653.98 146.916 1654.33 146.781 1654.65 146.724C1654.99 146.658 1655.29 146.689 1655.55 146.819C1655.81 146.949 1656.01 147.193 1656.15 147.549C1656.3 147.896 1656.38 148.376 1656.38 148.989L1656.38 149.189C1656.38 149.829 1656.3 150.419 1656.15 150.959C1656.01 151.489 1655.81 151.973 1655.55 152.409C1655.29 152.839 1654.99 153.218 1654.65 153.544C1654.33 153.868 1653.98 154.136 1653.61 154.349ZM1653.61 153.289C1653.9 153.123 1654.17 152.886 1654.42 152.579C1654.67 152.273 1654.88 151.893 1655.04 151.439C1655.21 150.979 1655.29 150.439 1655.29 149.819L1655.29 149.619C1655.29 149.033 1655.21 148.613 1655.04 148.359C1654.88 148.099 1654.67 147.966 1654.42 147.959C1654.17 147.946 1653.9 148.023 1653.61 148.189C1653.32 148.356 1653.04 148.594 1652.78 148.904C1652.53 149.204 1652.32 149.578 1652.16 150.024C1652 150.461 1651.93 150.973 1651.93 151.559L1651.93 151.759C1651.93 152.379 1652 152.828 1652.16 153.104C1652.32 153.371 1652.53 153.511 1652.78 153.524C1653.04 153.534 1653.32 153.456 1653.61 153.289ZM1657.63 151.914L1657.63 144.914L1660.06 143.514C1660.75 143.118 1661.25 142.998 1661.57 143.154C1661.89 143.308 1662.05 143.668 1662.05 144.234C1662.05 144.594 1661.97 144.951 1661.81 145.304C1661.65 145.651 1661.42 145.963 1661.14 146.239C1661.5 146.126 1661.78 146.153 1661.99 146.319C1662.2 146.476 1662.31 146.781 1662.31 147.234C1662.31 147.621 1662.24 148.006 1662.09 148.389C1661.95 148.773 1661.72 149.138 1661.41 149.484C1661.1 149.831 1660.69 150.148 1660.2 150.434L1657.63 151.914ZM1658.67 150.274L1660.08 149.459C1660.54 149.199 1660.84 148.938 1661.01 148.674C1661.18 148.408 1661.27 148.101 1661.27 147.754C1661.27 147.414 1661.18 147.204 1661.01 147.124C1660.84 147.038 1660.53 147.124 1660.08 147.384L1658.67 148.194L1658.67 150.274ZM1658.67 147.234L1659.93 146.509C1660.33 146.276 1660.61 146.028 1660.77 145.764C1660.93 145.498 1661.01 145.218 1661.01 144.924C1661.01 144.624 1660.93 144.443 1660.78 144.379C1660.62 144.309 1660.34 144.393 1659.93 144.629L1658.67 145.354L1658.67 147.234ZM1665.9 147.25C1665.53 147.463 1665.18 147.6 1664.85 147.66C1664.52 147.716 1664.22 147.68 1663.96 147.55C1663.7 147.413 1663.5 147.165 1663.35 146.805C1663.2 146.435 1663.13 145.93 1663.13 145.29L1663.13 145.09C1663.13 144.476 1663.2 143.911 1663.35 143.395C1663.5 142.868 1663.7 142.39 1663.96 141.96C1664.22 141.53 1664.52 141.156 1664.85 140.84C1665.18 140.513 1665.53 140.243 1665.9 140.03C1666.27 139.816 1666.62 139.681 1666.95 139.625C1667.29 139.558 1667.58 139.59 1667.84 139.72C1668.1 139.85 1668.31 140.093 1668.45 140.45C1668.6 140.796 1668.67 141.276 1668.67 141.89L1668.67 142.09C1668.67 142.73 1668.6 143.32 1668.45 143.86C1668.31 144.39 1668.1 144.873 1667.84 145.31C1667.58 145.74 1667.29 146.118 1666.95 146.445C1666.62 146.768 1666.27 147.036 1665.9 147.25ZM1665.9 146.19C1666.19 146.023 1666.46 145.786 1666.72 145.48C1666.97 145.173 1667.18 144.793 1667.34 144.34C1667.5 143.88 1667.58 143.34 1667.58 142.72L1667.58 142.52C1667.58 141.933 1667.5 141.513 1667.34 141.26C1667.18 141 1666.97 140.866 1666.72 140.86C1666.46 140.846 1666.19 140.923 1665.9 141.09C1665.62 141.256 1665.34 141.495 1665.08 141.805C1664.83 142.105 1664.62 142.478 1664.46 142.925C1664.3 143.361 1664.22 143.873 1664.22 144.46L1664.22 144.66C1664.22 145.28 1664.3 145.728 1664.46 146.005C1664.62 146.271 1664.83 146.411 1665.08 146.425C1665.34 146.435 1665.62 146.356 1665.9 146.19ZM1672.27 143.575C1671.77 143.861 1671.33 144 1670.93 143.99C1670.53 143.973 1670.21 143.773 1669.97 143.39C1669.74 142.996 1669.63 142.38 1669.63 141.54L1669.63 141.34C1669.63 140.733 1669.7 140.173 1669.84 139.66C1669.97 139.14 1670.16 138.671 1670.4 138.255C1670.64 137.835 1670.92 137.466 1671.24 137.15C1671.56 136.83 1671.91 136.565 1672.27 136.355C1672.6 136.161 1672.92 136.031 1673.2 135.965C1673.49 135.891 1673.75 135.888 1673.97 135.955C1674.19 136.021 1674.36 136.16 1674.49 136.37C1674.63 136.58 1674.71 136.87 1674.74 137.24L1673.65 137.87C1673.57 137.48 1673.41 137.256 1673.16 137.2C1672.92 137.14 1672.62 137.211 1672.27 137.415C1672.01 137.561 1671.77 137.78 1671.53 138.07C1671.3 138.353 1671.1 138.713 1670.94 139.15C1670.79 139.583 1670.72 140.103 1670.72 140.71L1670.72 140.91C1670.72 141.39 1670.76 141.766 1670.86 142.04C1670.95 142.306 1671.07 142.49 1671.22 142.59C1671.38 142.686 1671.54 142.726 1671.72 142.71C1671.91 142.683 1672.09 142.618 1672.27 142.515C1672.68 142.275 1673.01 141.98 1673.23 141.63C1673.46 141.27 1673.6 140.883 1673.65 140.47L1674.74 139.84C1674.7 140.273 1674.62 140.676 1674.48 141.05C1674.34 141.42 1674.17 141.763 1673.94 142.08C1673.72 142.386 1673.47 142.665 1673.19 142.915C1672.9 143.165 1672.6 143.385 1672.27 143.575ZM1675.91 141.362L1675.91 134.362L1676.95 133.762L1676.95 138.862L1679.93 132.042L1680.93 131.462L1680.93 138.462L1679.89 139.062L1679.89 133.962L1676.91 140.782L1675.91 141.362ZM1682.49 137.564L1682.49 130.564L1686.6 128.189L1686.6 129.229L1683.53 131.004L1683.53 132.604L1684.78 131.879C1685.6 131.409 1686.2 131.262 1686.59 131.439C1686.97 131.609 1687.17 132.024 1687.17 132.684C1687.17 133.344 1686.97 133.985 1686.59 134.609C1686.2 135.225 1685.6 135.769 1684.78 136.239L1682.49 137.564ZM1683.53 135.924L1684.7 135.249C1685.25 134.932 1685.62 134.619 1685.82 134.309C1686.03 133.999 1686.13 133.654 1686.13 133.274C1686.13 132.9 1686.03 132.679 1685.82 132.609C1685.62 132.532 1685.25 132.652 1684.7 132.969L1683.53 133.644L1683.53 135.924ZM1688.29 134.214L1688.29 127.214L1689.33 126.614L1689.33 131.714L1692.31 124.894L1693.31 124.314L1693.31 131.314L1692.28 131.914L1692.28 126.814L1689.3 133.634L1688.29 134.214ZM1694.87 130.415L1694.87 123.415L1697.08 122.14C1697.62 121.827 1698.07 121.662 1698.42 121.645C1698.77 121.622 1699.03 121.729 1699.2 121.965C1699.37 122.199 1699.46 122.542 1699.46 122.995C1699.46 123.449 1699.37 123.892 1699.2 124.325C1699.03 124.755 1698.77 125.165 1698.42 125.555C1698.07 125.939 1697.62 126.287 1697.08 126.6L1695.91 127.275L1695.91 129.815L1694.87 130.415ZM1695.91 126.235L1696.99 125.61C1697.54 125.294 1697.92 124.98 1698.12 124.67C1698.32 124.354 1698.42 123.995 1698.42 123.595C1698.42 123.202 1698.32 122.964 1698.12 122.88C1697.92 122.797 1697.54 122.914 1696.99 123.23L1695.91 123.855L1695.91 126.235ZM1702.93 125.874C1702.43 126.161 1701.98 126.299 1701.58 126.289C1701.19 126.273 1700.87 126.073 1700.63 125.689C1700.4 125.296 1700.29 124.679 1700.29 123.839L1700.29 123.639C1700.29 123.033 1700.35 122.473 1700.49 121.959C1700.63 121.439 1700.82 120.971 1701.06 120.554C1701.3 120.134 1701.58 119.766 1701.9 119.449C1702.22 119.129 1702.56 118.864 1702.93 118.654C1703.26 118.461 1703.57 118.331 1703.86 118.264C1704.15 118.191 1704.4 118.188 1704.62 118.254C1704.84 118.321 1705.02 118.459 1705.15 118.669C1705.29 118.879 1705.37 119.169 1705.39 119.539L1704.3 120.169C1704.23 119.779 1704.07 119.556 1703.82 119.499C1703.58 119.439 1703.28 119.511 1702.93 119.714C1702.67 119.861 1702.43 120.079 1702.19 120.369C1701.95 120.653 1701.76 121.013 1701.6 121.449C1701.45 121.883 1701.38 122.403 1701.38 123.009L1701.38 123.209C1701.38 123.689 1701.42 124.066 1701.51 124.339C1701.61 124.606 1701.73 124.789 1701.88 124.889C1702.03 124.986 1702.2 125.026 1702.38 125.009C1702.57 124.983 1702.75 124.918 1702.93 124.814C1703.34 124.574 1703.66 124.279 1703.89 123.929C1704.12 123.569 1704.26 123.183 1704.3 122.769L1705.39 122.139C1705.36 122.573 1705.27 122.976 1705.13 123.349C1705 123.719 1704.82 124.063 1704.6 124.379C1704.38 124.686 1704.13 124.964 1703.84 125.214C1703.56 125.464 1703.26 125.684 1702.93 125.874ZM1706.57 123.662L1706.57 116.662L1707.61 116.062L1707.61 118.992L1708.21 118.642L1710.41 114.442L1711.59 113.762L1709.04 118.567L1711.68 120.712L1710.41 121.442L1708.21 119.582L1707.61 119.932L1707.61 123.062L1706.57 123.662Z" fill="#14182E"/>
<g style="mix-blend-mode:multiply" opacity="0.4" filter="url(#filter2_f_1875_36652)">
<path d="M932.968 652L952.168 662.889L947.368 666L928.168 655.5L932.968 652Z" fill="url(#paint2_linear_1875_36652)"/>
</g>
<g style="mix-blend-mode:multiply" opacity="0.4" filter="url(#filter3_f_1875_36652)">
<path d="M850.968 699L870.168 709.889L865.368 713L846.168 702.5L850.968 699Z" fill="url(#paint3_linear_1875_36652)"/>
</g>
<path d="M928.383 655.155L932.939 657.814V561.716L928.389 564.389L928.383 655.155Z" fill="#E6EEF9"/>
<path d="M846 702.568L850.55 705.274V604.178L846 601.576L846 702.568Z" fill="#ECF2FA"/>
<path d="M850.547 705.211L855.097 702.568V606.885L850.547 604.283L850.547 705.211Z" fill="#B4C5E1"/>
<path d="M850.695 604.174L937.503 553.739V655.155L932.943 657.814V588.387L850.695 636.113L850.695 604.174Z" fill="#B4C5E1"/>
<path d="M933.077 551L937.637 553.659L850.556 604.231L846 601.572L933.077 551Z" fill="#E2EBF7"/>
<path d="M855.605 628.196L932.94 583.069V561.629L855.605 606.886V628.196Z" fill="white"/>
<path d="M876.324 609.939L876.324 602.939L877.398 602.319L879.329 605.354L881.26 600.089L882.299 599.489L882.299 606.489L881.26 607.089L881.26 602.189L879.658 606.564L878.965 606.964L877.363 604.439L877.363 609.339L876.324 609.939ZM886.327 604.273C885.958 604.486 885.606 604.623 885.271 604.683C884.942 604.74 884.647 604.703 884.388 604.573C884.128 604.436 883.923 604.188 883.773 603.828C883.628 603.458 883.556 602.953 883.556 602.313L883.556 602.113C883.556 601.5 883.628 600.935 883.773 600.418C883.923 599.891 884.128 599.413 884.388 598.983C884.647 598.553 884.942 598.18 885.271 597.863C885.606 597.536 885.958 597.266 886.327 597.053C886.697 596.84 887.046 596.705 887.375 596.648C887.71 596.581 888.008 596.613 888.267 596.743C888.527 596.873 888.729 597.116 888.874 597.473C889.024 597.82 889.099 598.3 889.099 598.913L889.099 599.113C889.099 599.753 889.024 600.343 888.874 600.883C888.729 601.413 888.527 601.896 888.267 602.333C888.008 602.763 887.71 603.141 887.375 603.468C887.046 603.791 886.697 604.06 886.327 604.273ZM886.327 603.213C886.616 603.046 886.887 602.81 887.141 602.503C887.396 602.196 887.603 601.816 887.765 601.363C887.927 600.903 888.008 600.363 888.008 599.743L888.008 599.543C888.008 598.956 887.927 598.536 887.765 598.283C887.603 598.023 887.396 597.89 887.141 597.883C886.887 597.87 886.616 597.946 886.327 598.113C886.039 598.28 885.765 598.518 885.505 598.828C885.251 599.128 885.043 599.501 884.881 599.948C884.725 600.385 884.647 600.896 884.647 601.483L884.647 601.683C884.647 602.303 884.725 602.751 884.881 603.028C885.043 603.295 885.251 603.435 885.505 603.448C885.765 603.458 886.039 603.38 886.327 603.213ZM892.693 600.598C892.196 600.885 891.749 601.023 891.35 601.013C890.952 600.996 890.634 600.796 890.398 600.413C890.167 600.02 890.051 599.403 890.051 598.563L890.051 598.363C890.051 597.756 890.121 597.196 890.259 596.683C890.398 596.163 890.585 595.695 890.822 595.278C891.065 594.858 891.345 594.49 891.662 594.173C891.985 593.853 892.329 593.588 892.693 593.378C893.028 593.185 893.339 593.055 893.628 592.988C893.917 592.915 894.171 592.911 894.39 592.978C894.61 593.045 894.786 593.183 894.918 593.393C895.051 593.603 895.132 593.893 895.161 594.263L894.07 594.893C893.995 594.503 893.833 594.28 893.585 594.223C893.342 594.163 893.045 594.235 892.693 594.438C892.439 594.585 892.193 594.803 891.957 595.093C891.72 595.376 891.524 595.736 891.368 596.173C891.218 596.606 891.143 597.126 891.143 597.733L891.143 597.933C891.143 598.413 891.189 598.79 891.281 599.063C891.373 599.33 891.495 599.513 891.645 599.613C891.801 599.71 891.968 599.75 892.147 599.733C892.332 599.706 892.514 599.641 892.693 599.538C893.108 599.298 893.429 599.003 893.654 598.653C893.885 598.293 894.023 597.906 894.07 597.493L895.161 596.863C895.126 597.296 895.04 597.7 894.901 598.073C894.768 598.443 894.589 598.786 894.364 599.103C894.145 599.41 893.894 599.688 893.611 599.938C893.328 600.188 893.022 600.408 892.693 600.598ZM896.334 598.386L896.334 591.386L897.373 590.786L897.373 593.716L897.979 593.366L900.179 589.166L901.357 588.486L898.802 593.291L901.443 595.436L900.179 596.166L897.979 594.306L897.373 594.656L897.373 597.786L896.334 598.386ZM902.44 594.861L902.44 587.861L904.865 586.461C905.552 586.064 906.054 585.944 906.372 586.101C906.695 586.254 906.857 586.614 906.857 587.181C906.857 587.541 906.776 587.897 906.614 588.251C906.452 588.597 906.23 588.909 905.947 589.186C906.305 589.072 906.588 589.099 906.796 589.266C907.01 589.422 907.116 589.727 907.116 590.181C907.116 590.567 907.044 590.952 906.9 591.336C906.756 591.719 906.528 592.084 906.216 592.431C905.904 592.777 905.5 593.094 905.003 593.381L902.44 594.861ZM903.479 593.221L904.891 592.406C905.341 592.146 905.65 591.884 905.817 591.621C905.991 591.354 906.077 591.047 906.077 590.701C906.077 590.361 905.991 590.151 905.817 590.071C905.644 589.984 905.332 590.071 904.882 590.331L903.479 591.141L903.479 593.221ZM903.479 590.181L904.735 589.456C905.139 589.222 905.419 588.974 905.575 588.711C905.737 588.444 905.817 588.164 905.817 587.871C905.817 587.571 905.739 587.389 905.584 587.326C905.428 587.256 905.145 587.339 904.735 587.576L903.479 588.301L903.479 590.181ZM907.507 591.935L909.802 583.61L910.842 583.01L913.137 588.685L912.028 589.325L911.517 588.04L909.058 589.46L908.547 591.335L907.507 591.935ZM909.395 588.225L911.179 587.195L910.296 584.825L909.395 588.225Z" fill="#14182E"/>
</g>
</g>
<defs>
<filter id="filter0_f_1875_36652" x="1709.17" y="191" width="28" height="18" filterUnits="userSpaceOnUse" color-interpolation-filters="sRGB">
<feFlood flood-opacity="0" result="BackgroundImageFix"/>
<feBlend mode="normal" in="SourceGraphic" in2="BackgroundImageFix" result="shape"/>
<feGaussianBlur stdDeviation="1" result="effect1_foregroundBlur_1875_36652"/>
</filter>
<filter id="filter1_f_1875_36652" x="1627.17" y="238" width="28" height="18" filterUnits="userSpaceOnUse" color-interpolation-filters="sRGB">
<feFlood flood-opacity="0" result="BackgroundImageFix"/>
<feBlend mode="normal" in="SourceGraphic" in2="BackgroundImageFix" result="shape"/>
<feGaussianBlur stdDeviation="1" result="effect1_foregroundBlur_1875_36652"/>
</filter>
<filter id="filter2_f_1875_36652" x="926.168" y="650" width="28" height="18" filterUnits="userSpaceOnUse" color-interpolation-filters="sRGB">
<feFlood flood-opacity="0" result="BackgroundImageFix"/>
<feBlend mode="normal" in="SourceGraphic" in2="BackgroundImageFix" result="shape"/>
<feGaussianBlur stdDeviation="1" result="effect1_foregroundBlur_1875_36652"/>
</filter>
<filter id="filter3_f_1875_36652" x="844.168" y="697" width="28" height="18" filterUnits="userSpaceOnUse" color-interpolation-filters="sRGB">
<feFlood flood-opacity="0" result="BackgroundImageFix"/>
<feBlend mode="normal" in="SourceGraphic" in2="BackgroundImageFix" result="shape"/>
<feGaussianBlur stdDeviation="1" result="effect1_foregroundBlur_1875_36652"/>
</filter>
<linearGradient id="paint0_linear_1875_36652" x1="1732.37" y1="207.389" x2="1720.88" y2="188.032" gradientUnits="userSpaceOnUse">
<stop stop-color="#0E3390" stop-opacity="0"/>
<stop offset="1" stop-color="#0E3390" stop-opacity="0.79"/>
</linearGradient>
<linearGradient id="paint1_linear_1875_36652" x1="1650.37" y1="254.389" x2="1638.88" y2="235.032" gradientUnits="userSpaceOnUse">
<stop stop-color="#0E3390" stop-opacity="0"/>
<stop offset="1" stop-color="#0E3390" stop-opacity="0.79"/>
</linearGradient>
<linearGradient id="paint2_linear_1875_36652" x1="949.368" y1="666.389" x2="937.876" y2="647.032" gradientUnits="userSpaceOnUse">
<stop stop-color="#0E3390" stop-opacity="0"/>
<stop offset="1" stop-color="#0E3390" stop-opacity="0.79"/>
</linearGradient>
<linearGradient id="paint3_linear_1875_36652" x1="867.368" y1="713.389" x2="855.876" y2="694.032" gradientUnits="userSpaceOnUse">
<stop stop-color="#0E3390" stop-opacity="0"/>
<stop offset="1" stop-color="#0E3390" stop-opacity="0.79"/>
</linearGradient>
<clipPath id="clip0_1875_36652">
<rect width="1920" height="1080" fill="white"/>
</clipPath>
<clipPath id="clip1_1875_36652">
<rect width="1920" height="1752" fill="white"/>
</clipPath>
</defs>
</svg>
