<svg width="279" height="184" viewBox="0 0 279 184" fill="none" xmlns="http://www.w3.org/2000/svg">
<g filter="url(#filter0_f_684_29195)">
<path d="M2.5 88.1547L120.034 18.6129L276.5 114.647L161.17 181.613L2.5 88.1547Z" fill="url(#paint0_linear_684_29195)"/>
</g>
<path d="M96.7544 128.64L1.45703 73.3529L115.904 7.24356L211.336 62.3639L96.7544 128.64Z" fill="#E2EBF7"/>
<path d="M211.336 77.3591L211.032 62.5618L96.75 128.635V143.365L211.336 77.3591Z" fill="#B4C5E1"/>
<path d="M1.45724 88.3661L1 73.3529L96.7501 128.635V143.365L1.45724 88.3661Z" fill="white"/>
<path d="M115.904 0L90.375 14.7794L185.596 69.9222L211.031 55.1968L115.904 0Z" fill="#E2EBF7"/>
<path d="M211.032 62.5617V55.1968L185.597 69.9222L173.01 84.4723L211.032 62.5617Z" fill="#B4C5E1"/>
<path d="M67.6172 38.5514L80.1508 31.2944L96.8667 40.9749L84.3555 48.2635L67.6172 38.5514Z" fill="#E2EBF7"/>
<path d="M96.8662 45.813V40.9749L84.355 48.2635L84.3281 53.07L96.8662 45.813Z" fill="#B4C5E1"/>
<path d="M67.6172 43.3895V38.5515L84.3555 48.2635L84.3286 53.07L67.6172 43.3895Z" fill="white"/>
<path d="M88.498 50.6825L101.032 43.4254L117.743 53.106L105.236 60.399L88.498 50.6825Z" fill="#E2EBF7"/>
<path d="M117.743 57.9441V53.106L105.236 60.399L105.209 65.2056L117.743 57.9441Z" fill="#B4C5E1"/>
<path d="M88.498 55.525V50.6825L105.236 60.399L105.209 65.2056L88.498 55.525Z" fill="white"/>
<path d="M109.512 62.7686L122.045 55.5115L138.757 65.1876L126.25 72.4806L109.512 62.7686Z" fill="#E2EBF7"/>
<path d="M138.758 70.0301V65.1876L126.252 72.4806L126.225 77.2872L138.758 70.0301Z" fill="#B4C5E1"/>
<path d="M109.512 67.6066V62.7686L126.25 72.4806L126.223 77.2872L109.512 67.6066Z" fill="white"/>
<path d="M130.428 74.9086L142.957 67.6471L159.673 77.3277L147.162 84.6207L130.428 74.9086Z" fill="#E2EBF7"/>
<path d="M159.674 82.1657V77.3276L147.163 84.6207L147.141 89.4272L159.674 82.1657Z" fill="#B4C5E1"/>
<path d="M130.428 79.7467V74.9086L147.162 84.6207L147.139 89.4272L130.428 79.7467Z" fill="white"/>
<path d="M34.0605 57.9845L46.5897 50.7275L63.3056 60.408L50.7944 67.7011L34.0605 57.9845Z" fill="#E2EBF7"/>
<path d="M63.3051 65.2461V60.408L50.7939 67.701L50.7715 72.5076L63.3051 65.2461Z" fill="#B4C5E1"/>
<path d="M34.0605 62.827V57.9845L50.7944 67.701L50.772 72.5076L34.0605 62.827Z" fill="white"/>
<path d="M54.9355 70.12L67.4691 62.863L84.1851 72.5391L71.6739 79.8321L54.9355 70.12Z" fill="#E2EBF7"/>
<path d="M84.1846 77.3816V72.5391L71.6734 79.8321L71.6465 84.6387L84.1846 77.3816Z" fill="#B4C5E1"/>
<path d="M54.9355 74.9581V70.1201L71.6739 79.8321L71.647 84.6387L54.9355 74.9581Z" fill="white"/>
<path d="M17.4883 67.5077L30.0174 60.2507L46.7333 69.9268L34.2221 77.2198L17.4883 67.5077Z" fill="#E2EBF7"/>
<path d="M46.7328 74.7692V69.9267L34.2216 77.2197L34.1992 82.0263L46.7328 74.7692Z" fill="#B4C5E1"/>
<path d="M17.4883 72.3457V67.5077L34.2221 77.2197L34.1997 82.0263L17.4883 72.3457Z" fill="white"/>
<path d="M38.3672 79.6388L50.8963 72.3817L67.6122 82.0623L55.101 89.3508L38.3672 79.6388Z" fill="#E2EBF7"/>
<path d="M67.6123 86.9003V82.0623L55.1011 89.3508L55.0742 94.1573L67.6123 86.9003Z" fill="#B4C5E1"/>
<path d="M38.3672 84.4813V79.6387L55.101 89.3508L55.0741 94.1573L38.3672 84.4813Z" fill="white"/>
<path d="M59.3789 91.7248L88.485 74.9446L126.113 96.7652L97.0335 113.572L59.3789 91.7248Z" fill="#5F5DCA"/>
<path d="M59.3691 96.5809L59.3781 91.7249L97.0326 113.572L97.0057 118.384L59.3691 96.5809Z" fill="#2B298F"/>
<path d="M126.112 101.603V96.7652L97.0328 113.572L97.0059 118.383L126.112 101.603Z" fill="#201F78"/>
<path d="M50.8379 48.2185L63.3715 40.9614L80.0829 50.642L67.5762 57.9305L50.8379 48.2185Z" fill="#E2EBF7"/>
<path d="M80.0844 55.4801V50.642L67.5777 57.9306L67.5508 62.7371L80.0844 55.4801Z" fill="#B4C5E1"/>
<path d="M50.8379 53.061V48.2185L67.5762 57.9306L67.5493 62.7371L50.8379 53.061Z" fill="white"/>
<path d="M71.7188 60.3496L84.2523 53.0925L100.964 62.7731L88.4571 70.0661L71.7188 60.3496Z" fill="#E2EBF7"/>
<path d="M100.963 67.6111V62.7731L88.4566 70.0661L88.4297 74.8727L100.963 67.6111Z" fill="#B4C5E1"/>
<path d="M71.7188 65.1921V60.3495L88.4571 70.0661L88.4302 74.8727L71.7188 65.1921Z" fill="white"/>
<path d="M92.7344 72.4356L105.268 65.1786L121.979 74.8592L109.473 82.1477L92.7344 72.4356Z" fill="#E2EBF7"/>
<path d="M121.979 79.6972V74.8592L109.472 82.1477L109.445 86.9543L121.979 79.6972Z" fill="#B4C5E1"/>
<path d="M92.7344 77.2737V72.4357L109.473 82.1477L109.446 86.9543L92.7344 77.2737Z" fill="white"/>
<path d="M113.65 84.5757L126.179 77.3187L142.895 86.9947L130.384 94.2878L113.65 84.5757Z" fill="#E2EBF7"/>
<path d="M142.895 91.8373V86.9948L130.384 94.2878L130.357 99.0943L142.895 91.8373Z" fill="#B4C5E1"/>
<path d="M113.65 89.4137V84.5757L130.384 94.2877L130.357 99.0943L113.65 89.4137Z" fill="white"/>
<path d="M116.631 7.34698L103.914 14.5051L186.57 62.5752L199.288 55.2148L116.631 7.34698Z" fill="#B4C5E1"/>
<path d="M172.879 84.6207L185.596 69.8907L90.6978 14.6355L77.5098 29.3879L172.879 84.6207Z" fill="white"/>
<defs>
<filter id="filter0_f_684_29195" x="0.5" y="16.6129" width="278" height="167" filterUnits="userSpaceOnUse" color-interpolation-filters="sRGB">
<feFlood flood-opacity="0" result="BackgroundImageFix"/>
<feBlend mode="normal" in="SourceGraphic" in2="BackgroundImageFix" result="shape"/>
<feGaussianBlur stdDeviation="1" result="effect1_foregroundBlur_684_29195"/>
</filter>
<linearGradient id="paint0_linear_684_29195" x1="87.5005" y1="35.5" x2="159.173" y2="144.386" gradientUnits="userSpaceOnUse">
<stop offset="0.03" stop-color="#0E3390"/>
<stop offset="1" stop-color="#0E3390" stop-opacity="0"/>
</linearGradient>
</defs>
</svg>
