<svg width="1920" height="1752" viewBox="0 0 1920 1752" fill="none" xmlns="http://www.w3.org/2000/svg">
<g clip-path="url(#clip0_1660_28863)">
<g style="mix-blend-mode:multiply" opacity="0.7" filter="url(#filter0_f_1660_28863)">
<path d="M1766.27 283.144L1682 330.01L1771.24 381.335L1855 333.496L1766.27 283.144Z" fill="url(#paint0_linear_1660_28863)"/>
</g>
<path d="M1787.58 299.266L1707.74 345.28V315.435L1787.58 269.421V299.266Z" fill="#CBD7EB"/>
<path d="M1709.9 316.679L1712.08 315.444V340.292L1709.9 341.549V316.679Z" fill="#B4C5E1"/>
<path d="M1714.79 313.858L1716.97 312.623V337.475L1714.79 338.728V313.858Z" fill="#B4C5E1"/>
<path d="M1719.68 311.037L1721.86 309.807V334.654L1719.68 335.912V311.037Z" fill="#B4C5E1"/>
<path d="M1724.57 308.22L1726.75 306.985V331.833L1724.57 333.09V308.22Z" fill="#B4C5E1"/>
<path d="M1729.46 305.399L1731.64 304.169V329.017L1729.46 330.27V305.399Z" fill="#B4C5E1"/>
<path d="M1734.36 302.583L1736.53 301.348V326.196L1734.36 327.453V302.583Z" fill="#B4C5E1"/>
<path d="M1739.25 299.762L1741.43 298.532V323.38L1739.25 324.632V299.762Z" fill="#B4C5E1"/>
<path d="M1744.14 296.941L1746.31 295.711V320.559L1744.14 321.816V296.941Z" fill="#B4C5E1"/>
<path d="M1749.03 294.125L1751.21 292.89V317.742L1749.03 318.995V294.125Z" fill="#B4C5E1"/>
<path d="M1753.92 291.304L1756.1 290.074V314.922L1753.92 316.174V291.304Z" fill="#B4C5E1"/>
<path d="M1758.81 288.487L1760.99 287.252V312.1L1758.81 313.358V288.487Z" fill="#B4C5E1"/>
<path d="M1763.7 285.666L1765.88 284.436V309.284L1763.7 310.537V285.666Z" fill="#B4C5E1"/>
<path d="M1768.59 282.85L1770.77 281.615V306.463L1768.59 307.72V282.85Z" fill="#B4C5E1"/>
<path d="M1773.49 280.029L1775.66 278.794V303.647L1773.49 304.9V280.029Z" fill="#B4C5E1"/>
<path d="M1778.38 277.208L1780.56 275.978V300.825L1778.38 302.083V277.208Z" fill="#B4C5E1"/>
<path d="M1783.27 274.391L1785.45 273.157V298.005L1783.27 299.262V274.391Z" fill="#B4C5E1"/>
<path d="M1761.71 254.509L1681.87 300.523L1707.77 315.444L1787.58 269.421L1761.71 254.509Z" fill="#E2EBF7"/>
<path d="M1686.16 300.51L1688.32 299.266L1709.9 311.704L1707.74 312.947L1686.16 300.51Z" fill="#CBD7EB"/>
<path d="M1691.06 297.693L1693.21 296.45L1714.79 308.883L1712.63 310.126L1691.06 297.693Z" fill="#CBD7EB"/>
<path d="M1695.94 294.872L1698.1 293.628L1719.68 306.066L1717.52 307.31L1695.94 294.872Z" fill="#CBD7EB"/>
<path d="M1700.83 292.056L1703 290.812L1724.57 303.249L1722.41 304.489L1700.83 292.056Z" fill="#CBD7EB"/>
<path d="M1705.73 289.239L1707.89 287.996L1729.46 300.429L1727.31 301.672L1705.73 289.239Z" fill="#CBD7EB"/>
<path d="M1710.61 286.418L1712.77 285.174L1734.35 297.612L1732.19 298.855L1710.61 286.418Z" fill="#CBD7EB"/>
<path d="M1715.51 283.602L1717.67 282.358L1739.24 294.791L1737.09 296.035L1715.51 283.602Z" fill="#CBD7EB"/>
<path d="M1720.4 280.781L1722.56 279.537L1744.14 291.975L1741.98 293.218L1720.4 280.781Z" fill="#CBD7EB"/>
<path d="M1725.29 277.964L1727.45 276.721L1749.03 289.158L1746.87 290.397L1725.29 277.964Z" fill="#CBD7EB"/>
<path d="M1730.18 275.144L1732.34 273.904L1753.92 286.337L1751.76 287.581L1730.18 275.144Z" fill="#CBD7EB"/>
<path d="M1735.08 272.327L1737.23 271.083L1758.81 283.521L1756.65 284.765L1735.08 272.327Z" fill="#CBD7EB"/>
<path d="M1739.97 269.511L1742.12 268.267L1763.7 280.7L1761.55 281.944L1739.97 269.511Z" fill="#CBD7EB"/>
<path d="M1744.86 266.69L1747.02 265.446L1768.59 277.883L1766.43 279.127L1744.86 266.69Z" fill="#CBD7EB"/>
<path d="M1749.75 263.874L1751.91 262.63L1773.48 275.067L1771.33 276.311L1749.75 263.874Z" fill="#CBD7EB"/>
<path d="M1754.64 261.052L1756.8 259.813L1778.37 272.246L1776.22 273.49L1754.64 261.052Z" fill="#CBD7EB"/>
<path d="M1759.53 258.236L1761.69 256.992L1783.27 269.43L1781.11 270.673L1759.53 258.236Z" fill="#CBD7EB"/>
<path d="M1681.85 330.355V300.509L1707.74 315.434V345.28L1681.85 330.355Z" fill="white"/>
<path d="M1705.33 316.615L1702.83 315.223L1702.58 340.526L1705.07 341.941L1705.33 316.615Z" fill="#E2EBF7"/>
<path d="M1700.48 313.776L1697.99 312.397L1697.77 337.898L1700.27 339.295L1700.48 313.776Z" fill="#E2EBF7"/>
<path d="M1695.63 310.932L1693.14 309.567L1692.97 335.266L1695.46 336.65L1695.63 310.932Z" fill="#E2EBF7"/>
<path d="M1690.79 308.093L1688.3 306.737L1688.17 332.639L1690.66 334.005L1690.79 308.093Z" fill="#E2EBF7"/>
<path d="M1685.94 305.255L1683.45 303.907L1683.36 330.012L1685.85 331.36L1685.94 305.255Z" fill="#E2EBF7"/>
<path d="M1787.58 268.521L1707.74 314.535V284.689L1787.58 238.675V268.521Z" fill="#CBD7EB"/>
<path d="M1709.9 285.933L1712.08 284.698V309.546L1709.9 310.803V285.933Z" fill="#B4C5E1"/>
<path d="M1714.79 283.112L1716.97 281.877V306.73L1714.79 307.983V283.112Z" fill="#B4C5E1"/>
<path d="M1719.68 280.291L1721.86 279.061V303.909L1719.68 305.166V280.291Z" fill="#B4C5E1"/>
<path d="M1724.57 277.474L1726.75 276.24V301.088L1724.57 302.345V277.474Z" fill="#B4C5E1"/>
<path d="M1729.46 274.654L1731.64 273.423V298.271L1729.46 299.524V274.654Z" fill="#B4C5E1"/>
<path d="M1734.36 271.837L1736.53 270.603V295.45L1734.36 296.708V271.837Z" fill="#B4C5E1"/>
<path d="M1739.25 269.016L1741.43 267.786V292.634L1739.25 293.887V269.016Z" fill="#B4C5E1"/>
<path d="M1744.14 266.196L1746.31 264.965V289.813L1744.14 291.07V266.196Z" fill="#B4C5E1"/>
<path d="M1749.03 263.379L1751.21 262.145V286.997L1749.03 288.25V263.379Z" fill="#B4C5E1"/>
<path d="M1753.92 260.558L1756.1 259.328V284.176L1753.92 285.429V260.558Z" fill="#B4C5E1"/>
<path d="M1758.81 257.742L1760.99 256.507V281.355L1758.81 282.612V257.742Z" fill="#B4C5E1"/>
<path d="M1763.7 254.921L1765.88 253.69V278.538L1763.7 279.791V254.921Z" fill="#B4C5E1"/>
<path d="M1768.59 252.104L1770.77 250.87V275.717L1768.59 276.975V252.104Z" fill="#B4C5E1"/>
<path d="M1773.49 249.284L1775.66 248.049V272.901L1773.49 274.154V249.284Z" fill="#B4C5E1"/>
<path d="M1778.38 246.462L1780.56 245.232V270.08L1778.38 271.337V246.462Z" fill="#B4C5E1"/>
<path d="M1783.27 243.646L1785.45 242.411V267.259L1783.27 268.516V243.646Z" fill="#B4C5E1"/>
<path d="M1761.71 223.764L1681.87 269.778L1707.77 284.698L1787.58 238.675L1761.71 223.764Z" fill="#E2EBF7"/>
<path d="M1686.16 269.764L1688.32 268.521L1709.9 280.958L1707.74 282.202L1686.16 269.764Z" fill="#CBD7EB"/>
<path d="M1691.06 266.948L1693.21 265.704L1714.79 278.137L1712.63 279.381L1691.06 266.948Z" fill="#CBD7EB"/>
<path d="M1695.94 264.127L1698.1 262.883L1719.68 275.32L1717.52 276.564L1695.94 264.127Z" fill="#CBD7EB"/>
<path d="M1700.83 261.31L1703 260.066L1724.57 272.504L1722.41 273.743L1700.83 261.31Z" fill="#CBD7EB"/>
<path d="M1705.73 258.494L1707.89 257.25L1729.46 269.683L1727.31 270.927L1705.73 258.494Z" fill="#CBD7EB"/>
<path d="M1710.61 255.673L1712.77 254.429L1734.35 266.867L1732.19 268.11L1710.61 255.673Z" fill="#CBD7EB"/>
<path d="M1715.51 252.856L1717.67 251.612L1739.24 264.045L1737.09 265.289L1715.51 252.856Z" fill="#CBD7EB"/>
<path d="M1720.4 250.035L1722.56 248.792L1744.14 261.229L1741.98 262.473L1720.4 250.035Z" fill="#CBD7EB"/>
<path d="M1725.29 247.219L1727.45 245.975L1749.03 258.413L1746.87 259.652L1725.29 247.219Z" fill="#CBD7EB"/>
<path d="M1730.18 244.398L1732.34 243.159L1753.92 255.592L1751.76 256.835L1730.18 244.398Z" fill="#CBD7EB"/>
<path d="M1735.08 241.582L1737.23 240.338L1758.81 252.775L1756.65 254.019L1735.08 241.582Z" fill="#CBD7EB"/>
<path d="M1739.97 238.765L1742.12 237.521L1763.7 249.954L1761.55 251.198L1739.97 238.765Z" fill="#CBD7EB"/>
<path d="M1744.86 235.944L1747.02 234.7L1768.59 247.138L1766.43 248.381L1744.86 235.944Z" fill="#CBD7EB"/>
<path d="M1749.75 233.128L1751.91 231.884L1773.48 244.322L1771.33 245.565L1749.75 233.128Z" fill="#CBD7EB"/>
<path d="M1754.64 230.307L1756.8 229.067L1778.37 241.5L1776.22 242.744L1754.64 230.307Z" fill="#CBD7EB"/>
<path d="M1759.53 227.49L1761.69 226.247L1783.27 238.684L1781.11 239.928L1759.53 227.49Z" fill="#CBD7EB"/>
<path d="M1681.85 299.609V269.764L1707.74 284.689V314.534L1681.85 299.609Z" fill="white"/>
<path d="M1705.33 285.87L1702.83 284.478L1702.58 309.781L1705.07 311.195L1705.33 285.87Z" fill="#E2EBF7"/>
<path d="M1700.48 283.031L1697.99 281.652L1697.77 307.153L1700.27 308.55L1700.48 283.031Z" fill="#E2EBF7"/>
<path d="M1695.63 280.187L1693.14 278.822L1692.97 304.521L1695.46 305.905L1695.63 280.187Z" fill="#E2EBF7"/>
<path d="M1690.79 277.349L1688.3 275.992L1688.17 301.894L1690.66 303.26L1690.79 277.349Z" fill="#E2EBF7"/>
<path d="M1685.94 274.509L1683.45 273.162L1683.36 299.267L1685.85 300.615L1685.94 274.509Z" fill="#E2EBF7"/>
<path d="M1815 315.266L1735.16 361.28V331.435L1815 285.421V315.266Z" fill="#CBD7EB"/>
<path d="M1737.32 332.678L1739.49 331.443V356.291L1737.32 357.548V332.678Z" fill="#B4C5E1"/>
<path d="M1742.21 329.857L1744.38 328.623V353.475L1742.21 354.728V329.857Z" fill="#B4C5E1"/>
<path d="M1747.1 327.036L1749.28 325.806V350.654L1747.1 351.911V327.036Z" fill="#B4C5E1"/>
<path d="M1751.99 324.22L1754.17 322.985V347.833L1751.99 349.09V324.22Z" fill="#B4C5E1"/>
<path d="M1756.88 321.399L1759.06 320.168V345.016L1756.88 346.269V321.399Z" fill="#B4C5E1"/>
<path d="M1761.77 318.582L1763.95 317.348V342.195L1761.77 343.453V318.582Z" fill="#B4C5E1"/>
<path d="M1766.66 315.762L1768.84 314.532V339.38L1766.66 340.632V315.762Z" fill="#B4C5E1"/>
<path d="M1771.56 312.941L1773.73 311.71V336.558L1771.56 337.816V312.941Z" fill="#B4C5E1"/>
<path d="M1776.45 310.124L1778.62 308.89V333.742L1776.45 334.995V310.124Z" fill="#B4C5E1"/>
<path d="M1781.34 307.303L1783.51 306.073V330.921L1781.34 332.174V307.303Z" fill="#B4C5E1"/>
<path d="M1786.23 304.487L1788.41 303.252V328.1L1786.23 329.357V304.487Z" fill="#B4C5E1"/>
<path d="M1791.12 301.666L1793.3 300.436V325.283L1791.12 326.536V301.666Z" fill="#B4C5E1"/>
<path d="M1796.01 298.849L1798.19 297.615V322.463L1796.01 323.72V298.849Z" fill="#B4C5E1"/>
<path d="M1800.9 296.029L1803.08 294.794V319.646L1800.9 320.899V296.029Z" fill="#B4C5E1"/>
<path d="M1805.79 293.207L1807.97 291.977V316.825L1805.79 318.082V293.207Z" fill="#B4C5E1"/>
<path d="M1810.69 290.391L1812.86 289.156V314.004L1810.69 315.261V290.391Z" fill="#B4C5E1"/>
<path d="M1789.13 270.51L1709.29 316.524L1735.18 331.444L1815 285.421L1789.13 270.51Z" fill="#E2EBF7"/>
<path d="M1713.58 316.51L1715.74 315.267L1737.31 327.704L1735.16 328.948L1713.58 316.51Z" fill="#CBD7EB"/>
<path d="M1718.47 313.694L1720.63 312.45L1742.21 324.883L1740.05 326.127L1718.47 313.694Z" fill="#CBD7EB"/>
<path d="M1723.36 310.873L1725.52 309.629L1747.1 322.066L1744.94 323.31L1723.36 310.873Z" fill="#CBD7EB"/>
<path d="M1728.25 308.056L1730.41 306.812L1751.99 319.25L1749.83 320.489L1728.25 308.056Z" fill="#CBD7EB"/>
<path d="M1733.14 305.24L1735.3 303.996L1756.88 316.429L1754.72 317.673L1733.14 305.24Z" fill="#CBD7EB"/>
<path d="M1738.03 302.419L1740.19 301.175L1761.77 313.612L1759.61 314.856L1738.03 302.419Z" fill="#CBD7EB"/>
<path d="M1742.93 299.602L1745.09 298.358L1766.66 310.791L1764.51 312.035L1742.93 299.602Z" fill="#CBD7EB"/>
<path d="M1747.82 296.781L1749.98 295.537L1771.55 307.975L1769.4 309.218L1747.82 296.781Z" fill="#CBD7EB"/>
<path d="M1752.71 293.965L1754.87 292.721L1776.45 305.159L1774.29 306.398L1752.71 293.965Z" fill="#CBD7EB"/>
<path d="M1757.6 291.144L1759.76 289.905L1781.34 302.338L1779.18 303.581L1757.6 291.144Z" fill="#CBD7EB"/>
<path d="M1762.49 288.328L1764.65 287.084L1786.22 299.521L1784.07 300.765L1762.49 288.328Z" fill="#CBD7EB"/>
<path d="M1767.38 285.511L1769.54 284.268L1791.12 296.701L1788.96 297.944L1767.38 285.511Z" fill="#CBD7EB"/>
<path d="M1772.28 282.69L1774.43 281.446L1796.01 293.884L1793.85 295.127L1772.28 282.69Z" fill="#CBD7EB"/>
<path d="M1777.17 279.874L1779.32 278.63L1800.9 291.067L1798.74 292.311L1777.17 279.874Z" fill="#CBD7EB"/>
<path d="M1782.06 277.053L1784.21 275.813L1805.79 288.246L1803.63 289.49L1782.06 277.053Z" fill="#CBD7EB"/>
<path d="M1786.95 274.236L1789.1 272.993L1810.68 285.43L1808.53 286.674L1786.95 274.236Z" fill="#CBD7EB"/>
<path d="M1709.26 346.355V316.51L1735.16 331.435V361.28L1709.26 346.355Z" fill="white"/>
<path d="M1732.74 332.616L1730.25 331.223L1729.99 356.526L1732.48 357.941L1732.74 332.616Z" fill="#E2EBF7"/>
<path d="M1727.89 329.777L1725.4 328.398L1725.19 353.899L1727.68 355.296L1727.89 329.777Z" fill="#E2EBF7"/>
<path d="M1723.05 326.933L1720.56 325.567L1720.39 351.267L1722.88 352.65L1723.05 326.933Z" fill="#E2EBF7"/>
<path d="M1718.2 324.094L1715.71 322.738L1715.58 348.64L1718.08 350.006L1718.2 324.094Z" fill="#E2EBF7"/>
<path d="M1713.35 321.255L1710.86 319.908L1710.78 346.013L1713.27 347.36L1713.35 321.255Z" fill="#E2EBF7"/>
<path d="M1815 284.09L1735.16 330.104V300.259L1815 254.245V284.09Z" fill="#CBD7EB"/>
<path d="M1737.32 301.502L1739.49 300.268V325.115L1737.32 326.373V301.502Z" fill="#B4C5E1"/>
<path d="M1742.21 298.682L1744.38 297.447V322.299L1742.21 323.552V298.682Z" fill="#B4C5E1"/>
<path d="M1747.1 295.861L1749.28 294.63V319.478L1747.1 320.735V295.861Z" fill="#B4C5E1"/>
<path d="M1751.99 293.044L1754.17 291.81V316.657L1751.99 317.915V293.044Z" fill="#B4C5E1"/>
<path d="M1756.88 290.223L1759.06 288.993V313.841L1756.88 315.093V290.223Z" fill="#B4C5E1"/>
<path d="M1761.77 287.407L1763.95 286.172V311.02L1761.77 312.277V287.407Z" fill="#B4C5E1"/>
<path d="M1766.66 284.586L1768.84 283.356V308.204L1766.66 309.457V284.586Z" fill="#B4C5E1"/>
<path d="M1771.56 281.765L1773.73 280.535V305.382L1771.56 306.64V281.765Z" fill="#B4C5E1"/>
<path d="M1776.45 278.949L1778.62 277.714V302.566L1776.45 303.819V278.949Z" fill="#B4C5E1"/>
<path d="M1781.34 276.128L1783.51 274.897V299.745L1781.34 300.998V276.128Z" fill="#B4C5E1"/>
<path d="M1786.23 273.311L1788.41 272.076V296.924L1786.23 298.181V273.311Z" fill="#B4C5E1"/>
<path d="M1791.12 270.49L1793.3 269.26V294.108L1791.12 295.36V270.49Z" fill="#B4C5E1"/>
<path d="M1796.01 267.674L1798.19 266.439V291.287L1796.01 292.544V267.674Z" fill="#B4C5E1"/>
<path d="M1800.9 264.853L1803.08 263.618V288.47L1800.9 289.723V264.853Z" fill="#B4C5E1"/>
<path d="M1805.79 262.031L1807.97 260.801V285.649L1805.79 286.906V262.031Z" fill="#B4C5E1"/>
<path d="M1810.69 259.215L1812.86 257.98V282.828L1810.69 284.086V259.215Z" fill="#B4C5E1"/>
<path d="M1789.13 239.333L1709.29 285.347L1735.18 300.267L1815 254.244L1789.13 239.333Z" fill="#E2EBF7"/>
<path d="M1713.58 285.334L1715.74 284.09L1737.31 296.527L1735.16 297.771L1713.58 285.334Z" fill="#CBD7EB"/>
<path d="M1718.47 282.517L1720.63 281.273L1742.21 293.706L1740.05 294.95L1718.47 282.517Z" fill="#CBD7EB"/>
<path d="M1723.36 279.696L1725.52 278.452L1747.1 290.89L1744.94 292.133L1723.36 279.696Z" fill="#CBD7EB"/>
<path d="M1728.25 276.879L1730.41 275.636L1751.99 288.073L1749.83 289.312L1728.25 276.879Z" fill="#CBD7EB"/>
<path d="M1733.14 274.063L1735.3 272.819L1756.88 285.252L1754.72 286.496L1733.14 274.063Z" fill="#CBD7EB"/>
<path d="M1738.03 271.242L1740.19 269.999L1761.77 282.436L1759.61 283.68L1738.03 271.242Z" fill="#CBD7EB"/>
<path d="M1742.93 268.426L1745.09 267.182L1766.66 279.615L1764.51 280.859L1742.93 268.426Z" fill="#CBD7EB"/>
<path d="M1747.82 265.605L1749.98 264.361L1771.55 276.798L1769.4 278.042L1747.82 265.605Z" fill="#CBD7EB"/>
<path d="M1752.71 262.788L1754.87 261.544L1776.45 273.982L1774.29 275.221L1752.71 262.788Z" fill="#CBD7EB"/>
<path d="M1757.6 259.967L1759.76 258.728L1781.34 271.161L1779.18 272.405L1757.6 259.967Z" fill="#CBD7EB"/>
<path d="M1762.49 257.151L1764.65 255.907L1786.22 268.345L1784.07 269.588L1762.49 257.151Z" fill="#CBD7EB"/>
<path d="M1767.38 254.335L1769.54 253.091L1791.12 265.524L1788.96 266.767L1767.38 254.335Z" fill="#CBD7EB"/>
<path d="M1772.28 251.513L1774.43 250.27L1796.01 262.707L1793.85 263.951L1772.28 251.513Z" fill="#CBD7EB"/>
<path d="M1777.17 248.697L1779.32 247.454L1800.9 259.891L1798.74 261.135L1777.17 248.697Z" fill="#CBD7EB"/>
<path d="M1782.06 245.876L1784.21 244.637L1805.79 257.07L1803.63 258.313L1782.06 245.876Z" fill="#CBD7EB"/>
<path d="M1786.95 243.06L1789.1 241.816L1810.68 254.253L1808.53 255.497L1786.95 243.06Z" fill="#CBD7EB"/>
<path d="M1709.26 315.179V285.333L1735.16 300.258V330.104L1709.26 315.179Z" fill="white"/>
<path d="M1732.74 301.439L1730.25 300.047L1729.99 325.35L1732.48 326.765L1732.74 301.439Z" fill="#E2EBF7"/>
<path d="M1727.89 298.6L1725.4 297.221L1725.19 322.722L1727.68 324.119L1727.89 298.6Z" fill="#E2EBF7"/>
<path d="M1723.05 295.757L1720.56 294.391L1720.39 320.091L1722.88 321.474L1723.05 295.757Z" fill="#E2EBF7"/>
<path d="M1718.2 292.918L1715.71 291.562L1715.58 317.464L1718.08 318.829L1718.2 292.918Z" fill="#E2EBF7"/>
<path d="M1713.35 290.079L1710.86 288.731L1710.78 314.837L1713.27 316.184L1713.35 290.079Z" fill="#E2EBF7"/>
<g style="mix-blend-mode:multiply" opacity="0.7" filter="url(#filter1_f_1660_28863)">
<path d="M471.501 800.945L388.002 845.944L503.243 913.013L587 865.174L471.501 800.945Z" fill="url(#paint1_linear_1660_28863)"/>
</g>
<path d="M492.004 814.946L412.169 860.958V831.114L492.004 785.101V814.946Z" fill="#CBD7EB"/>
<path d="M414.324 832.358L416.5 831.123V855.97L414.324 857.227V832.358Z" fill="#B4C5E1"/>
<path d="M419.213 829.536L421.389 828.302V853.153L419.213 854.406V829.536Z" fill="#B4C5E1"/>
<path d="M424.105 826.716L426.281 825.486V850.333L424.105 851.59V826.716Z" fill="#B4C5E1"/>
<path d="M428.996 823.9L431.172 822.665V847.512L428.996 848.769V823.9Z" fill="#B4C5E1"/>
<path d="M433.889 821.078L436.064 819.848V844.695L433.889 845.948V821.078Z" fill="#B4C5E1"/>
<path d="M438.777 818.263L440.953 817.028V841.875L438.777 843.132V818.263Z" fill="#B4C5E1"/>
<path d="M443.669 815.442L445.85 814.211V839.059L443.669 840.311V815.442Z" fill="#B4C5E1"/>
<path d="M448.562 812.621L450.738 811.391V836.238L448.562 837.495V812.621Z" fill="#B4C5E1"/>
<path d="M453.453 809.805L455.629 808.57V833.421L453.453 834.674V809.805Z" fill="#B4C5E1"/>
<path d="M458.342 806.984L460.518 805.753V830.601L458.342 831.853V806.984Z" fill="#B4C5E1"/>
<path d="M463.232 804.167L465.412 802.932V827.779L463.232 829.037V804.167Z" fill="#B4C5E1"/>
<path d="M468.127 801.346L470.303 800.116V824.963L468.127 826.216V801.346Z" fill="#B4C5E1"/>
<path d="M473.015 798.53L475.195 797.295V822.143L473.015 823.4V798.53Z" fill="#B4C5E1"/>
<path d="M477.908 795.709L480.084 794.474V819.326L477.908 820.578V795.709Z" fill="#B4C5E1"/>
<path d="M482.798 792.888L484.979 791.658V816.505L482.798 817.762V792.888Z" fill="#B4C5E1"/>
<path d="M487.691 790.072L489.867 788.837V813.684L487.691 814.941V790.072Z" fill="#B4C5E1"/>
<path d="M466.132 770.19L386.297 816.203L412.191 831.123L492.004 785.101L466.132 770.19Z" fill="#E2EBF7"/>
<path d="M390.588 816.19L392.746 814.946L414.324 827.383L412.166 828.627L390.588 816.19Z" fill="#CBD7EB"/>
<path d="M395.483 813.374L397.637 812.13L419.215 824.562L417.057 825.806L395.483 813.374Z" fill="#CBD7EB"/>
<path d="M400.369 810.552L402.527 809.309L424.105 821.746L421.948 822.989L400.369 810.552Z" fill="#CBD7EB"/>
<path d="M405.26 807.736L407.422 806.492L428.996 818.929L426.838 820.168L405.26 807.736Z" fill="#CBD7EB"/>
<path d="M410.156 804.92L412.314 803.676L433.893 816.109L431.735 817.353L410.156 804.92Z" fill="#CBD7EB"/>
<path d="M415.041 802.099L417.199 800.855L438.777 813.292L436.62 814.536L415.041 802.099Z" fill="#CBD7EB"/>
<path d="M419.938 799.282L422.096 798.039L443.67 810.471L441.517 811.715L419.938 799.282Z" fill="#CBD7EB"/>
<path d="M424.828 796.461L426.986 795.217L448.564 807.654L446.407 808.898L424.828 796.461Z" fill="#CBD7EB"/>
<path d="M429.719 793.645L431.877 792.401L453.455 804.838L451.297 806.078L429.719 793.645Z" fill="#CBD7EB"/>
<path d="M434.608 790.824L436.765 789.585L458.344 802.018L456.186 803.261L434.608 790.824Z" fill="#CBD7EB"/>
<path d="M439.501 788.008L441.659 786.764L463.232 799.201L461.075 800.445L439.501 788.008Z" fill="#CBD7EB"/>
<path d="M444.391 785.191L446.549 783.948L468.127 796.38L465.969 797.624L444.391 785.191Z" fill="#CBD7EB"/>
<path d="M449.284 782.371L451.442 781.127L473.016 793.564L470.858 794.808L449.284 782.371Z" fill="#CBD7EB"/>
<path d="M454.174 779.554L456.332 778.311L477.91 790.748L475.752 791.991L454.174 779.554Z" fill="#CBD7EB"/>
<path d="M459.065 776.733L461.223 775.494L482.797 787.927L480.639 789.17L459.065 776.733Z" fill="#CBD7EB"/>
<path d="M463.955 773.917L466.113 772.673L487.691 785.11L485.534 786.354L463.955 773.917Z" fill="#CBD7EB"/>
<path d="M386.27 846.033V816.189L412.164 831.113V860.958L386.27 846.033Z" fill="white"/>
<path d="M409.748 832.294L407.256 830.902L406.999 856.204L409.491 857.619L409.748 832.294Z" fill="#E2EBF7"/>
<path d="M404.9 829.456L402.408 828.077L402.196 853.577L404.688 854.974L404.9 829.456Z" fill="#E2EBF7"/>
<path d="M400.057 826.612L397.565 825.247L397.393 850.945L399.885 852.329L400.057 826.612Z" fill="#E2EBF7"/>
<path d="M395.209 823.773L392.717 822.417L392.591 848.318L395.083 849.683L395.209 823.773Z" fill="#E2EBF7"/>
<path d="M390.359 820.934L387.867 819.587L387.782 845.691L390.274 847.039L390.359 820.934Z" fill="#E2EBF7"/>
<path d="M519.59 830.945L439.754 876.958V847.113L519.59 801.101V830.945Z" fill="#CBD7EB"/>
<path d="M441.912 848.357L444.088 847.123V871.97L441.912 873.227V848.357Z" fill="#B4C5E1"/>
<path d="M446.801 845.536L448.977 844.301V869.153L446.801 870.406V845.536Z" fill="#B4C5E1"/>
<path d="M451.693 842.716L453.869 841.485V866.332L451.693 867.59V842.716Z" fill="#B4C5E1"/>
<path d="M456.584 839.899L458.76 838.665V863.512L456.584 864.769V839.899Z" fill="#B4C5E1"/>
<path d="M461.476 837.078L463.652 835.848V860.695L461.476 861.948V837.078Z" fill="#B4C5E1"/>
<path d="M466.365 834.262L468.541 833.027V857.874L466.365 859.132V834.262Z" fill="#B4C5E1"/>
<path d="M471.257 831.441L473.438 830.211V855.058L471.257 856.311V831.441Z" fill="#B4C5E1"/>
<path d="M476.15 828.62L478.326 827.39V852.237L476.15 853.494V828.62Z" fill="#B4C5E1"/>
<path d="M481.043 825.804L483.219 824.569V849.421L481.043 850.674V825.804Z" fill="#B4C5E1"/>
<path d="M485.93 822.983L488.105 821.753V846.6L485.93 847.853V822.983Z" fill="#B4C5E1"/>
<path d="M490.82 820.166L493 818.932V843.779L490.82 845.036V820.166Z" fill="#B4C5E1"/>
<path d="M495.715 817.346L497.891 816.116V840.963L495.715 842.216V817.346Z" fill="#B4C5E1"/>
<path d="M500.603 814.53L502.783 813.295V838.142L500.603 839.399V814.53Z" fill="#B4C5E1"/>
<path d="M505.496 811.708L507.672 810.474V835.325L505.496 836.578V811.708Z" fill="#B4C5E1"/>
<path d="M510.386 808.887L512.566 807.657V832.504L510.386 833.762V808.887Z" fill="#B4C5E1"/>
<path d="M515.279 806.071L517.455 804.836V829.684L515.279 830.941V806.071Z" fill="#B4C5E1"/>
<path d="M493.718 786.19L413.883 832.203L439.777 847.123L519.59 801.101L493.718 786.19Z" fill="#E2EBF7"/>
<path d="M418.174 832.19L420.332 830.946L441.91 843.383L439.752 844.627L418.174 832.19Z" fill="#CBD7EB"/>
<path d="M423.069 829.373L425.222 828.129L446.801 840.562L444.643 841.806L423.069 829.373Z" fill="#CBD7EB"/>
<path d="M427.955 826.552L430.113 825.308L451.691 837.745L449.534 838.989L427.955 826.552Z" fill="#CBD7EB"/>
<path d="M432.846 823.735L435.008 822.492L456.582 834.929L454.424 836.168L432.846 823.735Z" fill="#CBD7EB"/>
<path d="M437.74 820.919L439.898 819.676L461.477 832.108L459.319 833.352L437.74 820.919Z" fill="#CBD7EB"/>
<path d="M442.627 818.098L444.785 816.854L466.363 829.292L464.205 830.535L442.627 818.098Z" fill="#CBD7EB"/>
<path d="M447.522 815.282L449.68 814.038L471.254 826.471L469.101 827.714L447.522 815.282Z" fill="#CBD7EB"/>
<path d="M452.414 812.461L454.572 811.217L476.15 823.654L473.993 824.898L452.414 812.461Z" fill="#CBD7EB"/>
<path d="M457.305 809.645L459.463 808.401L481.041 820.838L478.883 822.077L457.305 809.645Z" fill="#CBD7EB"/>
<path d="M462.194 806.824L464.351 805.584L485.93 818.017L483.772 819.261L462.194 806.824Z" fill="#CBD7EB"/>
<path d="M467.087 804.007L469.245 802.764L490.818 815.201L488.661 816.444L467.087 804.007Z" fill="#CBD7EB"/>
<path d="M471.977 801.191L474.135 799.948L495.713 812.38L493.555 813.624L471.977 801.191Z" fill="#CBD7EB"/>
<path d="M476.87 798.37L479.028 797.126L500.602 809.564L498.444 810.807L476.87 798.37Z" fill="#CBD7EB"/>
<path d="M481.76 795.554L483.918 794.31L505.496 806.747L503.338 807.991L481.76 795.554Z" fill="#CBD7EB"/>
<path d="M486.651 792.733L488.809 791.494L510.383 803.926L508.225 805.17L486.651 792.733Z" fill="#CBD7EB"/>
<path d="M491.541 789.917L493.699 788.673L515.277 801.11L513.12 802.354L491.541 789.917Z" fill="#CBD7EB"/>
<path d="M413.856 862.033V832.189L439.75 847.113V876.958L413.856 862.033Z" fill="white"/>
<path d="M437.334 848.295L434.842 846.902L434.585 872.205L437.077 873.62L437.334 848.295Z" fill="#E2EBF7"/>
<path d="M432.486 845.456L429.994 844.077L429.782 869.577L432.274 870.974L432.486 845.456Z" fill="#E2EBF7"/>
<path d="M427.643 842.612L425.151 841.247L424.979 866.945L427.471 868.329L427.643 842.612Z" fill="#E2EBF7"/>
<path d="M422.795 839.773L420.303 838.417L420.177 864.318L422.669 865.683L422.795 839.773Z" fill="#E2EBF7"/>
<path d="M417.945 836.934L415.453 835.587L415.368 861.691L417.86 863.039L417.945 836.934Z" fill="#E2EBF7"/>
<path d="M519.59 800.201L439.754 846.214V816.369L519.59 770.356V800.201Z" fill="#CBD7EB"/>
<path d="M441.912 817.613L444.088 816.378V841.225L441.912 842.482V817.613Z" fill="#B4C5E1"/>
<path d="M446.801 814.791L448.977 813.557V838.408L446.801 839.661V814.791Z" fill="#B4C5E1"/>
<path d="M451.693 811.971L453.869 810.741V835.588L451.693 836.845V811.971Z" fill="#B4C5E1"/>
<path d="M456.584 809.155L458.76 807.92V832.767L456.584 834.024V809.155Z" fill="#B4C5E1"/>
<path d="M461.476 806.333L463.652 805.103V829.95L461.476 831.203V806.333Z" fill="#B4C5E1"/>
<path d="M466.365 803.517L468.541 802.282V827.129L466.365 828.387V803.517Z" fill="#B4C5E1"/>
<path d="M471.257 800.697L473.438 799.466V824.313L471.257 825.566V800.697Z" fill="#B4C5E1"/>
<path d="M476.15 797.876L478.326 796.646V821.493L476.15 822.75V797.876Z" fill="#B4C5E1"/>
<path d="M481.043 795.059L483.219 793.825V818.676L481.043 819.929V795.059Z" fill="#B4C5E1"/>
<path d="M485.93 792.238L488.105 791.008V815.855L485.93 817.108V792.238Z" fill="#B4C5E1"/>
<path d="M490.82 789.422L493 788.187V813.034L490.82 814.291V789.422Z" fill="#B4C5E1"/>
<path d="M495.715 786.601L497.891 785.371V810.218L495.715 811.47V786.601Z" fill="#B4C5E1"/>
<path d="M500.603 783.785L502.783 782.55V807.397L500.603 808.655V783.785Z" fill="#B4C5E1"/>
<path d="M505.496 780.964L507.672 779.729V804.581L505.496 805.833V780.964Z" fill="#B4C5E1"/>
<path d="M510.386 778.143L512.566 776.913V801.76L510.386 803.017V778.143Z" fill="#B4C5E1"/>
<path d="M515.279 775.327L517.455 774.092V798.939L515.279 800.196V775.327Z" fill="#B4C5E1"/>
<path d="M493.718 755.445L413.883 801.458L439.777 816.378L519.59 770.356L493.718 755.445Z" fill="#E2EBF7"/>
<path d="M418.174 801.444L420.332 800.201L441.91 812.638L439.752 813.881L418.174 801.444Z" fill="#CBD7EB"/>
<path d="M423.069 798.628L425.222 797.385L446.801 809.817L444.643 811.061L423.069 798.628Z" fill="#CBD7EB"/>
<path d="M427.955 795.807L430.113 794.563L451.691 807.001L449.534 808.244L427.955 795.807Z" fill="#CBD7EB"/>
<path d="M432.846 792.991L435.008 791.747L456.582 804.184L454.424 805.423L432.846 792.991Z" fill="#CBD7EB"/>
<path d="M437.74 790.174L439.898 788.931L461.477 801.363L459.319 802.607L437.74 790.174Z" fill="#CBD7EB"/>
<path d="M442.627 787.354L444.785 786.11L466.363 798.547L464.205 799.791L442.627 787.354Z" fill="#CBD7EB"/>
<path d="M447.522 784.537L449.68 783.293L471.254 795.726L469.101 796.97L447.522 784.537Z" fill="#CBD7EB"/>
<path d="M452.414 781.716L454.572 780.472L476.15 792.909L473.993 794.153L452.414 781.716Z" fill="#CBD7EB"/>
<path d="M457.305 778.9L459.463 777.656L481.041 790.093L478.883 791.333L457.305 778.9Z" fill="#CBD7EB"/>
<path d="M462.194 776.079L464.351 774.84L485.93 787.272L483.772 788.516L462.194 776.079Z" fill="#CBD7EB"/>
<path d="M467.087 773.263L469.245 772.019L490.818 784.456L488.661 785.7L467.087 773.263Z" fill="#CBD7EB"/>
<path d="M471.977 770.446L474.135 769.203L495.713 781.635L493.555 782.879L471.977 770.446Z" fill="#CBD7EB"/>
<path d="M476.87 767.626L479.028 766.382L500.602 778.819L498.444 780.063L476.87 767.626Z" fill="#CBD7EB"/>
<path d="M481.76 764.809L483.918 763.565L505.496 776.003L503.338 777.246L481.76 764.809Z" fill="#CBD7EB"/>
<path d="M486.651 761.988L488.809 760.749L510.383 773.182L508.225 774.425L486.651 761.988Z" fill="#CBD7EB"/>
<path d="M491.541 759.172L493.699 757.928L515.277 770.365L513.12 771.609L491.541 759.172Z" fill="#CBD7EB"/>
<path d="M413.856 831.289V801.445L439.75 816.369V846.214L413.856 831.289Z" fill="white"/>
<path d="M437.334 817.55L434.842 816.158L434.585 841.46L437.077 842.875L437.334 817.55Z" fill="#E2EBF7"/>
<path d="M432.486 814.711L429.994 813.333L429.782 838.833L432.274 840.23L432.486 814.711Z" fill="#E2EBF7"/>
<path d="M427.643 811.868L425.151 810.502L424.979 836.201L427.471 837.585L427.643 811.868Z" fill="#E2EBF7"/>
<path d="M422.795 809.029L420.303 807.672L420.177 833.574L422.669 834.939L422.795 809.029Z" fill="#E2EBF7"/>
<path d="M417.945 806.19L415.453 804.843L415.368 830.947L417.86 832.294L417.945 806.19Z" fill="#E2EBF7"/>
<path d="M546.998 846.946L467.163 892.958V863.114L546.998 817.101V846.946Z" fill="#CBD7EB"/>
<path d="M469.318 864.358L471.494 863.123V887.97L469.318 889.227V864.358Z" fill="#B4C5E1"/>
<path d="M474.207 861.537L476.383 860.302V885.154L474.207 886.407V861.537Z" fill="#B4C5E1"/>
<path d="M479.1 858.716L481.275 857.486V882.333L479.1 883.59V858.716Z" fill="#B4C5E1"/>
<path d="M483.99 855.9L486.166 854.665V879.512L483.99 880.769V855.9Z" fill="#B4C5E1"/>
<path d="M488.885 853.079L491.061 851.849V876.696L488.885 877.948V853.079Z" fill="#B4C5E1"/>
<path d="M493.773 850.263L495.949 849.028V873.875L493.773 875.132V850.263Z" fill="#B4C5E1"/>
<path d="M498.663 847.442L500.844 846.211V871.059L498.663 872.311V847.442Z" fill="#B4C5E1"/>
<path d="M503.557 844.621L505.732 843.391V868.238L503.557 869.495V844.621Z" fill="#B4C5E1"/>
<path d="M508.449 841.805L510.625 840.57V865.421L508.449 866.674V841.805Z" fill="#B4C5E1"/>
<path d="M513.338 838.984L515.514 837.753V862.601L513.338 863.853V838.984Z" fill="#B4C5E1"/>
<path d="M518.226 836.167L520.406 834.932V859.779L518.226 861.037V836.167Z" fill="#B4C5E1"/>
<path d="M523.121 833.346L525.297 832.116V856.963L523.121 858.216V833.346Z" fill="#B4C5E1"/>
<path d="M528.009 830.53L530.189 829.295V854.143L528.009 855.4V830.53Z" fill="#B4C5E1"/>
<path d="M532.902 827.709L535.078 826.474V851.326L532.902 852.578V827.709Z" fill="#B4C5E1"/>
<path d="M537.792 824.888L539.973 823.658V848.505L537.792 849.762V824.888Z" fill="#B4C5E1"/>
<path d="M542.685 822.072L544.861 820.837V845.684L542.685 846.941V822.072Z" fill="#B4C5E1"/>
<path d="M521.127 802.19L441.291 848.203L467.185 863.123L546.998 817.101L521.127 802.19Z" fill="#E2EBF7"/>
<path d="M445.582 848.19L447.74 846.946L469.318 859.383L467.161 860.627L445.582 848.19Z" fill="#CBD7EB"/>
<path d="M450.477 845.373L452.631 844.129L474.209 856.562L472.051 857.806L450.477 845.373Z" fill="#CBD7EB"/>
<path d="M455.363 842.552L457.521 841.308L479.1 853.745L476.942 854.989L455.363 842.552Z" fill="#CBD7EB"/>
<path d="M460.254 839.735L462.416 838.492L483.99 850.929L481.832 852.168L460.254 839.735Z" fill="#CBD7EB"/>
<path d="M465.151 836.919L467.308 835.676L488.887 848.108L486.729 849.352L465.151 836.919Z" fill="#CBD7EB"/>
<path d="M470.035 834.098L472.193 832.854L493.771 845.292L491.614 846.535L470.035 834.098Z" fill="#CBD7EB"/>
<path d="M474.932 831.282L477.09 830.038L498.664 842.471L496.511 843.714L474.932 831.282Z" fill="#CBD7EB"/>
<path d="M479.822 828.461L481.98 827.217L503.559 839.654L501.401 840.898L479.822 828.461Z" fill="#CBD7EB"/>
<path d="M484.713 825.645L486.871 824.401L508.449 836.838L506.291 838.077L484.713 825.645Z" fill="#CBD7EB"/>
<path d="M489.602 822.824L491.76 821.584L513.338 834.017L511.18 835.261L489.602 822.824Z" fill="#CBD7EB"/>
<path d="M494.495 820.007L496.653 818.764L518.227 831.201L516.069 832.444L494.495 820.007Z" fill="#CBD7EB"/>
<path d="M499.385 817.191L501.543 815.947L523.121 828.38L520.963 829.624L499.385 817.191Z" fill="#CBD7EB"/>
<path d="M504.278 814.37L506.436 813.126L528.01 825.564L525.852 826.807L504.278 814.37Z" fill="#CBD7EB"/>
<path d="M509.168 811.554L511.326 810.31L532.904 822.747L530.746 823.991L509.168 811.554Z" fill="#CBD7EB"/>
<path d="M514.059 808.733L516.217 807.494L537.791 819.926L535.633 821.17L514.059 808.733Z" fill="#CBD7EB"/>
<path d="M518.949 805.917L521.107 804.673L542.686 817.11L540.528 818.354L518.949 805.917Z" fill="#CBD7EB"/>
<path d="M441.268 878.033V848.189L467.162 863.113V892.958L441.268 878.033Z" fill="white"/>
<path d="M464.746 864.294L462.254 862.902L461.997 888.204L464.489 889.619L464.746 864.294Z" fill="#E2EBF7"/>
<path d="M459.898 861.456L457.407 860.077L457.194 885.577L459.686 886.974L459.898 861.456Z" fill="#E2EBF7"/>
<path d="M455.055 858.611L452.563 857.246L452.391 882.945L454.883 884.328L455.055 858.611Z" fill="#E2EBF7"/>
<path d="M450.207 855.773L447.715 854.417L447.589 880.318L450.081 881.683L450.207 855.773Z" fill="#E2EBF7"/>
<path d="M445.357 852.934L442.866 851.586L442.78 877.691L445.272 879.038L445.357 852.934Z" fill="#E2EBF7"/>
<path d="M546.998 815.77L467.163 861.783V831.938L546.998 785.925V815.77Z" fill="#CBD7EB"/>
<path d="M469.318 833.181L471.494 831.947V856.794L469.318 858.051V833.181Z" fill="#B4C5E1"/>
<path d="M474.207 830.36L476.383 829.125V853.977L474.207 855.23V830.36Z" fill="#B4C5E1"/>
<path d="M479.1 827.54L481.275 826.31V851.157L479.1 852.414V827.54Z" fill="#B4C5E1"/>
<path d="M483.99 824.723L486.166 823.489V848.336L483.99 849.593V824.723Z" fill="#B4C5E1"/>
<path d="M488.885 821.902L491.061 820.672V845.519L488.885 846.772V821.902Z" fill="#B4C5E1"/>
<path d="M493.773 819.086L495.949 817.851V842.698L493.773 843.955V819.086Z" fill="#B4C5E1"/>
<path d="M498.663 816.265L500.844 815.035V839.882L498.663 841.135V816.265Z" fill="#B4C5E1"/>
<path d="M503.557 813.445L505.732 812.214V837.061L503.557 838.319V813.445Z" fill="#B4C5E1"/>
<path d="M508.449 810.628L510.625 809.393V834.245L508.449 835.497V810.628Z" fill="#B4C5E1"/>
<path d="M513.338 807.807L515.514 806.577V831.424L513.338 832.677V807.807Z" fill="#B4C5E1"/>
<path d="M518.226 804.991L520.406 803.756V828.603L518.226 829.86V804.991Z" fill="#B4C5E1"/>
<path d="M523.121 802.17L525.297 800.94V825.787L523.121 827.04V802.17Z" fill="#B4C5E1"/>
<path d="M528.009 799.354L530.189 798.119V822.966L528.009 824.224V799.354Z" fill="#B4C5E1"/>
<path d="M532.902 796.533L535.078 795.298V820.149L532.902 821.402V796.533Z" fill="#B4C5E1"/>
<path d="M537.792 793.712L539.973 792.481V817.329L537.792 818.586V793.712Z" fill="#B4C5E1"/>
<path d="M542.685 790.895L544.861 789.661V814.508L542.685 815.765V790.895Z" fill="#B4C5E1"/>
<path d="M521.127 771.014L441.291 817.027L467.185 831.947L546.998 785.925L521.127 771.014Z" fill="#E2EBF7"/>
<path d="M445.582 817.014L447.74 815.77L469.318 828.207L467.161 829.451L445.582 817.014Z" fill="#CBD7EB"/>
<path d="M450.477 814.197L452.631 812.954L474.209 825.386L472.051 826.63L450.477 814.197Z" fill="#CBD7EB"/>
<path d="M455.363 811.376L457.521 810.132L479.1 822.569L476.942 823.813L455.363 811.376Z" fill="#CBD7EB"/>
<path d="M460.254 808.56L462.416 807.316L483.99 819.753L481.832 820.992L460.254 808.56Z" fill="#CBD7EB"/>
<path d="M465.151 805.744L467.308 804.5L488.887 816.933L486.729 818.176L465.151 805.744Z" fill="#CBD7EB"/>
<path d="M470.035 802.922L472.193 801.679L493.771 814.116L491.614 815.359L470.035 802.922Z" fill="#CBD7EB"/>
<path d="M474.932 800.106L477.09 798.862L498.664 811.295L496.511 812.539L474.932 800.106Z" fill="#CBD7EB"/>
<path d="M479.822 797.285L481.98 796.041L503.559 808.478L501.401 809.722L479.822 797.285Z" fill="#CBD7EB"/>
<path d="M484.713 794.469L486.871 793.225L508.449 805.662L506.291 806.901L484.713 794.469Z" fill="#CBD7EB"/>
<path d="M489.602 791.648L491.76 790.409L513.338 802.841L511.18 804.085L489.602 791.648Z" fill="#CBD7EB"/>
<path d="M494.495 788.832L496.653 787.588L518.227 800.025L516.069 801.269L494.495 788.832Z" fill="#CBD7EB"/>
<path d="M499.385 786.015L501.543 784.771L523.121 797.204L520.963 798.448L499.385 786.015Z" fill="#CBD7EB"/>
<path d="M504.278 783.194L506.436 781.951L528.01 794.388L525.852 795.631L504.278 783.194Z" fill="#CBD7EB"/>
<path d="M509.168 780.378L511.326 779.134L532.904 791.571L530.746 792.815L509.168 780.378Z" fill="#CBD7EB"/>
<path d="M514.059 777.557L516.217 776.318L537.791 788.75L535.633 789.994L514.059 777.557Z" fill="#CBD7EB"/>
<path d="M518.949 774.741L521.107 773.497L542.686 785.934L540.528 787.178L518.949 774.741Z" fill="#CBD7EB"/>
<path d="M441.268 846.858V817.013L467.162 831.938V861.782L441.268 846.858Z" fill="white"/>
<path d="M464.746 833.118L462.254 831.726L461.997 857.028L464.489 858.443L464.746 833.118Z" fill="#E2EBF7"/>
<path d="M459.898 830.28L457.407 828.901L457.194 854.401L459.686 855.798L459.898 830.28Z" fill="#E2EBF7"/>
<path d="M455.055 827.436L452.563 826.071L452.391 851.77L454.883 853.153L455.055 827.436Z" fill="#E2EBF7"/>
<path d="M450.207 824.598L447.715 823.241L447.589 849.143L450.081 850.508L450.207 824.598Z" fill="#E2EBF7"/>
<path d="M445.357 821.758L442.866 820.411L442.78 846.515L445.272 847.863L445.357 821.758Z" fill="#E2EBF7"/>
<path d="M520.004 769.201L440.169 815.214V785.369L520.004 739.356V769.201Z" fill="#719D46"/>
<path d="M442.326 786.613L444.502 785.378V810.226L442.326 811.483V786.613Z" fill="#668D3F"/>
<path d="M447.215 783.792L449.391 782.558V807.409L447.215 808.662V783.792Z" fill="#668D3F"/>
<path d="M452.107 780.972L454.283 779.742V804.589L452.107 805.846V780.972Z" fill="#668D3F"/>
<path d="M456.998 778.155L459.174 776.92V801.768L456.998 803.025V778.155Z" fill="#668D3F"/>
<path d="M461.891 775.334L464.066 774.104V798.951L461.891 800.203V775.334Z" fill="#668D3F"/>
<path d="M466.779 772.518L468.955 771.283V796.13L466.779 797.388V772.518Z" fill="#668D3F"/>
<path d="M471.671 769.697L473.852 768.467V793.314L471.671 794.567V769.697Z" fill="#668D3F"/>
<path d="M476.564 766.876L478.74 765.646V790.493L476.564 791.75V766.876Z" fill="#668D3F"/>
<path d="M481.457 764.06L483.633 762.825V787.677L481.457 788.93V764.06Z" fill="#668D3F"/>
<path d="M486.346 761.239L488.521 760.009V784.856L486.346 786.109V761.239Z" fill="#668D3F"/>
<path d="M491.234 758.422L493.414 757.188V782.035L491.234 783.292V758.422Z" fill="#668D3F"/>
<path d="M496.129 755.602L498.305 754.372V779.219L496.129 780.471V755.602Z" fill="#668D3F"/>
<path d="M501.017 752.785L503.197 751.551V776.398L501.017 777.655V752.785Z" fill="#668D3F"/>
<path d="M505.91 749.965L508.086 748.73V773.582L505.91 774.834V749.965Z" fill="#668D3F"/>
<path d="M510.8 747.143L512.98 745.913V770.76L510.8 772.017V747.143Z" fill="#668D3F"/>
<path d="M515.693 744.327L517.869 743.092V767.939L515.693 769.197V744.327Z" fill="#668D3F"/>
<path d="M494.132 724.445L414.297 770.458L440.191 785.378L520.004 739.356L494.132 724.445Z" fill="#7EAE4E"/>
<path d="M418.588 770.445L420.746 769.201L442.324 781.638L440.166 782.882L418.588 770.445Z" fill="#729F45"/>
<path d="M423.483 767.628L425.637 766.385L447.215 778.817L445.057 780.061L423.483 767.628Z" fill="#729F45"/>
<path d="M428.369 764.808L430.527 763.564L452.105 776.001L449.948 777.245L428.369 764.808Z" fill="#729F45"/>
<path d="M433.26 761.991L435.422 760.748L456.996 773.185L454.838 774.424L433.26 761.991Z" fill="#729F45"/>
<path d="M438.154 759.175L440.312 757.931L461.891 770.364L459.733 771.607L438.154 759.175Z" fill="#729F45"/>
<path d="M443.041 756.354L445.199 755.11L466.777 767.547L464.62 768.791L443.041 756.354Z" fill="#729F45"/>
<path d="M447.936 753.537L450.094 752.293L471.668 764.726L469.515 765.97L447.936 753.537Z" fill="#729F45"/>
<path d="M452.828 750.716L454.986 749.473L476.564 761.91L474.407 763.153L452.828 750.716Z" fill="#729F45"/>
<path d="M457.719 747.9L459.877 746.656L481.455 759.093L479.297 760.333L457.719 747.9Z" fill="#729F45"/>
<path d="M462.608 745.079L464.765 743.84L486.344 756.272L484.186 757.516L462.608 745.079Z" fill="#729F45"/>
<path d="M467.501 742.263L469.659 741.02L491.232 753.457L489.075 754.7L467.501 742.263Z" fill="#729F45"/>
<path d="M472.391 739.447L474.549 738.203L496.127 750.636L493.969 751.879L472.391 739.447Z" fill="#729F45"/>
<path d="M477.284 736.626L479.442 735.382L501.016 747.819L498.858 749.063L477.284 736.626Z" fill="#729F45"/>
<path d="M482.174 733.809L484.332 732.565L505.91 745.003L503.752 746.246L482.174 733.809Z" fill="#729F45"/>
<path d="M487.065 730.988L489.223 729.749L510.797 742.182L508.639 743.425L487.065 730.988Z" fill="#729F45"/>
<path d="M491.955 728.172L494.113 726.928L515.691 739.365L513.534 740.609L491.955 728.172Z" fill="#729F45"/>
<path d="M414.27 800.289V770.444L440.164 785.369V815.213L414.27 800.289Z" fill="#8BBF56"/>
<path d="M437.748 786.55L435.256 785.157L434.999 810.459L437.491 811.874L437.748 786.55Z" fill="#80B24D"/>
<path d="M432.9 783.71L430.408 782.332L430.196 807.832L432.688 809.229L432.9 783.71Z" fill="#80B24D"/>
<path d="M428.057 780.867L425.565 779.502L425.393 805.201L427.885 806.584L428.057 780.867Z" fill="#80B24D"/>
<path d="M423.209 778.028L420.717 776.672L420.591 802.573L423.083 803.939L423.209 778.028Z" fill="#80B24D"/>
<path d="M418.359 775.189L415.867 773.842L415.782 799.946L418.274 801.294L418.359 775.189Z" fill="#80B24D"/>
<g style="mix-blend-mode:multiply" opacity="0.7" filter="url(#filter2_f_1660_28863)">
<path d="M885.769 248.59L801.495 295.456L967.241 391.327L1051 343.487L885.769 248.59Z" fill="url(#paint2_linear_1660_28863)"/>
</g>
<path d="M906.084 264.741L826.246 310.756V280.91L906.084 234.896V264.741Z" fill="#CBD7EB"/>
<path d="M828.402 282.154L830.578 280.919V305.767L828.402 307.025V282.154Z" fill="#B4C5E1"/>
<path d="M833.293 279.333L835.469 278.098V302.951L833.293 304.203V279.333Z" fill="#B4C5E1"/>
<path d="M838.183 276.512L840.359 275.282V300.13L838.183 301.387V276.512Z" fill="#B4C5E1"/>
<path d="M843.074 273.696L845.25 272.461V297.309L843.074 298.566V273.696Z" fill="#B4C5E1"/>
<path d="M847.967 270.874L850.143 269.644V294.492L847.967 295.745V270.874Z" fill="#B4C5E1"/>
<path d="M852.855 268.058L855.031 266.823V291.671L852.855 292.928V268.058Z" fill="#B4C5E1"/>
<path d="M857.745 265.237L859.926 264.007V288.855L857.745 290.108V265.237Z" fill="#B4C5E1"/>
<path d="M862.64 262.416L864.816 261.186V286.034L862.64 287.291V262.416Z" fill="#B4C5E1"/>
<path d="M867.533 259.6L869.709 258.365V283.218L867.533 284.47V259.6Z" fill="#B4C5E1"/>
<path d="M872.42 256.779L874.596 255.548V280.396L872.42 281.649V256.779Z" fill="#B4C5E1"/>
<path d="M877.31 253.962L879.49 252.728V277.575L877.31 278.833V253.962Z" fill="#B4C5E1"/>
<path d="M882.207 251.141L884.383 249.911V274.759L882.207 276.012V251.141Z" fill="#B4C5E1"/>
<path d="M887.095 248.325L889.275 247.09V271.938L887.095 273.196V248.325Z" fill="#B4C5E1"/>
<path d="M891.986 245.504L894.162 244.269V269.121L891.986 270.374V245.504Z" fill="#B4C5E1"/>
<path d="M896.878 242.683L899.059 241.453V266.301L896.878 267.558V242.683Z" fill="#B4C5E1"/>
<path d="M901.771 239.867L903.947 238.632V263.48L901.771 264.737V239.867Z" fill="#B4C5E1"/>
<path d="M880.212 219.984L800.374 265.999L826.269 280.919L906.084 234.896L880.212 219.984Z" fill="#E2EBF7"/>
<path d="M804.665 265.985L806.823 264.741L828.402 277.179L826.244 278.422L804.665 265.985Z" fill="#CBD7EB"/>
<path d="M809.561 263.169L811.714 261.925L833.293 274.358L831.135 275.602L809.561 263.169Z" fill="#CBD7EB"/>
<path d="M814.449 260.347L816.607 259.104L838.186 271.541L836.028 272.785L814.449 260.347Z" fill="#CBD7EB"/>
<path d="M819.337 257.531L821.5 256.288L843.074 268.725L840.916 269.964L819.337 257.531Z" fill="#CBD7EB"/>
<path d="M824.232 254.714L826.39 253.471L847.969 265.904L845.811 267.147L824.232 254.714Z" fill="#CBD7EB"/>
<path d="M829.121 251.894L831.278 250.65L852.857 263.087L850.7 264.331L829.121 251.894Z" fill="#CBD7EB"/>
<path d="M834.014 249.077L836.172 247.833L857.746 260.266L855.593 261.51L834.014 249.077Z" fill="#CBD7EB"/>
<path d="M838.904 246.256L841.062 245.012L862.641 257.45L860.483 258.693L838.904 246.256Z" fill="#CBD7EB"/>
<path d="M843.798 243.44L845.956 242.196L867.535 254.633L865.377 255.873L843.798 243.44Z" fill="#CBD7EB"/>
<path d="M848.687 240.619L850.845 239.379L872.424 251.812L870.266 253.056L848.687 240.619Z" fill="#CBD7EB"/>
<path d="M853.58 237.802L855.738 236.559L877.312 248.996L875.155 250.24L853.58 237.802Z" fill="#CBD7EB"/>
<path d="M858.47 234.986L860.628 233.742L882.207 246.175L880.049 247.419L858.47 234.986Z" fill="#CBD7EB"/>
<path d="M863.363 232.165L865.521 230.921L887.096 243.358L884.938 244.602L863.363 232.165Z" fill="#CBD7EB"/>
<path d="M868.253 229.349L870.411 228.105L891.99 240.542L889.832 241.786L868.253 229.349Z" fill="#CBD7EB"/>
<path d="M873.145 226.527L875.302 225.288L896.877 237.721L894.719 238.965L873.145 226.527Z" fill="#CBD7EB"/>
<path d="M878.035 223.711L880.192 222.467L901.771 234.905L899.614 236.149L878.035 223.711Z" fill="#CBD7EB"/>
<path d="M800.349 295.83V265.985L826.244 280.91V310.755L800.349 295.83Z" fill="white"/>
<path d="M823.828 282.091L821.336 280.698L821.079 306.001L823.571 307.416L823.828 282.091Z" fill="#E2EBF7"/>
<path d="M818.98 279.252L816.488 277.873L816.276 303.374L818.768 304.771L818.98 279.252Z" fill="#E2EBF7"/>
<path d="M814.135 276.408L811.643 275.042L811.471 300.742L813.963 302.126L814.135 276.408Z" fill="#E2EBF7"/>
<path d="M809.289 273.569L806.797 272.213L806.671 298.115L809.163 299.481L809.289 273.569Z" fill="#E2EBF7"/>
<path d="M804.439 270.73L801.947 269.383L801.862 295.488L804.354 296.835L804.439 270.73Z" fill="#E2EBF7"/>
<path d="M933.082 280.487L853.244 326.501V296.656L933.082 250.642V280.487Z" fill="#CBD7EB"/>
<path d="M855.4 297.9L857.576 296.665V321.513L855.4 322.77V297.9Z" fill="#B4C5E1"/>
<path d="M860.291 295.078L862.467 293.844V318.696L860.291 319.949V295.078Z" fill="#B4C5E1"/>
<path d="M865.183 292.258L867.359 291.027V315.875L865.183 317.133V292.258Z" fill="#B4C5E1"/>
<path d="M870.072 289.441L872.248 288.207V313.054L870.072 314.312V289.441Z" fill="#B4C5E1"/>
<path d="M874.965 286.62L877.141 285.39V310.238L874.965 311.49V286.62Z" fill="#B4C5E1"/>
<path d="M879.855 283.804L882.031 282.569V307.417L879.855 308.674V283.804Z" fill="#B4C5E1"/>
<path d="M884.745 280.983L886.926 279.752V304.6L884.745 305.853V280.983Z" fill="#B4C5E1"/>
<path d="M889.638 278.162L891.814 276.932V301.78L889.638 303.037V278.162Z" fill="#B4C5E1"/>
<path d="M894.531 275.346L896.707 274.111V298.963L894.531 300.216V275.346Z" fill="#B4C5E1"/>
<path d="M899.418 272.524L901.594 271.294V296.142L899.418 297.395V272.524Z" fill="#B4C5E1"/>
<path d="M904.308 269.708L906.488 268.473V293.321L904.308 294.578V269.708Z" fill="#B4C5E1"/>
<path d="M909.205 266.887L911.381 265.657V290.505L909.205 291.757V266.887Z" fill="#B4C5E1"/>
<path d="M914.093 264.071L916.273 262.836V287.684L914.093 288.941V264.071Z" fill="#B4C5E1"/>
<path d="M918.984 261.25L921.16 260.015V284.868L918.984 286.12V261.25Z" fill="#B4C5E1"/>
<path d="M923.876 258.428L926.057 257.198V282.046L923.876 283.303V258.428Z" fill="#B4C5E1"/>
<path d="M928.769 255.612L930.945 254.377V279.225L928.769 280.483V255.612Z" fill="#B4C5E1"/>
<path d="M907.21 235.73L827.372 281.745L853.267 296.665L933.082 250.642L907.21 235.73Z" fill="#E2EBF7"/>
<path d="M831.663 281.731L833.821 280.487L855.4 292.925L853.242 294.169L831.663 281.731Z" fill="#CBD7EB"/>
<path d="M836.559 278.915L838.712 277.671L860.291 290.104L858.133 291.348L836.559 278.915Z" fill="#CBD7EB"/>
<path d="M841.445 276.094L843.603 274.85L865.182 287.288L863.024 288.531L841.445 276.094Z" fill="#CBD7EB"/>
<path d="M846.335 273.277L848.498 272.033L870.072 284.471L867.914 285.71L846.335 273.277Z" fill="#CBD7EB"/>
<path d="M851.23 270.461L853.388 269.217L874.967 281.65L872.809 282.893L851.23 270.461Z" fill="#CBD7EB"/>
<path d="M856.117 267.64L858.275 266.396L879.854 278.833L877.696 280.077L856.117 267.64Z" fill="#CBD7EB"/>
<path d="M861.012 264.823L863.17 263.579L884.744 276.012L882.591 277.256L861.012 264.823Z" fill="#CBD7EB"/>
<path d="M865.902 262.002L868.06 260.758L889.639 273.196L887.481 274.44L865.902 262.002Z" fill="#CBD7EB"/>
<path d="M870.796 259.186L872.954 257.942L894.533 270.379L892.375 271.619L870.796 259.186Z" fill="#CBD7EB"/>
<path d="M875.685 256.365L877.843 255.125L899.422 267.558L897.264 268.802L875.685 256.365Z" fill="#CBD7EB"/>
<path d="M880.578 253.548L882.736 252.305L904.311 264.742L902.153 265.986L880.578 253.548Z" fill="#CBD7EB"/>
<path d="M885.468 250.732L887.626 249.488L909.205 261.921L907.047 263.165L885.468 250.732Z" fill="#CBD7EB"/>
<path d="M890.361 247.911L892.519 246.667L914.094 259.104L911.936 260.348L890.361 247.911Z" fill="#CBD7EB"/>
<path d="M895.251 245.094L897.409 243.851L918.988 256.288L916.83 257.532L895.251 245.094Z" fill="#CBD7EB"/>
<path d="M900.143 242.273L902.301 241.034L923.875 253.467L921.717 254.711L900.143 242.273Z" fill="#CBD7EB"/>
<path d="M905.033 239.457L907.191 238.213L928.77 250.651L926.612 251.895L905.033 239.457Z" fill="#CBD7EB"/>
<path d="M827.349 311.576V281.731L853.244 296.656V326.501L827.349 311.576Z" fill="white"/>
<path d="M850.828 297.837L848.336 296.444L848.079 321.747L850.571 323.162L850.828 297.837Z" fill="#E2EBF7"/>
<path d="M845.98 294.998L843.488 293.619L843.276 319.12L845.768 320.517L845.98 294.998Z" fill="#E2EBF7"/>
<path d="M841.137 292.154L838.645 290.789L838.473 316.489L840.965 317.872L841.137 292.154Z" fill="#E2EBF7"/>
<path d="M836.289 289.315L833.797 287.959L833.671 313.861L836.163 315.227L836.289 289.315Z" fill="#E2EBF7"/>
<path d="M831.439 286.476L828.947 285.129L828.862 311.234L831.354 312.581L831.439 286.476Z" fill="#E2EBF7"/>
<path d="M933.082 249.741L853.244 295.755V265.91L933.082 219.896V249.741Z" fill="#CBD7EB"/>
<path d="M855.4 267.154L857.576 265.919V290.767L855.4 292.024V267.154Z" fill="#B4C5E1"/>
<path d="M860.291 264.332L862.467 263.098V287.95L860.291 289.203V264.332Z" fill="#B4C5E1"/>
<path d="M865.183 261.511L867.359 260.281V285.129L865.183 286.386V261.511Z" fill="#B4C5E1"/>
<path d="M870.072 258.695L872.248 257.46V282.308L870.072 283.566V258.695Z" fill="#B4C5E1"/>
<path d="M874.965 255.874L877.141 254.644V279.491L874.965 280.744V255.874Z" fill="#B4C5E1"/>
<path d="M879.855 253.057L882.031 251.823V276.671L879.855 277.928V253.057Z" fill="#B4C5E1"/>
<path d="M884.745 250.237L886.926 249.006V273.854L884.745 275.107V250.237Z" fill="#B4C5E1"/>
<path d="M889.638 247.416L891.814 246.186V271.033L889.638 272.291V247.416Z" fill="#B4C5E1"/>
<path d="M894.531 244.599L896.707 243.365V268.217L894.531 269.47V244.599Z" fill="#B4C5E1"/>
<path d="M899.418 241.778L901.594 240.548V265.396L899.418 266.649V241.778Z" fill="#B4C5E1"/>
<path d="M904.308 238.962L906.488 237.727V262.575L904.308 263.832V238.962Z" fill="#B4C5E1"/>
<path d="M909.205 236.141L911.381 234.911V259.759L909.205 261.011V236.141Z" fill="#B4C5E1"/>
<path d="M914.093 233.325L916.273 232.09V256.938L914.093 258.195V233.325Z" fill="#B4C5E1"/>
<path d="M918.984 230.504L921.16 229.269V254.121L918.984 255.374V230.504Z" fill="#B4C5E1"/>
<path d="M923.876 227.682L926.057 226.452V251.3L923.876 252.557V227.682Z" fill="#B4C5E1"/>
<path d="M928.769 224.866L930.945 223.631V248.479L928.769 249.737V224.866Z" fill="#B4C5E1"/>
<path d="M907.21 204.984L827.372 250.999L853.267 265.919L933.082 219.896L907.21 204.984Z" fill="#E2EBF7"/>
<path d="M831.663 250.985L833.821 249.741L855.4 262.179L853.242 263.422L831.663 250.985Z" fill="#CBD7EB"/>
<path d="M836.559 248.169L838.712 246.925L860.291 259.358L858.133 260.602L836.559 248.169Z" fill="#CBD7EB"/>
<path d="M841.445 245.348L843.603 244.104L865.182 256.541L863.024 257.785L841.445 245.348Z" fill="#CBD7EB"/>
<path d="M846.335 242.531L848.498 241.288L870.072 253.725L867.914 254.964L846.335 242.531Z" fill="#CBD7EB"/>
<path d="M851.23 239.715L853.388 238.471L874.967 250.904L872.809 252.148L851.23 239.715Z" fill="#CBD7EB"/>
<path d="M856.117 236.894L858.275 235.65L879.854 248.087L877.696 249.331L856.117 236.894Z" fill="#CBD7EB"/>
<path d="M861.012 234.077L863.17 232.833L884.744 245.266L882.591 246.51L861.012 234.077Z" fill="#CBD7EB"/>
<path d="M865.902 231.256L868.06 230.012L889.639 242.45L887.481 243.693L865.902 231.256Z" fill="#CBD7EB"/>
<path d="M870.796 228.44L872.954 227.196L894.533 239.633L892.375 240.873L870.796 228.44Z" fill="#CBD7EB"/>
<path d="M875.685 225.619L877.843 224.379L899.422 236.812L897.264 238.056L875.685 225.619Z" fill="#CBD7EB"/>
<path d="M880.578 222.802L882.736 221.559L904.311 233.996L902.153 235.24L880.578 222.802Z" fill="#CBD7EB"/>
<path d="M885.468 219.986L887.626 218.742L909.205 231.175L907.047 232.419L885.468 219.986Z" fill="#CBD7EB"/>
<path d="M890.361 217.165L892.519 215.921L914.094 228.358L911.936 229.602L890.361 217.165Z" fill="#CBD7EB"/>
<path d="M895.251 214.349L897.409 213.105L918.988 225.542L916.83 226.786L895.251 214.349Z" fill="#CBD7EB"/>
<path d="M900.143 211.528L902.301 210.289L923.875 222.722L921.717 223.965L900.143 211.528Z" fill="#CBD7EB"/>
<path d="M905.033 208.711L907.191 207.467L928.77 219.905L926.612 221.149L905.033 208.711Z" fill="#CBD7EB"/>
<path d="M827.349 280.83V250.985L853.244 265.91V295.755L827.349 280.83Z" fill="white"/>
<path d="M850.828 267.091L848.336 265.698L848.079 291.001L850.571 292.416L850.828 267.091Z" fill="#E2EBF7"/>
<path d="M845.98 264.252L843.488 262.873L843.276 288.374L845.768 289.771L845.98 264.252Z" fill="#E2EBF7"/>
<path d="M841.137 261.408L838.645 260.042L838.473 285.742L840.965 287.126L841.137 261.408Z" fill="#E2EBF7"/>
<path d="M836.289 258.569L833.797 257.213L833.671 283.115L836.163 284.481L836.289 258.569Z" fill="#E2EBF7"/>
<path d="M831.439 255.73L828.947 254.383L828.862 280.488L831.354 281.835L831.439 255.73Z" fill="#E2EBF7"/>
<path d="M960.496 296.487L880.658 342.501V312.656L960.496 266.642V296.487Z" fill="#CBD7EB"/>
<path d="M882.814 313.9L884.99 312.665V337.513L882.814 338.77V313.9Z" fill="#B4C5E1"/>
<path d="M887.705 311.078L889.881 309.844V334.696L887.705 335.949V311.078Z" fill="#B4C5E1"/>
<path d="M892.596 308.258L894.771 307.028V331.876L892.596 333.133V308.258Z" fill="#B4C5E1"/>
<path d="M897.486 305.441L899.662 304.207V329.054L897.486 330.312V305.441Z" fill="#B4C5E1"/>
<path d="M902.379 302.62L904.555 301.39V326.238L902.379 327.49V302.62Z" fill="#B4C5E1"/>
<path d="M907.269 299.804L909.445 298.569V323.417L907.269 324.674V299.804Z" fill="#B4C5E1"/>
<path d="M912.159 296.983L914.34 295.752V320.6L912.159 321.853V296.983Z" fill="#B4C5E1"/>
<path d="M917.053 294.162L919.229 292.932V317.78L917.053 319.037V294.162Z" fill="#B4C5E1"/>
<path d="M921.945 291.346L924.121 290.111V314.963L921.945 316.216V291.346Z" fill="#B4C5E1"/>
<path d="M926.832 288.525L929.008 287.294V312.142L926.832 313.395V288.525Z" fill="#B4C5E1"/>
<path d="M931.722 285.708L933.902 284.473V309.321L931.722 310.578V285.708Z" fill="#B4C5E1"/>
<path d="M936.619 282.887L938.795 281.657V306.505L936.619 307.757V282.887Z" fill="#B4C5E1"/>
<path d="M941.507 280.071L943.688 278.836V303.684L941.507 304.941V280.071Z" fill="#B4C5E1"/>
<path d="M946.398 277.25L948.574 276.015V300.868L946.398 302.12V277.25Z" fill="#B4C5E1"/>
<path d="M951.29 274.428L953.471 273.198V298.046L951.29 299.303V274.428Z" fill="#B4C5E1"/>
<path d="M956.183 271.612L958.359 270.377V295.225L956.183 296.483V271.612Z" fill="#B4C5E1"/>
<path d="M934.624 251.73L854.786 297.744L880.681 312.665L960.496 266.641L934.624 251.73Z" fill="#E2EBF7"/>
<path d="M859.078 297.731L861.235 296.487L882.814 308.924L880.657 310.168L859.078 297.731Z" fill="#CBD7EB"/>
<path d="M863.973 294.914L866.126 293.67L887.705 306.103L885.547 307.347L863.973 294.914Z" fill="#CBD7EB"/>
<path d="M868.861 292.093L871.019 290.85L892.598 303.287L890.44 304.531L868.861 292.093Z" fill="#CBD7EB"/>
<path d="M873.749 289.277L875.912 288.033L897.486 300.471L895.328 301.71L873.749 289.277Z" fill="#CBD7EB"/>
<path d="M878.644 286.46L880.802 285.216L902.381 297.649L900.223 298.893L878.644 286.46Z" fill="#CBD7EB"/>
<path d="M883.533 283.639L885.691 282.396L907.27 294.833L905.112 296.077L883.533 283.639Z" fill="#CBD7EB"/>
<path d="M888.426 280.823L890.584 279.579L912.158 292.012L910.005 293.256L888.426 280.823Z" fill="#CBD7EB"/>
<path d="M893.316 278.002L895.474 276.758L917.053 289.195L914.895 290.439L893.316 278.002Z" fill="#CBD7EB"/>
<path d="M898.21 275.185L900.368 273.941L921.947 286.379L919.789 287.618L898.21 275.185Z" fill="#CBD7EB"/>
<path d="M903.099 272.364L905.257 271.125L926.836 283.558L924.678 284.802L903.099 272.364Z" fill="#CBD7EB"/>
<path d="M907.992 269.548L910.15 268.304L931.725 280.742L929.567 281.985L907.992 269.548Z" fill="#CBD7EB"/>
<path d="M912.882 266.732L915.04 265.488L936.619 277.921L934.461 279.164L912.882 266.732Z" fill="#CBD7EB"/>
<path d="M917.775 263.91L919.933 262.667L941.508 275.104L939.35 276.348L917.775 263.91Z" fill="#CBD7EB"/>
<path d="M922.665 261.094L924.823 259.851L946.402 272.288L944.244 273.532L922.665 261.094Z" fill="#CBD7EB"/>
<path d="M927.557 258.273L929.715 257.034L951.289 269.467L949.131 270.71L927.557 258.273Z" fill="#CBD7EB"/>
<path d="M932.447 255.457L934.605 254.213L956.184 266.65L954.026 267.894L932.447 255.457Z" fill="#CBD7EB"/>
<path d="M854.765 327.576V297.73L880.66 312.655V342.501L854.765 327.576Z" fill="white"/>
<path d="M878.244 313.836L875.752 312.444L875.495 337.747L877.987 339.162L878.244 313.836Z" fill="#E2EBF7"/>
<path d="M873.396 310.998L870.905 309.619L870.692 335.12L873.184 336.517L873.396 310.998Z" fill="#E2EBF7"/>
<path d="M868.551 308.154L866.059 306.788L865.887 332.488L868.379 333.871L868.551 308.154Z" fill="#E2EBF7"/>
<path d="M863.705 305.315L861.213 303.958L861.087 329.861L863.579 331.226L863.705 305.315Z" fill="#E2EBF7"/>
<path d="M858.855 302.476L856.364 301.128L856.278 327.234L858.77 328.581L858.855 302.476Z" fill="#E2EBF7"/>
<path d="M960.496 265.31L880.658 311.324V281.479L960.496 235.465V265.31Z" fill="#CBD7EB"/>
<path d="M882.814 282.723L884.99 281.488V306.336L882.814 307.593V282.723Z" fill="#B4C5E1"/>
<path d="M887.705 279.902L889.881 278.667V303.519L887.705 304.772V279.902Z" fill="#B4C5E1"/>
<path d="M892.596 277.081L894.771 275.851V300.699L892.596 301.956V277.081Z" fill="#B4C5E1"/>
<path d="M897.486 274.265L899.662 273.03V297.878L897.486 299.135V274.265Z" fill="#B4C5E1"/>
<path d="M902.379 271.443L904.555 270.213V295.061L902.379 296.314V271.443Z" fill="#B4C5E1"/>
<path d="M907.269 268.627L909.445 267.392V292.24L907.269 293.497V268.627Z" fill="#B4C5E1"/>
<path d="M912.159 265.806L914.34 264.576V289.424L912.159 290.677V265.806Z" fill="#B4C5E1"/>
<path d="M917.053 262.986L919.229 261.755V286.603L917.053 287.861V262.986Z" fill="#B4C5E1"/>
<path d="M921.945 260.169L924.121 258.934V283.786L921.945 285.039V260.169Z" fill="#B4C5E1"/>
<path d="M926.832 257.348L929.008 256.118V280.966L926.832 282.218V257.348Z" fill="#B4C5E1"/>
<path d="M931.722 254.531L933.902 253.296V278.144L931.722 279.402V254.531Z" fill="#B4C5E1"/>
<path d="M936.619 251.71L938.795 250.48V275.328L936.619 276.581V251.71Z" fill="#B4C5E1"/>
<path d="M941.507 248.894L943.688 247.659V272.507L941.507 273.764V248.894Z" fill="#B4C5E1"/>
<path d="M946.398 246.073L948.574 244.838V269.691L946.398 270.944V246.073Z" fill="#B4C5E1"/>
<path d="M951.29 243.252L953.471 242.022V266.87L951.29 268.127V243.252Z" fill="#B4C5E1"/>
<path d="M956.183 240.435L958.359 239.201V264.049L956.183 265.306V240.435Z" fill="#B4C5E1"/>
<path d="M934.624 220.554L854.786 266.568L880.681 281.488L960.496 235.465L934.624 220.554Z" fill="#E2EBF7"/>
<path d="M859.078 266.554L861.235 265.311L882.814 277.748L880.657 278.992L859.078 266.554Z" fill="#CBD7EB"/>
<path d="M863.973 263.738L866.126 262.494L887.705 274.927L885.547 276.171L863.973 263.738Z" fill="#CBD7EB"/>
<path d="M868.861 260.917L871.019 259.673L892.598 272.111L890.44 273.355L868.861 260.917Z" fill="#CBD7EB"/>
<path d="M873.749 258.101L875.912 256.857L897.486 269.294L895.328 270.534L873.749 258.101Z" fill="#CBD7EB"/>
<path d="M878.644 255.284L880.802 254.04L902.381 266.473L900.223 267.717L878.644 255.284Z" fill="#CBD7EB"/>
<path d="M883.533 252.463L885.691 251.219L907.27 263.657L905.112 264.9L883.533 252.463Z" fill="#CBD7EB"/>
<path d="M888.426 249.647L890.584 248.403L912.158 260.836L910.005 262.08L888.426 249.647Z" fill="#CBD7EB"/>
<path d="M893.316 246.825L895.474 245.582L917.053 258.019L914.895 259.263L893.316 246.825Z" fill="#CBD7EB"/>
<path d="M898.21 244.009L900.368 242.765L921.947 255.203L919.789 256.442L898.21 244.009Z" fill="#CBD7EB"/>
<path d="M903.099 241.188L905.257 239.949L926.836 252.382L924.678 253.625L903.099 241.188Z" fill="#CBD7EB"/>
<path d="M907.992 238.372L910.15 237.128L931.725 249.565L929.567 250.809L907.992 238.372Z" fill="#CBD7EB"/>
<path d="M912.882 235.555L915.04 234.312L936.619 246.744L934.461 247.988L912.882 235.555Z" fill="#CBD7EB"/>
<path d="M917.775 232.734L919.933 231.49L941.508 243.928L939.35 245.171L917.775 232.734Z" fill="#CBD7EB"/>
<path d="M922.665 229.918L924.823 228.674L946.402 241.112L944.244 242.356L922.665 229.918Z" fill="#CBD7EB"/>
<path d="M927.557 227.097L929.715 225.857L951.289 238.29L949.131 239.534L927.557 227.097Z" fill="#CBD7EB"/>
<path d="M932.447 224.28L934.605 223.037L956.184 235.474L954.026 236.718L932.447 224.28Z" fill="#CBD7EB"/>
<path d="M854.765 296.4V266.554L880.66 281.479V311.325L854.765 296.4Z" fill="white"/>
<path d="M878.244 282.66L875.752 281.268L875.495 306.571L877.987 307.986L878.244 282.66Z" fill="#E2EBF7"/>
<path d="M873.396 279.821L870.905 278.442L870.692 303.944L873.184 305.341L873.396 279.821Z" fill="#E2EBF7"/>
<path d="M868.551 276.977L866.059 275.612L865.887 301.311L868.379 302.695L868.551 276.977Z" fill="#E2EBF7"/>
<path d="M863.705 274.139L861.213 272.782L861.087 298.685L863.579 300.05L863.705 274.139Z" fill="#E2EBF7"/>
<path d="M858.855 271.3L856.364 269.952L856.278 296.057L858.77 297.405L858.855 271.3Z" fill="#E2EBF7"/>
<path d="M986.5 311.742L906.662 357.757V327.911L986.5 281.897V311.742Z" fill="#719D46"/>
<path d="M908.816 329.155L910.992 327.92V352.768L908.816 354.026V329.155Z" fill="#668D3F"/>
<path d="M913.707 326.334L915.883 325.099V349.952L913.707 351.204V326.334Z" fill="#668D3F"/>
<path d="M918.599 323.513L920.775 322.283V347.131L918.599 348.388V323.513Z" fill="#668D3F"/>
<path d="M923.488 320.697L925.664 319.462V344.31L923.488 345.567V320.697Z" fill="#668D3F"/>
<path d="M928.381 317.875L930.557 316.645V341.493L928.381 342.746V317.875Z" fill="#668D3F"/>
<path d="M933.271 315.059L935.447 313.824V338.672L933.271 339.929V315.059Z" fill="#668D3F"/>
<path d="M938.161 312.238L940.342 311.008V335.856L938.161 337.108V312.238Z" fill="#668D3F"/>
<path d="M943.055 309.417L945.23 308.187V333.035L943.055 334.292V309.417Z" fill="#668D3F"/>
<path d="M947.947 306.601L950.123 305.366V330.219L947.947 331.471V306.601Z" fill="#668D3F"/>
<path d="M952.834 303.78L955.01 302.549V327.397L952.834 328.65V303.78Z" fill="#668D3F"/>
<path d="M957.724 300.963L959.904 299.729V324.576L957.724 325.834V300.963Z" fill="#668D3F"/>
<path d="M962.621 298.142L964.797 296.912V321.76L962.621 323.013V298.142Z" fill="#668D3F"/>
<path d="M967.509 295.326L969.689 294.091V318.939L967.509 320.196V295.326Z" fill="#668D3F"/>
<path d="M972.4 292.505L974.576 291.271V316.123L972.4 317.376V292.505Z" fill="#668D3F"/>
<path d="M977.292 289.684L979.473 288.454V313.302L977.292 314.559V289.684Z" fill="#668D3F"/>
<path d="M982.185 286.868L984.361 285.633V310.481L982.185 311.738V286.868Z" fill="#668D3F"/>
<path d="M960.628 266.985L880.79 312.999L906.685 327.92L986.5 281.897L960.628 266.985Z" fill="#7EAE4E"/>
<path d="M885.081 312.986L887.239 311.742L908.818 324.18L906.66 325.423L885.081 312.986Z" fill="#729F45"/>
<path d="M889.977 310.17L892.13 308.926L913.709 321.359L911.551 322.602L889.977 310.17Z" fill="#729F45"/>
<path d="M894.863 307.349L897.021 306.105L918.6 318.542L916.442 319.786L894.863 307.349Z" fill="#729F45"/>
<path d="M899.753 304.532L901.916 303.289L923.49 315.726L921.332 316.965L899.753 304.532Z" fill="#729F45"/>
<path d="M904.648 301.715L906.806 300.472L928.385 312.905L926.227 314.148L904.648 301.715Z" fill="#729F45"/>
<path d="M909.537 298.895L911.694 297.651L933.273 310.088L931.116 311.332L909.537 298.895Z" fill="#729F45"/>
<path d="M914.43 296.078L916.588 294.834L938.162 307.267L936.009 308.511L914.43 296.078Z" fill="#729F45"/>
<path d="M919.32 293.257L921.478 292.013L943.057 304.451L940.899 305.694L919.32 293.257Z" fill="#729F45"/>
<path d="M924.214 290.441L926.372 289.197L947.951 301.634L945.793 302.873L924.214 290.441Z" fill="#729F45"/>
<path d="M929.103 287.62L931.261 286.38L952.84 298.813L950.682 300.057L929.103 287.62Z" fill="#729F45"/>
<path d="M933.996 284.803L936.154 283.56L957.729 295.997L955.571 297.241L933.996 284.803Z" fill="#729F45"/>
<path d="M938.886 281.987L941.044 280.743L962.623 293.176L960.465 294.42L938.886 281.987Z" fill="#729F45"/>
<path d="M943.779 279.166L945.937 277.922L967.512 290.359L965.354 291.603L943.779 279.166Z" fill="#729F45"/>
<path d="M948.669 276.35L950.827 275.106L972.406 287.543L970.248 288.787L948.669 276.35Z" fill="#729F45"/>
<path d="M953.561 273.528L955.718 272.289L977.293 284.722L975.135 285.966L953.561 273.528Z" fill="#729F45"/>
<path d="M958.451 270.712L960.608 269.468L982.188 281.906L980.03 283.149L958.451 270.712Z" fill="#729F45"/>
<path d="M880.765 342.831V312.986L906.66 327.911V357.756L880.765 342.831Z" fill="#8BBF56"/>
<path d="M904.244 329.092L901.752 327.699L901.495 353.002L903.987 354.417L904.244 329.092Z" fill="#80B24D"/>
<path d="M899.396 326.253L896.905 324.874L896.692 350.375L899.184 351.772L899.396 326.253Z" fill="#80B24D"/>
<path d="M894.551 323.409L892.059 322.043L891.887 347.743L894.379 349.127L894.551 323.409Z" fill="#80B24D"/>
<path d="M889.705 320.57L887.213 319.214L887.087 345.116L889.579 346.482L889.705 320.57Z" fill="#80B24D"/>
<path d="M884.855 317.731L882.364 316.384L882.278 342.489L884.77 343.836L884.855 317.731Z" fill="#80B24D"/>
</g>
<defs>
<filter id="filter0_f_1660_28863" x="1678" y="279.145" width="181.003" height="106.191" filterUnits="userSpaceOnUse" color-interpolation-filters="sRGB">
<feFlood flood-opacity="0" result="BackgroundImageFix"/>
<feBlend mode="normal" in="SourceGraphic" in2="BackgroundImageFix" result="shape"/>
<feGaussianBlur stdDeviation="2" result="effect1_foregroundBlur_1660_28863"/>
</filter>
<filter id="filter1_f_1660_28863" x="384.002" y="796.945" width="206.998" height="120.068" filterUnits="userSpaceOnUse" color-interpolation-filters="sRGB">
<feFlood flood-opacity="0" result="BackgroundImageFix"/>
<feBlend mode="normal" in="SourceGraphic" in2="BackgroundImageFix" result="shape"/>
<feGaussianBlur stdDeviation="2" result="effect1_foregroundBlur_1660_28863"/>
</filter>
<filter id="filter2_f_1660_28863" x="797.495" y="244.59" width="257.505" height="150.737" filterUnits="userSpaceOnUse" color-interpolation-filters="sRGB">
<feFlood flood-opacity="0" result="BackgroundImageFix"/>
<feBlend mode="normal" in="SourceGraphic" in2="BackgroundImageFix" result="shape"/>
<feGaussianBlur stdDeviation="2" result="effect1_foregroundBlur_1660_28863"/>
</filter>
<linearGradient id="paint0_linear_1660_28863" x1="1787.13" y1="362.492" x2="1738.69" y2="281.501" gradientUnits="userSpaceOnUse">
<stop stop-color="#0E3390" stop-opacity="0"/>
<stop offset="0.915239" stop-color="#0E3390"/>
</linearGradient>
<linearGradient id="paint1_linear_1660_28863" x1="519.13" y1="894.17" x2="470.696" y2="813.181" gradientUnits="userSpaceOnUse">
<stop stop-color="#0E3390" stop-opacity="0"/>
<stop offset="0.915239" stop-color="#0E3390"/>
</linearGradient>
<linearGradient id="paint2_linear_1660_28863" x1="959.998" y1="362.488" x2="898.095" y2="253.213" gradientUnits="userSpaceOnUse">
<stop stop-color="#0E3390" stop-opacity="0"/>
<stop offset="0.915239" stop-color="#0E3390"/>
</linearGradient>
<clipPath id="clip0_1660_28863">
<rect width="1920" height="1752" fill="white"/>
</clipPath>
</defs>
</svg>
