<svg width="622" height="407" viewBox="0 0 622 407" fill="none" xmlns="http://www.w3.org/2000/svg">
<g style="mix-blend-mode:multiply" opacity="0.4" filter="url(#filter0_f_1737_31462)">
<path d="M520.214 49.6768L616.519 109.525L118.483 401.086L5.66797 339.02L520.214 49.6768Z" fill="url(#paint0_linear_1737_31462)"/>
</g>
<path d="M522.875 62.324C523.08 63.9549 521.859 66.2574 520.147 67.4898C518.436 68.7222 516.878 68.3754 516.673 66.7518C516.468 65.1283 517.689 62.8185 519.401 61.586C521.113 60.3536 522.707 60.6931 522.875 62.324Z" fill="#9EA2CB"/>
<path d="M522.053 62.9143C522.206 64.1025 521.321 65.7924 520.056 66.6854C518.791 67.5783 517.664 67.3348 517.518 66.1466C517.372 64.9585 518.249 63.2686 519.515 62.3756C520.78 61.4827 521.899 61.7262 522.053 62.9143Z" fill="#B4C5E1"/>
<path d="M505.355 72.4861C505.509 73.6742 504.624 75.3642 503.359 76.2571C502.093 77.1501 500.967 76.9065 500.821 75.7184C500.674 74.5303 501.552 72.8403 502.817 71.9474C504.083 71.0544 505.209 71.2906 505.355 72.4861Z" fill="#B4C5E1"/>
<path d="M477.678 89.4593C477.883 91.0902 476.661 93.3926 474.95 94.6251C473.238 95.8575 471.68 95.5106 471.476 93.8871C471.271 92.2636 472.492 89.9537 474.204 88.7213C475.915 87.4889 477.466 87.8284 477.678 89.4593Z" fill="#9EA2CB"/>
<path d="M476.842 90.0495C476.995 91.2377 476.11 92.9276 474.845 93.8206C473.58 94.7135 472.453 94.47 472.307 93.2819C472.161 92.0937 473.038 90.4038 474.304 89.5108C475.569 88.6179 476.688 88.8319 476.842 90.0495Z" fill="#B4C5E1"/>
<path d="M460.141 99.6211C460.294 100.809 459.409 102.499 458.144 103.392C456.878 104.285 455.752 104.042 455.606 102.853C455.459 101.665 456.337 99.9753 457.603 99.0824C458.868 98.1894 459.994 98.4256 460.141 99.6211Z" fill="#B4C5E1"/>
<path d="M525.533 57.8372C525.447 56.9786 525.136 56.1584 524.633 55.4609L524.852 55.1141L522.958 54.2211H522.921C521.246 53.6676 518.95 54.2211 516.529 55.9037C512.082 59.0622 508.907 65.0545 509.441 69.2757C509.531 70.2398 509.914 71.1524 510.539 71.8881C510.537 71.9053 510.537 71.9226 510.539 71.9398C511.35 72.7379 512.361 73.299 513.464 73.5633L513.757 73.0836C515.462 72.896 517.084 72.24 518.445 71.187C522.892 68.0359 526.067 62.0436 525.533 57.8372Z" fill="#969BC2"/>
<path d="M526.972 58.5159C527.506 62.7371 524.332 68.7294 519.885 71.8879C515.438 75.0464 511.4 74.1904 510.874 69.9692C510.347 65.748 513.514 59.7557 517.961 56.5972C522.408 53.4387 526.438 54.2947 526.972 58.5159Z" fill="#9EA2CB"/>
<path d="M526.089 59.682C526.514 63.0398 523.99 67.7997 520.45 70.3236C516.91 72.8474 513.699 72.1537 513.275 68.796C512.851 65.4382 515.374 60.6783 518.914 58.1544C522.454 55.6306 525.636 56.3612 526.089 59.682Z" fill="#B4C5E1"/>
<path d="M508.811 67.3938C508.725 66.5353 508.415 65.7151 507.911 65.0176L508.131 64.6707L506.251 63.7409H506.214C504.539 63.1874 502.243 63.7409 499.822 65.4235C495.375 68.582 492.2 74.5743 492.734 78.7955C492.824 79.7596 493.207 80.6721 493.831 81.4079C493.83 81.4251 493.83 81.4423 493.831 81.4595C494.643 82.2577 495.654 82.8188 496.757 83.0831L497.05 82.6034C498.755 82.4158 500.377 81.7598 501.738 80.7068C506.192 77.6 509.367 71.615 508.811 67.3938Z" fill="#969BC2"/>
<path d="M510.275 68.0877C510.809 72.3089 507.634 78.3012 503.187 81.4597C498.74 84.6182 494.703 83.7622 494.176 79.541C493.65 75.3198 496.817 69.3275 501.264 66.169C505.711 63.0105 509.748 63.8665 510.275 68.0877Z" fill="#9EA2CB"/>
<path d="M509.392 69.2537C509.816 72.6114 507.293 77.3713 503.753 79.8952C500.213 82.419 497.002 81.7253 496.578 78.3676C496.154 75.0098 498.677 70.2499 502.217 67.726C505.757 65.2022 508.975 65.8959 509.392 69.2537Z" fill="#B4C5E1"/>
<path d="M506.186 71.8586C506.391 73.4895 505.169 75.792 503.458 77.0244C501.746 78.2568 500.188 77.91 499.983 76.2864C499.779 74.6629 501 72.3531 502.712 71.1207C504.423 69.8883 505.981 70.2646 506.186 71.8586Z" fill="#9EA2CB"/>
<path d="M523.609 58.7524L500.928 72.5967V79.113L506.435 75.7479L507.518 73.2904L518.24 66.752L519.03 68.0804L523.609 65.2909V58.7524Z" fill="#BDCCE5"/>
<path d="M480.286 84.9575C480.201 84.0989 479.89 83.2788 479.387 82.5813L479.606 82.2344L477.712 81.3415H477.675C476 80.788 473.704 81.3415 471.283 83.0241C466.836 86.1826 463.661 92.1749 464.195 96.3961C464.285 97.3602 464.668 98.2727 465.292 99.0085C465.291 99.0257 465.291 99.0429 465.292 99.0601C466.104 99.8582 467.115 100.419 468.218 100.684L468.511 100.204C470.216 100.016 471.838 99.3604 473.199 98.3074C477.683 95.171 480.857 89.1787 480.286 84.9575Z" fill="#969BC2"/>
<path d="M481.749 85.6513C482.283 89.8724 479.109 95.8648 474.662 99.0233C470.215 102.182 466.178 101.326 465.651 97.1045C465.124 92.8834 468.291 86.891 472.738 83.7325C477.185 80.574 481.23 81.4522 481.749 85.6513Z" fill="#9EA2CB"/>
<path d="M480.88 86.8247C481.305 90.1824 478.781 94.9423 475.241 97.4662C471.701 99.99 468.49 99.2964 468.066 95.9386C467.642 92.5808 470.165 87.8209 473.705 85.2971C477.245 82.7732 480.456 83.4595 480.88 86.8247Z" fill="#B4C5E1"/>
<path d="M463.627 94.5291C463.543 93.6712 463.235 92.8511 462.734 92.1528L462.954 91.806L461.06 90.913H461.023C459.348 90.3595 457.051 90.913 454.63 92.5956C450.183 95.7541 447.009 101.746 447.543 105.968C447.633 106.932 448.016 107.844 448.64 108.58C448.639 108.597 448.639 108.614 448.64 108.632C449.452 109.43 450.463 109.991 451.566 110.255L451.858 109.776C453.564 109.588 455.185 108.932 456.547 107.879C460.986 104.743 464.197 98.7503 463.627 94.5291Z" fill="#969BC2"/>
<path d="M465.074 95.223C465.608 99.4441 462.433 105.436 457.986 108.595C453.539 111.753 449.502 110.897 448.975 106.676C448.449 102.455 451.616 96.4627 456.063 93.3042C460.51 90.1457 464.54 91.0018 465.074 95.223Z" fill="#9EA2CB"/>
<path d="M464.197 96.3962C464.621 99.754 462.098 104.514 458.558 107.038C455.018 109.562 451.807 108.868 451.382 105.51C450.958 102.152 453.482 97.3925 457.022 94.8686C460.562 92.3447 463.765 93.0311 464.197 96.3962Z" fill="#B4C5E1"/>
<path d="M460.979 99.0306C461.184 100.661 459.962 102.964 458.251 104.196C456.539 105.429 454.981 105.082 454.776 103.458C454.572 101.835 455.793 99.525 457.505 98.2926C459.216 97.0602 460.774 97.3996 460.979 99.0306Z" fill="#9EA2CB"/>
<path d="M478.398 85.8877L455.717 99.732V106.248L461.224 102.883L462.307 100.426L473.029 93.8873L473.819 95.223L478.398 92.4261V85.8877Z" fill="#BDCCE5"/>
<path d="M538.17 54.9814L442.625 111.008V101.178L538.17 45.1516V54.9814Z" fill="#A9B8DA"/>
<path d="M442.627 101.097L411.455 83.7407V93.1471L442.627 111.015V101.097Z" fill="#BDCCE5"/>
<path d="M404.234 34.4594L404.448 34.5785V34.3328L404.234 34.4594Z" fill="#2B2B2D"/>
<path d="M537.955 53.8639L442.388 109.241V73.3227L537.955 17.9456V53.8639Z" fill="#CBD7EB"/>
<path d="M444.972 74.8192L447.576 73.3333V103.237L444.972 104.75V74.8192Z" fill="#B4C5E1"/>
<path d="M450.823 71.4245L453.428 69.9385V99.8479L450.823 101.356V71.4245Z" fill="#B4C5E1"/>
<path d="M456.679 68.0294L459.283 66.5488V96.4528L456.679 97.9659V68.0294Z" fill="#B4C5E1"/>
<path d="M462.532 64.6398L465.137 63.1538V93.0578L462.532 94.5709V64.6398Z" fill="#B4C5E1"/>
<path d="M468.388 61.2442L470.992 59.7637V89.6677L468.388 91.1753V61.2442Z" fill="#B4C5E1"/>
<path d="M474.243 57.8549L476.848 56.3689V86.2729L474.243 87.786V57.8549Z" fill="#B4C5E1"/>
<path d="M480.095 54.4603L482.705 52.9797V82.8837L480.095 84.3914V54.4603Z" fill="#B4C5E1"/>
<path d="M485.956 51.0655L488.561 49.585V79.4889L485.956 81.002V51.0655Z" fill="#B4C5E1"/>
<path d="M491.809 47.6757L494.414 46.1897V76.0991L491.809 77.6068V47.6757Z" fill="#B4C5E1"/>
<path d="M497.661 44.2806L500.266 42.8V72.704L497.661 74.2117V44.2806Z" fill="#B4C5E1"/>
<path d="M503.515 40.8913L506.125 39.4053V69.3093L503.515 70.8224V40.8913Z" fill="#B4C5E1"/>
<path d="M509.378 37.4964L511.982 36.0159V65.9199L509.378 67.4275V37.4964Z" fill="#B4C5E1"/>
<path d="M515.228 34.1071L517.838 32.6211V62.5251L515.228 64.0382V34.1071Z" fill="#B4C5E1"/>
<path d="M521.081 30.7116L523.686 29.2256V59.135L521.081 60.6427V30.7116Z" fill="#B4C5E1"/>
<path d="M526.937 27.3165L529.547 25.8359V55.7399L526.937 57.253V27.3165Z" fill="#B4C5E1"/>
<path d="M532.794 23.9272L535.398 22.4412V52.3451L532.794 53.8582V23.9272Z" fill="#B4C5E1"/>
<path d="M506.986 0L411.419 55.3771L442.415 73.3336L537.955 17.9456L506.986 0Z" fill="#E2EBF7"/>
<path d="M416.555 55.3611L419.138 53.8643L444.969 68.8325L442.386 70.3294L416.555 55.3611Z" fill="#CBD7EB"/>
<path d="M422.412 51.9714L424.99 50.4746L450.82 65.4374L448.237 66.9343L422.412 51.9714Z" fill="#CBD7EB"/>
<path d="M428.262 48.5764L430.845 47.0796L456.676 62.0478L454.093 63.5447L428.262 48.5764Z" fill="#CBD7EB"/>
<path d="M434.116 45.1868L436.704 43.6899L462.529 58.6582L459.946 60.1496L434.116 45.1868Z" fill="#CBD7EB"/>
<path d="M439.977 41.7971L442.56 40.3003L468.391 55.2631L465.808 56.7599L439.977 41.7971Z" fill="#CBD7EB"/>
<path d="M445.827 38.4021L448.41 36.9053L474.24 51.8735L471.657 53.3704L445.827 38.4021Z" fill="#CBD7EB"/>
<path d="M451.684 35.0125L454.267 33.5156L480.092 48.4785L477.514 49.9753L451.684 35.0125Z" fill="#CBD7EB"/>
<path d="M457.536 31.6174L460.119 30.1206L485.949 45.0889L483.366 46.5857L457.536 31.6174Z" fill="#CBD7EB"/>
<path d="M463.393 28.228L465.976 26.7312L491.807 41.6995L489.224 43.1909L463.393 28.228Z" fill="#CBD7EB"/>
<path d="M469.245 24.8332L471.828 23.3418L497.658 38.3046L495.075 39.8015L469.245 24.8332Z" fill="#CBD7EB"/>
<path d="M475.106 21.4436L477.689 19.9468L503.514 34.915L500.931 36.4119L475.106 21.4436Z" fill="#CBD7EB"/>
<path d="M480.958 18.0542L483.541 16.5574L509.371 31.5202L506.788 33.017L480.958 18.0542Z" fill="#CBD7EB"/>
<path d="M486.815 14.6589L489.398 13.1621L515.223 28.1304L512.64 29.6272L486.815 14.6589Z" fill="#CBD7EB"/>
<path d="M492.669 11.2698L495.252 9.77295L521.082 24.7412L518.499 26.238L492.669 11.2698Z" fill="#CBD7EB"/>
<path d="M498.526 7.87446L501.109 6.38306L526.934 21.3459L524.351 22.8427L498.526 7.87446Z" fill="#CBD7EB"/>
<path d="M504.378 4.48511L506.961 2.98828L532.791 17.9565L530.208 19.4534L504.378 4.48511Z" fill="#CBD7EB"/>
<path d="M411.39 91.279V55.3606L442.387 73.3225V109.241L411.39 91.279Z" fill="white"/>
<path d="M439.494 74.7439L436.511 73.0681L436.203 103.52L439.186 105.223L439.494 74.7439Z" fill="#E2EBF7"/>
<path d="M433.693 71.327L430.71 69.6675L430.456 100.358L433.439 102.039L433.693 71.327Z" fill="#E2EBF7"/>
<path d="M427.896 67.9047L424.914 66.2615L424.708 97.1905L427.691 98.8554L427.896 67.9047Z" fill="#E2EBF7"/>
<path d="M422.092 64.4881L419.109 62.8557L418.958 94.0287L421.94 95.672L422.092 64.4881Z" fill="#E2EBF7"/>
<path d="M416.287 61.0713L413.304 59.4497L413.202 90.8668L416.184 92.4883L416.287 61.0713Z" fill="#E2EBF7"/>
<path d="M423.004 122.831C423.209 124.462 421.987 126.764 420.276 127.996C418.564 129.229 417.007 128.882 416.802 127.258C416.597 125.635 417.818 123.325 419.53 122.093C421.241 120.86 422.836 121.2 423.004 122.831Z" fill="#9EA2CB"/>
<path d="M422.178 123.421C422.331 124.609 421.446 126.299 420.181 127.192C418.916 128.085 417.789 127.841 417.643 126.653C417.497 125.465 418.374 123.775 419.64 122.882C420.905 121.989 422.024 122.233 422.178 123.421Z" fill="#B4C5E1"/>
<path d="M405.482 132.993C405.636 134.181 404.751 135.871 403.486 136.764C402.22 137.657 401.094 137.413 400.948 136.225C400.801 135.037 401.679 133.347 402.944 132.454C404.21 131.561 405.336 131.797 405.482 132.993Z" fill="#B4C5E1"/>
<path d="M377.805 149.966C378.01 151.597 376.788 153.899 375.077 155.132C373.365 156.364 371.807 156.017 371.602 154.394C371.398 152.77 372.619 150.46 374.331 149.228C376.042 147.995 377.593 148.335 377.805 149.966Z" fill="#9EA2CB"/>
<path d="M376.969 150.556C377.122 151.744 376.237 153.434 374.972 154.327C373.707 155.22 372.58 154.977 372.434 153.788C372.288 152.6 373.165 150.91 374.431 150.017C375.696 149.124 376.815 149.338 376.969 150.556Z" fill="#B4C5E1"/>
<path d="M360.269 160.128C360.423 161.316 359.538 163.006 358.273 163.899C357.007 164.792 355.881 164.548 355.735 163.36C355.588 162.172 356.466 160.482 357.731 159.589C358.997 158.696 360.123 158.932 360.269 160.128Z" fill="#B4C5E1"/>
<path d="M425.66 118.344C425.574 117.485 425.263 116.665 424.76 115.968L424.979 115.621L423.085 114.728H423.048C421.373 114.174 419.077 114.728 416.656 116.41C412.209 119.569 409.034 125.561 409.568 129.782C409.658 130.746 410.041 131.659 410.665 132.395C410.664 132.412 410.664 132.429 410.665 132.446C411.477 133.244 412.488 133.806 413.591 134.07L413.884 133.59C415.589 133.403 417.211 132.747 418.572 131.694C423.019 128.543 426.193 122.55 425.66 118.344Z" fill="#969BC2"/>
<path d="M427.099 119.023C427.633 123.244 424.459 129.236 420.012 132.395C415.565 135.553 411.527 134.697 411.001 130.476C410.474 126.255 413.641 120.263 418.088 117.104C422.535 113.946 426.565 114.802 427.099 119.023Z" fill="#9EA2CB"/>
<path d="M426.216 120.189C426.641 123.546 424.117 128.306 420.577 130.83C417.037 133.354 413.826 132.66 413.402 129.303C412.978 125.945 415.501 121.185 419.041 118.661C422.581 116.137 425.763 116.868 426.216 120.189Z" fill="#B4C5E1"/>
<path d="M408.938 127.9C408.852 127.042 408.542 126.222 408.038 125.524L408.258 125.177L406.378 124.247H406.341C404.666 123.694 402.37 124.247 399.949 125.93C395.502 129.089 392.327 135.081 392.861 139.302C392.951 140.266 393.334 141.179 393.958 141.914C393.957 141.932 393.957 141.949 393.958 141.966C394.77 142.764 395.781 143.325 396.884 143.59L397.177 143.11C398.882 142.922 400.504 142.266 401.865 141.213C406.319 138.107 409.494 132.122 408.938 127.9Z" fill="#969BC2"/>
<path d="M410.402 128.594C410.936 132.815 407.761 138.808 403.314 141.966C398.867 145.125 394.83 144.269 394.303 140.048C393.777 135.826 396.944 129.834 401.391 126.676C405.838 123.517 409.875 124.373 410.402 128.594Z" fill="#9EA2CB"/>
<path d="M409.519 129.76C409.943 133.118 407.42 137.878 403.88 140.402C400.34 142.926 397.129 142.232 396.705 138.874C396.281 135.516 398.804 130.756 402.344 128.233C405.884 125.709 409.102 126.402 409.519 129.76Z" fill="#B4C5E1"/>
<path d="M406.313 132.365C406.518 133.996 405.296 136.299 403.585 137.531C401.873 138.763 400.315 138.417 400.11 136.793C399.906 135.17 401.127 132.86 402.838 131.627C404.55 130.395 406.108 130.771 406.313 132.365Z" fill="#9EA2CB"/>
<path d="M423.738 119.259L401.057 133.103V139.619L406.564 136.254L407.647 133.797L418.369 127.258L419.159 128.587L423.738 125.797V119.259Z" fill="#BDCCE5"/>
<path d="M380.413 145.464C380.328 144.606 380.017 143.786 379.514 143.088L379.733 142.741L377.839 141.848H377.802C376.127 141.295 373.831 141.848 371.41 143.531C366.963 146.689 363.788 152.682 364.322 156.903C364.412 157.867 364.795 158.78 365.419 159.515C365.418 159.533 365.418 159.55 365.419 159.567C366.231 160.365 367.242 160.926 368.345 161.19L368.638 160.711C370.343 160.523 371.965 159.867 373.326 158.814C377.81 155.678 380.984 149.686 380.413 145.464Z" fill="#969BC2"/>
<path d="M381.876 146.158C382.41 150.379 379.236 156.371 374.789 159.53C370.342 162.688 366.305 161.832 365.778 157.611C365.251 153.39 368.418 147.398 372.865 144.239C377.312 141.081 381.357 141.959 381.876 146.158Z" fill="#9EA2CB"/>
<path d="M381.005 147.331C381.43 150.689 378.906 155.449 375.366 157.973C371.826 160.497 368.615 159.803 368.191 156.445C367.767 153.087 370.29 148.328 373.83 145.804C377.37 143.28 380.581 143.966 381.005 147.331Z" fill="#B4C5E1"/>
<path d="M363.754 155.036C363.67 154.178 363.362 153.358 362.861 152.659L363.081 152.313L361.187 151.42H361.15C359.475 150.866 357.178 151.42 354.757 153.102C350.31 156.261 347.136 162.253 347.67 166.474C347.76 167.438 348.143 168.351 348.767 169.087C348.766 169.104 348.766 169.121 348.767 169.138C349.579 169.936 350.59 170.497 351.693 170.762L351.985 170.282C353.691 170.095 355.312 169.439 356.674 168.386C361.113 165.249 364.324 159.257 363.754 155.036Z" fill="#969BC2"/>
<path d="M365.203 155.729C365.736 159.95 362.562 165.943 358.115 169.101C353.668 172.26 349.631 171.404 349.104 167.183C348.577 162.961 351.745 156.969 356.192 153.811C360.639 150.652 364.669 151.508 365.203 155.729Z" fill="#9EA2CB"/>
<path d="M364.324 156.903C364.748 160.261 362.225 165.02 358.685 167.544C355.145 170.068 351.934 169.374 351.509 166.017C351.085 162.659 353.609 157.899 357.149 155.375C360.689 152.851 363.892 153.538 364.324 156.903Z" fill="#B4C5E1"/>
<path d="M361.106 159.537C361.31 161.168 360.089 163.471 358.378 164.703C356.666 165.936 355.108 165.589 354.903 163.965C354.698 162.342 355.92 160.032 357.631 158.799C359.343 157.567 360.901 157.906 361.106 159.537Z" fill="#9EA2CB"/>
<path d="M378.527 146.394L355.846 160.239V166.755L361.353 163.39L362.436 160.932L373.158 154.394L373.948 155.73L378.527 152.933V146.394Z" fill="#BDCCE5"/>
<path d="M438.297 115.488L342.752 171.515V161.685L438.297 105.658V115.488Z" fill="#A9B8DA"/>
<path d="M342.754 161.603L311.582 144.247V153.654L342.754 171.522V161.603Z" fill="#BDCCE5"/>
<path d="M304.363 94.9659L304.577 95.0851V94.8394L304.363 94.9659Z" fill="#2B2B2D"/>
<path d="M438.084 111.24L342.517 166.618V130.699L438.084 75.322V111.24Z" fill="#CBD7EB"/>
<path d="M345.1 132.196L347.705 130.71V160.614L345.1 162.127V132.196Z" fill="#B4C5E1"/>
<path d="M350.952 128.801L353.557 127.315V157.224L350.952 158.732V128.801Z" fill="#B4C5E1"/>
<path d="M356.807 125.406L359.412 123.925V153.829L356.807 155.342V125.406Z" fill="#B4C5E1"/>
<path d="M362.661 122.016L365.266 120.53V150.434L362.661 151.947V122.016Z" fill="#B4C5E1"/>
<path d="M368.516 118.621L371.121 117.14V147.044L368.516 148.552V118.621Z" fill="#B4C5E1"/>
<path d="M374.372 115.231L376.977 113.745V143.649L374.372 145.162V115.231Z" fill="#B4C5E1"/>
<path d="M380.224 111.837L382.834 110.356V140.26L380.224 141.768V111.837Z" fill="#B4C5E1"/>
<path d="M386.085 108.442L388.689 106.961V136.865L386.085 138.378V108.442Z" fill="#B4C5E1"/>
<path d="M391.938 105.052L394.543 103.566V133.476L391.938 134.983V105.052Z" fill="#B4C5E1"/>
<path d="M397.79 101.657L400.395 100.177V130.081L397.79 131.588V101.657Z" fill="#B4C5E1"/>
<path d="M403.644 98.2677L406.254 96.7817V126.686L403.644 128.199V98.2677Z" fill="#B4C5E1"/>
<path d="M409.507 94.8729L412.111 93.3923V123.296L409.507 124.804V94.8729Z" fill="#B4C5E1"/>
<path d="M415.357 91.4835L417.967 89.9976V119.902L415.357 121.415V91.4835Z" fill="#B4C5E1"/>
<path d="M421.21 88.088L423.814 86.6021V116.511L421.21 118.019V88.088Z" fill="#B4C5E1"/>
<path d="M427.066 84.693L429.676 83.2124V113.116L427.066 114.629V84.693Z" fill="#B4C5E1"/>
<path d="M432.923 81.3036L435.527 79.8176V109.722L432.923 111.235V81.3036Z" fill="#B4C5E1"/>
<path d="M407.115 57.3765L311.547 112.754L342.544 130.71L438.084 75.3221L407.115 57.3765Z" fill="#E2EBF7"/>
<path d="M316.684 112.738L319.267 111.241L345.098 126.209L342.515 127.706L316.684 112.738Z" fill="#CBD7EB"/>
<path d="M322.541 109.348L325.119 107.851L350.949 122.814L348.366 124.311L322.541 109.348Z" fill="#CBD7EB"/>
<path d="M328.391 105.953L330.974 104.456L356.805 119.424L354.222 120.921L328.391 105.953Z" fill="#CBD7EB"/>
<path d="M334.245 102.563L336.833 101.066L362.658 116.035L360.075 117.526L334.245 102.563Z" fill="#CBD7EB"/>
<path d="M340.106 99.1736L342.689 97.6768L368.52 112.64L365.936 114.136L340.106 99.1736Z" fill="#CBD7EB"/>
<path d="M345.956 95.7786L348.539 94.2817L374.369 109.25L371.786 110.747L345.956 95.7786Z" fill="#CBD7EB"/>
<path d="M351.813 92.3889L354.396 90.8921L380.221 105.855L377.643 107.352L351.813 92.3889Z" fill="#CBD7EB"/>
<path d="M357.665 88.9939L360.248 87.4971L386.078 102.465L383.495 103.962L357.665 88.9939Z" fill="#CBD7EB"/>
<path d="M363.522 85.6045L366.105 84.1077L391.936 99.0759L389.353 100.567L363.522 85.6045Z" fill="#CBD7EB"/>
<path d="M369.374 82.2097L371.957 80.7183L397.787 95.6811L395.204 97.1779L369.374 82.2097Z" fill="#CBD7EB"/>
<path d="M375.235 78.8201L377.818 77.3232L403.643 92.2915L401.06 93.7883L375.235 78.8201Z" fill="#CBD7EB"/>
<path d="M381.087 75.4307L383.67 73.9338L409.5 88.8967L406.917 90.3935L381.087 75.4307Z" fill="#CBD7EB"/>
<path d="M386.944 72.0354L389.527 70.5386L415.352 85.5068L412.769 87.0037L386.944 72.0354Z" fill="#CBD7EB"/>
<path d="M392.797 68.6462L395.381 67.1494L421.211 82.1177L418.628 83.6145L392.797 68.6462Z" fill="#CBD7EB"/>
<path d="M398.654 65.2509L401.238 63.7595L427.062 78.7224L424.479 80.2192L398.654 65.2509Z" fill="#CBD7EB"/>
<path d="M404.506 61.8616L407.09 60.3647L432.92 75.333L430.337 76.8298L404.506 61.8616Z" fill="#CBD7EB"/>
<path d="M311.519 148.655V112.737L342.516 130.699V166.617L311.519 148.655Z" fill="white"/>
<path d="M339.623 132.12L336.64 130.445L336.332 160.896L339.315 162.599L339.623 132.12Z" fill="#E2EBF7"/>
<path d="M333.822 128.703L330.839 127.044L330.585 157.734L333.568 159.416L333.822 128.703Z" fill="#E2EBF7"/>
<path d="M328.025 125.281L325.042 123.638L324.837 154.567L327.82 156.232L328.025 125.281Z" fill="#E2EBF7"/>
<path d="M322.221 121.865L319.238 120.232L319.086 151.405L322.069 153.048L322.221 121.865Z" fill="#E2EBF7"/>
<path d="M316.416 118.448L313.433 116.826L313.33 148.243L316.313 149.865L316.416 118.448Z" fill="#E2EBF7"/>
<path d="M323.135 180.207C323.34 181.838 322.118 184.141 320.407 185.373C318.695 186.606 317.137 186.259 316.933 184.635C316.728 183.012 317.949 180.702 319.661 179.469C321.372 178.237 322.967 178.576 323.135 180.207Z" fill="#9EA2CB"/>
<path d="M322.309 180.798C322.462 181.986 321.577 183.676 320.312 184.569C319.046 185.462 317.92 185.218 317.774 184.03C317.627 182.842 318.505 181.152 319.771 180.259C321.036 179.366 322.155 179.61 322.309 180.798Z" fill="#B4C5E1"/>
<path d="M305.613 190.369C305.767 191.558 304.882 193.247 303.616 194.14C302.351 195.033 301.225 194.79 301.078 193.602C300.932 192.414 301.81 190.724 303.075 189.831C304.341 188.938 305.467 189.174 305.613 190.369Z" fill="#B4C5E1"/>
<path d="M277.936 207.343C278.141 208.973 276.919 211.276 275.208 212.508C273.496 213.741 271.938 213.394 271.733 211.77C271.529 210.147 272.75 207.837 274.462 206.605C276.173 205.372 277.724 205.712 277.936 207.343Z" fill="#9EA2CB"/>
<path d="M277.1 207.933C277.253 209.121 276.368 210.811 275.103 211.704C273.837 212.597 272.711 212.353 272.565 211.165C272.418 209.977 273.296 208.287 274.562 207.394C275.827 206.501 276.946 206.715 277.1 207.933Z" fill="#B4C5E1"/>
<path d="M260.4 217.504C260.554 218.693 259.669 220.382 258.404 221.275C257.138 222.168 256.012 221.925 255.866 220.737C255.719 219.549 256.597 217.859 257.862 216.966C259.128 216.073 260.254 216.309 260.4 217.504Z" fill="#B4C5E1"/>
<path d="M325.79 175.72C325.705 174.862 325.394 174.042 324.891 173.344L325.11 172.997L323.216 172.104H323.179C321.504 171.551 319.208 172.104 316.787 173.787C312.34 176.946 309.165 182.938 309.699 187.159C309.789 188.123 310.172 189.036 310.796 189.771C310.795 189.789 310.795 189.806 310.796 189.823C311.608 190.621 312.619 191.182 313.722 191.447L314.015 190.967C315.72 190.779 317.342 190.123 318.703 189.07C323.15 185.919 326.324 179.927 325.79 175.72Z" fill="#969BC2"/>
<path d="M327.23 176.399C327.764 180.621 324.59 186.613 320.142 189.771C315.695 192.93 311.658 192.074 311.131 187.853C310.605 183.632 313.772 177.639 318.219 174.481C322.666 171.322 326.696 172.178 327.23 176.399Z" fill="#9EA2CB"/>
<path d="M326.347 177.565C326.771 180.923 324.248 185.683 320.708 188.207C317.168 190.731 313.957 190.037 313.533 186.679C313.109 183.322 315.632 178.562 319.172 176.038C322.712 173.514 325.894 174.244 326.347 177.565Z" fill="#B4C5E1"/>
<path d="M309.069 185.277C308.983 184.419 308.673 183.598 308.169 182.901L308.389 182.554L306.509 181.624H306.472C304.797 181.071 302.501 181.624 300.08 183.307C295.633 186.465 292.458 192.458 292.992 196.679C293.082 197.643 293.465 198.555 294.089 199.291C294.088 199.308 294.088 199.326 294.089 199.343C294.901 200.141 295.912 200.702 297.015 200.966L297.308 200.487C299.013 200.299 300.634 199.643 301.996 198.59C306.45 195.483 309.625 189.498 309.069 185.277Z" fill="#969BC2"/>
<path d="M310.533 185.971C311.067 190.192 307.892 196.184 303.445 199.343C298.998 202.502 294.961 201.645 294.434 197.424C293.908 193.203 297.075 187.211 301.522 184.052C305.969 180.894 310.006 181.75 310.533 185.971Z" fill="#9EA2CB"/>
<path d="M309.65 187.137C310.074 190.495 307.551 195.255 304.011 197.778C300.471 200.302 297.26 199.609 296.836 196.251C296.411 192.893 298.935 188.133 302.475 185.609C306.015 183.085 309.233 183.779 309.65 187.137Z" fill="#B4C5E1"/>
<path d="M306.444 189.742C306.648 191.373 305.427 193.675 303.715 194.908C302.004 196.14 300.446 195.793 300.241 194.17C300.036 192.546 301.258 190.236 302.969 189.004C304.681 187.772 306.239 188.148 306.444 189.742Z" fill="#9EA2CB"/>
<path d="M323.869 176.635L301.188 190.48V196.996L306.695 193.631L307.778 191.173L318.5 184.635L319.29 185.963L323.869 183.174V176.635Z" fill="#BDCCE5"/>
<path d="M280.544 202.841C280.459 201.982 280.148 201.162 279.645 200.465L279.864 200.118L277.97 199.225H277.933C276.258 198.672 273.962 199.225 271.541 200.908C267.094 204.066 263.919 210.058 264.453 214.28C264.543 215.244 264.926 216.156 265.55 216.892C265.549 216.909 265.549 216.926 265.55 216.944C266.362 217.742 267.373 218.303 268.476 218.567L268.768 218.088C270.474 217.9 272.095 217.244 273.457 216.191C277.94 213.055 281.115 207.062 280.544 202.841Z" fill="#969BC2"/>
<path d="M282.007 203.535C282.541 207.756 279.367 213.748 274.92 216.907C270.473 220.065 266.435 219.209 265.909 214.988C265.382 210.767 268.549 204.774 272.996 201.616C277.443 198.457 281.488 199.336 282.007 203.535Z" fill="#9EA2CB"/>
<path d="M281.136 204.708C281.561 208.066 279.037 212.826 275.497 215.349C271.957 217.873 268.746 217.18 268.322 213.822C267.898 210.464 270.421 205.704 273.961 203.18C277.501 200.657 280.712 201.343 281.136 204.708Z" fill="#B4C5E1"/>
<path d="M263.885 212.412C263.801 211.554 263.493 210.734 262.992 210.036L263.212 209.689L261.317 208.796H261.281C259.606 208.243 257.309 208.796 254.888 210.479C250.441 213.637 247.267 219.63 247.801 223.851C247.891 224.815 248.274 225.728 248.898 226.463C248.897 226.48 248.897 226.498 248.898 226.515C249.71 227.313 250.721 227.874 251.824 228.138L252.116 227.659C253.821 227.471 255.443 226.815 256.805 225.762C261.244 222.626 264.455 216.634 263.885 212.412Z" fill="#969BC2"/>
<path d="M265.333 213.106C265.867 217.327 262.693 223.32 258.246 226.478C253.799 229.637 249.762 228.78 249.235 224.559C248.708 220.338 251.875 214.346 256.322 211.187C260.769 208.029 264.799 208.885 265.333 213.106Z" fill="#9EA2CB"/>
<path d="M264.455 214.28C264.879 217.637 262.356 222.397 258.815 224.921C255.275 227.445 252.065 226.751 251.64 223.393C251.216 220.036 253.739 215.276 257.28 212.752C260.82 210.228 264.023 210.914 264.455 214.28Z" fill="#B4C5E1"/>
<path d="M261.237 216.914C261.441 218.545 260.22 220.847 258.508 222.08C256.797 223.312 255.239 222.965 255.034 221.342C254.829 219.718 256.051 217.409 257.762 216.176C259.474 214.944 261.032 215.283 261.237 216.914Z" fill="#9EA2CB"/>
<path d="M278.658 203.771L255.977 217.615V224.132L261.484 220.766L262.567 218.309L273.289 211.771L274.079 213.106L278.658 210.309V203.771Z" fill="#BDCCE5"/>
<path d="M338.428 172.865L242.883 228.891V219.062L338.428 163.035V172.865Z" fill="#A9B8DA"/>
<path d="M242.885 218.98L211.713 201.624V211.03L242.885 228.898V218.98Z" fill="#BDCCE5"/>
<path d="M204.494 152.343L204.708 152.462V152.216L204.494 152.343Z" fill="#2B2B2D"/>
<path d="M338.215 168.617L242.648 223.994V188.076L338.215 132.699V168.617Z" fill="#CBD7EB"/>
<path d="M245.231 189.572L247.836 188.086V217.99L245.231 219.503V189.572Z" fill="#B4C5E1"/>
<path d="M251.083 186.178L253.688 184.692V214.601L251.083 216.109V186.178Z" fill="#B4C5E1"/>
<path d="M256.938 182.783L259.543 181.302V211.206L256.938 212.719V182.783Z" fill="#B4C5E1"/>
<path d="M262.792 179.393L265.396 177.907V207.811L262.792 209.324V179.393Z" fill="#B4C5E1"/>
<path d="M268.647 175.997L271.252 174.517V204.421L268.647 205.929V175.997Z" fill="#B4C5E1"/>
<path d="M274.503 172.608L277.107 171.122V201.026L274.503 202.539V172.608Z" fill="#B4C5E1"/>
<path d="M280.355 169.213L282.965 167.733V197.637L280.355 199.145V169.213Z" fill="#B4C5E1"/>
<path d="M286.216 165.819L288.82 164.338V194.242L286.216 195.755V165.819Z" fill="#B4C5E1"/>
<path d="M292.069 162.429L294.674 160.943V190.852L292.069 192.36V162.429Z" fill="#B4C5E1"/>
<path d="M297.921 159.034L300.525 157.553V187.457L297.921 188.965V159.034Z" fill="#B4C5E1"/>
<path d="M303.775 155.644L306.385 154.158V184.062L303.775 185.576V155.644Z" fill="#B4C5E1"/>
<path d="M309.638 152.25L312.242 150.769V180.673L309.638 182.181V152.25Z" fill="#B4C5E1"/>
<path d="M315.488 148.86L318.098 147.374V177.278L315.488 178.791V148.86Z" fill="#B4C5E1"/>
<path d="M321.341 145.465L323.945 143.979V173.888L321.341 175.396V145.465Z" fill="#B4C5E1"/>
<path d="M327.197 142.07L329.807 140.589V170.493L327.197 172.006V142.07Z" fill="#B4C5E1"/>
<path d="M333.054 138.68L335.658 137.194V167.098L333.054 168.611V138.68Z" fill="#B4C5E1"/>
<path d="M307.245 114.753L211.678 170.13L242.675 188.087L338.215 132.699L307.245 114.753Z" fill="#E2EBF7"/>
<path d="M216.815 170.114L219.398 168.617L245.229 183.586L242.645 185.083L216.815 170.114Z" fill="#CBD7EB"/>
<path d="M222.672 166.725L225.25 165.228L251.08 180.191L248.497 181.687L222.672 166.725Z" fill="#CBD7EB"/>
<path d="M228.522 163.33L231.105 161.833L256.936 176.801L254.353 178.298L228.522 163.33Z" fill="#CBD7EB"/>
<path d="M234.376 159.94L236.964 158.443L262.789 173.411L260.206 174.903L234.376 159.94Z" fill="#CBD7EB"/>
<path d="M240.237 156.55L242.82 155.053L268.65 170.016L266.067 171.513L240.237 156.55Z" fill="#CBD7EB"/>
<path d="M246.087 153.155L248.67 151.658L274.5 166.627L271.917 168.124L246.087 153.155Z" fill="#CBD7EB"/>
<path d="M251.944 149.766L254.527 148.269L280.352 163.232L277.774 164.728L251.944 149.766Z" fill="#CBD7EB"/>
<path d="M257.796 146.371L260.379 144.874L286.209 159.842L283.626 161.339L257.796 146.371Z" fill="#CBD7EB"/>
<path d="M263.653 142.981L266.236 141.484L292.066 156.453L289.483 157.944L263.653 142.981Z" fill="#CBD7EB"/>
<path d="M269.505 139.586L272.088 138.095L297.918 153.058L295.335 154.555L269.505 139.586Z" fill="#CBD7EB"/>
<path d="M275.365 136.197L277.948 134.7L303.773 149.668L301.19 151.165L275.365 136.197Z" fill="#CBD7EB"/>
<path d="M281.217 132.807L283.8 131.311L309.631 146.273L307.048 147.77L281.217 132.807Z" fill="#CBD7EB"/>
<path d="M287.074 129.412L289.657 127.915L315.482 142.884L312.899 144.38L287.074 129.412Z" fill="#CBD7EB"/>
<path d="M292.928 126.023L295.511 124.526L321.342 139.494L318.759 140.991L292.928 126.023Z" fill="#CBD7EB"/>
<path d="M298.785 122.628L301.368 121.136L327.193 136.099L324.61 137.596L298.785 122.628Z" fill="#CBD7EB"/>
<path d="M304.637 119.238L307.22 117.741L333.051 132.71L330.468 134.207L304.637 119.238Z" fill="#CBD7EB"/>
<path d="M211.65 206.032V170.114L242.646 188.076V223.994L211.65 206.032Z" fill="white"/>
<path d="M239.754 189.497L236.771 187.821L236.463 218.273L239.446 219.976L239.754 189.497Z" fill="#E2EBF7"/>
<path d="M233.953 186.08L230.97 184.421L230.716 215.111L233.699 216.792L233.953 186.08Z" fill="#E2EBF7"/>
<path d="M228.156 182.658L225.173 181.015L224.968 211.944L227.951 213.609L228.156 182.658Z" fill="#E2EBF7"/>
<path d="M222.352 179.241L219.369 177.609L219.217 208.782L222.2 210.425L222.352 179.241Z" fill="#E2EBF7"/>
<path d="M216.547 175.824L213.564 174.203L213.461 205.62L216.444 207.242L216.547 175.824Z" fill="#E2EBF7"/>
<path d="M224.403 238.616C224.607 240.247 223.386 242.55 221.674 243.782C219.963 245.014 218.405 244.668 218.2 243.044C217.995 241.421 219.217 239.111 220.928 237.878C222.64 236.646 224.234 236.985 224.403 238.616Z" fill="#9EA2CB"/>
<path d="M223.576 239.207C223.73 240.395 222.845 242.085 221.579 242.978C220.314 243.871 219.188 243.627 219.041 242.439C218.895 241.251 219.773 239.561 221.038 238.668C222.303 237.775 223.422 238.018 223.576 239.207Z" fill="#B4C5E1"/>
<path d="M206.881 248.778C207.034 249.966 206.149 251.656 204.884 252.549C203.619 253.442 202.492 253.199 202.346 252.01C202.2 250.822 203.077 249.132 204.343 248.239C205.608 247.346 206.734 247.583 206.881 248.778Z" fill="#B4C5E1"/>
<path d="M179.203 265.752C179.408 267.382 178.187 269.685 176.475 270.917C174.764 272.15 173.206 271.803 173.001 270.179C172.796 268.556 174.018 266.246 175.729 265.014C177.441 263.781 178.991 264.121 179.203 265.752Z" fill="#9EA2CB"/>
<path d="M178.367 266.342C178.521 267.53 177.636 269.22 176.37 270.113C175.105 271.006 173.979 270.762 173.832 269.574C173.686 268.386 174.564 266.696 175.829 265.803C177.094 264.91 178.214 265.124 178.367 266.342Z" fill="#B4C5E1"/>
<path d="M161.668 275.913C161.821 277.101 160.936 278.791 159.671 279.684C158.406 280.577 157.279 280.334 157.133 279.146C156.987 277.958 157.865 276.268 159.13 275.375C160.395 274.482 161.522 274.718 161.668 275.913Z" fill="#B4C5E1"/>
<path d="M227.058 234.129C226.972 233.271 226.662 232.451 226.158 231.753L226.378 231.406L224.483 230.513H224.447C222.772 229.96 220.475 230.513 218.054 232.196C213.607 235.354 210.433 241.347 210.967 245.568C211.057 246.532 211.44 247.445 212.064 248.18C212.063 248.198 212.063 248.215 212.064 248.232C212.876 249.03 213.887 249.591 214.99 249.856L215.282 249.376C216.987 249.188 218.609 248.532 219.971 247.479C224.418 244.328 227.592 238.336 227.058 234.129Z" fill="#969BC2"/>
<path d="M228.497 234.808C229.031 239.03 225.857 245.022 221.41 248.18C216.963 251.339 212.926 250.483 212.399 246.262C211.872 242.04 215.039 236.048 219.486 232.89C223.933 229.731 227.964 230.587 228.497 234.808Z" fill="#9EA2CB"/>
<path d="M227.615 235.974C228.039 239.332 225.516 244.092 221.976 246.616C218.436 249.14 215.225 248.446 214.8 245.088C214.376 241.73 216.9 236.971 220.44 234.447C223.98 231.923 227.161 232.653 227.615 235.974Z" fill="#B4C5E1"/>
<path d="M210.336 243.686C210.251 242.827 209.94 242.007 209.437 241.31L209.656 240.963L207.776 240.033H207.74C206.065 239.48 203.768 240.033 201.347 241.716C196.9 244.874 193.726 250.867 194.26 255.088C194.35 256.052 194.733 256.964 195.357 257.7C195.356 257.717 195.356 257.735 195.357 257.752C196.169 258.55 197.18 259.111 198.283 259.375L198.575 258.896C200.28 258.708 201.902 258.052 203.263 256.999C207.718 253.892 210.892 247.907 210.336 243.686Z" fill="#969BC2"/>
<path d="M211.8 244.38C212.334 248.601 209.16 254.593 204.713 257.752C200.266 260.91 196.228 260.054 195.702 255.833C195.175 251.612 198.342 245.62 202.789 242.461C207.236 239.303 211.274 240.159 211.8 244.38Z" fill="#9EA2CB"/>
<path d="M210.918 245.546C211.342 248.904 208.818 253.664 205.278 256.187C201.738 258.711 198.527 258.018 198.103 254.66C197.679 251.302 200.202 246.542 203.742 244.018C207.282 241.494 210.501 242.188 210.918 245.546Z" fill="#B4C5E1"/>
<path d="M207.711 248.151C207.916 249.782 206.694 252.084 204.983 253.317C203.271 254.549 201.714 254.202 201.509 252.579C201.304 250.955 202.525 248.645 204.237 247.413C205.948 246.18 207.506 246.557 207.711 248.151Z" fill="#9EA2CB"/>
<path d="M225.136 235.044L202.455 248.889V255.405L207.963 252.04L209.045 249.582L219.768 243.044L220.558 244.372L225.136 241.583V235.044Z" fill="#BDCCE5"/>
<path d="M181.812 261.25C181.726 260.391 181.416 259.571 180.912 258.874L181.132 258.527L179.237 257.634H179.201C177.526 257.08 175.229 257.634 172.808 259.317C168.361 262.475 165.187 268.467 165.721 272.689C165.811 273.653 166.194 274.565 166.818 275.301C166.817 275.318 166.817 275.335 166.818 275.353C167.63 276.151 168.641 276.712 169.744 276.976L170.036 276.496C171.741 276.309 173.363 275.653 174.724 274.6C179.208 271.464 182.382 265.471 181.812 261.25Z" fill="#969BC2"/>
<path d="M183.275 261.943C183.809 266.165 180.634 272.157 176.187 275.315C171.74 278.474 167.703 277.618 167.176 273.397C166.65 269.176 169.817 263.183 174.264 260.025C178.711 256.866 182.756 257.744 183.275 261.943Z" fill="#9EA2CB"/>
<path d="M182.404 263.117C182.828 266.475 180.305 271.235 176.765 273.758C173.225 276.282 170.014 275.589 169.59 272.231C169.165 268.873 171.689 264.113 175.229 261.589C178.769 259.065 181.98 259.752 182.404 263.117Z" fill="#B4C5E1"/>
<path d="M165.152 270.821C165.069 269.963 164.761 269.143 164.26 268.445L164.479 268.098L162.585 267.205H162.548C160.873 266.652 158.577 267.205 156.156 268.888C151.709 272.046 148.534 278.039 149.068 282.26C149.158 283.224 149.541 284.136 150.165 284.872C150.164 284.889 150.164 284.907 150.165 284.924C150.977 285.722 151.988 286.283 153.091 286.547L153.384 286.068C155.089 285.88 156.711 285.224 158.072 284.171C162.512 281.035 165.723 275.042 165.152 270.821Z" fill="#969BC2"/>
<path d="M166.601 271.515C167.135 275.736 163.961 281.728 159.514 284.887C155.067 288.045 151.029 287.189 150.503 282.968C149.976 278.747 153.143 272.755 157.59 269.596C162.037 266.438 166.067 267.294 166.601 271.515Z" fill="#9EA2CB"/>
<path d="M165.722 272.688C166.147 276.046 163.623 280.806 160.083 283.33C156.543 285.854 153.332 285.16 152.908 281.802C152.484 278.445 155.007 273.685 158.547 271.161C162.087 268.637 165.291 269.323 165.722 272.688Z" fill="#B4C5E1"/>
<path d="M162.504 275.323C162.709 276.954 161.487 279.256 159.776 280.489C158.064 281.721 156.507 281.374 156.302 279.751C156.097 278.127 157.318 275.817 159.03 274.585C160.741 273.353 162.299 273.692 162.504 275.323Z" fill="#9EA2CB"/>
<path d="M179.925 262.18L157.244 276.024V282.541L162.752 279.175L163.834 276.718L174.557 270.18L175.347 271.515L179.925 268.718V262.18Z" fill="#BDCCE5"/>
<path d="M239.695 231.274L144.15 287.3V277.47L239.695 221.444V231.274Z" fill="#A9B8DA"/>
<path d="M144.152 277.389L112.98 260.033V269.439L144.152 287.307V277.389Z" fill="#BDCCE5"/>
<path d="M105.762 210.752L105.976 210.871V210.625L105.762 210.752Z" fill="#2B2B2D"/>
<path d="M239.482 227.026L143.915 282.403V246.485L239.482 191.108V227.026Z" fill="#CBD7EB"/>
<path d="M146.499 247.981L149.104 246.495V276.399L146.499 277.912V247.981Z" fill="#B4C5E1"/>
<path d="M152.35 244.587L154.955 243.101V273.01L152.35 274.518V244.587Z" fill="#B4C5E1"/>
<path d="M158.206 241.191L160.811 239.711V269.615L158.206 271.128V241.191Z" fill="#B4C5E1"/>
<path d="M164.059 237.802L166.664 236.316V266.22L164.059 267.733V237.802Z" fill="#B4C5E1"/>
<path d="M169.915 234.406L172.52 232.926V262.83L169.915 264.337V234.406Z" fill="#B4C5E1"/>
<path d="M175.77 231.017L178.375 229.531V259.435L175.77 260.948V231.017Z" fill="#B4C5E1"/>
<path d="M181.622 227.622L184.232 226.142V256.046L181.622 257.554V227.622Z" fill="#B4C5E1"/>
<path d="M187.483 224.228L190.088 222.747V252.651L187.483 254.164V224.228Z" fill="#B4C5E1"/>
<path d="M193.337 220.838L195.941 219.352V249.261L193.337 250.769V220.838Z" fill="#B4C5E1"/>
<path d="M199.188 217.443L201.793 215.962V245.866L199.188 247.374V217.443Z" fill="#B4C5E1"/>
<path d="M205.042 214.053L207.652 212.567V242.471L205.042 243.984V214.053Z" fill="#B4C5E1"/>
<path d="M210.905 210.659L213.51 209.178V239.082L210.905 240.59V210.659Z" fill="#B4C5E1"/>
<path d="M216.755 207.269L219.365 205.783V235.687L216.755 237.2V207.269Z" fill="#B4C5E1"/>
<path d="M222.608 203.874L225.213 202.388V232.297L222.608 233.805V203.874Z" fill="#B4C5E1"/>
<path d="M228.464 200.479L231.074 198.998V228.902L228.464 230.415V200.479Z" fill="#B4C5E1"/>
<path d="M234.321 197.089L236.926 195.603V225.507L234.321 227.02V197.089Z" fill="#B4C5E1"/>
<path d="M208.513 173.162L112.946 228.539L143.942 246.496L239.482 191.108L208.513 173.162Z" fill="#E2EBF7"/>
<path d="M118.083 228.523L120.666 227.026L146.496 241.995L143.913 243.491L118.083 228.523Z" fill="#CBD7EB"/>
<path d="M123.94 225.134L126.517 223.637L152.348 238.6L149.765 240.096L123.94 225.134Z" fill="#CBD7EB"/>
<path d="M129.79 221.739L132.373 220.242L158.203 235.21L155.62 236.707L129.79 221.739Z" fill="#CBD7EB"/>
<path d="M135.643 218.349L138.232 216.852L164.057 231.82L161.474 233.312L135.643 218.349Z" fill="#CBD7EB"/>
<path d="M141.505 214.959L144.088 213.462L169.918 228.425L167.335 229.922L141.505 214.959Z" fill="#CBD7EB"/>
<path d="M147.354 211.564L149.937 210.067L175.768 225.036L173.185 226.532L147.354 211.564Z" fill="#CBD7EB"/>
<path d="M153.211 208.175L155.794 206.678L181.619 221.641L179.042 223.137L153.211 208.175Z" fill="#CBD7EB"/>
<path d="M159.063 204.78L161.646 203.283L187.477 218.251L184.894 219.748L159.063 204.78Z" fill="#CBD7EB"/>
<path d="M164.921 201.39L167.504 199.893L193.334 214.862L190.751 216.353L164.921 201.39Z" fill="#CBD7EB"/>
<path d="M170.772 197.995L173.355 196.504L199.186 211.467L196.603 212.964L170.772 197.995Z" fill="#CBD7EB"/>
<path d="M176.633 194.606L179.216 193.109L205.041 208.077L202.458 209.574L176.633 194.606Z" fill="#CBD7EB"/>
<path d="M182.485 191.216L185.068 189.719L210.898 204.682L208.315 206.179L182.485 191.216Z" fill="#CBD7EB"/>
<path d="M188.342 187.821L190.925 186.324L216.75 201.292L214.167 202.789L188.342 187.821Z" fill="#CBD7EB"/>
<path d="M194.196 184.432L196.779 182.935L222.609 197.903L220.026 199.4L194.196 184.432Z" fill="#CBD7EB"/>
<path d="M200.053 181.037L202.636 179.545L228.461 194.508L225.878 196.005L200.053 181.037Z" fill="#CBD7EB"/>
<path d="M205.905 177.647L208.488 176.15L234.318 191.119L231.735 192.615L205.905 177.647Z" fill="#CBD7EB"/>
<path d="M112.918 264.441V228.523L143.914 246.485V282.403L112.918 264.441Z" fill="white"/>
<path d="M141.021 247.906L138.039 246.23L137.731 276.682L140.713 278.385L141.021 247.906Z" fill="#E2EBF7"/>
<path d="M135.221 244.489L132.238 242.83L131.984 273.52L134.967 275.201L135.221 244.489Z" fill="#E2EBF7"/>
<path d="M129.424 241.067L126.441 239.424L126.236 270.353L129.218 272.018L129.424 241.067Z" fill="#E2EBF7"/>
<path d="M123.619 237.65L120.636 236.018L120.485 267.191L123.468 268.834L123.619 237.65Z" fill="#E2EBF7"/>
<path d="M117.814 234.233L114.832 232.612L114.729 264.029L117.712 265.65L117.814 234.233Z" fill="#E2EBF7"/>
<path d="M89.9178 316.343C89.8356 315.523 89.5374 314.739 89.0538 314.072L89.2646 313.74L87.4453 312.887H87.4102C85.8016 312.358 83.596 312.887 81.271 314.495C77.0002 317.515 73.9517 323.243 74.4645 327.278C74.5508 328.199 74.9188 329.072 75.5181 329.775C75.5169 329.792 75.5169 329.808 75.5181 329.824C76.2977 330.587 77.2688 331.124 78.3278 331.376L78.6088 330.918C80.2465 330.739 81.8039 330.112 83.1113 329.105C87.3821 326.128 90.3955 320.407 89.9178 316.343Z" fill="#969BC2"/>
<path d="M91.3083 317.049C91.821 321.084 88.7725 326.812 84.5018 329.831C80.231 332.851 76.3537 332.032 75.8479 327.997C75.3422 323.962 78.3837 318.234 82.6544 315.215C86.9251 312.195 90.7955 312.992 91.3083 317.049Z" fill="#9EA2CB"/>
<path d="M90.4547 318.149C90.8621 321.359 88.4387 325.909 85.039 328.322C81.6393 330.735 78.5556 330.071 78.1482 326.862C77.7408 323.652 80.1642 319.102 83.5639 316.689C86.9636 314.277 90.0473 314.933 90.4547 318.149Z" fill="#B4C5E1"/>
<path d="M87.3726 320.668C87.5693 322.227 86.3962 324.428 84.7526 325.606C83.1089 326.784 81.6127 326.452 81.4161 324.9C81.2194 323.348 82.3924 321.14 84.0361 319.962C85.6798 318.784 87.1759 319.109 87.3726 320.668Z" fill="#9EA2CB"/>
<path d="M86.5715 321.232C86.719 322.368 85.8691 323.983 84.6539 324.837C83.4387 325.69 82.3569 325.458 82.2165 324.322C82.076 323.186 82.9189 321.571 84.1341 320.717C85.3493 319.864 86.431 320.096 86.5715 321.232Z" fill="#B4C5E1"/>
<path d="M73.885 325.514C73.8028 324.694 73.5046 323.91 73.021 323.243L73.2318 322.911L71.4336 322.058H71.3984C69.7899 321.529 67.5843 322.058 65.2593 323.666C60.9885 326.685 57.94 332.414 58.4528 336.449C58.539 337.37 58.9071 338.243 59.5064 338.946C59.5052 338.962 59.5052 338.979 59.5064 338.995C60.286 339.758 61.257 340.295 62.3161 340.547L62.5971 340.089C64.2348 339.909 65.7921 339.282 67.0996 338.276C71.3493 335.278 74.3978 329.557 73.885 325.514Z" fill="#969BC2"/>
<path d="M75.2653 326.177C75.7781 330.212 72.7296 335.941 68.4588 338.96C64.1881 341.979 60.3107 341.161 59.805 337.126C59.2992 333.091 62.3407 327.362 66.6114 324.343C70.8822 321.324 74.7596 322.142 75.2653 326.177Z" fill="#9EA2CB"/>
<path d="M74.4176 327.299C74.825 330.509 72.4016 335.059 69.0019 337.472C65.6021 339.884 62.5185 339.221 62.1111 336.011C61.7037 332.801 64.1271 328.251 67.5268 325.839C70.9265 323.426 74.0102 324.103 74.4176 327.299Z" fill="#B4C5E1"/>
<path d="M71.3453 329.818C71.542 331.377 70.3689 333.578 68.7252 334.756C67.0816 335.934 65.5854 335.602 65.3887 334.05C65.192 332.498 66.3651 330.29 68.0088 329.112C69.6524 327.934 71.1486 328.259 71.3453 329.818Z" fill="#9EA2CB"/>
<path d="M88.0771 317.253L66.2949 330.488V336.717L71.5842 333.507L72.6238 331.158L82.9143 324.9L83.6799 326.177L88.0771 323.504V317.253Z" fill="#BDCCE5"/>
<path d="M136.154 289.905C136.072 289.084 135.774 288.3 135.29 287.634L135.501 287.302L133.682 286.449H133.646C132.038 285.919 129.832 286.449 127.507 288.057C123.237 291.076 120.188 296.804 120.701 300.84C120.787 301.761 121.155 302.634 121.754 303.337C121.753 303.353 121.753 303.37 121.754 303.386C122.534 304.149 123.505 304.686 124.564 304.938L124.845 304.48C126.483 304.3 128.04 303.673 129.348 302.667C133.618 299.69 136.632 293.969 136.154 289.905Z" fill="#969BC2"/>
<path d="M137.545 290.61C138.057 294.646 135.009 300.374 130.738 303.393C126.467 306.412 122.59 305.594 122.084 301.559C121.579 297.524 124.62 291.796 128.891 288.776C133.161 285.757 137.032 286.554 137.545 290.61Z" fill="#9EA2CB"/>
<path d="M136.691 291.711C137.098 294.921 134.675 299.471 131.275 301.884C127.876 304.296 124.792 303.633 124.385 300.423C123.977 297.214 126.4 292.664 129.8 290.251C133.2 287.838 136.284 288.494 136.691 291.711Z" fill="#B4C5E1"/>
<path d="M133.609 294.229C133.806 295.788 132.633 297.989 130.989 299.168C129.345 300.346 127.849 300.014 127.652 298.462C127.456 296.91 128.629 294.702 130.272 293.524C131.916 292.346 133.412 292.67 133.609 294.229Z" fill="#9EA2CB"/>
<path d="M132.808 294.794C132.955 295.93 132.105 297.545 130.89 298.399C129.675 299.252 128.593 299.019 128.453 297.884C128.312 296.748 129.155 295.132 130.37 294.279C131.586 293.425 132.667 293.658 132.808 294.794Z" fill="#B4C5E1"/>
<path d="M120.121 299.076C120.039 298.255 119.741 297.471 119.257 296.805L119.468 296.473L117.67 295.619H117.635C116.026 295.09 113.821 295.619 111.496 297.228C107.225 300.247 104.176 305.975 104.689 310.01C104.775 310.932 105.143 311.804 105.743 312.508C105.742 312.524 105.742 312.541 105.743 312.557C106.522 313.32 107.493 313.856 108.552 314.109L108.833 313.651C110.471 313.471 112.028 312.844 113.336 311.838C117.586 308.839 120.634 303.118 120.121 299.076Z" fill="#969BC2"/>
<path d="M121.502 299.739C122.014 303.774 118.966 309.502 114.695 312.522C110.424 315.541 106.547 314.723 106.041 310.687C105.536 306.652 108.577 300.924 112.848 297.905C117.119 294.886 120.996 295.704 121.502 299.739Z" fill="#9EA2CB"/>
<path d="M120.654 300.861C121.061 304.071 118.638 308.621 115.238 311.033C111.838 313.446 108.755 312.783 108.347 309.573C107.94 306.363 110.363 301.813 113.763 299.401C117.163 296.988 120.246 297.665 120.654 300.861Z" fill="#B4C5E1"/>
<path d="M117.582 303.379C117.778 304.938 116.605 307.139 114.962 308.317C113.318 309.496 111.822 309.164 111.625 307.612C111.428 306.06 112.601 303.852 114.245 302.674C115.889 301.496 117.385 301.82 117.582 303.379Z" fill="#9EA2CB"/>
<path d="M134.313 290.815L112.531 304.05V310.279L117.821 307.069L118.86 304.72L129.151 298.462L129.916 299.739L134.313 297.066V290.815Z" fill="#BDCCE5"/>
<path d="M36.6602 345.226L36.873 356.203L40.1753 354V348.085L141.997 288.454V284.599L36.6602 345.226Z" fill="#A9B8DA"/>
<path d="M36.8266 342.747L2.20703 322.829V295.457L36.7475 315.493L36.8266 342.747Z" fill="#E2EBF7"/>
<path d="M36.7475 315.493L2.20703 295.456L11.4547 275.775L45.9952 295.811L36.7475 315.493Z" fill="#E2EBF7"/>
<path d="M21.2461 303.817L28.2807 288.829L43.4168 297.585L36.3823 312.573L21.2461 303.817Z" fill="white"/>
<path d="M4.25977 294.036L11.2943 279.048L26.47 287.804L19.4355 302.792L4.25977 294.036Z" fill="white"/>
<path d="M139.25 283.497V241.847L45.9922 295.811L36.7445 315.532V342.786L45.1357 337.949L45.1341 338.026L139.25 283.497Z" fill="#B4C5E1"/>
<path d="M11.4121 275.814L104.997 222L122.188 223.459L28.6033 277.273L11.4121 275.814Z" fill="#DFEAFC"/>
<path d="M28.6074 277.274L121.865 223.61L139.254 242.187L45.9962 295.851L28.6074 277.274Z" fill="#CBD7EA"/>
<path d="M28.6033 277.273L45.9921 295.85L28.6033 280.586L11.4121 275.814L28.6033 277.273Z" fill="#B4C5E1"/>
<path d="M45.9926 295.85L11.373 275.893L11.7287 275.932L12.0844 276.011L28.6038 280.586L45.9926 295.85Z" fill="#E2EBF7"/>
<g style="mix-blend-mode:multiply" opacity="0.5">
<path d="M45.9924 295.85L27.6156 282.913L11.7285 275.932L12.0842 276.011L28.6036 280.586L45.9924 295.85Z" fill="#E2EBF7"/>
</g>
<path d="M28.1244 278.816C28.7808 279.236 29.2806 279.859 29.5471 280.591C29.9819 281.774 29.5471 282.76 28.9543 282.799C28.6598 282.808 28.3698 282.726 28.1244 282.563C27.4681 282.143 26.9682 281.519 26.7017 280.788C26.267 279.605 26.7017 278.619 27.2945 278.54C27.5933 278.543 27.8837 278.639 28.1244 278.816Z" fill="white"/>
<path d="M41.7238 313.559L50.8924 308.274C51.1561 308.122 51.3753 307.904 51.5278 307.641C51.6804 307.378 51.7611 307.079 51.7618 306.775V296.718C51.7496 296.609 51.705 296.505 51.6336 296.421C51.5622 296.338 51.4673 296.277 51.3611 296.247C51.255 296.218 51.1423 296.22 51.0377 296.255C50.9331 296.29 50.8412 296.355 50.7738 296.442L40.8938 312.928C40.81 313.038 40.7733 313.177 40.7918 313.314C40.8103 313.45 40.8826 313.574 40.9926 313.658C41.1027 313.742 41.2415 313.778 41.3787 313.76C41.5158 313.741 41.6399 313.669 41.7238 313.559Z" fill="white"/>
<path d="M121.412 289.326L120.542 288.813L120.424 259.035L121.293 259.547L121.412 289.326Z" fill="#A9B8DA"/>
<path d="M121.293 259.547L120.424 259.035L126.747 255.406L127.616 255.919L121.293 259.547Z" fill="#CBD7EA"/>
<path d="M127.612 255.919L127.691 285.697L121.408 289.326L121.289 259.548L127.612 255.919Z" fill="#B4C5E1"/>
<path d="M103.804 299.24L102.935 298.727L102.816 268.949L103.686 269.462L103.804 299.24Z" fill="#A9B8DA"/>
<path d="M103.686 269.462L102.816 268.949L109.14 265.32L110.009 265.833L103.686 269.462Z" fill="#CBD7EA"/>
<path d="M110.005 265.833L110.084 295.612L103.8 299.24L103.682 269.462L110.005 265.833Z" fill="#B4C5E1"/>
<path d="M86.1755 309.155L85.3061 308.642L85.1875 278.864L86.0569 279.377L86.1755 309.155Z" fill="#A9B8DA"/>
<path d="M86.0569 279.377L85.1875 278.864L91.5107 275.235L92.3801 275.748L86.0569 279.377Z" fill="#CBD7EA"/>
<path d="M92.3818 275.748L92.4608 305.526L86.1771 309.155L86.0586 279.377L92.3818 275.748Z" fill="#B4C5E1"/>
<path d="M20.584 325.583V324.334L19.4952 324.972V326.247L20.584 325.583Z" fill="#A9B8DA"/>
<path d="M9.95986 320.613V319.444L19.4668 324.972V326.194L9.95986 320.613Z" fill="white"/>
<path d="M20.6094 324.334L10.9962 318.833L9.90743 319.444L19.494 325.025L20.6094 324.334Z" fill="#CBD7EA"/>
<path d="M20.584 321.642V320.393L19.4952 321.031V322.307L20.584 321.642Z" fill="#A9B8DA"/>
<path d="M9.95986 316.673V315.503L19.4668 321.031V322.253L9.95986 316.673Z" fill="white"/>
<path d="M20.6094 320.393L10.9962 314.892L9.90743 315.503L19.494 321.084L20.6094 320.393Z" fill="#CBD7EA"/>
<path d="M34.1227 346.647L36.3242 347.989V344.876L34.1227 343.534V346.647Z" fill="#E2EBF7"/>
<path d="M36.8778 356.203L0.00195312 334.722V323.706L36.8778 345.187V356.203Z" fill="#E2EBF7"/>
<path d="M0 323.818L2.18846 322.497L36.8773 342.433L139.249 283.497L141.898 284.818L36.8773 345.248L0 323.818Z" fill="#CBD7EA"/>
<defs>
<filter id="filter0_f_1737_31462" x="3.66797" y="47.6768" width="614.852" height="355.409" filterUnits="userSpaceOnUse" color-interpolation-filters="sRGB">
<feFlood flood-opacity="0" result="BackgroundImageFix"/>
<feBlend mode="normal" in="SourceGraphic" in2="BackgroundImageFix" result="shape"/>
<feGaussianBlur stdDeviation="1" result="effect1_foregroundBlur_1737_31462"/>
</filter>
<linearGradient id="paint0_linear_1737_31462" x1="190.574" y1="326.968" x2="158.87" y2="270.722" gradientUnits="userSpaceOnUse">
<stop stop-color="#0E3390" stop-opacity="0"/>
<stop offset="1" stop-color="#0E3390" stop-opacity="0.79"/>
</linearGradient>
</defs>
</svg>
