<svg width="163" height="131" viewBox="0 0 163 131" fill="none" xmlns="http://www.w3.org/2000/svg">
<path d="M0 89.1838L69.3698 129.659L162.636 75.6507L92.5246 35.0476L0 89.1838Z" fill="white"/>
<path d="M90.6191 46.0966L94.3067 43.9627L145.97 73.8779L142.22 75.9644L90.6191 46.0966Z" fill="white"/>
<path d="M83.248 50.3535L86.9393 48.2159L120.146 67.4468L116.451 69.5808L83.248 50.3535Z" fill="white"/>
<path d="M68.5918 58.9476L72.283 56.8137L123.942 86.7289L120.193 88.8154L68.5918 58.9476Z" fill="white"/>
<path d="M61.2207 63.2045L64.9119 61.0669L98.1185 80.2979L94.4237 82.4318L61.2207 63.2045Z" fill="white"/>
<path d="M46.3418 71.7695L50.033 69.6355L101.696 99.5507L97.9464 101.637L46.3418 71.7695Z" fill="white"/>
<path d="M38.9707 76.0264L42.6619 73.8888L75.8685 93.1197L72.1737 95.2537L38.9707 76.0264Z" fill="white"/>
<path d="M24.3145 84.5913L28.0057 82.4537L79.6685 112.373L75.9191 114.459L24.3145 84.5913Z" fill="white"/>
<path d="M16.9434 88.8482L20.6346 86.7106L53.8412 105.942L50.1463 108.075L16.9434 88.8482Z" fill="white"/>
<path d="M162.637 76.683V75.6507L70.3884 129.072L70.3848 130.108L162.637 76.683Z" fill="#D1DCEE"/>
<path d="M0.273438 89.5048V88.4725L70.3888 129.072L70.3852 130.108L0.273438 89.5048Z" fill="#E2EBF7"/>
<path d="M0.363281 84.8065L69.7331 125.282L163 71.2734L92.8879 30.6703L0.363281 84.8065Z" fill="white"/>
<path d="M90.9824 41.7194L94.67 39.5854L146.333 69.5006L142.583 71.5871L90.9824 41.7194Z" fill="#D1DCEE"/>
<path d="M83.6113 45.9762L87.3026 43.8387L120.509 63.0696L116.814 65.2035L83.6113 45.9762Z" fill="#D1DCEE"/>
<path d="M68.9551 54.5704L72.6463 52.4364L124.305 82.3516L120.556 84.4381L68.9551 54.5704Z" fill="#D1DCEE"/>
<path d="M61.584 58.8272L65.2752 56.6897L98.4818 75.9206L94.787 78.0545L61.584 58.8272Z" fill="#D1DCEE"/>
<path d="M46.7051 67.3922L50.3963 65.2583L102.059 95.1735L98.3097 97.26L46.7051 67.3922Z" fill="#D1DCEE"/>
<path d="M39.334 71.6491L43.0252 69.5115L76.2318 88.7425L72.537 90.8764L39.334 71.6491Z" fill="#D1DCEE"/>
<path d="M24.6777 80.214L28.369 78.0764L80.0318 107.995L76.2823 110.082L24.6777 80.214Z" fill="#D1DCEE"/>
<path d="M17.3066 84.471L20.9979 82.3334L54.2045 101.564L50.5096 103.698L17.3066 84.471Z" fill="#D1DCEE"/>
<path d="M163 72.3057V71.2734L70.7517 124.695L70.748 125.731L163 72.3057Z" fill="#D1DCEE"/>
<path d="M0.636719 85.1275V84.0952L70.7521 124.695L70.7484 125.731L0.636719 85.1275Z" fill="#E2EBF7"/>
<g style="mix-blend-mode:multiply" filter="url(#filter0_f_684_29245)">
<path d="M43.5 75.5L87 48L151.978 89.2718L108 114L43.5 75.5Z" fill="url(#paint0_linear_684_29245)" fill-opacity="0.8"/>
</g>
<path d="M87.4179 50.9408L131.4 25.4686L87.4179 0L43.4395 25.4686L87.4179 50.9408Z" fill="#E2EBF7"/>
<path d="M87.4179 101.78V50.9409L43.4395 25.4686V76.3109L87.4179 101.78Z" fill="white"/>
<path d="M131.4 76.3109V25.4686L87.418 50.9409V101.78L131.4 76.3109Z" fill="#B4C5E1"/>
<path d="M75.1257 85.0108V89.8258L83.4428 94.6409V89.8258L74.9766 85.0108" fill="#D3E0F0"/>
<path d="M104.033 9.62277L115.06 15.9699L71.394 41.6427L60.2402 35.1825L104.033 9.62277Z" fill="#B4C5E1"/>
<path d="M60.3965 35.3029V60.7715L71.3902 67.1405V41.6683L60.3965 35.3029Z" fill="#D3E0F0"/>
<defs>
<filter id="filter0_f_684_29245" x="42.5" y="47" width="110.479" height="68" filterUnits="userSpaceOnUse" color-interpolation-filters="sRGB">
<feFlood flood-opacity="0" result="BackgroundImageFix"/>
<feBlend mode="normal" in="SourceGraphic" in2="BackgroundImageFix" result="shape"/>
<feGaussianBlur stdDeviation="0.5" result="effect1_foregroundBlur_684_29245"/>
</filter>
<linearGradient id="paint0_linear_684_29245" x1="81.5" y1="61" x2="117.323" y2="110.768" gradientUnits="userSpaceOnUse">
<stop stop-color="#003BA2"/>
<stop offset="0.855" stop-color="#003BA1" stop-opacity="0"/>
</linearGradient>
</defs>
</svg>
