<svg width="375" height="237" viewBox="0 0 375 237" fill="none" xmlns="http://www.w3.org/2000/svg">
<g filter="url(#filter0_f_684_28299)">
<path d="M245.604 52.5908L360.142 118.598L351.33 123.679L369 133.833L355.736 141.449L361.147 144.566L360.142 145.06L354.742 142.054L351.33 143.983L333.709 133.821L316.101 143.991L307.273 138.914L272.036 159.219L289.657 169.377L272.036 179.531L289.657 189.685L272.036 199.84L254.764 189.685L236.823 199.701L219.171 189.685L148.69 230.306L33.0778 224.608L25.0078 178.999L245.604 52.5908Z" fill="url(#paint0_linear_684_28299)"/>
</g>
<path d="M149.779 60.9412L237.911 111.693L96.9137 192.951L0 198.028L17.6242 137.098L149.779 60.9412Z" fill="#E2EBF7"/>
<path d="M96.9373 223.429L281.964 116.693L290.745 71.0877L237.911 101.539V111.693L96.9141 192.951L96.9373 223.429Z" fill="#A9B8DA"/>
<path d="M290.746 71.0877L202.64 20.3124L149.779 50.7869L237.912 101.539L290.746 71.0877Z" fill="#E2EBF7"/>
<path d="M149.779 60.9412L237.912 111.693V101.539L149.779 50.7869V60.9412Z" fill="white"/>
<path d="M0 198.028L17.1913 229.077L96.9369 223.429L96.9098 192.951L0 198.028Z" fill="#B4C5E1"/>
<path d="M237.861 81.1957L255.505 71.0877V40.6248L237.861 50.7637V81.1957Z" fill="#A9B8DA"/>
<path d="M185.02 20.3124V10.1581L246.681 45.6943L246.693 55.8563L185.02 20.3124Z" fill="white"/>
<path d="M237.862 81.1957L193.847 55.8717L193.832 25.3896L237.862 50.7637V81.1957Z" fill="white"/>
<path d="M202.64 0L185.02 10.1581L246.681 45.6943L264.313 35.5593L202.64 0Z" fill="#E2EBF7"/>
<path d="M264.312 35.5593V45.702L246.691 55.8563L246.68 45.6943L264.312 35.5593Z" fill="#A9B8DA"/>
<path d="M222.076 23.4374L225.443 25.3896V13.7075L222.076 11.7708V23.4374Z" fill="white"/>
<path d="M228.821 11.7669V23.4413L225.443 25.3896V13.7075L228.821 11.7669Z" fill="#A9B8DA"/>
<path d="M225.443 9.81863L222.076 11.7708L225.443 13.7075L228.82 11.7669L225.443 9.81863Z" fill="#E2EBF7"/>
<path d="M191.744 128.391V102.839L169.574 115.617V141.169L191.744 128.391Z" fill="#CBD7EB"/>
<path d="M123.373 63.4604L191.724 102.851L169.555 115.625L101.219 76.2266L123.373 63.4604Z" fill="#E2EBF7"/>
<path d="M101.219 101.774L169.574 141.169V115.617L101.219 76.2266V101.774Z" fill="white"/>
<path opacity="0.5" d="M167.728 116.682L165.865 115.625V136.902L167.728 137.974V116.682Z" fill="#E2EBF7"/>
<path opacity="0.5" d="M163.537 114.267L161.674 113.213V134.486L163.537 135.559V114.267Z" fill="#E2EBF7"/>
<path opacity="0.5" d="M159.351 111.855L157.488 110.798V132.071L159.351 133.148V111.855Z" fill="#E2EBF7"/>
<path opacity="0.5" d="M155.162 109.44L153.299 108.387V129.66L155.162 130.733V109.44Z" fill="#E2EBF7"/>
<path opacity="0.5" d="M150.976 107.029L149.113 105.972V127.245L150.976 128.321V107.029Z" fill="#E2EBF7"/>
<path opacity="0.5" d="M146.791 104.614L144.924 103.561V124.834L146.791 125.906V104.614Z" fill="#E2EBF7"/>
<path opacity="0.5" d="M142.601 102.199L140.738 101.146V122.419L142.601 123.495V102.199Z" fill="#E2EBF7"/>
<path opacity="0.5" d="M138.416 99.7875L136.549 98.7304V120.007L138.416 121.08V99.7875Z" fill="#E2EBF7"/>
<path opacity="0.5" d="M134.226 97.3724L132.363 96.3191V117.592L134.226 118.665V97.3724Z" fill="#E2EBF7"/>
<path opacity="0.5" d="M130.041 94.9611L128.174 93.904V115.177L130.041 116.253V94.9611Z" fill="#E2EBF7"/>
<path opacity="0.5" d="M125.851 92.546L123.988 91.4927V112.766L125.851 113.838V92.546Z" fill="#E2EBF7"/>
<path opacity="0.5" d="M121.666 90.1309L119.803 89.0776V110.351L121.666 111.423V90.1309Z" fill="#E2EBF7"/>
<path opacity="0.5" d="M117.474 87.7196L115.611 86.6625V107.939L117.474 109.012V87.7196Z" fill="#E2EBF7"/>
<path opacity="0.5" d="M113.291 85.3045L111.428 84.2513V105.524L113.291 106.597V85.3045Z" fill="#E2EBF7"/>
<path opacity="0.5" d="M109.099 82.8932L107.236 81.8361V103.109L109.099 104.186V82.8932Z" fill="#E2EBF7"/>
<path opacity="0.5" d="M104.914 80.4781L103.051 79.4249V100.698L104.914 101.77V80.4781Z" fill="#E2EBF7"/>
<path d="M188.048 102.839L186.201 101.778L167.727 112.422L169.574 113.487L188.048 102.839Z" fill="#CBD7EB"/>
<path d="M183.859 100.428L182.012 99.3631L163.537 110.011L165.385 111.076L183.859 100.428Z" fill="#CBD7EB"/>
<path d="M179.673 98.0166L177.826 96.9518L159.352 107.596L161.199 108.661L179.673 98.0166Z" fill="#CBD7EB"/>
<path d="M175.484 95.6015L173.637 94.5367L155.162 105.185L157.013 106.25L175.484 95.6015Z" fill="#CBD7EB"/>
<path d="M171.298 93.1902L169.451 92.1254L150.977 102.77L152.824 103.835L171.298 93.1902Z" fill="#CBD7EB"/>
<path d="M167.109 90.7751L165.262 89.7103L146.791 100.358L148.635 101.423L167.109 90.7751Z" fill="#CBD7EB"/>
<path d="M162.923 88.3639L161.076 87.2991L142.602 97.9472L144.449 99.012L162.923 88.3639Z" fill="#CBD7EB"/>
<path d="M158.734 85.9527L156.887 84.8878L138.416 95.5321L140.263 96.5969L158.734 85.9527Z" fill="#CBD7EB"/>
<path d="M154.548 83.5375L152.701 82.4727L134.227 93.1208L136.074 94.1856L154.548 83.5375Z" fill="#CBD7EB"/>
<path d="M150.357 81.1263L148.51 80.0615L130.039 90.7057L131.887 91.7705L150.357 81.1263Z" fill="#CBD7EB"/>
<path d="M146.172 78.7111L144.324 77.6463L125.85 88.2944L127.697 89.3593L146.172 78.7111Z" fill="#CBD7EB"/>
<path d="M141.982 76.2999L140.135 75.2351L121.664 85.8832L123.512 86.948L141.982 76.2999Z" fill="#CBD7EB"/>
<path d="M137.797 73.8887L135.949 72.8239L117.475 83.4681L119.322 84.5329L137.797 73.8887Z" fill="#CBD7EB"/>
<path d="M133.607 71.4735L131.764 70.4087L113.289 81.0568L115.137 82.1216L133.607 71.4735Z" fill="#CBD7EB"/>
<path d="M129.422 69.0623L127.574 67.9975L109.1 78.6417L110.947 79.7065L129.422 69.0623Z" fill="#CBD7EB"/>
<path d="M125.236 66.6471L123.389 65.5862L104.914 76.2304L106.762 77.2952L125.236 66.6471Z" fill="#CBD7EB"/>
<path d="M171.639 116.628L173.772 115.439L173.992 137.098L171.859 138.31L171.639 116.628Z" fill="#B4C5E1"/>
<path d="M175.789 114.197L177.923 113.017L178.104 134.849L175.975 136.045L175.789 114.197Z" fill="#B4C5E1"/>
<path d="M179.939 111.767L182.073 110.594L182.22 132.6L180.086 133.78L179.939 111.767Z" fill="#B4C5E1"/>
<path d="M184.092 109.336L186.225 108.171L186.333 130.347L184.2 131.516L184.092 109.336Z" fill="#B4C5E1"/>
<path d="M188.242 106.902L190.372 105.748L190.445 128.098L188.312 129.251L188.242 106.902Z" fill="#B4C5E1"/>
<path d="M168.376 141.662V116.111L146.207 128.888V154.44L168.376 141.662Z" fill="#CBD7EB"/>
<path d="M100.006 76.7281L168.357 116.122L146.192 128.896L77.8555 89.4943L100.006 76.7281Z" fill="#E2EBF7"/>
<path d="M77.8555 115.046L146.207 154.44V128.888L77.8555 89.4943V115.046Z" fill="white"/>
<path opacity="0.5" d="M144.359 129.953L142.496 128.896V150.169L144.359 151.246V129.953Z" fill="#E2EBF7"/>
<path opacity="0.5" d="M140.173 127.538L138.311 126.485V147.758L140.173 148.831V127.538Z" fill="#E2EBF7"/>
<path opacity="0.5" d="M135.988 125.123L134.121 124.07V145.343L135.988 146.415V125.123Z" fill="#E2EBF7"/>
<path opacity="0.5" d="M131.798 122.712L129.936 121.655V142.932L131.798 144.004V122.712Z" fill="#E2EBF7"/>
<path opacity="0.5" d="M127.613 120.297L125.746 119.243V140.516L127.613 141.589V120.297Z" fill="#E2EBF7"/>
<path opacity="0.5" d="M123.423 117.885L121.561 116.828V138.101L123.423 139.178V117.885Z" fill="#E2EBF7"/>
<path opacity="0.5" d="M119.238 115.47L117.371 114.413V135.69L119.238 136.763V115.47Z" fill="#E2EBF7"/>
<path opacity="0.5" d="M115.048 113.055L113.186 112.002V133.275L115.048 134.351V113.055Z" fill="#E2EBF7"/>
<path opacity="0.5" d="M110.863 110.644L108.996 109.587V130.864L110.863 131.936V110.644Z" fill="#E2EBF7"/>
<path opacity="0.5" d="M106.673 108.229L104.811 107.176V128.449L106.673 129.521V108.229Z" fill="#E2EBF7"/>
<path opacity="0.5" d="M102.488 105.818L100.625 104.76V126.034L102.488 127.11V105.818Z" fill="#E2EBF7"/>
<path opacity="0.5" d="M98.2965 103.402L96.4336 102.349V123.622L98.2965 124.695V103.402Z" fill="#E2EBF7"/>
<path opacity="0.5" d="M94.111 100.987L92.248 99.9341V121.207L94.111 122.284V100.987Z" fill="#E2EBF7"/>
<path opacity="0.5" d="M89.9215 98.576L88.0586 97.519V118.796L89.9215 119.868V98.576Z" fill="#E2EBF7"/>
<path opacity="0.5" d="M85.736 96.1609L83.873 95.1077V116.381L85.736 117.453V96.1609Z" fill="#E2EBF7"/>
<path opacity="0.5" d="M81.5465 93.7497L79.6836 92.6926V113.966L81.5465 115.042V93.7497Z" fill="#E2EBF7"/>
<path opacity="0.5" d="M164.681 116.111L162.834 115.046L144.359 125.694L146.207 126.759L164.681 116.111Z" fill="white"/>
<path opacity="0.5" d="M160.496 113.699L158.648 112.635L140.174 123.279L142.021 124.344L160.496 113.699Z" fill="white"/>
<path opacity="0.5" d="M156.306 111.284L154.459 110.22L135.988 120.868L137.832 121.932L156.306 111.284Z" fill="white"/>
<path opacity="0.5" d="M152.121 108.873L150.273 107.808L131.799 118.456L133.646 119.521L152.121 108.873Z" fill="white"/>
<path opacity="0.5" d="M147.931 106.458L146.084 105.397L127.613 116.041L129.457 117.106L147.931 106.458Z" fill="white"/>
<path opacity="0.5" d="M143.746 104.047L141.898 102.982L123.424 113.63L125.271 114.695L143.746 104.047Z" fill="white"/>
<path opacity="0.5" d="M139.556 101.635L137.709 100.571L119.238 111.215L121.086 112.28L139.556 101.635Z" fill="white"/>
<path opacity="0.5" d="M135.369 99.2203L133.521 98.1555L115.047 108.804L116.894 109.868L135.369 99.2203Z" fill="white"/>
<path opacity="0.5" d="M131.181 96.8091L129.334 95.7443L110.863 106.389L112.711 107.453L131.181 96.8091Z" fill="white"/>
<path opacity="0.5" d="M126.994 94.3978L125.146 93.3292L106.672 103.977L108.519 105.042L126.994 94.3978Z" fill="white"/>
<path opacity="0.5" d="M122.804 91.9827L120.957 90.9179L102.486 101.566L104.334 102.631L122.804 91.9827Z" fill="white"/>
<path opacity="0.5" d="M118.619 89.5715L116.771 88.5067L98.2969 99.1509L100.144 100.216L118.619 89.5715Z" fill="white"/>
<path opacity="0.5" d="M114.429 87.1563L112.586 86.0915L94.1113 96.7396L95.9588 97.8044L114.429 87.1563Z" fill="white"/>
<path opacity="0.5" d="M110.244 84.7451L108.396 83.6803L89.9219 94.3284L91.7693 95.3893L110.244 84.7451Z" fill="white"/>
<path opacity="0.5" d="M106.054 82.3338L104.211 81.269L85.7363 91.9133L87.5838 92.9781L106.054 82.3338Z" fill="white"/>
<path opacity="0.5" d="M101.869 79.9187L100.021 78.8539L81.5469 89.502L83.3943 90.5668L101.869 79.9187Z" fill="white"/>
<path d="M148.275 129.899L150.409 128.707L150.629 150.37L148.496 151.581L148.275 129.899Z" fill="#B4C5E1"/>
<path d="M152.426 127.469L154.559 126.284L154.741 148.121L152.607 149.317L152.426 127.469Z" fill="#B4C5E1"/>
<path d="M156.576 125.038L158.706 123.865L158.853 145.868L156.719 147.052L156.576 125.038Z" fill="#B4C5E1"/>
<path d="M160.725 122.604L162.858 121.443L162.966 143.618L160.837 144.787L160.725 122.604Z" fill="#B4C5E1"/>
<path d="M164.875 120.173L167.008 119.02L167.082 141.369L164.948 142.523L164.875 120.173Z" fill="#B4C5E1"/>
<path d="M144.619 155.308V129.753L122.449 142.53V168.082L144.619 155.308Z" fill="#CBD7EB"/>
<path d="M76.2477 90.3739L144.599 129.764L122.43 142.538L54.0977 103.14L76.2477 90.3739Z" fill="#E2EBF7"/>
<path d="M54.0977 128.688L122.449 168.082V142.53L54.0977 103.14V128.688Z" fill="#E2EBF7"/>
<path opacity="0.5" d="M120.601 143.595L118.738 142.538V163.815L120.601 164.888V143.595Z" fill="#E2EBF7"/>
<path opacity="0.5" d="M116.416 141.18L114.549 140.127V161.4L116.416 162.472V141.18Z" fill="#E2EBF7"/>
<path opacity="0.5" d="M112.226 138.769L110.363 137.712V158.989L112.226 160.061V138.769Z" fill="#E2EBF7"/>
<path opacity="0.5" d="M108.041 136.354L106.178 135.3V156.574L108.041 157.646V136.354Z" fill="#E2EBF7"/>
<path opacity="0.5" d="M103.851 133.942L101.988 132.885V154.158L103.851 155.235V133.942Z" fill="#E2EBF7"/>
<path opacity="0.5" d="M99.6656 131.527L97.8027 130.474V151.747L99.6656 152.82V131.527Z" fill="#E2EBF7"/>
<path opacity="0.5" d="M95.4762 129.112L93.6133 128.059V149.332L95.4762 150.408V129.112Z" fill="#E2EBF7"/>
<path opacity="0.5" d="M91.2906 126.701L89.4277 125.644V146.917L91.2906 147.993V126.701Z" fill="#E2EBF7"/>
<path opacity="0.5" d="M87.1012 124.286L85.2383 123.233V144.506L87.1012 145.578V124.286Z" fill="#E2EBF7"/>
<path opacity="0.5" d="M82.9156 121.875L81.0527 120.818V142.091L82.9156 143.167V121.875Z" fill="#E2EBF7"/>
<path opacity="0.5" d="M78.7242 119.459L76.8613 118.406V139.679L78.7242 140.752V119.459Z" fill="#E2EBF7"/>
<path opacity="0.5" d="M74.5387 117.044L72.6758 115.991V137.264L74.5387 138.341V117.044Z" fill="#E2EBF7"/>
<path opacity="0.5" d="M70.3531 114.633L68.4863 113.576V134.853L70.3531 135.925V114.633Z" fill="#E2EBF7"/>
<path opacity="0.5" d="M66.1637 112.218L64.3008 111.165V132.438L66.1637 133.51V112.218Z" fill="#E2EBF7"/>
<path opacity="0.5" d="M61.9781 109.807L60.1113 108.75V130.023L61.9781 131.099V109.807Z" fill="#E2EBF7"/>
<path opacity="0.5" d="M57.7887 107.392L55.9258 106.338V127.611L57.7887 128.684V107.392Z" fill="#E2EBF7"/>
<path opacity="0.5" d="M140.923 129.753L139.076 128.692L120.602 139.336L122.449 140.401L140.923 129.753Z" fill="white"/>
<path opacity="0.5" d="M136.734 127.341L134.887 126.277L116.416 136.925L118.263 137.99L136.734 127.341Z" fill="white"/>
<path opacity="0.5" d="M132.548 124.93L130.701 123.865L112.227 134.51L114.074 135.574L132.548 124.93Z" fill="white"/>
<path opacity="0.5" d="M128.359 122.515L126.512 121.45L108.041 132.098L109.888 133.163L128.359 122.515Z" fill="white"/>
<path opacity="0.5" d="M124.173 120.104L122.326 119.039L103.852 129.683L105.699 130.748L124.173 120.104Z" fill="white"/>
<path opacity="0.5" d="M119.984 117.693L118.14 116.628L99.666 127.272L101.513 128.337L119.984 117.693Z" fill="white"/>
<path opacity="0.5" d="M115.798 115.277L113.951 114.213L95.4766 124.861L97.324 125.926L115.798 115.277Z" fill="white"/>
<path opacity="0.5" d="M111.613 112.866L109.765 111.801L91.291 122.446L93.1385 123.51L111.613 112.866Z" fill="white"/>
<path opacity="0.5" d="M107.422 110.451L105.574 109.386L87.0996 120.034L88.9471 121.099L107.422 110.451Z" fill="white"/>
<path opacity="0.5" d="M103.236 108.04L101.389 106.975L82.9141 117.623L84.7615 118.684L103.236 108.04Z" fill="white"/>
<path opacity="0.5" d="M99.0465 105.628L97.1991 104.56L78.7246 115.208L80.5721 116.273L99.0465 105.628Z" fill="white"/>
<path opacity="0.5" d="M94.861 103.213L93.0135 102.149L74.5391 112.797L76.3865 113.861L94.861 103.213Z" fill="white"/>
<path opacity="0.5" d="M90.6716 100.802L88.8241 99.7373L70.3535 110.382L72.201 111.446L90.6716 100.802Z" fill="white"/>
<path opacity="0.5" d="M86.486 98.387L84.6385 97.3222L66.1641 107.97L68.0115 109.035L86.486 98.387Z" fill="white"/>
<path opacity="0.5" d="M82.2966 95.9758L80.4491 94.9109L61.9785 105.559L63.826 106.62L82.2966 95.9758Z" fill="white"/>
<path opacity="0.5" d="M78.111 93.5607L76.2635 92.4958L57.7891 103.144L59.6365 104.209L78.111 93.5607Z" fill="white"/>
<path d="M124.518 143.541L126.651 142.353L126.867 164.012L124.738 165.223L124.518 143.541Z" fill="#B4C5E1"/>
<path d="M128.664 141.111L130.798 139.93L130.983 161.763L128.85 162.959L128.664 141.111Z" fill="#B4C5E1"/>
<path d="M132.814 138.68L134.948 137.507L135.095 159.513L132.961 160.694L132.814 138.68Z" fill="#B4C5E1"/>
<path d="M136.967 136.25L139.1 135.084L139.208 157.26L137.075 158.429L136.967 136.25Z" fill="#B4C5E1"/>
<path d="M141.117 133.815L143.251 132.662L143.32 155.011L141.191 156.165L141.117 133.815Z" fill="#B4C5E1"/>
<path d="M120.988 169.166V143.615L98.8184 156.392V181.944L120.988 169.166Z" fill="#CBD7EB"/>
<path d="M52.6168 104.232L120.969 143.626L98.7992 156.4L30.4668 116.998L52.6168 104.232Z" fill="#E2EBF7"/>
<path d="M30.4668 142.55L98.8185 181.944V156.392L30.4668 116.998V142.55Z" fill="white"/>
<path d="M96.9723 157.457L95.1094 156.4V177.673L96.9723 178.749V157.457Z" fill="#E2EBF7"/>
<path d="M92.7848 155.042L90.9219 153.985V175.262L92.7848 176.334V155.042Z" fill="#E2EBF7"/>
<path d="M88.5973 152.627L86.7344 151.574V172.847L88.5973 173.923V152.627Z" fill="#E2EBF7"/>
<path d="M84.4098 150.216L82.5469 149.158V170.432L84.4098 171.508V150.216Z" fill="#E2EBF7"/>
<path d="M80.2203 147.8L78.3574 146.747V168.02L80.2203 169.093V147.8Z" fill="#E2EBF7"/>
<path d="M76.0348 145.389L74.1719 144.332V165.605L76.0348 166.682V145.389Z" fill="#E2EBF7"/>
<path d="M71.8492 142.974L69.9824 141.921V163.194L71.8492 164.266V142.974Z" fill="#E2EBF7"/>
<path d="M67.6598 140.559L65.7969 139.506V160.779L67.6598 161.855V140.559Z" fill="#E2EBF7"/>
<path d="M63.4703 138.148L61.6074 137.091V158.368L63.4703 159.44V138.148Z" fill="#E2EBF7"/>
<path d="M59.2848 135.733L57.4219 134.679V155.952L59.2848 157.025V135.733Z" fill="#E2EBF7"/>
<path d="M55.0972 133.321L53.2305 132.264V153.537L55.0972 154.614V133.321Z" fill="#E2EBF7"/>
<path d="M50.9078 130.906L49.0449 129.853V151.126L50.9078 152.199V130.906Z" fill="#E2EBF7"/>
<path d="M46.7222 128.495L44.8555 127.438V148.711L46.7222 149.787V128.495Z" fill="#E2EBF7"/>
<path d="M42.5328 126.08L40.6699 125.023V146.3L42.5328 147.372V126.08Z" fill="#E2EBF7"/>
<path d="M38.3472 123.665L36.4805 122.611V143.885L38.3472 144.961V123.665Z" fill="#E2EBF7"/>
<path d="M34.1578 121.253L32.2949 120.196V141.469L34.1578 142.546V121.253Z" fill="#E2EBF7"/>
<path d="M117.293 143.614L115.445 142.55L96.9707 153.198L98.8182 154.263L117.293 143.614Z" fill="#CBD7EB"/>
<path d="M113.103 141.203L111.26 140.138L92.7852 150.783L94.6326 151.847L113.103 141.203Z" fill="#CBD7EB"/>
<path d="M108.918 138.788L107.07 137.723L88.5957 148.371L90.4432 149.436L108.918 138.788Z" fill="#CBD7EB"/>
<path d="M104.732 136.377L102.881 135.312L84.4102 145.96L86.2576 147.021L104.732 136.377Z" fill="#CBD7EB"/>
<path d="M100.543 133.966L98.6952 132.901L80.2207 143.545L82.0682 144.61L100.543 133.966Z" fill="#CBD7EB"/>
<path d="M96.3571 131.551L94.5096 130.486L76.0352 141.134L77.8826 142.199L96.3571 131.551Z" fill="#CBD7EB"/>
<path d="M92.1677 129.139L90.3202 128.074L71.8496 138.719L73.6932 139.783L92.1677 129.139Z" fill="#CBD7EB"/>
<path d="M87.9821 126.724L86.1346 125.659L67.6602 136.307L69.5076 137.372L87.9821 126.724Z" fill="#CBD7EB"/>
<path d="M83.7926 124.313L81.9452 123.248L63.4707 133.896L65.3182 134.957L83.7926 124.313Z" fill="#CBD7EB"/>
<path d="M79.6071 121.898L77.7596 120.837L59.2852 131.481L61.1326 132.546L79.6071 121.898Z" fill="#CBD7EB"/>
<path d="M75.4157 119.486L73.5683 118.422L55.0977 129.07L56.9451 130.135L75.4157 119.486Z" fill="#CBD7EB"/>
<path d="M71.2301 117.075L69.3827 116.01L50.9082 126.655L52.7557 127.719L71.2301 117.075Z" fill="#CBD7EB"/>
<path d="M67.0407 114.66L65.1933 113.595L46.7227 124.243L48.5701 125.308L67.0407 114.66Z" fill="#CBD7EB"/>
<path d="M62.8551 112.249L61.0077 111.184L42.5332 121.832L44.3807 122.897L62.8551 112.249Z" fill="#CBD7EB"/>
<path d="M58.6657 109.834L56.8183 108.773L38.3477 119.417L40.1951 120.482L58.6657 109.834Z" fill="#CBD7EB"/>
<path d="M54.4801 107.422L52.6327 106.358L34.1582 117.006L36.0057 118.071L54.4801 107.422Z" fill="#CBD7EB"/>
<path d="M100.887 157.403L103.02 156.211L103.24 177.874L101.107 179.085L100.887 157.403Z" fill="#B4C5E1"/>
<path d="M105.037 154.972L107.171 153.792L107.352 175.624L105.219 176.82L105.037 154.972Z" fill="#B4C5E1"/>
<path d="M109.186 152.538L111.319 151.369L111.466 173.371L109.332 174.556L109.186 152.538Z" fill="#B4C5E1"/>
<path d="M113.336 150.108L115.469 148.946L115.578 171.122L113.444 172.291L113.336 150.108Z" fill="#B4C5E1"/>
<path d="M117.486 147.677L119.62 146.523L119.693 168.873L117.56 170.026L117.486 147.677Z" fill="#B4C5E1"/>
<g clip-path="url(#clip0_684_28299)">
<path d="M167.531 115.091V89.8711L145.359 102.479V127.699L167.531 115.091Z" fill="#1E1C7B"/>
<path d="M99.1522 51L167.511 89.8788L145.343 102.491L77 63.6004L99.1522 51Z" fill="#4A48AD"/>
<path d="M77 88.8164L145.358 127.699V102.479L77 63.6004V88.8164Z" fill="#2B298F"/>
<path opacity="0.5" d="M143.51 103.53L141.646 102.491V123.488L143.51 124.546V103.53Z" fill="#5755B7"/>
<path opacity="0.5" d="M139.324 101.15L137.461 100.107V121.104L139.324 122.166V101.15Z" fill="#5755B7"/>
<path opacity="0.5" d="M135.138 98.7666L133.271 97.727V118.724L135.138 119.782V98.7666Z" fill="#5755B7"/>
<path opacity="0.5" d="M130.949 96.3865L129.086 95.3432V116.34L130.949 117.402V96.3865Z" fill="#5755B7"/>
<path opacity="0.5" d="M126.762 94.0029L124.898 92.9595V113.96L126.762 115.019V94.0029Z" fill="#5755B7"/>
<path opacity="0.5" d="M122.572 91.6191L120.709 90.5796V111.576L122.572 112.639V91.6191Z" fill="#5755B7"/>
<path opacity="0.5" d="M118.387 89.2391L116.523 88.1957V109.193L118.387 110.255V89.2391Z" fill="#5755B7"/>
<path opacity="0.5" d="M114.195 86.8553L112.332 85.8158V106.813L114.195 107.871V86.8553Z" fill="#5755B7"/>
<path opacity="0.5" d="M110.01 84.4755L108.146 83.4321V104.429L110.01 105.491V84.4755Z" fill="#5755B7"/>
<path opacity="0.5" d="M105.82 82.0917L103.957 81.0522V102.049L105.82 103.108V82.0917Z" fill="#5755B7"/>
<path opacity="0.5" d="M101.633 79.7079L99.7695 78.6683V99.6651L101.633 100.728V79.7079Z" fill="#5755B7"/>
<path opacity="0.5" d="M97.4432 77.328L95.5801 76.2847V97.2853L97.4432 98.3439V77.328Z" fill="#5755B7"/>
<path opacity="0.5" d="M93.2576 74.9443L91.3945 73.9047V94.9016L93.2576 95.9602V74.9443Z" fill="#5755B7"/>
<path opacity="0.5" d="M89.072 72.5642L87.2051 71.5209V92.5177L89.072 93.5801V72.5642Z" fill="#5755B7"/>
<path opacity="0.5" d="M84.8807 70.1806L83.0176 69.1372V90.1379L84.8807 91.1965V70.1806Z" fill="#5755B7"/>
<path opacity="0.5" d="M80.6951 67.8006L78.8281 66.7573V87.7541L80.6951 88.8165V67.8006Z" fill="#5755B7"/>
<path d="M163.836 89.8712L161.988 88.8202L143.512 99.33L145.359 100.377L163.836 89.8712Z" fill="#3A389D"/>
<path d="M159.648 87.4912L157.801 86.4364L139.324 96.9463L141.172 97.9973L159.648 87.4912Z" fill="#3A389D"/>
<path d="M155.459 85.1075L153.611 84.0565L135.139 94.5664L136.986 95.6173L155.459 85.1075Z" fill="#3A389D"/>
<path d="M151.273 82.7276L149.426 81.6766L130.949 92.1826L132.797 93.2336L151.273 82.7276Z" fill="#3A389D"/>
<path d="M147.082 80.3438L145.234 79.2928L126.762 89.8027L128.609 90.8536L147.082 80.3438Z" fill="#3A389D"/>
<path d="M142.896 77.9639L141.049 76.9129L122.572 87.4189L124.42 88.4699L142.896 77.9639Z" fill="#3A389D"/>
<path d="M138.707 75.5801L136.859 74.5329L118.387 85.0389L120.234 86.0899L138.707 75.5801Z" fill="#3A389D"/>
<path d="M134.519 73.2001L132.672 72.1491L114.195 82.659L116.043 83.7099L134.519 73.2001Z" fill="#3A389D"/>
<path d="M130.33 70.8202L128.482 69.7692L110.01 80.2752L111.857 81.3262L130.33 70.8202Z" fill="#3A389D"/>
<path d="M126.144 68.4364L124.297 67.3854L105.82 77.8953L107.668 78.9462L126.144 68.4364Z" fill="#3A389D"/>
<path d="M121.957 66.0565L120.109 65.0055L101.633 75.5115L103.48 76.5625L121.957 66.0565Z" fill="#3A389D"/>
<path d="M117.767 63.6727L115.92 62.6217L97.4434 73.1316L99.291 74.1826L117.767 63.6727Z" fill="#3A389D"/>
<path d="M113.582 61.2928L111.734 60.2418L93.2578 70.7517L95.1054 71.8027L113.582 61.2928Z" fill="#3A389D"/>
<path d="M109.392 58.9129L107.545 57.8619L89.0723 68.3679L90.9199 69.4189L109.392 58.9129Z" fill="#3A389D"/>
<path d="M105.205 56.5291L103.357 55.4781L84.8809 65.988L86.7285 67.0389L105.205 56.5291Z" fill="#3A389D"/>
<path d="M101.015 54.1492L99.1677 53.0982L80.6953 63.6042L82.5429 64.6552L101.015 54.1492Z" fill="#3A389D"/>
<path d="M147.426 103.481L149.559 102.304L149.78 123.685L147.646 124.881L147.426 103.481Z" fill="#32308D"/>
<path d="M151.578 101.078L153.712 99.9126L153.893 121.462L151.76 122.646L151.578 101.078Z" fill="#32308D"/>
<path d="M155.729 98.6788L157.858 97.5212L158.005 119.242L155.875 120.411L155.729 98.6788Z" fill="#32308D"/>
<path d="M159.877 96.2799L162.011 95.1299L162.123 117.022L159.989 118.175L159.877 96.2799Z" fill="#32308D"/>
<path d="M164.027 93.8808L166.161 92.7423L166.234 114.798L164.101 115.94L164.027 93.8808Z" fill="#32308D"/>
</g>
<path d="M144.22 129.575V104.024L122.055 116.801V142.353L144.22 129.575Z" fill="#CBD7EB"/>
<path d="M75.8531 64.6448L144.205 104.035L122.035 116.809L53.6992 77.411L75.8531 64.6448Z" fill="#E2EBF7"/>
<path d="M53.6992 102.959L122.055 142.353V116.801L53.6992 77.411V102.959Z" fill="white"/>
<path d="M120.207 117.866L118.34 116.809V138.086L120.207 139.159V117.866Z" fill="#E2EBF7"/>
<path d="M116.017 115.451L114.154 114.398V135.671L116.017 136.743V115.451Z" fill="#E2EBF7"/>
<path d="M111.832 113.04L109.969 111.983V133.256L111.832 134.332V113.04Z" fill="#E2EBF7"/>
<path d="M107.642 110.625L105.779 109.571V130.844L107.642 131.917V110.625Z" fill="#E2EBF7"/>
<path d="M103.457 108.213L101.594 107.156V128.429L103.457 129.506V108.213Z" fill="#E2EBF7"/>
<path d="M99.2672 105.798L97.4043 104.741V126.018L99.2672 127.091V105.798Z" fill="#E2EBF7"/>
<path d="M95.0817 103.383L93.2188 102.33V123.603L95.0817 124.675V103.383Z" fill="#E2EBF7"/>
<path d="M90.8961 100.972L89.0293 99.9148V121.188L90.8961 122.264V100.972Z" fill="#E2EBF7"/>
<path d="M86.7067 98.5568L84.8438 97.5035V118.777L86.7067 119.849V98.5568Z" fill="#E2EBF7"/>
<path d="M82.5191 96.1455L80.6523 95.0884V116.361L82.5191 117.438V96.1455Z" fill="#E2EBF7"/>
<path d="M78.3297 93.7304L76.4668 92.6733V113.95L78.3297 115.023V93.7304Z" fill="#E2EBF7"/>
<path d="M74.1441 91.3153L72.2773 90.2621V111.535L74.1441 112.608V91.3153Z" fill="#E2EBF7"/>
<path d="M69.9547 88.904L68.0918 87.8469V109.124L69.9547 110.196V88.904Z" fill="#E2EBF7"/>
<path d="M65.7691 86.4889L63.9023 85.4357V106.709L65.7691 107.781V86.4889Z" fill="#E2EBF7"/>
<path d="M61.5797 84.0776L59.7168 83.0205V104.294L61.5797 105.37V84.0776Z" fill="#E2EBF7"/>
<path d="M57.3942 81.6625L55.5312 80.6093V101.882L57.3942 102.955V81.6625Z" fill="#E2EBF7"/>
<path d="M140.527 104.024L138.68 102.963L120.209 113.607L122.056 114.672L140.527 104.024Z" fill="#CBD7EB"/>
<path d="M136.34 101.612L134.492 100.547L116.018 111.196L117.865 112.26L136.34 101.612Z" fill="#CBD7EB"/>
<path d="M132.154 99.201L130.303 98.1362L111.832 108.78L113.679 109.845L132.154 99.201Z" fill="#CBD7EB"/>
<path d="M127.964 96.7859L126.117 95.7211L107.643 106.369L109.49 107.434L127.964 96.7859Z" fill="#CBD7EB"/>
<path d="M123.775 94.3747L121.932 93.3099L103.457 103.954L105.304 105.019L123.775 94.3747Z" fill="#CBD7EB"/>
<path d="M119.59 91.9596L117.742 90.8948L99.2676 101.543L101.115 102.608L119.59 91.9596Z" fill="#CBD7EB"/>
<path d="M115.404 89.5483L113.557 88.4835L95.082 99.1316L96.9295 100.193L115.404 89.5483Z" fill="#CBD7EB"/>
<path d="M111.215 87.137L109.367 86.0722L90.8965 96.7165L92.7439 97.7813L111.215 87.137Z" fill="#CBD7EB"/>
<path d="M107.029 84.7219L105.182 83.6571L86.707 94.3052L88.5545 95.37L107.029 84.7219Z" fill="#CBD7EB"/>
<path d="M102.84 82.3107L100.992 81.2458L82.5215 91.8901L84.3651 92.9549L102.84 82.3107Z" fill="#CBD7EB"/>
<path d="M98.654 79.8956L96.8065 78.8307L78.332 89.4789L80.1795 90.5437L98.654 79.8956Z" fill="#CBD7EB"/>
<path d="M94.4626 77.4843L92.6151 76.4195L74.1445 87.0676L75.992 88.1324L94.4626 77.4843Z" fill="#CBD7EB"/>
<path d="M90.277 75.073L88.4296 74.0082L69.9551 84.6525L71.8025 85.7173L90.277 75.073Z" fill="#CBD7EB"/>
<path d="M86.0876 72.6579L84.2401 71.5931L65.7695 82.2412L67.617 83.306L86.0876 72.6579Z" fill="#CBD7EB"/>
<path d="M81.902 70.2467L80.0546 69.1819L61.5801 79.8261L63.4275 80.8909L81.902 70.2467Z" fill="#CBD7EB"/>
<path d="M77.7126 67.8316L75.8651 66.7668L57.3945 77.4149L59.242 78.4797L77.7126 67.8316Z" fill="#CBD7EB"/>
<path d="M124.119 117.812L126.253 116.624L126.473 138.283L124.339 139.494L124.119 117.812Z" fill="#B4C5E1"/>
<path d="M128.27 115.382L130.403 114.201L130.585 136.033L128.451 137.229L128.27 115.382Z" fill="#B4C5E1"/>
<path d="M132.422 112.951L134.555 111.778L134.702 133.784L132.569 134.965L132.422 112.951Z" fill="#B4C5E1"/>
<path d="M136.572 110.517L138.706 109.355L138.814 131.531L136.68 132.7L136.572 110.517Z" fill="#B4C5E1"/>
<path d="M140.719 108.086L142.852 106.932L142.926 129.282L140.792 130.435L140.719 108.086Z" fill="#B4C5E1"/>
<defs>
<filter id="filter0_f_684_28299" x="19.0078" y="46.5908" width="355.992" height="189.715" filterUnits="userSpaceOnUse" color-interpolation-filters="sRGB">
<feFlood flood-opacity="0" result="BackgroundImageFix"/>
<feBlend mode="normal" in="SourceGraphic" in2="BackgroundImageFix" result="shape"/>
<feGaussianBlur stdDeviation="3" result="effect1_foregroundBlur_684_28299"/>
</filter>
<linearGradient id="paint0_linear_684_28299" x1="-4.89806" y1="6.53096" x2="177.969" y2="283.009" gradientUnits="userSpaceOnUse">
<stop stop-color="#0E3390"/>
<stop offset="0.443085" stop-color="#0E3390" stop-opacity="0.29"/>
<stop offset="0.692999" stop-color="#0E3390" stop-opacity="0.25"/>
<stop offset="0.9999" stop-color="#0E3390" stop-opacity="0"/>
<stop offset="1" stop-color="#B9C0C7" stop-opacity="0"/>
</linearGradient>
<clipPath id="clip0_684_28299">
<rect width="90.53" height="76.699" fill="white" transform="translate(77 51)"/>
</clipPath>
</defs>
</svg>
