<svg width="379" height="229" viewBox="0 0 379 229" fill="none" xmlns="http://www.w3.org/2000/svg">
<g filter="url(#filter0_f_684_28575)">
<path d="M3.5 100L163.5 5.5L376.5 136L219.5 227L3.5 100Z" fill="url(#paint0_linear_684_28575)"/>
</g>
<path d="M123.789 164.337L0 92.628L159.895 0L283.684 71.7095L123.789 164.337Z" fill="#E2EBF7"/>
<path d="M10.3164 92.628L123.789 158.364L273.367 71.7095L159.895 5.97672L10.3164 92.628Z" fill="white"/>
<path d="M165.053 38.8668L170.209 35.8785L242.422 77.7118L237.182 80.6271L165.053 38.8668Z" fill="#D1DCEE"/>
<path d="M154.75 44.8179L159.907 41.8296L206.322 68.7211L201.159 71.7058L154.75 44.8179Z" fill="#D1DCEE"/>
<path d="M149.619 21.338L164.994 30.3286L149.619 39.3156L134.105 30.3286L149.619 21.338Z" fill="#5F5DCA"/>
<path d="M134.105 32.8828V30.3287L149.619 39.3156V41.8698L134.105 32.8828Z" fill="#2B298F"/>
<path d="M164.994 32.8828V30.3287L149.619 39.3156V41.8698L164.994 32.8828Z" fill="#201F78"/>
<path d="M146.07 26.1289L148.056 27.2783V31.9013L146.07 32.1968V26.1289Z" fill="white"/>
<path d="M155.991 29.577L157.972 30.7227L148.056 31.9013L146.07 30.7519L155.991 29.577Z" fill="white"/>
<path d="M134.262 56.837L139.422 53.8487L211.631 95.6783L206.391 98.5974L134.262 56.837Z" fill="#D1DCEE"/>
<path d="M123.959 62.7882L129.115 59.7999L175.531 86.6878L170.368 89.6725L123.959 62.7882Z" fill="#D1DCEE"/>
<path d="M118.724 39.3156L134.095 48.3026L118.724 57.2932L103.207 48.3026L118.724 39.3156Z" fill="#5F5DCA"/>
<path d="M103.207 50.8604V48.3026L118.724 57.2932V59.8473L103.207 50.8604Z" fill="#2B298F"/>
<path d="M134.094 50.8604V48.3026L118.723 57.2932V59.8473L134.094 50.8604Z" fill="#201F78"/>
<path d="M115.17 44.1028L117.155 45.2521V49.8752L115.17 50.1744V44.1028Z" fill="white"/>
<path d="M125.09 47.551L127.072 48.7003L117.155 49.8752L115.17 48.7259L125.09 47.551Z" fill="white"/>
<path d="M103.166 74.7636L108.323 71.7752L180.535 113.608L175.295 116.524L103.166 74.7636Z" fill="#D1DCEE"/>
<path d="M92.8652 80.7147L98.0217 77.7263L144.438 104.614L139.274 107.599L92.8652 80.7147Z" fill="#D1DCEE"/>
<path d="M87.7668 57.2932L103.138 66.2802L87.7668 75.2671L72.25 66.2802L87.7668 57.2932Z" fill="#5F5DCA"/>
<path d="M72.25 68.8343V66.2801L87.7668 75.2671V77.8249L72.25 68.8343Z" fill="#2B298F"/>
<path d="M103.137 68.8343V66.2801L87.7656 75.2671V77.8249L103.137 68.8343Z" fill="#201F78"/>
<path d="M84.2168 62.0804L86.1987 63.2298V67.8528L84.2168 68.152V62.0804Z" fill="white"/>
<path d="M94.1334 65.5285L96.119 66.6779L86.1987 67.8528L84.2168 66.7034L94.1334 65.5285Z" fill="white"/>
<path d="M72.377 92.6936L77.5371 89.7053L149.746 131.535L144.506 134.45L72.377 92.6936Z" fill="#D1DCEE"/>
<path d="M62.0742 98.6448L67.2307 95.6564L113.647 122.544L108.483 125.529L62.0742 98.6448Z" fill="#D1DCEE"/>
<path d="M56.9761 75.2671L72.3474 84.2577L56.9761 93.2446L41.4629 84.2577L56.9761 75.2671Z" fill="#5F5DCA"/>
<path d="M41.4629 86.8118V84.2577L56.9761 93.2446V95.8024L41.4629 86.8118Z" fill="#2B298F"/>
<path d="M72.3479 86.8118V84.2577L56.9766 93.2446V95.8024L72.3479 86.8118Z" fill="#201F78"/>
<path d="M53.4277 80.058L55.4096 81.2073V85.8303L53.4277 86.1259V80.058Z" fill="white"/>
<path d="M63.3444 83.506L65.3299 84.6554L55.4096 85.8303L53.4277 84.681L63.3444 83.506Z" fill="white"/>
<path d="M283.684 77.6862V71.7095L123.789 164.337V170.314L283.684 77.6862Z" fill="#D1DCEE"/>
<path d="M0 98.6047V92.628L123.789 164.338V171.241L0 98.6047Z" fill="white"/>
<path d="M232.115 59.7853V53.8086L180.535 23.9287V29.9054L232.115 59.7853Z" fill="#E2EBF7"/>
<path d="M201.165 11.9753L180.535 23.9287L232.115 53.8086L252.744 41.8552L201.165 11.9753Z" fill="white"/>
<path d="M252.745 47.8319V41.8552L232.115 53.8086V59.7853L252.745 47.8319Z" fill="#D1DCEE"/>
<defs>
<filter id="filter0_f_684_28575" x="1.5" y="3.5" width="377" height="225.5" filterUnits="userSpaceOnUse" color-interpolation-filters="sRGB">
<feFlood flood-opacity="0" result="BackgroundImageFix"/>
<feBlend mode="normal" in="SourceGraphic" in2="BackgroundImageFix" result="shape"/>
<feGaussianBlur stdDeviation="1" result="effect1_foregroundBlur_684_28575"/>
</filter>
<linearGradient id="paint0_linear_684_28575" x1="131" y1="53" x2="200" y2="165" gradientUnits="userSpaceOnUse">
<stop offset="0.03" stop-color="#0E3390"/>
<stop offset="1" stop-color="#0E3390" stop-opacity="0"/>
</linearGradient>
</defs>
</svg>
