<svg width="344" height="226" viewBox="0 0 344 226" fill="none" xmlns="http://www.w3.org/2000/svg">
<g style="mix-blend-mode:multiply" opacity="0.4" filter="url(#filter0_f_851_128864)">
<path d="M287.707 27.4861L340.969 60.6001L65.5275 221.92L3.13477 187.579L287.707 27.4861Z" fill="url(#paint0_linear_851_128864)"/>
</g>
<path d="M289.177 34.4837C289.29 35.3861 288.615 36.66 287.668 37.3419C286.722 38.0238 285.86 37.8319 285.747 36.9336C285.634 36.0353 286.309 34.7573 287.256 34.0754C288.202 33.3935 289.084 33.5813 289.177 34.4837Z" fill="#9EA2CB"/>
<path d="M288.724 34.8103C288.809 35.4677 288.319 36.4027 287.619 36.8968C286.92 37.3909 286.297 37.2561 286.216 36.5987C286.135 35.9413 286.62 35.0063 287.32 34.5122C288.02 34.0182 288.639 34.1529 288.724 34.8103Z" fill="#B4C5E1"/>
<path d="M279.487 40.1062C279.572 40.7636 279.083 41.6987 278.383 42.1927C277.683 42.6868 277.06 42.552 276.98 41.8947C276.899 41.2373 277.384 40.3022 278.084 39.8082C278.784 39.3141 279.407 39.4448 279.487 40.1062Z" fill="#B4C5E1"/>
<path d="M264.181 49.4975C264.294 50.3999 263.619 51.6739 262.672 52.3558C261.726 53.0376 260.864 52.8457 260.751 51.9474C260.637 51.0491 261.313 49.7711 262.26 49.0892C263.206 48.4073 264.064 48.5952 264.181 49.4975Z" fill="#9EA2CB"/>
<path d="M263.72 49.8241C263.805 50.4815 263.315 51.4165 262.616 51.9106C261.916 52.4047 261.293 52.2699 261.212 51.6125C261.131 50.9551 261.616 50.0201 262.316 49.526C263.016 49.032 263.635 49.1504 263.72 49.8241Z" fill="#B4C5E1"/>
<path d="M254.484 55.12C254.569 55.7774 254.079 56.7124 253.379 57.2065C252.679 57.7006 252.057 57.5658 251.976 56.9084C251.895 56.251 252.38 55.316 253.08 54.8219C253.78 54.3279 254.403 54.4585 254.484 55.12Z" fill="#B4C5E1"/>
<path d="M290.648 32.0011C290.601 31.5261 290.429 31.0723 290.151 30.6863L290.272 30.4944L289.225 30.0004H289.204C288.278 29.6941 287.008 30.0004 285.669 30.9313C283.21 32.6789 281.454 35.9944 281.749 38.33C281.799 38.8635 282.011 39.3684 282.356 39.7754C282.355 39.785 282.355 39.7945 282.356 39.804C282.805 40.2456 283.364 40.5561 283.974 40.7023L284.136 40.4369C285.079 40.3331 285.976 39.9702 286.729 39.3875C289.188 37.644 290.944 34.3285 290.648 32.0011Z" fill="#969BC2"/>
<path d="M291.445 32.3767C291.74 34.7123 289.984 38.0278 287.525 39.7754C285.066 41.523 282.833 41.0493 282.541 38.7138C282.25 36.3782 284.002 33.0627 286.461 31.3151C288.921 29.5675 291.149 30.0411 291.445 32.3767Z" fill="#9EA2CB"/>
<path d="M290.957 33.0219C291.191 34.8797 289.796 37.5134 287.838 38.9098C285.88 40.3062 284.104 39.9224 283.869 38.0646C283.635 36.2068 285.03 33.5731 286.988 32.1767C288.946 30.7802 290.706 31.1845 290.957 33.0219Z" fill="#B4C5E1"/>
<path d="M281.4 37.2888C281.353 36.8137 281.181 36.36 280.903 35.974L281.024 35.7821L279.984 35.2676H279.964C279.038 34.9614 277.768 35.2676 276.429 36.1986C273.969 37.9462 272.214 41.2617 272.509 43.5973C272.559 44.1307 272.771 44.6356 273.116 45.0427C273.115 45.0522 273.115 45.0618 273.116 45.0713C273.565 45.5129 274.124 45.8233 274.734 45.9696L274.896 45.7042C275.839 45.6004 276.736 45.2374 277.489 44.6548C279.952 42.9358 281.708 39.6244 281.4 37.2888Z" fill="#969BC2"/>
<path d="M282.21 37.6727C282.506 40.0083 280.75 43.3238 278.291 45.0714C275.831 46.819 273.598 46.3453 273.307 44.0098C273.016 41.6742 274.767 38.3587 277.227 36.6111C279.686 34.8635 281.919 35.3371 282.21 37.6727Z" fill="#9EA2CB"/>
<path d="M281.72 38.3177C281.955 40.1756 280.559 42.8092 278.601 44.2056C276.644 45.6021 274.868 45.2183 274.633 43.3604C274.399 41.5026 275.794 38.8689 277.752 37.4725C279.71 36.0761 281.49 36.4599 281.72 38.3177Z" fill="#B4C5E1"/>
<path d="M279.949 39.7591C280.062 40.6615 279.386 41.9355 278.44 42.6174C277.493 43.2992 276.632 43.1073 276.518 42.209C276.405 41.3107 277.081 40.0327 278.027 39.3508C278.974 38.6689 279.835 38.8772 279.949 39.7591Z" fill="#9EA2CB"/>
<path d="M289.583 32.5074L277.039 40.1675V43.7729L280.085 41.911L280.684 40.5513L286.614 36.9336L287.051 37.6686L289.583 36.1251V32.5074Z" fill="#BDCCE5"/>
<path d="M265.623 47.0068C265.576 46.5317 265.404 46.0779 265.126 45.692L265.247 45.5001L264.199 45.006H264.179C263.253 44.6998 261.982 45.006 260.644 45.937C258.184 47.6846 256.429 51.0001 256.724 53.3357C256.774 53.8691 256.985 54.374 257.331 54.7811C257.33 54.7906 257.33 54.8002 257.331 54.8097C257.78 55.2513 258.339 55.5617 258.949 55.708L259.11 55.4426C260.054 55.3388 260.95 54.9758 261.703 54.3932C264.183 52.6578 265.939 49.3423 265.623 47.0068Z" fill="#969BC2"/>
<path d="M266.433 47.3905C266.728 49.7261 264.973 53.0416 262.513 54.7892C260.054 56.5368 257.821 56.0632 257.53 53.7276C257.238 51.392 258.99 48.0765 261.449 46.3289C263.909 44.5813 266.146 45.0672 266.433 47.3905Z" fill="#9EA2CB"/>
<path d="M265.953 48.0397C266.187 49.8976 264.792 52.5312 262.834 53.9277C260.876 55.3241 259.1 54.9403 258.866 53.0825C258.631 51.2246 260.027 48.591 261.984 47.1945C263.942 45.7981 265.718 46.1778 265.953 48.0397Z" fill="#B4C5E1"/>
<path d="M256.41 52.3026C256.364 51.828 256.194 51.3742 255.917 50.9878L256.038 50.7959L254.99 50.3019H254.97C254.044 49.9956 252.774 50.3019 251.435 51.2328C248.975 52.9804 247.22 56.296 247.515 58.6315C247.565 59.165 247.776 59.6699 248.122 60.077C248.121 60.0865 248.121 60.096 248.122 60.1055C248.571 60.5471 249.13 60.8576 249.74 61.0038L249.901 60.7384C250.845 60.6346 251.741 60.2717 252.494 59.6891C254.95 57.9537 256.726 54.6382 256.41 52.3026Z" fill="#969BC2"/>
<path d="M257.21 52.6865C257.506 55.0221 255.75 58.3376 253.291 60.0852C250.831 61.8328 248.598 61.3591 248.307 59.0236C248.016 56.688 249.767 53.3725 252.227 51.6249C254.686 49.8773 256.915 50.3509 257.21 52.6865Z" fill="#9EA2CB"/>
<path d="M256.726 53.3357C256.961 55.1936 255.565 57.8272 253.607 59.2237C251.649 60.6201 249.874 60.2363 249.639 58.3785C249.404 56.5206 250.8 53.887 252.758 52.4905C254.716 51.0941 256.487 51.4738 256.726 53.3357Z" fill="#B4C5E1"/>
<path d="M254.947 54.7933C255.06 55.6957 254.384 56.9696 253.438 57.6515C252.491 58.3334 251.63 58.1415 251.516 57.2432C251.403 56.3449 252.079 55.0669 253.025 54.385C253.972 53.7031 254.833 53.8909 254.947 54.7933Z" fill="#9EA2CB"/>
<path d="M264.581 47.5214L252.037 55.1814V58.7868L255.083 56.9249L255.682 55.5652L261.612 51.9475L262.049 52.6866L264.581 51.139V47.5214Z" fill="#BDCCE5"/>
<path d="M297.636 30.421L244.795 61.4204V55.9816L297.636 24.9822V30.421Z" fill="#A9B8DA"/>
<path d="M244.796 55.9366L227.557 46.3335V51.538L244.796 61.4244V55.9366Z" fill="#BDCCE5"/>
<path d="M223.562 19.0662L223.681 19.1321V18.9962L223.562 19.0662Z" fill="#2B2B2D"/>
<path d="M297.518 29.8028L244.664 60.4428V40.5692L297.518 9.92923V29.8028Z" fill="#CBD7EB"/>
<path d="M246.093 41.3972L247.533 40.575V57.1208L246.093 57.958V41.3972Z" fill="#B4C5E1"/>
<path d="M249.329 39.5189L250.77 38.6967V55.2455L249.329 56.0797V39.5189Z" fill="#B4C5E1"/>
<path d="M252.567 37.6405L254.008 36.8213V53.3671L252.567 54.2043V37.6405Z" fill="#B4C5E1"/>
<path d="M255.806 35.7651L257.246 34.9429V51.4887L255.806 52.3258V35.7651Z" fill="#B4C5E1"/>
<path d="M259.042 33.8863L260.482 33.0671V49.6129L259.042 50.4471V33.8863Z" fill="#B4C5E1"/>
<path d="M262.28 32.011L263.721 31.1888V47.7346L262.28 48.5718V32.011Z" fill="#B4C5E1"/>
<path d="M265.517 30.1328L266.961 29.3136V45.8594L265.517 46.6936V30.1328Z" fill="#B4C5E1"/>
<path d="M268.759 28.2545L270.199 27.4353V43.981L268.759 44.8182V28.2545Z" fill="#B4C5E1"/>
<path d="M271.997 26.3788L273.438 25.5566V42.1054L271.997 42.9396V26.3788Z" fill="#B4C5E1"/>
<path d="M275.233 24.5003L276.674 23.6811V40.2269L275.233 41.0611V24.5003Z" fill="#B4C5E1"/>
<path d="M278.471 22.625L279.914 21.8028V38.3486L278.471 39.1857V22.625Z" fill="#B4C5E1"/>
<path d="M281.712 20.7467L283.152 19.9275V36.4732L281.712 37.3074V20.7467Z" fill="#B4C5E1"/>
<path d="M284.947 18.8713L286.391 18.0491V34.5949L284.947 35.4321V18.8713Z" fill="#B4C5E1"/>
<path d="M288.184 16.9927L289.625 16.1705V32.7193L288.184 33.5534V16.9927Z" fill="#B4C5E1"/>
<path d="M291.424 15.1141L292.867 14.295V30.8407L291.424 31.6779V15.1141Z" fill="#B4C5E1"/>
<path d="M294.663 13.2388L296.104 12.4166V28.9624L294.663 29.7996V13.2388Z" fill="#B4C5E1"/>
<path d="M280.39 0L227.536 30.64L244.679 40.5753L297.518 9.92927L280.39 0Z" fill="#E2EBF7"/>
<path d="M230.378 30.6311L231.806 29.8029L246.092 38.0848L244.663 38.913L230.378 30.6311Z" fill="#CBD7EB"/>
<path d="M233.617 28.7557L235.043 27.9275L249.328 36.2064L247.9 37.0346L233.617 28.7557Z" fill="#CBD7EB"/>
<path d="M236.852 26.8771L238.281 26.049L252.566 34.3308L251.138 35.159L236.852 26.8771Z" fill="#CBD7EB"/>
<path d="M240.09 25.0017L241.522 24.1736L255.805 32.4554L254.376 33.2806L240.09 25.0017Z" fill="#CBD7EB"/>
<path d="M243.331 23.1263L244.759 22.2981L259.045 30.577L257.616 31.4052L243.331 23.1263Z" fill="#CBD7EB"/>
<path d="M246.565 21.2478L247.994 20.4196L262.279 28.7015L260.851 29.5297L246.565 21.2478Z" fill="#CBD7EB"/>
<path d="M249.804 19.3724L251.233 18.5442L265.516 26.8231L264.09 27.6512L249.804 19.3724Z" fill="#CBD7EB"/>
<path d="M253.042 17.4938L254.47 16.6656L268.756 24.9475L267.327 25.7757L253.042 17.4938Z" fill="#CBD7EB"/>
<path d="M256.282 15.6185L257.71 14.7903L271.996 23.0722L270.568 23.8974L256.282 15.6185Z" fill="#CBD7EB"/>
<path d="M259.518 13.7402L260.947 12.915L275.232 21.1939L273.804 22.0221L259.518 13.7402Z" fill="#CBD7EB"/>
<path d="M262.76 11.8647L264.188 11.0366L278.471 19.3184L277.042 20.1466L262.76 11.8647Z" fill="#CBD7EB"/>
<path d="M265.995 9.98935L267.423 9.16116L281.709 17.4401L280.28 18.2682L265.995 9.98935Z" fill="#CBD7EB"/>
<path d="M269.234 8.11079L270.663 7.28259L284.945 15.5645L283.517 16.3927L269.234 8.11079Z" fill="#CBD7EB"/>
<path d="M272.471 6.2356L273.9 5.40741L288.186 13.6893L286.757 14.5175L272.471 6.2356Z" fill="#CBD7EB"/>
<path d="M275.711 4.35696L277.139 3.53177L291.422 11.8107L289.993 12.6389L275.711 4.35696Z" fill="#CBD7EB"/>
<path d="M278.948 2.48163L280.376 1.65344L294.662 9.93534L293.234 10.7635L278.948 2.48163Z" fill="#CBD7EB"/>
<path d="M227.519 50.5044V30.6309L244.662 40.5691V60.4427L227.519 50.5044Z" fill="white"/>
<path d="M243.062 41.3555L241.413 40.4283L241.242 57.2772L242.892 58.2194L243.062 41.3555Z" fill="#E2EBF7"/>
<path d="M239.854 39.4651L238.204 38.5469L238.063 55.5278L239.713 56.458L239.854 39.4651Z" fill="#E2EBF7"/>
<path d="M236.648 37.5715L234.999 36.6623L234.885 53.7752L236.535 54.6964L236.648 37.5715Z" fill="#E2EBF7"/>
<path d="M233.438 35.681L231.788 34.7778L231.704 52.0258L233.354 52.935L233.438 35.681Z" fill="#E2EBF7"/>
<path d="M230.227 33.7906L228.577 32.8934L228.52 50.2763L230.17 51.1735L230.227 33.7906Z" fill="#E2EBF7"/>
<path d="M233.945 67.9619C234.058 68.8643 233.382 70.1382 232.436 70.8201C231.489 71.502 230.628 71.3101 230.514 70.4118C230.401 69.5135 231.077 68.2355 232.023 67.5536C232.97 66.8717 233.852 67.0595 233.945 67.9619Z" fill="#9EA2CB"/>
<path d="M233.487 68.2885C233.572 68.9459 233.083 69.8809 232.383 70.375C231.683 70.8691 231.06 70.7343 230.98 70.0769C230.899 69.4195 231.384 68.4845 232.084 67.9904C232.784 67.4964 233.403 67.6311 233.487 68.2885Z" fill="#B4C5E1"/>
<path d="M224.253 73.5844C224.338 74.2418 223.849 75.1768 223.149 75.6709C222.449 76.165 221.826 76.0302 221.745 75.3728C221.664 74.7154 222.15 73.7804 222.849 73.2863C223.549 72.7923 224.172 72.9229 224.253 73.5844Z" fill="#B4C5E1"/>
<path d="M208.947 82.9757C209.06 83.8781 208.384 85.152 207.438 85.8339C206.491 86.5158 205.63 86.3239 205.516 85.4256C205.403 84.5273 206.079 83.2493 207.025 82.5674C207.972 81.8855 208.829 82.0733 208.947 82.9757Z" fill="#9EA2CB"/>
<path d="M208.484 83.3022C208.569 83.9596 208.079 84.8947 207.379 85.3887C206.679 85.8828 206.057 85.748 205.976 85.0907C205.895 84.4333 206.38 83.4982 207.08 83.0042C207.78 82.5101 208.399 82.6285 208.484 83.3022Z" fill="#B4C5E1"/>
<path d="M199.249 88.5982C199.334 89.2556 198.845 90.1907 198.145 90.6847C197.445 91.1788 196.822 91.0441 196.741 90.3867C196.66 89.7293 197.146 88.7942 197.846 88.3002C198.545 87.8061 199.168 87.9368 199.249 88.5982Z" fill="#B4C5E1"/>
<path d="M235.414 65.4793C235.367 65.0042 235.195 64.5504 234.917 64.1645L235.038 63.9726L233.99 63.4785H233.97C233.044 63.1723 231.774 63.4785 230.435 64.4095C227.975 66.1571 226.22 69.4726 226.515 71.8082C226.565 72.3417 226.776 72.8465 227.122 73.2536C227.121 73.2631 227.121 73.2727 227.122 73.2822C227.571 73.7238 228.13 74.0343 228.74 74.1805L228.901 73.9151C229.845 73.8113 230.741 73.4483 231.494 72.8657C233.954 71.1222 235.709 67.8067 235.414 65.4793Z" fill="#969BC2"/>
<path d="M236.21 65.8549C236.506 68.1905 234.75 71.506 232.291 73.2536C229.831 75.0012 227.598 74.5275 227.307 72.192C227.016 69.8564 228.767 66.5409 231.227 64.7933C233.686 63.0457 235.915 63.5193 236.21 65.8549Z" fill="#9EA2CB"/>
<path d="M235.722 66.5001C235.957 68.3579 234.561 70.9915 232.603 72.388C230.646 73.7844 228.87 73.4006 228.635 71.5428C228.4 69.6849 229.796 67.0513 231.754 65.6548C233.712 64.2584 235.471 64.6626 235.722 66.5001Z" fill="#B4C5E1"/>
<path d="M226.166 70.767C226.118 70.2919 225.947 69.8381 225.668 69.4522L225.79 69.2603L224.75 68.7458H224.73C223.803 68.4396 222.533 68.7458 221.194 69.6768C218.735 71.4244 216.979 74.7399 217.275 77.0755C217.324 77.6089 217.536 78.1138 217.881 78.5209C217.881 78.5304 217.881 78.54 217.881 78.5495C218.33 78.9911 218.89 79.3015 219.499 79.4478L219.661 79.1824C220.604 79.0786 221.501 78.7156 222.254 78.133C224.718 76.414 226.473 73.1025 226.166 70.767Z" fill="#969BC2"/>
<path d="M226.974 71.1509C227.269 73.4865 225.514 76.802 223.054 78.5496C220.595 80.2972 218.362 79.8235 218.071 77.488C217.779 75.1524 219.531 71.8369 221.99 70.0893C224.45 68.3417 226.683 68.8153 226.974 71.1509Z" fill="#9EA2CB"/>
<path d="M226.486 71.796C226.72 73.6538 225.325 76.2874 223.367 77.6839C221.409 79.0803 219.633 78.6965 219.399 76.8387C219.164 74.9808 220.56 72.3472 222.518 70.9507C224.475 69.5543 226.255 69.9381 226.486 71.796Z" fill="#B4C5E1"/>
<path d="M224.714 73.2373C224.827 74.1397 224.152 75.4136 223.205 76.0955C222.259 76.7774 221.397 76.5855 221.284 75.6872C221.171 74.7889 221.846 73.5109 222.793 72.829C223.739 72.1471 224.601 72.3554 224.714 73.2373Z" fill="#9EA2CB"/>
<path d="M234.351 65.9856L221.807 73.6456V77.251L224.853 75.3891L225.451 74.0294L231.381 70.4117L231.818 71.1467L234.351 69.6033V65.9856Z" fill="#BDCCE5"/>
<path d="M210.391 80.485C210.343 80.0099 210.172 79.5561 209.893 79.1702L210.014 78.9783L208.967 78.4842H208.947C208.02 78.178 206.75 78.4842 205.411 79.4152C202.952 81.1628 201.196 84.4783 201.491 86.8139C201.541 87.3473 201.753 87.8522 202.098 88.2593C202.097 88.2688 202.097 88.2784 202.098 88.2879C202.547 88.7295 203.106 89.0399 203.716 89.1862L203.878 88.9208C204.821 88.817 205.718 88.454 206.471 87.8714C208.951 86.1361 210.706 82.8205 210.391 80.485Z" fill="#969BC2"/>
<path d="M211.199 80.8687C211.494 83.2043 209.738 86.5198 207.279 88.2674C204.819 90.015 202.587 89.5414 202.295 87.2058C202.004 84.8702 203.756 81.5547 206.215 79.8071C208.674 78.0595 210.911 78.5454 211.199 80.8687Z" fill="#9EA2CB"/>
<path d="M210.716 81.5179C210.951 83.3758 209.555 86.0094 207.598 87.4058C205.64 88.8023 203.864 88.4185 203.629 86.5606C203.395 84.7028 204.79 82.0692 206.748 80.6727C208.706 79.2763 210.482 79.656 210.716 81.5179Z" fill="#B4C5E1"/>
<path d="M201.176 85.7808C201.13 85.3061 200.959 84.8524 200.682 84.466L200.804 84.2741L199.756 83.78H199.736C198.809 83.4738 197.539 83.78 196.2 84.711C193.741 86.4586 191.985 89.7741 192.28 92.1097C192.33 92.6431 192.542 93.148 192.887 93.5551C192.887 93.5646 192.887 93.5742 192.887 93.5837C193.336 94.0253 193.895 94.3357 194.505 94.482L194.667 94.2166C195.61 94.1128 196.507 93.7498 197.26 93.1672C199.715 91.4319 201.491 88.1163 201.176 85.7808Z" fill="#969BC2"/>
<path d="M201.978 86.1646C202.273 88.5002 200.518 91.8157 198.058 93.5633C195.599 95.3109 193.366 94.8373 193.075 92.5017C192.783 90.1661 194.535 86.8506 196.994 85.103C199.454 83.3554 201.683 83.8291 201.978 86.1646Z" fill="#9EA2CB"/>
<path d="M201.492 86.8139C201.726 88.6717 200.331 91.3054 198.373 92.7018C196.415 94.0983 194.639 93.7144 194.405 91.8566C194.17 89.9988 195.566 87.3651 197.523 85.9687C199.481 84.5722 201.253 84.952 201.492 86.8139Z" fill="#B4C5E1"/>
<path d="M199.712 88.2715C199.825 89.1739 199.15 90.4478 198.203 91.1297C197.257 91.8116 196.395 91.6197 196.282 90.7214C196.169 89.8231 196.844 88.5451 197.791 87.8632C198.737 87.1813 199.599 87.3691 199.712 88.2715Z" fill="#9EA2CB"/>
<path d="M209.347 80.9995L196.803 88.6595V92.265L199.849 90.403L200.447 89.0434L206.378 85.4257L206.814 86.1647L209.347 84.6172V80.9995Z" fill="#BDCCE5"/>
<path d="M242.402 63.8992L189.561 94.8985V89.4598L242.402 58.4604V63.8992Z" fill="#A9B8DA"/>
<path d="M189.562 89.4148L172.322 79.8117V85.0162L189.562 94.9025V89.4148Z" fill="#BDCCE5"/>
<path d="M168.33 52.5444L168.448 52.6104V52.4744L168.33 52.5444Z" fill="#2B2B2D"/>
<path d="M242.285 61.549L189.431 92.1891V72.3155L242.285 41.6755V61.549Z" fill="#CBD7EB"/>
<path d="M190.86 73.1435L192.301 72.3213V88.8671L190.86 89.7043V73.1435Z" fill="#B4C5E1"/>
<path d="M194.097 71.2652L195.537 70.443V86.9918L194.097 87.826V71.2652Z" fill="#B4C5E1"/>
<path d="M197.335 69.3867L198.775 68.5676V85.1133L197.335 85.9505V69.3867Z" fill="#B4C5E1"/>
<path d="M200.573 67.5113L202.014 66.6891V83.2349L200.573 84.0721V67.5113Z" fill="#B4C5E1"/>
<path d="M203.809 65.6326L205.25 64.8134V81.3592L203.809 82.1934V65.6326Z" fill="#B4C5E1"/>
<path d="M207.048 63.7573L208.488 62.9351V79.4808L207.048 80.318V63.7573Z" fill="#B4C5E1"/>
<path d="M210.285 61.8791L211.729 61.0599V77.6057L210.285 78.4399V61.8791Z" fill="#B4C5E1"/>
<path d="M213.526 60.0007L214.967 59.1815V75.7273L213.526 76.5645V60.0007Z" fill="#B4C5E1"/>
<path d="M216.765 58.1251L218.205 57.3029V73.8517L216.765 74.6859V58.1251Z" fill="#B4C5E1"/>
<path d="M220.001 56.2466L221.441 55.4274V71.9732L220.001 72.8073V56.2466Z" fill="#B4C5E1"/>
<path d="M223.238 54.3712L224.682 53.549V70.0948L223.238 70.932V54.3712Z" fill="#B4C5E1"/>
<path d="M226.479 52.4929L227.92 51.6737V68.2195L226.479 69.0537V52.4929Z" fill="#B4C5E1"/>
<path d="M229.715 50.6176L231.158 49.7954V66.3412L229.715 67.1784V50.6176Z" fill="#B4C5E1"/>
<path d="M232.952 48.7389L234.393 47.9167V64.4655L232.952 65.2997V48.7389Z" fill="#B4C5E1"/>
<path d="M236.191 46.8604L237.635 46.0412V62.587L236.191 63.4242V46.8604Z" fill="#B4C5E1"/>
<path d="M239.431 44.9851L240.871 44.1629V60.7087L239.431 61.5459V44.9851Z" fill="#B4C5E1"/>
<path d="M225.157 31.7463L172.304 62.3863L189.446 72.3216L242.285 41.6755L225.157 31.7463Z" fill="#E2EBF7"/>
<path d="M175.145 62.3774L176.574 61.5492L190.859 69.8311L189.431 70.6593L175.145 62.3774Z" fill="#CBD7EB"/>
<path d="M178.385 60.502L179.81 59.6738L194.096 67.9527L192.667 68.7809L178.385 60.502Z" fill="#CBD7EB"/>
<path d="M181.62 58.6234L183.048 57.7952L197.334 66.0771L195.905 66.9053L181.62 58.6234Z" fill="#CBD7EB"/>
<path d="M184.858 56.748L186.29 55.9198L200.572 64.2017L199.144 65.0269L184.858 56.748Z" fill="#CBD7EB"/>
<path d="M188.098 54.8726L189.527 54.0444L203.812 62.3233L202.384 63.1515L188.098 54.8726Z" fill="#CBD7EB"/>
<path d="M191.333 52.9941L192.761 52.1659L207.047 60.4478L205.618 61.2759L191.333 52.9941Z" fill="#CBD7EB"/>
<path d="M194.572 51.1186L196.001 50.2904L210.283 58.5693L208.858 59.3975L194.572 51.1186Z" fill="#CBD7EB"/>
<path d="M197.809 49.2401L199.238 48.4119L213.523 56.6938L212.095 57.522L197.809 49.2401Z" fill="#CBD7EB"/>
<path d="M201.049 47.3648L202.478 46.5366L216.764 54.8185L215.335 55.6437L201.049 47.3648Z" fill="#CBD7EB"/>
<path d="M204.286 45.4865L205.714 44.6613L220 52.9402L218.571 53.7684L204.286 45.4865Z" fill="#CBD7EB"/>
<path d="M207.527 43.611L208.956 42.7828L223.238 51.0647L221.81 51.8929L207.527 43.611Z" fill="#CBD7EB"/>
<path d="M210.762 41.7356L212.191 40.9074L226.477 49.1863L225.048 50.0145L210.762 41.7356Z" fill="#CBD7EB"/>
<path d="M214.002 39.8571L215.43 39.0289L229.713 47.3108L228.284 48.1389L214.002 39.8571Z" fill="#CBD7EB"/>
<path d="M217.239 37.9819L218.668 37.1537L232.953 45.4356L231.525 46.2638L217.239 37.9819Z" fill="#CBD7EB"/>
<path d="M220.478 36.1032L221.907 35.278L236.189 43.5569L234.761 44.3851L220.478 36.1032Z" fill="#CBD7EB"/>
<path d="M223.715 34.2279L225.144 33.3997L239.43 41.6816L238.001 42.5098L223.715 34.2279Z" fill="#CBD7EB"/>
<path d="M172.287 82.2507V62.3771L189.43 72.3154V92.189L172.287 82.2507Z" fill="white"/>
<path d="M187.83 73.1018L186.18 72.1746L186.01 89.0234L187.66 89.9657L187.83 73.1018Z" fill="#E2EBF7"/>
<path d="M184.621 71.2114L182.971 70.2932L182.831 87.274L184.481 88.2042L184.621 71.2114Z" fill="#E2EBF7"/>
<path d="M181.416 69.3178L179.766 68.4086L179.653 85.5215L181.302 86.4427L181.416 69.3178Z" fill="#E2EBF7"/>
<path d="M178.205 67.4273L176.555 66.5241L176.472 83.772L178.121 84.6813L178.205 67.4273Z" fill="#E2EBF7"/>
<path d="M174.994 65.5369L173.344 64.6396L173.288 82.0226L174.937 82.9198L174.994 65.5369Z" fill="#E2EBF7"/>
<path d="M178.712 99.7082C178.825 100.611 178.15 101.884 177.203 102.566C176.257 103.248 175.395 103.056 175.282 102.158C175.169 101.26 175.844 99.9817 176.791 99.2999C177.737 98.618 178.619 98.8058 178.712 99.7082Z" fill="#9EA2CB"/>
<path d="M178.255 100.035C178.34 100.692 177.851 101.627 177.151 102.121C176.451 102.615 175.828 102.481 175.747 101.823C175.666 101.166 176.152 100.231 176.851 99.7367C177.551 99.2426 178.17 99.3774 178.255 100.035Z" fill="#B4C5E1"/>
<path d="M169.021 105.331C169.106 105.988 168.616 106.923 167.916 107.417C167.217 107.911 166.594 107.777 166.513 107.119C166.432 106.462 166.917 105.527 167.617 105.033C168.317 104.539 168.94 104.669 169.021 105.331Z" fill="#B4C5E1"/>
<path d="M153.714 114.722C153.827 115.624 153.152 116.898 152.205 117.58C151.259 118.262 150.397 118.07 150.284 117.172C150.171 116.274 150.846 114.996 151.793 114.314C152.739 113.632 153.597 113.82 153.714 114.722Z" fill="#9EA2CB"/>
<path d="M153.251 115.049C153.336 115.706 152.847 116.641 152.147 117.135C151.447 117.629 150.824 117.494 150.743 116.837C150.662 116.18 151.148 115.244 151.848 114.75C152.547 114.256 153.166 114.375 153.251 115.049Z" fill="#B4C5E1"/>
<path d="M144.017 120.345C144.102 121.002 143.612 121.937 142.912 122.431C142.213 122.925 141.59 122.79 141.509 122.133C141.428 121.476 141.913 120.541 142.613 120.046C143.313 119.552 143.936 119.683 144.017 120.345Z" fill="#B4C5E1"/>
<path d="M180.182 97.2256C180.134 96.7505 179.963 96.2967 179.684 95.9108L179.806 95.7189L178.758 95.2248H178.738C177.811 94.9186 176.541 95.2248 175.202 96.1558C172.743 97.9034 170.987 101.219 171.282 103.554C171.332 104.088 171.544 104.593 171.889 105C171.889 105.009 171.889 105.019 171.889 105.028C172.338 105.47 172.897 105.781 173.507 105.927L173.669 105.661C174.612 105.558 175.509 105.195 176.262 104.612C178.721 102.868 180.477 99.553 180.182 97.2256Z" fill="#969BC2"/>
<path d="M180.978 97.6012C181.273 99.9367 179.518 103.252 177.058 105C174.599 106.747 172.366 106.274 172.075 103.938C171.783 101.603 173.535 98.2871 175.994 96.5396C178.454 94.792 180.683 95.2656 180.978 97.6012Z" fill="#9EA2CB"/>
<path d="M180.49 98.2463C180.724 100.104 179.329 102.738 177.371 104.134C175.413 105.531 173.637 105.147 173.403 103.289C173.168 101.431 174.564 98.7976 176.521 97.4011C178.479 96.0047 180.239 96.4089 180.49 98.2463Z" fill="#B4C5E1"/>
<path d="M170.933 102.513C170.886 102.038 170.714 101.584 170.436 101.198L170.557 101.007L169.518 100.492H169.497C168.571 100.186 167.301 100.492 165.962 101.423C163.502 103.171 161.747 106.486 162.042 108.822C162.092 109.355 162.304 109.86 162.649 110.267C162.648 110.277 162.648 110.286 162.649 110.296C163.098 110.737 163.657 111.048 164.267 111.194L164.429 110.929C165.372 110.825 166.269 110.462 167.022 109.879C169.485 108.16 171.241 104.849 170.933 102.513Z" fill="#969BC2"/>
<path d="M171.742 102.897C172.037 105.233 170.281 108.548 167.822 110.296C165.362 112.043 163.13 111.57 162.838 109.234C162.547 106.899 164.299 103.583 166.758 101.836C169.217 100.088 171.45 100.562 171.742 102.897Z" fill="#9EA2CB"/>
<path d="M171.253 103.542C171.488 105.4 170.092 108.034 168.135 109.43C166.177 110.827 164.401 110.443 164.166 108.585C163.932 106.727 165.327 104.093 167.285 102.697C169.243 101.301 171.023 101.684 171.253 103.542Z" fill="#B4C5E1"/>
<path d="M169.482 104.984C169.595 105.886 168.919 107.16 167.973 107.842C167.026 108.524 166.165 108.332 166.051 107.433C165.938 106.535 166.614 105.257 167.56 104.575C168.507 103.893 169.368 104.102 169.482 104.984Z" fill="#9EA2CB"/>
<path d="M179.118 97.7319L166.574 105.392V108.997L169.62 107.135L170.219 105.776L176.149 102.158L176.586 102.893L179.118 101.35V97.7319Z" fill="#BDCCE5"/>
<path d="M155.158 112.231C155.111 111.756 154.939 111.302 154.661 110.916L154.782 110.725L153.734 110.23H153.714C152.788 109.924 151.518 110.23 150.179 111.161C147.719 112.909 145.964 116.225 146.259 118.56C146.309 119.094 146.521 119.598 146.866 120.006C146.865 120.015 146.865 120.025 146.866 120.034C147.315 120.476 147.874 120.786 148.484 120.932L148.646 120.667C149.589 120.563 150.486 120.2 151.239 119.618C153.718 117.882 155.474 114.567 155.158 112.231Z" fill="#969BC2"/>
<path d="M155.966 112.615C156.262 114.951 154.506 118.266 152.046 120.014C149.587 121.761 147.354 121.288 147.063 118.952C146.772 116.616 148.523 113.301 150.983 111.553C153.442 109.806 155.679 110.292 155.966 112.615Z" fill="#9EA2CB"/>
<path d="M155.484 113.264C155.719 115.122 154.323 117.756 152.365 119.152C150.407 120.549 148.631 120.165 148.397 118.307C148.162 116.449 149.558 113.815 151.516 112.419C153.473 111.023 155.249 111.402 155.484 113.264Z" fill="#B4C5E1"/>
<path d="M145.943 117.527C145.897 117.052 145.727 116.599 145.45 116.212L145.571 116.02L144.523 115.526H144.503C143.577 115.22 142.307 115.526 140.968 116.457C138.508 118.205 136.753 121.52 137.048 123.856C137.098 124.389 137.31 124.894 137.655 125.301C137.654 125.311 137.654 125.32 137.655 125.33C138.104 125.772 138.663 126.082 139.273 126.228L139.435 125.963C140.378 125.859 141.275 125.496 142.028 124.913C144.483 123.178 146.259 119.863 145.943 117.527Z" fill="#969BC2"/>
<path d="M146.746 117.911C147.041 120.246 145.285 123.562 142.826 125.31C140.366 127.057 138.133 126.584 137.842 124.248C137.551 121.912 139.302 118.597 141.762 116.849C144.221 115.102 146.45 115.575 146.746 117.911Z" fill="#9EA2CB"/>
<path d="M146.259 118.56C146.494 120.418 145.098 123.052 143.14 124.448C141.183 125.845 139.407 125.461 139.172 123.603C138.938 121.745 140.333 119.111 142.291 117.715C144.249 116.319 146.021 116.698 146.259 118.56Z" fill="#B4C5E1"/>
<path d="M144.48 120.018C144.593 120.92 143.918 122.194 142.971 122.876C142.024 123.558 141.163 123.366 141.05 122.468C140.936 121.569 141.612 120.291 142.558 119.609C143.505 118.928 144.367 119.115 144.48 120.018Z" fill="#9EA2CB"/>
<path d="M154.114 112.746L141.57 120.406V124.011L144.616 122.149L145.215 120.79L151.145 117.172L151.582 117.911L154.114 116.363V112.746Z" fill="#BDCCE5"/>
<path d="M187.17 95.6454L134.328 126.645V121.206L187.17 90.2067V95.6454Z" fill="#A9B8DA"/>
<path d="M134.33 121.161L117.09 111.558V116.762L134.33 126.649V121.161Z" fill="#BDCCE5"/>
<path d="M113.098 84.2907L113.216 84.3566V84.2207L113.098 84.2907Z" fill="#2B2B2D"/>
<path d="M187.053 93.2953L134.199 123.935V104.062L187.053 73.4218V93.2953Z" fill="#CBD7EB"/>
<path d="M135.628 104.89L137.068 104.068V120.613L135.628 121.451V104.89Z" fill="#B4C5E1"/>
<path d="M138.864 103.011L140.305 102.189V118.738L138.864 119.572V103.011Z" fill="#B4C5E1"/>
<path d="M142.102 101.133L143.543 100.314V116.86L142.102 117.697V101.133Z" fill="#B4C5E1"/>
<path d="M145.341 99.2576L146.781 98.4354V114.981L145.341 115.818V99.2576Z" fill="#B4C5E1"/>
<path d="M148.577 97.3789L150.018 96.5597V113.105L148.577 113.94V97.3789Z" fill="#B4C5E1"/>
<path d="M151.815 95.5035L153.256 94.6813V111.227L151.815 112.064V95.5035Z" fill="#B4C5E1"/>
<path d="M155.053 93.6253L156.496 92.8062V109.352L155.053 110.186V93.6253Z" fill="#B4C5E1"/>
<path d="M158.294 91.747L159.734 90.9278V107.474L158.294 108.311V91.747Z" fill="#B4C5E1"/>
<path d="M161.532 89.8713L162.973 89.0492V105.598L161.532 106.432V89.8713Z" fill="#B4C5E1"/>
<path d="M164.768 87.9928L166.209 87.1736V103.719L164.768 104.554V87.9928Z" fill="#B4C5E1"/>
<path d="M168.006 86.1175L169.449 85.2953V101.841L168.006 102.678V86.1175Z" fill="#B4C5E1"/>
<path d="M171.247 84.2392L172.688 83.42V99.9658L171.247 100.8V84.2392Z" fill="#B4C5E1"/>
<path d="M174.482 82.3639L175.926 81.5417V98.0875L174.482 98.9247V82.3639Z" fill="#B4C5E1"/>
<path d="M177.72 80.4852L179.16 79.663V96.2118L177.72 97.046V80.4852Z" fill="#B4C5E1"/>
<path d="M180.959 78.6067L182.402 77.7875V94.3333L180.959 95.1705V78.6067Z" fill="#B4C5E1"/>
<path d="M184.198 76.7314L185.639 75.9092V92.455L184.198 93.2922V76.7314Z" fill="#B4C5E1"/>
<path d="M169.925 63.4926L117.071 94.1326L134.214 104.068L187.053 73.4218L169.925 63.4926Z" fill="#E2EBF7"/>
<path d="M119.913 94.1237L121.341 93.2955L135.627 101.577L134.198 102.406L119.913 94.1237Z" fill="#CBD7EB"/>
<path d="M123.152 92.2483L124.578 91.4201L138.863 99.699L137.435 100.527L123.152 92.2483Z" fill="#CBD7EB"/>
<path d="M126.387 90.3697L127.816 89.5415L142.102 97.8234L140.673 98.6516L126.387 90.3697Z" fill="#CBD7EB"/>
<path d="M129.626 88.4943L131.057 87.6661L145.34 95.948L143.911 96.7732L129.626 88.4943Z" fill="#CBD7EB"/>
<path d="M132.866 86.6189L134.294 85.7907L148.58 94.0696L147.152 94.8978L132.866 86.6189Z" fill="#CBD7EB"/>
<path d="M136.1 84.7403L137.529 83.9121L151.814 92.194L150.386 93.0222L136.1 84.7403Z" fill="#CBD7EB"/>
<path d="M139.34 82.8649L140.768 82.0367L155.051 90.3156L153.625 91.1438L139.34 82.8649Z" fill="#CBD7EB"/>
<path d="M142.577 80.9864L144.005 80.1582L158.291 88.4401L156.862 89.2683L142.577 80.9864Z" fill="#CBD7EB"/>
<path d="M145.817 79.1111L147.246 78.2829L161.531 86.5648L160.103 87.39L145.817 79.1111Z" fill="#CBD7EB"/>
<path d="M149.053 77.2328L150.482 76.4076L164.768 84.6865L163.339 85.5146L149.053 77.2328Z" fill="#CBD7EB"/>
<path d="M152.295 75.3573L153.723 74.5291L168.006 82.811L166.577 83.6392L152.295 75.3573Z" fill="#CBD7EB"/>
<path d="M155.53 73.4819L156.959 72.6537L171.244 80.9326L169.816 81.7608L155.53 73.4819Z" fill="#CBD7EB"/>
<path d="M158.769 71.6033L160.198 70.7751L174.48 79.057L173.052 79.8852L158.769 71.6033Z" fill="#CBD7EB"/>
<path d="M162.007 69.7282L163.435 68.9L177.721 77.1819L176.292 78.01L162.007 69.7282Z" fill="#CBD7EB"/>
<path d="M165.246 67.8495L166.674 67.0243L180.957 75.3032L179.528 76.1314L165.246 67.8495Z" fill="#CBD7EB"/>
<path d="M168.483 65.9742L169.912 65.146L184.197 73.4279L182.769 74.2561L168.483 65.9742Z" fill="#CBD7EB"/>
<path d="M117.055 113.997V94.1234L134.197 104.062V123.935L117.055 113.997Z" fill="white"/>
<path d="M132.598 104.848L130.948 103.921L130.778 120.77L132.427 121.712L132.598 104.848Z" fill="#E2EBF7"/>
<path d="M129.389 102.958L127.739 102.039L127.598 119.02L129.248 119.951L129.389 102.958Z" fill="#E2EBF7"/>
<path d="M126.184 101.064L124.534 100.155L124.42 117.268L126.07 118.189L126.184 101.064Z" fill="#E2EBF7"/>
<path d="M122.973 99.1736L121.323 98.2704L121.239 115.518L122.889 116.428L122.973 99.1736Z" fill="#E2EBF7"/>
<path d="M119.762 97.2831L118.112 96.3859L118.055 113.769L119.705 114.666L119.762 97.2831Z" fill="#E2EBF7"/>
<path d="M124.107 132.026C124.22 132.928 123.544 134.202 122.598 134.884C121.651 135.566 120.79 135.374 120.676 134.476C120.563 133.577 121.239 132.299 122.185 131.617C123.132 130.936 124.014 131.123 124.107 132.026Z" fill="#9EA2CB"/>
<path d="M123.65 132.352C123.735 133.01 123.245 133.945 122.545 134.439C121.845 134.933 121.223 134.798 121.142 134.141C121.061 133.483 121.546 132.548 122.246 132.054C122.946 131.56 123.565 131.695 123.65 132.352Z" fill="#B4C5E1"/>
<path d="M114.415 137.648C114.5 138.306 114.011 139.241 113.311 139.735C112.611 140.229 111.988 140.094 111.907 139.437C111.826 138.779 112.312 137.844 113.012 137.35C113.711 136.856 114.334 136.987 114.415 137.648Z" fill="#B4C5E1"/>
<path d="M99.1087 147.04C99.2219 147.942 98.5464 149.216 97.5999 149.898C96.6533 150.58 95.7917 150.388 95.6784 149.489C95.5651 148.591 96.2407 147.313 97.1872 146.631C98.1338 145.949 98.9914 146.137 99.1087 147.04Z" fill="#9EA2CB"/>
<path d="M98.6457 147.366C98.7306 148.023 98.2412 148.959 97.5414 149.453C96.8416 149.947 96.2186 149.812 96.1377 149.155C96.0568 148.497 96.5422 147.562 97.242 147.068C97.9418 146.574 98.5607 146.692 98.6457 147.366Z" fill="#B4C5E1"/>
<path d="M89.4113 152.662C89.4963 153.319 89.0068 154.255 88.307 154.749C87.6072 155.243 86.9842 155.108 86.9033 154.451C86.8224 153.793 87.3078 152.858 88.0077 152.364C88.7075 151.87 89.3304 152.001 89.4113 152.662Z" fill="#B4C5E1"/>
<path d="M125.576 129.543C125.529 129.068 125.357 128.614 125.079 128.228L125.2 128.036L124.152 127.542H124.132C123.206 127.236 121.936 127.542 120.597 128.473C118.137 130.221 116.382 133.536 116.677 135.872C116.727 136.405 116.939 136.91 117.284 137.317C117.283 137.327 117.283 137.337 117.284 137.346C117.733 137.788 118.292 138.098 118.902 138.244L119.064 137.979C120.007 137.875 120.904 137.512 121.657 136.93C124.116 135.186 125.872 131.871 125.576 129.543Z" fill="#969BC2"/>
<path d="M126.372 129.919C126.668 132.254 124.912 135.57 122.453 137.317C119.993 139.065 117.76 138.591 117.469 136.256C117.178 133.92 118.929 130.605 121.389 128.857C123.848 127.11 126.077 127.583 126.372 129.919Z" fill="#9EA2CB"/>
<path d="M125.884 130.564C126.119 132.422 124.723 135.055 122.765 136.452C120.808 137.848 119.032 137.464 118.797 135.607C118.563 133.749 119.958 131.115 121.916 129.719C123.874 128.322 125.633 128.726 125.884 130.564Z" fill="#B4C5E1"/>
<path d="M116.328 134.831C116.281 134.356 116.109 133.902 115.83 133.516L115.952 133.324L114.912 132.81H114.892C113.966 132.503 112.695 132.81 111.356 133.741C108.897 135.488 107.141 138.804 107.437 141.139C107.486 141.673 107.698 142.178 108.043 142.585C108.043 142.594 108.043 142.604 108.043 142.613C108.492 143.055 109.052 143.365 109.662 143.512L109.823 143.246C110.766 143.142 111.663 142.779 112.416 142.197C114.88 140.478 116.635 137.166 116.328 134.831Z" fill="#969BC2"/>
<path d="M117.136 135.215C117.431 137.55 115.676 140.866 113.216 142.613C110.757 144.361 108.524 143.887 108.233 141.552C107.942 139.216 109.693 135.901 112.153 134.153C114.612 132.405 116.845 132.879 117.136 135.215Z" fill="#9EA2CB"/>
<path d="M116.648 135.86C116.883 137.718 115.487 140.351 113.529 141.748C111.571 143.144 109.796 142.76 109.561 140.903C109.326 139.045 110.722 136.411 112.68 135.015C114.638 133.618 116.417 134.002 116.648 135.86Z" fill="#B4C5E1"/>
<path d="M114.876 137.301C114.99 138.204 114.314 139.477 113.367 140.159C112.421 140.841 111.559 140.649 111.446 139.751C111.333 138.853 112.008 137.575 112.955 136.893C113.901 136.211 114.763 136.419 114.876 137.301Z" fill="#9EA2CB"/>
<path d="M124.513 130.049L111.969 137.709V141.315L115.015 139.453L115.613 138.093L121.544 134.476L121.98 135.211L124.513 133.667V130.049Z" fill="#BDCCE5"/>
<path d="M100.553 144.549C100.505 144.074 100.334 143.62 100.055 143.234L100.177 143.042L99.1289 142.548H99.1087C98.1823 142.242 96.9122 142.548 95.5732 143.479C93.1138 145.227 91.3582 148.542 91.6535 150.878C91.7032 151.411 91.9151 151.916 92.2603 152.323C92.2596 152.333 92.2596 152.342 92.2603 152.352C92.7092 152.793 93.2684 153.104 93.8783 153.25L94.0401 152.985C94.9833 152.881 95.8801 152.518 96.6331 151.935C99.1127 150.2 100.868 146.884 100.553 144.549Z" fill="#969BC2"/>
<path d="M101.361 144.933C101.656 147.268 99.9005 150.584 97.441 152.331C94.9816 154.079 92.7487 153.605 92.4574 151.27C92.1662 148.934 93.9177 145.619 96.3772 143.871C98.8366 142.123 101.074 142.609 101.361 144.933Z" fill="#9EA2CB"/>
<path d="M100.878 145.582C101.113 147.44 99.7175 150.073 97.7596 151.47C95.8018 152.866 94.026 152.482 93.7914 150.624C93.5567 148.767 94.9523 146.133 96.9102 144.737C98.868 143.34 100.644 143.72 100.878 145.582Z" fill="#B4C5E1"/>
<path d="M91.3378 149.845C91.2917 149.37 91.1213 148.916 90.8443 148.53L90.9657 148.338L89.918 147.844H89.8977C88.9714 147.538 87.7012 147.844 86.3623 148.775C83.9029 150.522 82.1473 153.838 82.4426 156.174C82.4923 156.707 82.7042 157.212 83.0493 157.619C83.0487 157.628 83.0487 157.638 83.0493 157.648C83.4983 158.089 84.0575 158.4 84.6674 158.546L84.8292 158.28C85.7723 158.177 86.6692 157.814 87.4221 157.231C89.8775 155.496 91.6533 152.18 91.3378 149.845Z" fill="#969BC2"/>
<path d="M92.1401 150.228C92.4354 152.564 90.6798 155.88 88.2203 157.627C85.7609 159.375 83.528 158.901 83.2367 156.566C82.9455 154.23 84.697 150.914 87.1565 149.167C89.6159 147.419 91.8448 147.893 92.1401 150.228Z" fill="#9EA2CB"/>
<path d="M91.6538 150.878C91.8884 152.736 90.4929 155.369 88.535 156.766C86.5772 158.162 84.8014 157.778 84.5668 155.92C84.3321 154.063 85.7277 151.429 87.6856 150.033C89.6434 148.636 91.4152 149.016 91.6538 150.878Z" fill="#B4C5E1"/>
<path d="M89.8743 152.335C89.9876 153.238 89.312 154.512 88.3655 155.194C87.4189 155.875 86.5573 155.684 86.444 154.785C86.3308 153.887 87.0063 152.609 87.9529 151.927C88.8994 151.245 89.7611 151.433 89.8743 152.335Z" fill="#9EA2CB"/>
<path d="M99.5088 145.063L86.9648 152.723V156.329L90.0108 154.467L90.6095 153.107L96.5397 149.49L96.9765 150.229L99.5088 148.681V145.063Z" fill="#BDCCE5"/>
<path d="M132.564 127.963L79.7227 158.962V153.524L132.564 122.524V127.963Z" fill="#A9B8DA"/>
<path d="M79.7241 153.479L62.4844 143.875V149.08L79.7241 158.966V153.479Z" fill="#BDCCE5"/>
<path d="M58.4922 116.608L58.6105 116.674V116.538L58.4922 116.608Z" fill="#2B2B2D"/>
<path d="M132.447 125.613L79.5934 156.253V136.379L132.447 105.739V125.613Z" fill="#CBD7EB"/>
<path d="M81.0224 137.207L82.4629 136.385V152.931L81.0224 153.768V137.207Z" fill="#B4C5E1"/>
<path d="M84.2587 135.329L85.6992 134.507V151.056L84.2587 151.89V135.329Z" fill="#B4C5E1"/>
<path d="M87.497 133.451L88.9375 132.631V149.177L87.497 150.014V133.451Z" fill="#B4C5E1"/>
<path d="M90.7353 131.575L92.1758 130.753V147.299L90.7353 148.136V131.575Z" fill="#B4C5E1"/>
<path d="M93.9716 129.696L95.4121 128.877V145.423L93.9716 146.257V129.696Z" fill="#B4C5E1"/>
<path d="M97.2099 127.821L98.6504 126.999V143.545L97.2099 144.382V127.821Z" fill="#B4C5E1"/>
<path d="M100.447 125.943L101.891 125.124V141.67L100.447 142.504V125.943Z" fill="#B4C5E1"/>
<path d="M103.688 124.065L105.129 123.245V139.791L103.688 140.628V124.065Z" fill="#B4C5E1"/>
<path d="M106.927 122.189L108.367 121.367V137.916L106.927 138.75V122.189Z" fill="#B4C5E1"/>
<path d="M110.163 120.31L111.604 119.491V136.037L110.163 136.871V120.31Z" fill="#B4C5E1"/>
<path d="M113.4 118.435L114.844 117.613V134.159L113.4 134.996V118.435Z" fill="#B4C5E1"/>
<path d="M116.642 116.557L118.082 115.738V132.283L116.642 133.118V116.557Z" fill="#B4C5E1"/>
<path d="M119.877 114.681L121.32 113.859V130.405L119.877 131.242V114.681Z" fill="#B4C5E1"/>
<path d="M123.114 112.803L124.555 111.981V128.529L123.114 129.364V112.803Z" fill="#B4C5E1"/>
<path d="M126.353 110.924L127.797 110.105V126.651L126.353 127.488V110.924Z" fill="#B4C5E1"/>
<path d="M129.593 109.049L131.033 108.227V124.773L129.593 125.61V109.049Z" fill="#B4C5E1"/>
<path d="M115.319 95.8101L62.4656 126.45L79.6084 136.385L132.447 105.739L115.319 95.8101Z" fill="#E2EBF7"/>
<path d="M65.3073 126.441L66.7359 125.613L81.0215 133.895L79.5929 134.723L65.3073 126.441Z" fill="#CBD7EB"/>
<path d="M68.5466 124.566L69.9722 123.738L84.2578 132.017L82.8293 132.845L68.5466 124.566Z" fill="#CBD7EB"/>
<path d="M71.7819 122.687L73.2105 121.859L87.4961 130.141L86.0675 130.969L71.7819 122.687Z" fill="#CBD7EB"/>
<path d="M75.0202 120.812L76.4517 119.984L90.7344 128.266L89.3058 129.091L75.0202 120.812Z" fill="#CBD7EB"/>
<path d="M78.2604 118.936L79.689 118.108L93.9746 126.387L92.546 127.215L78.2604 118.936Z" fill="#CBD7EB"/>
<path d="M81.4948 117.058L82.9234 116.23L97.209 124.512L95.7804 125.34L81.4948 117.058Z" fill="#CBD7EB"/>
<path d="M84.7341 115.182L86.1627 114.354L100.445 122.633L99.0197 123.461L84.7341 115.182Z" fill="#CBD7EB"/>
<path d="M87.9714 113.304L89.3999 112.476L103.686 120.758L102.257 121.586L87.9714 113.304Z" fill="#CBD7EB"/>
<path d="M91.2116 111.429L92.6402 110.6L106.926 118.882L105.497 119.708L91.2116 111.429Z" fill="#CBD7EB"/>
<path d="M94.4479 109.55L95.8765 108.725L110.162 117.004L108.734 117.832L94.4479 109.55Z" fill="#CBD7EB"/>
<path d="M97.6892 107.675L99.1178 106.847L113.4 115.129L111.972 115.957L97.6892 107.675Z" fill="#CBD7EB"/>
<path d="M100.924 105.799L102.353 104.971L116.639 113.25L115.21 114.078L100.924 105.799Z" fill="#CBD7EB"/>
<path d="M104.164 103.921L105.592 103.093L119.875 111.375L118.446 112.203L104.164 103.921Z" fill="#CBD7EB"/>
<path d="M107.401 102.046L108.83 101.218L123.115 109.499L121.687 110.328L107.401 102.046Z" fill="#CBD7EB"/>
<path d="M110.64 100.167L112.069 99.3419L126.352 107.621L124.923 108.449L110.64 100.167Z" fill="#CBD7EB"/>
<path d="M113.878 98.2918L115.306 97.4636L129.592 105.745L128.163 106.574L113.878 98.2918Z" fill="#CBD7EB"/>
<path d="M62.449 146.315V126.441L79.5918 136.379V156.253L62.449 146.315Z" fill="white"/>
<path d="M77.9922 137.166L76.3425 136.238L76.1721 153.087L77.8218 154.03L77.9922 137.166Z" fill="#E2EBF7"/>
<path d="M74.7832 135.275L73.1335 134.357L72.993 151.338L74.6427 152.268L74.7832 135.275Z" fill="#E2EBF7"/>
<path d="M71.5781 133.382L69.9284 132.472L69.8148 149.585L71.4646 150.507L71.5781 133.382Z" fill="#E2EBF7"/>
<path d="M68.3672 131.491L66.7175 130.588L66.6338 147.836L68.2835 148.745L68.3672 131.491Z" fill="#E2EBF7"/>
<path d="M65.1562 129.601L63.5065 128.703L63.4497 146.086L65.0995 146.984L65.1562 129.601Z" fill="#E2EBF7"/>
<path d="M49.73 175.032C49.6845 174.578 49.5196 174.144 49.2522 173.775L49.3687 173.592L48.3626 173.119H48.3431C47.4535 172.827 46.2337 173.119 44.9478 174.009C42.5859 175.68 40.8999 178.849 41.1835 181.082C41.2312 181.592 41.4347 182.074 41.7662 182.464C41.7655 182.473 41.7655 182.482 41.7662 182.491C42.1974 182.913 42.7344 183.21 43.3201 183.35L43.4755 183.096C44.3812 182.997 45.2425 182.65 45.9656 182.093C48.3276 180.446 49.9942 177.28 49.73 175.032Z" fill="#969BC2"/>
<path d="M50.4988 175.422C50.7824 177.655 49.0964 180.824 46.7344 182.495C44.3725 184.165 42.2281 183.712 41.9484 181.48C41.6687 179.247 43.3508 176.078 45.7127 174.407C48.0747 172.737 50.2152 173.178 50.4988 175.422Z" fill="#9EA2CB"/>
<path d="M50.0262 176.031C50.2515 177.807 48.9112 180.325 47.031 181.66C45.1508 182.994 43.4453 182.628 43.22 180.852C42.9947 179.076 44.335 176.558 46.2152 175.223C48.0954 173.888 49.8009 174.251 50.0262 176.031Z" fill="#B4C5E1"/>
<path d="M48.3218 177.424C48.4306 178.287 47.7818 179.505 46.8728 180.157C45.9638 180.808 45.1363 180.625 45.0275 179.766C44.9188 178.908 45.5675 177.686 46.4766 177.034C47.3856 176.382 48.2131 176.562 48.3218 177.424Z" fill="#9EA2CB"/>
<path d="M47.878 177.737C47.9595 178.365 47.4895 179.259 46.8174 179.731C46.1453 180.203 45.5471 180.075 45.4694 179.446C45.3917 178.818 45.8579 177.924 46.5299 177.452C47.202 176.979 47.8003 177.108 47.878 177.737Z" fill="#B4C5E1"/>
<path d="M40.8629 180.106C40.8174 179.652 40.6525 179.218 40.3851 178.849L40.5016 178.666L39.5071 178.194H39.4877C38.598 177.901 37.3782 178.194 36.0924 179.083C33.7304 180.754 32.0444 183.923 32.328 186.156C32.3757 186.666 32.5793 187.149 32.9107 187.538C32.9101 187.547 32.9101 187.556 32.9107 187.565C33.3419 187.987 33.8789 188.284 34.4646 188.424L34.62 188.17C35.5258 188.071 36.3871 187.724 37.1102 187.167C39.4605 185.508 41.1465 182.343 40.8629 180.106Z" fill="#969BC2"/>
<path d="M41.6257 180.473C41.9093 182.705 40.2233 185.875 37.8614 187.545C35.4994 189.216 33.355 188.763 33.0753 186.531C32.7956 184.298 34.4777 181.129 36.8397 179.458C39.2016 177.787 41.346 178.24 41.6257 180.473Z" fill="#9EA2CB"/>
<path d="M41.157 181.094C41.3824 182.87 40.0421 185.387 38.1619 186.722C36.2816 188.057 34.5762 187.69 34.3509 185.914C34.1256 184.138 35.4658 181.62 37.3461 180.286C39.2263 178.951 40.9317 179.325 41.157 181.094Z" fill="#B4C5E1"/>
<path d="M39.4586 182.487C39.5673 183.35 38.9186 184.567 38.0095 185.219C37.1005 185.871 36.273 185.688 36.1642 184.829C36.0555 183.97 36.7042 182.748 37.6133 182.097C38.5223 181.445 39.3498 181.624 39.4586 182.487Z" fill="#9EA2CB"/>
<path d="M48.7108 175.535L36.6641 182.858V186.304L39.5893 184.528L40.1643 183.229L45.8555 179.766L46.2789 180.473L48.7108 178.994V175.535Z" fill="#BDCCE5"/>
<path d="M75.3003 160.404C75.2548 159.95 75.0899 159.516 74.8225 159.147L74.939 158.963L73.9329 158.491H73.9134C73.0238 158.198 71.804 158.491 70.5181 159.381C68.1562 161.052 66.4702 164.221 66.7538 166.454C66.8015 166.964 67.005 167.446 67.3365 167.835C67.3359 167.844 67.3359 167.854 67.3365 167.863C67.7677 168.285 68.3047 168.582 68.8904 168.721L69.0458 168.468C69.9516 168.368 70.8129 168.021 71.536 167.465C73.8979 165.817 75.5645 162.652 75.3003 160.404Z" fill="#969BC2"/>
<path d="M76.0691 160.794C76.3527 163.026 74.6667 166.196 72.3047 167.866C69.9428 169.537 67.7984 169.084 67.5187 166.852C67.239 164.619 68.9211 161.45 71.283 159.779C73.645 158.108 75.7855 158.55 76.0691 160.794Z" fill="#9EA2CB"/>
<path d="M75.5965 161.403C75.8218 163.179 74.4816 165.696 72.6013 167.031C70.7211 168.366 69.0157 167.999 68.7903 166.223C68.565 164.447 69.9053 161.93 71.7855 160.595C73.6658 159.26 75.3712 159.623 75.5965 161.403Z" fill="#B4C5E1"/>
<path d="M73.8921 162.796C74.0009 163.659 73.3522 164.877 72.4431 165.528C71.5341 166.18 70.7066 165.997 70.5978 165.138C70.4891 164.279 71.1378 163.058 72.0469 162.406C72.9559 161.754 73.7834 161.934 73.8921 162.796Z" fill="#9EA2CB"/>
<path d="M73.4483 163.108C73.5299 163.737 73.0598 164.631 72.3877 165.103C71.7157 165.575 71.1174 165.446 71.0397 164.818C70.962 164.19 71.4282 163.296 72.1003 162.823C72.7723 162.351 73.3706 162.48 73.4483 163.108Z" fill="#B4C5E1"/>
<path d="M66.4332 165.478C66.3877 165.024 66.2228 164.59 65.9554 164.221L66.0719 164.038L65.0774 163.565H65.058C64.1684 163.273 62.9485 163.565 61.6627 164.455C59.3007 166.126 57.6147 169.295 57.8983 171.528C57.946 172.038 58.1496 172.52 58.481 172.91C58.4804 172.919 58.4804 172.928 58.481 172.937C58.9122 173.359 59.4492 173.656 60.0349 173.796L60.1903 173.542C61.0961 173.443 61.9574 173.096 62.6805 172.539C65.0308 170.88 66.7168 167.714 66.4332 165.478Z" fill="#969BC2"/>
<path d="M67.196 165.845C67.4796 168.077 65.7936 171.247 63.4317 172.917C61.0697 174.588 58.9253 174.135 58.6456 171.902C58.3659 169.67 60.048 166.5 62.41 164.83C64.7719 163.159 66.9163 163.612 67.196 165.845Z" fill="#9EA2CB"/>
<path d="M66.7274 166.465C66.9527 168.241 65.6124 170.759 63.7322 172.094C61.8519 173.429 60.1465 173.062 59.9212 171.286C59.6959 169.51 61.0361 166.992 62.9164 165.657C64.7966 164.322 66.502 164.697 66.7274 166.465Z" fill="#B4C5E1"/>
<path d="M65.0289 167.859C65.1376 168.721 64.4889 169.939 63.5798 170.591C62.6708 171.243 61.8433 171.059 61.7346 170.201C61.6258 169.342 62.2745 168.12 63.1836 167.468C64.0926 166.817 64.9201 166.996 65.0289 167.859Z" fill="#9EA2CB"/>
<path d="M74.2811 160.907L62.2344 168.23V171.676L65.1596 169.9L65.7346 168.6L71.4258 165.138L71.8492 165.845L74.2811 164.365V160.907Z" fill="#BDCCE5"/>
<path d="M20.2754 191.013L20.3931 197.086L22.2195 195.867V192.595L78.5322 159.601V157.468L20.2754 191.013Z" fill="#A9B8DA"/>
<path d="M20.3672 189.641L1.2207 178.62V163.475L20.3235 174.561L20.3672 189.641Z" fill="#E2EBF7"/>
<path d="M20.3235 174.561L1.2207 163.475L6.33518 152.586L25.438 163.672L20.3235 174.561Z" fill="#E2EBF7"/>
<path d="M11.75 168.101L15.6405 159.808L24.0116 164.653L20.1211 172.946L11.75 168.101Z" fill="white"/>
<path d="M2.35547 162.689L6.24597 154.396L14.639 159.241L10.7485 167.534L2.35547 162.689Z" fill="white"/>
<path d="M77.0137 156.858V133.813L25.437 163.671L20.3225 174.583V189.662L24.9633 186.986L24.9624 187.029L77.0137 156.858Z" fill="#B4C5E1"/>
<path d="M6.3125 152.607L58.07 122.832L67.5776 123.639L15.8202 153.414L6.3125 152.607Z" fill="#DFEAFC"/>
<path d="M15.8223 153.415L67.399 123.723L77.0159 134.001L25.4392 163.693L15.8223 153.415Z" fill="#CBD7EA"/>
<path d="M15.8202 153.414L25.4371 163.693L15.8202 155.247L6.3125 152.607L15.8202 153.414Z" fill="#B4C5E1"/>
<path d="M25.4356 163.693L6.28906 152.651L6.48577 152.673L6.68248 152.716L15.8186 155.248L25.4356 163.693Z" fill="#E2EBF7"/>
<g style="mix-blend-mode:multiply" opacity="0.5">
<path d="M25.4361 163.693L15.2727 156.535L6.48633 152.672L6.68304 152.716L15.8192 155.248L25.4361 163.693Z" fill="#E2EBF7"/>
</g>
<path d="M15.5543 154.268C15.9173 154.5 16.1937 154.845 16.3411 155.25C16.5815 155.905 16.3411 156.45 16.0133 156.472C15.8504 156.477 15.69 156.431 15.5543 156.341C15.1913 156.109 14.9148 155.764 14.7674 155.359C14.527 154.704 14.7674 154.159 15.0953 154.115C15.2605 154.117 15.4211 154.17 15.5543 154.268Z" fill="white"/>
<path d="M23.0766 173.491L28.1474 170.567C28.2932 170.483 28.4144 170.362 28.4988 170.217C28.5832 170.071 28.6278 169.906 28.6282 169.738V164.173C28.6215 164.113 28.5968 164.056 28.5573 164.009C28.5178 163.963 28.4653 163.929 28.4066 163.913C28.3479 163.896 28.2856 163.898 28.2277 163.917C28.1699 163.936 28.119 163.972 28.0818 164.02L22.6176 173.142C22.5712 173.203 22.5509 173.28 22.5612 173.355C22.5714 173.431 22.6114 173.5 22.6723 173.546C22.7331 173.592 22.8099 173.613 22.8858 173.602C22.9616 173.592 23.0302 173.552 23.0766 173.491Z" fill="white"/>
<path d="M67.146 160.083L66.6652 159.799L66.5996 143.323L67.0805 143.607L67.146 160.083Z" fill="#A9B8DA"/>
<path d="M67.0805 143.607L66.5996 143.323L70.0967 141.315L70.5775 141.599L67.0805 143.607Z" fill="#CBD7EA"/>
<path d="M70.5752 141.599L70.6189 158.075L67.1437 160.083L67.0781 143.607L70.5752 141.599Z" fill="#B4C5E1"/>
<path d="M57.4097 165.569L56.9289 165.285L56.8633 148.809L57.3441 149.092L57.4097 165.569Z" fill="#A9B8DA"/>
<path d="M57.3441 149.092L56.8633 148.809L60.3604 146.801L60.8412 147.085L57.3441 149.092Z" fill="#CBD7EA"/>
<path d="M60.8389 147.085L60.8826 163.561L57.4074 165.569L57.3418 149.092L60.8389 147.085Z" fill="#B4C5E1"/>
<path d="M47.6597 171.055L47.1789 170.771L47.1133 154.295L47.5941 154.578L47.6597 171.055Z" fill="#A9B8DA"/>
<path d="M47.5941 154.578L47.1133 154.295L50.6104 152.287L51.0912 152.571L47.5941 154.578Z" fill="#CBD7EA"/>
<path d="M51.0928 152.57L51.1365 169.047L47.6613 171.054L47.5957 154.578L51.0928 152.57Z" fill="#B4C5E1"/>
<path d="M11.3848 180.144V179.453L10.7826 179.806V180.512L11.3848 180.144Z" fill="#A9B8DA"/>
<path d="M5.50777 177.394V176.747L10.7656 179.806V180.482L5.50777 177.394Z" fill="white"/>
<path d="M11.3984 179.453L6.08184 176.409L5.47968 176.747L10.7816 179.835L11.3984 179.453Z" fill="#CBD7EA"/>
<path d="M11.3848 177.964V177.273L10.7826 177.625V178.331L11.3848 177.964Z" fill="#A9B8DA"/>
<path d="M5.50777 175.214V174.567L10.7656 177.625V178.302L5.50777 175.214Z" fill="white"/>
<path d="M11.3984 177.273L6.08184 174.229L5.47968 174.567L10.7816 177.655L11.3984 177.273Z" fill="#CBD7EA"/>
<path d="M18.8723 191.799L20.0898 192.541V190.819L18.8723 190.076V191.799Z" fill="#E2EBF7"/>
<path d="M20.3963 197.086L0.00195312 185.2V179.105L20.3963 190.991V197.086Z" fill="#E2EBF7"/>
<path d="M0.000923157 179.168L1.21126 178.436L20.3961 189.467L77.0134 156.858L78.4785 157.589L20.3961 191.025L0.000923157 179.168Z" fill="#CBD7EA"/>
<defs>
<filter id="filter0_f_851_128864" x="1.13477" y="25.4861" width="341.834" height="198.434" filterUnits="userSpaceOnUse" color-interpolation-filters="sRGB">
<feFlood flood-opacity="0" result="BackgroundImageFix"/>
<feBlend mode="normal" in="SourceGraphic" in2="BackgroundImageFix" result="shape"/>
<feGaussianBlur stdDeviation="1" result="effect1_foregroundBlur_851_128864"/>
</filter>
<linearGradient id="paint0_linear_851_128864" x1="105.398" y1="180.91" x2="87.8524" y2="149.796" gradientUnits="userSpaceOnUse">
<stop stop-color="#0E3390" stop-opacity="0"/>
<stop offset="1" stop-color="#0E3390" stop-opacity="0.79"/>
</linearGradient>
</defs>
</svg>
