<svg width="295" height="246" viewBox="0 0 295 246" fill="none" xmlns="http://www.w3.org/2000/svg">
<g style="mix-blend-mode:multiply" opacity="0.3" filter="url(#filter0_f_1737_33673)">
<path d="M115.299 76.5186L289.806 174.65L184.894 241.463L4.1543 144.375L115.299 76.5186Z" fill="url(#paint0_linear_1737_33673)"/>
</g>
<path d="M159.86 76.3129L115.014 50.6658L129.307 42.5449L174.154 68.192L159.86 76.3129Z" fill="#CBD7EA"/>
<path d="M107.038 118.482L62.1914 92.8393L115.013 50.6655L159.86 76.3126L107.038 118.482Z" fill="#CBD7EA"/>
<path d="M107.108 142.263L62.2608 116.616L62.1914 92.8396L107.038 118.483L107.108 142.263Z" fill="white"/>
<path d="M174.154 68.1919L174.583 103.927L107.108 142.263L107.039 118.483L159.861 76.3127L174.154 68.1919Z" fill="#B4C5E1"/>
<path d="M125.845 124.516L135.455 130.011C133.754 129.04 131.401 129.177 128.798 130.65L119.188 125.158C121.786 123.685 124.144 123.549 125.845 124.516Z" fill="#E2EBF7"/>
<path d="M122.193 152.463L112.586 146.968C110.906 146.008 109.866 143.965 109.857 141.059C109.857 135.214 114.018 128.097 119.191 125.162L128.801 130.654C123.629 133.592 119.452 140.714 119.468 146.554C119.472 149.457 120.516 151.488 122.193 152.463Z" fill="#E2EBF7"/>
<path d="M128.798 130.654C133.962 127.723 138.18 130.076 138.18 135.921C138.18 141.765 134.019 148.887 128.855 151.821C123.691 154.755 119.473 152.399 119.473 146.554C119.473 140.71 123.625 133.592 128.798 130.654Z" fill="#B4C5E1"/>
<path d="M166.97 101.153L176.58 106.649C174.879 105.673 172.526 105.81 169.923 107.291L160.312 101.791C162.915 100.314 165.273 100.178 166.97 101.153Z" fill="#E2EBF7"/>
<path d="M163.328 129.096L153.717 123.601C152.037 122.637 150.992 120.594 150.988 117.692C150.988 111.847 155.149 104.73 160.321 101.791L169.928 107.291C164.756 110.229 160.583 117.326 160.595 123.187C160.603 126.09 161.647 128.133 163.328 129.096Z" fill="#E2EBF7"/>
<path d="M169.925 107.291C175.093 104.352 179.307 106.709 179.307 112.553C179.307 118.398 175.15 125.516 169.986 128.458C164.821 131.4 160.604 129.036 160.604 123.191C160.604 117.347 164.756 110.225 169.925 107.291Z" fill="#B4C5E1"/>
<path d="M81.2532 82.3501L71.6426 76.8505L107.674 48.0884L117.281 53.5799L81.2532 82.3501Z" fill="#CBD7EA"/>
<path d="M71.802 98.3591L62.1914 92.8636L73.5765 24.8179L83.1952 30.3134L71.802 98.3591Z" fill="white"/>
<path d="M83.1943 30.3134L124.48 6.8501L124.623 56.1894L71.793 98.3591L83.1943 30.3134ZM117.28 53.5961L117.182 19.2983L89.1337 35.2349L81.2526 82.3623L117.28 53.5921V53.5961Z" fill="#B4C5E1"/>
<path d="M114.883 52.3438L124.493 46.8442L160.215 66.8393L150.608 72.3308L114.883 52.3438Z" fill="#CBD7EA"/>
<path d="M150.608 72.3307L150.583 80.6081L114.857 60.6171L114.882 52.3438L150.608 72.3307Z" fill="white"/>
<path d="M150.593 32.3363L160.203 26.8408L160.179 35.1182L150.572 40.6178L150.593 32.3363Z" fill="#484848"/>
<path d="M69.8164 89.1425L79.4229 83.647L115.149 103.634L105.538 109.138L69.8164 89.1425Z" fill="#CBD7EA"/>
<path d="M105.537 109.138L105.517 117.411L69.7871 97.42L69.8157 89.1426L105.537 109.138Z" fill="white"/>
<path d="M118.938 50.3045L116.89 57.5502L81.1641 37.5592L83.1955 30.3135L118.938 50.3045Z" fill="white"/>
<path d="M116.98 102.47L107.369 96.9741L143.401 68.2119L153.007 73.7034L116.98 102.47Z" fill="#E2EBF7"/>
<path d="M153.007 73.7035L143.401 68.212L143.303 33.9102L152.909 39.4057L153.007 73.7035Z" fill="white"/>
<path d="M107.523 118.483L97.916 112.987L109.297 44.9414L118.908 50.4369L107.523 118.483Z" fill="white"/>
<path d="M160.202 26.841L114.87 1.35449L73.5762 24.8178L83.1949 30.3134L109.322 44.9253L109.298 44.9413L118.908 50.4368L160.202 26.9735L160.088 26.9093L160.202 26.841Z" fill="#E2EBF7"/>
<path d="M118.909 50.437L160.202 26.9736L160.341 76.3129L107.523 118.483L118.909 50.437ZM153.007 73.7197L152.909 39.4218L124.86 55.3585L116.979 102.486L153.007 73.7197Z" fill="#B4C5E1"/>
<path d="M60.9277 17.4638L66.712 14.1802L72.5004 17.4638L66.712 20.7515L60.9277 17.4638Z" fill="#CBD7EA"/>
<path d="M60.9277 122.686V17.4639L66.712 20.7515V125.973L60.9277 122.686Z" fill="white"/>
<path d="M72.4993 122.686L66.7109 125.973V20.7515L72.4993 17.4639V122.686Z" fill="#B4C5E1"/>
<path d="M26.2129 148.983V142.086L66.7112 119.398V125.973L26.2129 148.983Z" fill="#B4C5E1"/>
<path d="M20.4238 138.991L26.2122 142.086L66.7106 119.398L60.7713 116.074L20.4238 138.991Z" fill="#CBD7EA"/>
<path d="M20.4238 145.695V138.991L26.2122 142.086V148.983L20.4238 145.695Z" fill="white"/>
<path d="M66.7109 125.973V119.398L95.3143 135.788V142.086L66.7109 125.973Z" fill="white"/>
<path d="M95.3143 135.788L66.7109 119.398L72.4993 116.018L101.254 131.838L95.3143 135.788Z" fill="#CBD7EA"/>
<path d="M66.8672 66.863V60.2876L95.4665 76.6778V82.9762L66.8672 66.863Z" fill="white"/>
<path d="M95.4665 76.6779L66.8672 60.2877L72.6515 56.9077L101.406 72.7279L95.4665 76.6779Z" fill="#CBD7EA"/>
<path d="M95.4648 37.1817L101.253 33.894L107.038 37.1817L101.253 40.4654L95.4648 37.1817Z" fill="#CBD7EA"/>
<path d="M95.4648 142.399V37.1816L101.253 40.4653V145.687L95.4648 142.399Z" fill="white"/>
<path d="M107.038 142.399L101.254 145.687V40.4653L107.038 37.1816V142.399Z" fill="#B4C5E1"/>
<path d="M60.752 168.697V161.8L101.254 139.112V145.687L60.752 168.697Z" fill="#B4C5E1"/>
<path d="M54.9668 158.705L60.7511 161.8L101.254 139.112L95.3142 135.788L54.9668 158.705Z" fill="#CBD7EA"/>
<path d="M54.9668 165.409V158.705L60.7511 161.8V168.697L54.9668 165.409Z" fill="white"/>
<path d="M75.2168 181.775V174.879L115.719 152.19V158.766L75.2168 181.775Z" fill="#B4C5E1"/>
<path d="M69.4316 171.784L75.216 174.879L115.718 152.19L109.779 148.866L69.4316 171.784Z" fill="#CBD7EA"/>
<path d="M69.4316 178.488V171.784L75.2159 174.879V181.775L69.4316 178.488Z" fill="white"/>
<path d="M5.78516 141.982V135.09L46.2876 112.397V118.972L5.78516 141.982Z" fill="#B4C5E1"/>
<path d="M0 131.99L5.78431 135.089L46.2867 112.397L40.3474 109.073L0 131.99Z" fill="#CBD7EA"/>
<path d="M0 138.694V131.99L5.78431 135.089V141.982L0 138.694Z" fill="white"/>
<path d="M75.209 174.963V168.4L0.123047 125.772V132.344L75.209 174.963Z" fill="white"/>
<path d="M81.0341 165.124L75.209 168.4L0.123047 125.572L6.06237 122.244L81.0341 165.124Z" fill="#CBD7EA"/>
<path d="M80.9933 171.676L81.0341 165.124L75.209 168.4V174.963L80.9933 171.676Z" fill="#B4C5E1"/>
<path d="M86.6955 168.384V161.816L11.6055 119.189V125.764L86.6955 168.384Z" fill="#B4C5E1"/>
<path d="M92.5206 158.545L86.6955 161.816L11.6055 118.988L17.5489 115.665L92.5206 158.545Z" fill="#CBD7EA"/>
<path d="M92.4796 165.096L92.5204 158.545L86.6953 161.817V168.384L92.4796 165.096Z" fill="#B4C5E1"/>
<path d="M98.4512 161.817V155.249L23.3652 112.622V119.197L98.4512 161.817Z" fill="#B4C5E1"/>
<path d="M104.28 151.973L98.4512 155.249L23.3652 112.421L29.3046 109.097L104.28 151.973Z" fill="#CBD7EA"/>
<path d="M104.24 158.529L104.28 151.974L98.4512 155.249V161.817L104.24 158.529Z" fill="#B4C5E1"/>
<path d="M109.891 155.466V148.903L34.8047 106.271V112.847L109.891 155.466Z" fill="#B4C5E1"/>
<path d="M115.72 145.627L109.891 148.903L34.8047 106.07L40.744 102.747L115.72 145.627Z" fill="#CBD7EA"/>
<path d="M115.679 152.178L115.72 145.627L109.891 148.903V155.466L115.679 152.178Z" fill="#B4C5E1"/>
<path d="M40.1464 109.567L56.7284 100.145L40.1464 90.7236L23.5645 100.145L40.1464 109.567Z" fill="#E2EBF7"/>
<path d="M40.1464 128.373V109.566L23.5645 100.145V118.952L40.1464 128.373Z" fill="white"/>
<path d="M56.7285 118.952V100.145L40.1465 109.566V128.373L56.7285 118.952Z" fill="#B4C5E1"/>
<path d="M35.5081 122.171V123.95L38.645 125.732V123.95L35.4551 122.171" fill="#B4C5E1"/>
<path opacity="0.5" d="M46.4091 94.2842L50.5658 96.6325L34.1022 106.126L29.8965 103.738L46.4091 94.2842Z" fill="#B4C5E1"/>
<path d="M29.957 103.782V113.203L34.1015 115.56V106.138L29.957 103.782Z" fill="#B4C5E1"/>
<path d="M57.6015 119.511L74.1835 110.09L57.6015 100.668L41.0195 110.09L57.6015 119.511Z" fill="#E2EBF7"/>
<path d="M57.6015 138.318V119.511L41.0195 110.09V128.897L57.6015 138.318Z" fill="white"/>
<path d="M74.1835 128.897V110.09L57.6016 119.511V138.318L74.1835 128.897Z" fill="#B4C5E1"/>
<path d="M52.9632 132.116V133.895L56.1001 135.677V133.895L52.9102 132.116" fill="#B4C5E1"/>
<path opacity="0.5" d="M63.8642 104.229L68.0209 106.577L51.5572 116.071L47.3516 113.683L63.8642 104.229Z" fill="#B4C5E1"/>
<path d="M47.4121 113.727V123.148L51.5566 125.505V116.083L47.4121 113.727Z" fill="#B4C5E1"/>
<path d="M75.0585 129.456L91.6405 120.035L75.0585 110.613L58.4766 120.035L75.0585 129.456Z" fill="#E2EBF7"/>
<path d="M75.0585 148.263V129.456L58.4766 120.034V138.841L75.0585 148.263Z" fill="white"/>
<path d="M91.6406 138.841V120.034L75.0586 129.456V148.263L91.6406 138.841Z" fill="#B4C5E1"/>
<path d="M70.4202 142.061V143.839L73.5571 145.621V143.839L70.3672 142.061" fill="#B4C5E1"/>
<path opacity="0.5" d="M81.3212 114.174L85.4779 116.522L69.0143 126.016L64.8086 123.627L81.3212 114.174Z" fill="#B4C5E1"/>
<path d="M64.8691 123.671V133.093L69.0136 135.449V126.028L64.8691 123.671Z" fill="#B4C5E1"/>
<path d="M92.5136 139.226L109.096 129.805L92.5136 120.383L75.9316 129.805L92.5136 139.226Z" fill="#E2EBF7"/>
<path d="M92.5136 158.033V139.226L75.9316 129.805V148.611L92.5136 158.033Z" fill="white"/>
<path d="M109.096 148.611V129.805L92.5137 139.226V158.033L109.096 148.611Z" fill="#B4C5E1"/>
<path d="M87.8753 151.831V153.609L91.0122 155.392V153.609L87.8223 151.831" fill="#B4C5E1"/>
<path opacity="0.5" d="M98.7763 123.944L102.933 126.292L86.4693 135.786L82.2637 133.397L98.7763 123.944Z" fill="#B4C5E1"/>
<path d="M82.3242 133.442V142.863L86.4687 145.219V135.798L82.3242 133.442Z" fill="#B4C5E1"/>
<path d="M22.6913 119.162L39.2733 109.741L22.6913 100.319L6.10938 109.741L22.6913 119.162Z" fill="#E2EBF7"/>
<path d="M22.6913 137.969V119.162L6.10938 109.741V128.548L22.6913 137.969Z" fill="white"/>
<path d="M39.2734 128.548V109.741L22.6914 119.162V137.969L39.2734 128.548Z" fill="#B4C5E1"/>
<path d="M18.053 131.767V133.545L21.1899 135.328V133.545L18 131.767" fill="#B4C5E1"/>
<path opacity="0.5" d="M28.954 103.88L33.1107 106.228L16.6471 115.722L12.4414 113.333L28.954 103.88Z" fill="#B4C5E1"/>
<path d="M12.502 113.378V122.799L16.6464 125.156V115.734L12.502 113.378Z" fill="#B4C5E1"/>
<path d="M40.1464 129.107L56.7284 119.686L40.1464 110.264L23.5645 119.686L40.1464 129.107Z" fill="#E2EBF7"/>
<path d="M40.1464 147.914V129.107L23.5645 119.686V138.492L40.1464 147.914Z" fill="white"/>
<path d="M56.7285 138.492V119.686L40.1465 129.107V147.914L56.7285 138.492Z" fill="#B4C5E1"/>
<path d="M35.5081 141.712V143.49L38.645 145.273V143.49L35.4551 141.712" fill="#B4C5E1"/>
<path opacity="0.5" d="M46.4091 113.825L50.5658 116.173L34.1022 125.667L29.8965 123.278L46.4091 113.825Z" fill="#B4C5E1"/>
<path d="M29.957 123.323V132.744L34.1015 135.1V125.679L29.957 123.323Z" fill="#B4C5E1"/>
<path d="M57.6035 139.052L74.1854 129.63L57.6035 120.209L41.0215 129.63L57.6035 139.052Z" fill="#E2EBF7"/>
<path d="M57.6035 157.858V139.052L41.0215 129.63V148.437L57.6035 157.858Z" fill="white"/>
<path d="M74.1855 148.437V129.63L57.6035 139.052V157.858L74.1855 148.437Z" fill="#B4C5E1"/>
<path d="M52.9651 151.656V153.435L56.102 155.217V153.435L52.9121 151.656" fill="#B4C5E1"/>
<path opacity="0.5" d="M63.8661 123.769L68.0229 126.118L51.5592 135.611L47.3535 133.223L63.8661 123.769Z" fill="#B4C5E1"/>
<path d="M47.4141 133.267V142.689L51.5585 145.045V135.623L47.4141 133.267Z" fill="#B4C5E1"/>
<path d="M75.0585 148.822L91.6405 139.4L75.0585 129.979L58.4766 139.4L75.0585 148.822Z" fill="#E2EBF7"/>
<path d="M75.0585 167.629V148.822L58.4766 139.4V158.207L75.0585 167.629Z" fill="white"/>
<path d="M91.6406 158.207V139.4L75.0586 148.822V167.629L91.6406 158.207Z" fill="#B4C5E1"/>
<path d="M70.4202 161.427V163.205L73.5571 164.987V163.205L70.3672 161.427" fill="#B4C5E1"/>
<path opacity="0.5" d="M81.3212 133.54L85.4779 135.888L69.0143 145.382L64.8086 142.993L81.3212 133.54Z" fill="#B4C5E1"/>
<path d="M64.8691 143.037V152.459L69.0136 154.815V145.394L64.8691 143.037Z" fill="#B4C5E1"/>
<path d="M40.1464 90.3752L56.7284 80.9537L40.1464 71.5322L23.5645 80.9537L40.1464 90.3752Z" fill="#E2EBF7"/>
<path d="M40.1464 109.182V90.3751L23.5645 80.9536V99.7604L40.1464 109.182Z" fill="white"/>
<path d="M56.7285 99.7604V80.9536L40.1465 90.3751V109.182L56.7285 99.7604Z" fill="#B4C5E1"/>
<path d="M35.5081 102.98V104.758L38.645 106.541V104.758L35.4551 102.98" fill="#B4C5E1"/>
<path opacity="0.5" d="M46.4091 75.0928L50.5658 77.4411L34.1022 86.9348L29.8965 84.5463L46.4091 75.0928Z" fill="#B4C5E1"/>
<path d="M29.957 84.5906V94.012L34.1015 96.3684V86.9469L29.957 84.5906Z" fill="#B4C5E1"/>
<path d="M57.6015 100.32L74.1835 90.8985L57.6015 81.4771L41.0195 90.8985L57.6015 100.32Z" fill="#E2EBF7"/>
<path d="M57.6015 119.127V100.32L41.0195 90.8984V109.705L57.6015 119.127Z" fill="white"/>
<path d="M74.1835 109.705V90.8984L57.6016 100.32V119.127L74.1835 109.705Z" fill="#B4C5E1"/>
<path d="M52.9632 112.925V114.703L56.1001 116.485V114.703L52.9102 112.925" fill="#B4C5E1"/>
<path opacity="0.5" d="M63.8642 85.0376L68.0209 87.3859L51.5572 96.8797L47.3516 94.4912L63.8642 85.0376Z" fill="#B4C5E1"/>
<path d="M47.4121 94.5354V103.957L51.5566 106.313V96.8918L47.4121 94.5354Z" fill="#B4C5E1"/>
<path d="M75.0585 110.265L91.6405 100.843L75.0585 91.4216L58.4766 100.843L75.0585 110.265Z" fill="#E2EBF7"/>
<path d="M75.0585 129.071V110.264L58.4766 100.843V119.65L75.0585 129.071Z" fill="white"/>
<path d="M91.6406 119.65V100.843L75.0586 110.264V129.071L91.6406 119.65Z" fill="#B4C5E1"/>
<path d="M70.4202 122.869V124.648L73.5571 126.43V124.648L70.3672 122.869" fill="#B4C5E1"/>
<path opacity="0.5" d="M81.3212 94.9822L85.4779 97.3305L69.0143 106.824L64.8086 104.436L81.3212 94.9822Z" fill="#B4C5E1"/>
<path d="M64.8691 104.48V113.901L69.0136 116.258V106.836L64.8691 104.48Z" fill="#B4C5E1"/>
<path d="M92.5136 120.035L109.096 110.613L92.5136 101.192L75.9316 110.613L92.5136 120.035Z" fill="#E2EBF7"/>
<path d="M92.5136 138.842V120.035L75.9316 110.613V129.42L92.5136 138.842Z" fill="white"/>
<path d="M109.096 129.42V110.613L92.5137 120.035V138.842L109.096 129.42Z" fill="#B4C5E1"/>
<path d="M87.8753 132.64V134.418L91.0122 136.2V134.418L87.8223 132.64" fill="#B4C5E1"/>
<path opacity="0.5" d="M98.7763 104.752L102.933 107.101L86.4693 116.595L82.2637 114.206L98.7763 104.752Z" fill="#B4C5E1"/>
<path d="M82.3242 114.25V123.672L86.4687 126.028V116.607L82.3242 114.25Z" fill="#B4C5E1"/>
<path d="M22.6913 99.9709L39.2733 90.5494L22.6913 81.1279L6.10938 90.5494L22.6913 99.9709Z" fill="#E2EBF7"/>
<path d="M22.6913 118.778V99.9708L6.10938 90.5493V109.356L22.6913 118.778Z" fill="white"/>
<path d="M39.2734 109.356V90.5493L22.6914 99.9708V118.778L39.2734 109.356Z" fill="#B4C5E1"/>
<path d="M18.053 112.576V114.354L21.1899 116.136V114.354L18 112.576" fill="#B4C5E1"/>
<path opacity="0.5" d="M28.954 84.6885L33.1107 87.0368L16.6471 96.5305L12.4414 94.142L28.954 84.6885Z" fill="#B4C5E1"/>
<path d="M12.502 94.1863V103.608L16.6464 105.964V96.5426L12.502 94.1863Z" fill="#B4C5E1"/>
<path d="M40.1464 109.916L56.7284 100.494L40.1464 91.0728L23.5645 100.494L40.1464 109.916Z" fill="#E2EBF7"/>
<path d="M40.1464 128.722V109.916L23.5645 100.494V119.301L40.1464 128.722Z" fill="white"/>
<path d="M56.7285 119.301V100.494L40.1465 109.916V128.722L56.7285 119.301Z" fill="#B4C5E1"/>
<path d="M35.5081 122.521V124.299L38.645 126.081V124.299L35.4551 122.521" fill="#B4C5E1"/>
<path opacity="0.5" d="M46.4091 94.6333L50.5658 96.9816L34.1022 106.475L29.8965 104.087L46.4091 94.6333Z" fill="#B4C5E1"/>
<path d="M29.957 104.131V113.553L34.1015 115.909V106.487L29.957 104.131Z" fill="#B4C5E1"/>
<path d="M57.6035 119.86L74.1854 110.439L57.6035 101.017L41.0215 110.439L57.6035 119.86Z" fill="#E2EBF7"/>
<path d="M57.6035 138.667V119.86L41.0215 110.439V129.246L57.6035 138.667Z" fill="white"/>
<path d="M74.1855 129.246V110.439L57.6035 119.86V138.667L74.1855 129.246Z" fill="#B4C5E1"/>
<path d="M52.9651 132.465V134.243L56.102 136.026V134.243L52.9121 132.465" fill="#B4C5E1"/>
<path opacity="0.5" d="M63.8661 104.578L68.0229 106.926L51.5592 116.42L47.3535 114.031L63.8661 104.578Z" fill="#B4C5E1"/>
<path d="M47.4141 114.076V123.497L51.5585 125.854V116.432L47.4141 114.076Z" fill="#B4C5E1"/>
<path d="M75.0585 129.631L91.6405 120.209L75.0585 110.788L58.4766 120.209L75.0585 129.631Z" fill="#E2EBF7"/>
<path d="M75.0585 148.437V129.63L58.4766 120.209V139.016L75.0585 148.437Z" fill="white"/>
<path d="M91.6406 139.016V120.209L75.0586 129.63V148.437L91.6406 139.016Z" fill="#B4C5E1"/>
<path d="M70.4202 142.235V144.014L73.5571 145.796V144.014L70.3672 142.235" fill="#B4C5E1"/>
<path opacity="0.5" d="M81.3212 114.348L85.4779 116.696L69.0143 126.19L64.8086 123.802L81.3212 114.348Z" fill="#B4C5E1"/>
<path d="M64.8691 123.846V133.267L69.0136 135.624V126.202L64.8691 123.846Z" fill="#B4C5E1"/>
<defs>
<filter id="filter0_f_1737_33673" x="2.1543" y="74.5186" width="289.652" height="168.944" filterUnits="userSpaceOnUse" color-interpolation-filters="sRGB">
<feFlood flood-opacity="0" result="BackgroundImageFix"/>
<feBlend mode="normal" in="SourceGraphic" in2="BackgroundImageFix" result="shape"/>
<feGaussianBlur stdDeviation="1" result="effect1_foregroundBlur_1737_33673"/>
</filter>
<linearGradient id="paint0_linear_1737_33673" x1="202.552" y1="187.177" x2="134.542" y2="76.8223" gradientUnits="userSpaceOnUse">
<stop stop-color="#0E3390" stop-opacity="0"/>
<stop offset="1" stop-color="#0E3390"/>
</linearGradient>
</defs>
</svg>
