<svg width="347" height="210" viewBox="0 0 347 210" fill="none" xmlns="http://www.w3.org/2000/svg">
<g filter="url(#filter0_f_1737_33903)">
<path d="M3.20703 91.6299L149.815 5.03955L344.987 124.617L201.128 208L3.20703 91.6299Z" fill="url(#paint0_linear_1737_33903)"/>
</g>
<path d="M113.428 150.582L0 84.875L146.512 0L259.94 65.7074L113.428 150.582Z" fill="#E2EBF7"/>
<path d="M9.45312 84.8751L113.428 145.109L250.487 65.7075L146.512 5.47656L9.45312 84.8751Z" fill="white"/>
<path d="M151.238 35.6137L155.963 32.8755L222.132 71.2073L217.33 73.8787L151.238 35.6137Z" fill="#D1DCEE"/>
<path d="M141.797 41.0668L146.522 38.3286L189.053 62.9693L184.321 65.7042L141.797 41.0668Z" fill="#D1DCEE"/>
<path d="M137.096 19.5522L151.184 27.7903L137.096 36.0251L122.881 27.7903L137.096 19.5522Z" fill="#E2EBF7"/>
<path d="M122.881 30.1304V27.79L137.096 36.0248V38.3651L122.881 30.1304Z" fill="#F4F7FC"/>
<path d="M151.184 30.1304V27.79L137.096 36.0248V38.3651L151.184 30.1304Z" fill="#D1DCEE"/>
<path d="M133.844 23.9419L135.663 24.9951V29.2311L133.844 29.5019V23.9419Z" fill="white"/>
<path d="M142.934 27.1016L144.75 28.1514L135.663 29.2313L133.844 28.1781L142.934 27.1016Z" fill="white"/>
<path d="M123.023 52.0795L127.752 49.3413L193.917 87.6698L189.115 90.3445L123.023 52.0795Z" fill="#D1DCEE"/>
<path d="M113.584 57.5327L118.309 54.7944L160.84 79.4318L156.108 82.1667L113.584 57.5327Z" fill="#D1DCEE"/>
<path d="M108.786 36.0249L122.871 44.2596L108.786 52.4977L94.5684 44.2596L108.786 36.0249Z" fill="#E2EBF7"/>
<path d="M94.5684 46.6035V44.2598L108.786 52.4978V54.8382L94.5684 46.6035Z" fill="#F4F7FC"/>
<path d="M122.87 46.6035V44.2598L108.785 52.4978V54.8382L122.87 46.6035Z" fill="#D1DCEE"/>
<path d="M105.529 40.4111L107.349 41.4643V45.7004L105.529 45.9745V40.4111Z" fill="white"/>
<path d="M114.619 43.5708L116.435 44.624L107.349 45.7005L105.529 44.6474L114.619 43.5708Z" fill="white"/>
<path d="M94.5312 68.5058L99.2562 65.7676L165.425 104.099L160.623 106.771L94.5312 68.5058Z" fill="#D1DCEE"/>
<path d="M85.0918 73.9589L89.8167 71.2207L132.348 95.8581L127.616 98.5929L85.0918 73.9589Z" fill="#D1DCEE"/>
<path d="M80.4212 52.4976L94.5059 60.7323L80.4212 68.967L66.2031 60.7323L80.4212 52.4976Z" fill="#E2EBF7"/>
<path d="M66.2031 63.0728V60.7324L80.4212 68.9672V71.3109L66.2031 63.0728Z" fill="#F4F7FC"/>
<path d="M94.5047 63.0728V60.7324L80.4199 68.9672V71.3109L94.5047 63.0728Z" fill="#D1DCEE"/>
<path d="M77.168 56.8843L78.984 57.9374V62.1735L77.168 62.4477V56.8843Z" fill="white"/>
<path d="M86.2546 60.0439L88.0739 61.0971L78.984 62.1737L77.168 61.1205L86.2546 60.0439Z" fill="white"/>
<path d="M66.3184 84.935L71.0466 82.1968L137.212 120.525L132.41 123.197L66.3184 84.935Z" fill="#D1DCEE"/>
<path d="M56.8789 90.3881L61.6038 87.6499L104.135 112.287L99.4031 115.022L56.8789 90.3881Z" fill="#D1DCEE"/>
<path d="M52.2069 68.9673L66.2916 77.2054L52.2069 85.4401L37.9922 77.2054L52.2069 68.9673Z" fill="#E2EBF7"/>
<path d="M37.9922 79.5454V77.2051L52.2069 85.4398V87.7835L37.9922 79.5454Z" fill="#F4F7FC"/>
<path d="M66.2918 79.5454V77.2051L52.207 85.4398V87.7835L66.2918 79.5454Z" fill="#D1DCEE"/>
<path d="M48.9551 73.3569L50.7711 74.4101V78.6461L48.9551 78.917V73.3569Z" fill="white"/>
<path d="M58.0417 76.5166L59.861 77.5698L50.7711 78.6463L48.9551 77.5932L58.0417 76.5166Z" fill="white"/>
<path d="M259.94 71.184V65.7075L113.428 150.582V156.059L259.94 71.184Z" fill="#D1DCEE"/>
<path d="M0 90.3515V84.875L113.428 150.582V156.908L0 90.3515Z" fill="white"/>
<path d="M212.686 54.7811V49.3047L165.424 21.9258V27.4022L212.686 54.7811Z" fill="#E2EBF7"/>
<path d="M184.327 10.9731L165.424 21.926L212.686 49.305L231.589 38.3521L184.327 10.9731Z" fill="white"/>
<path d="M231.59 43.8285V38.3521L212.688 49.305V54.7814L231.59 43.8285Z" fill="#D1DCEE"/>
<defs>
<filter id="filter0_f_1737_33903" x="1.20703" y="3.03955" width="345.779" height="206.96" filterUnits="userSpaceOnUse" color-interpolation-filters="sRGB">
<feFlood flood-opacity="0" result="BackgroundImageFix"/>
<feBlend mode="normal" in="SourceGraphic" in2="BackgroundImageFix" result="shape"/>
<feGaussianBlur stdDeviation="1" result="effect1_foregroundBlur_1737_33903"/>
</filter>
<linearGradient id="paint0_linear_1737_33903" x1="120.035" y1="48.5638" x2="183.26" y2="151.189" gradientUnits="userSpaceOnUse">
<stop offset="0.03" stop-color="#0E3390"/>
<stop offset="1" stop-color="#0E3390" stop-opacity="0"/>
</linearGradient>
</defs>
</svg>
