<svg width="261" height="210" viewBox="0 0 261 210" fill="none" xmlns="http://www.w3.org/2000/svg">
<g style="mix-blend-mode:multiply" opacity="0.3" filter="url(#filter0_f_1737_33585)">
<path d="M139.146 55.3394L258.431 118.039L103.903 208L2.24023 144.619L139.146 55.3394Z" fill="url(#paint0_linear_1737_33585)"/>
</g>
<path d="M159.452 74.3625C158.161 73.6145 156.423 73.6415 154.486 74.5698C154.28 74.672 154.068 74.7831 153.85 74.9033C150.84 76.8164 148.514 79.6195 147.201 82.9154C146.455 84.6248 146.051 86.4611 146.01 88.323C146.01 90.7834 146.919 92.5138 148.302 93.3249L153.631 96.3982C152.222 95.5871 151.339 93.8567 151.339 91.3963C151.38 89.5344 151.785 87.6981 152.531 85.9887C153.843 82.6927 156.169 79.8896 159.179 77.9766C159.391 77.8564 159.604 77.7452 159.816 77.6431C161.753 76.7418 163.454 76.6878 164.782 77.4358L159.452 74.3625Z" fill="#A9B8DA"/>
<path d="M159.18 77.9766C163.527 75.4891 167.056 77.4899 167.074 82.4378C167.092 87.3857 163.582 93.4151 159.234 95.8935C154.887 98.372 151.358 96.3802 151.34 91.4323C151.322 86.4844 154.832 80.464 159.18 77.9766Z" fill="#C5CBD2"/>
<path d="M159.18 77.9766C163.527 75.4891 167.056 77.4899 167.074 82.4378C167.092 87.3857 163.582 93.4151 159.234 95.8935C154.887 98.372 151.358 96.3802 151.34 91.4323C151.322 86.4844 154.832 80.464 159.18 77.9766Z" fill="#B4C5E1"/>
<path d="M159.199 83.0597C161.218 81.9061 162.837 82.8344 162.837 85.1326C162.771 86.3855 162.407 87.6053 161.774 88.6923C161.142 89.7793 160.26 90.7027 159.199 91.3873C157.179 92.5409 155.561 91.6126 155.561 89.3144C155.626 88.0615 155.99 86.8418 156.623 85.7548C157.255 84.6678 158.138 83.7443 159.199 83.0597Z" fill="#A9B8DA"/>
<path d="M177.724 64.0433C176.432 63.3042 174.695 63.3223 172.758 64.2506C172.552 64.3527 172.339 64.4639 172.121 64.584C169.111 66.4971 166.785 69.3002 165.473 72.5962C164.727 74.3055 164.322 76.1419 164.281 78.0037C164.281 80.4641 165.191 82.1945 166.573 83.0057L171.903 86.0699C170.493 85.2588 169.611 83.5284 169.611 81.068C169.652 79.2061 170.057 77.3698 170.802 75.6604C172.114 72.3687 174.436 69.569 177.442 67.6573C177.654 67.5371 177.866 67.426 178.078 67.3238C180.016 66.4226 181.716 66.3685 183.044 67.1165L177.724 64.0433Z" fill="#A9B8DA"/>
<path d="M177.443 67.6572C181.791 65.1698 185.32 67.1705 185.338 72.1184C185.356 77.0663 181.845 83.0957 177.498 85.5742C173.151 88.0526 169.622 86.0609 169.604 81.113C169.585 76.1651 173.105 70.1447 177.443 67.6572Z" fill="#C5CBD2"/>
<path d="M177.443 67.6572C181.791 65.1698 185.32 67.1705 185.338 72.1184C185.356 77.0663 181.845 83.0957 177.498 85.5742C173.151 88.0526 169.622 86.0609 169.604 81.113C169.585 76.1651 173.105 70.1447 177.443 67.6572Z" fill="#B4C5E1"/>
<path d="M177.441 72.7404C179.46 71.5868 181.079 72.5151 181.079 74.8133C181.013 76.0662 180.649 77.2859 180.017 78.3729C179.384 79.4599 178.502 80.3834 177.441 81.068C175.422 82.2216 173.803 81.2933 173.803 78.9951C173.869 77.7422 174.233 76.5224 174.865 75.4354C175.497 74.3484 176.38 73.425 177.441 72.7404Z" fill="#A9B8DA"/>
<path d="M31.8965 112.486V68.2161L70.5773 90.3509V134.612L31.8965 112.486Z" fill="white"/>
<path d="M151.195 0L31.9238 68.234L70.6138 90.3688L189.858 22.1168L151.195 0Z" fill="#E2EBF7"/>
<path d="M189.856 66.3773L70.5762 134.611V90.3507L189.856 22.1167V66.3773Z" fill="#D3E0F0"/>
<path d="M73.7969 92.1985L77.0529 90.3689V127.221L73.7969 129.078V92.1985Z" fill="#B4C5E1"/>
<path d="M81.1113 88.0166L84.3582 86.187V123.039L81.1113 124.896V88.0166Z" fill="#B4C5E1"/>
<path d="M88.4141 83.8349L91.6701 82.0054V118.858L88.4141 120.714V83.8349Z" fill="#B4C5E1"/>
<path d="M95.7246 79.6528L98.9715 77.8232V114.676L95.7246 116.541V79.6528Z" fill="#B4C5E1"/>
<path d="M103.027 75.4711L106.283 73.6416V110.494L103.027 112.36V75.4711Z" fill="#B4C5E1"/>
<path d="M110.34 71.289L113.587 69.4595V106.312L110.34 108.177V71.289Z" fill="#B4C5E1"/>
<path d="M117.643 67.1074L120.899 65.2869V102.139L117.643 103.996V67.1074Z" fill="#B4C5E1"/>
<path d="M124.947 62.9255L128.203 61.105V97.9573L124.947 99.8139V62.9255Z" fill="#B4C5E1"/>
<path d="M132.26 58.7529L135.516 56.9233V93.7757L132.26 95.6323V58.7529Z" fill="#B4C5E1"/>
<path d="M139.562 54.571L142.818 52.7415V89.5938L139.562 91.4504V54.571Z" fill="#B4C5E1"/>
<path d="M146.873 50.3894L150.12 48.5598V85.4121L146.873 87.2687V50.3894Z" fill="#B4C5E1"/>
<path d="M154.18 46.2072L157.436 44.3777V81.23L154.18 83.0866V46.2072Z" fill="#B4C5E1"/>
<path d="M161.49 42.0256L164.737 40.196V77.0484L161.49 78.914V42.0256Z" fill="#B4C5E1"/>
<path d="M168.793 37.8437L172.049 36.0142V72.8665L168.793 74.7321V37.8437Z" fill="#B4C5E1"/>
<path d="M176.107 33.6621L179.354 31.8325V68.6848L176.107 70.5504V33.6621Z" fill="#B4C5E1"/>
<path d="M183.41 29.4799L186.657 27.6504V64.5027L183.41 66.3683V29.4799Z" fill="#B4C5E1"/>
<path d="M38.3457 68.216L41.5653 66.3774L73.7978 84.8171L70.5782 86.6647L38.3457 68.216Z" fill="#CBD7EB"/>
<path d="M45.6484 64.0434L48.8771 62.1958L81.1097 80.6355L77.881 82.483L45.6484 64.0434Z" fill="#CBD7EB"/>
<path d="M52.9629 59.8612L56.1825 58.0137L88.415 76.4624L85.1954 78.3009L52.9629 59.8612Z" fill="#CBD7EB"/>
<path d="M60.2656 55.6794L63.4852 53.8408L95.7269 72.2805L92.4981 74.1281L60.2656 55.6794Z" fill="#CBD7EB"/>
<path d="M67.5684 51.5068L70.7971 49.6592L103.03 68.0989L99.81 69.9464L67.5684 51.5068Z" fill="#CBD7EB"/>
<path d="M74.8789 47.3249L78.0985 45.4773L110.34 63.917L107.111 65.7646L74.8789 47.3249Z" fill="#CBD7EB"/>
<path d="M82.1855 43.1432L85.4143 41.2957L117.647 59.7443L114.427 61.5829L82.1855 43.1432Z" fill="#CBD7EB"/>
<path d="M89.4961 38.9614L92.7157 37.1228L124.948 55.5625L121.729 57.4101L89.4961 38.9614Z" fill="#CBD7EB"/>
<path d="M96.7988 34.7792L100.028 32.9407L132.26 51.3804L129.031 53.2279L96.7988 34.7792Z" fill="#CBD7EB"/>
<path d="M104.111 30.6066L107.331 28.759L139.563 47.1987L136.344 49.0463L104.111 30.6066Z" fill="#CBD7EB"/>
<path d="M111.414 26.425L114.634 24.5774L146.875 43.0261L143.647 44.8646L111.414 26.425Z" fill="#CBD7EB"/>
<path d="M118.717 22.2431L121.946 20.4045L154.178 38.8442L150.958 40.6918L118.717 22.2431Z" fill="#CBD7EB"/>
<path d="M126.031 18.0612L129.251 16.2227L161.492 34.6623L158.264 36.5099L126.031 18.0612Z" fill="#CBD7EB"/>
<path d="M133.334 13.8886L136.563 12.041L168.795 30.4807L165.576 32.3283L133.334 13.8886Z" fill="#CBD7EB"/>
<path d="M140.645 9.70646L143.864 7.85889L176.106 26.2986L172.877 28.1461L140.645 9.70646Z" fill="#CBD7EB"/>
<path d="M147.947 5.52482L151.176 3.67725L183.408 22.1259L180.18 23.9645L147.947 5.52482Z" fill="#CBD7EB"/>
<path d="M66.9742 92.1083L63.2453 90.0444L62.8633 127.564L66.5831 129.664L66.9742 92.1083Z" fill="#E2EBF7"/>
<path d="M59.7257 87.8903L56.0058 85.8445L55.6875 123.67L59.4073 125.743L59.7257 87.8903Z" fill="#E2EBF7"/>
<path d="M52.4882 83.6814L48.7683 81.6536L48.5137 119.768L52.2335 121.813L52.4882 83.6814Z" fill="#E2EBF7"/>
<path d="M45.2468 79.4727L41.5269 77.4539L41.3359 115.874L45.0558 117.893L45.2468 79.4727Z" fill="#E2EBF7"/>
<path d="M38.0086 75.2549L34.2797 73.2542L34.1523 111.972L37.8813 113.973L38.0086 75.2549Z" fill="#E2EBF7"/>
<path d="M70.9052 138.144L33.6067 116.658L33.5977 113.135L70.8961 134.611L70.9052 138.144Z" fill="white"/>
<path d="M189.858 66.3774V69.9194L70.9056 138.144L70.8965 134.611L189.858 66.3774Z" fill="#D3E0F0"/>
<path d="M53.1318 133.034C51.8403 132.295 50.1032 132.313 48.1659 133.242C47.9598 133.344 47.7476 133.455 47.5293 133.575C44.5191 135.488 42.193 138.291 40.8809 141.587C40.1351 143.297 39.7305 145.133 39.6895 146.995C39.6895 149.455 40.5989 151.186 41.9814 151.997L47.311 155.061C45.9013 154.25 45.0191 152.519 45.0191 150.059C45.0601 148.197 45.4647 146.361 46.2105 144.651C47.5183 141.358 49.8377 138.555 52.8408 136.639C53.053 136.519 53.2652 136.408 53.4774 136.306C55.4146 135.405 57.1154 135.35 58.4432 136.098L53.1318 133.034Z" fill="#A9B8DA"/>
<path d="M52.8399 136.639C57.1873 134.152 60.7162 136.152 60.7343 141.1C60.7525 146.048 57.2419 152.078 52.8945 154.556C48.5471 157.035 45.0183 155.043 45.0001 150.095C44.9819 145.147 48.5198 139.127 52.8399 136.639Z" fill="#C5CBD2"/>
<path d="M52.8419 136.639C57.1893 134.152 60.7181 136.152 60.7363 141.1C60.7545 146.048 57.2438 152.078 52.8964 154.556C48.5491 157.035 45.0202 155.043 45.002 150.095C44.9838 145.147 48.5218 139.127 52.8419 136.639Z" fill="#B4C5E1"/>
<path d="M52.8411 141.434C54.8602 140.28 56.4791 141.209 56.4791 143.507C56.4132 144.76 56.0492 145.98 55.417 147.067C54.7848 148.154 53.9021 149.077 52.8411 149.762C50.822 150.915 49.2031 149.987 49.2031 147.689C49.269 146.436 49.633 145.216 50.2652 144.129C50.8975 143.042 51.7801 142.119 52.8411 141.434Z" fill="#A9B8DA"/>
<path d="M29.0943 157.936L1.02728 141.776L1 125.599L29.067 141.758L29.0943 157.936Z" fill="white"/>
<path d="M29.067 141.758L1 125.599L9.78572 115.171L37.8527 131.331L29.067 141.758Z" fill="#CBD7EA"/>
<path d="M37.8522 131.331L9.78516 115.171L37.1155 99.4895L65.1825 115.649L37.8522 131.331Z" fill="#302B30"/>
<path d="M52.36 135.774C53.5761 135.029 54.9691 134.616 56.3981 134.575C59.1266 134.575 61.0275 136.378 61.5914 139.253L65.2293 137.162V123.742V115.631L37.899 131.313L29.1133 141.74V157.963L44.0654 149.347C44.3564 144.156 47.8944 138.334 52.36 135.774Z" fill="#B4C5E1"/>
<path d="M29.095 157.936L44.0471 149.32C44.2431 146.933 44.9467 144.614 46.1117 142.515L29.0859 152.312L29.095 157.936Z" fill="#A9B8DA"/>
<path d="M63.9003 114.82L35.8333 98.6602L35.7969 85.1414L63.8639 101.31L63.9003 114.82Z" fill="#2A2529"/>
<path d="M39.1256 129.042L11.0586 112.882L35.8332 98.6604L63.9003 114.82L39.1256 129.042Z" fill="#302B30"/>
<path d="M63.8635 101.31L63.8999 114.82L39.8438 129.123L45.3553 111.891L63.8635 101.31Z" fill="#CBD7EA"/>
<path d="M39.1256 129.042L11.0586 112.882L17.2886 95.7312L45.3557 111.891L39.1256 129.042Z" fill="#3D8193"/>
<path d="M37.8522 131.331L9.78516 115.171L16.0061 94.9021L44.0731 111.071L37.8522 131.331Z" fill="#CBD7EA"/>
<path d="M10.8027 114.667L16.7508 96.4253L43.0443 111.566L37.0962 129.808L10.8027 114.667Z" fill="white"/>
<path d="M44.0748 111.071L16.0078 94.9021L37.0717 82.8523L65.1387 99.0118L44.0748 111.071Z" fill="#CBD7EA"/>
<path d="M44.0725 111.071L65.1364 99.0208L65.1819 115.649L37.8516 131.331L44.0725 111.071ZM63.8995 114.829V101.31L45.3549 111.891L39.8434 129.123L63.8995 114.82V114.829Z" fill="#B4C5E1"/>
<path d="M45.3561 111.891L17.2891 95.7311L35.7973 85.1414L63.8643 101.31L45.3561 111.891Z" fill="#CBD7EA"/>
<path d="M58.8984 135.188C59.629 135.621 60.253 136.209 60.725 136.911C61.197 137.612 61.5051 138.409 61.6269 139.244L65.2649 137.153V131.583L58.8984 135.188Z" fill="#A9B8DA"/>
<defs>
<filter id="filter0_f_1737_33585" x="0.240234" y="53.3394" width="260.191" height="156.661" filterUnits="userSpaceOnUse" color-interpolation-filters="sRGB">
<feFlood flood-opacity="0" result="BackgroundImageFix"/>
<feBlend mode="normal" in="SourceGraphic" in2="BackgroundImageFix" result="shape"/>
<feGaussianBlur stdDeviation="1" result="effect1_foregroundBlur_1737_33585"/>
</filter>
<linearGradient id="paint0_linear_1737_33585" x1="131.691" y1="172.561" x2="100.924" y2="115.291" gradientUnits="userSpaceOnUse">
<stop stop-color="#B4C5E0" stop-opacity="0"/>
<stop offset="1" stop-color="#0E3391"/>
</linearGradient>
</defs>
</svg>
