<svg width="338" height="282" viewBox="0 0 338 282" fill="none" xmlns="http://www.w3.org/2000/svg">
<g style="mix-blend-mode:multiply" opacity="0.3" filter="url(#filter0_f_792_33080)">
<path d="M132.105 87.7166L332.048 200.209L211.844 276.799L4.75977 165.504L132.105 87.7166Z" fill="url(#paint0_linear_792_33080)"/>
</g>
<path d="M183.161 87.4804L131.777 58.08L148.154 48.7708L199.538 78.1711L183.161 87.4804Z" fill="#CBD7EA"/>
<path d="M122.64 135.821L71.2559 106.426L131.777 58.08L183.161 87.4804L122.64 135.821Z" fill="#CBD7EA"/>
<path d="M122.719 163.082L71.3353 133.682L71.2559 106.426L122.64 135.821L122.719 163.082Z" fill="white"/>
<path d="M199.537 78.1711L200.027 119.136L122.718 163.082L122.639 135.821L183.16 87.4803L199.537 78.1711Z" fill="#B4C5E1"/>
<path d="M144.188 142.738L155.2 149.037C153.251 147.924 150.554 148.08 147.572 149.769L136.561 143.474C139.538 141.785 142.239 141.629 144.188 142.738Z" fill="#E2EBF7"/>
<path d="M140.005 174.775L128.998 168.475C127.072 167.375 125.88 165.033 125.871 161.701C125.871 155.001 130.638 146.842 136.565 143.479L147.576 149.774C141.65 153.142 136.864 161.306 136.883 168.001C136.887 171.328 138.084 173.657 140.005 174.775Z" fill="#E2EBF7"/>
<path d="M147.571 149.774C153.488 146.414 158.321 149.111 158.321 155.811C158.321 162.511 153.554 170.675 147.636 174.039C141.719 177.402 136.887 174.701 136.887 168.001C136.887 161.301 141.645 153.142 147.571 149.774Z" fill="#B4C5E1"/>
<path d="M191.307 115.956L202.319 122.255C200.37 121.137 197.673 121.294 194.691 122.992L183.68 116.687C186.662 114.994 189.363 114.838 191.307 115.956Z" fill="#E2EBF7"/>
<path d="M187.134 147.988L176.123 141.689C174.197 140.584 173.001 138.242 172.996 134.915C172.996 128.215 177.763 120.056 183.69 116.687L194.697 122.992C188.77 126.36 183.989 134.496 184.003 141.215C184.012 144.542 185.209 146.884 187.134 147.988Z" fill="#E2EBF7"/>
<path d="M194.691 122.992C200.613 119.623 205.441 122.325 205.441 129.025C205.441 135.725 200.678 143.884 194.761 147.257C188.844 150.63 184.012 147.919 184.012 141.219C184.012 134.519 188.77 126.356 194.691 122.992Z" fill="#B4C5E1"/>
<path d="M93.0974 94.4013L82.0859 88.097L123.37 55.1257L134.376 61.4208L93.0974 94.4013Z" fill="#CBD7EA"/>
<path d="M82.2673 112.753L71.2559 106.453L84.3004 28.4496L95.3213 34.7493L82.2673 112.753Z" fill="white"/>
<path d="M95.3211 34.7493L142.625 7.85233L142.788 64.412L82.2578 112.753L95.3211 34.7493ZM134.375 61.4393L134.263 22.1222L102.126 40.391L93.0964 94.4151L134.375 61.4347V61.4393Z" fill="#B4C5E1"/>
<path d="M131.627 60.0035L142.638 53.6992L183.567 76.6203L172.56 82.9155L131.627 60.0035Z" fill="#CBD7EA"/>
<path d="M172.561 82.9155L172.533 92.4042L131.6 69.4877L131.628 60.0035L172.561 82.9155Z" fill="white"/>
<path d="M172.543 37.0686L183.554 30.7689L183.526 40.2576L172.52 46.5619L172.543 37.0686Z" fill="#484848"/>
<path d="M79.9922 102.187L90.999 95.8877L131.932 118.8L120.921 125.109L79.9922 102.187Z" fill="#CBD7EA"/>
<path d="M120.92 125.109L120.897 134.593L79.959 111.676L79.9917 102.187L120.92 125.109Z" fill="white"/>
<path d="M136.274 57.6659L133.927 65.9719L92.9941 43.0554L95.3217 34.7493L136.274 57.6659Z" fill="white"/>
<path d="M134.029 117.465L123.018 111.165L164.301 78.1941L175.308 84.4892L134.029 117.465Z" fill="#E2EBF7"/>
<path d="M175.308 84.4892L164.302 78.1941L164.189 38.8725L175.196 45.1722L175.308 84.4892Z" fill="white"/>
<path d="M123.196 135.821L112.189 129.522L125.229 51.518L136.241 57.8177L123.196 135.821Z" fill="white"/>
<path d="M183.554 30.7689L131.614 1.55258L84.3008 28.4496L95.3216 34.7493L125.257 51.4996L125.229 51.518L136.241 57.8177L183.554 30.9207L183.423 30.8471L183.554 30.7689Z" fill="#E2EBF7"/>
<path d="M136.24 57.8177L183.553 30.9207L183.712 87.4803L123.195 135.821L136.24 57.8177ZM175.308 84.5076L175.196 45.1906L143.059 63.4594L134.029 117.483L175.308 84.5076Z" fill="#B4C5E1"/>
<path d="M69.8086 20.0193L76.436 16.2551L83.0682 20.0193L76.436 23.7881L69.8086 20.0193Z" fill="#CBD7EA"/>
<path d="M69.8086 140.639V20.0193L76.436 23.7881V144.408L69.8086 140.639Z" fill="white"/>
<path d="M83.0677 140.639L76.4355 144.408V23.7881L83.0677 20.0193V140.639Z" fill="#B4C5E1"/>
<path d="M30.0332 170.785V162.879L76.4347 136.87V144.408L30.0332 170.785Z" fill="#B4C5E1"/>
<path d="M23.4023 159.331L30.0345 162.879L76.436 136.871L69.6309 133.06L23.4023 159.331Z" fill="#CBD7EA"/>
<path d="M23.4023 167.016V159.331L30.0345 162.879V170.785L23.4023 167.016Z" fill="white"/>
<path d="M76.4355 144.408V136.87L109.208 155.659V162.879L76.4355 144.408Z" fill="white"/>
<path d="M109.208 155.659L76.4355 136.87L83.0677 132.996L116.013 151.131L109.208 155.659Z" fill="#CBD7EA"/>
<path d="M76.6133 76.6479V69.1103L109.381 87.8991V95.1192L76.6133 76.6479Z" fill="white"/>
<path d="M109.381 87.8991L76.6133 69.1103L83.2407 65.2357L116.186 83.371L109.381 87.8991Z" fill="#CBD7EA"/>
<path d="M109.381 42.6229L116.013 38.8541L122.64 42.6229L116.013 46.3871L109.381 42.6229Z" fill="#CBD7EA"/>
<path d="M109.381 163.238V42.6229L116.013 46.3871V167.007L109.381 163.238Z" fill="white"/>
<path d="M122.641 163.238L116.014 167.007V46.3871L122.641 42.6229V163.238Z" fill="#B4C5E1"/>
<path d="M69.6074 193.384V185.478L116.014 159.469V167.007L69.6074 193.384Z" fill="#B4C5E1"/>
<path d="M62.9785 181.93L69.606 185.478L116.012 159.47L109.207 155.659L62.9785 181.93Z" fill="#CBD7EA"/>
<path d="M62.9785 189.615V181.93L69.606 185.478V193.384L62.9785 189.615Z" fill="white"/>
<path d="M86.1797 208.377V200.471L132.586 174.462V182L86.1797 208.377Z" fill="#B4C5E1"/>
<path d="M79.5527 196.923L86.1802 200.471L132.586 174.462L125.781 170.652L79.5527 196.923Z" fill="#CBD7EA"/>
<path d="M79.5527 204.608V196.923L86.1802 200.471V208.377L79.5527 204.608Z" fill="white"/>
<path d="M6.62695 162.76V154.859L53.0331 128.845V136.383L6.62695 162.76Z" fill="#B4C5E1"/>
<path d="M0 151.306L6.62745 154.859L53.0336 128.845L46.2286 125.035L0 151.306Z" fill="#CBD7EA"/>
<path d="M0 158.991V151.306L6.62745 154.859V162.76L0 158.991Z" fill="white"/>
<path d="M86.1713 200.567V193.044L0.140625 144.178V151.711L86.1713 200.567Z" fill="white"/>
<path d="M92.8455 189.289L86.1713 193.044L0.140625 143.948L6.94568 140.133L92.8455 189.289Z" fill="#CBD7EA"/>
<path d="M92.7974 196.799L92.8441 189.289L86.1699 193.044V200.567L92.7974 196.799Z" fill="#B4C5E1"/>
<path d="M99.3322 193.025V185.497L13.2969 136.631V144.169L99.3322 193.025Z" fill="#B4C5E1"/>
<path d="M106.006 181.746L99.3322 185.497L13.2969 136.401L20.1066 132.591L106.006 181.746Z" fill="#CBD7EA"/>
<path d="M105.959 189.256L106.006 181.746L99.332 185.497V193.025L105.959 189.256Z" fill="#B4C5E1"/>
<path d="M112.802 185.497V177.968L26.7715 129.103V136.64L112.802 185.497Z" fill="#B4C5E1"/>
<path d="M119.481 174.213L112.802 177.968L26.7715 128.873L33.5765 125.063L119.481 174.213Z" fill="#CBD7EA"/>
<path d="M119.435 181.728L119.482 174.213L112.803 177.968V185.497L119.435 181.728Z" fill="#B4C5E1"/>
<path d="M125.908 178.217V170.693L39.877 121.823V129.36L125.908 178.217Z" fill="#B4C5E1"/>
<path d="M132.586 166.938L125.908 170.693L39.877 121.593L46.682 117.783L132.586 166.938Z" fill="#CBD7EA"/>
<path d="M132.54 174.448L132.587 166.938L125.908 170.693V178.217L132.54 174.448Z" fill="#B4C5E1"/>
<path d="M45.999 125.6L64.998 114.8L45.999 104L27 114.8L45.999 125.6Z" fill="#E2EBF7"/>
<path d="M45.999 147.159V125.6L27 114.8V136.359L45.999 147.159Z" fill="white"/>
<path d="M64.999 136.359V114.8L46 125.6V147.159L64.999 136.359Z" fill="#B4C5E1"/>
<path d="M40.6858 140.05V142.088L44.2799 144.132V142.088L40.625 140.05" fill="#B4C5E1"/>
<path opacity="0.5" d="M53.1735 108.082L57.9361 110.774L39.0726 121.657L34.2539 118.919L53.1735 108.082Z" fill="#B4C5E1"/>
<path d="M34.3242 118.969V129.77L39.0728 132.471V121.671L34.3242 118.969Z" fill="#B4C5E1"/>
<path d="M65.999 137L84.998 126.2L65.999 115.4L47 126.2L65.999 137Z" fill="#E2EBF7"/>
<path d="M65.999 158.559V137L47 126.2V147.759L65.999 158.559Z" fill="white"/>
<path d="M84.999 147.759V126.2L66 137V158.559L84.999 147.759Z" fill="#B4C5E1"/>
<path d="M60.6858 151.45V153.488L64.2799 155.532V153.488L60.625 151.45" fill="#B4C5E1"/>
<path opacity="0.5" d="M73.1735 119.482L77.9361 122.174L59.0726 133.057L54.2539 130.319L73.1735 119.482Z" fill="#B4C5E1"/>
<path d="M54.3242 130.369V141.17L59.0728 143.871V133.071L54.3242 130.369Z" fill="#B4C5E1"/>
<path d="M85.999 148.4L104.998 137.6L85.999 126.8L67 137.6L85.999 148.4Z" fill="#E2EBF7"/>
<path d="M85.999 169.959V148.4L67 137.6V159.159L85.999 169.959Z" fill="white"/>
<path d="M104.999 159.159V137.6L86 148.4V169.959L104.999 159.159Z" fill="#B4C5E1"/>
<path d="M80.6858 162.85V164.888L84.2799 166.932V164.888L80.625 162.85" fill="#B4C5E1"/>
<path opacity="0.5" d="M93.1735 130.882L97.9361 133.574L79.0726 144.457L74.2539 141.719L93.1735 130.882Z" fill="#B4C5E1"/>
<path d="M74.3242 141.769V152.57L79.0728 155.271V144.471L74.3242 141.769Z" fill="#B4C5E1"/>
<path d="M105.999 159.6L124.998 148.8L105.999 138L87 148.8L105.999 159.6Z" fill="#E2EBF7"/>
<path d="M105.999 181.159V159.6L87 148.8V170.359L105.999 181.159Z" fill="white"/>
<path d="M124.999 170.359V148.8L106 159.6V181.159L124.999 170.359Z" fill="#B4C5E1"/>
<path d="M100.686 174.05V176.088L104.28 178.132V176.088L100.625 174.05" fill="#B4C5E1"/>
<path opacity="0.5" d="M113.173 142.082L117.936 144.774L99.0726 155.657L94.2539 152.919L113.173 142.082Z" fill="#B4C5E1"/>
<path d="M94.3242 152.969V163.77L99.0728 166.471V155.671L94.3242 152.969Z" fill="#B4C5E1"/>
<path d="M25.999 136.6L44.998 125.8L25.999 115L7 125.8L25.999 136.6Z" fill="#E2EBF7"/>
<path d="M25.999 158.159V136.6L7 125.8V147.359L25.999 158.159Z" fill="white"/>
<path d="M44.999 147.359V125.8L26 136.6V158.159L44.999 147.359Z" fill="#B4C5E1"/>
<path d="M20.6858 151.05V153.088L24.2799 155.132V153.088L20.625 151.05" fill="#B4C5E1"/>
<path opacity="0.5" d="M33.1735 119.082L37.9361 121.774L19.0726 132.657L14.2539 129.919L33.1735 119.082Z" fill="#B4C5E1"/>
<path d="M14.3242 129.969V140.77L19.0728 143.471V132.671L14.3242 129.969Z" fill="#B4C5E1"/>
<path d="M45.999 148L64.998 137.2L45.999 126.4L27 137.2L45.999 148Z" fill="#E2EBF7"/>
<path d="M45.999 169.559V148L27 137.2V158.759L45.999 169.559Z" fill="white"/>
<path d="M64.999 158.759V137.2L46 148V169.559L64.999 158.759Z" fill="#B4C5E1"/>
<path d="M40.6858 162.45V164.488L44.2799 166.532V164.488L40.625 162.45" fill="#B4C5E1"/>
<path opacity="0.5" d="M53.1735 130.482L57.9361 133.174L39.0726 144.057L34.2539 141.319L53.1735 130.482Z" fill="#B4C5E1"/>
<path d="M34.3242 141.369V152.17L39.0728 154.871V144.071L34.3242 141.369Z" fill="#B4C5E1"/>
<path d="M65.999 159.4L84.998 148.6L65.999 137.8L47 148.6L65.999 159.4Z" fill="#E2EBF7"/>
<path d="M65.999 180.959V159.4L47 148.6V170.159L65.999 180.959Z" fill="white"/>
<path d="M84.999 170.159V148.6L66 159.4V180.959L84.999 170.159Z" fill="#B4C5E1"/>
<path d="M60.6858 173.85V175.888L64.2799 177.932V175.888L60.625 173.85" fill="#B4C5E1"/>
<path opacity="0.5" d="M73.1735 141.882L77.9361 144.574L59.0726 155.457L54.2539 152.719L73.1735 141.882Z" fill="#B4C5E1"/>
<path d="M54.3242 152.769V163.57L59.0728 166.271V155.471L54.3242 152.769Z" fill="#B4C5E1"/>
<path d="M85.999 170.6L104.998 159.8L85.999 149L67 159.8L85.999 170.6Z" fill="#E2EBF7"/>
<path d="M85.999 192.159V170.6L67 159.8V181.359L85.999 192.159Z" fill="white"/>
<path d="M104.999 181.359V159.8L86 170.6V192.159L104.999 181.359Z" fill="#B4C5E1"/>
<path d="M80.6858 185.05V187.088L84.2799 189.132V187.088L80.625 185.05" fill="#B4C5E1"/>
<path opacity="0.5" d="M93.1735 153.082L97.9361 155.774L79.0726 166.657L74.2539 163.919L93.1735 153.082Z" fill="#B4C5E1"/>
<path d="M74.3242 163.969V174.77L79.0728 177.471V166.671L74.3242 163.969Z" fill="#B4C5E1"/>
<path d="M45.999 103.6L64.998 92.8003L45.999 82L27 92.8003L45.999 103.6Z" fill="#E2EBF7"/>
<path d="M45.999 125.159V103.6L27 92.8002V114.359L45.999 125.159Z" fill="white"/>
<path d="M64.999 114.359V92.8002L46 103.6V125.159L64.999 114.359Z" fill="#B4C5E1"/>
<path d="M40.6858 118.05V120.088L44.2799 122.132V120.088L40.625 118.05" fill="#B4C5E1"/>
<path opacity="0.5" d="M53.1735 86.0817L57.9361 88.7737L39.0726 99.6567L34.2539 96.9187L53.1735 86.0817Z" fill="#B4C5E1"/>
<path d="M34.3242 96.9694V107.77L39.0728 110.471V99.6706L34.3242 96.9694Z" fill="#B4C5E1"/>
<path d="M65.999 115L84.998 104.2L65.999 93.4001L47 104.2L65.999 115Z" fill="#E2EBF7"/>
<path d="M65.999 136.559V115L47 104.2V125.759L65.999 136.559Z" fill="white"/>
<path d="M84.999 125.759V104.2L66 115V136.559L84.999 125.759Z" fill="#B4C5E1"/>
<path d="M60.6858 129.45V131.488L64.2799 133.532V131.488L60.625 129.45" fill="#B4C5E1"/>
<path opacity="0.5" d="M73.1735 97.4817L77.9361 100.174L59.0726 111.057L54.2539 108.319L73.1735 97.4817Z" fill="#B4C5E1"/>
<path d="M54.3242 108.369V119.17L59.0728 121.871V111.071L54.3242 108.369Z" fill="#B4C5E1"/>
<path d="M85.999 126.4L104.998 115.6L85.999 104.8L67 115.6L85.999 126.4Z" fill="#E2EBF7"/>
<path d="M85.999 147.959V126.4L67 115.6V137.159L85.999 147.959Z" fill="white"/>
<path d="M104.999 137.159V115.6L86 126.4V147.959L104.999 137.159Z" fill="#B4C5E1"/>
<path d="M80.6858 140.85V142.888L84.2799 144.932V142.888L80.625 140.85" fill="#B4C5E1"/>
<path opacity="0.5" d="M93.1735 108.882L97.9361 111.574L79.0726 122.457L74.2539 119.719L93.1735 108.882Z" fill="#B4C5E1"/>
<path d="M74.3242 119.769V130.57L79.0728 133.271V122.471L74.3242 119.769Z" fill="#B4C5E1"/>
<path d="M105.999 137.6L124.998 126.8L105.999 116L87 126.8L105.999 137.6Z" fill="#E2EBF7"/>
<path d="M105.999 159.159V137.6L87 126.8V148.359L105.999 159.159Z" fill="white"/>
<path d="M124.999 148.359V126.8L106 137.6V159.159L124.999 148.359Z" fill="#B4C5E1"/>
<path d="M100.686 152.05V154.088L104.28 156.132V154.088L100.625 152.05" fill="#B4C5E1"/>
<path opacity="0.5" d="M113.173 120.082L117.936 122.774L99.0726 133.657L94.2539 130.919L113.173 120.082Z" fill="#B4C5E1"/>
<path d="M94.3242 130.969V141.77L99.0728 144.471V133.671L94.3242 130.969Z" fill="#B4C5E1"/>
<path d="M25.999 114.6L44.998 103.8L25.999 93L7 103.8L25.999 114.6Z" fill="#E2EBF7"/>
<path d="M25.999 136.159V114.6L7 103.8V125.359L25.999 136.159Z" fill="white"/>
<path d="M44.999 125.359V103.8L26 114.6V136.159L44.999 125.359Z" fill="#B4C5E1"/>
<path d="M20.6858 129.05V131.088L24.2799 133.132V131.088L20.625 129.05" fill="#B4C5E1"/>
<path opacity="0.5" d="M33.1735 97.0817L37.9361 99.7737L19.0726 110.657L14.2539 107.919L33.1735 97.0817Z" fill="#B4C5E1"/>
<path d="M14.3242 107.969V118.77L19.0728 121.471V110.671L14.3242 107.969Z" fill="#B4C5E1"/>
<path d="M45.999 126L64.998 115.2L45.999 104.4L27 115.2L45.999 126Z" fill="#E2EBF7"/>
<path d="M45.999 147.559V126L27 115.2V136.759L45.999 147.559Z" fill="white"/>
<path d="M64.999 136.759V115.2L46 126V147.559L64.999 136.759Z" fill="#B4C5E1"/>
<path d="M40.6858 140.45V142.488L44.2799 144.532V142.488L40.625 140.45" fill="#B4C5E1"/>
<path opacity="0.5" d="M53.1735 108.482L57.9361 111.174L39.0726 122.057L34.2539 119.319L53.1735 108.482Z" fill="#B4C5E1"/>
<path d="M34.3242 119.369V130.17L39.0728 132.871V122.071L34.3242 119.369Z" fill="#B4C5E1"/>
<path d="M65.999 137.4L84.998 126.6L65.999 115.8L47 126.6L65.999 137.4Z" fill="#E2EBF7"/>
<path d="M65.999 158.959V137.4L47 126.6V148.159L65.999 158.959Z" fill="white"/>
<path d="M84.999 148.159V126.6L66 137.4V158.959L84.999 148.159Z" fill="#B4C5E1"/>
<path d="M60.6858 151.85V153.888L64.2799 155.932V153.888L60.625 151.85" fill="#B4C5E1"/>
<path opacity="0.5" d="M73.1735 119.882L77.9361 122.574L59.0726 133.457L54.2539 130.719L73.1735 119.882Z" fill="#B4C5E1"/>
<path d="M54.3242 130.769V141.57L59.0728 144.271V133.471L54.3242 130.769Z" fill="#B4C5E1"/>
<path d="M85.999 148.6L104.998 137.8L85.999 127L67 137.8L85.999 148.6Z" fill="#E2EBF7"/>
<path d="M85.999 170.159V148.6L67 137.8V159.359L85.999 170.159Z" fill="white"/>
<path d="M104.999 159.359V137.8L86 148.6V170.159L104.999 159.359Z" fill="#B4C5E1"/>
<path d="M80.6858 163.05V165.088L84.2799 167.132V165.088L80.625 163.05" fill="#B4C5E1"/>
<path opacity="0.5" d="M93.1735 131.082L97.9361 133.774L79.0726 144.657L74.2539 141.919L93.1735 131.082Z" fill="#B4C5E1"/>
<path d="M74.3242 141.969V152.77L79.0728 155.471V144.671L74.3242 141.969Z" fill="#B4C5E1"/>
<path d="M46.9563 84.6428L64.4224 74.7287L46.9563 64.8145L29.4902 74.7287L46.9563 84.6428Z" fill="#7EAE4E"/>
<path d="M46.9563 104.433V84.6428L29.4902 74.7286V94.5189L46.9563 104.433Z" fill="#8BBF56"/>
<path d="M64.4231 94.5189V74.7286L46.957 84.6428V104.433L64.4231 94.5189Z" fill="#719D46"/>
<path d="M42.0758 97.9067V99.778L45.3799 101.654V99.778L42.0156 97.9067" fill="#7EAE4E"/>
<path d="M53.5571 68.5613L57.9355 71.0325L40.594 81.0226L36.1641 78.5093L53.5571 68.5613Z" fill="#719D46"/>
<path d="M36.2266 78.5557V88.4698L40.592 90.9494V81.0353L36.2266 78.5557Z" fill="#7EAE4E"/>
<defs>
<filter id="filter0_f_792_33080" x="2.75977" y="85.7166" width="331.289" height="193.082" filterUnits="userSpaceOnUse" color-interpolation-filters="sRGB">
<feFlood flood-opacity="0" result="BackgroundImageFix"/>
<feBlend mode="normal" in="SourceGraphic" in2="BackgroundImageFix" result="shape"/>
<feGaussianBlur stdDeviation="1" result="effect1_foregroundBlur_792_33080"/>
</filter>
<linearGradient id="paint0_linear_792_33080" x1="232.077" y1="214.569" x2="154.096" y2="88.1" gradientUnits="userSpaceOnUse">
<stop stop-color="#0E3390" stop-opacity="0"/>
<stop offset="1" stop-color="#0E3390"/>
</linearGradient>
</defs>
</svg>
