<svg width="138" height="86" viewBox="0 0 138 86" fill="none" xmlns="http://www.w3.org/2000/svg">
<g style="mix-blend-mode:multiply" opacity="0.3" filter="url(#filter0_f_1011_41148)">
<path d="M63.8366 7.06976L135.5 49.5L73 91.5L3.23828 46.6744L63.8366 7.06976Z" fill="url(#paint0_linear_1011_41148)"/>
</g>
<g opacity="0.6" filter="url(#filter1_f_1011_41148)">
<path d="M71.6393 19.9645C53.8996 12.8854 28.9649 15.3027 15.915 25.3746C2.86516 35.4465 6.65196 49.317 24.3043 56.425C41.9566 63.5329 66.9786 61.0868 80.0285 51.0149C93.0784 40.9429 89.3498 27.0437 71.6393 19.9645ZM61.5605 43.5616C56.1716 47.7343 45.8599 48.7127 38.5193 45.8063C31.1788 42.8998 29.6349 37.1732 35.0238 32.9717C40.4127 28.7703 50.7245 27.8206 58.065 30.7271C65.4056 33.6336 66.9495 39.4465 61.5605 43.5616Z" fill="#7686AE"/>
<path d="M15.7104 19.4753L13.0305 21.5473L8.45723 25.0581L5.77734 27.13L11.5449 32.1948L16.4386 28.4538L21.3032 24.684L26.1969 20.9142L15.7104 19.4753Z" fill="#7686AE"/>
<path d="M90.2243 49.2595L87.5444 51.3315L82.9711 54.8422L80.2912 56.9142L69.8047 55.4753L74.6984 51.7343L79.563 47.9645L84.4567 44.1948L90.2243 49.2595Z" fill="#7686AE"/>
<path d="M82.1839 19.7343L78.5427 18.2667L72.3382 15.7919L68.697 14.353L59.4922 17.6912L66.1337 20.3386L72.7751 22.9861L79.3874 25.6336L82.1839 19.7343Z" fill="#7686AE"/>
<path d="M27.3032 62.0653L23.6621 60.5976L17.4867 58.1228L13.8164 56.6552L16.6128 50.7559L23.2251 53.4034L29.8666 56.0797L36.5081 58.7271L27.3032 62.0653Z" fill="#7686AE"/>
<path d="M49.3245 11.907L44.8386 12.3386L37.265 13.0868L32.7791 13.5185L30.3613 19.4465L38.4884 18.6696L46.6446 17.8638L54.8007 17.0868L49.3245 11.907Z" fill="#7686AE"/>
<path d="M63.2209 62.871L58.735 63.3027L51.1614 64.0509L46.6755 64.4825L41.1992 59.3027L49.3554 58.5257L57.5116 57.7199L65.6386 56.943L63.2209 62.871Z" fill="#7686AE"/>
<path d="M3.50511 47.2451L2.83514 44.7415L1.66997 40.5113L1 38.0077L10.3796 34.8422L11.6322 39.389L12.8556 43.9358L14.1082 48.4825L3.50511 47.2451Z" fill="#7686AE"/>
</g>
<path d="M82.1826 7.82733V17.2374L77.9297 13.1511L82.1826 7.82733Z" fill="#CBD7EA"/>
<path d="M71.6393 19.482C53.8996 12.4029 28.9649 14.8201 15.915 24.8921C2.86516 34.964 6.65196 48.9209 24.3043 55.9424C41.9566 62.964 66.9786 60.6043 80.0285 50.5324C93.0784 40.4604 89.3498 26.5612 71.6393 19.482ZM61.5605 43.1655C56.1716 47.3381 45.8599 48.3165 38.5193 45.4101C31.1788 42.5036 29.6349 36.777 35.0238 32.5755C40.4127 28.3741 50.7245 27.4245 58.065 30.3309C65.4056 33.2374 66.9494 38.964 61.5605 43.1655Z" fill="#CFDDEE"/>
<path d="M15.7104 18.9928L13.0305 21.0647L8.45723 24.5755L5.77734 26.6475L11.5449 31.741L16.4386 27.9712L21.3032 24.2014L26.1969 20.4316L15.7104 18.9928Z" fill="#D0DDEE"/>
<path d="M90.2223 48.777L87.5424 50.8489L82.9691 54.3597L80.2893 56.4316L69.8027 54.9928L74.6964 51.223L79.561 47.482L84.4547 43.7122L90.2223 48.777Z" fill="#D0DDEE"/>
<path d="M82.1839 19.2518L78.5427 17.7842L72.3382 15.3094L68.697 13.8705L59.4922 17.2086L66.1337 19.8561L72.7751 22.5036L79.3874 25.1511L82.1839 19.2518Z" fill="#D0DDEE"/>
<path d="M27.3032 61.554L23.6621 60.1151L17.4867 57.6403L13.8164 56.1727L16.6128 50.2734L23.2251 52.9209L29.8666 55.5683L36.5081 58.2158L27.3032 61.554Z" fill="#D0DDEE"/>
<path d="M49.3245 11.4245L44.8386 11.8561L37.265 12.6043L32.7791 13.036L30.3613 18.964L38.4884 18.1871L46.6446 17.3813L54.8007 16.6043L49.3245 11.4245Z" fill="#D0DDEE"/>
<path d="M63.2209 62.3885L58.735 62.8489L51.1614 63.5684L46.6755 64L41.1992 58.8202L49.3554 58.0432L57.5116 57.2374L65.6386 56.4604L63.2209 62.3885Z" fill="#D0DDEE"/>
<path d="M95.0009 37.8993V26.4748L81.9219 27.4532L83.1453 31.9712L84.3979 36.518L85.6213 41.0648L95.0009 37.8993Z" fill="#D0DDEE"/>
<path d="M3.50511 46.7626L2.83514 44.259L1.66997 40.0288L1 37.5252L2.83514 32.8345L10.3796 34.3597L11.6322 38.9065L12.8556 43.4532L14.1082 48L3.50511 46.7626Z" fill="#D0DDEE"/>
<path d="M5.77734 15.223V26.1007L10.2341 25.2086L12.4479 18.1871L5.77734 15.223Z" fill="#CBD7EA"/>
<path d="M87.4551 29.0072V40.4317L94.9995 37.8993V26.4748L87.4551 29.0072Z" fill="#CBD7EA"/>
<path d="M95.0009 26.4748L94.3309 23.9712L93.1658 19.741L92.4958 17.2374L81.9219 16.0288L83.1453 20.5468L84.3979 25.0935L85.6213 29.6403L95.0009 26.4748Z" fill="#E2EBF7"/>
<path d="M71.6393 8.05755C53.8996 0.978409 28.9649 3.39567 15.915 13.4676C2.86516 23.5396 6.65196 37.4101 24.3043 44.518C41.9566 51.6259 66.9786 49.1798 80.0285 39.1079C93.0784 29.036 89.3498 15.1367 71.6393 8.05755ZM61.5605 31.6547C56.1716 35.8273 45.8599 36.8057 38.5193 33.8993C31.1788 30.9928 29.6349 25.2662 35.0238 21.0647C40.4127 16.8633 50.7245 15.9137 58.065 18.8201C65.4056 21.7266 66.9495 27.5396 61.5605 31.6547Z" fill="#E2EBF7"/>
<path d="M15.7104 7.56836L13.0305 9.6403L8.45723 13.1511L5.77734 15.223L11.5449 20.2878L16.4386 16.5468L21.3032 12.777L26.1969 9.00721L15.7104 7.56836Z" fill="#E2EBF7"/>
<path d="M90.2243 37.3525L87.5444 39.4245L82.9711 42.9353L80.2912 45.0072L69.8047 43.5684L74.6984 39.8273L79.563 36.0576L84.4567 32.2878L90.2243 37.3525Z" fill="#E2EBF7"/>
<path d="M82.1839 7.82734L78.5427 6.35971L72.3382 3.88489L68.697 2.44604L59.4922 5.78417L66.1337 8.43166L72.7751 11.0791L79.3874 13.7266L82.1839 7.82734Z" fill="#E2EBF7"/>
<path d="M27.3032 50.1583L23.6621 48.6907L17.4867 46.2158L13.8164 44.7482L16.6128 38.8489L23.2251 41.4964L29.8666 44.1727L36.5081 46.8202L27.3032 50.1583Z" fill="#E2EBF7"/>
<path d="M49.3245 0L44.8386 0.431655L37.265 1.17986L32.7791 1.61151L30.3613 7.53957L38.4884 6.76259L46.6446 5.95683L54.8007 5.17986L49.3245 0Z" fill="#E2EBF7"/>
<path d="M63.2209 50.964L58.735 51.3957L51.1614 52.1439L46.6755 52.5756L41.1992 47.3957L49.3554 46.6187L57.5116 45.813L65.6386 45.036L63.2209 50.964Z" fill="#E2EBF7"/>
<path d="M3.50511 35.3381L2.83514 32.8345L1.66997 28.6043L1 26.1007L10.3796 22.9352L11.6322 27.482L12.8556 32.0288L14.1082 36.5755L3.50511 35.3381Z" fill="#E2EBF7"/>
<path d="M46.6738 52.5755V64L63.2192 62.3885V50.964L46.6738 52.5755Z" fill="#CBD7EA"/>
<path d="M80.2891 45.0072V56.4316L90.2221 48.777V37.3525L80.2891 45.0072Z" fill="#CBD7EA"/>
<path d="M27.3032 50.1583V61.554L13.8164 56.1727V44.7482L27.3032 50.1583Z" fill="#CBD7EA"/>
<path d="M3.50511 35.3381V46.7626L1 37.5252V26.1007L3.50511 35.3381Z" fill="#CBD7EA"/>
<path d="M34.7016 58.8777V47.4532L27.3027 50.1583V61.554L34.7016 58.8777Z" fill="#CBD7EA"/>
<path d="M12.0407 36.3166V47.741L3.50586 46.7626V35.3381L12.0407 36.3166Z" fill="#CBD7EA"/>
<path d="M42.2754 48.4029V59.8274L46.6739 64V52.5756L42.2754 48.4029Z" fill="#CBD7EA"/>
<path d="M63.2207 50.964L65.1724 46.187V57.6115L63.2207 62.3885V50.964Z" fill="#CBD7EA"/>
<path d="M71.8418 43.8561V55.2806L80.2893 56.4317V45.0072L71.8418 43.8561Z" fill="#CBD7EA"/>
<defs>
<filter id="filter0_f_1011_41148" x="1.23828" y="5.06976" width="136.262" height="88.4302" filterUnits="userSpaceOnUse" color-interpolation-filters="sRGB">
<feFlood flood-opacity="0" result="BackgroundImageFix"/>
<feBlend mode="normal" in="SourceGraphic" in2="BackgroundImageFix" result="shape"/>
<feGaussianBlur stdDeviation="1" result="effect1_foregroundBlur_1011_41148"/>
</filter>
<filter id="filter1_f_1011_41148" x="0" y="10.907" width="91.2246" height="54.5756" filterUnits="userSpaceOnUse" color-interpolation-filters="sRGB">
<feFlood flood-opacity="0" result="BackgroundImageFix"/>
<feBlend mode="normal" in="SourceGraphic" in2="BackgroundImageFix" result="shape"/>
<feGaussianBlur stdDeviation="0.5" result="effect1_foregroundBlur_1011_41148"/>
</filter>
<linearGradient id="paint0_linear_1011_41148" x1="59.9367" y1="83.7209" x2="22.0692" y2="19.2531" gradientUnits="userSpaceOnUse">
<stop stop-color="#B4C5E0" stop-opacity="0"/>
<stop offset="1" stop-color="#0E3391"/>
</linearGradient>
</defs>
</svg>
