<svg width="344" height="224" viewBox="0 0 344 224" fill="none" xmlns="http://www.w3.org/2000/svg">
<g clip-path="url(#clip0_851_128348)">
<g style="mix-blend-mode:multiply" opacity="0.4" filter="url(#filter0_f_851_128348)">
<path d="M290.007 28.7314L343.27 61.8455L67.8283 223.165L5.43555 188.824L290.007 28.7314Z" fill="url(#paint0_linear_851_128348)" fill-opacity="0.8"/>
</g>
<path d="M272.446 49.3551C272.403 48.919 272.244 48.5021 271.986 48.147L272.098 47.9725L271.121 47.5182C270.263 47.2384 269.084 47.5182 267.842 48.3708C265.56 49.974 263.933 53.0157 264.198 55.1587C264.246 55.6444 264.443 56.104 264.761 56.4754C264.761 56.4842 264.761 56.493 264.761 56.5018C265.177 56.906 265.696 57.1905 266.262 57.3247L266.411 57.0811C267.286 56.9852 268.118 56.6515 268.816 56.1166C271.095 54.5497 272.705 51.5113 272.446 49.3551Z" fill="#969BC2"/>
<path d="M273.192 49.7271C273.467 51.8701 271.837 54.9118 269.548 56.5149C267.26 58.1181 265.196 57.6835 264.911 55.5274C264.626 53.3712 266.266 50.3427 268.555 48.7395C270.844 47.1364 272.921 47.5742 273.192 49.7271Z" fill="#9EA2CB"/>
<path d="M272.738 50.313C272.957 52.0182 271.661 54.4344 269.846 55.715C268.031 56.9955 266.381 56.6433 266.166 54.9381C265.951 53.2329 267.243 50.8167 269.058 49.5361C270.873 48.2556 272.519 48.6045 272.738 50.313Z" fill="#B4C5E1"/>
<path d="M271.091 51.6495C271.197 52.4791 270.571 53.6477 269.69 54.283C268.809 54.9184 268.014 54.734 267.908 53.9078C267.802 53.0815 268.428 51.9096 269.309 51.2743C270.19 50.6389 270.985 50.8233 271.091 51.6495Z" fill="#9EA2CB"/>
<path d="M224.416 53.3416V56.0442L244.089 67.3024V64.5372L224.416 53.3416Z" fill="#E2EBF7"/>
<path d="M270.662 51.9491C270.741 52.5515 270.288 53.4107 269.638 53.865C268.989 54.3193 268.413 54.1942 268.337 53.5918C268.26 52.9893 268.711 52.1302 269.36 51.6759C270.009 51.2216 270.589 51.3533 270.662 51.9491Z" fill="#B4C5E1"/>
<path d="M263.887 54.2238C263.843 53.7888 263.684 53.3731 263.427 53.0189L263.539 52.8412L262.579 52.3869H262.559C261.701 52.1071 260.522 52.3869 259.279 53.2428C256.997 54.8459 255.371 57.8876 255.636 60.0306C255.684 60.5164 255.88 60.9759 256.199 61.3474C256.198 61.3562 256.198 61.365 256.199 61.3737C256.615 61.778 257.133 62.0624 257.699 62.1967L257.848 61.9531C258.724 61.8571 259.556 61.5234 260.253 60.9886C262.532 59.4085 264.165 56.3701 263.887 54.2238Z" fill="#969BC2"/>
<path d="M264.622 54.576C264.897 56.719 263.267 59.7607 260.978 61.3638C258.689 62.967 256.626 62.5325 256.341 60.3763C256.056 58.2201 257.696 55.1916 259.984 53.5884C262.273 51.9853 264.354 52.433 264.622 54.576Z" fill="#9EA2CB"/>
<path d="M264.166 55.1719C264.384 56.877 263.089 59.2933 261.274 60.5738C259.459 61.8544 257.809 61.5021 257.594 59.7969C257.378 58.0917 258.67 55.6755 260.486 54.395C262.301 53.1144 263.954 53.4765 264.166 55.1719Z" fill="#B4C5E1"/>
<path d="M262.529 56.5083C262.635 57.3379 262.009 58.5065 261.128 59.1418C260.247 59.7772 259.452 59.5928 259.346 58.7666C259.24 57.9403 259.866 56.7684 260.747 56.133C261.628 55.4977 262.423 55.6821 262.529 56.5083Z" fill="#9EA2CB"/>
<path d="M271.453 49.8357L259.816 56.8639V60.1557L262.642 58.4505L263.198 57.2029L268.697 53.8781L269.105 54.5562L271.453 53.1374V49.8357Z" fill="#BDCCE5"/>
<path d="M297.147 35.312C297.103 34.877 296.944 34.4613 296.687 34.1071L296.799 33.9294L295.829 33.4751H295.809C294.951 33.1953 293.772 33.4751 292.529 34.331C290.247 35.9341 288.621 38.9758 288.886 41.1188C288.934 41.6046 289.13 42.0641 289.449 42.4356C289.448 42.4443 289.448 42.4532 289.449 42.4619C289.865 42.8662 290.383 43.1506 290.949 43.2849L291.098 43.0413C291.974 42.9453 292.806 42.6116 293.503 42.0768C295.792 40.5098 297.402 37.4714 297.147 35.312Z" fill="#969BC2"/>
<path d="M297.893 35.6872C298.168 37.8302 296.539 40.8719 294.25 42.4751C291.961 44.0782 289.897 43.6437 289.612 41.4875C289.327 39.3313 290.967 36.3028 293.256 34.6997C295.545 33.0965 297.622 33.531 297.893 35.6872Z" fill="#9EA2CB"/>
<path d="M297.435 36.2699C297.654 37.9751 296.359 40.3913 294.543 41.6719C292.728 42.9524 291.079 42.6002 290.863 40.895C290.648 39.1898 291.94 36.7736 293.755 35.493C295.57 34.2125 297.217 34.5647 297.435 36.2699Z" fill="#B4C5E1"/>
<path d="M295.789 37.6097C295.895 38.4392 295.269 39.6079 294.388 40.2432C293.506 40.8785 292.711 40.6942 292.605 39.8679C292.499 39.0417 293.126 37.8698 294.007 37.2344C294.888 36.5991 295.683 36.7801 295.789 37.6097Z" fill="#9EA2CB"/>
<path d="M295.361 37.9092C295.441 38.5116 294.987 39.3708 294.338 39.8251C293.688 40.2794 293.112 40.1543 293.036 39.5519C292.96 38.9495 293.41 38.0903 294.059 37.636C294.709 37.1817 295.285 37.3068 295.361 37.9092Z" fill="#B4C5E1"/>
<path d="M288.584 40.1839C288.541 39.749 288.382 39.3333 288.124 38.9791L288.236 38.8046L287.276 38.3504H287.256C286.398 38.0706 285.219 38.3504 283.977 39.203C281.694 40.8061 280.068 43.8478 280.333 45.9908C280.381 46.4766 280.577 46.9361 280.896 47.3076C280.895 47.3163 280.895 47.3251 280.896 47.3339C281.312 47.7382 281.831 48.0226 282.397 48.1569L282.546 47.9133C283.421 47.8173 284.253 47.4836 284.951 46.9487C287.229 45.3686 288.856 42.3302 288.584 40.1839Z" fill="#969BC2"/>
<path d="M289.319 40.5362C289.594 42.6792 287.964 45.7209 285.675 47.324C283.387 48.9272 281.323 48.4926 281.038 46.3365C280.753 44.1803 282.393 41.1517 284.682 39.5486C286.971 37.9455 289.051 38.3932 289.319 40.5362Z" fill="#9EA2CB"/>
<path d="M288.869 41.132C289.087 42.8372 287.792 45.2534 285.977 46.534C284.162 47.8145 282.512 47.4623 282.297 45.7571C282.082 44.0519 283.373 41.6356 285.189 40.3551C287.004 39.0746 288.65 39.4334 288.869 41.132Z" fill="#B4C5E1"/>
<path d="M287.226 42.4652C287.332 43.2948 286.706 44.4634 285.825 45.0987C284.944 45.734 284.149 45.5497 284.043 44.7234C283.937 43.8972 284.563 42.7253 285.444 42.0899C286.325 41.4546 287.124 41.6389 287.226 42.4652Z" fill="#9EA2CB"/>
<path d="M300.311 34.0347L303.908 36.0987L303.977 31.9081L300.311 34.0347Z" fill="#9EA2CB"/>
<path d="M296.164 35.7959L284.527 42.824V46.1159L287.353 44.4403L287.909 43.1927L293.408 39.8679L293.815 40.546L296.164 39.1272V35.7959Z" fill="#BDCCE5"/>
<path d="M244 64.6952V67.3024L303.955 32.4941L303.896 36.1152L305.688 35.0124V29.4392L244 64.6952Z" fill="#A9B8DA"/>
<path d="M244.088 63.3752L225.595 52.7984L225.283 32.3888L234.78 31.3222L244.055 41.2768L244.088 63.3752Z" fill="#E2EBF7"/>
<path d="M303.358 29.2977V15.8175L298.201 10.2048L244.049 41.29V63.3982L248.531 60.8306V60.8734L303.358 29.2977Z" fill="#B4C5E1"/>
<path d="M225.283 32.4019L282.052 0L289.67 0.0230431L234.777 31.3354L225.283 32.4019Z" fill="#DFEAFC"/>
<path d="M234.844 31.3354L289.34 0.200806L298.201 10.2048L244.049 41.29L234.844 31.3354Z" fill="#CBD7EA"/>
<path d="M270.728 46.1883L270.264 45.9151L270.201 30.1141L270.665 30.3873L270.728 46.1883Z" fill="#A9B8DA"/>
<path d="M270.665 30.3708L270.201 30.0976L273.58 28.1719L274.044 28.4451L270.665 30.3708Z" fill="#CBD7EA"/>
<path d="M274.039 28.4451L274.083 44.2461L270.727 46.1718L270.664 30.3708L274.039 28.4451Z" fill="#B4C5E1"/>
<path d="M261.324 51.452L260.86 51.1788L260.797 35.3778L261.261 35.651L261.324 51.452Z" fill="#A9B8DA"/>
<path d="M261.261 35.6378L260.797 35.3646L264.176 33.4389L264.639 33.7121L261.261 35.6378Z" fill="#CBD7EA"/>
<path d="M264.635 33.7088L264.678 49.5098L261.323 51.4356L261.26 35.6345L264.635 33.7088Z" fill="#B4C5E1"/>
<path d="M251.909 56.719L251.446 56.4458L251.383 40.6448L251.847 40.918L251.909 56.719Z" fill="#A9B8DA"/>
<path d="M251.843 40.9048L251.379 40.6316L254.758 38.7059L255.221 38.9791L251.843 40.9048Z" fill="#CBD7EA"/>
<path d="M255.221 38.9758L255.264 54.7768L251.909 56.719L251.846 40.918L255.221 38.9758Z" fill="#B4C5E1"/>
<path d="M224.416 53.3284L225.585 52.6272L244.115 63.204L303.358 29.2977V28.2147L305.677 29.4458L244.115 64.7051L224.416 53.3284Z" fill="#CBD7EA"/>
<path d="M297.146 12.4597V17.8354L300.572 16.0808L297.146 12.4597Z" fill="white"/>
<path d="M230.939 72.5334C231.052 73.4357 230.376 74.7097 229.43 75.3916C228.483 76.0735 227.622 75.8816 227.508 74.9833C227.395 74.085 228.071 72.8069 229.017 72.125C229.964 71.4432 230.846 71.631 230.939 72.5334Z" fill="#9EA2CB"/>
<path d="M230.486 72.8599C230.57 73.5173 230.081 74.4524 229.381 74.9464C228.681 75.4405 228.058 75.3058 227.978 74.6484C227.897 73.991 228.382 73.0559 229.082 72.5619C229.782 72.0678 230.401 72.2026 230.486 72.8599Z" fill="#B4C5E1"/>
<path d="M221.249 78.1559C221.334 78.8133 220.845 79.7483 220.145 80.2424C219.445 80.7364 218.822 80.6017 218.741 79.9443C218.66 79.2869 219.146 78.3519 219.846 77.8578C220.545 77.3637 221.168 77.4944 221.249 78.1559Z" fill="#B4C5E1"/>
<path d="M205.943 87.5472C206.056 88.4496 205.38 89.7235 204.434 90.4054C203.487 91.0873 202.626 90.8954 202.512 89.9971C202.399 89.0988 203.075 87.8208 204.021 87.1389C204.968 86.457 205.825 86.6448 205.943 87.5472Z" fill="#9EA2CB"/>
<path d="M205.482 87.8738C205.567 88.5311 205.077 89.4662 204.377 89.9603C203.677 90.4543 203.055 90.3196 202.974 89.6622C202.893 89.0048 203.378 88.0698 204.078 87.5757C204.778 87.0816 205.397 87.2 205.482 87.8738Z" fill="#B4C5E1"/>
<path d="M196.245 93.1696C196.33 93.827 195.841 94.7621 195.141 95.2561C194.441 95.7502 193.818 95.6155 193.737 94.9581C193.656 94.3007 194.142 93.3656 194.842 92.8716C195.541 92.3775 196.164 92.5082 196.245 93.1696Z" fill="#B4C5E1"/>
<path d="M232.41 70.0508C232.363 69.5757 232.191 69.1219 231.913 68.736L232.034 68.5441L230.986 68.05H230.966C230.04 67.7438 228.77 68.05 227.431 68.981C224.971 70.7286 223.216 74.0441 223.511 76.3797C223.561 76.9131 223.773 77.418 224.118 77.8251C224.117 77.8346 224.117 77.8442 224.118 77.8537C224.567 78.2953 225.126 78.6057 225.736 78.752L225.898 78.4866C226.841 78.3828 227.738 78.0198 228.49 77.4372C230.95 75.6937 232.706 72.3782 232.41 70.0508Z" fill="#969BC2"/>
<path d="M233.206 70.4263C233.502 72.7619 231.746 76.0774 229.287 77.825C226.827 79.5726 224.594 79.099 224.303 76.7634C224.012 74.4278 225.763 71.1123 228.223 69.3647C230.682 67.6171 232.911 68.0908 233.206 70.4263Z" fill="#9EA2CB"/>
<path d="M232.718 71.0715C232.953 72.9294 231.557 75.563 229.599 76.9595C227.642 78.3559 225.866 77.9721 225.631 76.1142C225.397 74.2564 226.792 71.6228 228.75 70.2263C230.708 68.8299 232.467 69.2341 232.718 71.0715Z" fill="#B4C5E1"/>
<path d="M223.162 75.3384C223.115 74.8634 222.943 74.4096 222.664 74.0237L222.786 73.8318L221.746 73.3173H221.726C220.8 73.011 219.529 73.3173 218.19 74.2482C215.731 75.9958 213.975 79.3114 214.271 81.6469C214.32 82.1804 214.532 82.6853 214.877 83.0924C214.877 83.1019 214.877 83.1114 214.877 83.121C215.326 83.5626 215.886 83.873 216.496 84.0193L216.657 83.7538C217.6 83.6501 218.497 83.2871 219.25 82.7045C221.714 80.9855 223.469 77.674 223.162 75.3384Z" fill="#969BC2"/>
<path d="M223.972 75.7224C224.267 78.0579 222.512 81.3735 220.052 83.121C217.593 84.8686 215.36 84.395 215.069 82.0594C214.778 79.7239 216.529 76.4083 218.988 74.6607C221.448 72.9131 223.681 73.3868 223.972 75.7224Z" fill="#9EA2CB"/>
<path d="M223.482 76.3674C223.717 78.2252 222.321 80.8589 220.363 82.2553C218.405 83.6517 216.629 83.2679 216.395 81.4101C216.16 79.5522 217.556 76.9186 219.514 75.5222C221.472 74.1257 223.251 74.5095 223.482 76.3674Z" fill="#B4C5E1"/>
<path d="M221.71 77.8088C221.824 78.7112 221.148 79.9851 220.201 80.667C219.255 81.3489 218.393 81.157 218.28 80.2587C218.167 79.3604 218.842 78.0824 219.789 77.4005C220.735 76.7186 221.597 76.9268 221.71 77.8088Z" fill="#9EA2CB"/>
<path d="M231.345 70.5571L218.801 78.2171V81.8225L221.847 79.9606L222.445 78.6009L228.376 74.9832L228.812 75.7182L231.345 74.1748V70.5571Z" fill="#BDCCE5"/>
<path d="M207.385 85.0564C207.337 84.5813 207.166 84.1275 206.887 83.7416L207.009 83.5497L205.961 83.0556H205.941C205.014 82.7494 203.744 83.0556 202.405 83.9866C199.946 85.7342 198.19 89.0497 198.486 91.3853C198.535 91.9187 198.747 92.4236 199.092 92.8307C199.092 92.8402 199.092 92.8498 199.092 92.8593C199.541 93.3009 200.1 93.6113 200.71 93.7576L200.872 93.4922C201.815 93.3884 202.712 93.0254 203.465 92.4428C205.945 90.7075 207.7 87.3919 207.385 85.0564Z" fill="#969BC2"/>
<path d="M208.195 85.4402C208.49 87.7758 206.734 91.0913 204.275 92.8389C201.816 94.5865 199.583 94.1128 199.291 91.7773C199 89.4417 200.752 86.1262 203.211 84.3786C205.671 82.631 207.908 83.1169 208.195 85.4402Z" fill="#9EA2CB"/>
<path d="M207.714 86.0894C207.949 87.9472 206.553 90.5809 204.596 91.9773C202.638 93.3738 200.862 92.9899 200.627 91.1321C200.393 89.2743 201.788 86.6406 203.746 85.2442C205.704 83.8477 207.48 84.2275 207.714 86.0894Z" fill="#B4C5E1"/>
<path d="M198.172 90.3523C198.126 89.8776 197.955 89.4239 197.678 89.0375L197.8 88.8456L196.752 88.3515H196.732C195.805 88.0453 194.535 88.3515 193.196 89.2825C190.737 91.0301 188.981 94.3456 189.277 96.6812C189.326 97.2146 189.538 97.7195 189.883 98.1266C189.883 98.1361 189.883 98.1457 189.883 98.1552C190.332 98.5968 190.891 98.9072 191.501 99.0535L191.663 98.7881C192.606 98.6843 193.503 98.3213 194.256 97.7387C196.712 96.0034 198.487 92.6878 198.172 90.3523Z" fill="#969BC2"/>
<path d="M198.972 90.7362C199.267 93.0717 197.512 96.3872 195.052 98.1348C192.593 99.8824 190.36 99.4088 190.069 97.0732C189.778 94.7376 191.529 91.4221 193.988 89.6745C196.448 87.9269 198.677 88.4006 198.972 90.7362Z" fill="#9EA2CB"/>
<path d="M198.488 91.3854C198.722 93.2432 197.327 95.8769 195.369 97.2733C193.411 98.6698 191.635 98.2859 191.401 96.4281C191.166 94.5703 192.562 91.9366 194.52 90.5402C196.477 89.1437 198.249 89.5235 198.488 91.3854Z" fill="#B4C5E1"/>
<path d="M196.708 92.8429C196.822 93.7453 196.146 95.0193 195.199 95.7011C194.253 96.383 193.391 96.1911 193.278 95.2928C193.165 94.3945 193.84 93.1165 194.787 92.4346C195.733 91.7527 196.595 91.9406 196.708 92.8429Z" fill="#9EA2CB"/>
<path d="M206.343 85.571L193.799 93.231V96.8365L196.845 94.9745L197.443 93.6149L203.374 89.9972L203.811 90.7362L206.343 89.1887V85.571Z" fill="#BDCCE5"/>
<path d="M239.398 68.4706L186.557 99.47V94.0312L239.398 63.0319V68.4706Z" fill="#A9B8DA"/>
<path d="M186.558 93.9862L169.318 84.3831V89.5877L186.558 99.474V93.9862Z" fill="#BDCCE5"/>
<path d="M165.324 57.1159L165.443 57.1818V57.0458L165.324 57.1159Z" fill="#2B2B2D"/>
<path d="M239.279 67.8524L186.425 98.4924V78.6189L239.279 47.9789V67.8524Z" fill="#CBD7EB"/>
<path d="M187.854 79.4469L189.295 78.6247V95.1705L187.854 96.0077V79.4469Z" fill="#B4C5E1"/>
<path d="M191.091 77.5686L192.531 76.7464V93.2951L191.091 94.1293V77.5686Z" fill="#B4C5E1"/>
<path d="M194.329 75.6901L195.77 74.8709V91.4167L194.329 92.2539V75.6901Z" fill="#B4C5E1"/>
<path d="M197.567 73.8147L199.008 72.9925V89.5383L197.567 90.3755V73.8147Z" fill="#B4C5E1"/>
<path d="M200.804 71.936L202.244 71.1168V87.6625L200.804 88.4967V71.936Z" fill="#B4C5E1"/>
<path d="M204.042 70.0607L205.482 69.2385V85.7842L204.042 86.6214V70.0607Z" fill="#B4C5E1"/>
<path d="M207.279 68.1824L208.723 67.3633V83.909L207.279 84.7432V68.1824Z" fill="#B4C5E1"/>
<path d="M210.52 66.3041L211.961 65.4849V82.0307L210.52 82.8679V66.3041Z" fill="#B4C5E1"/>
<path d="M213.759 64.4284L215.199 63.6063V80.155L213.759 80.9892V64.4284Z" fill="#B4C5E1"/>
<path d="M216.995 62.5499L218.436 61.7307V78.2765L216.995 79.1107V62.5499Z" fill="#B4C5E1"/>
<path d="M220.232 60.6746L221.676 59.8524V76.3982L220.232 77.2354V60.6746Z" fill="#B4C5E1"/>
<path d="M223.474 58.7963L224.914 57.9771V74.5229L223.474 75.3571V58.7963Z" fill="#B4C5E1"/>
<path d="M226.709 56.921L228.152 56.0988V72.6446L226.709 73.4818V56.921Z" fill="#B4C5E1"/>
<path d="M229.946 55.0423L231.387 54.2201V70.7689L229.946 71.6031V55.0423Z" fill="#B4C5E1"/>
<path d="M233.185 53.1638L234.629 52.3446V68.8904L233.185 69.7276V53.1638Z" fill="#B4C5E1"/>
<path d="M236.425 51.2885L237.865 50.4663V67.0121L236.425 67.8493V51.2885Z" fill="#B4C5E1"/>
<path d="M222.151 38.0497L169.298 68.6897L186.44 78.6249L239.279 47.9789L222.151 38.0497Z" fill="#E2EBF7"/>
<path d="M172.139 68.6808L173.568 67.8526L187.854 76.1345L186.425 76.9627L172.139 68.6808Z" fill="#CBD7EB"/>
<path d="M175.379 66.8054L176.804 65.9772L191.09 74.2561L189.661 75.0843L175.379 66.8054Z" fill="#CBD7EB"/>
<path d="M178.614 64.9268L180.043 64.0986L194.328 72.3805L192.9 73.2087L178.614 64.9268Z" fill="#CBD7EB"/>
<path d="M181.852 63.0514L183.284 62.2232L197.566 70.5051L196.138 71.3303L181.852 63.0514Z" fill="#CBD7EB"/>
<path d="M185.092 61.176L186.521 60.3478L200.807 68.6267L199.378 69.4549L185.092 61.176Z" fill="#CBD7EB"/>
<path d="M188.327 59.2974L189.755 58.4692L204.041 66.7511L202.612 67.5793L188.327 59.2974Z" fill="#CBD7EB"/>
<path d="M191.566 57.422L192.995 56.5938L207.277 64.8727L205.852 65.7009L191.566 57.422Z" fill="#CBD7EB"/>
<path d="M194.803 55.5435L196.232 54.7153L210.518 62.9972L209.089 63.8254L194.803 55.5435Z" fill="#CBD7EB"/>
<path d="M198.044 53.6682L199.472 52.84L213.758 61.1219L212.329 61.947L198.044 53.6682Z" fill="#CBD7EB"/>
<path d="M201.28 51.7898L202.709 50.9647L216.994 59.2436L215.566 60.0717L201.28 51.7898Z" fill="#CBD7EB"/>
<path d="M204.521 49.9144L205.95 49.0862L220.232 57.3681L218.804 58.1963L204.521 49.9144Z" fill="#CBD7EB"/>
<path d="M207.757 48.039L209.185 47.2108L223.471 55.4897L222.042 56.3179L207.757 48.039Z" fill="#CBD7EB"/>
<path d="M210.996 46.1604L212.424 45.3322L226.707 53.6141L225.278 54.4423L210.996 46.1604Z" fill="#CBD7EB"/>
<path d="M214.233 44.2853L215.662 43.4571L229.947 51.739L228.519 52.5671L214.233 44.2853Z" fill="#CBD7EB"/>
<path d="M217.472 42.4066L218.901 41.5814L233.184 49.8603L231.755 50.6885L217.472 42.4066Z" fill="#CBD7EB"/>
<path d="M220.71 40.5313L222.138 39.7031L236.424 47.985L234.995 48.8132L220.71 40.5313Z" fill="#CBD7EB"/>
<path d="M169.281 88.5541V68.6805L186.424 78.6188V98.4923L169.281 88.5541Z" fill="white"/>
<path d="M184.824 79.4052L183.175 78.478L183.004 95.3268L184.654 96.269L184.824 79.4052Z" fill="#E2EBF7"/>
<path d="M181.615 77.5147L179.966 76.5965L179.825 93.5774L181.475 94.5076L181.615 77.5147Z" fill="#E2EBF7"/>
<path d="M178.41 75.6212L176.76 74.7119L176.647 91.8249L178.297 92.7461L178.41 75.6212Z" fill="#E2EBF7"/>
<path d="M175.199 73.7307L173.549 72.8275L173.466 90.0754L175.116 90.9846L175.199 73.7307Z" fill="#E2EBF7"/>
<path d="M171.988 71.8402L170.339 70.943L170.282 88.326L171.931 89.2232L171.988 71.8402Z" fill="#E2EBF7"/>
<path d="M175.704 106.012C175.818 106.914 175.142 108.188 174.196 108.87C173.249 109.552 172.387 109.36 172.274 108.461C172.161 107.563 172.836 106.285 173.783 105.603C174.73 104.921 175.611 105.109 175.704 106.012Z" fill="#9EA2CB"/>
<path d="M175.247 106.338C175.332 106.996 174.843 107.931 174.143 108.425C173.443 108.919 172.82 108.784 172.739 108.127C172.658 107.469 173.144 106.534 173.844 106.04C174.543 105.546 175.162 105.681 175.247 106.338Z" fill="#B4C5E1"/>
<path d="M166.013 111.634C166.098 112.291 165.608 113.227 164.909 113.721C164.209 114.215 163.586 114.08 163.505 113.422C163.424 112.765 163.909 111.83 164.609 111.336C165.309 110.842 165.932 110.973 166.013 111.634Z" fill="#B4C5E1"/>
<path d="M150.706 121.025C150.82 121.928 150.144 123.202 149.198 123.884C148.251 124.566 147.389 124.374 147.276 123.475C147.163 122.577 147.838 121.299 148.785 120.617C149.731 119.935 150.589 120.123 150.706 121.025Z" fill="#9EA2CB"/>
<path d="M150.243 121.352C150.328 122.009 149.839 122.944 149.139 123.438C148.439 123.932 147.816 123.798 147.735 123.14C147.654 122.483 148.14 121.548 148.84 121.054C149.539 120.56 150.158 120.678 150.243 121.352Z" fill="#B4C5E1"/>
<path d="M141.009 126.648C141.094 127.305 140.604 128.24 139.905 128.734C139.205 129.228 138.582 129.094 138.501 128.436C138.42 127.779 138.906 126.844 139.605 126.35C140.305 125.856 140.928 125.986 141.009 126.648Z" fill="#B4C5E1"/>
<path d="M177.174 103.529C177.127 103.054 176.955 102.6 176.676 102.214L176.798 102.022L175.75 101.528H175.73C174.803 101.222 173.533 101.528 172.194 102.459C169.735 104.207 167.979 107.522 168.275 109.858C168.324 110.391 168.536 110.896 168.881 111.303C168.881 111.313 168.881 111.322 168.881 111.332C169.33 111.773 169.89 112.084 170.499 112.23L170.661 111.965C171.604 111.861 172.501 111.498 173.254 110.915C175.714 109.172 177.469 105.856 177.174 103.529Z" fill="#969BC2"/>
<path d="M177.97 103.905C178.265 106.24 176.51 109.556 174.05 111.303C171.591 113.051 169.358 112.577 169.067 110.242C168.776 107.906 170.527 104.591 172.987 102.843C175.446 101.095 177.675 101.569 177.97 103.905Z" fill="#9EA2CB"/>
<path d="M177.482 104.55C177.717 106.408 176.321 109.041 174.363 110.438C172.405 111.834 170.629 111.45 170.395 109.592C170.16 107.735 171.556 105.101 173.514 103.705C175.472 102.308 177.231 102.712 177.482 104.55Z" fill="#B4C5E1"/>
<path d="M167.926 108.817C167.878 108.342 167.706 107.888 167.428 107.502L167.549 107.31L166.51 106.795H166.49C165.563 106.489 164.293 106.795 162.954 107.726C160.495 109.474 158.739 112.79 159.034 115.125C159.084 115.659 159.296 116.163 159.641 116.571C159.64 116.58 159.64 116.59 159.641 116.599C160.09 117.041 160.649 117.351 161.259 117.497L161.421 117.232C162.364 117.128 163.261 116.765 164.014 116.183C166.477 114.464 168.233 111.152 167.926 108.817Z" fill="#969BC2"/>
<path d="M168.734 109.201C169.029 111.536 167.274 114.852 164.814 116.599C162.355 118.347 160.122 117.873 159.83 115.538C159.539 113.202 161.291 109.887 163.75 108.139C166.21 106.391 168.443 106.865 168.734 109.201Z" fill="#9EA2CB"/>
<path d="M168.246 109.846C168.48 111.703 167.085 114.337 165.127 115.734C163.169 117.13 161.393 116.746 161.159 114.888C160.924 113.031 162.32 110.397 164.277 109C166.235 107.604 168.015 107.988 168.246 109.846Z" fill="#B4C5E1"/>
<path d="M166.474 111.287C166.587 112.189 165.912 113.463 164.965 114.145C164.019 114.827 163.157 114.635 163.044 113.737C162.93 112.839 163.606 111.561 164.552 110.879C165.499 110.197 166.361 110.405 166.474 111.287Z" fill="#9EA2CB"/>
<path d="M176.11 104.035L163.566 111.695V115.301L166.612 113.439L167.211 112.079L173.141 108.461L173.578 109.196L176.11 107.653V104.035Z" fill="#BDCCE5"/>
<path d="M152.15 118.535C152.103 118.06 151.931 117.606 151.653 117.22L151.774 117.028L150.727 116.534H150.706C149.78 116.228 148.51 116.534 147.171 117.465C144.711 119.212 142.956 122.528 143.251 124.864C143.301 125.397 143.513 125.902 143.858 126.309C143.857 126.319 143.857 126.328 143.858 126.338C144.307 126.779 144.866 127.09 145.476 127.236L145.638 126.97C146.581 126.867 147.478 126.504 148.231 125.921C150.71 124.186 152.466 120.87 152.15 118.535Z" fill="#969BC2"/>
<path d="M152.958 118.918C153.254 121.254 151.498 124.569 149.039 126.317C146.579 128.065 144.346 127.591 144.055 125.255C143.764 122.92 145.515 119.604 147.975 117.857C150.434 116.109 152.671 116.595 152.958 118.918Z" fill="#9EA2CB"/>
<path d="M152.476 119.568C152.711 121.425 151.315 124.059 149.357 125.456C147.399 126.852 145.624 126.468 145.389 124.61C145.154 122.752 146.55 120.119 148.508 118.722C150.466 117.326 152.241 117.706 152.476 119.568Z" fill="#B4C5E1"/>
<path d="M142.935 123.83C142.889 123.356 142.719 122.902 142.442 122.516L142.563 122.324L141.516 121.83H141.495C140.569 121.523 139.299 121.83 137.96 122.761C135.501 124.508 133.745 127.824 134.04 130.159C134.09 130.693 134.302 131.198 134.647 131.605C134.646 131.614 134.646 131.624 134.647 131.633C135.096 132.075 135.655 132.385 136.265 132.532L136.427 132.266C137.37 132.163 138.267 131.8 139.02 131.217C141.475 129.482 143.251 126.166 142.935 123.83Z" fill="#969BC2"/>
<path d="M143.738 124.214C144.033 126.55 142.277 129.865 139.818 131.613C137.359 133.361 135.126 132.887 134.834 130.551C134.543 128.216 136.295 124.9 138.754 123.153C141.214 121.405 143.442 121.879 143.738 124.214Z" fill="#9EA2CB"/>
<path d="M143.251 124.864C143.486 126.721 142.091 129.355 140.133 130.751C138.175 132.148 136.399 131.764 136.164 129.906C135.93 128.048 137.325 125.415 139.283 124.018C141.241 122.622 143.013 123.002 143.251 124.864Z" fill="#B4C5E1"/>
<path d="M141.472 126.321C141.585 127.224 140.91 128.498 139.963 129.179C139.017 129.861 138.155 129.669 138.042 128.771C137.928 127.873 138.604 126.595 139.551 125.913C140.497 125.231 141.359 125.419 141.472 126.321Z" fill="#9EA2CB"/>
<path d="M151.106 119.049L138.562 126.709V130.315L141.608 128.453L142.207 127.093L148.137 123.475L148.574 124.214L151.106 122.667V119.049Z" fill="#BDCCE5"/>
<path d="M184.162 101.949L131.32 132.948V127.509L184.162 96.5101V101.949Z" fill="#A9B8DA"/>
<path d="M131.322 127.464L114.082 117.861V123.066L131.322 132.952V127.464Z" fill="#BDCCE5"/>
<path d="M110.09 90.5941L110.208 90.66V90.5241L110.09 90.5941Z" fill="#2B2B2D"/>
<path d="M184.045 99.5987L131.191 130.239V110.365L184.045 79.7252V99.5987Z" fill="#CBD7EB"/>
<path d="M132.62 111.193L134.061 110.371V126.917L132.62 127.754V111.193Z" fill="#B4C5E1"/>
<path d="M135.856 109.315L137.297 108.493V125.041L135.856 125.876V109.315Z" fill="#B4C5E1"/>
<path d="M139.095 107.436L140.535 106.617V123.163L139.095 124V107.436Z" fill="#B4C5E1"/>
<path d="M142.333 105.561L143.773 104.739V121.285L142.333 122.122V105.561Z" fill="#B4C5E1"/>
<path d="M145.569 103.682L147.01 102.863V119.409L145.569 120.243V103.682Z" fill="#B4C5E1"/>
<path d="M148.808 101.807L150.248 100.985V117.531L148.808 118.368V101.807Z" fill="#B4C5E1"/>
<path d="M152.045 99.9287L153.488 99.1096V115.655L152.045 116.49V99.9287Z" fill="#B4C5E1"/>
<path d="M155.286 98.0504L156.727 97.2312V113.777L155.286 114.614V98.0504Z" fill="#B4C5E1"/>
<path d="M158.524 96.1748L159.965 95.3526V111.901L158.524 112.736V96.1748Z" fill="#B4C5E1"/>
<path d="M161.761 94.2962L163.201 93.4771V110.023L161.761 110.857V94.2962Z" fill="#B4C5E1"/>
<path d="M164.998 92.4209L166.441 91.5987V108.145L164.998 108.982V92.4209Z" fill="#B4C5E1"/>
<path d="M168.239 90.5426L169.68 89.7234V106.269L168.239 107.103V90.5426Z" fill="#B4C5E1"/>
<path d="M171.474 88.6673L172.918 87.8451V104.391L171.474 105.228V88.6673Z" fill="#B4C5E1"/>
<path d="M174.712 86.7886L176.152 85.9664V102.515L174.712 103.349V86.7886Z" fill="#B4C5E1"/>
<path d="M177.951 84.9101L179.395 84.0909V100.637L177.951 101.474V84.9101Z" fill="#B4C5E1"/>
<path d="M181.19 83.0348L182.631 82.2126V98.7584L181.19 99.5956V83.0348Z" fill="#B4C5E1"/>
<path d="M166.917 69.796L114.063 100.436L131.206 110.371L184.045 79.7252L166.917 69.796Z" fill="#E2EBF7"/>
<path d="M116.905 100.427L118.334 99.5989L132.619 107.881L131.191 108.709L116.905 100.427Z" fill="#CBD7EB"/>
<path d="M120.144 98.5516L121.57 97.7234L135.855 106.002L134.427 106.831L120.144 98.5516Z" fill="#CBD7EB"/>
<path d="M123.38 96.6731L124.808 95.8449L139.094 104.127L137.665 104.955L123.38 96.6731Z" fill="#CBD7EB"/>
<path d="M126.618 94.7977L128.049 93.9695L142.332 102.251L140.903 103.077L126.618 94.7977Z" fill="#CBD7EB"/>
<path d="M129.858 92.9223L131.287 92.0941L145.572 100.373L144.144 101.201L129.858 92.9223Z" fill="#CBD7EB"/>
<path d="M133.092 91.0437L134.521 90.2155L148.807 98.4974L147.378 99.3256L133.092 91.0437Z" fill="#CBD7EB"/>
<path d="M136.332 89.1683L137.76 88.3401L152.043 96.619L150.617 97.4472L136.332 89.1683Z" fill="#CBD7EB"/>
<path d="M139.569 87.2898L140.998 86.4616L155.283 94.7435L153.855 95.5717L139.569 87.2898Z" fill="#CBD7EB"/>
<path d="M142.809 85.4145L144.238 84.5863L158.523 92.8682L157.095 93.6934L142.809 85.4145Z" fill="#CBD7EB"/>
<path d="M146.046 83.5362L147.474 82.711L161.76 90.9899L160.331 91.8181L146.046 83.5362Z" fill="#CBD7EB"/>
<path d="M149.287 81.6607L150.715 80.8325L164.998 89.1144L163.569 89.9426L149.287 81.6607Z" fill="#CBD7EB"/>
<path d="M152.522 79.7853L153.951 78.9571L168.236 87.236L166.808 88.0642L152.522 79.7853Z" fill="#CBD7EB"/>
<path d="M155.761 77.9067L157.19 77.0786L171.473 85.3604L170.044 86.1886L155.761 77.9067Z" fill="#CBD7EB"/>
<path d="M158.999 76.0316L160.427 75.2034L174.713 83.4853L173.284 84.3134L158.999 76.0316Z" fill="#CBD7EB"/>
<path d="M162.238 74.1529L163.667 73.3277L177.949 81.6066L176.521 82.4348L162.238 74.1529Z" fill="#CBD7EB"/>
<path d="M165.475 72.2776L166.904 71.4494L181.189 79.7313L179.761 80.5595L165.475 72.2776Z" fill="#CBD7EB"/>
<path d="M114.047 120.3V100.427L131.189 110.365V130.239L114.047 120.3Z" fill="white"/>
<path d="M129.59 111.151L127.94 110.224L127.77 127.073L129.419 128.015L129.59 111.151Z" fill="#E2EBF7"/>
<path d="M126.381 109.261L124.731 108.343L124.591 125.324L126.24 126.254L126.381 109.261Z" fill="#E2EBF7"/>
<path d="M123.176 107.367L121.526 106.458L121.412 123.571L123.062 124.492L123.176 107.367Z" fill="#E2EBF7"/>
<path d="M119.965 105.477L118.315 104.574L118.231 121.822L119.881 122.731L119.965 105.477Z" fill="#E2EBF7"/>
<path d="M116.754 103.587L115.104 102.689L115.047 120.072L116.697 120.97L116.754 103.587Z" fill="#E2EBF7"/>
<path d="M120.472 137.758C120.585 138.66 119.91 139.934 118.963 140.616C118.017 141.298 117.155 141.106 117.042 140.208C116.928 139.309 117.604 138.031 118.551 137.35C119.497 136.668 120.379 136.855 120.472 137.758Z" fill="#9EA2CB"/>
<path d="M120.015 138.084C120.1 138.742 119.61 139.677 118.911 140.171C118.211 140.665 117.588 140.53 117.507 139.873C117.426 139.215 117.911 138.28 118.611 137.786C119.311 137.292 119.93 137.427 120.015 138.084Z" fill="#B4C5E1"/>
<path d="M110.78 143.38C110.865 144.038 110.376 144.973 109.676 145.467C108.976 145.961 108.353 145.826 108.272 145.169C108.192 144.511 108.677 143.576 109.377 143.082C110.077 142.588 110.7 142.719 110.78 143.38Z" fill="#B4C5E1"/>
<path d="M95.4739 152.772C95.5872 153.674 94.9116 154.948 93.9651 155.63C93.0185 156.312 92.1569 156.12 92.0436 155.222C91.9304 154.323 92.6059 153.045 93.5525 152.363C94.499 151.681 95.3566 151.869 95.4739 152.772Z" fill="#9EA2CB"/>
<path d="M95.0109 153.098C95.0959 153.756 94.6064 154.691 93.9066 155.185C93.2068 155.679 92.5838 155.544 92.5029 154.887C92.422 154.229 92.9075 153.294 93.6073 152.8C94.3071 152.306 94.926 152.424 95.0109 153.098Z" fill="#B4C5E1"/>
<path d="M85.7766 158.394C85.8615 159.052 85.372 159.987 84.6722 160.481C83.9724 160.975 83.3495 160.84 83.2686 160.183C83.1877 159.525 83.6731 158.59 84.3729 158.096C85.0727 157.602 85.6957 157.733 85.7766 158.394Z" fill="#B4C5E1"/>
<path d="M121.941 135.275C121.894 134.8 121.722 134.346 121.444 133.96L121.565 133.769L120.518 133.274H120.497C119.571 132.968 118.301 133.274 116.962 134.205C114.502 135.953 112.747 139.269 113.042 141.604C113.092 142.138 113.304 142.642 113.649 143.05C113.648 143.059 113.648 143.069 113.649 143.078C114.098 143.52 114.657 143.83 115.267 143.976L115.429 143.711C116.372 143.607 117.269 143.244 118.022 142.662C120.481 140.918 122.237 137.603 121.941 135.275Z" fill="#969BC2"/>
<path d="M122.738 135.651C123.033 137.986 121.277 141.302 118.818 143.05C116.359 144.797 114.126 144.323 113.834 141.988C113.543 139.652 115.295 136.337 117.754 134.589C120.214 132.842 122.442 133.315 122.738 135.651Z" fill="#9EA2CB"/>
<path d="M122.25 136.296C122.484 138.154 121.089 140.788 119.131 142.184C117.173 143.58 115.397 143.197 115.162 141.339C114.928 139.481 116.323 136.847 118.281 135.451C120.239 134.054 121.999 134.459 122.25 136.296Z" fill="#B4C5E1"/>
<path d="M112.693 140.563C112.646 140.088 112.474 139.634 112.196 139.248L112.317 139.056L111.277 138.542H111.257C110.331 138.236 109.061 138.542 107.722 139.473C105.262 141.22 103.507 144.536 103.802 146.871C103.852 147.405 104.064 147.91 104.409 148.317C104.408 148.326 104.408 148.336 104.409 148.345C104.858 148.787 105.417 149.097 106.027 149.244L106.189 148.978C107.132 148.875 108.029 148.512 108.781 147.929C111.245 146.21 113.001 142.899 112.693 140.563Z" fill="#969BC2"/>
<path d="M113.501 140.947C113.797 143.282 112.041 146.598 109.582 148.346C107.122 150.093 104.889 149.619 104.598 147.284C104.307 144.948 106.058 141.633 108.518 139.885C110.977 138.138 113.21 138.611 113.501 140.947Z" fill="#9EA2CB"/>
<path d="M113.013 141.592C113.248 143.45 111.852 146.083 109.894 147.48C107.937 148.876 106.161 148.492 105.926 146.635C105.692 144.777 107.087 142.143 109.045 140.747C111.003 139.35 112.783 139.734 113.013 141.592Z" fill="#B4C5E1"/>
<path d="M111.242 143.033C111.355 143.936 110.679 145.21 109.733 145.891C108.786 146.573 107.924 146.381 107.811 145.483C107.698 144.585 108.374 143.307 109.32 142.625C110.267 141.943 111.128 142.151 111.242 143.033Z" fill="#9EA2CB"/>
<path d="M120.878 135.782L108.334 143.442V147.047L111.38 145.185L111.979 143.825L117.909 140.208L118.346 140.943L120.878 139.399V135.782Z" fill="#BDCCE5"/>
<path d="M96.918 150.281C96.8707 149.806 96.699 149.352 96.4205 148.966L96.5418 148.774L95.4941 148.28H95.4739C94.5476 147.974 93.2774 148.28 91.9385 149.211C89.479 150.959 87.7234 154.274 88.0187 156.61C88.0684 157.143 88.2804 157.648 88.6255 158.055C88.6248 158.065 88.6248 158.074 88.6255 158.084C89.0745 158.525 89.6337 158.836 90.2436 158.982L90.4054 158.717C91.3485 158.613 92.2454 158.25 92.9983 157.667C95.478 155.932 97.2336 152.616 96.918 150.281Z" fill="#969BC2"/>
<path d="M97.726 150.665C98.0213 153 96.2657 156.316 93.8063 158.063C91.3468 159.811 89.1139 159.337 88.8227 157.002C88.5314 154.666 90.2829 151.351 92.7424 149.603C95.2018 147.855 97.4388 148.341 97.726 150.665Z" fill="#9EA2CB"/>
<path d="M97.2437 151.314C97.4783 153.172 96.0827 155.805 94.1249 157.202C92.167 158.598 90.3912 158.214 90.1566 156.357C89.922 154.499 91.3176 151.865 93.2754 150.469C95.2332 149.072 97.0091 149.452 97.2437 151.314Z" fill="#B4C5E1"/>
<path d="M87.703 155.577C87.6569 155.102 87.4866 154.648 87.2095 154.262L87.3309 154.07L86.2832 153.576H86.263C85.3366 153.27 84.0665 153.576 82.7275 154.507C80.2681 156.255 78.5125 159.57 78.8078 161.906C78.8575 162.439 79.0694 162.944 79.4146 163.351C79.4139 163.361 79.4139 163.37 79.4146 163.38C79.8635 163.821 80.4227 164.132 81.0326 164.278L81.1944 164.013C82.1376 163.909 83.0344 163.546 83.7874 162.963C86.2428 161.228 88.0186 157.912 87.703 155.577Z" fill="#969BC2"/>
<path d="M88.5053 155.961C88.8006 158.296 87.045 161.612 84.5856 163.359C82.1261 165.107 79.8932 164.633 79.602 162.298C79.3107 159.962 81.0623 156.647 83.5217 154.899C85.9811 153.151 88.21 153.625 88.5053 155.961Z" fill="#9EA2CB"/>
<path d="M88.0191 156.61C88.2537 158.468 86.8581 161.101 84.9003 162.498C82.9424 163.894 81.1666 163.51 80.932 161.653C80.6974 159.795 82.0929 157.161 84.0508 155.765C86.0086 154.368 87.7804 154.748 88.0191 156.61Z" fill="#B4C5E1"/>
<path d="M86.2395 158.067C86.3528 158.97 85.6773 160.244 84.7307 160.926C83.7841 161.608 82.9225 161.416 82.8093 160.517C82.696 159.619 83.3715 158.341 84.3181 157.659C85.2647 156.977 86.1263 157.165 86.2395 158.067Z" fill="#9EA2CB"/>
<path d="M95.874 150.795L83.3301 158.455V162.061L86.3761 160.199L86.9747 158.839L92.9049 155.222L93.3418 155.961L95.874 154.413V150.795Z" fill="#BDCCE5"/>
<path d="M128.929 133.695L76.0879 164.694V159.256L128.929 128.256V133.695Z" fill="#A9B8DA"/>
<path d="M76.0893 159.211L58.8496 149.608V154.812L76.0893 164.698V159.211Z" fill="#BDCCE5"/>
<path d="M54.8574 122.34L54.9758 122.406V122.27L54.8574 122.34Z" fill="#2B2B2D"/>
<path d="M128.812 131.345L75.9587 161.985V142.111L128.812 111.471V131.345Z" fill="#CBD7EB"/>
<path d="M77.3876 142.939L78.8281 142.117V158.663L77.3876 159.5V142.939Z" fill="#B4C5E1"/>
<path d="M80.6239 141.061L82.0645 140.239V156.788L80.6239 157.622V141.061Z" fill="#B4C5E1"/>
<path d="M83.8622 139.183L85.3027 138.363V154.909L83.8622 155.746V139.183Z" fill="#B4C5E1"/>
<path d="M87.1005 137.307L88.541 136.485V153.031L87.1005 153.868V137.307Z" fill="#B4C5E1"/>
<path d="M90.3368 135.429L91.7773 134.609V151.155L90.3368 151.989V135.429Z" fill="#B4C5E1"/>
<path d="M93.5751 133.553L95.0156 132.731V149.277L93.5751 150.114V133.553Z" fill="#B4C5E1"/>
<path d="M96.8124 131.675L98.2559 130.856V147.402L96.8124 148.236V131.675Z" fill="#B4C5E1"/>
<path d="M100.054 129.797L101.494 128.977V145.523L100.054 146.36V129.797Z" fill="#B4C5E1"/>
<path d="M103.292 127.921L104.732 127.099V143.648L103.292 144.482V127.921Z" fill="#B4C5E1"/>
<path d="M106.528 126.042L107.969 125.223V141.769L106.528 142.603V126.042Z" fill="#B4C5E1"/>
<path d="M109.765 124.167L111.209 123.345V139.891L109.765 140.728V124.167Z" fill="#B4C5E1"/>
<path d="M113.007 122.289L114.447 121.47V138.015L113.007 138.85V122.289Z" fill="#B4C5E1"/>
<path d="M116.242 120.413L117.686 119.591V136.137L116.242 136.974V120.413Z" fill="#B4C5E1"/>
<path d="M119.479 118.535L120.92 117.713V134.261L119.479 135.096V118.535Z" fill="#B4C5E1"/>
<path d="M122.719 116.656L124.162 115.837V132.383L122.719 133.22V116.656Z" fill="#B4C5E1"/>
<path d="M125.958 114.781L127.398 113.959V130.505L125.958 131.342V114.781Z" fill="#B4C5E1"/>
<path d="M111.685 101.542L58.8309 132.182L75.9736 142.118L128.812 111.472L111.685 101.542Z" fill="#E2EBF7"/>
<path d="M61.6725 132.173L63.1011 131.345L77.3867 139.627L75.9582 140.455L61.6725 132.173Z" fill="#CBD7EB"/>
<path d="M64.9118 130.298L66.3374 129.47L80.623 137.749L79.1945 138.577L64.9118 130.298Z" fill="#CBD7EB"/>
<path d="M68.1471 128.419L69.5757 127.591L83.8613 135.873L82.4328 136.701L68.1471 128.419Z" fill="#CBD7EB"/>
<path d="M71.3854 126.544L72.817 125.716L87.0996 133.998L85.671 134.823L71.3854 126.544Z" fill="#CBD7EB"/>
<path d="M74.6257 124.669L76.0542 123.84L90.3398 132.119L88.9113 132.947L74.6257 124.669Z" fill="#CBD7EB"/>
<path d="M77.86 122.79L79.2886 121.962L93.5742 130.244L92.1457 131.072L77.86 122.79Z" fill="#CBD7EB"/>
<path d="M81.0993 120.915L82.5279 120.086L96.8105 128.365L95.385 129.194L81.0993 120.915Z" fill="#CBD7EB"/>
<path d="M84.3366 119.036L85.7652 118.208L100.051 126.49L98.6222 127.318L84.3366 119.036Z" fill="#CBD7EB"/>
<path d="M87.5768 117.161L89.0054 116.333L103.291 124.614L101.862 125.44L87.5768 117.161Z" fill="#CBD7EB"/>
<path d="M90.8132 115.282L92.2417 114.457L106.527 122.736L105.099 123.564L90.8132 115.282Z" fill="#CBD7EB"/>
<path d="M94.0544 113.407L95.483 112.579L109.766 120.861L108.337 121.689L94.0544 113.407Z" fill="#CBD7EB"/>
<path d="M97.2897 111.532L98.7183 110.703L113.004 118.982L111.575 119.81L97.2897 111.532Z" fill="#CBD7EB"/>
<path d="M100.529 109.653L101.958 108.825L116.24 117.107L114.812 117.935L100.529 109.653Z" fill="#CBD7EB"/>
<path d="M103.766 107.778L105.195 106.95L119.48 115.232L118.052 116.06L103.766 107.778Z" fill="#CBD7EB"/>
<path d="M107.006 105.899L108.434 105.074L122.717 113.353L121.288 114.181L107.006 105.899Z" fill="#CBD7EB"/>
<path d="M110.243 104.024L111.671 103.196L125.957 111.478L124.528 112.306L110.243 104.024Z" fill="#CBD7EB"/>
<path d="M58.8143 152.047V132.173L75.957 142.111V161.985L58.8143 152.047Z" fill="white"/>
<path d="M74.3574 142.898L72.7077 141.971L72.5374 158.819L74.1871 159.762L74.3574 142.898Z" fill="#E2EBF7"/>
<path d="M71.1484 141.007L69.4987 140.089L69.3582 157.07L71.008 158L71.1484 141.007Z" fill="#E2EBF7"/>
<path d="M67.9434 139.114L66.2936 138.205L66.1801 155.317L67.8298 156.239L67.9434 139.114Z" fill="#E2EBF7"/>
<path d="M64.7324 137.223L63.0827 136.32L62.999 153.568L64.6487 154.477L64.7324 137.223Z" fill="#E2EBF7"/>
<path d="M61.5215 135.333L59.8718 134.436L59.815 151.819L61.4647 152.716L61.5215 135.333Z" fill="#E2EBF7"/>
<path d="M65.8665 170.075C65.9798 170.978 65.3042 172.252 64.3577 172.934C63.4111 173.615 62.5495 173.424 62.4362 172.525C62.323 171.627 62.9985 170.349 63.9451 169.667C64.8916 168.985 65.7735 169.173 65.8665 170.075Z" fill="#9EA2CB"/>
<path d="M65.4094 170.402C65.4943 171.059 65.0048 171.994 64.305 172.488C63.6052 172.983 62.9823 172.848 62.9014 172.19C62.8205 171.533 63.3059 170.598 64.0057 170.104C64.7055 169.61 65.3244 169.745 65.4094 170.402Z" fill="#B4C5E1"/>
<path d="M56.175 175.698C56.2599 176.355 55.7705 177.29 55.0707 177.784C54.3709 178.278 53.7479 178.144 53.667 177.486C53.5861 176.829 54.0715 175.894 54.7713 175.4C55.4711 174.906 56.0941 175.036 56.175 175.698Z" fill="#B4C5E1"/>
<path d="M40.8684 185.089C40.9817 185.992 40.3062 187.266 39.3596 187.947C38.4131 188.629 37.5514 188.437 37.4382 187.539C37.3249 186.641 38.0004 185.363 38.947 184.681C39.8936 183.999 40.7511 184.187 40.8684 185.089Z" fill="#9EA2CB"/>
<path d="M40.4055 185.416C40.4904 186.073 40.0009 187.008 39.3011 187.502C38.6013 187.996 37.9784 187.862 37.8975 187.204C37.8166 186.547 38.302 185.612 39.0018 185.118C39.7016 184.624 40.3205 184.742 40.4055 185.416Z" fill="#B4C5E1"/>
<path d="M31.1711 190.712C31.256 191.369 30.7666 192.304 30.0668 192.798C29.367 193.292 28.744 193.158 28.6631 192.5C28.5822 191.843 29.0676 190.908 29.7674 190.414C30.4672 189.92 31.0902 190.05 31.1711 190.712Z" fill="#B4C5E1"/>
<path d="M67.336 167.593C67.2886 167.118 67.1169 166.664 66.8385 166.278L66.9598 166.086L65.9121 165.592H65.8919C64.9656 165.286 63.6954 165.592 62.3564 166.523C59.897 168.271 58.1414 171.586 58.4367 173.922C58.4864 174.455 58.6983 174.96 59.0435 175.367C59.0428 175.377 59.0428 175.386 59.0435 175.396C59.4924 175.837 60.0516 176.148 60.6615 176.294L60.8233 176.029C61.7665 175.925 62.6633 175.562 63.4163 174.979C65.8757 173.236 67.6313 169.92 67.336 167.593Z" fill="#969BC2"/>
<path d="M68.1322 167.968C68.4275 170.304 66.672 173.619 64.2125 175.367C61.7531 177.115 59.5202 176.641 59.2289 174.305C58.9377 171.97 60.6892 168.654 63.1486 166.907C65.6081 165.159 67.8369 165.633 68.1322 167.968Z" fill="#9EA2CB"/>
<path d="M67.6441 168.614C67.8787 170.471 66.4831 173.105 64.5253 174.501C62.5674 175.898 60.7916 175.514 60.557 173.656C60.3224 171.798 61.7179 169.165 63.6758 167.768C65.6336 166.372 67.3933 166.776 67.6441 168.614Z" fill="#B4C5E1"/>
<path d="M58.0877 172.88C58.0403 172.405 57.8686 171.952 57.5901 171.566L57.7115 171.374L56.6719 170.859H56.6517C55.7253 170.553 54.4551 170.859 53.1162 171.79C50.6568 173.538 48.9012 176.853 49.1965 179.189C49.2462 179.722 49.4581 180.227 49.8032 180.634C49.8026 180.644 49.8026 180.653 49.8032 180.663C50.2522 181.105 50.8114 181.415 51.4213 181.561L51.5831 181.296C52.5262 181.192 53.4231 180.829 54.176 180.246C56.6395 178.527 58.3951 175.216 58.0877 172.88Z" fill="#969BC2"/>
<path d="M58.8959 173.264C59.1912 175.6 57.4356 178.915 54.9762 180.663C52.5167 182.411 50.2838 181.937 49.9926 179.601C49.7013 177.266 51.4529 173.95 53.9123 172.203C56.3718 170.455 58.6047 170.929 58.8959 173.264Z" fill="#9EA2CB"/>
<path d="M58.4077 173.909C58.6424 175.767 57.2468 178.401 55.2889 179.797C53.3311 181.194 51.5553 180.81 51.3207 178.952C51.086 177.094 52.4816 174.461 54.4395 173.064C56.3973 171.668 58.1772 172.052 58.4077 173.909Z" fill="#B4C5E1"/>
<path d="M56.636 175.351C56.7493 176.253 56.0738 177.527 55.1272 178.209C54.1806 178.891 53.319 178.699 53.2058 177.801C53.0925 176.902 53.768 175.624 54.7146 174.942C55.6612 174.261 56.5228 174.469 56.636 175.351Z" fill="#9EA2CB"/>
<path d="M66.2725 168.099L53.7285 175.759V179.365L56.7745 177.503L57.3732 176.143L63.3034 172.525L63.7402 173.26L66.2725 171.717V168.099Z" fill="#BDCCE5"/>
<path d="M42.3126 182.598C42.2652 182.123 42.0935 181.67 41.815 181.284L41.9364 181.092L40.8887 180.598H40.8684C39.9421 180.291 38.6719 180.598 37.333 181.529C34.8736 183.276 33.118 186.592 33.4133 188.927C33.463 189.461 33.6749 189.966 34.02 190.373C34.0194 190.382 34.0194 190.392 34.02 190.401C34.469 190.843 35.0282 191.153 35.6381 191.3L35.7999 191.034C36.743 190.93 37.6399 190.567 38.3928 189.985C40.8725 188.25 42.6281 184.934 42.3126 182.598Z" fill="#969BC2"/>
<path d="M43.1205 182.982C43.4158 185.318 41.6602 188.633 39.2008 190.381C36.7414 192.128 34.5084 191.655 34.2172 189.319C33.9259 186.984 35.6775 183.668 38.1369 181.921C40.5964 180.173 42.8333 180.659 43.1205 182.982Z" fill="#9EA2CB"/>
<path d="M42.6382 183.631C42.8728 185.489 41.4773 188.123 39.5194 189.519C37.5616 190.916 35.7857 190.532 35.5511 188.674C35.3165 186.816 36.7121 184.183 38.6699 182.786C40.6278 181.39 42.4036 181.769 42.6382 183.631Z" fill="#B4C5E1"/>
<path d="M33.0976 187.894C33.0514 187.42 32.8811 186.966 32.6041 186.579L32.7254 186.388L31.6777 185.894H31.6575C30.7312 185.587 29.461 185.894 28.1221 186.824C25.6626 188.572 23.907 191.888 24.2023 194.223C24.252 194.757 24.464 195.262 24.8091 195.669C24.8084 195.678 24.8084 195.688 24.8091 195.697C25.2581 196.139 25.8173 196.449 26.4272 196.595L26.589 196.33C27.5321 196.226 28.4289 195.863 29.1819 195.281C31.6373 193.545 33.4131 190.23 33.0976 187.894Z" fill="#969BC2"/>
<path d="M33.8998 188.278C34.1951 190.614 32.4395 193.929 29.9801 195.677C27.5206 197.424 25.2877 196.951 24.9965 194.615C24.7052 192.28 26.4568 188.964 28.9162 187.216C31.3757 185.469 33.6045 185.943 33.8998 188.278Z" fill="#9EA2CB"/>
<path d="M33.4136 188.927C33.6482 190.785 32.2526 193.419 30.2948 194.815C28.3369 196.212 26.5611 195.828 26.3265 193.97C26.0919 192.112 27.4875 189.479 29.4453 188.082C31.4032 186.686 33.1749 187.065 33.4136 188.927Z" fill="#B4C5E1"/>
<path d="M31.6341 190.385C31.7473 191.287 31.0718 192.561 30.1252 193.243C29.1787 193.925 28.3171 193.733 28.2038 192.835C28.0905 191.937 28.7661 190.659 29.7126 189.977C30.6592 189.295 31.5208 189.483 31.6341 190.385Z" fill="#9EA2CB"/>
<path d="M41.2686 183.113L28.7246 190.773V194.378L31.7706 192.517L32.3693 191.157L38.2994 187.539L38.7363 188.278L41.2686 186.731V183.113Z" fill="#BDCCE5"/>
<path d="M74.324 166.013L21.4824 197.012V191.573L74.324 160.574V166.013Z" fill="#A9B8DA"/>
<path d="M21.4839 191.528L4.24414 181.925V187.13L21.4839 197.016V191.528Z" fill="#BDCCE5"/>
<path d="M0.251953 154.658L0.370291 154.724V154.588L0.251953 154.658Z" fill="#2B2B2D"/>
<path d="M74.207 163.662L21.3532 194.302V174.429L74.207 143.789V163.662Z" fill="#CBD7EB"/>
<path d="M22.7821 175.257L24.2227 174.435V190.98L22.7821 191.818V175.257Z" fill="#B4C5E1"/>
<path d="M26.0185 173.379L27.459 172.556V189.105L26.0185 189.939V173.379Z" fill="#B4C5E1"/>
<path d="M29.2568 171.5L30.6973 170.681V187.227L29.2568 188.064V171.5Z" fill="#B4C5E1"/>
<path d="M32.495 169.625L33.9355 168.803V185.348L32.495 186.186V169.625Z" fill="#B4C5E1"/>
<path d="M35.7314 167.746L37.1719 166.927V183.473L35.7314 184.307V167.746Z" fill="#B4C5E1"/>
<path d="M38.9696 165.871L40.4102 165.048V181.594L38.9696 182.431V165.871Z" fill="#B4C5E1"/>
<path d="M42.2069 163.992L43.6504 163.173V179.719L42.2069 180.553V163.992Z" fill="#B4C5E1"/>
<path d="M45.4482 162.114L46.8887 161.295V177.841L45.4482 178.678V162.114Z" fill="#B4C5E1"/>
<path d="M48.6864 160.239L50.127 159.416V175.965L48.6864 176.799V160.239Z" fill="#B4C5E1"/>
<path d="M51.9228 158.36L53.3633 157.541V174.087L51.9228 174.921V158.36Z" fill="#B4C5E1"/>
<path d="M55.16 156.485L56.6035 155.662V172.208L55.16 173.045V156.485Z" fill="#B4C5E1"/>
<path d="M58.4013 154.606L59.8418 153.787V170.333L58.4013 171.167V154.606Z" fill="#B4C5E1"/>
<path d="M61.6366 152.731L63.0801 151.909V168.455L61.6366 169.292V152.731Z" fill="#B4C5E1"/>
<path d="M64.8739 150.852L66.3145 150.03V166.579L64.8739 167.413V150.852Z" fill="#B4C5E1"/>
<path d="M68.1131 148.974L69.5566 148.155V164.7L68.1131 165.538V148.974Z" fill="#B4C5E1"/>
<path d="M71.3525 147.099L72.793 146.276V162.822L71.3525 163.659V147.099Z" fill="#B4C5E1"/>
<path d="M57.0792 133.86L4.22541 164.5L21.3682 174.435L74.207 143.789L57.0792 133.86Z" fill="#E2EBF7"/>
<path d="M7.06706 164.491L8.49562 163.663L22.7812 171.945L21.3527 172.773L7.06706 164.491Z" fill="#CBD7EB"/>
<path d="M10.3064 162.615L11.732 161.787L26.0176 170.066L24.589 170.894L10.3064 162.615Z" fill="#CBD7EB"/>
<path d="M13.5417 160.737L14.9702 159.909L29.2559 168.191L27.8273 169.019L13.5417 160.737Z" fill="#CBD7EB"/>
<path d="M16.78 158.861L18.2115 158.033L32.4941 166.315L31.0656 167.14L16.78 158.861Z" fill="#CBD7EB"/>
<path d="M20.0202 156.986L21.4488 156.158L35.7344 164.437L34.3058 165.265L20.0202 156.986Z" fill="#CBD7EB"/>
<path d="M23.2546 155.107L24.6831 154.279L38.9688 162.561L37.5402 163.389L23.2546 155.107Z" fill="#CBD7EB"/>
<path d="M26.4939 153.232L27.9224 152.404L42.2051 160.683L40.7795 161.511L26.4939 153.232Z" fill="#CBD7EB"/>
<path d="M29.7311 151.354L31.1597 150.525L45.4453 158.807L44.0168 159.635L29.7311 151.354Z" fill="#CBD7EB"/>
<path d="M32.9714 149.478L34.3999 148.65L48.6855 156.932L47.257 157.757L32.9714 149.478Z" fill="#CBD7EB"/>
<path d="M36.2077 147.6L37.6363 146.775L51.9219 155.054L50.4933 155.882L36.2077 147.6Z" fill="#CBD7EB"/>
<path d="M39.449 145.724L40.8775 144.896L55.1602 153.178L53.7316 154.006L39.449 145.724Z" fill="#CBD7EB"/>
<path d="M42.6843 143.849L44.1128 143.021L58.3984 151.3L56.9699 152.128L42.6843 143.849Z" fill="#CBD7EB"/>
<path d="M45.9236 141.971L47.3521 141.142L61.6348 149.424L60.2062 150.252L45.9236 141.971Z" fill="#CBD7EB"/>
<path d="M49.1608 140.095L50.5894 139.267L64.875 147.549L63.4464 148.377L49.1608 140.095Z" fill="#CBD7EB"/>
<path d="M52.4001 138.217L53.8287 137.391L68.1113 145.67L66.6828 146.499L52.4001 138.217Z" fill="#CBD7EB"/>
<path d="M55.6374 136.341L57.0659 135.513L71.3516 143.795L69.923 144.623L55.6374 136.341Z" fill="#CBD7EB"/>
<path d="M4.20881 184.364V164.491L21.3516 174.429V194.302L4.20881 184.364Z" fill="white"/>
<path d="M19.752 175.215L18.1022 174.288L17.9319 191.137L19.5816 192.079L19.752 175.215Z" fill="#E2EBF7"/>
<path d="M16.543 173.325L14.8932 172.407L14.7528 189.387L16.4025 190.318L16.543 173.325Z" fill="#E2EBF7"/>
<path d="M13.3379 171.431L11.6882 170.522L11.5746 187.635L13.2243 188.556L13.3379 171.431Z" fill="#E2EBF7"/>
<path d="M10.127 169.541L8.47723 168.638L8.39355 185.886L10.0433 186.795L10.127 169.541Z" fill="#E2EBF7"/>
<path d="M6.91602 167.65L5.2663 166.753L5.20951 184.136L6.85923 185.033L6.91602 167.65Z" fill="#E2EBF7"/>
</g>
<defs>
<filter id="filter0_f_851_128348" x="3.43555" y="26.7314" width="341.834" height="198.434" filterUnits="userSpaceOnUse" color-interpolation-filters="sRGB">
<feFlood flood-opacity="0" result="BackgroundImageFix"/>
<feBlend mode="normal" in="SourceGraphic" in2="BackgroundImageFix" result="shape"/>
<feGaussianBlur stdDeviation="1" result="effect1_foregroundBlur_851_128348"/>
</filter>
<linearGradient id="paint0_linear_851_128348" x1="107.699" y1="182.156" x2="90.1532" y2="151.041" gradientUnits="userSpaceOnUse">
<stop stop-color="#0E3390" stop-opacity="0"/>
<stop offset="1" stop-color="#0E3390" stop-opacity="0.79"/>
</linearGradient>
<clipPath id="clip0_851_128348">
<rect width="344" height="223.639" fill="white"/>
</clipPath>
</defs>
</svg>
