<svg width="59" height="46" viewBox="0 0 59 46" fill="none" xmlns="http://www.w3.org/2000/svg">
<g clip-path="url(#clip0_851_128326)">
<g style="mix-blend-mode:multiply" opacity="0.8" filter="url(#filter0_f_851_128326)">
<path d="M56.7967 11.4176L29.4961 11.379L56.7967 27.22V11.4176Z" fill="#6579A9" fill-opacity="0.23"/>
<path d="M38.6866 16.5854L29.5117 21.9075L38.6002 27.2297L47.7751 21.8496L38.6866 16.5854Z" fill="#6579A9" fill-opacity="0.23"/>
<path d="M20.4238 27.2232L24.9761 24.5991L34.0453 29.857L29.5059 32.4907L20.4238 27.2232Z" fill="#6579A9" fill-opacity="0.23"/>
<path d="M2.25977 37.7647L6.81201 35.1374L15.8845 40.3952L11.3418 43.029L2.25977 37.7647Z" fill="#6579A9" fill-opacity="0.23"/>
<path d="M11.3418 32.4908L15.894 29.8635L24.9633 35.1245L20.4239 37.7583L11.3418 32.4908Z" fill="#6579A9" fill-opacity="0.23"/>
</g>
<path d="M55.4556 0.0385896L28.1582 0L55.4556 15.841V0.0385896Z" fill="#8BBF56"/>
<path d="M28.158 0L28.1484 5.44114L55.4267 21.0539L55.4555 15.841L28.158 0Z" fill="#58872A"/>
<path d="M37.35 5.20638L28.1719 10.5253L37.2636 15.8475L46.4385 10.4707L37.35 5.20638Z" fill="#8BBF56"/>
<path d="M46.3105 15.8475L46.3425 10.5832L37.2637 15.8475V21.0957L46.3105 15.8475Z" fill="#719D46"/>
<path d="M19.082 15.8443L23.6343 13.2169L32.7067 18.478L28.1641 21.1117L19.082 15.8443Z" fill="#8BBF56"/>
<path d="M32.7071 18.478L32.6943 23.7358L28.1484 26.3857L28.1644 21.1085L32.7071 18.478Z" fill="#719D46"/>
<path d="M19.0762 15.841V21.1117L28.1422 26.3824L28.1582 21.1085L19.0762 15.841Z" fill="#58872A"/>
<path d="M0.921875 26.3824L5.47412 23.7583L14.5434 29.0162L10.0039 31.6499L0.921875 26.3824Z" fill="#8BBF56"/>
<path d="M14.543 29.0162L14.5334 34.2772L9.98438 36.9271L10.0036 31.6499L14.543 29.0162Z" fill="#719D46"/>
<path d="M0.921875 26.3824V31.6564L9.98474 36.9271L10.0039 31.6499L0.921875 26.3824Z" fill="#58872A"/>
<path d="M10.0039 21.1117L14.5561 18.4844L23.6254 23.7455L19.0828 26.3792L10.0039 21.1117Z" fill="#8BBF56"/>
<path d="M23.625 23.7455L23.6122 29.0065L19.0664 31.6564L19.0824 26.3792L23.625 23.7455Z" fill="#719D46"/>
<path d="M10.0039 21.1117V26.3857L19.0668 31.6564L19.0828 26.3792L10.0039 21.1117Z" fill="#58872A"/>
<path d="M28.1641 10.5768V15.8507L37.2301 21.1214L37.2461 15.8443L28.1641 10.5768Z" fill="#58872A"/>
</g>
<defs>
<filter id="filter0_f_851_128326" x="0.259766" y="9.37901" width="58.5371" height="35.6499" filterUnits="userSpaceOnUse" color-interpolation-filters="sRGB">
<feFlood flood-opacity="0" result="BackgroundImageFix"/>
<feBlend mode="normal" in="SourceGraphic" in2="BackgroundImageFix" result="shape"/>
<feGaussianBlur stdDeviation="1" result="effect1_foregroundBlur_851_128326"/>
</filter>
<clipPath id="clip0_851_128326">
<rect width="58.97" height="45.1489" fill="white"/>
</clipPath>
</defs>
</svg>
