<svg width="158" height="131" viewBox="0 0 158 131" fill="none" xmlns="http://www.w3.org/2000/svg">
<g style="mix-blend-mode:multiply" opacity="0.3" filter="url(#filter0_f_1737_33859)">
<path d="M85.2275 9.5L156 46.875L100.5 129L4 62.7188L85.2275 9.5Z" fill="url(#paint0_linear_1737_33859)"/>
</g>
<g opacity="0.6" filter="url(#filter1_f_1737_33859)">
<path d="M95.6855 26.8271C71.9067 17.3145 38.4837 20.5627 20.9913 34.0969C3.4989 47.631 8.57482 66.2695 32.2364 75.8208C55.898 85.3721 89.4382 82.0852 106.931 68.551C124.423 55.0168 119.425 36.3397 95.6855 26.8271ZM82.1757 58.5357C74.9523 64.1427 61.1301 65.4575 51.2907 61.5519C41.4512 57.6463 39.3818 49.9512 46.6052 44.3055C53.8286 38.6598 67.6507 37.3837 77.4902 41.2893C87.3297 45.1949 89.3991 53.006 82.1757 58.5357Z" fill="#7686AE"/>
<path d="M20.7188 26.1699L17.1266 28.9541L10.9965 33.6717L7.4043 36.4559L15.1353 43.2616L21.695 38.2347L28.2156 33.169L34.7752 28.1034L20.7188 26.1699Z" fill="#7686AE"/>
<path d="M120.597 66.1925L117.005 68.9766L110.875 73.6943L107.283 76.4784L93.2266 74.545L99.7862 69.518L106.307 64.4524L112.866 59.3867L120.597 66.1925Z" fill="#7686AE"/>
<path d="M109.821 26.5182L104.94 24.5461L96.6234 21.2206L91.7427 19.2871L79.4043 23.7727L88.3067 27.3303L97.2091 30.8878L106.072 34.4454L109.821 26.5182Z" fill="#7686AE"/>
<path d="M36.2578 83.4001L31.3771 81.4279L23.0994 78.1024L18.1797 76.1303L21.9281 68.2031L30.7914 71.7607L39.6938 75.3569L48.5962 78.9145L36.2578 83.4001Z" fill="#7686AE"/>
<path d="M65.7761 16L59.7631 16.58L49.6112 17.5854L43.5982 18.1655L40.3574 26.1313L51.2511 25.0872L62.1839 24.0045L73.1166 22.9604L65.7761 16Z" fill="#7686AE"/>
<path d="M84.4013 84.4829L78.3882 85.063L68.2364 86.0684L62.2234 86.6484L54.8828 79.688L65.8156 78.6439L76.7483 77.5612L87.642 76.5171L84.4013 84.4829Z" fill="#7686AE"/>
<path d="M4.35792 63.4857L3.45987 60.1215L1.89805 54.4371L1 51.0729L13.5727 46.8193L15.2516 52.929L16.8915 59.0388L18.5705 65.1485L4.35792 63.4857Z" fill="#7686AE"/>
</g>
<path d="M109.82 10.5181V23.1628L104.119 17.6718L109.82 10.5181Z" fill="#CBD7EA"/>
<path d="M95.6854 26.1791C71.9067 16.6666 38.4837 19.9148 20.9913 33.4489C3.4989 46.9831 8.57482 65.7376 32.2364 75.1729C55.898 84.6081 89.4382 81.4372 106.931 67.9031C124.423 54.3689 119.425 35.6917 95.6854 26.1791ZM82.1757 58.0038C74.9523 63.6108 61.1301 64.9255 51.2907 61.02C41.4512 57.1144 39.3818 49.4193 46.6052 43.7736C53.8286 38.1279 67.6507 36.8518 77.4902 40.7574C87.3297 44.663 89.3991 52.3581 82.1757 58.0038Z" fill="#CFDDEE"/>
<path d="M20.7188 25.5215L17.1266 28.3057L10.9965 33.0233L7.4043 35.8075L15.1353 42.6519L21.695 37.5862L28.2156 32.5206L34.7752 27.4549L20.7188 25.5215Z" fill="#D0DDEE"/>
<path d="M120.597 65.544L117.005 68.3282L110.875 73.0458L107.283 75.83L93.2266 73.8966L99.7862 68.8309L106.307 63.8039L112.866 58.7383L120.597 65.544Z" fill="#D0DDEE"/>
<path d="M109.821 25.8698L104.94 23.8977L96.6234 20.5721L91.7427 18.6387L79.4043 23.1243L88.3067 26.6818L97.2091 30.2394L106.072 33.7969L109.821 25.8698Z" fill="#D0DDEE"/>
<path d="M36.2578 82.713L31.3771 80.7795L23.0994 77.454L18.1797 75.4819L21.9281 67.5547L30.7914 71.1122L39.6938 74.6698L48.5962 78.2274L36.2578 82.713Z" fill="#D0DDEE"/>
<path d="M65.7761 15.3516L59.7631 15.9316L49.6112 16.937L43.5982 17.517L40.3574 25.4829L51.2511 24.4388L62.1839 23.3561L73.1166 22.312L65.7761 15.3516Z" fill="#D0DDEE"/>
<path d="M84.4013 83.8345L78.3882 84.4532L68.2364 85.4199L62.2234 85.9999L54.8828 79.0395L65.8156 77.9954L76.7483 76.9127L87.642 75.8687L84.4013 83.8345Z" fill="#D0DDEE"/>
<path d="M127 50.9273V35.5757L109.469 36.8904L111.109 42.9615L112.788 49.0712L114.428 55.1809L127 50.9273Z" fill="#D0DDEE"/>
<path d="M4.35792 62.8374L3.45987 59.4732L1.89805 53.7888L1 50.4246L3.45987 44.1216L13.5727 46.171L15.2516 52.2808L16.8915 58.3905L18.5705 64.5002L4.35792 62.8374Z" fill="#D0DDEE"/>
<path d="M7.4043 20.4561V35.073L13.3783 33.8742L16.3457 24.439L7.4043 20.4561Z" fill="#CBD7EA"/>
<path d="M116.887 38.9786V54.3302L127 50.9273V35.5757L116.887 38.9786Z" fill="#CBD7EA"/>
<path d="M127 35.5754L126.102 32.2112L124.54 26.5269L123.642 23.1627L109.469 21.5386L111.109 27.6096L112.788 33.7193L114.428 39.829L127 35.5754Z" fill="#E2EBF7"/>
<path d="M95.6855 10.8271C71.9067 1.31451 38.4837 4.56271 20.9913 18.0969C3.4989 31.631 8.57482 50.2695 32.2364 59.8208C55.898 69.3721 89.4382 66.0852 106.931 52.551C124.423 39.0168 119.425 20.3397 95.6855 10.8271ZM82.1757 42.5357C74.9523 48.1427 61.1301 49.4575 51.2907 45.5519C41.4512 41.6463 39.3818 33.9512 46.6052 28.3055C53.8286 22.6598 67.6507 21.3837 77.4902 25.2893C87.3297 29.1949 89.3991 37.006 82.1757 42.5357Z" fill="#E2EBF7"/>
<path d="M20.7188 10.1699L17.1266 12.9541L10.9965 17.6717L7.4043 20.4559L15.1353 27.2616L21.695 22.2347L28.2156 17.169L34.7752 12.1034L20.7188 10.1699Z" fill="#E2EBF7"/>
<path d="M120.597 50.1925L117.005 52.9766L110.875 57.6943L107.283 60.4784L93.2266 58.545L99.7862 53.518L106.307 48.4524L112.866 43.3867L120.597 50.1925Z" fill="#E2EBF7"/>
<path d="M109.821 10.5182L104.94 8.5461L96.6234 5.22056L91.7427 3.28711L79.4043 7.77272L88.3067 11.3303L97.2091 14.8878L106.072 18.4454L109.821 10.5182Z" fill="#E2EBF7"/>
<path d="M36.2578 67.4001L31.3771 65.4279L23.0994 62.1024L18.1797 60.1303L21.9281 52.2031L30.7914 55.7607L39.6938 59.3569L48.5962 62.9145L36.2578 67.4001Z" fill="#E2EBF7"/>
<path d="M65.7761 0L59.7631 0.580036L49.6112 1.58543L43.5982 2.16547L40.3574 10.1313L51.2511 9.08723L62.1839 8.0045L73.1166 6.96043L65.7761 0Z" fill="#E2EBF7"/>
<path d="M84.4013 68.4829L78.3882 69.063L68.2364 70.0684L62.2234 70.6484L54.8828 63.688L65.8156 62.6439L76.7483 61.5612L87.642 60.5171L84.4013 68.4829Z" fill="#E2EBF7"/>
<path d="M4.35792 47.4857L3.45987 44.1215L1.89805 38.4371L1 35.0729L13.5727 30.8193L15.2516 36.929L16.8915 43.0388L18.5705 49.1485L4.35792 47.4857Z" fill="#E2EBF7"/>
<path d="M62.2227 70.6484V86L84.4005 83.8345V68.4829L62.2227 70.6484Z" fill="#CBD7EA"/>
<path d="M107.281 60.4784V75.83L120.596 65.544V50.1924L107.281 60.4784Z" fill="#CBD7EA"/>
<path d="M36.2578 67.4002V82.7131L18.1797 75.482V60.1304L36.2578 67.4002Z" fill="#CBD7EA"/>
<path d="M4.35792 47.4855V62.8371L1 50.4244V35.0728L4.35792 47.4855Z" fill="#CBD7EA"/>
<path d="M46.1754 79.1168V63.7651L36.2578 67.4V82.713L46.1754 79.1168Z" fill="#CBD7EA"/>
<path d="M15.7978 48.8006V64.1522L4.35742 62.8375V47.4858L15.7978 48.8006Z" fill="#CBD7EA"/>
<path d="M56.3281 65.0415V80.3931L62.224 86.0001V70.6485L56.3281 65.0415Z" fill="#CBD7EA"/>
<path d="M84.4004 68.483L87.0164 62.064V77.4156L84.4004 83.8347V68.483Z" fill="#CBD7EA"/>
<path d="M95.959 58.9316V74.2833L107.282 75.83V60.4784L95.959 58.9316Z" fill="#CBD7EA"/>
<defs>
<filter id="filter0_f_1737_33859" x="2" y="7.5" width="156" height="123.5" filterUnits="userSpaceOnUse" color-interpolation-filters="sRGB">
<feFlood flood-opacity="0" result="BackgroundImageFix"/>
<feBlend mode="normal" in="SourceGraphic" in2="BackgroundImageFix" result="shape"/>
<feGaussianBlur stdDeviation="1" result="effect1_foregroundBlur_1737_33859"/>
</filter>
<filter id="filter1_f_1737_33859" x="0" y="15" width="121.598" height="72.6484" filterUnits="userSpaceOnUse" color-interpolation-filters="sRGB">
<feFlood flood-opacity="0" result="BackgroundImageFix"/>
<feBlend mode="normal" in="SourceGraphic" in2="BackgroundImageFix" result="shape"/>
<feGaussianBlur stdDeviation="0.5" result="effect1_foregroundBlur_1737_33859"/>
</filter>
<linearGradient id="paint0_linear_1737_33859" x1="80" y1="112.5" x2="38.7481" y2="24.8539" gradientUnits="userSpaceOnUse">
<stop stop-color="#B4C5E0" stop-opacity="0"/>
<stop offset="1" stop-color="#0E3391"/>
</linearGradient>
</defs>
</svg>
