<svg width="137" height="135" viewBox="0 0 137 135" fill="none" xmlns="http://www.w3.org/2000/svg">
<g style="mix-blend-mode:multiply" opacity="0.4" filter="url(#filter0_f_1751_34157)">
<path d="M72 54L135 90.5L66.5 133L2 95.4999L72 54Z" fill="url(#paint0_linear_1751_34157)"/>
</g>
<path d="M96.2715 67.6743L24.7116 108.917V82.1666L96.2715 40.9233V67.6743Z" fill="#CBD7EB"/>
<path d="M26.6473 83.281L28.5977 82.1743V104.446L26.6473 105.573V83.281Z" fill="#B4C5E1"/>
<path d="M31.0282 80.7525L32.9785 79.6458V101.921L31.0282 103.044V80.7525Z" fill="#B4C5E1"/>
<path d="M35.4129 78.2245L37.3633 77.1218V99.3934L35.4129 100.52V78.2245Z" fill="#B4C5E1"/>
<path d="M39.7957 75.6997L41.7461 74.593V96.8646L39.7957 97.9915V75.6997Z" fill="#B4C5E1"/>
<path d="M44.1805 73.1708L46.1309 72.0681V94.3397L44.1805 95.4626V73.1708Z" fill="#B4C5E1"/>
<path d="M48.5633 70.6468L50.5137 69.54V91.8116L48.5633 92.9385V70.6468Z" fill="#B4C5E1"/>
<path d="M52.948 68.1183L54.9023 67.0156V89.2872L52.948 90.4101V68.1183Z" fill="#B4C5E1"/>
<path d="M57.3329 65.59L59.2832 64.4873V86.7589L57.3329 87.8858V65.59Z" fill="#B4C5E1"/>
<path d="M61.7176 63.0657L63.668 61.959V84.2346L61.7176 85.3575V63.0657Z" fill="#B4C5E1"/>
<path d="M66.1004 60.537L68.0508 59.4343V81.7059L66.1004 82.8288V60.537Z" fill="#B4C5E1"/>
<path d="M70.4831 58.0122L72.4375 56.9055V79.1771L70.4831 80.304V58.0122Z" fill="#B4C5E1"/>
<path d="M74.87 55.4843L76.8203 54.3816V76.6532L74.87 77.776V55.4843Z" fill="#B4C5E1"/>
<path d="M79.2526 52.96L81.207 51.8533V74.1248L79.2526 75.2518V52.96Z" fill="#B4C5E1"/>
<path d="M83.6375 50.4312L85.5879 49.3245V71.6001L83.6375 72.7229V50.4312Z" fill="#B4C5E1"/>
<path d="M88.0222 47.9025L89.9766 46.7998V69.0714L88.0222 70.1983V47.9025Z" fill="#B4C5E1"/>
<path d="M92.4071 45.3782L94.3574 44.2715V66.5431L92.4071 67.67V45.3782Z" fill="#B4C5E1"/>
<path d="M73.0818 27.5579L1.52184 68.8011L24.7318 82.1745L96.2715 40.9232L73.0818 27.5579Z" fill="#E2EBF7"/>
<path d="M5.36874 68.7891L7.3029 67.6743L26.6445 78.8222L24.7104 79.937L5.36874 68.7891Z" fill="#CBD7EB"/>
<path d="M9.75561 66.2647L11.6857 65.1499L31.0273 76.2938L29.0932 77.4086L9.75561 66.2647Z" fill="#CBD7EB"/>
<path d="M14.1344 63.7364L16.0685 62.6216L35.4102 73.7695L33.476 74.8843L14.1344 63.7364Z" fill="#CBD7EB"/>
<path d="M18.5172 61.2117L20.4554 60.0969L39.793 71.2448L37.8588 72.3556L18.5172 61.2117Z" fill="#CBD7EB"/>
<path d="M22.9039 58.6873L24.8381 57.5725L44.1797 68.7164L42.2455 69.8312L22.9039 58.6873Z" fill="#CBD7EB"/>
<path d="M27.2848 56.1587L29.2189 55.0439L48.5605 66.1919L46.6264 67.3066L27.2848 56.1587Z" fill="#CBD7EB"/>
<path d="M31.6716 53.6343L33.6058 52.5195L52.9434 63.6634L51.0132 64.7782L31.6716 53.6343Z" fill="#CBD7EB"/>
<path d="M36.0563 51.1055L37.9904 49.9907L57.332 61.1386L55.3979 62.2534L36.0563 51.1055Z" fill="#CBD7EB"/>
<path d="M40.441 48.5816L42.3752 47.4668L61.7168 58.6147L59.7826 59.7255L40.441 48.5816Z" fill="#CBD7EB"/>
<path d="M44.8238 46.0529L46.758 44.9421L66.0996 56.086L64.1654 57.2008L44.8238 46.0529Z" fill="#CBD7EB"/>
<path d="M49.2087 43.5286L51.1429 42.4138L70.4805 53.5617L68.5463 54.6765L49.2087 43.5286Z" fill="#CBD7EB"/>
<path d="M53.5914 41.0042L55.5256 39.8894L74.8672 51.0333L72.933 52.1481L53.5914 41.0042Z" fill="#CBD7EB"/>
<path d="M57.9763 38.4756L59.9105 37.3608L79.248 48.5088L77.3139 49.6235L57.9763 38.4756Z" fill="#CBD7EB"/>
<path d="M62.3609 35.9512L64.2951 34.8364L83.6367 45.9843L81.7026 47.0991L62.3609 35.9512Z" fill="#CBD7EB"/>
<path d="M66.7458 33.4225L68.68 32.3118L88.0176 43.4556L86.0834 44.5704L66.7458 33.4225Z" fill="#CBD7EB"/>
<path d="M71.1285 30.8982L73.0627 29.7834L92.4043 40.9314L90.4701 42.0462L71.1285 30.8982Z" fill="#CBD7EB"/>
<path d="M1.50099 95.54V68.7891L24.7109 82.1666V108.917L1.50099 95.54Z" fill="white"/>
<path d="M22.5449 83.2251L20.3113 81.9771L20.0807 104.657L22.3143 105.925L22.5449 83.2251Z" fill="#E2EBF7"/>
<path d="M18.2012 80.6805L15.9676 79.4446L15.7774 102.302L18.011 103.554L18.2012 80.6805Z" fill="#E2EBF7"/>
<path d="M13.8594 78.1316L11.6258 76.9077L11.472 99.9427L13.7056 101.183L13.8594 78.1316Z" fill="#E2EBF7"/>
<path d="M9.51367 75.5869L7.28007 74.3711L7.16677 97.5878L9.40037 98.8117L9.51367 75.5869Z" fill="#E2EBF7"/>
<path d="M5.16602 73.0424L2.93243 71.8347L2.85555 95.2332L5.08913 96.4409L5.16602 73.0424Z" fill="#E2EBF7"/>
<path d="M96.2715 40.1164L24.7116 81.3596V54.6087L96.2715 13.3655V40.1164Z" fill="#CBD7EB"/>
<path d="M26.6473 55.7232L28.5977 54.6165V76.888L26.6473 78.0149V55.7232Z" fill="#B4C5E1"/>
<path d="M31.0282 53.1946L32.9785 52.0879V74.3635L31.0282 75.4864V53.1946Z" fill="#B4C5E1"/>
<path d="M35.4129 50.6664L37.3633 49.5637V71.8353L35.4129 72.9622V50.6664Z" fill="#B4C5E1"/>
<path d="M39.7957 48.1419L41.7461 47.0352V69.3067L39.7957 70.4336V48.1419Z" fill="#B4C5E1"/>
<path d="M44.1805 45.6129L46.1309 44.5103V66.7818L44.1805 67.9047V45.6129Z" fill="#B4C5E1"/>
<path d="M48.5633 43.0889L50.5137 41.9822V64.2538L48.5633 65.3807V43.0889Z" fill="#B4C5E1"/>
<path d="M52.948 40.5604L54.9023 39.4578V61.7294L52.948 62.8522V40.5604Z" fill="#B4C5E1"/>
<path d="M57.3329 38.0321L59.2832 36.9294V59.201L57.3329 60.3279V38.0321Z" fill="#B4C5E1"/>
<path d="M61.7176 35.5078L63.668 34.4011V56.6767L61.7176 57.7996V35.5078Z" fill="#B4C5E1"/>
<path d="M66.1004 32.9791L68.0508 31.8765V54.1481L66.1004 55.2709V32.9791Z" fill="#B4C5E1"/>
<path d="M70.4831 30.4544L72.4375 29.3477V51.6192L70.4831 52.7462V30.4544Z" fill="#B4C5E1"/>
<path d="M74.87 27.9264L76.8203 26.8237V49.0953L74.87 50.2182V27.9264Z" fill="#B4C5E1"/>
<path d="M79.2526 25.4021L81.207 24.2954V46.567L79.2526 47.6939V25.4021Z" fill="#B4C5E1"/>
<path d="M83.6375 22.8733L85.5879 21.7666V44.0422L83.6375 45.1651V22.8733Z" fill="#B4C5E1"/>
<path d="M88.0222 20.3446L89.9766 19.2419V41.5135L88.0222 42.6404V20.3446Z" fill="#B4C5E1"/>
<path d="M92.4071 17.8203L94.3574 16.7136V38.9852L92.4071 40.1121V17.8203Z" fill="#B4C5E1"/>
<path d="M73.0818 0L1.52184 41.2432L24.7318 54.6167L96.2715 13.3654L73.0818 0Z" fill="#E2EBF7"/>
<path d="M5.36874 41.2315L7.3029 40.1167L26.6445 51.2646L24.7104 52.3794L5.36874 41.2315Z" fill="#CBD7EB"/>
<path d="M9.75561 38.7068L11.6857 37.592L31.0273 48.7359L29.0932 49.8507L9.75561 38.7068Z" fill="#CBD7EB"/>
<path d="M14.1344 36.1785L16.0685 35.0637L35.4102 46.2116L33.476 47.3264L14.1344 36.1785Z" fill="#CBD7EB"/>
<path d="M18.5172 33.6538L20.4554 32.5391L39.793 43.687L37.8588 44.7977L18.5172 33.6538Z" fill="#CBD7EB"/>
<path d="M22.9039 31.1294L24.8381 30.0146L44.1797 41.1585L42.2455 42.2733L22.9039 31.1294Z" fill="#CBD7EB"/>
<path d="M27.2848 28.6009L29.2189 27.4861L48.5605 38.634L46.6264 39.7488L27.2848 28.6009Z" fill="#CBD7EB"/>
<path d="M31.6716 26.0765L33.6058 24.9617L52.9434 36.1055L51.0132 37.2203L31.6716 26.0765Z" fill="#CBD7EB"/>
<path d="M36.0563 23.5477L37.9904 22.4329L57.332 33.5808L55.3979 34.6956L36.0563 23.5477Z" fill="#CBD7EB"/>
<path d="M40.441 21.0237L42.3752 19.9089L61.7168 31.0568L59.7826 32.1676L40.441 21.0237Z" fill="#CBD7EB"/>
<path d="M44.8238 18.495L46.758 17.3843L66.0996 28.5281L64.1654 29.6429L44.8238 18.495Z" fill="#CBD7EB"/>
<path d="M49.2087 15.9707L51.1429 14.856L70.4805 26.0039L68.5463 27.1187L49.2087 15.9707Z" fill="#CBD7EB"/>
<path d="M53.5914 13.4463L55.5256 12.3315L74.8672 23.4754L72.933 24.5902L53.5914 13.4463Z" fill="#CBD7EB"/>
<path d="M57.9763 10.9178L59.9105 9.80298L79.248 20.9509L77.3139 22.0657L57.9763 10.9178Z" fill="#CBD7EB"/>
<path d="M62.3609 8.39336L64.2951 7.27856L83.6367 18.4265L81.7026 19.5413L62.3609 8.39336Z" fill="#CBD7EB"/>
<path d="M66.7458 5.8649L68.68 4.75415L88.0176 15.898L86.0834 17.0128L66.7458 5.8649Z" fill="#CBD7EB"/>
<path d="M71.1285 3.34038L73.0627 2.22559L92.4043 13.3735L90.4701 14.4883L71.1285 3.34038Z" fill="#CBD7EB"/>
<path d="M1.50099 67.9821V41.2312L24.7109 54.6087V81.3596L1.50099 67.9821Z" fill="white"/>
<path d="M22.5449 55.6673L20.3113 54.4192L20.0807 77.0987L22.3143 78.367L22.5449 55.6673Z" fill="#E2EBF7"/>
<path d="M18.2012 53.1224L15.9676 51.8865L15.7774 74.7437L18.011 75.9958L18.2012 53.1224Z" fill="#E2EBF7"/>
<path d="M13.8594 50.5737L11.6258 49.3499L11.472 72.3848L13.7056 73.6248L13.8594 50.5737Z" fill="#E2EBF7"/>
<path d="M9.51367 48.0287L7.28007 46.813L7.16677 70.0297L9.40037 71.2536L9.51367 48.0287Z" fill="#E2EBF7"/>
<path d="M5.16602 45.4843L2.93243 44.2766L2.85555 67.6751L5.08913 68.8828L5.16602 45.4843Z" fill="#E2EBF7"/>
<path d="M120.844 82.0156L49.2838 123.259V96.5079L120.844 55.2646V82.0156Z" fill="#CBD7EB"/>
<path d="M51.2196 97.6223L53.1699 96.5156V118.787L51.2196 119.914V97.6223Z" fill="#B4C5E1"/>
<path d="M55.6004 95.0938L57.5508 93.9871V116.263L55.6004 117.386V95.0938Z" fill="#B4C5E1"/>
<path d="M59.9852 92.5658L61.9355 91.4631V113.735L59.9852 114.862V92.5658Z" fill="#B4C5E1"/>
<path d="M64.368 90.041L66.3184 88.9343V111.206L64.368 112.333V90.041Z" fill="#B4C5E1"/>
<path d="M68.7528 87.5121L70.7031 86.4094V108.681L68.7528 109.804V87.5121Z" fill="#B4C5E1"/>
<path d="M73.1356 84.9881L75.0859 83.8813V106.153L73.1356 107.28V84.9881Z" fill="#B4C5E1"/>
<path d="M77.5202 82.4596L79.4746 81.3569V103.629L77.5202 104.751V82.4596Z" fill="#B4C5E1"/>
<path d="M81.9051 79.9313L83.8555 78.8286V101.1L81.9051 102.227V79.9313Z" fill="#B4C5E1"/>
<path d="M86.2899 77.407L88.2402 76.3003V98.5759L86.2899 99.6988V77.407Z" fill="#B4C5E1"/>
<path d="M90.6727 74.8783L92.623 73.7756V96.0472L90.6727 97.1701V74.8783Z" fill="#B4C5E1"/>
<path d="M95.0554 72.3535L97.0098 71.2468V93.5184L95.0554 94.6453V72.3535Z" fill="#B4C5E1"/>
<path d="M99.4422 69.8256L101.393 68.7229V90.9945L99.4422 92.1174V69.8256Z" fill="#B4C5E1"/>
<path d="M103.825 67.3013L105.779 66.1946V88.4662L103.825 89.5931V67.3013Z" fill="#B4C5E1"/>
<path d="M108.21 64.7725L110.16 63.6658V85.9414L108.21 87.0643V64.7725Z" fill="#B4C5E1"/>
<path d="M112.594 62.2438L114.549 61.1411V83.4127L112.594 84.5396V62.2438Z" fill="#B4C5E1"/>
<path d="M116.979 59.7195L118.93 58.6128V80.8844L116.979 82.0113V59.7195Z" fill="#B4C5E1"/>
<path d="M97.654 41.8994L26.0941 83.1426L49.304 96.5161L120.844 55.2648L97.654 41.8994Z" fill="#E2EBF7"/>
<path d="M29.943 83.1309L31.8771 82.0161L51.2188 93.164L49.2846 94.2788L29.943 83.1309Z" fill="#CBD7EB"/>
<path d="M34.3298 80.6065L36.26 79.4917L55.6016 90.6356L53.6674 91.7504L34.3298 80.6065Z" fill="#CBD7EB"/>
<path d="M38.7086 78.0777L40.6428 76.9629L59.9844 88.1108L58.0502 89.2256L38.7086 78.0777Z" fill="#CBD7EB"/>
<path d="M43.0914 75.5535L45.0296 74.4387L64.3672 85.5866L62.433 86.6974L43.0914 75.5535Z" fill="#CBD7EB"/>
<path d="M47.4781 73.0288L49.4123 71.9141L68.7539 83.0579L66.8197 84.1727L47.4781 73.0288Z" fill="#CBD7EB"/>
<path d="M51.859 70.5003L53.7931 69.3855L73.1348 80.5334L71.2006 81.6482L51.859 70.5003Z" fill="#CBD7EB"/>
<path d="M56.2478 67.9759L58.182 66.8611L77.5195 78.005L75.5894 79.1197L56.2478 67.9759Z" fill="#CBD7EB"/>
<path d="M60.6305 65.4471L62.5646 64.3323L81.9062 75.4802L79.9721 76.595L60.6305 65.4471Z" fill="#CBD7EB"/>
<path d="M65.0152 62.9229L66.9494 61.8081L86.291 72.956L84.3569 74.0668L65.0152 62.9229Z" fill="#CBD7EB"/>
<path d="M69.398 60.3944L71.3322 59.2837L90.6738 70.4276L88.7397 71.5424L69.398 60.3944Z" fill="#CBD7EB"/>
<path d="M73.783 57.8702L75.7171 56.7554L95.0547 67.9033L93.1205 69.0181L73.783 57.8702Z" fill="#CBD7EB"/>
<path d="M78.1656 55.3455L80.0998 54.2307L99.4414 65.3746L97.5072 66.4894L78.1656 55.3455Z" fill="#CBD7EB"/>
<path d="M82.5525 52.8172L84.4867 51.7024L103.824 62.8503L101.89 63.9651L82.5525 52.8172Z" fill="#CBD7EB"/>
<path d="M86.9352 50.2928L88.8693 49.178L108.211 60.3259L106.277 61.4407L86.9352 50.2928Z" fill="#CBD7EB"/>
<path d="M91.3201 47.7641L93.2542 46.6533L112.592 57.7972L110.658 58.912L91.3201 47.7641Z" fill="#CBD7EB"/>
<path d="M95.7027 45.2398L97.6369 44.125L116.979 55.2729L115.044 56.3877L95.7027 45.2398Z" fill="#CBD7EB"/>
<path d="M26.0713 109.881V83.1304L49.2812 96.5079V123.259L26.0713 109.881Z" fill="white"/>
<path d="M47.1152 97.5662L44.8816 96.3181L44.651 118.998L46.8846 120.266L47.1152 97.5662Z" fill="#E2EBF7"/>
<path d="M42.7695 95.0216L40.5359 93.7856L40.3458 116.643L42.5794 117.895L42.7695 95.0216Z" fill="#E2EBF7"/>
<path d="M38.4297 92.4726L36.1961 91.2488L36.0423 114.284L38.2759 115.524L38.4297 92.4726Z" fill="#E2EBF7"/>
<path d="M34.084 89.9284L31.8504 88.7126L31.7371 111.929L33.9707 113.153L34.084 89.9284Z" fill="#E2EBF7"/>
<path d="M29.7363 87.3837L27.5027 86.176L27.4259 109.575L29.6594 110.782L29.7363 87.3837Z" fill="#E2EBF7"/>
<defs>
<filter id="filter0_f_1751_34157" x="0" y="52" width="137" height="83" filterUnits="userSpaceOnUse" color-interpolation-filters="sRGB">
<feFlood flood-opacity="0" result="BackgroundImageFix"/>
<feBlend mode="normal" in="SourceGraphic" in2="BackgroundImageFix" result="shape"/>
<feGaussianBlur stdDeviation="1" result="effect1_foregroundBlur_1751_34157"/>
</filter>
<linearGradient id="paint0_linear_1751_34157" x1="86.5" y1="125" x2="74.1795" y2="102.9" gradientUnits="userSpaceOnUse">
<stop stop-color="#B4C5E0" stop-opacity="0"/>
<stop offset="1" stop-color="#0E3391"/>
</linearGradient>
</defs>
</svg>
