<svg width="563" height="368" viewBox="0 0 563 368" fill="none" xmlns="http://www.w3.org/2000/svg">
<g clip-path="url(#clip0_827_30341)">
<g style="mix-blend-mode:multiply" opacity="0.4" filter="url(#filter0_f_827_30341)">
<path d="M90 47.4548L2.5 101.598L455 365.361L557.5 309.213L90 47.4548Z" fill="url(#paint0_linear_827_30341)"/>
</g>
<path d="M79.2047 60.2029C79.0186 61.6783 80.1284 63.7613 81.6834 64.8762C83.2384 65.9911 84.6539 65.6773 84.84 64.2086C85.0261 62.7398 83.9163 60.6502 82.3612 59.5353C80.8062 58.4204 79.3575 58.7275 79.2047 60.2029Z" fill="#9EA2CB"/>
<path d="M79.9552 60.7369C79.8157 61.8118 80.6198 63.3406 81.7694 64.1484C82.9191 64.9562 83.9425 64.7359 84.0754 63.6611C84.2083 62.5862 83.4108 61.0574 82.2612 60.2496C81.1115 59.4418 80.0948 59.6621 79.9552 60.7369Z" fill="#B4C5E1"/>
<path d="M95.1261 69.3959C94.9866 70.4707 95.7907 71.9996 96.9403 72.8074C98.09 73.6152 99.1134 73.3949 99.2463 72.32C99.3792 71.2452 98.5818 69.7163 97.4321 68.9085C96.2824 68.1007 95.259 68.3144 95.1261 69.3959Z" fill="#B4C5E1"/>
<path d="M120.273 84.751C120.087 86.2264 121.197 88.3094 122.752 89.4243C124.307 90.5392 125.722 90.2254 125.908 88.7567C126.094 87.2879 124.985 85.1983 123.43 84.0834C121.875 82.9685 120.466 83.2756 120.273 84.751Z" fill="#9EA2CB"/>
<path d="M121.03 85.2849C120.891 86.3597 121.695 87.8886 122.845 88.6964C123.994 89.5042 125.018 89.2839 125.151 88.209C125.283 87.1342 124.486 85.6053 123.336 84.7975C122.187 83.9897 121.17 84.1833 121.03 85.2849Z" fill="#B4C5E1"/>
<path d="M136.202 93.944C136.063 95.0188 136.867 96.5477 138.016 97.3555C139.166 98.1633 140.19 97.943 140.322 96.8681C140.455 95.7933 139.658 94.2644 138.508 93.4566C137.359 92.6488 136.335 92.8624 136.202 93.944Z" fill="#B4C5E1"/>
<path d="M76.7917 56.1438C76.8695 55.3671 77.1516 54.6251 77.609 53.9941L77.4097 53.6803L79.1309 52.8725H79.1641C80.6859 52.3718 82.7726 52.8725 84.9722 54.3947C89.0126 57.2521 91.8967 62.6731 91.4116 66.4918C91.33 67.364 90.9818 68.1896 90.4148 68.8552C90.4159 68.8707 90.4159 68.8863 90.4148 68.9019C89.6772 69.6239 88.7586 70.1315 87.7566 70.3706L87.4908 69.9367C85.9414 69.767 84.468 69.1735 83.2311 68.2209C79.1907 65.3702 76.3066 59.9492 76.7917 56.1438Z" fill="#969BC2"/>
<path d="M75.4826 56.7578C74.9975 60.5765 77.8816 65.9975 81.922 68.8549C85.9624 71.7123 89.6307 70.9379 90.1091 67.1191C90.5876 63.3004 87.7101 57.8794 83.6697 55.022C79.6293 52.1646 75.9677 52.939 75.4826 56.7578Z" fill="#9EA2CB"/>
<path d="M76.2866 57.8127C75.9012 60.8503 78.1939 65.1564 81.4102 67.4397C84.6266 69.7229 87.544 69.0954 87.9294 66.0577C88.3148 63.0201 86.0222 58.714 82.8058 56.4307C79.5894 54.1475 76.6986 54.8084 76.2866 57.8127Z" fill="#B4C5E1"/>
<path d="M91.9837 64.7893C92.0615 64.0125 92.3436 63.2706 92.8011 62.6395L92.6017 62.3258L94.3096 61.4846H94.3428C95.8646 60.9839 97.9513 61.4846 100.151 63.0067C104.191 65.8641 107.075 71.2851 106.59 75.1039C106.509 75.9761 106.161 76.8016 105.594 77.4672C105.595 77.4828 105.595 77.4984 105.594 77.514C104.856 78.236 103.937 78.7436 102.935 78.9827L102.67 78.5488C101.12 78.379 99.6468 77.7856 98.4098 76.833C94.3627 74.0223 91.4786 68.608 91.9837 64.7893Z" fill="#969BC2"/>
<path d="M90.6544 65.417C90.1693 69.2357 93.0534 74.6567 97.0939 77.5141C101.134 80.3715 104.803 79.5971 105.281 75.7783C105.759 71.9596 102.882 66.5386 98.8416 63.6812C94.8012 60.8238 91.1329 61.5982 90.6544 65.417Z" fill="#9EA2CB"/>
<path d="M91.4585 66.4716C91.073 69.5093 93.3657 73.8154 96.5821 76.0986C99.7985 78.3819 102.716 77.7543 103.101 74.7167C103.487 71.679 101.194 67.3729 97.9776 65.0897C94.7613 62.8064 91.8373 63.434 91.4585 66.4716Z" fill="#B4C5E1"/>
<path d="M94.3687 68.8284C94.1827 70.3038 95.2924 72.3868 96.8475 73.5017C98.4025 74.6166 99.818 74.3028 100.004 72.8341C100.19 71.3653 99.0803 69.2757 97.5253 68.1608C95.9703 67.0458 94.5548 67.3863 94.3687 68.8284Z" fill="#9EA2CB"/>
<path d="M78.54 56.9714L99.1475 69.4959V75.3909L94.1435 72.3466L93.1599 70.1234L83.4177 64.2084L82.7 65.4101L78.54 62.8865V56.9714Z" fill="#BDCCE5"/>
<path d="M117.901 80.6785C117.979 79.9017 118.261 79.1598 118.718 78.5288L118.519 78.215L120.24 77.4072H120.273C121.795 76.9065 123.882 77.4072 126.082 78.9293C130.122 81.7867 133.006 87.2077 132.521 91.0265C132.439 91.8987 132.091 92.7242 131.524 93.3898C131.525 93.4054 131.525 93.421 131.524 93.4366C130.787 94.1586 129.868 94.6662 128.866 94.9053L128.6 94.4714C127.051 94.3017 125.577 93.7082 124.34 92.7556C120.267 89.9182 117.383 84.4972 117.901 80.6785Z" fill="#969BC2"/>
<path d="M116.571 81.3059C116.086 85.1246 118.97 90.5456 123.011 93.403C127.051 96.2604 130.72 95.486 131.198 91.6672C131.676 87.8485 128.799 82.4274 124.759 79.5701C120.718 76.7127 117.043 77.5071 116.571 81.3059Z" fill="#9EA2CB"/>
<path d="M117.363 82.3674C116.977 85.405 119.27 89.7111 122.486 91.9944C125.703 94.2776 128.62 93.6501 129.006 90.6124C129.391 87.5748 127.098 83.2687 123.882 80.9854C120.666 78.7022 117.748 79.3231 117.363 82.3674Z" fill="#B4C5E1"/>
<path d="M133.039 89.3374C133.114 88.5613 133.394 87.8194 133.849 87.1877L133.65 86.8739L135.371 86.0661H135.404C136.926 85.5654 139.013 86.0661 141.212 87.5883C145.253 90.4457 148.137 95.8667 147.652 99.6854C147.57 100.558 147.222 101.383 146.655 102.049C146.656 102.064 146.656 102.08 146.655 102.096C145.917 102.818 144.999 103.325 143.997 103.564L143.731 103.13C142.182 102.961 140.708 102.367 139.471 101.415C135.438 98.5772 132.52 93.1562 133.039 89.3374Z" fill="#969BC2"/>
<path d="M131.723 89.9651C131.238 93.7838 134.122 99.2048 138.162 102.062C142.203 104.92 145.871 104.145 146.349 100.326C146.828 96.5077 143.95 91.0867 139.91 88.2293C135.87 85.3719 132.208 86.1463 131.723 89.9651Z" fill="#9EA2CB"/>
<path d="M132.52 91.0266C132.135 94.0642 134.427 98.3703 137.644 100.654C140.86 102.937 143.777 102.309 144.163 99.2716C144.548 96.234 142.256 91.9279 139.039 89.6446C135.823 87.3614 132.912 87.9823 132.52 91.0266Z" fill="#B4C5E1"/>
<path d="M135.444 93.4099C135.258 94.8853 136.368 96.9683 137.923 98.0832C139.478 99.1981 140.893 98.8843 141.079 97.4156C141.265 95.9468 140.156 93.8572 138.6 92.7423C137.045 91.6274 135.63 91.9345 135.444 93.4099Z" fill="#9EA2CB"/>
<path d="M119.615 81.5198L140.223 94.0442V99.9392L135.219 96.8949L134.235 94.6718L124.493 88.7567L123.775 89.9651L119.615 87.4348V81.5198Z" fill="#BDCCE5"/>
<path d="M65.309 53.5601L152.118 104.245V95.3526L65.309 44.6675V53.5601Z" fill="#A9B8DA"/>
<path d="M152.118 95.2791L180.439 79.5776V88.0872L152.118 104.252V95.2791Z" fill="#BDCCE5"/>
<path d="M187 34.994L186.807 35.1009V34.8804L187 34.994Z" fill="#2B2B2D"/>
<g clip-path="url(#clip1_827_30341)">
<path d="M180.44 82.9722V50.7119L152.275 66.8396V99.0999L180.44 82.9722Z" fill="#1E1C7B"/>
<path d="M93.5794 0.989258L180.415 50.7216L152.255 66.8542L65.4395 17.1072L93.5794 0.989258Z" fill="#4A48AD"/>
<path d="M65.4395 49.3626L152.275 99.0998V66.8395L65.4395 17.1072V49.3626Z" fill="#2B298F"/>
<path opacity="0.5" d="M149.927 68.184L147.561 66.8542V93.7126L149.927 95.0668V68.184Z" fill="#5755B7"/>
<path opacity="0.5" d="M144.61 65.1396L142.243 63.8049V90.6633L144.61 92.0223V65.1396Z" fill="#5755B7"/>
<path opacity="0.5" d="M139.292 62.0905L136.921 60.7607V87.6191L139.292 88.9733V62.0905Z" fill="#5755B7"/>
<path opacity="0.5" d="M133.97 59.0458L131.604 57.7112V84.5696L133.97 85.9286V59.0458Z" fill="#5755B7"/>
<path opacity="0.5" d="M128.652 55.9967L126.285 54.6621V81.5254L128.652 82.8795V55.9967Z" fill="#5755B7"/>
<path opacity="0.5" d="M123.33 52.9477L120.963 51.6179V78.4763L123.33 79.8353V52.9477Z" fill="#5755B7"/>
<path opacity="0.5" d="M118.012 49.9032L115.646 48.5686V75.427L118.012 76.786V49.9032Z" fill="#5755B7"/>
<path opacity="0.5" d="M112.689 46.8539L110.322 45.5242V72.3826L112.689 73.7367V46.8539Z" fill="#5755B7"/>
<path opacity="0.5" d="M107.372 43.8097L105.005 42.4751V69.3335L107.372 70.6925V43.8097Z" fill="#5755B7"/>
<path opacity="0.5" d="M102.048 40.7604L99.6816 39.4307V66.2891L102.048 67.6432V40.7604Z" fill="#5755B7"/>
<path opacity="0.5" d="M96.7309 37.7111L94.3643 36.3813V63.2397L96.7309 64.5987V37.7111Z" fill="#5755B7"/>
<path opacity="0.5" d="M91.4087 34.6669L89.042 33.3323V60.1955L91.4087 61.5497V34.6669Z" fill="#5755B7"/>
<path opacity="0.5" d="M86.0913 31.6179L83.7246 30.2881V57.1465L86.0913 58.5006V31.6179Z" fill="#5755B7"/>
<path opacity="0.5" d="M80.7739 28.5734L78.4023 27.2388V54.0972L80.7739 55.4562V28.5734Z" fill="#5755B7"/>
<path opacity="0.5" d="M75.4507 25.5243L73.084 24.1897V51.053L75.4507 52.4071V25.5243Z" fill="#5755B7"/>
<path opacity="0.5" d="M70.1333 22.4799L67.7617 21.1453V48.0037L70.1333 49.3627V22.4799Z" fill="#5755B7"/>
<path d="M175.745 50.7118L173.398 49.3674L149.928 62.8112L152.275 64.1508L175.745 50.7118Z" fill="#3A389D"/>
<path d="M170.428 47.6674L168.081 46.3181L144.61 59.7619L146.957 61.1063L170.428 47.6674Z" fill="#3A389D"/>
<path d="M165.105 44.6183L162.758 43.2739L139.293 56.7177L141.64 58.0621L165.105 44.6183Z" fill="#3A389D"/>
<path d="M159.788 41.5739L157.441 40.2295L133.971 53.6684L136.318 55.0128L159.788 41.5739Z" fill="#3A389D"/>
<path d="M154.465 38.5246L152.118 37.1802L128.652 50.624L130.999 51.9684L154.465 38.5246Z" fill="#3A389D"/>
<path d="M149.148 35.4804L146.8 34.136L123.33 47.5749L125.677 48.9193L149.148 35.4804Z" fill="#3A389D"/>
<path d="M143.825 32.4311L141.478 31.0916L118.013 44.5305L120.36 45.8749L143.825 32.4311Z" fill="#3A389D"/>
<path d="M138.507 29.3866L136.16 28.0422L112.689 41.486L115.036 42.8304L138.507 29.3866Z" fill="#3A389D"/>
<path d="M133.185 26.3424L130.838 24.998L107.372 38.437L109.719 39.7814L133.185 26.3424Z" fill="#3A389D"/>
<path d="M127.867 23.2931L125.52 21.9487L102.05 35.3925L104.397 36.7369L127.867 23.2931Z" fill="#3A389D"/>
<path d="M122.549 20.2489L120.202 18.9045L96.7314 32.3435L99.0785 33.6879L122.549 20.2489Z" fill="#3A389D"/>
<path d="M117.227 17.1996L114.88 15.8552L91.4092 29.299L93.7562 30.6434L117.227 17.1996Z" fill="#3A389D"/>
<path d="M111.909 14.1554L109.562 12.811L86.0918 26.2548L88.4388 27.5992L111.909 14.1554Z" fill="#3A389D"/>
<path d="M106.587 11.111L104.24 9.7666L80.7744 23.2055L83.1215 24.5499L106.587 11.111Z" fill="#3A389D"/>
<path d="M101.269 8.06167L98.9216 6.71729L75.4512 20.1611L77.7982 21.5055L101.269 8.06167Z" fill="#3A389D"/>
<path d="M95.9463 5.01748L93.5993 3.6731L70.1338 17.112L72.4808 18.4564L95.9463 5.01748Z" fill="#3A389D"/>
<path d="M154.902 68.1206L157.613 66.6155L157.893 93.9658L155.182 95.4953L154.902 68.1206Z" fill="#32308D"/>
<path d="M160.176 65.0471L162.886 63.5566L163.117 91.1213L160.407 92.6362L160.176 65.0471Z" fill="#32308D"/>
<path d="M165.449 61.9783L168.155 60.4976L168.341 88.2814L165.636 89.7768L165.449 61.9783Z" fill="#32308D"/>
<path d="M170.718 58.9097L173.428 57.4387L173.571 85.4418L170.86 86.9177L170.718 58.9097Z" fill="#32308D"/>
<path d="M175.991 55.8409L178.702 54.3845L178.795 82.597L176.085 84.0583L175.991 55.8409Z" fill="#32308D"/>
<g clip-path="url(#clip2_827_30341)">
<path d="M122.22 60.3388C122.29 60.4 122.361 60.4573 122.43 60.5229C122.794 60.8726 123.145 61.2461 123.432 61.7178C123.826 62.3641 124.074 63.02 124.122 63.6719C124.146 63.997 124.164 64.3235 124.145 64.6236C124.101 65.3482 123.93 65.9542 123.557 66.3723C123.235 66.7328 122.816 66.8986 122.318 66.9038C122.066 66.9058 121.787 66.8375 121.517 66.783C121.175 66.71 120.818 66.5646 120.46 66.3523C120.12 66.1563 119.78 65.9749 119.442 65.7592C119.16 65.58 118.88 65.3631 118.6 65.156C118.528 65.1028 118.459 65.0235 118.359 64.9285C118.371 64.8572 118.379 64.7701 118.397 64.6921C118.595 63.8585 118.796 63.0275 118.993 62.1935C119.092 61.7742 119.184 61.3489 119.282 60.9281C119.423 60.3177 119.565 59.7083 119.708 59.0999C119.716 59.0766 119.727 59.056 119.74 59.0385L120.417 59.2971L122.22 60.3388ZM119.976 64.655C120.203 64.786 120.406 64.9057 120.609 65.0209C120.959 65.2188 121.303 65.3141 121.611 65.2984C122.093 65.2744 122.423 64.993 122.601 64.4893C122.74 64.0914 122.798 63.632 122.726 63.088C122.67 62.6659 122.506 62.2556 122.193 61.8892C121.764 61.3883 121.31 61.1463 120.841 60.9344L119.976 64.655Z" fill="white"/>
<path d="M129.661 71.6091L128.315 70.8315L128.231 69.2829C128.189 69.2565 128.148 69.2286 128.107 69.205C127.472 68.8382 126.837 68.474 126.202 68.1013C126.103 68.044 126.05 68.0535 126.005 68.124C125.79 68.4551 125.569 68.78 125.347 69.1114L123.929 68.2921C123.957 68.2061 123.967 68.1165 124.005 68.0611C124.27 67.6863 124.538 67.3158 124.809 66.9497C125.121 66.5271 125.431 66.1024 125.75 65.6895C126.082 65.2604 126.42 64.8388 126.764 64.4248C127.02 64.1161 127.29 63.827 127.557 63.5347C127.571 63.5209 127.589 63.5129 127.61 63.5111C127.63 63.5094 127.653 63.5139 127.677 63.5245C128.061 63.7409 128.446 63.9655 128.845 64.1959C128.914 64.6697 128.985 65.1391 129.051 65.6073C129.112 66.0362 129.173 66.4652 129.225 66.8894C129.267 67.2339 129.295 67.5728 129.332 67.9153C129.371 68.2778 129.418 68.6445 129.455 69.0052C129.486 69.3067 129.506 69.6035 129.535 69.9043C129.565 70.2196 129.601 70.5369 129.634 70.8533C129.643 70.9373 129.652 71.0216 129.661 71.1053L129.661 71.6091ZM127.944 65.3745L127.907 65.3464L126.642 67.0504L128.137 67.9145L127.944 65.3745Z" fill="white"/>
<path d="M105.08 50.4354C105.173 50.5189 105.267 50.6008 105.359 50.6854C105.685 50.9862 105.992 51.3262 106.23 51.7499C106.502 52.2339 106.651 52.7138 106.655 53.1822C106.659 53.5706 106.65 53.9471 106.524 54.2383C106.435 54.4426 106.321 54.6137 106.156 54.7276C105.752 55.0042 105.237 54.9676 104.667 54.7384C104.164 54.5362 103.651 54.2676 103.113 54.0148L102.648 55.9881L101.284 55.2004C101.314 55.0341 101.338 54.8646 101.375 54.7066C101.55 53.9582 101.728 53.2113 101.906 52.4642C102.055 51.8314 102.206 51.1997 102.353 50.5647C102.46 50.1036 102.561 49.6359 102.667 49.1598C102.832 49.2251 102.991 49.2874 103.15 49.3499C103.184 49.3633 103.218 49.37 103.251 49.379L105.08 50.4354ZM103.416 52.7451C103.78 52.9783 104.117 53.1474 104.454 53.2392C104.867 53.3522 105.167 53.2834 105.247 52.8066C105.285 52.5792 105.214 52.1626 104.952 51.8769C104.571 51.4621 104.184 51.256 103.8 51.0882L103.416 52.7451Z" fill="white"/>
<path d="M97.5638 46.0927C98.0163 46.5725 98.4716 47.0459 98.9195 47.5351C99.1196 47.7535 99.2915 48.0159 99.3735 48.3129C99.5767 49.0545 99.7709 49.7956 99.9814 50.5385C100.064 50.8302 100.014 50.9884 99.8687 51.0792C99.6231 51.2327 99.3799 51.3917 99.1298 51.5385C99.0229 51.5962 98.9106 51.644 98.7933 51.6814C98.663 51.7279 98.5648 51.6602 98.4441 51.4502C97.6212 50.0182 96.7983 48.5862 95.9754 47.1542C95.8962 47.0166 95.8111 46.882 95.7537 46.788C95.7029 46.5487 95.7697 46.4723 95.871 46.4157C96.2524 46.2071 96.6608 46.0481 97.093 45.94C97.1463 45.9274 97.2037 45.9245 97.259 45.9167L97.5638 46.0927ZM97.9718 47.0218C97.823 46.844 97.6961 46.7148 97.5935 46.5639C97.4741 46.3877 97.3741 46.3627 97.2781 46.3968C97.0112 46.4913 96.7497 46.5972 96.4688 46.7049L97.9718 47.0218Z" fill="white"/>
<path d="M89.7425 41.5738C90.1099 42.1199 90.4789 42.6639 90.8435 43.2143C90.963 43.3985 91.0772 43.5868 91.1858 43.7784C91.3024 43.9793 91.3013 44.1314 91.1858 44.2002C90.3065 44.7157 89.4276 45.231 88.549 45.7463C88.4499 45.8046 88.3204 45.7445 88.2176 45.5796C88.0294 45.2774 87.839 44.9769 87.6612 44.6674C87.4345 44.2732 87.2197 43.8725 87 43.475C87 43.3273 87 43.1796 87 43.0319C87.2031 42.5482 87.4116 42.0701 87.6056 41.5772C87.7024 41.3315 87.8923 41.2572 88.128 41.2728C88.5604 41.3014 89.0007 41.3547 89.4377 41.3977L89.7425 41.5738ZM88.2029 44.9431L87.7161 42.6531L87.3022 43.439L88.2029 44.9431Z" fill="white"/>
<path d="M93.1958 55.1784C93.0275 54.9373 92.8322 54.7081 92.6974 54.4521C92.5077 54.0917 92.5161 53.7612 92.545 53.463C92.5618 53.2905 92.5889 53.1044 92.672 53.0047C92.8408 52.7997 93.1037 52.7767 93.4147 52.916C93.8172 53.0962 94.128 53.5053 94.3614 53.9861C94.5277 54.3288 94.5391 54.6548 94.4965 54.9379C94.4744 55.0841 94.4528 55.2415 94.3886 55.3426C94.2816 55.5107 94.0866 55.5262 93.8873 55.5212C93.8592 55.523 93.832 55.527 93.8058 55.5332L93.1958 55.1784ZM93.6049 53.8624C93.6844 53.9689 93.7334 54.0643 93.7809 54.0906C93.837 54.123 93.8921 54.0931 93.9772 54.0885L93.7959 53.8257L93.6049 53.8624Z" fill="white"/>
<path d="M124.455 73.2393C124.533 72.8842 124.609 72.5269 124.69 72.174C124.805 71.6726 124.923 71.1741 125.041 70.6686L125.395 70.8727L126.149 73.3036L126.555 71.5417L126.928 71.7572C126.896 71.9181 126.868 72.0704 126.834 72.217C126.677 72.8911 126.517 73.5636 126.36 74.2377C126.356 74.2695 126.356 74.3037 126.36 74.3397L126.004 74.1343C125.979 74.0038 125.961 73.8728 125.925 73.7415C125.778 73.1961 125.627 72.65 125.473 72.1033C125.423 71.9245 125.357 71.7441 125.299 71.5646L125.264 71.5549L124.836 73.4594L124.455 73.2393Z" fill="white"/>
<path d="M108.508 64.0255C108.578 63.6742 108.643 63.3181 108.72 62.9726C108.824 62.5105 108.938 62.0572 109.047 61.6002C109.056 61.5631 109.067 61.5273 109.081 61.476C109.413 61.6091 109.752 61.7405 110.09 62.0536C110.481 62.4166 110.644 62.8612 110.552 63.2706C110.492 63.5363 110.349 63.6685 110.106 63.6558C110.046 63.6527 109.989 63.6585 109.937 63.66C110.048 64.0398 110.158 64.4055 110.261 64.7701C110.289 64.8706 110.295 64.9685 110.311 65.0679L109.93 64.8474L109.55 63.5351L109.097 63.2731C109.089 63.3084 109.082 63.3374 109.076 63.3669L108.889 64.2456L108.508 64.0255ZM109.388 62.0327L109.191 62.9033C109.34 62.9743 109.472 63.052 109.597 63.0925C109.736 63.137 109.881 63.1775 110.001 63.1645C110.062 63.1563 110.112 63.1221 110.144 63.066C110.175 63.0098 110.189 62.9339 110.181 62.847C110.172 62.6844 110.087 62.5113 109.955 62.4099C109.771 62.268 109.582 62.16 109.388 62.0327Z" fill="white"/>
<path d="M127.578 75.0439C127.657 74.6658 127.733 74.2844 127.817 73.91C127.924 73.4273 128.039 72.9502 128.152 72.4662L129.61 73.3085C129.599 73.3785 129.592 73.4397 129.582 73.4993C129.571 73.5589 129.558 73.6181 129.543 73.6937L128.455 73.0653L128.303 73.7246L129.256 74.2753L129.187 74.6393L128.222 74.0818L128.032 74.8699L129.178 75.5319L129.127 75.9389L127.578 75.0439Z" fill="white"/>
<path d="M100.306 59.2866C100.385 58.9319 100.462 58.5757 100.543 58.2228C100.651 57.7533 100.761 57.2867 100.871 56.8194C100.879 56.7831 100.893 56.7519 100.903 56.7201L102.367 57.5659L102.279 57.9378L101.199 57.3138L101.042 57.9715L101.985 58.5163L101.931 58.8894L100.963 58.3304L100.775 59.1205L101.935 59.7903L101.855 60.1815L100.306 59.2866Z" fill="white"/>
<path d="M111.301 65.6394C111.382 65.2769 111.462 64.9135 111.545 64.5519C111.651 64.0818 111.759 63.6133 111.868 63.1463C111.876 63.1207 111.887 63.0974 111.9 63.0765L113.358 63.9186L113.275 64.2938L112.19 63.6668L112.037 64.3261L112.981 64.8711L112.922 65.2352L111.963 64.6812L111.77 65.4736L112.928 66.1429L112.85 66.5343L111.301 65.6394Z" fill="white"/>
<path d="M102.744 60.695L102.755 60.5757L103.822 59.7421L103.325 58.1203L103.757 58.3697L104.118 59.585L104.815 58.9786L105.211 59.207C105.189 59.2696 105.185 59.343 105.151 59.3717C104.944 59.5516 104.731 59.7217 104.519 59.8946C104.44 59.9595 104.361 60.0234 104.295 60.077C104.441 60.594 104.58 61.0772 104.711 61.5579C104.738 61.6581 104.736 61.7536 104.749 61.8523L104.369 61.6328L104.026 60.3066L103.975 60.2743L103.176 60.9444L102.744 60.695Z" fill="white"/>
<path d="M105.766 62.4411C105.844 62.076 105.92 61.7091 106.001 61.346C106.056 61.1 106.119 60.8611 106.175 60.6164C106.231 60.3765 106.283 60.1337 106.337 59.891C106.688 60.0263 107.036 60.1689 107.376 60.4881C107.756 60.8464 107.839 61.1226 107.837 61.514C107.835 61.7988 107.769 62.0342 107.557 62.1045C107.374 62.1688 107.152 62.1448 106.919 62.0352C106.735 61.9495 106.551 61.852 106.35 61.7508C106.299 61.9673 106.243 62.1915 106.191 62.418C106.173 62.4962 106.161 62.5796 106.146 62.6606L105.766 62.4411ZM106.649 60.463L106.436 61.3572C106.59 61.4357 106.728 61.5198 106.862 61.5716C107.04 61.6403 107.218 61.6901 107.333 61.5779C107.423 61.4911 107.486 61.3776 107.425 61.1581C107.361 60.931 107.221 60.8088 107.072 60.7094C106.941 60.6226 106.81 60.5558 106.649 60.463Z" fill="white"/>
<path d="M114.018 67.2092L113.775 66.9096L113.935 66.5641C113.998 66.6365 114.051 66.7026 114.108 66.7615C114.387 67.0525 114.667 67.2472 114.936 67.2127C115.141 67.1861 115.151 66.9155 114.958 66.6366C114.827 66.449 114.689 66.269 114.545 66.0981C114.331 65.8423 114.24 65.5941 114.223 65.3013C114.201 64.9298 114.314 64.7308 114.571 64.7048C114.682 64.6938 114.818 64.7325 114.947 64.7828C115.182 64.8748 115.526 65.0965 115.784 65.4608L115.632 65.7205C115.441 65.571 115.285 65.4404 115.127 65.3267C114.976 65.2187 114.827 65.1555 114.711 65.2142C114.525 65.3079 114.559 65.574 114.814 65.8982C114.94 66.0572 115.073 66.2058 115.2 66.362C115.439 66.6547 115.511 67.0572 115.471 67.316C115.42 67.6544 115.243 67.7682 114.951 67.7159C114.942 67.7145 114.938 67.7295 114.931 67.737L114.018 67.2092Z" fill="white"/>
<path d="M116.507 68.6471L116.292 68.3819C116.253 68.1781 116.379 68.1368 116.427 68.0015C116.645 68.2847 116.867 68.4786 117.107 68.5867C117.271 68.6608 117.432 68.7154 117.528 68.5905C117.634 68.4517 117.585 68.2422 117.379 67.965C117.267 67.8158 117.151 67.6714 117.032 67.5326C116.822 67.2852 116.73 67.0386 116.712 66.7516C116.688 66.3766 116.795 66.1672 117.058 66.1438C117.173 66.1334 117.312 66.1797 117.445 66.2196C117.673 66.2873 118.048 66.5935 118.241 66.8571C118.254 66.9927 118.201 67.0945 118.103 67.145C117.931 67.0084 117.773 66.8618 117.616 66.7661C117.489 66.6889 117.337 66.6171 117.241 66.6417C117.004 66.7021 117.036 66.9921 117.306 67.3377C117.449 67.52 117.611 67.6827 117.741 67.8738C118.07 68.3523 118.034 68.9713 117.756 69.1167C117.661 69.1664 117.534 69.1571 117.421 69.1747L116.507 68.6471Z" fill="white"/>
<path d="M120.392 70.8919C120.473 70.5296 120.553 70.1667 120.635 69.8054C120.742 69.3354 120.85 68.8668 120.958 68.3998C120.967 68.3733 120.978 68.349 120.991 68.3273L121.368 68.5447L120.866 70.7278L121.921 71.3369L121.839 71.7282L120.392 70.8919Z" fill="white"/>
<path d="M122.855 72.3149C122.918 72.0156 122.976 71.7131 123.043 71.4189C123.17 70.8634 123.301 70.3118 123.433 69.7466L123.79 69.9528C123.786 70.0293 123.793 70.1126 123.778 70.1773C123.598 70.9447 123.414 71.7103 123.233 72.4758C123.231 72.4948 123.232 72.5154 123.236 72.537L122.855 72.3149Z" fill="white"/>
<path d="M117.135 57.4371L118.513 58.2337L117.08 64.334L116.05 63.7389C115.573 61.9378 115.041 60.1327 114.343 58.2918L113.422 62.2207L112.062 61.4345L113.488 55.3263L114.549 55.9396C115.235 57.6074 115.778 59.2804 116.317 60.9698L117.135 57.4371Z" fill="white"/>
<path d="M109.274 52.8905L110.509 53.6043C110.92 56.1259 111.141 58.5694 111.358 61.0236L109.978 60.2265L109.894 58.6962C109.855 58.6666 109.815 58.6392 109.776 58.6141C109.133 58.2426 108.49 57.8685 107.846 57.5023C107.795 57.473 107.722 57.4731 107.697 57.5081C107.465 57.8364 107.242 58.1755 107.013 58.5161L105.586 57.6917C105.626 57.5997 105.649 57.5126 105.692 57.4504C105.927 57.1107 106.166 56.7747 106.407 56.4425C106.647 56.1138 106.89 55.7891 107.136 55.4684C107.517 54.9724 107.897 54.4757 108.284 53.9891C108.449 53.7829 108.632 53.6015 108.806 53.4089L109.274 52.8905ZM108.309 56.4572L109.806 57.322L109.612 54.7826L109.572 54.7551L108.309 56.4572Z" fill="white"/>
<path d="M89.3183 49.7303C89.3691 49.427 89.414 49.1195 89.4681 48.8193C89.512 48.5756 89.5798 48.3498 89.6098 48.0965C89.6314 47.9134 89.7246 47.8411 89.8406 47.7977C90.2215 47.6562 90.6055 47.5238 90.9881 47.3875C91.1603 47.3262 91.2456 47.3658 91.4391 47.6055C91.7344 47.9714 92.0285 48.3389 92.3233 48.7057C92.449 48.8619 92.4909 49.0867 92.4543 49.3019C92.3904 49.6785 92.3391 50.0624 92.2809 50.4424C92.2542 50.6172 92.2382 50.8018 92.1897 50.9575C92.1564 51.0521 92.0966 51.1185 92.0171 51.1493C91.655 51.2881 91.284 51.4093 90.9165 51.5376C90.8546 51.5591 90.802 51.6047 90.7337 51.6092C90.5996 51.6153 90.4714 51.4842 90.3498 51.3321C90.1238 51.0497 89.8967 50.7688 89.6718 50.4852C89.6008 50.3948 89.5321 50.3016 89.4658 50.2058C89.3533 50.0442 89.3104 49.8891 89.3183 49.7303Z" fill="white"/>
<path d="M94.5357 50.3102C94.5176 50.114 94.6004 50.0658 94.7342 50.0601C95.0044 50.049 95.2675 50.0182 95.5298 49.9854C95.7347 49.9596 95.849 50.0398 96.0336 50.3231C96.3995 50.8849 96.7682 51.4436 97.1448 51.995C97.3243 52.2582 97.3766 52.5014 97.4135 52.762C97.4785 53.2205 97.563 53.6861 97.6293 54.1454C97.6547 54.3264 97.676 54.5145 97.6575 54.6686C97.6397 54.7766 97.5834 54.8498 97.5003 54.8732C97.2697 54.9172 97.0234 54.9261 96.7809 54.9426C96.6776 54.9496 96.5732 54.9721 96.461 54.932C96.3666 54.8929 96.2707 54.8108 96.1926 54.7022C95.8751 54.2408 95.5674 53.7694 95.2594 53.299C95.1283 53.0989 94.9915 52.8975 94.8833 52.6861C94.819 52.5604 94.7906 52.409 94.7721 52.2786C94.7063 51.8185 94.6502 51.3621 94.5943 50.9057C94.5707 50.7059 94.5552 50.5088 94.5357 50.3102Z" fill="white"/>
</g>
</g>
<path d="M171.205 113.263C171.019 114.738 172.128 116.821 173.683 117.936C175.238 119.051 176.654 118.737 176.84 117.268C177.026 115.8 175.916 113.71 174.361 112.595C172.806 111.48 171.358 111.787 171.205 113.263Z" fill="#9EA2CB"/>
<path d="M171.955 113.797C171.816 114.872 172.62 116.4 173.769 117.208C174.919 118.016 175.942 117.796 176.075 116.721C176.208 115.646 175.411 114.117 174.261 113.309C173.112 112.502 172.095 112.722 171.955 113.797Z" fill="#B4C5E1"/>
<path d="M187.126 122.456C186.987 123.531 187.791 125.059 188.94 125.867C190.09 126.675 191.113 126.455 191.246 125.38C191.379 124.305 190.582 122.776 189.432 121.968C188.282 121.161 187.259 121.374 187.126 122.456Z" fill="#B4C5E1"/>
<path d="M212.273 137.811C212.087 139.286 213.197 141.369 214.752 142.484C216.307 143.599 217.722 143.285 217.908 141.816C218.094 140.348 216.985 138.258 215.43 137.143C213.875 136.028 212.466 136.335 212.273 137.811Z" fill="#9EA2CB"/>
<path d="M213.03 138.345C212.891 139.42 213.695 140.948 214.845 141.756C215.994 142.564 217.018 142.344 217.151 141.269C217.283 140.194 216.486 138.665 215.336 137.857C214.187 137.05 213.17 137.243 213.03 138.345Z" fill="#B4C5E1"/>
<path d="M228.202 147.004C228.063 148.079 228.867 149.607 230.016 150.415C231.166 151.223 232.19 151.003 232.322 149.928C232.455 148.853 231.658 147.324 230.508 146.516C229.359 145.709 228.335 145.922 228.202 147.004Z" fill="#B4C5E1"/>
<path d="M168.792 109.204C168.869 108.427 169.152 107.685 169.609 107.054L169.41 106.74L171.131 105.932H171.164C172.686 105.432 174.773 105.932 176.972 107.454C181.013 110.312 183.897 115.733 183.412 119.552C183.33 120.424 182.982 121.249 182.415 121.915C182.416 121.931 182.416 121.946 182.415 121.962C181.677 122.684 180.759 123.191 179.757 123.43L179.491 122.997C177.941 122.827 176.468 122.233 175.231 121.281C171.191 118.43 168.307 113.009 168.792 109.204Z" fill="#969BC2"/>
<path d="M167.483 109.818C166.997 113.636 169.882 119.057 173.922 121.915C177.962 124.772 181.631 123.998 182.109 120.179C182.588 116.36 179.71 110.939 175.67 108.082C171.629 105.224 167.968 105.999 167.483 109.818Z" fill="#9EA2CB"/>
<path d="M168.287 110.873C167.901 113.91 170.194 118.216 173.41 120.499C176.627 122.783 179.544 122.155 179.929 119.118C180.315 116.08 178.022 111.774 174.806 109.491C171.589 107.207 168.699 107.868 168.287 110.873Z" fill="#B4C5E1"/>
<path d="M183.984 117.849C184.061 117.072 184.344 116.33 184.801 115.699L184.602 115.386L186.31 114.544H186.343C187.865 114.044 189.951 114.544 192.151 116.067C196.191 118.924 199.075 124.345 198.59 128.164C198.509 129.036 198.161 129.861 197.594 130.527C197.595 130.543 197.595 130.558 197.594 130.574C196.856 131.296 195.937 131.803 194.935 132.043L194.67 131.609C193.12 131.439 191.647 130.845 190.41 129.893C186.363 127.082 183.479 121.668 183.984 117.849Z" fill="#969BC2"/>
<path d="M182.654 118.477C182.169 122.296 185.053 127.717 189.094 130.574C193.134 133.431 196.803 132.657 197.281 128.838C197.759 125.019 194.882 119.598 190.842 116.741C186.801 113.884 183.133 114.658 182.654 118.477Z" fill="#9EA2CB"/>
<path d="M183.458 119.531C183.073 122.569 185.366 126.875 188.582 129.158C191.799 131.442 194.716 130.814 195.101 127.776C195.487 124.739 193.194 120.433 189.978 118.149C186.761 115.866 183.837 116.494 183.458 119.531Z" fill="#B4C5E1"/>
<path d="M186.369 121.888C186.183 123.364 187.292 125.447 188.847 126.561C190.403 127.676 191.818 127.363 192.004 125.894C192.19 124.425 191.08 122.335 189.525 121.221C187.97 120.106 186.555 120.446 186.369 121.888Z" fill="#9EA2CB"/>
<path d="M170.54 110.031L191.147 122.556V128.451L186.143 125.406L185.16 123.183L175.418 117.268L174.7 118.47L170.54 115.946V110.031Z" fill="#BDCCE5"/>
<path d="M209.901 133.738C209.979 132.962 210.261 132.22 210.718 131.589L210.519 131.275L212.24 130.467H212.273C213.795 129.966 215.882 130.467 218.082 131.989C222.122 134.847 225.006 140.268 224.521 144.086C224.439 144.959 224.091 145.784 223.524 146.45C223.525 146.465 223.525 146.481 223.524 146.496C222.787 147.218 221.868 147.726 220.866 147.965L220.6 147.531C219.051 147.361 217.577 146.768 216.34 145.815C212.267 142.978 209.383 137.557 209.901 133.738Z" fill="#969BC2"/>
<path d="M208.571 134.366C208.086 138.184 210.97 143.605 215.011 146.463C219.051 149.32 222.72 148.546 223.198 144.727C223.676 140.908 220.799 135.487 216.759 132.63C212.718 129.772 209.043 130.567 208.571 134.366Z" fill="#9EA2CB"/>
<path d="M209.363 135.427C208.977 138.465 211.27 142.771 214.486 145.054C217.703 147.337 220.62 146.71 221.006 143.672C221.391 140.635 219.098 136.328 215.882 134.045C212.666 131.762 209.748 132.383 209.363 135.427Z" fill="#B4C5E1"/>
<path d="M225.039 142.397C225.114 141.621 225.394 140.879 225.849 140.248L225.65 139.934L227.371 139.126H227.404C228.926 138.625 231.013 139.126 233.212 140.648C237.253 143.505 240.137 148.926 239.652 152.745C239.57 153.617 239.222 154.443 238.655 155.109C238.656 155.124 238.656 155.14 238.655 155.155C237.917 155.877 236.999 156.385 235.997 156.624L235.731 156.19C234.182 156.02 232.708 155.427 231.471 154.474C227.438 151.637 224.52 146.216 225.039 142.397Z" fill="#969BC2"/>
<path d="M223.723 143.025C223.238 146.844 226.122 152.265 230.162 155.122C234.203 157.979 237.871 157.205 238.349 153.386C238.828 149.567 235.95 144.146 231.91 141.289C227.87 138.432 224.208 139.206 223.723 143.025Z" fill="#9EA2CB"/>
<path d="M224.52 144.086C224.135 147.124 226.427 151.43 229.644 153.713C232.86 155.997 235.777 155.369 236.163 152.331C236.548 149.294 234.256 144.988 231.039 142.704C227.823 140.421 224.912 141.042 224.52 144.086Z" fill="#B4C5E1"/>
<path d="M227.444 146.47C227.258 147.945 228.368 150.028 229.923 151.143C231.478 152.258 232.893 151.944 233.079 150.475C233.265 149.007 232.156 146.917 230.6 145.802C229.045 144.687 227.63 144.994 227.444 146.47Z" fill="#9EA2CB"/>
<path d="M211.615 134.58L232.223 147.104V152.999L227.219 149.955L226.235 147.732L216.493 141.817L215.775 143.025L211.615 140.495V134.58Z" fill="#BDCCE5"/>
<path d="M157.309 106.62L244.118 157.305V148.412L157.309 97.7273V106.62Z" fill="#A9B8DA"/>
<path d="M244.118 148.339L272.439 132.637V141.147L244.118 157.312V148.339Z" fill="#BDCCE5"/>
<path d="M279 88.0538L278.807 88.1608V87.9402L279 88.0538Z" fill="#2B2B2D"/>
<g clip-path="url(#clip3_827_30341)">
<path d="M272.44 136.032V103.772L244.275 119.899V152.16L272.44 136.032Z" fill="#1E1C7B"/>
<path d="M185.579 54.0491L272.415 103.781L244.255 119.914L157.439 70.167L185.579 54.0491Z" fill="#4A48AD"/>
<path d="M157.439 102.422L244.275 152.16V119.899L157.439 70.167V102.422Z" fill="#2B298F"/>
<path opacity="0.5" d="M241.927 121.244L239.561 119.914V146.772L241.927 148.127V121.244Z" fill="#5755B7"/>
<path opacity="0.5" d="M236.61 118.199L234.243 116.865V143.723L236.61 145.082V118.199Z" fill="#5755B7"/>
<path opacity="0.5" d="M231.292 115.15L228.921 113.821V140.679L231.292 142.033V115.15Z" fill="#5755B7"/>
<path opacity="0.5" d="M225.97 112.106L223.604 110.771V137.629L225.97 138.988V112.106Z" fill="#5755B7"/>
<path opacity="0.5" d="M220.652 109.057L218.285 107.722V134.585L220.652 135.939V109.057Z" fill="#5755B7"/>
<path opacity="0.5" d="M215.33 106.008L212.963 104.678V131.536L215.33 132.895V106.008Z" fill="#5755B7"/>
<path opacity="0.5" d="M210.012 102.963L207.646 101.628V128.487L210.012 129.846V102.963Z" fill="#5755B7"/>
<path opacity="0.5" d="M204.689 99.9138L202.322 98.584V125.442L204.689 126.797V99.9138Z" fill="#5755B7"/>
<path opacity="0.5" d="M199.372 96.8696L197.005 95.5349V122.393L199.372 123.752V96.8696Z" fill="#5755B7"/>
<path opacity="0.5" d="M194.048 93.8202L191.682 92.4905V119.349L194.048 120.703V93.8202Z" fill="#5755B7"/>
<path opacity="0.5" d="M188.731 90.7709L186.364 89.4412V116.3L188.731 117.659V90.7709Z" fill="#5755B7"/>
<path opacity="0.5" d="M183.409 87.7267L181.042 86.3921V113.255L183.409 114.609V87.7267Z" fill="#5755B7"/>
<path opacity="0.5" d="M178.091 84.6777L175.725 83.3479V110.206L178.091 111.56V84.6777Z" fill="#5755B7"/>
<path opacity="0.5" d="M172.774 81.6332L170.402 80.2986V107.157L172.774 108.516V81.6332Z" fill="#5755B7"/>
<path opacity="0.5" d="M167.451 78.5842L165.084 77.2495V104.113L167.451 105.467V78.5842Z" fill="#5755B7"/>
<path opacity="0.5" d="M162.133 75.5397L159.762 74.2051V101.063L162.133 102.422V75.5397Z" fill="#5755B7"/>
<path d="M267.745 103.772L265.398 102.427L241.928 115.871L244.275 117.211L267.745 103.772Z" fill="#3A389D"/>
<path d="M262.428 100.727L260.081 99.3779L236.61 112.822L238.957 114.166L262.428 100.727Z" fill="#3A389D"/>
<path d="M257.105 97.6781L254.758 96.3337L231.293 109.778L233.64 111.122L257.105 97.6781Z" fill="#3A389D"/>
<path d="M251.788 94.6337L249.441 93.2893L225.971 106.728L228.318 108.073L251.788 94.6337Z" fill="#3A389D"/>
<path d="M246.465 91.5844L244.118 90.24L220.652 103.684L222.999 105.028L246.465 91.5844Z" fill="#3A389D"/>
<path d="M241.148 88.5402L238.8 87.1958L215.33 100.635L217.677 101.979L241.148 88.5402Z" fill="#3A389D"/>
<path d="M235.825 85.4909L233.478 84.1514L210.013 97.5903L212.36 98.9347L235.825 85.4909Z" fill="#3A389D"/>
<path d="M230.507 82.4464L228.16 81.1021L204.689 94.5459L207.036 95.8902L230.507 82.4464Z" fill="#3A389D"/>
<path d="M225.185 79.4022L222.838 78.0579L199.372 91.4968L201.719 92.8412L225.185 79.4022Z" fill="#3A389D"/>
<path d="M219.867 76.3529L217.52 75.0085L194.05 88.4524L196.397 89.7967L219.867 76.3529Z" fill="#3A389D"/>
<path d="M214.549 73.3087L212.202 71.9644L188.731 85.4033L191.078 86.7477L214.549 73.3087Z" fill="#3A389D"/>
<path d="M209.227 70.2594L206.88 68.915L183.409 82.3588L185.756 83.7032L209.227 70.2594Z" fill="#3A389D"/>
<path d="M203.909 67.2152L201.562 65.8708L178.092 79.3147L180.439 80.659L203.909 67.2152Z" fill="#3A389D"/>
<path d="M198.587 64.1708L196.24 62.8264L172.774 76.2654L175.121 77.6097L198.587 64.1708Z" fill="#3A389D"/>
<path d="M193.269 61.1215L190.922 59.7771L167.451 73.2209L169.798 74.5653L193.269 61.1215Z" fill="#3A389D"/>
<path d="M187.946 58.0773L185.599 56.7329L162.134 70.1719L164.481 71.5162L187.946 58.0773Z" fill="#3A389D"/>
<path d="M246.902 121.18L249.613 119.675L249.893 147.026L247.182 148.555L246.902 121.18Z" fill="#32308D"/>
<path d="M252.176 118.107L254.886 116.616L255.117 144.181L252.407 145.696L252.176 118.107Z" fill="#32308D"/>
<path d="M257.449 115.038L260.155 113.557L260.341 141.341L257.636 142.837L257.449 115.038Z" fill="#32308D"/>
<path d="M262.718 111.97L265.428 110.499L265.571 138.502L262.86 139.978L262.718 111.97Z" fill="#32308D"/>
<path d="M267.991 108.901L270.702 107.444L270.795 135.657L268.085 137.118L267.991 108.901Z" fill="#32308D"/>
<g clip-path="url(#clip4_827_30341)">
<path d="M214.22 113.396C214.29 113.457 214.361 113.514 214.43 113.58C214.794 113.93 215.145 114.303 215.432 114.775C215.826 115.421 216.074 116.077 216.122 116.729C216.146 117.054 216.164 117.381 216.145 117.681C216.101 118.405 215.93 119.011 215.557 119.429C215.235 119.79 214.816 119.956 214.318 119.961C214.066 119.963 213.787 119.895 213.517 119.84C213.175 119.767 212.818 119.622 212.46 119.409C212.12 119.213 211.78 119.032 211.442 118.816C211.16 118.637 210.88 118.42 210.6 118.213C210.528 118.16 210.459 118.081 210.359 117.986C210.371 117.914 210.379 117.827 210.397 117.749C210.595 116.916 210.796 116.085 210.993 115.251C211.092 114.831 211.184 114.406 211.282 113.985C211.423 113.375 211.565 112.765 211.708 112.157C211.716 112.134 211.727 112.113 211.74 112.096L212.417 112.354L214.22 113.396ZM211.976 117.712C212.203 117.843 212.406 117.963 212.609 118.078C212.959 118.276 213.303 118.371 213.611 118.356C214.093 118.331 214.423 118.05 214.601 117.546C214.74 117.149 214.798 116.689 214.726 116.145C214.67 115.723 214.506 115.313 214.193 114.946C213.764 114.445 213.31 114.203 212.841 113.992L211.976 117.712Z" fill="white"/>
<path d="M221.661 124.666L220.315 123.889L220.231 122.34C220.189 122.314 220.148 122.286 220.107 122.262C219.472 121.895 218.837 121.531 218.202 121.158C218.103 121.101 218.05 121.111 218.005 121.181C217.79 121.512 217.569 121.837 217.347 122.169L215.929 121.349C215.957 121.263 215.967 121.174 216.005 121.118C216.27 120.743 216.538 120.373 216.809 120.007C217.121 119.584 217.431 119.16 217.75 118.747C218.082 118.317 218.42 117.896 218.764 117.482C219.02 117.173 219.29 116.884 219.557 116.592C219.571 116.578 219.589 116.57 219.61 116.568C219.63 116.567 219.653 116.571 219.677 116.582C220.061 116.798 220.446 117.023 220.845 117.253C220.914 117.727 220.985 118.196 221.051 118.664C221.112 119.093 221.173 119.522 221.225 119.947C221.267 120.291 221.295 120.63 221.332 120.972C221.371 121.335 221.418 121.702 221.455 122.062C221.486 122.364 221.506 122.661 221.535 122.961C221.565 123.277 221.601 123.594 221.634 123.91C221.643 123.994 221.652 124.079 221.661 124.162L221.661 124.666ZM219.944 118.432L219.907 118.404L218.642 120.107L220.137 120.972L219.944 118.432Z" fill="white"/>
<path d="M197.08 103.493C197.173 103.576 197.267 103.658 197.359 103.743C197.685 104.043 197.992 104.383 198.23 104.807C198.502 105.291 198.651 105.771 198.655 106.239C198.659 106.628 198.65 107.004 198.524 107.295C198.435 107.5 198.321 107.671 198.156 107.785C197.752 108.061 197.237 108.025 196.667 107.796C196.164 107.593 195.651 107.325 195.113 107.072L194.648 109.045L193.284 108.258C193.314 108.091 193.338 107.922 193.375 107.764C193.55 107.015 193.728 106.268 193.906 105.521C194.055 104.889 194.206 104.257 194.353 103.622C194.46 103.161 194.561 102.693 194.667 102.217C194.832 102.282 194.991 102.345 195.15 102.407C195.184 102.42 195.218 102.427 195.251 102.436L197.08 103.493ZM195.416 105.802C195.78 106.035 196.117 106.205 196.454 106.296C196.867 106.409 197.167 106.34 197.247 105.864C197.285 105.636 197.214 105.22 196.952 104.934C196.571 104.519 196.184 104.313 195.8 104.145L195.416 105.802Z" fill="white"/>
<path d="M189.564 99.1498C190.016 99.6296 190.472 100.103 190.919 100.592C191.12 100.811 191.292 101.073 191.374 101.37C191.577 102.112 191.771 102.853 191.981 103.596C192.064 103.887 192.014 104.046 191.869 104.136C191.623 104.29 191.38 104.449 191.13 104.596C191.023 104.653 190.911 104.701 190.793 104.739C190.663 104.785 190.565 104.717 190.444 104.507C189.621 103.075 188.798 101.643 187.975 100.211C187.896 100.074 187.811 99.9392 187.754 99.8452C187.703 99.6058 187.77 99.5295 187.871 99.4728C188.252 99.2642 188.661 99.1052 189.093 98.9972C189.146 98.9846 189.204 98.9817 189.259 98.9738L189.564 99.1498ZM189.972 100.079C189.823 99.9011 189.696 99.7719 189.593 99.621C189.474 99.4449 189.374 99.4198 189.278 99.4539C189.011 99.5484 188.75 99.6543 188.469 99.762L189.972 100.079Z" fill="white"/>
<path d="M181.742 94.6309C182.11 95.177 182.479 95.7211 182.844 96.2715C182.963 96.4556 183.077 96.6439 183.186 96.8355C183.302 97.0364 183.301 97.1885 183.186 97.2574C182.307 97.7728 181.428 98.2882 180.549 98.8034C180.45 98.8617 180.32 98.8017 180.218 98.6368C180.029 98.3346 179.839 98.034 179.661 97.7245C179.434 97.3303 179.22 96.9297 179 96.5322C179 96.3845 179 96.2368 179 96.0891C179.203 95.6053 179.412 95.1272 179.606 94.6343C179.702 94.3886 179.892 94.3143 180.128 94.33C180.56 94.3586 181.001 94.4118 181.438 94.4549L181.742 94.6309ZM180.203 98.0002L179.716 95.7102L179.302 96.4961L180.203 98.0002Z" fill="white"/>
<path d="M185.196 108.236C185.027 107.994 184.832 107.765 184.697 107.509C184.508 107.149 184.516 106.818 184.545 106.52C184.562 106.348 184.589 106.162 184.672 106.062C184.841 105.857 185.104 105.834 185.415 105.973C185.817 106.153 186.128 106.562 186.361 107.043C186.528 107.386 186.539 107.712 186.496 107.995C186.474 108.141 186.453 108.299 186.389 108.4C186.282 108.568 186.087 108.583 185.887 108.578C185.859 108.58 185.832 108.584 185.806 108.59L185.196 108.236ZM185.605 106.92C185.684 107.026 185.733 107.121 185.781 107.148C185.837 107.18 185.892 107.15 185.977 107.146L185.796 106.883L185.605 106.92Z" fill="white"/>
<path d="M216.455 126.296C216.533 125.941 216.609 125.584 216.69 125.231C216.805 124.73 216.923 124.231 217.041 123.726L217.395 123.93L218.149 126.361L218.555 124.599L218.928 124.814C218.896 124.975 218.868 125.128 218.834 125.274C218.677 125.948 218.517 126.621 218.36 127.295C218.356 127.327 218.356 127.361 218.36 127.397L218.004 127.191C217.979 127.061 217.961 126.93 217.925 126.799C217.778 126.253 217.627 125.707 217.473 125.16C217.423 124.982 217.357 124.801 217.299 124.622L217.264 124.612L216.836 126.516L216.455 126.296Z" fill="white"/>
<path d="M200.508 117.083C200.578 116.731 200.643 116.375 200.72 116.03C200.824 115.568 200.938 115.114 201.047 114.657C201.056 114.62 201.067 114.584 201.081 114.533C201.413 114.666 201.752 114.798 202.09 115.111C202.481 115.474 202.644 115.918 202.552 116.328C202.492 116.593 202.349 116.726 202.106 116.713C202.046 116.71 201.989 116.716 201.937 116.717C202.048 117.097 202.158 117.463 202.261 117.827C202.289 117.928 202.295 118.026 202.311 118.125L201.93 117.905L201.55 116.592L201.097 116.33C201.089 116.366 201.082 116.394 201.076 116.424L200.889 117.303L200.508 117.083ZM201.388 115.09L201.191 115.96C201.34 116.031 201.472 116.109 201.597 116.15C201.736 116.194 201.881 116.235 202.001 116.222C202.062 116.213 202.112 116.179 202.144 116.123C202.175 116.067 202.189 115.991 202.181 115.904C202.172 115.742 202.087 115.568 201.955 115.467C201.771 115.325 201.582 115.217 201.388 115.09Z" fill="white"/>
<path d="M219.578 128.101C219.657 127.723 219.733 127.342 219.817 126.967C219.924 126.484 220.039 126.007 220.152 125.523L221.61 126.366C221.599 126.436 221.592 126.497 221.582 126.556C221.571 126.616 221.558 126.675 221.543 126.751L220.455 126.122L220.303 126.782L221.256 127.332L221.187 127.696L220.222 127.139L220.032 127.927L221.178 128.589L221.127 128.996L219.578 128.101Z" fill="white"/>
<path d="M192.306 112.344C192.385 111.989 192.462 111.633 192.543 111.28C192.651 110.81 192.761 110.344 192.871 109.876C192.879 109.84 192.893 109.809 192.903 109.777L194.367 110.623L194.279 110.995L193.199 110.371L193.042 111.029L193.985 111.573L193.931 111.947L192.963 111.388L192.775 112.178L193.935 112.847L193.855 113.239L192.306 112.344Z" fill="white"/>
<path d="M203.301 118.697C203.382 118.334 203.462 117.971 203.545 117.609C203.651 117.139 203.759 116.67 203.868 116.203C203.876 116.178 203.887 116.155 203.9 116.134L205.358 116.976L205.275 117.351L204.19 116.724L204.037 117.383L204.981 117.928L204.922 118.292L203.963 117.738L203.77 118.531L204.928 119.2L204.85 119.591L203.301 118.697Z" fill="white"/>
<path d="M194.744 113.752L194.755 113.633L195.822 112.799L195.325 111.177L195.757 111.427L196.118 112.642L196.815 112.036L197.211 112.264C197.189 112.327 197.185 112.4 197.151 112.429C196.944 112.609 196.731 112.779 196.519 112.952C196.44 113.017 196.361 113.081 196.295 113.134C196.441 113.651 196.58 114.134 196.711 114.615C196.738 114.715 196.736 114.811 196.749 114.909L196.369 114.69L196.026 113.364L195.975 113.331L195.176 114.002L194.744 113.752Z" fill="white"/>
<path d="M197.766 115.498C197.844 115.133 197.92 114.766 198.001 114.403C198.056 114.157 198.119 113.918 198.175 113.674C198.231 113.434 198.283 113.191 198.337 112.948C198.688 113.083 199.036 113.226 199.376 113.545C199.756 113.904 199.839 114.18 199.837 114.571C199.835 114.856 199.769 115.091 199.557 115.162C199.374 115.226 199.152 115.202 198.919 115.092C198.735 115.007 198.551 114.909 198.35 114.808C198.299 115.024 198.243 115.249 198.191 115.475C198.173 115.553 198.161 115.637 198.146 115.718L197.766 115.498ZM198.649 113.52L198.436 114.414C198.59 114.493 198.728 114.577 198.862 114.629C199.04 114.697 199.218 114.747 199.333 114.635C199.423 114.548 199.486 114.435 199.425 114.215C199.361 113.988 199.221 113.866 199.072 113.767C198.941 113.68 198.81 113.613 198.649 113.52Z" fill="white"/>
<path d="M206.018 120.266L205.775 119.967L205.935 119.621C205.998 119.694 206.051 119.76 206.108 119.819C206.387 120.11 206.667 120.304 206.936 120.27C207.141 120.243 207.151 119.973 206.958 119.694C206.827 119.506 206.689 119.326 206.545 119.155C206.331 118.899 206.24 118.651 206.223 118.358C206.201 117.987 206.314 117.788 206.571 117.762C206.682 117.751 206.818 117.79 206.947 117.84C207.182 117.932 207.526 118.154 207.784 118.518L207.632 118.778C207.441 118.628 207.285 118.498 207.127 118.384C206.976 118.276 206.827 118.213 206.711 118.271C206.525 118.365 206.559 118.631 206.814 118.955C206.94 119.114 207.073 119.263 207.2 119.419C207.439 119.712 207.511 120.114 207.471 120.373C207.42 120.712 207.243 120.825 206.951 120.773C206.942 120.772 206.938 120.787 206.931 120.794L206.018 120.266Z" fill="white"/>
<path d="M208.507 121.704L208.292 121.439C208.253 121.235 208.379 121.194 208.427 121.059C208.645 121.342 208.867 121.536 209.107 121.644C209.271 121.718 209.432 121.773 209.528 121.648C209.634 121.509 209.585 121.299 209.379 121.022C209.267 120.873 209.151 120.729 209.032 120.59C208.822 120.342 208.73 120.096 208.712 119.809C208.688 119.434 208.795 119.224 209.058 119.201C209.173 119.191 209.312 119.237 209.445 119.277C209.673 119.344 210.048 119.651 210.241 119.914C210.254 120.05 210.201 120.152 210.103 120.202C209.931 120.066 209.773 119.919 209.616 119.823C209.489 119.746 209.337 119.674 209.241 119.699C209.004 119.759 209.036 120.049 209.306 120.395C209.449 120.577 209.611 120.74 209.741 120.931C210.07 121.409 210.034 122.028 209.756 122.174C209.661 122.223 209.534 122.214 209.421 122.232L208.507 121.704Z" fill="white"/>
<path d="M212.392 123.949C212.473 123.587 212.553 123.224 212.635 122.862C212.742 122.392 212.85 121.924 212.958 121.457C212.967 121.43 212.978 121.406 212.991 121.384L213.368 121.602L212.866 123.785L213.921 124.394L213.839 124.785L212.392 123.949Z" fill="white"/>
<path d="M214.855 125.372C214.918 125.073 214.976 124.77 215.043 124.476C215.17 123.921 215.301 123.369 215.433 122.804L215.79 123.01C215.786 123.086 215.793 123.17 215.778 123.234C215.598 124.002 215.414 124.767 215.233 125.533C215.231 125.552 215.232 125.573 215.236 125.594L214.855 125.372Z" fill="white"/>
<path d="M209.135 110.494L210.513 111.291L209.08 117.391L208.05 116.796C207.573 114.995 207.041 113.19 206.343 111.349L205.422 115.278L204.062 114.492L205.488 108.383L206.549 108.997C207.235 110.665 207.778 112.338 208.317 114.027L209.135 110.494Z" fill="white"/>
<path d="M201.274 105.948L202.509 106.661C202.92 109.183 203.141 111.627 203.358 114.081L201.978 113.284L201.894 111.753C201.855 111.724 201.815 111.696 201.776 111.671C201.133 111.3 200.49 110.926 199.846 110.559C199.795 110.53 199.722 110.53 199.697 110.565C199.465 110.894 199.242 111.233 199.013 111.573L197.586 110.749C197.626 110.657 197.649 110.57 197.692 110.508C197.927 110.168 198.166 109.832 198.407 109.5C198.647 109.171 198.89 108.846 199.136 108.526C199.517 108.03 199.897 107.533 200.284 107.046C200.449 106.84 200.632 106.659 200.806 106.466L201.274 105.948ZM200.309 109.514L201.806 110.379L201.612 107.84L201.572 107.812L200.309 109.514Z" fill="white"/>
<path d="M181.318 102.787C181.369 102.484 181.414 102.177 181.468 101.876C181.512 101.633 181.58 101.407 181.61 101.154C181.631 100.971 181.725 100.898 181.841 100.855C182.222 100.713 182.605 100.581 182.988 100.445C183.16 100.383 183.246 100.423 183.439 100.663C183.734 101.029 184.029 101.396 184.323 101.763C184.449 101.919 184.491 102.144 184.454 102.359C184.39 102.736 184.339 103.12 184.281 103.5C184.254 103.674 184.238 103.859 184.19 104.015C184.156 104.109 184.097 104.176 184.017 104.206C183.655 104.345 183.284 104.466 182.917 104.595C182.855 104.616 182.802 104.662 182.734 104.666C182.6 104.672 182.471 104.541 182.35 104.389C182.124 104.107 181.897 103.826 181.672 103.542C181.601 103.452 181.532 103.359 181.466 103.263C181.353 103.101 181.31 102.946 181.318 102.787Z" fill="white"/>
<path d="M186.536 103.367C186.518 103.171 186.6 103.123 186.734 103.117C187.004 103.106 187.267 103.075 187.53 103.043C187.735 103.017 187.849 103.097 188.034 103.38C188.4 103.942 188.768 104.501 189.145 105.052C189.324 105.315 189.377 105.559 189.413 105.819C189.478 106.278 189.563 106.743 189.629 107.203C189.655 107.384 189.676 107.572 189.657 107.726C189.64 107.834 189.583 107.907 189.5 107.93C189.27 107.974 189.023 107.983 188.781 108C188.678 108.007 188.573 108.029 188.461 107.989C188.367 107.95 188.271 107.868 188.193 107.759C187.875 107.298 187.567 106.827 187.259 106.356C187.128 106.156 186.991 105.955 186.883 105.743C186.819 105.618 186.791 105.466 186.772 105.336C186.706 104.876 186.65 104.419 186.594 103.963C186.571 103.763 186.555 103.566 186.536 103.367Z" fill="white"/>
</g>
</g>
<path d="M265.205 165.92C265.019 167.395 266.128 169.478 267.683 170.593C269.238 171.708 270.654 171.394 270.84 169.925C271.026 168.457 269.916 166.367 268.361 165.252C266.806 164.137 265.358 164.444 265.205 165.92Z" fill="#9EA2CB"/>
<path d="M265.955 166.454C265.816 167.529 266.62 169.057 267.769 169.865C268.919 170.673 269.942 170.453 270.075 169.378C270.208 168.303 269.411 166.774 268.261 165.966C267.112 165.159 266.095 165.379 265.955 166.454Z" fill="#B4C5E1"/>
<path d="M281.126 175.113C280.987 176.187 281.791 177.716 282.94 178.524C284.09 179.332 285.113 179.112 285.246 178.037C285.379 176.962 284.582 175.433 283.432 174.625C282.282 173.817 281.259 174.031 281.126 175.113Z" fill="#B4C5E1"/>
<path d="M306.273 190.468C306.087 191.943 307.197 194.026 308.752 195.141C310.307 196.256 311.722 195.942 311.908 194.473C312.094 193.005 310.985 190.915 309.43 189.8C307.875 188.685 306.466 188.992 306.273 190.468Z" fill="#9EA2CB"/>
<path d="M307.03 191.002C306.891 192.077 307.695 193.605 308.845 194.413C309.994 195.221 311.018 195.001 311.151 193.926C311.283 192.851 310.486 191.322 309.336 190.514C308.187 189.707 307.17 189.9 307.03 191.002Z" fill="#B4C5E1"/>
<path d="M322.202 199.661C322.063 200.736 322.867 202.264 324.016 203.072C325.166 203.88 326.19 203.66 326.322 202.585C326.455 201.51 325.658 199.981 324.508 199.173C323.359 198.366 322.335 198.579 322.202 199.661Z" fill="#B4C5E1"/>
<path d="M262.792 161.861C262.869 161.084 263.152 160.342 263.609 159.711L263.41 159.397L265.131 158.589H265.164C266.686 158.089 268.773 158.589 270.972 160.111C275.013 162.969 277.897 168.39 277.412 172.209C277.33 173.081 276.982 173.906 276.415 174.572C276.416 174.588 276.416 174.603 276.415 174.619C275.677 175.341 274.759 175.848 273.757 176.087L273.491 175.653C271.941 175.484 270.468 174.89 269.231 173.938C265.191 171.087 262.307 165.666 262.792 161.861Z" fill="#969BC2"/>
<path d="M261.483 162.475C260.997 166.293 263.882 171.714 267.922 174.572C271.962 177.429 275.631 176.655 276.109 172.836C276.588 169.017 273.71 163.596 269.67 160.739C265.629 157.881 261.968 158.656 261.483 162.475Z" fill="#9EA2CB"/>
<path d="M262.287 163.529C261.901 166.567 264.194 170.873 267.41 173.156C270.627 175.44 273.544 174.812 273.929 171.775C274.315 168.737 272.022 164.431 268.806 162.148C265.589 159.864 262.699 160.525 262.287 163.529Z" fill="#B4C5E1"/>
<path d="M277.984 170.506C278.061 169.729 278.344 168.987 278.801 168.356L278.602 168.043L280.31 167.201H280.343C281.865 166.701 283.951 167.201 286.151 168.724C290.191 171.581 293.075 177.002 292.59 180.821C292.509 181.693 292.161 182.518 291.594 183.184C291.595 183.2 291.595 183.215 291.594 183.231C290.856 183.953 289.937 184.46 288.935 184.7L288.67 184.266C287.12 184.096 285.647 183.502 284.41 182.55C280.363 179.739 277.479 174.325 277.984 170.506Z" fill="#969BC2"/>
<path d="M276.654 171.134C276.169 174.953 279.053 180.374 283.094 183.231C287.134 186.088 290.803 185.314 291.281 181.495C291.759 177.676 288.882 172.255 284.842 169.398C280.801 166.541 277.133 167.315 276.654 171.134Z" fill="#9EA2CB"/>
<path d="M277.458 172.188C277.073 175.226 279.366 179.532 282.582 181.815C285.799 184.099 288.716 183.471 289.101 180.433C289.487 177.396 287.194 173.09 283.978 170.806C280.761 168.523 277.837 169.151 277.458 172.188Z" fill="#B4C5E1"/>
<path d="M280.369 174.545C280.183 176.021 281.292 178.104 282.847 179.218C284.403 180.333 285.818 180.02 286.004 178.551C286.19 177.082 285.08 174.992 283.525 173.878C281.97 172.763 280.555 173.103 280.369 174.545Z" fill="#9EA2CB"/>
<path d="M264.54 162.688L285.147 175.213V181.108L280.143 178.063L279.16 175.84L269.418 169.925L268.7 171.127L264.54 168.603V162.688Z" fill="#BDCCE5"/>
<path d="M303.901 186.395C303.979 185.619 304.261 184.877 304.718 184.246L304.519 183.932L306.24 183.124H306.273C307.795 182.623 309.882 183.124 312.082 184.646C316.122 187.504 319.006 192.925 318.521 196.743C318.439 197.616 318.091 198.441 317.524 199.107C317.525 199.122 317.525 199.138 317.524 199.153C316.787 199.876 315.868 200.383 314.866 200.622L314.6 200.188C313.051 200.019 311.577 199.425 310.34 198.473C306.267 195.635 303.383 190.214 303.901 186.395Z" fill="#969BC2"/>
<path d="M302.571 187.023C302.086 190.841 304.97 196.262 309.011 199.12C313.051 201.977 316.72 201.203 317.198 197.384C317.676 193.565 314.799 188.144 310.759 185.287C306.718 182.429 303.043 183.224 302.571 187.023Z" fill="#9EA2CB"/>
<path d="M303.363 188.084C302.977 191.122 305.27 195.428 308.486 197.711C311.703 199.995 314.62 199.367 315.006 196.329C315.391 193.292 313.098 188.986 309.882 186.702C306.666 184.419 303.748 185.04 303.363 188.084Z" fill="#B4C5E1"/>
<path d="M319.039 195.054C319.114 194.278 319.394 193.536 319.849 192.904L319.65 192.591L321.371 191.783H321.404C322.926 191.282 325.013 191.783 327.212 193.305C331.253 196.162 334.137 201.583 333.652 205.402C333.57 206.274 333.222 207.1 332.655 207.766C332.656 207.781 332.656 207.797 332.655 207.812C331.917 208.534 330.999 209.042 329.997 209.281L329.731 208.847C328.182 208.677 326.708 208.084 325.471 207.131C321.438 204.294 318.52 198.873 319.039 195.054Z" fill="#969BC2"/>
<path d="M317.723 195.682C317.238 199.5 320.122 204.922 324.162 207.779C328.203 210.636 331.871 209.862 332.349 206.043C332.828 202.224 329.95 196.803 325.91 193.946C321.87 191.089 318.208 191.863 317.723 195.682Z" fill="#9EA2CB"/>
<path d="M318.52 196.743C318.135 199.781 320.427 204.087 323.644 206.37C326.86 208.654 329.777 208.026 330.163 204.988C330.548 201.951 328.256 197.645 325.039 195.361C321.823 193.078 318.912 193.699 318.52 196.743Z" fill="#B4C5E1"/>
<path d="M321.444 199.127C321.258 200.602 322.368 202.685 323.923 203.8C325.478 204.915 326.893 204.601 327.079 203.132C327.265 201.664 326.156 199.574 324.6 198.459C323.045 197.344 321.63 197.651 321.444 199.127Z" fill="#9EA2CB"/>
<path d="M305.615 187.237L326.223 199.761V205.656L321.219 202.612L320.235 200.389L310.493 194.474L309.775 195.682L305.615 193.152V187.237Z" fill="#BDCCE5"/>
<path d="M251.309 159.277L338.118 209.962V201.069L251.309 150.384V159.277Z" fill="#A9B8DA"/>
<path d="M338.118 200.996L366.439 185.294V193.804L338.118 209.969V200.996Z" fill="#BDCCE5"/>
<path d="M373 140.711L372.807 140.818V140.597L373 140.711Z" fill="#2B2B2D"/>
<g clip-path="url(#clip5_827_30341)">
<path d="M366.441 188.92V156.57L338.276 172.742V205.092L366.441 188.92Z" fill="#719D46"/>
<path d="M279.58 106.708L366.416 156.579L338.256 172.757L251.44 122.871L279.58 106.708Z" fill="#8BBF56"/>
<path d="M251.44 155.217L338.276 205.092V172.742L251.44 122.871V155.217Z" fill="#7EAE4E"/>
<path opacity="0.5" d="M335.928 174.09L333.562 172.757V199.69L335.928 201.048V174.09Z" fill="#66913C"/>
<path opacity="0.5" d="M330.611 171.037L328.244 169.699V196.632L330.611 197.995V171.037Z" fill="#66913C"/>
<path opacity="0.5" d="M325.293 167.98L322.922 166.646V193.579L325.293 194.937V167.98Z" fill="#66913C"/>
<path opacity="0.5" d="M319.971 164.927L317.604 163.588V190.522L319.971 191.884V164.927Z" fill="#66913C"/>
<path opacity="0.5" d="M314.653 161.869L312.286 160.531V187.469L314.653 188.827V161.869Z" fill="#66913C"/>
<path opacity="0.5" d="M309.331 158.811L306.964 157.478V184.411L309.331 185.774V158.811Z" fill="#66913C"/>
<path opacity="0.5" d="M304.013 155.759L301.646 154.42V181.353L304.013 182.716V155.759Z" fill="#66913C"/>
<path opacity="0.5" d="M298.69 152.701L296.323 151.367V178.301L298.69 179.658V152.701Z" fill="#66913C"/>
<path opacity="0.5" d="M293.373 149.648L291.006 148.31V175.243L293.373 176.606V149.648Z" fill="#66913C"/>
<path opacity="0.5" d="M288.049 146.591L285.683 145.257V172.19L288.049 173.548V146.591Z" fill="#66913C"/>
<path opacity="0.5" d="M282.732 143.533L280.365 142.199V169.132L282.732 170.495V143.533Z" fill="#66913C"/>
<path opacity="0.5" d="M277.41 140.48L275.043 139.142V166.08L277.41 167.438V140.48Z" fill="#66913C"/>
<path opacity="0.5" d="M272.092 137.422L269.726 136.089V163.022L272.092 164.38V137.422Z" fill="#66913C"/>
<path opacity="0.5" d="M266.775 134.369L264.403 133.031V159.964L266.775 161.327V134.369Z" fill="#66913C"/>
<path opacity="0.5" d="M261.452 131.312L259.085 129.973V156.911L261.452 158.269V131.312Z" fill="#66913C"/>
<path opacity="0.5" d="M256.134 128.259L253.763 126.921V153.854L256.134 155.217V128.259Z" fill="#66913C"/>
<path d="M361.746 156.57L359.399 155.221L335.929 168.703L338.276 170.046L361.746 156.57Z" fill="#80B34D"/>
<path d="M356.429 153.517L354.082 152.164L330.611 165.645L332.958 166.993L356.429 153.517Z" fill="#80B34D"/>
<path d="M351.106 150.459L348.759 149.111L325.294 162.592L327.641 163.94L351.106 150.459Z" fill="#80B34D"/>
<path d="M345.789 147.406L343.442 146.058L319.972 159.534L322.319 160.883L345.789 147.406Z" fill="#80B34D"/>
<path d="M340.466 144.348L338.119 143L314.653 156.481L317 157.83L340.466 144.348Z" fill="#80B34D"/>
<path d="M335.148 141.296L332.801 139.948L309.331 153.424L311.678 154.772L335.148 141.296Z" fill="#80B34D"/>
<path d="M329.826 138.238L327.479 136.895L304.014 150.371L306.361 151.719L329.826 138.238Z" fill="#80B34D"/>
<path d="M324.508 135.185L322.161 133.837L298.69 147.318L301.037 148.666L324.508 135.185Z" fill="#80B34D"/>
<path d="M319.186 132.132L316.839 130.784L293.373 144.261L295.72 145.609L319.186 132.132Z" fill="#80B34D"/>
<path d="M313.868 129.074L311.521 127.726L288.051 141.208L290.398 142.556L313.868 129.074Z" fill="#80B34D"/>
<path d="M308.55 126.022L306.203 124.674L282.732 138.15L285.079 139.498L308.55 126.022Z" fill="#80B34D"/>
<path d="M303.228 122.964L300.881 121.616L277.41 135.097L279.757 136.445L303.228 122.964Z" fill="#80B34D"/>
<path d="M297.91 119.911L295.563 118.563L272.093 132.044L274.44 133.393L297.91 119.911Z" fill="#80B34D"/>
<path d="M292.588 116.859L290.241 115.51L266.775 128.987L269.122 130.335L292.588 116.859Z" fill="#80B34D"/>
<path d="M287.27 113.801L284.923 112.453L261.452 125.934L263.799 127.282L287.27 113.801Z" fill="#80B34D"/>
<path d="M281.947 110.748L279.6 109.4L256.135 122.876L258.482 124.224L281.947 110.748Z" fill="#80B34D"/>
<path d="M340.903 174.027L343.614 172.518L343.894 199.944L341.183 201.478L340.903 174.027Z" fill="#668D3F"/>
<path d="M346.177 170.945L348.887 169.45L349.118 197.091L346.408 198.61L346.177 170.945Z" fill="#668D3F"/>
<path d="M351.45 167.867L354.156 166.383L354.342 194.244L351.637 195.743L351.45 167.867Z" fill="#668D3F"/>
<path d="M356.719 164.79L359.429 163.315L359.572 191.396L356.861 192.876L356.719 164.79Z" fill="#668D3F"/>
<path d="M361.992 161.713L364.703 160.252L364.796 188.543L362.085 190.009L361.992 161.713Z" fill="#668D3F"/>
</g>
</g>
<path d="M358.765 218.381C358.579 219.857 359.689 221.939 361.244 223.054C362.799 224.169 364.214 223.856 364.401 222.387C364.587 220.918 363.477 218.828 361.922 217.713C360.367 216.599 358.918 216.906 358.765 218.381Z" fill="#9EA2CB"/>
<path d="M359.516 218.915C359.376 219.99 360.18 221.519 361.33 222.327C362.48 223.134 363.503 222.914 363.636 221.839C363.769 220.764 362.971 219.236 361.822 218.428C360.672 217.62 359.655 217.84 359.516 218.915Z" fill="#B4C5E1"/>
<path d="M374.687 227.574C374.547 228.649 375.351 230.178 376.501 230.986C377.651 231.793 378.674 231.573 378.807 230.498C378.94 229.423 378.142 227.895 376.993 227.087C375.843 226.279 374.82 226.493 374.687 227.574Z" fill="#B4C5E1"/>
<path d="M399.834 242.929C399.648 244.405 400.757 246.488 402.312 247.603C403.867 248.718 405.283 248.404 405.469 246.935C405.655 245.466 404.545 243.377 402.99 242.262C401.435 241.147 400.026 241.454 399.834 242.929Z" fill="#9EA2CB"/>
<path d="M400.591 243.463C400.451 244.538 401.256 246.067 402.405 246.875C403.555 247.683 404.578 247.462 404.711 246.387C404.844 245.313 404.047 243.784 402.897 242.976C401.747 242.168 400.731 242.362 400.591 243.463Z" fill="#B4C5E1"/>
<path d="M415.763 252.122C415.623 253.197 416.427 254.726 417.577 255.534C418.727 256.342 419.75 256.121 419.883 255.046C420.016 253.972 419.218 252.443 418.069 251.635C416.919 250.827 415.896 251.041 415.763 252.122Z" fill="#B4C5E1"/>
<path d="M356.352 214.322C356.43 213.545 356.712 212.803 357.17 212.172L356.97 211.859L358.691 211.051H358.725C360.246 210.55 362.333 211.051 364.533 212.573C368.573 215.43 371.457 220.851 370.972 224.67C370.891 225.542 370.542 226.368 369.975 227.033C369.976 227.049 369.976 227.065 369.975 227.08C369.238 227.802 368.319 228.31 367.317 228.549L367.051 228.115C365.502 227.945 364.029 227.352 362.792 226.399C358.751 223.548 355.867 218.127 356.352 214.322Z" fill="#969BC2"/>
<path d="M355.043 214.936C354.558 218.755 357.442 224.176 361.483 227.033C365.523 229.891 369.191 229.116 369.67 225.298C370.148 221.479 367.271 216.058 363.23 213.2C359.19 210.343 355.528 211.118 355.043 214.936Z" fill="#9EA2CB"/>
<path d="M355.847 215.991C355.462 219.029 357.754 223.335 360.971 225.618C364.187 227.901 367.105 227.274 367.49 224.236C367.875 221.198 365.583 216.892 362.366 214.609C359.15 212.326 356.259 212.987 355.847 215.991Z" fill="#B4C5E1"/>
<path d="M371.544 222.968C371.622 222.191 371.904 221.449 372.362 220.818L372.162 220.504L373.87 219.663H373.903C375.425 219.162 377.512 219.663 379.711 221.185C383.752 224.042 386.636 229.463 386.151 233.282C386.069 234.154 385.721 234.98 385.154 235.646C385.155 235.661 385.155 235.677 385.154 235.692C384.416 236.414 383.498 236.922 382.496 237.161L382.23 236.727C380.681 236.557 379.207 235.964 377.97 235.011C373.923 232.201 371.039 226.786 371.544 222.968Z" fill="#969BC2"/>
<path d="M370.215 223.595C369.73 227.414 372.614 232.835 376.654 235.692C380.695 238.55 384.363 237.775 384.842 233.957C385.32 230.138 382.443 224.717 378.402 221.86C374.362 219.002 370.693 219.777 370.215 223.595Z" fill="#9EA2CB"/>
<path d="M371.019 224.65C370.634 227.688 372.926 231.994 376.143 234.277C379.359 236.56 382.276 235.933 382.662 232.895C383.047 229.857 380.755 225.551 377.538 223.268C374.322 220.985 371.398 221.612 371.019 224.65Z" fill="#B4C5E1"/>
<path d="M373.929 227.007C373.743 228.482 374.853 230.565 376.408 231.68C377.963 232.795 379.379 232.481 379.565 231.012C379.751 229.544 378.641 227.454 377.086 226.339C375.531 225.224 374.115 225.565 373.929 227.007Z" fill="#9EA2CB"/>
<path d="M358.101 215.15L378.708 227.674V233.569L373.704 230.525L372.72 228.302L362.978 222.387L362.261 223.589L358.101 221.065V215.15Z" fill="#BDCCE5"/>
<path d="M397.462 238.857C397.539 238.08 397.821 237.338 398.279 236.707L398.08 236.393L399.801 235.586H399.834C401.356 235.085 403.442 235.586 405.642 237.108C409.683 239.965 412.567 245.386 412.082 249.205C412 250.077 411.652 250.903 411.085 251.568C411.086 251.584 411.086 251.599 411.085 251.615C410.347 252.337 409.428 252.845 408.427 253.084L408.161 252.65C406.611 252.48 405.138 251.887 403.901 250.934C399.827 248.097 396.943 242.676 397.462 238.857Z" fill="#969BC2"/>
<path d="M396.132 239.484C395.647 243.303 398.531 248.724 402.571 251.581C406.612 254.439 410.28 253.664 410.759 249.846C411.237 246.027 408.36 240.606 404.319 237.748C400.279 234.891 396.604 235.685 396.132 239.484Z" fill="#9EA2CB"/>
<path d="M396.923 240.546C396.538 243.584 398.831 247.89 402.047 250.173C405.263 252.456 408.181 251.829 408.566 248.791C408.952 245.753 406.659 241.447 403.442 239.164C400.226 236.881 397.309 237.502 396.923 240.546Z" fill="#B4C5E1"/>
<path d="M412.599 247.516C412.675 246.74 412.955 245.998 413.41 245.366L413.21 245.052L414.932 244.244H414.965C416.487 243.744 418.573 244.244 420.773 245.767C424.813 248.624 427.697 254.045 427.212 257.864C427.131 258.736 426.783 259.562 426.216 260.227C426.217 260.243 426.217 260.258 426.216 260.274C425.478 260.996 424.559 261.503 423.557 261.743L423.292 261.309C421.742 261.139 420.269 260.545 419.032 259.593C414.998 256.756 412.081 251.335 412.599 247.516Z" fill="#969BC2"/>
<path d="M411.283 248.143C410.798 251.962 413.682 257.383 417.723 260.24C421.763 263.098 425.431 262.323 425.91 258.505C426.388 254.686 423.511 249.265 419.471 246.407C415.43 243.55 411.768 244.325 411.283 248.143Z" fill="#9EA2CB"/>
<path d="M412.081 249.205C411.695 252.243 413.988 256.549 417.204 258.832C420.421 261.115 423.338 260.488 423.723 257.45C424.109 254.412 421.816 250.106 418.6 247.823C415.383 245.54 412.473 246.161 412.081 249.205Z" fill="#B4C5E1"/>
<path d="M415.004 251.588C414.818 253.064 415.928 255.147 417.483 256.262C419.038 257.376 420.454 257.063 420.64 255.594C420.826 254.125 419.716 252.036 418.161 250.921C416.606 249.806 415.191 250.113 415.004 251.588Z" fill="#9EA2CB"/>
<path d="M399.176 239.698L419.783 252.223V258.118L414.779 255.073L413.796 252.85L404.053 246.935L403.336 248.143L399.176 245.613V239.698Z" fill="#BDCCE5"/>
<path d="M344.87 211.738L431.679 262.424V253.531L344.87 202.846V211.738Z" fill="#A9B8DA"/>
<path d="M431.678 253.457L460 237.756V246.266L431.678 262.43V253.457Z" fill="#BDCCE5"/>
<path d="M466.561 193.172L466.368 193.279V193.059L466.561 193.172Z" fill="#2B2B2D"/>
<g clip-path="url(#clip6_827_30341)">
<path d="M460 241.15V208.89L431.836 225.018V257.278L460 241.15Z" fill="#1E1C7B"/>
<path d="M373.14 159.167L459.975 208.9L431.816 225.032L345 175.285L373.14 159.167Z" fill="#4A48AD"/>
<path d="M345 207.541L431.836 257.278V225.018L345 175.285V207.541Z" fill="#2B298F"/>
<path opacity="0.5" d="M429.488 226.362L427.121 225.033V251.891L429.488 253.245V226.362Z" fill="#5755B7"/>
<path opacity="0.5" d="M424.17 223.318L421.804 221.983V248.842L424.17 250.201V223.318Z" fill="#5755B7"/>
<path opacity="0.5" d="M418.853 220.269L416.481 218.939V245.797L418.853 247.151V220.269Z" fill="#5755B7"/>
<path opacity="0.5" d="M413.531 217.224L411.164 215.89V242.748L413.531 244.107V217.224Z" fill="#5755B7"/>
<path opacity="0.5" d="M408.212 214.175L405.846 212.84V239.704L408.212 241.058V214.175Z" fill="#5755B7"/>
<path opacity="0.5" d="M402.89 211.126L400.523 209.796V236.655L402.89 238.014V211.126Z" fill="#5755B7"/>
<path opacity="0.5" d="M397.573 208.081L395.206 206.747V233.605L397.573 234.964V208.081Z" fill="#5755B7"/>
<path opacity="0.5" d="M392.249 205.032L389.883 203.702V230.561L392.249 231.915V205.032Z" fill="#5755B7"/>
<path opacity="0.5" d="M386.932 201.988L384.565 200.653V227.512L386.932 228.871V201.988Z" fill="#5755B7"/>
<path opacity="0.5" d="M381.609 198.939L379.242 197.609V224.467L381.609 225.822V198.939Z" fill="#5755B7"/>
<path opacity="0.5" d="M376.291 195.889L373.925 194.56V221.418L376.291 222.777V195.889Z" fill="#5755B7"/>
<path opacity="0.5" d="M370.969 192.845L368.603 191.511V218.374L370.969 219.728V192.845Z" fill="#5755B7"/>
<path opacity="0.5" d="M365.652 189.796L363.285 188.466V215.325L365.652 216.679V189.796Z" fill="#5755B7"/>
<path opacity="0.5" d="M360.334 186.752L357.963 185.417V212.275L360.334 213.634V186.752Z" fill="#5755B7"/>
<path opacity="0.5" d="M355.011 183.702L352.645 182.368V209.231L355.011 210.585V183.702Z" fill="#5755B7"/>
<path opacity="0.5" d="M349.694 180.658L347.322 179.323V206.182L349.694 207.541V180.658Z" fill="#5755B7"/>
<path d="M455.306 208.89L452.959 207.546L429.488 220.989L431.835 222.329L455.306 208.89Z" fill="#3A389D"/>
<path d="M449.988 205.846L447.641 204.496L424.171 217.94L426.518 219.285L449.988 205.846Z" fill="#3A389D"/>
<path d="M444.666 202.796L442.319 201.452L418.854 214.896L421.201 216.24L444.666 202.796Z" fill="#3A389D"/>
<path d="M439.349 199.752L437.002 198.408L413.531 211.847L415.878 213.191L439.349 199.752Z" fill="#3A389D"/>
<path d="M434.025 196.703L431.678 195.359L408.213 208.802L410.56 210.147L434.025 196.703Z" fill="#3A389D"/>
<path d="M428.708 193.659L426.361 192.314L402.891 205.753L405.238 207.098L428.708 193.659Z" fill="#3A389D"/>
<path d="M423.386 190.609L421.039 189.27L397.573 202.709L399.92 204.053L423.386 190.609Z" fill="#3A389D"/>
<path d="M418.067 187.565L415.72 186.221L392.25 199.664L394.597 201.009L418.067 187.565Z" fill="#3A389D"/>
<path d="M412.745 184.521L410.398 183.176L386.933 196.615L389.28 197.96L412.745 184.521Z" fill="#3A389D"/>
<path d="M407.428 181.471L405.081 180.127L381.61 193.571L383.957 194.915L407.428 181.471Z" fill="#3A389D"/>
<path d="M402.109 178.427L399.762 177.083L376.292 190.522L378.639 191.866L402.109 178.427Z" fill="#3A389D"/>
<path d="M396.787 175.378L394.44 174.033L370.97 187.477L373.317 188.822L396.787 175.378Z" fill="#3A389D"/>
<path d="M391.47 172.334L389.123 170.989L365.652 184.433L367.999 185.777L391.47 172.334Z" fill="#3A389D"/>
<path d="M386.147 169.289L383.8 167.945L360.335 181.384L362.682 182.728L386.147 169.289Z" fill="#3A389D"/>
<path d="M380.829 166.24L378.482 164.896L355.012 178.339L357.359 179.684L380.829 166.24Z" fill="#3A389D"/>
<path d="M375.507 163.196L373.16 161.851L349.694 175.29L352.041 176.635L375.507 163.196Z" fill="#3A389D"/>
<path d="M434.463 226.299L437.173 224.794L437.453 252.144L434.743 253.674L434.463 226.299Z" fill="#32308D"/>
<path d="M439.736 223.225L442.447 221.735L442.677 249.299L439.967 250.814L439.736 223.225Z" fill="#32308D"/>
<path d="M445.01 220.157L447.715 218.676L447.902 246.46L445.196 247.955L445.01 220.157Z" fill="#32308D"/>
<path d="M450.278 217.088L452.989 215.617L453.131 243.62L450.421 245.096L450.278 217.088Z" fill="#32308D"/>
<path d="M455.552 214.019L458.262 212.563L458.355 240.775L455.645 242.237L455.552 214.019Z" fill="#32308D"/>
<g clip-path="url(#clip7_827_30341)">
<path d="M402.22 218.509C402.29 218.57 402.361 218.628 402.43 218.693C402.794 219.043 403.145 219.417 403.432 219.888C403.826 220.534 404.074 221.19 404.122 221.842C404.146 222.167 404.164 222.494 404.145 222.794C404.101 223.519 403.93 224.125 403.557 224.543C403.235 224.903 402.816 225.069 402.318 225.074C402.066 225.076 401.787 225.008 401.517 224.953C401.175 224.88 400.818 224.735 400.46 224.523C400.12 224.327 399.78 224.145 399.442 223.93C399.16 223.75 398.88 223.533 398.6 223.326C398.528 223.273 398.459 223.194 398.359 223.099C398.371 223.028 398.379 222.94 398.397 222.863C398.595 222.029 398.796 221.198 398.993 220.364C399.092 219.945 399.184 219.519 399.282 219.098C399.423 218.488 399.565 217.879 399.708 217.27C399.716 217.247 399.727 217.226 399.74 217.209L400.417 217.468L402.22 218.509ZM399.976 222.825C400.203 222.956 400.406 223.076 400.609 223.191C400.959 223.389 401.303 223.484 401.611 223.469C402.093 223.445 402.423 223.163 402.601 222.66C402.74 222.262 402.798 221.802 402.726 221.258C402.67 220.836 402.506 220.426 402.193 220.06C401.764 219.559 401.31 219.317 400.841 219.105L399.976 222.825Z" fill="white"/>
<path d="M409.661 229.78L408.315 229.002L408.231 227.453C408.189 227.427 408.148 227.399 408.107 227.375C407.472 227.009 406.837 226.644 406.202 226.272C406.103 226.214 406.05 226.224 406.005 226.294C405.79 226.625 405.569 226.95 405.347 227.282L403.929 226.463C403.957 226.376 403.967 226.287 404.005 226.232C404.27 225.857 404.538 225.486 404.809 225.12C405.121 224.697 405.431 224.273 405.75 223.86C406.082 223.431 406.42 223.009 406.764 222.595C407.02 222.287 407.29 221.997 407.557 221.705C407.571 221.691 407.589 221.683 407.61 221.682C407.63 221.68 407.653 221.684 407.677 221.695C408.061 221.911 408.446 222.136 408.845 222.366C408.914 222.84 408.985 223.31 409.051 223.778C409.112 224.207 409.173 224.636 409.225 225.06C409.267 225.404 409.295 225.743 409.332 226.086C409.371 226.448 409.418 226.815 409.455 227.176C409.486 227.477 409.506 227.774 409.535 228.075C409.565 228.39 409.601 228.707 409.634 229.024C409.643 229.108 409.652 229.192 409.661 229.276L409.661 229.78ZM407.944 223.545L407.907 223.517L406.642 225.221L408.137 226.085L407.944 223.545Z" fill="white"/>
<path d="M385.08 208.606C385.173 208.689 385.267 208.771 385.359 208.856C385.685 209.157 385.992 209.497 386.23 209.92C386.502 210.404 386.651 210.884 386.655 211.353C386.659 211.741 386.65 212.118 386.524 212.409C386.435 212.613 386.321 212.784 386.156 212.898C385.752 213.175 385.237 213.138 384.667 212.909C384.164 212.707 383.651 212.438 383.113 212.185L382.648 214.159L381.284 213.371C381.314 213.205 381.338 213.035 381.375 212.877C381.55 212.129 381.728 211.382 381.906 210.635C382.055 210.002 382.206 209.37 382.353 208.735C382.46 208.274 382.561 207.806 382.667 207.33C382.832 207.396 382.991 207.458 383.15 207.52C383.184 207.534 383.218 207.54 383.251 207.549L385.08 208.606ZM383.416 210.916C383.78 211.149 384.117 211.318 384.454 211.41C384.867 211.523 385.167 211.454 385.247 210.977C385.285 210.75 385.214 210.333 384.952 210.047C384.571 209.633 384.184 209.426 383.8 209.259L383.416 210.916Z" fill="white"/>
<path d="M377.564 204.263C378.016 204.743 378.472 205.216 378.919 205.705C379.12 205.924 379.292 206.186 379.374 206.483C379.577 207.225 379.771 207.966 379.981 208.709C380.064 209 380.014 209.159 379.869 209.249C379.623 209.403 379.38 209.562 379.13 209.709C379.023 209.767 378.911 209.814 378.793 209.852C378.663 209.898 378.565 209.83 378.444 209.62C377.621 208.188 376.798 206.756 375.975 205.325C375.896 205.187 375.811 205.052 375.754 204.958C375.703 204.719 375.77 204.643 375.871 204.586C376.252 204.377 376.661 204.218 377.093 204.11C377.146 204.098 377.204 204.095 377.259 204.087L377.564 204.263ZM377.972 205.192C377.823 205.014 377.696 204.885 377.593 204.734C377.474 204.558 377.374 204.533 377.278 204.567C377.011 204.662 376.75 204.767 376.469 204.875L377.972 205.192Z" fill="white"/>
<path d="M369.742 199.744C370.11 200.29 370.479 200.834 370.844 201.385C370.963 201.569 371.077 201.757 371.186 201.949C371.302 202.15 371.301 202.302 371.186 202.371C370.307 202.886 369.428 203.401 368.549 203.917C368.45 203.975 368.32 203.915 368.218 203.75C368.029 203.448 367.839 203.147 367.661 202.838C367.434 202.444 367.22 202.043 367 201.645C367 201.498 367 201.35 367 201.202C367.203 200.719 367.412 200.241 367.606 199.748C367.702 199.502 367.892 199.428 368.128 199.443C368.56 199.472 369.001 199.525 369.438 199.568L369.742 199.744ZM368.203 203.114L367.716 200.824L367.302 201.609L368.203 203.114Z" fill="white"/>
<path d="M373.196 213.349C373.027 213.108 372.832 212.879 372.697 212.623C372.508 212.262 372.516 211.932 372.545 211.634C372.562 211.461 372.589 211.275 372.672 211.175C372.841 210.97 373.104 210.947 373.415 211.086C373.817 211.267 374.128 211.676 374.361 212.157C374.528 212.499 374.539 212.825 374.496 213.108C374.474 213.255 374.453 213.412 374.389 213.513C374.282 213.681 374.087 213.697 373.887 213.692C373.859 213.693 373.832 213.697 373.806 213.704L373.196 213.349ZM373.605 212.033C373.684 212.139 373.733 212.235 373.781 212.261C373.837 212.294 373.892 212.264 373.977 212.259L373.796 211.996L373.605 212.033Z" fill="white"/>
<path d="M404.455 231.41C404.533 231.055 404.609 230.697 404.69 230.344C404.805 229.843 404.923 229.344 405.041 228.839L405.395 229.043L406.149 231.474L406.555 229.712L406.928 229.928C406.896 230.088 406.868 230.241 406.834 230.387C406.677 231.062 406.517 231.734 406.36 232.408C406.356 232.44 406.356 232.474 406.36 232.51L406.004 232.305C405.979 232.174 405.961 232.043 405.925 231.912C405.778 231.367 405.627 230.82 405.473 230.274C405.423 230.095 405.357 229.915 405.299 229.735L405.264 229.725L404.836 231.63L404.455 231.41Z" fill="white"/>
<path d="M388.508 222.196C388.578 221.845 388.643 221.489 388.72 221.143C388.824 220.681 388.938 220.228 389.047 219.771C389.056 219.734 389.067 219.698 389.081 219.646C389.413 219.78 389.752 219.911 390.09 220.224C390.481 220.587 390.644 221.032 390.552 221.441C390.492 221.707 390.349 221.839 390.106 221.826C390.046 221.823 389.989 221.829 389.937 221.83C390.048 222.21 390.158 222.576 390.261 222.94C390.289 223.041 390.295 223.139 390.311 223.238L389.93 223.018L389.55 221.705L389.097 221.443C389.089 221.479 389.082 221.508 389.076 221.537L388.889 222.416L388.508 222.196ZM389.388 220.203L389.191 221.074C389.34 221.145 389.472 221.222 389.597 221.263C389.736 221.307 389.881 221.348 390.001 221.335C390.062 221.327 390.112 221.293 390.144 221.236C390.175 221.18 390.189 221.104 390.181 221.017C390.172 220.855 390.087 220.682 389.955 220.58C389.771 220.438 389.582 220.33 389.388 220.203Z" fill="white"/>
<path d="M407.578 233.214C407.657 232.836 407.733 232.455 407.817 232.08C407.924 231.598 408.039 231.121 408.152 230.637L409.61 231.479C409.599 231.549 409.592 231.61 409.582 231.67C409.571 231.729 409.558 231.789 409.543 231.864L408.455 231.236L408.303 231.895L409.256 232.446L409.187 232.81L408.222 232.252L408.032 233.04L409.178 233.702L409.127 234.109L407.578 233.214Z" fill="white"/>
<path d="M380.306 217.457C380.385 217.102 380.462 216.746 380.543 216.393C380.651 215.924 380.761 215.457 380.871 214.99C380.879 214.954 380.893 214.922 380.903 214.891L382.367 215.736L382.279 216.108L381.199 215.484L381.042 216.142L381.985 216.687L381.931 217.06L380.963 216.501L380.775 217.291L381.935 217.961L381.855 218.352L380.306 217.457Z" fill="white"/>
<path d="M391.301 223.81C391.382 223.447 391.462 223.084 391.545 222.722C391.651 222.252 391.759 221.784 391.868 221.317C391.876 221.291 391.887 221.268 391.9 221.247L393.358 222.089L393.275 222.464L392.19 221.837L392.037 222.497L392.981 223.042L392.922 223.406L391.963 222.852L391.77 223.644L392.928 224.313L392.85 224.705L391.301 223.81Z" fill="white"/>
<path d="M382.744 218.866L382.755 218.746L383.822 217.913L383.325 216.291L383.757 216.54L384.118 217.755L384.815 217.149L385.211 217.378C385.189 217.44 385.185 217.514 385.151 217.542C384.944 217.722 384.731 217.892 384.519 218.065C384.44 218.13 384.361 218.194 384.295 218.248C384.441 218.765 384.58 219.248 384.711 219.728C384.738 219.829 384.736 219.924 384.749 220.023L384.369 219.803L384.026 218.477L383.975 218.445L383.176 219.115L382.744 218.866Z" fill="white"/>
<path d="M385.766 220.611C385.844 220.246 385.92 219.879 386.001 219.516C386.056 219.27 386.119 219.031 386.175 218.787C386.231 218.547 386.283 218.304 386.337 218.061C386.688 218.197 387.036 218.339 387.376 218.658C387.756 219.017 387.839 219.293 387.837 219.684C387.835 219.969 387.769 220.205 387.557 220.275C387.374 220.339 387.152 220.315 386.919 220.205C386.735 220.12 386.551 220.022 386.35 219.921C386.299 220.138 386.243 220.362 386.191 220.588C386.173 220.667 386.161 220.75 386.146 220.831L385.766 220.611ZM386.649 218.633L386.436 219.527C386.59 219.606 386.728 219.69 386.862 219.742C387.04 219.811 387.218 219.86 387.333 219.748C387.423 219.661 387.486 219.548 387.425 219.328C387.361 219.101 387.221 218.979 387.072 218.88C386.941 218.793 386.81 218.726 386.649 218.633Z" fill="white"/>
<path d="M394.018 225.38L393.775 225.08L393.935 224.734C393.998 224.807 394.051 224.873 394.108 224.932C394.387 225.223 394.667 225.418 394.936 225.383C395.141 225.357 395.151 225.086 394.958 224.807C394.827 224.619 394.689 224.439 394.545 224.268C394.331 224.013 394.24 223.765 394.223 223.472C394.201 223.1 394.314 222.901 394.571 222.875C394.682 222.864 394.818 222.903 394.947 222.953C395.182 223.045 395.526 223.267 395.784 223.631L395.632 223.891C395.441 223.741 395.285 223.611 395.127 223.497C394.976 223.389 394.827 223.326 394.711 223.385C394.525 223.478 394.559 223.744 394.814 224.069C394.94 224.228 395.073 224.376 395.2 224.532C395.439 224.825 395.511 225.228 395.471 225.486C395.42 225.825 395.243 225.939 394.951 225.886C394.942 225.885 394.938 225.9 394.931 225.907L394.018 225.38Z" fill="white"/>
<path d="M396.507 226.817L396.292 226.552C396.253 226.348 396.379 226.307 396.427 226.172C396.645 226.455 396.867 226.649 397.107 226.757C397.271 226.831 397.432 226.886 397.528 226.761C397.634 226.622 397.585 226.413 397.379 226.135C397.267 225.986 397.151 225.842 397.032 225.703C396.822 225.456 396.73 225.209 396.712 224.922C396.688 224.547 396.795 224.338 397.058 224.314C397.173 224.304 397.312 224.35 397.445 224.39C397.673 224.458 398.048 224.764 398.241 225.028C398.254 225.163 398.201 225.265 398.103 225.315C397.931 225.179 397.773 225.032 397.616 224.936C397.489 224.859 397.337 224.788 397.241 224.812C397.004 224.873 397.036 225.163 397.306 225.508C397.449 225.69 397.611 225.853 397.741 226.044C398.07 226.523 398.034 227.142 397.756 227.287C397.661 227.337 397.534 227.328 397.421 227.345L396.507 226.817Z" fill="white"/>
<path d="M400.392 229.062C400.473 228.7 400.553 228.337 400.635 227.976C400.742 227.506 400.85 227.037 400.958 226.57C400.967 226.544 400.978 226.519 400.991 226.498L401.368 226.715L400.866 228.898L401.921 229.507L401.839 229.898L400.392 229.062Z" fill="white"/>
<path d="M402.855 230.485C402.918 230.186 402.976 229.884 403.043 229.589C403.17 229.034 403.301 228.482 403.433 227.917L403.79 228.123C403.786 228.2 403.793 228.283 403.778 228.348C403.598 229.115 403.414 229.881 403.233 230.646C403.231 230.665 403.232 230.686 403.236 230.708L402.855 230.485Z" fill="white"/>
<path d="M397.135 215.608L398.513 216.404L397.08 222.504L396.05 221.909C395.573 220.108 395.041 218.303 394.343 216.462L393.422 220.391L392.062 219.605L393.488 213.497L394.549 214.11C395.235 215.778 395.778 217.451 396.317 219.14L397.135 215.608Z" fill="white"/>
<path d="M389.274 211.061L390.509 211.775C390.92 214.296 391.141 216.74 391.358 219.194L389.978 218.397L389.894 216.867C389.855 216.837 389.815 216.81 389.776 216.785C389.133 216.413 388.49 216.039 387.846 215.673C387.795 215.643 387.722 215.644 387.697 215.678C387.465 216.007 387.242 216.346 387.013 216.687L385.586 215.862C385.626 215.77 385.649 215.683 385.692 215.621C385.927 215.281 386.166 214.945 386.407 214.613C386.647 214.284 386.89 213.96 387.136 213.639C387.517 213.143 387.897 212.646 388.284 212.16C388.449 211.953 388.632 211.772 388.806 211.579L389.274 211.061ZM388.309 214.628L389.806 215.492L389.612 212.953L389.572 212.926L388.309 214.628Z" fill="white"/>
<path d="M369.318 207.901C369.369 207.597 369.414 207.29 369.468 206.99C369.512 206.746 369.58 206.52 369.61 206.267C369.631 206.084 369.725 206.011 369.841 205.968C370.222 205.826 370.605 205.694 370.988 205.558C371.16 205.497 371.246 205.536 371.439 205.776C371.734 206.142 372.029 206.509 372.323 206.876C372.449 207.032 372.491 207.257 372.454 207.472C372.39 207.849 372.339 208.233 372.281 208.613C372.254 208.788 372.238 208.972 372.19 209.128C372.156 209.222 372.097 209.289 372.017 209.32C371.655 209.458 371.284 209.58 370.917 209.708C370.855 209.729 370.802 209.775 370.734 209.779C370.6 209.786 370.471 209.655 370.35 209.502C370.124 209.22 369.897 208.939 369.672 208.655C369.601 208.565 369.532 208.472 369.466 208.376C369.353 208.214 369.31 208.059 369.318 207.901Z" fill="white"/>
<path d="M374.536 208.481C374.518 208.284 374.6 208.236 374.734 208.231C375.004 208.219 375.267 208.189 375.53 208.156C375.735 208.13 375.849 208.21 376.034 208.494C376.4 209.055 376.768 209.614 377.145 210.165C377.324 210.429 377.377 210.672 377.413 210.932C377.478 211.391 377.563 211.857 377.629 212.316C377.655 212.497 377.676 212.685 377.657 212.839C377.64 212.947 377.583 213.02 377.5 213.044C377.27 213.088 377.023 213.097 376.781 213.113C376.678 213.12 376.573 213.142 376.461 213.102C376.367 213.063 376.271 212.981 376.193 212.873C375.875 212.411 375.567 211.94 375.259 211.469C375.128 211.269 374.991 211.068 374.883 210.857C374.819 210.731 374.791 210.579 374.772 210.449C374.706 209.989 374.65 209.533 374.594 209.076C374.571 208.876 374.555 208.679 374.536 208.481Z" fill="white"/>
</g>
</g>
<path d="M480.957 289.943C481.032 289.197 481.303 288.485 481.742 287.879L481.551 287.578L483.203 286.802H483.235C484.696 286.321 486.7 286.802 488.812 288.263C492.692 291.007 495.462 296.213 494.996 299.88C494.917 300.717 494.583 301.51 494.039 302.149C494.04 302.164 494.04 302.179 494.039 302.194C493.33 302.887 492.448 303.375 491.486 303.604L491.231 303.188C489.743 303.025 488.328 302.455 487.14 301.54C483.261 298.835 480.523 293.636 480.957 289.943Z" fill="#969BC2"/>
<path d="M479.7 290.584C479.234 294.251 482.004 299.457 485.883 302.2C489.763 304.944 493.286 304.2 493.745 300.534C494.204 296.867 491.441 291.661 487.562 288.917C483.682 286.174 480.166 286.898 479.7 290.584Z" fill="#9EA2CB"/>
<path d="M480.473 291.584C480.103 294.501 482.304 298.636 485.393 300.828C488.481 303.021 491.283 302.418 491.653 299.501C492.023 296.584 489.821 292.45 486.733 290.257C483.644 288.065 480.843 288.661 480.473 291.584Z" fill="#B4C5E1"/>
<path d="M483.274 293.873C483.096 295.29 484.161 297.29 485.654 298.36C487.148 299.431 488.507 299.13 488.686 297.719C488.864 296.309 487.799 294.302 486.305 293.232C484.812 292.161 483.453 292.456 483.274 293.873Z" fill="#9EA2CB"/>
<path d="M484.001 294.386C483.867 295.418 484.64 296.886 485.744 297.662C486.847 298.437 487.83 298.226 487.958 297.194C488.085 296.161 487.32 294.693 486.216 293.918C485.112 293.142 484.129 293.354 484.001 294.386Z" fill="#B4C5E1"/>
<path d="M495.526 298.277C495.601 297.531 495.872 296.819 496.311 296.213L496.12 295.911L497.753 295.136H497.785C499.246 294.655 501.25 295.136 503.362 296.597C507.242 299.341 510.011 304.547 509.546 308.214C509.467 309.051 509.133 309.844 508.588 310.483C508.589 310.498 508.589 310.513 508.588 310.528C507.88 311.221 506.998 311.709 506.036 311.938L505.781 311.522C504.293 311.359 502.878 310.789 501.69 309.874C497.83 307.149 495.06 301.95 495.526 298.277Z" fill="#969BC2"/>
<path d="M494.268 298.88C493.803 302.547 496.572 307.752 500.452 310.496C504.331 313.24 507.854 312.496 508.313 308.829C508.773 305.162 506.01 299.957 502.13 297.213C498.25 294.469 494.728 295.213 494.268 298.88Z" fill="#9EA2CB"/>
<path d="M495.041 299.899C494.671 302.816 496.873 306.951 499.961 309.143C503.05 311.336 505.851 310.733 506.221 307.816C506.591 304.899 504.39 300.764 501.301 298.572C498.213 296.379 495.411 296.995 495.041 299.899Z" fill="#B4C5E1"/>
<path d="M497.836 302.188C497.657 303.604 498.723 305.604 500.216 306.675C501.709 307.746 503.068 307.444 503.247 306.034C503.426 304.624 502.36 302.617 500.867 301.547C499.374 300.476 498.014 300.771 497.836 302.188Z" fill="#9EA2CB"/>
<path d="M482.636 290.77L502.424 302.797V308.457L497.619 305.54L496.674 303.406L487.326 297.719L486.63 298.88L482.636 296.45V290.77Z" fill="#BDCCE5"/>
<path d="M438.957 265.917C439.032 265.171 439.303 264.459 439.742 263.853L439.551 263.552L441.203 262.776H441.235C442.696 262.295 444.7 262.776 446.812 264.238C450.692 266.981 453.462 272.187 452.996 275.854C452.917 276.691 452.583 277.484 452.039 278.123C452.04 278.138 452.04 278.153 452.039 278.168C451.33 278.861 450.448 279.349 449.486 279.578L449.231 279.162C447.743 278.999 446.328 278.429 445.14 277.514C441.261 274.809 438.523 269.61 438.957 265.917Z" fill="#969BC2"/>
<path d="M437.7 266.558C437.234 270.225 440.004 275.431 443.883 278.174C447.763 280.918 451.286 280.175 451.745 276.508C452.204 272.841 449.441 267.635 445.562 264.892C441.682 262.148 438.166 262.872 437.7 266.558Z" fill="#9EA2CB"/>
<path d="M438.473 267.558C438.103 270.475 440.304 274.61 443.393 276.802C446.481 278.995 449.283 278.392 449.653 275.475C450.023 272.559 447.821 268.424 444.733 266.231C441.644 264.039 438.843 264.635 438.473 267.558Z" fill="#B4C5E1"/>
<path d="M441.274 269.847C441.096 271.264 442.161 273.264 443.654 274.334C445.148 275.405 446.507 275.104 446.686 273.693C446.864 272.283 445.799 270.276 444.305 269.206C442.812 268.135 441.453 268.43 441.274 269.847Z" fill="#9EA2CB"/>
<path d="M442.001 270.36C441.867 271.392 442.64 272.86 443.744 273.636C444.847 274.411 445.83 274.2 445.958 273.168C446.085 272.136 445.32 270.668 444.216 269.892C443.112 269.116 442.129 269.328 442.001 270.36Z" fill="#B4C5E1"/>
<path d="M453.526 274.251C453.601 273.505 453.872 272.793 454.311 272.187L454.12 271.886L455.753 271.11H455.785C457.246 270.629 459.25 271.11 461.362 272.572C465.242 275.315 468.011 280.521 467.546 284.188C467.467 285.025 467.133 285.818 466.588 286.457C466.589 286.472 466.589 286.487 466.588 286.502C465.88 287.195 464.998 287.683 464.036 287.912L463.781 287.496C462.293 287.333 460.878 286.763 459.69 285.848C455.83 283.124 453.06 277.924 453.526 274.251Z" fill="#969BC2"/>
<path d="M452.268 274.854C451.803 278.521 454.572 283.726 458.452 286.47C462.331 289.214 465.854 288.47 466.313 284.803C466.773 281.136 464.01 275.931 460.13 273.187C456.25 270.443 452.728 271.187 452.268 274.854Z" fill="#9EA2CB"/>
<path d="M453.041 275.873C452.671 278.79 454.873 282.925 457.961 285.117C461.05 287.31 463.851 286.707 464.221 283.79C464.591 280.873 462.39 276.738 459.301 274.546C456.213 272.354 453.411 272.969 453.041 275.873Z" fill="#B4C5E1"/>
<path d="M455.836 278.162C455.657 279.578 456.723 281.579 458.216 282.649C459.709 283.72 461.068 283.418 461.247 282.008C461.426 280.598 460.36 278.591 458.867 277.521C457.374 276.45 456.014 276.745 455.836 278.162Z" fill="#9EA2CB"/>
<path d="M440.636 266.744L460.424 278.771V284.431L455.619 281.514L454.674 279.38L445.326 273.693L444.63 274.854L440.636 272.424V266.744Z" fill="#BDCCE5"/>
<path d="M529.342 316.19L529.148 326.165L526.148 324.162V318.788L433.648 264.598V261.094L529.342 316.19Z" fill="#A9B8DA"/>
<path d="M529.198 313.936L560.648 295.836V270.961L529.27 289.169L529.198 313.936Z" fill="#E2EBF7"/>
<path d="M529.27 289.169L560.648 270.961L552.247 253.076L520.869 271.284L529.27 289.169Z" fill="#E2EBF7"/>
<path d="M543.344 278.56L536.953 264.939L523.203 272.896L529.593 286.517L543.344 278.56Z" fill="white"/>
<path d="M558.781 269.671L552.391 256.051L538.604 264.008L544.995 277.628L558.781 269.671Z" fill="white"/>
<path d="M436.148 260.093V222.244L520.869 271.284L529.27 289.205V313.972L521.647 309.576L521.648 309.647L436.148 260.093Z" fill="#B4C5E1"/>
<path d="M552.283 253.111L467.266 204.208L451.648 205.535L536.666 254.438L552.283 253.111Z" fill="#DFEAFC"/>
<path d="M536.666 254.438L451.946 205.671L436.149 222.553L520.869 271.32L536.666 254.438Z" fill="#CBD7EA"/>
<path d="M536.666 254.438L520.869 271.319L536.666 257.448L552.283 253.111L536.666 254.438Z" fill="#B4C5E1"/>
<path d="M520.869 271.319L552.319 253.183L551.996 253.219L551.673 253.291L536.666 257.448L520.869 271.319Z" fill="#E2EBF7"/>
<g style="mix-blend-mode:multiply" opacity="0.5">
<path d="M520.869 271.319L537.563 259.563L551.996 253.219L551.673 253.291L536.666 257.449L520.869 271.319Z" fill="#E2EBF7"/>
</g>
<path d="M537.101 255.839C536.505 256.221 536.051 256.788 535.809 257.452C535.414 258.527 535.809 259.424 536.347 259.459C536.615 259.467 536.878 259.392 537.101 259.244C537.697 258.863 538.151 258.296 538.394 257.631C538.788 256.556 538.394 255.66 537.855 255.588C537.584 255.591 537.32 255.679 537.101 255.839Z" fill="white"/>
<path d="M524.747 287.413L516.417 282.61C516.178 282.472 515.979 282.273 515.84 282.034C515.702 281.795 515.628 281.524 515.628 281.248V272.108C515.639 272.009 515.679 271.915 515.744 271.839C515.809 271.762 515.895 271.707 515.992 271.68C516.088 271.653 516.19 271.656 516.285 271.687C516.381 271.719 516.464 271.778 516.525 271.857L525.501 286.839C525.577 286.939 525.61 287.065 525.593 287.189C525.577 287.314 525.511 287.426 525.411 287.502C525.311 287.578 525.185 287.612 525.06 287.595C524.936 287.578 524.823 287.512 524.747 287.413Z" fill="white"/>
<path d="M452.357 265.39L453.147 264.924L453.255 237.863L452.465 238.329L452.357 265.39Z" fill="#A9B8DA"/>
<path d="M452.465 238.329L453.255 237.863L447.511 234.566L446.721 235.032L452.465 238.329Z" fill="#CBD7EA"/>
<path d="M446.721 235.032L446.649 262.093L452.357 265.39L452.465 238.329L446.721 235.032Z" fill="#B4C5E1"/>
<path d="M468.357 274.4L469.147 273.934L469.255 246.873L468.465 247.339L468.357 274.4Z" fill="#A9B8DA"/>
<path d="M468.465 247.339L469.255 246.873L463.511 243.576L462.721 244.042L468.465 247.339Z" fill="#CBD7EA"/>
<path d="M462.721 244.042L462.649 271.102L468.357 274.4L468.465 247.339L462.721 244.042Z" fill="#B4C5E1"/>
<path d="M484.357 283.41L485.147 282.944L485.255 255.883L484.465 256.349L484.357 283.41Z" fill="#A9B8DA"/>
<path d="M484.465 256.349L485.255 255.883L479.511 252.585L478.721 253.051L484.465 256.349Z" fill="#CBD7EA"/>
<path d="M478.721 253.051L478.649 280.112L484.357 283.41L484.465 256.349L478.721 253.051Z" fill="#B4C5E1"/>
<path d="M543.951 297.875V296.741L544.94 297.32V298.478L543.951 297.875Z" fill="#A9B8DA"/>
<path d="M553.6 293.364V292.302L544.964 297.32V298.43L553.6 293.364Z" fill="white"/>
<path d="M543.927 296.741L552.66 291.748L553.649 292.302L544.94 297.369L543.927 296.741Z" fill="#CBD7EA"/>
<path d="M543.951 294.298V293.164L544.94 293.743V294.901L543.951 294.298Z" fill="#A9B8DA"/>
<path d="M553.6 289.787V288.725L544.964 293.743V294.853L553.6 289.787Z" fill="white"/>
<path d="M543.927 293.164L552.66 288.171L553.649 288.726L544.94 293.792L543.927 293.164Z" fill="#CBD7EA"/>
<path d="M531.65 316.996L529.65 318.214V315.389L531.65 314.171V316.996Z" fill="#E2EBF7"/>
<path d="M529.15 326.164L562.65 306.643V296.633L529.15 316.154V326.164Z" fill="#E2EBF7"/>
<path d="M562.65 296.273L560.662 295.073L529.149 313.171L436.149 259.671L433.742 260.87L529.149 315.726L562.65 296.273Z" fill="#CBD7EA"/>
<defs>
<filter id="filter0_f_827_30341" x="0.5" y="45.4548" width="559" height="321.906" filterUnits="userSpaceOnUse" color-interpolation-filters="sRGB">
<feFlood flood-opacity="0" result="BackgroundImageFix"/>
<feBlend mode="normal" in="SourceGraphic" in2="BackgroundImageFix" result="shape"/>
<feGaussianBlur stdDeviation="1" result="effect1_foregroundBlur_827_30341"/>
</filter>
<linearGradient id="paint0_linear_827_30341" x1="389.5" y1="298.31" x2="418.117" y2="247.32" gradientUnits="userSpaceOnUse">
<stop stop-color="#0E3390" stop-opacity="0"/>
<stop offset="1" stop-color="#0E3390" stop-opacity="0.79"/>
</linearGradient>
<clipPath id="clip0_827_30341">
<rect width="560" height="366.395" fill="white" transform="matrix(-1 0 0 1 560 0.989258)"/>
</clipPath>
<clipPath id="clip1_827_30341">
<rect width="115" height="98.1106" fill="white" transform="translate(65.4395 0.989258)"/>
</clipPath>
<clipPath id="clip2_827_30341">
<rect width="49.2692" height="11.6094" fill="white" transform="matrix(0.865865 0.500278 0 1 87 39.9893)"/>
</clipPath>
<clipPath id="clip3_827_30341">
<rect width="115" height="98.1106" fill="white" transform="translate(157.439 54.0491)"/>
</clipPath>
<clipPath id="clip4_827_30341">
<rect width="49.2692" height="11.6094" fill="white" transform="matrix(0.865865 0.500278 0 1 179 93.0464)"/>
</clipPath>
<clipPath id="clip5_827_30341">
<rect width="115" height="98.3836" fill="white" transform="translate(251.44 106.708)"/>
</clipPath>
<clipPath id="clip6_827_30341">
<rect width="115" height="98.1106" fill="white" transform="translate(345 159.167)"/>
</clipPath>
<clipPath id="clip7_827_30341">
<rect width="49.2692" height="11.6094" fill="white" transform="matrix(0.865865 0.500278 0 1 367 198.16)"/>
</clipPath>
</defs>
</svg>
